<svg xmlns="http://www.w3.org/2000/svg" xmlns:xlink="http://www.w3.org/1999/xlink" width="100" height="170" viewBox="0 0 100 170"><symbol viewBox="-22.5 -21.4 44.9 42.9"><path fill="#008000" d="M1.9-18.1c-.7.6-1.3 1.2-1.9 2-.6-.8-1.3-1.5-2.1-2.1-.6-.5-1.3-.9-2.1-1.3-1.7-.9-3.5-1.3-5.5-1.3-3.4 0-6.3 1.2-8.7 3.6-2.4 2.4-3.6 5.4-3.6 8.8 0 4.7 2.5 9.7 7.5 14.8 6.7 5.9 11.5 10.7 14.5 14.3 3-3.6 7.8-8.4 14.4-14.3 5-5.1 7.6-10.1 7.6-14.8 0-3.4-1.2-6.4-3.6-8.8-2.4-2.4-5.4-3.6-8.8-3.6-1.9 0-3.7.4-5.4 1.3-.9.3-1.6.8-2.3 1.4z"/><path fill="#055905" d="M0 20.7v-36.9c.6-.7 1.2-1.4 1.9-1.9.7-.6 1.5-1 2.3-1.5 1.7-.9 3.5-1.3 5.4-1.3 3.4 0 6.4 1.2 8.8 3.6 2.4 2.4 3.6 5.4 3.6 8.8 0 4.7-2.5 9.7-7.6 14.8-6.6 6-11.4 10.8-14.4 14.4z"/><path stroke="#000" stroke-miterlimit="10" d="M1.9-18.1c-.7.6-1.3 1.2-1.9 2-.6-.8-1.3-1.5-2.1-2.1-.6-.5-1.3-.9-2.1-1.3-1.7-.9-3.5-1.3-5.5-1.3-3.4 0-6.3 1.2-8.7 3.6-2.4 2.4-3.6 5.4-3.6 8.8 0 4.7 2.5 9.7 7.5 14.8 6.7 5.9 11.5 10.7 14.5 14.3 3-3.6 7.8-8.4 14.4-14.3 5-5.1 7.6-10.1 7.6-14.8 0-3.4-1.2-6.4-3.6-8.8-2.4-2.4-5.4-3.6-8.8-3.6-1.9 0-3.7.4-5.4 1.3-.9.3-1.6.8-2.3 1.4z" fill="none"/></symbol><symbol viewBox="-14 -23.5 28 47"><path fill="#F2F200" d="M10 13c0 5.5-4.5 10-10 10s-10-4.5-10-10v-23h20v23z"/><path fill="#D63403" d="M10-10v23c0 5.5-4.5 10-10 10v-33h10z"/><path fill="#008000" d="M13.5-13.5c0-5.2-6-9.5-13.5-9.5s-13.5 4.3-13.5 9.5 6 5.5 13.5 5.5 13.5-.3 13.5-5.5z"/><path fill="#056605" d="M13.5-13.5c0 5.2-6 5.5-13.5 5.5v-15c7.5 0 13.5 4.3 13.5 9.5z"/><path fill="#4E5DC9" d="M-10-9h20v5h-20z"/><path fill="#384A89" d="M0-9h10v5h-10z"/><path stroke="#000" stroke-miterlimit="10" d="M10-8.9v21.9c0 5.5-4.5 10-10 10s-10-4.5-10-10v-21.9c-2.2-.8-3.5-2.1-3.5-4.6 0-5.2 6-9.5 13.5-9.5s13.5 4.3 13.5 9.5c0 2.5-1.3 3.8-3.5 4.6z" fill="none"/></symbol><symbol viewBox="-29.9 -9.5 29.9 19"><path fill="#F2F200" d="M-22.8-6.9c-1.8 0-3.6.7-4.9 2-1.3 1.3-2 3-2 4.9 0 3.8 3.1 6.9 6.9 6.9h13.6v-13.8h-13.6z"/><path fill="#D63403" d="M-9.2-6.9h-13.6c-3.8 0-6.9 3.1-6.9 6.9h20.5v-6.9z"/><path fill="#008000" d="M-6.8-9.3c3.6 0 6.5 4.2 6.5 9.3s-2.9 9.3-6.5 9.3-3.8-4.2-3.8-9.3.2-9.3 3.8-9.3z"/><path fill="#056605" d="M-6.8-9.3c-3.6 0-3.8 4.2-3.8 9.3h10.3c.1-5.1-2.9-9.3-6.5-9.3z"/><path fill="#4E5DC9" d="M-9.9 6.9v-13.8h-3.4v13.8z"/><path fill="#384A89" d="M-9.9 0v-6.9h-3.4v6.9z"/><path stroke="#000" stroke-width=".5" stroke-miterlimit="10" d="M-9.9-6.9h-12.9c-3.8 0-6.9 3.1-6.9 6.9s3.1 6.9 6.9 6.9h12.9c.5 1.5 1.4 2.4 3.1 2.4 3.6 0 6.5-4.2 6.5-9.3s-2.9-9.3-6.5-9.3c-1.7 0-2.6.9-3.1 2.4z" fill="none"/></symbol><symbol viewBox="-22.5 -21.4 44.9 42.9"><path fill="#008000" d="M1.9-18.1c-.7.6-1.3 1.2-1.9 2-.6-.8-1.3-1.5-2.1-2.1-.6-.5-1.3-.9-2.1-1.3-1.7-.9-3.5-1.3-5.5-1.3-3.4 0-6.3 1.2-8.7 3.6-2.4 2.4-3.6 5.4-3.6 8.8 0 4.7 2.5 9.7 7.5 14.8 6.7 5.9 11.5 10.7 14.5 14.3 3-3.6 7.8-8.4 14.4-14.3 5-5.1 7.6-10.1 7.6-14.8 0-3.4-1.2-6.4-3.6-8.8-2.4-2.4-5.4-3.6-8.8-3.6-1.9 0-3.7.4-5.4 1.3-.9.3-1.6.8-2.3 1.4z"/><path fill="#055905" d="M0 20.7v-36.9c.6-.7 1.2-1.4 1.9-1.9.7-.6 1.5-1 2.3-1.5 1.7-.9 3.5-1.3 5.4-1.3 3.4 0 6.4 1.2 8.8 3.6 2.4 2.4 3.6 5.4 3.6 8.8 0 4.7-2.5 9.7-7.6 14.8-6.6 6-11.4 10.8-14.4 14.4z"/><path stroke="#000" stroke-miterlimit="10" d="M1.9-18.1c-.7.6-1.3 1.2-1.9 2-.6-.8-1.3-1.5-2.1-2.1-.6-.5-1.3-.9-2.1-1.3-1.7-.9-3.5-1.3-5.5-1.3-3.4 0-6.3 1.2-8.7 3.6-2.4 2.4-3.6 5.4-3.6 8.8 0 4.7 2.5 9.7 7.5 14.8 6.7 5.9 11.5 10.7 14.5 14.3 3-3.6 7.8-8.4 14.4-14.3 5-5.1 7.6-10.1 7.6-14.8 0-3.4-1.2-6.4-3.6-8.8-2.4-2.4-5.4-3.6-8.8-3.6-1.9 0-3.7.4-5.4 1.3-.9.3-1.6.8-2.3 1.4z" fill="none"/></symbol><symbol id="c" viewBox="-6.8 -8.1 13.5 16.2"><path fill="#008000" d="M-2.1-7.8c-.2 0-.5.1-.6.3-.1.3 0 .6.3.8 1.9.9 1.8 3.4 1.8 3.4 0 .3.2.6.6.6.3 0 .6-.2.6-.6 0-.1.2-3.4-2.5-4.6 0 .1-.1.1-.2.1z"/><path fill="#008000" d="M.6-3.8c-.3.2-.4.4-.6.6l-.6-.6c-.2-.2-.4-.3-.6-.4-.5-.3-1-.4-1.6-.4-1 0-1.9.4-2.6 1.1-.7.7-1.1 1.6-1.1 2.6 0 1.4.7 2.9 2.2 4.4 2 1.7 3.4 3.2 4.3 4.2.9-1.1 2.3-2.5 4.3-4.2 1.5-1.5 2.2-3 2.2-4.4 0-1-.4-1.9-1.1-2.6-.7-.7-1.6-1.1-2.6-1.1-.6 0-1.1.1-1.6.4l-.6.4z"/><path fill="#055905" d="M0 7.7v-10.9c.2-.2.3-.4.6-.6l.6-.4c.5-.3 1-.4 1.6-.4 1 0 1.9.4 2.6 1.1.7.7 1.1 1.6 1.1 2.6 0 1.4-.7 2.9-2.2 4.4-2 1.7-3.4 3.1-4.3 4.2z"/><path stroke="#000" stroke-width=".5" stroke-miterlimit="10" d="M4.3 3.5c-2 1.7-3.4 3.1-4.3 4.2-.9-1.1-2.3-2.5-4.3-4.2-1.5-1.5-2.2-3-2.2-4.4 0-1 .4-1.9 1.1-2.6.7-.7 1.6-1.1 2.6-1.1.6 0 1.1.1 1.6.4.2.1.4.2.6.4-.1-.8-.4-2.3-1.8-2.9-.3-.1-.4-.5-.3-.8.1-.2.3-.4.6-.3.1 0 .1 0 .2.1 2 .9 2.4 3 2.5 4 .2-.3.4-.4.6-.5.5-.3 1-.4 1.6-.4 1 0 1.9.4 2.6 1.1.7.7 1.1 1.6 1.1 2.6 0 1.4-.7 2.9-2.2 4.4z" fill="none"/></symbol><symbol id="b" viewBox="-37.3 -39.3 74.6 77.2"><path fill="#AD100D" stroke="#000" stroke-width=".5" d="M27.6-13l8.4-6.6 1-9v-10.2h-41.1z"/><path fill="#0B9128" stroke="#000" stroke-width=".5" d="M-12-23.5l.7 20.5 43.5-3.6c-.3-2.3-.7-4.6-1-6.8l-.8-5.5c-.2-1.4-.7-2.7-.8-4.1-.2-1.4-.4-2.8-.8-4.1-.7-2.2-1.9-4.3-4-5.4-2.4-1.3-5.2-1.4-7.8-2.1l-4-1-3.3-.2c-.3-.1-3.3-1.2-3.3-1v-1.9h-21.8l7.5 4.9-7.5-.1v9.5l3.4.9z"/><path fill="#AD100D" stroke="#000" stroke-width=".5" d="M-4.7-9.4c.8-.9.2-2.7-.2-3.7-.2-.5-.4-1-1-1.2-1.6-.5-3.2.8-4.9.5-.5-.1-.9-.1-1.5 0-1 .3-1.8 1.2-1.9 2.2-.1.7 0 1.5.3 2.1.2.7.7 1.5.7 2.3 0 .7-.2 1.2-.1 1.9s.8 3.2 1.9 2c1.2-1.3 2.6-2.5 3.9-3.7.5-.5 1.1-1.1 1.7-1.6l1.1-.8zM32.4-6.6c.4-.9.7-1.8.7-2.9v-4c0-.2.1-.6 0-.8l-1.2-2.8c0-.1-.6 0-.6 0-.2-.1-.2-.6-.5-.7l-.2.1h-.4c-.4.1-.8.4-1.2.6-.8.4-1.7.7-2.6.9-1.5.2-3.3-.1-4.7-.5-.6-.2-1.2-.2-1.7-.4-.3-.1-.9-.6-1.2-.5-.2.1-.5.7-.6.9-.4.7-.7 1.4-.7 2.1 0 .9.1 1.7.2 2.6 0 .7-.1 1.2 0 1.9 0 .2.5 2.4 0 2.4-.3 0 1.7.7 6.1 2l6.6 2.1.4-.4.6-.4c.4-.3.5-.9.7-1.4 0-.1.2-.4.3-.8z"/><g stroke="#D8D841" stroke-width=".5"><path d="M-11.3-4.6l.9-.8-1.3-3c.1-.7.3-1.4.5-2.2.1-.4.3-2.4-.6-1.5-1 1.1-.7 2.8-.7 4.1l1.2 3.4zM-8.8-6.6l1.6-1.2s-.5-.9-.6-1c-.3-.8-.3-1.7-.4-2.5-.1-.6 0-1.4-.5-1.9-.3-.3-.5-.2-.7.1-.7 1.2-.6 2.3-.6 3.6l1.2 2.9zM18.4-9.5l1.9.9.3-3.2.6-1.6-.3-.9c-.1-.3-.1-.7-.1-1-.3-1-1.2 0-1.3.5-.2.7-.4 1.7-.2 2.4.1.4.2.5 0 .9-.2.1-.9 2-.9 2zM23.1-7.3l1.5.8c.1-.4.2-.8.3-1.1.3-1.2.8-2.4 1-3.6.1-.5-.6-3.5-1.4-2.9-.1.1-.2.6-.3.8l-.3 1.1c-.2 1-.5 1.9-.6 2.9-.1.5-.1 1.2-.2 2zM28-4.9l1.6.8.3-.7c.4-1 .8-2 1.1-3 .5-1.2.4-2.7.2-4-.1-.8-.1-1.5-.5-2.4-.1-.3-.3-.7-.7-.6-.6.1-.5.8-.5 1.3l.1 1c0 .5-.2.8-.1 1.3.2 1-.1 1.8-.4 2.8-.2.8-.4 1.4-.7 2.2.1 0-.4 1.3-.4 1.3z"/></g><path fill="#D6C19D" stroke="#000" stroke-width=".5" d="M8.3 28.3l3.3-1.2 3.9-22.3-11-9.4-2.8 10.5c-.1.4.1 1.1.1 1.6 0 .6.1 1.2.1 1.9 0 .3.1.4-.3.6-.2 0-.6 0-.8.1-.8.2-1.6.2-2.4.5-.7.3-1.1.8-1 1.6 0 .2.1.5.2.7.1.1.2.4 0 .5-.1.1-.2.1-.3.1-.3.2-.3.5-.2.8l.1.3s.1.1.1.2-.1.2-.1.2c-.2.3-.3.5-.3.9 0 .2.1.8 0 .9-.1.2-.4.3-.6.4-.6.4-.2.7 0 1.3.5 1.2.9 2.4 1.4 3.5.2.6.1.8-.2 1.3-.5.5.3 1.7.6 2.3l.7 1.8h.8l8.7.9z"/><path fill="#E6E6E6" stroke="#000" stroke-width=".5" d="M32.2-2.8l.1-.4-.8.2c-.3-.1-.7-.3-1-.5l-1.2-.5c-.4-.3-.5-.4-1-.4-.4 0-.7-.2-1.1-.4l-2.1-1c-.8-.3-1.5-.6-2.2-1-.3-.2-.6-.4-.8-.7-.1-.3-.1-.5-.4-.7-1.2-.8-2.6-1.1-3.9-1.6-.7-.3-1.5-.6-2.1-1.2-.3-.3-.6-.6-.8-1-.2-.4-.4-1-.7-1.3-.3.2-.2.8-.1 1.1-.6-.7-1-1.6-1.4-2.4l-.8-2.2c-.2-.5-.3-1.1-.6-1.5l-.3 1c-.3-.5-.4-1.2-.6-1.7-.2-.6-.3-1.2-.4-1.8-.1-.3-.1-.7-.3-.9-.1.2-.1.5-.2.8.1-.8-.3-1.5-.5-2.1l-.7-2.8c0 .3-.1.7-.1 1.1-.2-.2-.3-.6-.4-.9l-1-3c-.6-1.7-1.3-3.5-2-5.2l-.6-1.6c0-.1-.2-.5-.2-.5l-.3.7c-.5 1.3-1.1 2.6-1.4 4l-.2 1.5c-.1.2-.8 2.1-.8 2.1l-.3-.3c-.2.5-.3 1.1-.3 1.7-.1.6 0 2-.5 2.5-.4-.1-.2-.7-.4-1-.3.4-.4 1.3-.5 1.8-.1.4-.1 2-.5 2.2-.1-.2-.1-.5-.1-.7-.2.1-.2.3-.3.5-.2.4-.4.9-.5 1.3-.3.7-.5 1.4-.7 2.2-.2.6-.5 1.1-.6 1.7-.1.3-.1.9-.5.9-.2.6-.2 1.5-.6 2-.2-.3-.4-.1-.5.2-.3.7-.4 1.4-.7 2-.3 1.1-.9 1.7-1.2 2.6-.2-.1-.2-.4-.3-.5-.4.3-.2 1.4-.7 1.6-.2.1-.5.1-.7.1-.9.2-1.5.6-2.1 1.2-.3.2-.6.5-.8.7l-.7.9c-.3.2-.5.5-.7.7-.1.1-.7.5-.7.5 0 .5.4.9.4 1.3l-.5-.3c.2.6.7 1.1.8 1.6-.4 0-.7-.1-1-.2.5.2 1 .5 1.5.8.6.3 1.5.6 1.9 1.2-.3.1-.7-.3-1.1-.3.5.3 1 .8 1.5 1.2.2.5.5.8 1 1.1.2.1.5.2.6.4l-.6-.1c.6.5 1.2.9 1.9 1.1l1.4.5.8.3c.2 0 .4 0 .6.1-.2.1-.3.1-.4.3.4 0 .7 0 1.1.1.3 0 .6.1.9.2.2.1.4.3.6.3.2 0 .4 0 .7.1l1 .3c.1 0 2.1.7 2.1.7.4-.8.6-1.6.9-2.3l.7-1c.2-.6.4-1.2.5-1.8.1-.5.4-1 .4-1.6 0-.4.1-1-.1-1.4.2.6.8 1.2 1.1 1.6l.9.8 2.1 1.7c1.4 1.2 2.8 2.3 4.3 3.4.3.2.6.5.9.8 0 0 .5-.1.6-.2.5-.2 1.1-.3 1.6-.4 1.5-.4 2.9-.8 4.3-1.3.8-.3 1.7-.4 2.6-.4.5 0 1-.2 1.5-.1.3 0 .6.3.8.2-.2-.4-.6-.5-.9-.6.5-.3 1-.2 1.5-.4.6-.3 1.3-.5 1.9-1 .4-.4.6-.8 1.1-1.1l.7-.6c-.2.1-.6.3-.8.2.1-.7 1.3-1.3 1.8-1.7l1.3-1.1c-.2 0-.3.1-.5 0 0-.3.4-.6.5-.8.2-.2.3-.5.5-.8.2-.2.3-.5.4-.8z"/><path fill="#AD100D" stroke="#000" stroke-width=".5" d="M3.9-5.9c.8-.3 1.4-1.2 1.3-2.3-.1-1.4-1.1-2.5-2.3-2.5s-2.1 1-2 2.4c.1 1 .8 1.9 1.7 2.3-1.9-.5-3.5-2.4-3.6-4.7-.2-2.6 1.5-4.6 3.7-4.5 2.2 0 4.2 2.2 4.3 4.8.2 2.3-1.2 4.2-3.1 4.5z"/><path fill="#D8D841" stroke="#000" stroke-width=".5" d="M4.4-1.1c4.7-.1 10.1 9.4 10.1 9.4l5.8-2.4s-8.6-12.6-16.9-12.6l-6 13.2 4.3 1.3c-.1 0-1.9-8.8 2.7-8.9z"/><path fill="#C1855D" stroke="#000" stroke-width=".5" d="M6.6 27.4l3.1-3.5 2.4-2.6c.6-.6 1.1-1.4 1.7-1.9l1.8-1.1c.8-.7.9-1.9.8-2.9 0-.5-.1-.9-.2-1.4 0-.4.2-.7.4-1 .4-.6.9-1.2.9-1.9v-1.1c.1-1 .7-1.4 1.4-1.9l1.8-1.7-1.5-.5c-.6.1-1.2.3-1.8.5-1 .4-2 .6-2.7 1.4-.2.2-.3.8-.6.8-.2-.3-.2-.8-.4-.9-.3.5 0 1.4-.4 1.8-.1-.7 0-1.2-.3-1.8-.3-.6-.7-1.1-1.2-1.5-.4-.3-.8-1.2-1.3-1.3.1.6.5 1 .4 1.6l-.4-.7c-.3-.4-.6-.9-.8-1.3.4.4-.1 2-.3 2.4-.4.7-.5 1.6-1.1 2.2-.4.5-.5.9-.4 1.5.1.3.2.6 0 .9-.2.3-.7.5-1 .7-.8.5-1.4 1.5-1.6 2.4-.1.8-.1 1.5-.4 2.2-.3.9-.7 1.6-.7 2.6s0 2-.2 3c-.2.8-.3 1.6-.4 2.5-.1.5-.1 1 .4 1.4.7.4 1.7.7 2.6 1.1zM-3.4 15.5c.1.4.4 1 .6 1.1.5.3 1.2.1 1.6-.3.9-.9 2.1-1.6 3.2-2.1.5-.2 1.4-.1 1.6.5-.2-.6-.5-1-1.1-1.1-1-.2-2.3.2-3 .8-.4.3-.6.7-1.1.8-.3.1-.7 0-1 0l-.6-.2c-.2.1-.3.3-.2.5z"/><path fill="#AD100D" stroke="#000" stroke-width=".5" d="M21.2 29.7l-3.9-3.8s3.8-2.8 2.1-5.5-3.2-2.4-4.3-1.9c-1.1.6-5.6 3.5-8.4 4.5s-8.2 2.1-9.6 2.5c-1.3.4-2.4 1.6-2.1 3.4.3 1.8 4.1 1.9 4.1 1.9v6.7h.2l1.7-1.7 2.8 1.4 1.8-1.8 2.5 1 1.2-1.3 2.7 1 .7-2.3 2.6.8.7-2.5 2.4-.6v-1.8h2.8z"/><path fill="#D8D841" stroke="#000" stroke-width=".5" d="M-34.9 6.8c.6-.4 1.1-1.1 1.3-1.8.1-.5.4-1.2.4-1.7 0 .5 0 1.3.3 1.8.2.4.6.5.9.7-.1-.1 0-.9 0-1.1 0-.4-.1-.7-.2-1.1-.2-.6-.3-1.2-.3-1.8 0-1 1.4-2.2.4-3.1.5.5 1.2.6 1.8.2.8-.5.7-1.4.7-2.2-.6.2-1.3.3-1.5-.5-.2-.7.4-1.5.7-2 .5-.7.6-1.3.6-2.1 0-.3.1-.7 0-1-.2-.3-.3-.2-.5-.4 1.2-.6 1.8-1.4 1-2.6 0 .1.9-.9.9-1 .3-.4.5-.9.6-1.3.1-.4 0-.8 0-1.2l.2-1.4c.3.8.7 1.5 1.6 1.7.2-1.1-.4-2.4-.4-3.5 0-.9.2-1.7.5-2.5l1-4.2c.7-2.9 1.4-5.8 2-8.7.1-.5.2-1.2.4-1.6.2-.3.5-.5.7-.7.4-.4 1.4-1.5.7-2.1-.5-.4-1.9-.7-2.5-.6-.6 0-1 .4-1.1 1-.1 1.1 0 2.3-.3 3.4l-1.2 3.5c-.9 2.8-1.8 5.6-2.8 8.3l-.5 1.8c-.2.6-.5 1.8-1 2.3-.3.3-.6.6-.8.9-.5.6-1 .7-1.8.7.5 0 1 .4 1.4.5.5.1 1 0 1.5-.1-.2.7-.6 1.3-1 2-.2.3-.4.8-.4 1.2-.1.8.4.9 1 1.2-.7 0-1.4.2-1.6.9-.1.3 0 .6.1 1 .1.2.6.6.6.8 0 .1-.7.3-.9.5-.2.3-.4.6-.5.9-.3.9-.3 1.9-.5 2.8-.1.5 0 1.2-.6 1.4-.4.1-1 0-1-.5-.2.6-.3 2 .1 2.5.4.4 1.4.4 1.8.2-.7.4-1.1.6-1.2 1.5v2.1c0 .1-.5.5-.5.5l-.5.7-1.5 1.3c1.3 0 2.3.1 3.2-.9-1.8.3-.6 2.4-1.3 3.4z"/><path fill="#D6C19D" stroke="#000" stroke-width=".5" d="M-15.5-27.2c.1-.1.1-.1.1-.4l.7-2.7.2-.7c.1-.2-1.6-1.6-1.8-1.8-.3-.3-.6-.8-1.2-.8l-.9.2-1.4.2c-.4 0-.8 0-1.1.1-.4 0-.8.1-1.1.3-.2.1-.4.3-.6.2-.3 0-.5-.4-.7-.6l-1.5-1.5-1.6.5-1 .3c-.1 0-.4.1-.5.2 0 0-.3.4-.1.4h.3c-.4.2-.8.3-1 .8-.1.4 0 1.4.6 1.3-.2.4-.8.4-1 .9-.2.4-.1 1 .2 1.3-.3.2-.7.5-.8.8-.2 1.3 1 1.6 1.9 2.1.1-.1 1-1.1 1.1-1.1l1.8 1.7v.8h1.6c1.8-.6 3.7-1.3 5.5-1.8.7-.2 1.3-.2 2-.6.2-.1.3-.1.3-.1zM-8-26.3l4.3-2.5 5.3-1.5h2.1l3.4-.8v-5.1l-1.9.5c-.2 0-.6-.1-.8-.2l-1.7-.4c-1.3-.3-2.7-.7-3.9 0l-1.1.6-.6.3-2.3-.6-.6-2.9h-.8v3.1l2.4 2.4c-.2-.2-1.4-.1-1.7-.1-.3 0-.8 0-1.1-.1-.5-.1-.5-.6-.7-1l-.6-1.1c-.1-.3-.3-.8-.6-1.3h-1.3v1.3h-.5v2.5c.5 1 1 2.6 2.2 3l1.7.4c.1 0 .8.3 1 .2l-2.9 1.8c-1.1.2-2.7 0-3.4.9-.1.1-.4.7-.5.7 0-.1 4.6-.1 4.6-.1z"/><path fill="#E6E6E6" stroke="#000" stroke-width=".5" d="M-14-35.6c-1.4-.5-3-1.2-4.3 0l-1.2 2.1c.7-.4 1.9.8 2.3 1.3.7.7 1.1 1.7 1 2.7-.1.9-.4 1.7-.9 2.4-.2.2-.3.6-.6.7-.3.2-.7.2-1 .3l-1.8.6c.2 0 .5.8.5 1 .2.4.6.6 1 .8 1.1.6 2.3.6 3.5.2 1.3-.5 1.5-1.8 2-3 .3-.7.6-1.5.8-2.2.4-1.3.8-2.3.1-3.5-.4-.8-.8-1.7-1.1-2.6-.1-.4-.2-.6-.3-.8zM7.6-27.3c-1.1-.1-2.4-.2-3.3-.8-.5-.4-1-.6-1.5-1.1-.2-.2-.4-1-.8-1 .4.2.1 1 .1 1.4.2.8 1.6.7 2.2 1 1.1.4 2.1.5 3.2.1 1.4-.5 2.3-1.5 2.6-2.9.2-.7.6-1.2 1-1.9.5-.9.4-1.6.1-2.5-.4-1.1-1-2.9-2.2-3.4-.8-.4-1.4-.2-2.3-.2-.8 0-1.6-.1-2.2.4-.2.2-.5.4-.6.7-.1.1-.4 1.4-.3 1.4.4 0 .9.4 1.3.6.5.3.8.6.9 1.1.3 1 .2 2.3-.2 3.2-.2.6-.8 1-1.4 1.1-.5.1-1.2-.4-1.6-.1-.1.1-.2.2-.2.4"/><path fill="#D8D841" stroke="#000" stroke-width=".5" d="M.7 24.6l2.2-.6s-1 2.1-1.1 3.5c-.1 1.4-.3 3.2-.3 3.2-.9.4-1.2.1-2 .2 0 0 0-2.1.3-3.1.3-1.1.9-3.2.9-3.2zM10.2 31.2c-4.9 1.3-11 1.7-11 1.7l.4-1.9c.8-.1 4 .1 9.6-1.5s6.8-3.5 7.7-3.8l1.4 1.2c-.1-.2-3.2 3-8.1 4.3zM8.6 21.9l2.1-1.2s2.4.9 3.7 2.1c1.3 1.2 2.3 2.7 2.3 2.7-.9.4-.5.9-1.7 1.4 0 0-.6-1.5-2.1-2.6-1.5-1-4.3-2.4-4.3-2.4z"/><path stroke="#000" stroke-width=".25" d="M-.7 20.3c1 .1 1.9.4 2.6.9-.1.4-.7.4-1 .5l-1.8.1v.5c.4.1 1.1.1 1.5-.1.4-.1 1.8-.7 1.7-1.1" fill="none"/><path d="M-1.9 23.3c.3.2.9.1 1.3.1.5 0 .8 0 1.3-.2.7-.2 1.2-.3 1.7-.7" fill="none"/><path d="M-.3 20.9c.1-.1.2-.2.3-.2.2 0 .2.6.2.8v.30000000000000004c0 .1-.4.2-.5.1-.1 0-.2-.1-.2-.2v-.3c0-.1 0-.3.1-.4 0 0 0-.1.1-.1z"/><path stroke="#000" stroke-width=".5" d="M-1.7 23.3c.4.2 1.8.2 2.5.2s1.1-.5 1.7-.6" fill="none"/><path stroke="#000" stroke-width=".25" d="M5.3 23.4c-.3-.7-.2-1.8 0-2.5.1-.7.6-1.3.6-2 0-.5-.2-.9 0-1.4l.7-1.8c.1-.4.1-.7.1-1.1 0-.3.3-.6.5-.9.4-.5 1-1 .9-1.7l-.2-1.7c0-.5.2-.9.6-1.1.4-.3.4-.5.6-1M8.3 19.5c-.2-.9.1-2 .6-2.8.4-.6.9-1.1 1.1-1.7.2-.6 0-1 0-1.5-.1-.7.2-1.1.5-1.6.3-.4.3-.7.5-1.1.2-.6.3-1 .3-1.6 0-.5-.1-.9-.2-1.4l-.3-.9c-.2-.5-.2-1.1-.5-1.6M11.2 20.7c-.1-.8.2-1.5.4-2.3.3-.9.2-1.7.8-2.5.6-.8.7-1.8.7-2.7 0-.8-.2-1.7-.1-2.5.1-1 .4-2.1-.1-3M13.4 18.8c-.4-1.6 1-2.8 1.6-4.1.4-1-.3-2.1-.1-3.2.1-.4.5-.7.8-1 1-1 .5-2.9 2.3-3.4.7-.2 1.7-.5 2.2-1-.2-.3-.7-.3-1-.4M-2.3 11c.3 0 .5-.2.8-.3.4-.1.7-.2 1.1-.2.5 0 1 0 1.5-.1 1.9-.1 3.9.8 5.5 1.7M-4.9-12.9c-.4-4-.5-7.7.6-11.6.4-1.6.5-2.5.2-4.1-.9 1.6-1.3 3.3-3.3 4.1-1.3.5-2.3.9-3.6 1.3M8.3-28.1c.9-.1 1.6.6 2.3.9l3.2 1.3c1.6.6 3.1 1.1 4.8 1.2h2M18.8-17.1c-.8-.3-.6-1-.6-1.7-.2-2-.2-3.9-.2-5.9v.7" fill="none"/><path stroke="#000" stroke-width=".25" d="M-31.3-16.8c.7 0 1.2 0 1.8-.4.1.9 0 1.9 0 2.8.3-.6.6-1.2 1-1.8.2-.3.3-.7.6-1l.6 1.2M-31-12.2c.6-.3 1.7 0 1.8.8M-32.6-8.9c.8-.8 2-.9 2.7.1M-34.1-1.5c.3 0 .6 0 .9-.1.3-.2.4-.5.7-.6 0 .5.3 1.3.9 1.5M-32.6 2.1c-.1 1.2-1.9.1-1.3-.7.6-.8 1.9.6.6 1.2M-29.8-19c.2-.7.7-1.7 1.5-1.8 0 .6 0 1.3.1 1.9.5 0 .9-1.2 1.1-1.6.4.5.8 1.8.8 2.5M-20-29.3c-.6 0-1.4 0-1.8.6-.3.4-.4 1-.9 1.2-.5.2-.8-.2-1.2-.5-.7-.4-1.8-1.2-2.6-.8-.7.3-1.6.8-.6 1.4.7.4 1.4.6 1.9 1.3M-28.9-28.8c.6-.2 1-.8 1.5-1.1-.1-.4.6-.7.9-.7.5-.1.7.2 1 .4.5.3 1.2.7 1.7.9.4.1 1.1.1 1 .6-.1.6-1.2.6-1.6.6M-28.3-31.6c.6 0 1.2-.5 1.8-.6.8-.2.8.2 1.4.6.7.5 1.6.8 2.4 1.3.4.3.9 1 .1 1.1M-27.8-33.2c.3-.4 1.3-.3 1.8-.3.8 0 .9.1 1.5.6.3.3.7.6 1 .8.3.2.7.3.9.5.3.3.4 1.1-.2 1.2M-23.5-33.5c0 .4.4.6.5.9.1.2.3 1-.2.6M-10.3-36.4c.2.8.4 1.8.7 2.7.2.6.2 1.1.7 1.5 1.1.9 2.8 1 4.1 1.2" fill="none"/><path fill="#D8D841" stroke="#000" stroke-width=".5" d="M-7.6-13.7c.5 0 1 .1 1.5-.1.4-.1.6-.6 1.1-.6.1-.1.1-.4.1-.6-2.3-.2-5-.4-7.3-.1.1.4.1.8.1 1.2 1.5.3 2.9.3 4.5.2zM22.5-16c1.3.2 2.6.1 4 .1 1.2 0 2.3-.5 3.4-1 1-.4 1-.7.9-1.8l-2.2.6c-2.4.4-4.6.3-7 .1l-1.9-.2c-.5-.1-1.1-.6-1.5-.6-.1 1.5.6 1.8 1.9 2.3.9.2 1.7.4 2.4.5z"/><path stroke="#000" stroke-width=".25" d="M-2.8 17.3c.5.5 1-.1 1.5-.2.8-.2 1.3 1.1.2 1.1" fill="none"/><path fill="#D8D841" stroke="#000" stroke-width=".25" d="M3.8-3.8c0-.4-.3-.8-.8-.8s-.7.4-.7.8.3.7.7.7.8-.3.8-.7zM8.7-2.4c0-.4-.3-.8-.8-.8-.4 0-.8.3-.8.8 0 .4.3.8.8.8.4-.1.8-.4.8-.8zM12.6.6c0-.5-.4-.8-.8-.8-.5 0-.8.4-.8.8 0 .5.4.8.8.8s.8-.3.8-.8zM15.5 4.2c0-.4-.3-.8-.8-.8s-.7.4-.7.8.3.8.8.8.7-.4.7-.8zM.5-.6c0-.4-.3-.7-.7-.7s-.7.3-.7.7.3.7.7.7.7-.3.7-.7zM-.4 4.1c0-.4-.3-.8-.8-.8s-.8.3-.8.8c0 .4.3.8.8.8s.8-.4.8-.8zM3.7 31.8c0-.4-.3-.8-.8-.8-.4 0-.8.3-.8.8 0 .4.3.8.8.8.4 0 .8-.3.8-.8zM10.5 30.6c0-.4-.3-.8-.8-.8s-.7.4-.7.8.3.8.8.8.7-.4.7-.8zM15.4 28.2c0-.5-.4-.8-.8-.8-.5 0-.8.4-.8.8s.4.8.8.8c.5 0 .8-.4.8-.8z"/><path fill="#D6C19D" d="M-25.3-28.1l1.1.3.8-1.3 1.5-.8-1.1.1-.4.7-1.9 1-2-.6.4 1.4z"/><path fill="#D8D841" stroke="#000" stroke-width=".5" d="M15.4 28.8l-.6 4.6-4.7-2.4-2.3 4.4-5.6-2.9-3.2 3.8v1.3l.9.1 2.8-3.3 5.8 3 2.2-4.4 5.3 2.7.7-5.4 5.9.2-1.9-1.6z"/><path stroke="#000" stroke-width=".5" fill="none" d="M18.5-17.1v-4l-11.1-6.7M2.1 9.8l1.5-.1v-3.9l.9-1.5"/><g><path fill="#D6C19D" d="M-25.1-27.9l1.1.3.7-1.3 1.6-.8-1.2.1-.4.7-1.8 1-2-.6.4 1.4z"/><path stroke="#000" stroke-width=".35" stroke-miterlimit="10" fill="none" d="M-26.7-27.1l-.4-1.4 3.1.9 1.1-2 1.2-.1"/></g><path stroke="#000" stroke-width=".35" stroke-miterlimit="10" fill="none" d="M-23.4-28.6l.3-4.3M-5.5-14.5l.8-7.1-.4-6.1"/><path fill="#008000" d="M-24.6 6.6c-.4 0-.9.2-1 .6-.2.5 0 1.2.5 1.4 3.5 1.6 3.2 6.2 3.2 6.2 0 .6.4 1.1 1 1.1s1.1-.4 1.1-1c0-.2.3-6.1-4.5-8.3h-.3z"/><path fill="#008000" d="M-19.8 14c-.4.3-.7.7-1 1-.3-.4-.7-.8-1.1-1.1-.3-.3-.7-.5-1.1-.7-.9-.5-1.9-.7-2.9-.7-1.8 0-3.4.7-4.7 2-1.3 1.3-1.9 2.9-1.9 4.7 0 2.5 1.4 5.2 4.1 8 3.5 3.2 6.1 5.7 7.7 7.7 1.6-2 4.2-4.5 7.7-7.7 2.7-2.8 4.1-5.4 4.1-8 0-1.8-.6-3.4-1.9-4.7-1.3-1.3-2.9-2-4.7-2-1 0-2 .2-2.9.7-.6.2-1.1.5-1.4.8z"/><path fill="#055905" d="M-20.8 34.9v-19.9c.3-.4.6-.7 1-1 .4-.3.8-.6 1.2-.8.9-.5 1.9-.7 2.9-.7 1.8 0 3.4.7 4.7 2 1.3 1.3 1.9 2.9 1.9 4.7 0 2.5-1.4 5.2-4.1 8-3.4 3.1-6 5.7-7.6 7.7z"/><path stroke="#000" stroke-width=".5" stroke-miterlimit="10" d="M-13.1 27.2c-3.5 3.2-6.1 5.7-7.7 7.7-1.6-2-4.2-4.5-7.7-7.7-2.7-2.8-4.1-5.4-4.1-8 0-1.8.6-3.4 1.9-4.7 1.3-1.3 2.8-2 4.7-2 1 0 2 .2 2.9.7.4.2.8.4 1.1.7-.1-1.4-.7-4.1-3.2-5.3-.5-.2-.8-.9-.5-1.4.2-.4.6-.7 1-.6.1 0 .3 0 .4.1 3.6 1.6 4.3 5.4 4.5 7.3.4-.3.8-.5 1.2-.7.9-.5 1.9-.7 2.9-.7 1.8 0 3.4.7 4.7 2 1.3 1.3 1.9 2.9 1.9 4.7.1 2.4-1.3 5.1-4 7.9z" fill="none"/></symbol><symbol viewBox="-15.5 -15.7 31.1 31.3"><path fill="#E60000" d="M2.9 13c1.4 1.4 2.6 2.1 3.8 2.1 2.3 0 4.3-.8 5.9-2.5 1.6-1.7 2.5-3.7 2.5-6 0-3.3-1.7-7-5.2-11-2-2.3-5.3-5.9-9.9-10.6-4.6 4.7-7.8 8.3-9.8 10.6-3.5 4.1-5.2 7.7-5.2 11 0 2.3.8 4.3 2.5 6 1.7 1.6 3.7 2.5 6 2.5 1.2 0 2.4-.7 3.8-2.1.1-.1 1-1.3 2.8-3.5.4.6 1.4 1.8 2.8 3.5z"/><path fill="#A50A0A" d="M6.7 15.1c-1.2 0-2.4-.7-3.8-2.1-1.4-1.7-2.4-2.9-2.9-3.5v-24.5c4.6 4.7 7.9 8.3 9.9 10.6 3.5 4.1 5.2 7.7 5.2 11 0 2.3-.8 4.3-2.5 6-1.7 1.7-3.6 2.5-5.9 2.5z"/><path stroke="#000" stroke-miterlimit="10" d="M2.9 13c1.4 1.4 2.6 2.1 3.8 2.1 2.3 0 4.3-.8 5.9-2.5 1.6-1.7 2.5-3.7 2.5-6 0-3.3-1.7-7-5.2-11-2-2.3-5.3-5.9-9.9-10.6-4.6 4.7-7.8 8.3-9.8 10.6-3.5 4.1-5.2 7.7-5.2 11 0 2.3.8 4.3 2.5 6 1.7 1.6 3.7 2.5 6 2.5 1.2 0 2.4-.7 3.8-2.1.1-.1 1-1.3 2.8-3.5.4.6 1.4 1.8 2.8 3.5z" fill="none"/></symbol><symbol id="d" viewBox="-3.4 -6.4 6.7 12.7"><path d="M-1.5.6l2.8 5.8h1.9l-3-6 3.2-6.8h-2l-2.9 6.4h-.1v-6.4h-1.8v12.8h1.8l.1-5.8z"/></symbol><symbol id="a" viewBox="-50 -85 100 170"><path fill="#FAFAEE" d="M-43-84.5c-3.6 0-6.5 2.9-6.5 6.5v156c0 3.6 2.9 6.5 6.5 6.5h86c3.6 0 6.5-2.9 6.5-6.5v-156c0-3.6-2.9-6.5-6.5-6.5h-86z"/><path d="M43 84c3.3 0 6-2.7 6-6v-156c0-3.3-2.7-6-6-6h-86c-3.3 0-6 2.7-6 6v156c0 3.3 2.7 6 6 6h86m0 1h-86c-3.9 0-7-3.1-7-7v-156c0-3.9 3.1-7 7-7h86c3.9 0 7 3.1 7 7v156c0 3.9-3.1 7-7 7z"/></symbol><symbol id="e" viewBox="-42 -77 84 154"><path fill="#3F3F3C" d="M-41.5-38.5c-.3 0-.5.2-.5.5v76c0 .3.2.5.5.5s.5-.2.5-.5v-76c0-.3-.2-.5-.5-.5zM39.5-77h-79c-1.4 0-2.5 1.1-2.5 2.5 0 .3.2.5.5.5s.5-.2.5-.5c0-.8.7-1.5 1.5-1.5h79c.8 0 1.5.7 1.5 1.5 0 .3.2.5.5.5s.5-.2.5-.5c0-1.4-1.1-2.5-2.5-2.5zM41.5-38.5c-.3 0-.5.2-.5.5v76c0 .3.2.5.5.5s.5-.2.5-.5v-76c0-.3-.2-.5-.5-.5zM41.5 74c-.3 0-.5.2-.5.5 0 .8-.7 1.5-1.5 1.5h-79c-.8 0-1.5-.7-1.5-1.5 0-.3-.2-.5-.5-.5s-.5.2-.5.5c0 1.4 1.1 2.5 2.5 2.5h79c1.4 0 2.5-1.1 2.5-2.5 0-.3-.2-.5-.5-.5zM41-.5h-82c-.3 0-.5.2-.5.5s.2.5.5.5h82c.3 0 .5-.2.5-.5s-.2-.5-.5-.5z"/></symbol><symbol viewBox="-14.4 -15.9 28.8 31.9"><path fill="#028C02" d="M3.1-12.4c0-.8-.3-1.6-.9-2.2-.6-.6-1.3-.9-2.2-.9-.8 0-1.6.3-2.2.9-.5.7-.8 1.4-.8 2.2 0 .8.3 1.6.9 2.2.6.6 1.3.9 2.2.9.8 0 1.6-.3 2.2-.9.5-.6.8-1.3.8-2.2z"/><path fill="#046604" d="M2.2-14.6c.6.6.9 1.3.9 2.2 0 .8-.3 1.6-.9 2.2-.6.6-1.3.9-2.1.9v-6.1c.8 0 1.5.3 2.1.8z"/><path stroke="#000" stroke-miterlimit="10" d="M3.1-12.4c0-.8-.3-1.6-.9-2.2-.6-.6-1.3-.9-2.2-.9-.8 0-1.6.3-2.2.9-.5.7-.8 1.4-.8 2.2 0 .8.3 1.6.9 2.2.6.6 1.3.9 2.2.9.8 0 1.6-.3 2.2-.9.5-.6.8-1.3.8-2.2z" fill="none"/><path fill="#D9D900" d="M13.9 1.5c0-3.8-1.3-7.1-4-9.8-2.7-2.7-6-4-9.8-4s-7.1 1.3-9.9 4c-2.7 2.7-4 6-4 9.8 0 3.8 1.4 7.1 4 9.8 2.7 2.7 6 4.1 9.9 4.1s7.1-1.4 9.8-4.1c2.7-2.7 4-5.9 4-9.8z"/><path fill="#99950A" d="M.1 15.4v-27.8c3.8 0 7.1 1.4 9.8 4 2.7 2.7 4 6 4 9.8 0 3.8-1.3 7.1-4 9.8-2.8 2.9-6 4.2-9.8 4.2z"/><path fill="#B30000" d="M-13.9 1.5c0-1.8.3-3.5.9-5.1h26c.6 1.6.9 3.3.9 5.1v.9h-27.7c-.1-.3-.1-.6-.1-.9z"/><path fill="#00B300" d="M5.8-10.9c-1.7-.8-3.5-1.2-5.5-1.2s-4 .4-6 1.2c-1.4 1-2.4 2-3 2.9-.6.8-.7 1.3-.3 1.4.3 0 1.1-.3 2.5-.9l4.2-2.1c.5 2 1.2 3 2.3 3 1.1 0 1.8-1 2.3-3.1.8.4 2.2 1.1 4.3 2.1 1.3.7 2.1 1 2.4.9.4-.1.3-.6-.3-1.4-.5-.9-1.5-1.8-2.9-2.8z"/><path d="M3.2 9.3c0-.9-.3-1.6-.9-2.2-.6-.6-1.4-.9-2.3-.9-.9 0-1.6.3-2.2.9-.6.6-.9 1.4-.9 2.2 0 .9.3 1.6.9 2.2.6.6 1.4.9 2.2.9.9 0 1.6-.3 2.2-.9.7-.5 1-1.3 1-2.2z"/><path stroke="#1A171B" stroke-width=".65" fill="none" d="M.1 12.4v3"/><path fill="#087208" d="M9.1-6.6c-.3 0-1.1-.3-2.5-1-2.1-1-3.5-1.7-4.3-2.1-.4 2.1-1.2 3.1-2.2 3.1v-5.5h.3c2 0 3.8.4 5.5 1.2 1.4 1 2.4 2 3 2.9.5.8.6 1.3.2 1.4z"/><path fill="#750B0B" d="M.1 2.4v-6h12.9c.6 1.6.9 3.3.9 5.1v.9h-13.8z"/><path stroke="#000" stroke-miterlimit="10" d="M13.9 1.5c0-3.8-1.3-7.1-4-9.8-2.7-2.7-6-4-9.8-4s-7.1 1.3-9.9 4c-2.7 2.7-4 6-4 9.8 0 3.8 1.4 7.1 4 9.8 2.7 2.7 6 4.1 9.9 4.1s7.1-1.4 9.8-4.1c2.7-2.7 4-5.9 4-9.8z" fill="none"/></symbol><symbol viewBox="-1.4 -31 2.8 62"><path fill="#930" d="M.5-27.6c-.2.1-.3.1-.5.1-.3 0-.5-.1-.8-.2v57.1c.4 2.1.9 2.1 1.2 0v-57z"/><path fill="#ff0" d="M-.8-27.8c.2.2.5.2.8.2.2 0 .3 0 .5-.1.1-.1.2-.2.3-.2.3-.3.4-.6.4-.9 0-.3-.2-.8-.4-1.4-.3-.6-.7-.8-1-.6-.3.2-.5.5-.8.9-.2.4-.4.8-.4 1.1 0 .3.1.6.4.9.1 0 .2.1.2.1z"/><path stroke="#000" stroke-width=".3" stroke-linecap="round" stroke-linejoin="round" stroke-miterlimit="3" d="M-.8-27.8v57.1c.4 2.1.9 2.1 1.2 0v-56.9c.1-.1.2-.2.3-.2.3-.3.4-.6.4-.9 0-.3-.2-.8-.4-1.4-.3-.6-.7-.8-1-.6-.3.2-.5.5-.8.9-.2.4-.4.8-.4 1.1 0 .3.1.6.4.9.2-.1.3 0 .3 0zm1.3.2c-.2.1-.3.1-.5.1-.3 0-.5-.1-.8-.2" fill="none"/></symbol><symbol viewBox="-7.7 -15.9 15.3 31.8"><g><path fill="#F2F200" d="M5.3 10.1c0 2.9-2.4 5.3-5.3 5.3s-5.3-2.4-5.3-5.3v-12.2h10.6v12.2z"/><path fill="#D63403" d="M5.3-2.1v12.2c0 2.9-2.4 5.3-5.3 5.3v-17.5h5.3z"/><path fill="#008000" d="M7.2-4c0-2.8-3.2-5-7.2-5s-7.2 2.3-7.2 5c0 2.8 3.2 2.9 7.2 2.9s7.2-.1 7.2-2.9z"/><path fill="#008000" d="M-4.2-15.4c-.4 0-.8.3-1 .7-.2.6.1 1.2.6 1.4 3.5 1.3 3.6 5.9 3.6 5.9 0 .6.5 1.1 1.1 1.1s1.1-.5 1.1-1.1c0-.2-.1-6.1-4.9-7.9-.3-.1-.4-.1-.5-.1z"/><path fill="#056605" d="M7.2-4c0 2.8-3.2 2.9-7.2 2.9v-8c4 .1 7.2 2.3 7.2 5.1z"/><path fill="#4E5DC9" d="M-5.3-1.6h10.6v2.7h-10.6z"/><path fill="#384A89" d="M0-1.6h5.3v2.7h-5.3z"/><path d="M0 15.4c2.9 0 5.3-2.4 5.3-5.3v-11.7c1.2-.4 1.9-1.1 1.9-2.4 0-2.6-2.7-4.7-6.3-5-.3-1.9-1.4-5.1-4.8-6.3-.1 0-.2-.1-.4-.1-.4 0-.8.3-1 .7-.2.6.1 1.2.6 1.4 2.2.8 3 2.9 3.4 4.4-3.4.4-5.9 2.5-5.9 5 0 1.3.7 2 1.9 2.4v11.6c0 2.9 2.4 5.3 5.3 5.3m0 .5c-3.2 0-5.8-2.6-5.8-5.8v-11.3c-1.2-.6-1.9-1.5-1.9-2.8 0-2.6 2.4-4.8 5.8-5.4-.4-1.3-1.2-2.9-2.9-3.5-.4-.1-.7-.4-.9-.8-.2-.4-.2-.8 0-1.2.2-.6.8-1 1.5-1 .2 0 .4 0 .5.1 3.4 1.3 4.6 4.4 5 6.4 3.7.4 6.4 2.7 6.4 5.4 0 1.3-.6 2.2-1.9 2.8v11.3c0 3.2-2.6 5.8-5.8 5.8z"/></g></symbol><symbol viewBox="-1.4 -27.6 2.8 55.2"><path fill="#930" d="M.5-24.3c-.2.1-.3.1-.5.1-.3 0-.5-.1-.8-.2v51.4c.4.6.9.6 1.2 0v-51.3z"/><path fill="#ff0" d="M-.8-24.4c.2.2.5.2.8.2.2 0 .3 0 .5-.1.1-.1.2-.2.4-.2.3-.3.4-.6.4-.9 0-.3-.1-.8-.4-1.4-.3-.6-.7-.8-1-.6-.3.2-.5.4-.8.8-.2.4-.4.8-.4 1.2 0 .3.1.6.4.9l.1.1z"/><path stroke="#000" stroke-width=".3" stroke-linecap="round" stroke-linejoin="round" stroke-miterlimit="3" d="M-.8-24.4v51.4c.4.6.9.6 1.2 0v-51.2c.1-.1.2-.2.4-.2.3-.3.4-.6.4-.9 0-.3-.1-.8-.4-1.4-.3-.6-.7-.8-1-.6-.3.2-.5.4-.8.8-.2.4-.4.8-.4 1.2 0 .3.1.6.4.9.1-.1.2 0 .2 0zm1.3.1c-.2.1-.3.1-.5.1-.3 0-.5-.1-.8-.2" fill="none"/></symbol><symbol viewBox="-1 -7.3 17.4 7.3"><path stroke="#000" stroke-width="1.5" stroke-linecap="round" stroke-linejoin="round" stroke-miterlimit="3" d="M-.2-1.2c2.9.7 5.7.7 8.6-.1 3.2-.9 5.6-2.7 7.3-5.2" fill="none"/><path stroke="#E6E600" stroke-linecap="round" stroke-linejoin="round" stroke-miterlimit="3" d="M-.2-1.2c2.9.7 5.7.7 8.6-.1 3.2-.9 5.6-2.7 7.3-5.2" fill="none"/></symbol><use xlink:href="#a" width="100" height="170" x="-50" y="-85" transform="matrix(1 0 0 -1 50 85)" overflow="visible"/><g><g><use xlink:href="#b" width="74.6" height="77.2" x="-37.3" y="-39.3" transform="matrix(-1 0 0 1 46.999 123.857)" overflow="visible"/><use xlink:href="#b" width="74.6" height="77.2" x="-37.3" y="-39.3" transform="matrix(1 0 0 -1 53 46.143)" overflow="visible"/><g><use xlink:href="#c" width="13.5" height="16.2" x="-6.8" y="-8.1" transform="matrix(-1 0 0 1 90 134)" overflow="visible"/><use xlink:href="#c" width="13.5" height="16.2" x="-6.8" y="-8.1" transform="matrix(-1 0 0 1 10 134)" overflow="visible"/><use xlink:href="#c" width="13.5" height="16.2" x="-6.8" y="-8.1" transform="matrix(1 0 0 -1 90 36)" overflow="visible"/><use xlink:href="#c" width="13.5" height="16.2" x="-6.8" y="-8.1" transform="matrix(1 0 0 -1 10 36)" overflow="visible"/></g><g><use xlink:href="#d" width="6.7" height="12.7" x="-3.4" y="-6.4" transform="matrix(-1 0 0 1 90.5 151.5)" overflow="visible"/><use xlink:href="#d" width="6.7" height="12.7" x="-3.4" y="-6.4" transform="matrix(-1 0 0 1 9.5 151.5)" overflow="visible"/><use xlink:href="#d" width="6.7" height="12.7" x="-3.4" y="-6.4" transform="matrix(1 0 0 -1 90.5 18.5)" overflow="visible"/><use xlink:href="#d" width="6.7" height="12.7" x="-3.4" y="-6.4" transform="matrix(1 0 0 -1 9.5 18.5)" overflow="visible"/></g></g></g><use xlink:href="#e" width="84" height="154" x="-42" y="-77" transform="matrix(1 0 0 -1 50 85)" overflow="visible"/></svg>
