<svg xmlns="http://www.w3.org/2000/svg" xmlns:xlink="http://www.w3.org/1999/xlink" width="100" height="170" viewBox="0 0 100 170"><symbol viewBox="-22.5 -21.4 44.9 42.9"><path fill="#008000" d="M1.9-18.1c-.7.6-1.3 1.2-1.9 2-.6-.8-1.3-1.5-2.1-2.1-.6-.5-1.3-.9-2.1-1.3-1.7-.9-3.5-1.3-5.5-1.3-3.4 0-6.3 1.2-8.7 3.6-2.4 2.4-3.6 5.4-3.6 8.8 0 4.7 2.5 9.7 7.5 14.8 6.7 5.9 11.5 10.7 14.5 14.3 3-3.6 7.8-8.4 14.4-14.3 5-5.1 7.6-10.1 7.6-14.8 0-3.4-1.2-6.4-3.6-8.8-2.4-2.4-5.4-3.6-8.8-3.6-1.9 0-3.7.4-5.4 1.3-.9.3-1.6.8-2.3 1.4z"/><path fill="#055905" d="M0 20.7v-36.9c.6-.7 1.2-1.4 1.9-1.9.7-.6 1.5-1 2.3-1.5 1.7-.9 3.5-1.3 5.4-1.3 3.4 0 6.4 1.2 8.8 3.6 2.4 2.4 3.6 5.4 3.6 8.8 0 4.7-2.5 9.7-7.6 14.8-6.6 6-11.4 10.8-14.4 14.4z"/><path stroke="#000" stroke-miterlimit="10" d="M1.9-18.1c-.7.6-1.3 1.2-1.9 2-.6-.8-1.3-1.5-2.1-2.1-.6-.5-1.3-.9-2.1-1.3-1.7-.9-3.5-1.3-5.5-1.3-3.4 0-6.3 1.2-8.7 3.6-2.4 2.4-3.6 5.4-3.6 8.8 0 4.7 2.5 9.7 7.5 14.8 6.7 5.9 11.5 10.7 14.5 14.3 3-3.6 7.8-8.4 14.4-14.3 5-5.1 7.6-10.1 7.6-14.8 0-3.4-1.2-6.4-3.6-8.8-2.4-2.4-5.4-3.6-8.8-3.6-1.9 0-3.7.4-5.4 1.3-.9.3-1.6.8-2.3 1.4z" fill="none"/></symbol><symbol viewBox="-14 -23.5 28 47"><path fill="#F2F200" d="M10 13c0 5.5-4.5 10-10 10s-10-4.5-10-10v-23h20v23z"/><path fill="#D63403" d="M10-10v23c0 5.5-4.5 10-10 10v-33h10z"/><path fill="#008000" d="M13.5-13.5c0-5.2-6-9.5-13.5-9.5s-13.5 4.3-13.5 9.5 6 5.5 13.5 5.5 13.5-.3 13.5-5.5z"/><path fill="#056605" d="M13.5-13.5c0 5.2-6 5.5-13.5 5.5v-15c7.5 0 13.5 4.3 13.5 9.5z"/><path fill="#4E5DC9" d="M-10-9h20v5h-20z"/><path fill="#384A89" d="M0-9h10v5h-10z"/><path stroke="#000" stroke-miterlimit="10" d="M10-8.9v21.9c0 5.5-4.5 10-10 10s-10-4.5-10-10v-21.9c-2.2-.8-3.5-2.1-3.5-4.6 0-5.2 6-9.5 13.5-9.5s13.5 4.3 13.5 9.5c0 2.5-1.3 3.8-3.5 4.6z" fill="none"/></symbol><symbol viewBox="-29.9 -9.5 29.9 19"><path fill="#F2F200" d="M-22.8-6.9c-1.8 0-3.6.7-4.9 2-1.3 1.3-2 3-2 4.9 0 3.8 3.1 6.9 6.9 6.9h13.6v-13.8h-13.6z"/><path fill="#D63403" d="M-9.2-6.9h-13.6c-3.8 0-6.9 3.1-6.9 6.9h20.5v-6.9z"/><path fill="#008000" d="M-6.8-9.3c3.6 0 6.5 4.2 6.5 9.3s-2.9 9.3-6.5 9.3-3.8-4.2-3.8-9.3.2-9.3 3.8-9.3z"/><path fill="#056605" d="M-6.8-9.3c-3.6 0-3.8 4.2-3.8 9.3h10.3c.1-5.1-2.9-9.3-6.5-9.3z"/><path fill="#4E5DC9" d="M-9.9 6.9v-13.8h-3.4v13.8z"/><path fill="#384A89" d="M-9.9 0v-6.9h-3.4v6.9z"/><path stroke="#000" stroke-width=".5" stroke-miterlimit="10" d="M-9.9-6.9h-12.9c-3.8 0-6.9 3.1-6.9 6.9s3.1 6.9 6.9 6.9h12.9c.5 1.5 1.4 2.4 3.1 2.4 3.6 0 6.5-4.2 6.5-9.3s-2.9-9.3-6.5-9.3c-1.7 0-2.6.9-3.1 2.4z" fill="none"/></symbol><symbol viewBox="-22.5 -21.4 44.9 42.9"><path fill="#008000" d="M1.9-18.1c-.7.6-1.3 1.2-1.9 2-.6-.8-1.3-1.5-2.1-2.1-.6-.5-1.3-.9-2.1-1.3-1.7-.9-3.5-1.3-5.5-1.3-3.4 0-6.3 1.2-8.7 3.6-2.4 2.4-3.6 5.4-3.6 8.8 0 4.7 2.5 9.7 7.5 14.8 6.7 5.9 11.5 10.7 14.5 14.3 3-3.6 7.8-8.4 14.4-14.3 5-5.1 7.6-10.1 7.6-14.8 0-3.4-1.2-6.4-3.6-8.8-2.4-2.4-5.4-3.6-8.8-3.6-1.9 0-3.7.4-5.4 1.3-.9.3-1.6.8-2.3 1.4z"/><path fill="#055905" d="M0 20.7v-36.9c.6-.7 1.2-1.4 1.9-1.9.7-.6 1.5-1 2.3-1.5 1.7-.9 3.5-1.3 5.4-1.3 3.4 0 6.4 1.2 8.8 3.6 2.4 2.4 3.6 5.4 3.6 8.8 0 4.7-2.5 9.7-7.6 14.8-6.6 6-11.4 10.8-14.4 14.4z"/><path stroke="#000" stroke-miterlimit="10" d="M1.9-18.1c-.7.6-1.3 1.2-1.9 2-.6-.8-1.3-1.5-2.1-2.1-.6-.5-1.3-.9-2.1-1.3-1.7-.9-3.5-1.3-5.5-1.3-3.4 0-6.3 1.2-8.7 3.6-2.4 2.4-3.6 5.4-3.6 8.8 0 4.7 2.5 9.7 7.5 14.8 6.7 5.9 11.5 10.7 14.5 14.3 3-3.6 7.8-8.4 14.4-14.3 5-5.1 7.6-10.1 7.6-14.8 0-3.4-1.2-6.4-3.6-8.8-2.4-2.4-5.4-3.6-8.8-3.6-1.9 0-3.7.4-5.4 1.3-.9.3-1.6.8-2.3 1.4z" fill="none"/></symbol><symbol viewBox="-15.5 -15.7 31.1 31.3"><path fill="#E60000" d="M2.9 13c1.4 1.4 2.6 2.1 3.8 2.1 2.3 0 4.3-.8 5.9-2.5 1.6-1.7 2.5-3.7 2.5-6 0-3.3-1.7-7-5.2-11-2-2.3-5.3-5.9-9.9-10.6-4.6 4.7-7.8 8.3-9.8 10.6-3.5 4.1-5.2 7.7-5.2 11 0 2.3.8 4.3 2.5 6 1.7 1.6 3.7 2.5 6 2.5 1.2 0 2.4-.7 3.8-2.1.1-.1 1-1.3 2.8-3.5.4.6 1.4 1.8 2.8 3.5z"/><path fill="#A50A0A" d="M6.7 15.1c-1.2 0-2.4-.7-3.8-2.1-1.4-1.7-2.4-2.9-2.9-3.5v-24.5c4.6 4.7 7.9 8.3 9.9 10.6 3.5 4.1 5.2 7.7 5.2 11 0 2.3-.8 4.3-2.5 6-1.7 1.7-3.6 2.5-5.9 2.5z"/><path stroke="#000" stroke-miterlimit="10" d="M2.9 13c1.4 1.4 2.6 2.1 3.8 2.1 2.3 0 4.3-.8 5.9-2.5 1.6-1.7 2.5-3.7 2.5-6 0-3.3-1.7-7-5.2-11-2-2.3-5.3-5.9-9.9-10.6-4.6 4.7-7.8 8.3-9.8 10.6-3.5 4.1-5.2 7.7-5.2 11 0 2.3.8 4.3 2.5 6 1.7 1.6 3.7 2.5 6 2.5 1.2 0 2.4-.7 3.8-2.1.1-.1 1-1.3 2.8-3.5.4.6 1.4 1.8 2.8 3.5z" fill="none"/></symbol><symbol id="c" viewBox="-6.5 -6.5 12.9 13"><path fill="#E60000" d="M1.2 5.4c.6.6 1.1.9 1.6.9 1 0 1.8-.3 2.4-1 .7-.7 1-1.5 1-2.5 0-1.4-.7-2.9-2.1-4.6-.8-.9-2.2-2.4-4.1-4.4-1.9 2-3.2 3.4-4 4.4-1.4 1.7-2.2 3.2-2.2 4.6 0 1 .3 1.8 1 2.5s1.5 1 2.5 1c.5 0 1-.3 1.6-.9l1.2-1.5c.1.3.5.8 1.1 1.5z"/><path fill="#A50A0A" d="M2.8 6.3c-.5 0-1-.3-1.6-.9-.6-.7-1-1.2-1.2-1.4v-10.2c1.9 2 3.3 3.4 4.1 4.4 1.4 1.7 2.1 3.2 2.1 4.6 0 1-.3 1.8-1 2.5-.7.6-1.5 1-2.4 1z"/><path stroke="#000" stroke-width=".5" stroke-miterlimit="10" d="M1.2 5.4c.6.6 1.1.9 1.6.9 1 0 1.8-.3 2.4-1 .7-.7 1-1.5 1-2.5 0-1.4-.7-2.9-2.1-4.6-.8-.9-2.2-2.4-4.1-4.4-1.9 2-3.2 3.4-4 4.4-1.4 1.7-2.2 3.2-2.2 4.6 0 1 .3 1.8 1 2.5s1.5 1 2.5 1c.5 0 1-.3 1.6-.9l1.2-1.5c.1.3.5.8 1.1 1.5z" fill="none"/></symbol><symbol id="b" viewBox="-36.7 -37.4 73.4 74.8"><g><path fill="#E60000" d="M-21.8 34.1c1.1 1.1 2.1 1.7 3.1 1.7 1.9 0 3.5-.7 4.8-2 1.3-1.4 2-3 2-4.9 0-2.7-1.4-5.7-4.2-9-1.6-1.9-4.3-4.8-8-8.7-3.7 3.9-6.4 6.7-8 8.7-2.9 3.3-4.3 6.3-4.3 9 0 1.9.7 3.5 2 4.9 1.4 1.3 3 2 4.9 2 .9 0 2-.6 3.1-1.7.1-.1.8-1 2.3-2.9.3.5 1.1 1.5 2.3 2.9z"/><path fill="#A50A0A" d="M-18.8 35.8c-.9 0-2-.6-3.1-1.7-1.1-1.4-1.9-2.4-2.4-2.9v-20c3.8 3.9 6.4 6.7 8 8.7 2.8 3.3 4.2 6.3 4.2 9 0 1.9-.7 3.5-2 4.9-1.2 1.3-2.8 2-4.7 2z"/><path stroke="#000" stroke-width=".5" stroke-miterlimit="10" d="M-21.8 34.1c1.1 1.1 2.1 1.7 3.1 1.7 1.9 0 3.5-.7 4.8-2 1.3-1.4 2-3 2-4.9 0-2.7-1.4-5.7-4.2-9-1.6-1.9-4.3-4.8-8-8.7-3.7 3.9-6.4 6.7-8 8.7-2.9 3.3-4.3 6.3-4.3 9 0 1.9.7 3.5 2 4.9 1.4 1.3 3 2 4.9 2 .9 0 2-.6 3.1-1.7.1-.1.8-1 2.3-2.9.3.5 1.1 1.5 2.3 2.9z" fill="none"/><path stroke="#000" stroke-linecap="round" stroke-linejoin="round" stroke-miterlimit="3" d="M8.6 24.1c.2-.2.4-.2.6-.2.5 0 1 .2 1.4.6.5.6.8 1.4.8 2.5 0 .3-.1.5-.3.8-.2.2-.3.3-.4.3" fill="none"/><g><path fill="#0B9128" d="M-12.1-12c-.1.3-.4 1.1-1 2.5-.4.8-.7 1.5-.9 2.1-.4 1-.4 1.8-.1 2.2l-.6-.6c-.3-.2-.4-.5-.5-.7-.4-1.3-1.1-2.5-2.1-3.4-.9-.8-1.6-1.6-2.1-2.4-.1-.1-.2-.3-.5-.5-.2-.2-.3-.3-.4-.5.6-.4.8-.9.5-1.5 0-.1-.1-.3-.3-.7-.1-.2-.2-.5-.1-.7l.4-1.3c.1-.1.1-.5.2-1.2 0-.6 0-1 .1-1.3 0-.2.1-.5.3-.8.1-.6 0-1.1-.1-1.6-.2-.8-.2-1.3 0-1.5.1-.2.5.2 1.1 1.2 1.1 1.5 2.6 2.6 4.4 3.5 1.8.8 2.6 1.2 2.6 1.3-.2.2-.3.5-.2 1 .1.5.1.9.1 1.2s-.1.5-.3.8c-.2.4-.4.7-.5.8-.1.2-.1.6 0 1v1.1zm31 8l-.5-1.1c-.2-.5-.5-1.3-.8-2.3-.5-1-1.2-3-2.2-6-.1-.2-.2-.6-.3-1-.1-.4-.3-.7-.5-.9l-.5-.4c-.2-.1-.3-.2-.3-.3v-.6l-.1-1.7c-.1-.8 0-1.2.3-1.4.3-.1.6.2 1 .7 0 0 .8.7 2.2 1.9l1.8 1.6c.5.4.8.7 1 .9.4.3.6.7.9 1 .3.6.9 1.3 1.6 2 .1.1.4.3.8.5.1.2 0 .6-.3 1.2-.3.4-.5.8-.8 1-.4.4-.8 1-1.2 1.8-.4.9-.8 1.5-1 1.9l-.5 1c-.2.7-.3 1-.4 1.1-.1.3-.1-.2-.2-.9zm.4 14.3c1.2-.1 2.2-.4 3-.8l1.1-.4c.6-.1 1-.2 1.2-.3.4-.2 1-.6 1.8-1.2.2-.2.5-.6.8-1.1.1-.2.4-.5.8-.9.1-.2.3-.6.6-1l.4-1c.3-.5.6-.8.7-1 .2-.5.5-1.1.8-2 .1-.5.5-1.3 1.1-2.2.2-.3.7-1.2 1.5-2.6.1-.2.5-1.1 1.1-2.9.1-.4.5-1.1 1-2 .6-.9.9-1.5 1.1-2 .3-.8.3-1.5 0-2.2-.4-1-1.1-1.9-2.2-2.8-.4-.3-.9-.6-1.5-.9 0 0-.5-.4-1.4-1.2-.3-.3-.9-.7-1.8-1.1-1.2-.5-2.1-.9-2.6-1.2-.6-.3-1.4-.6-2.6-1-1.2-.4-2-.7-2.6-1-.2-.1-.4-.2-.8-.5-.3-.2-.6-.4-.7-.7-.2-.4-.3-1-.2-1.8 0-1.1.3-2.1.8-3.1.1-.3.4-.8.8-1.5.1-.3.4-.7.8-1.3l.1-.3.2-.2c.3-.3.1-.8-.6-1.5-.5-.5-1.2-1-2.2-1.5-1.1-.7-1.9-1.2-2.3-1.5-.4-.3-.7-.7-.9-1h-46.8c.3.4.7.9 1.4 1.6.7.7 1.1 1.1 1.1 1.2.2.4.6.8 1 1.2l1.2 1c1 1 1.7 1.8 2.1 2.4.9 1.3 1.7 2.3 2.4 3.1.6.5 1 .8 1.2 1.1.1.1.1.3.1.6v.6c.2.7.2 1.2.2 1.4 0 .5 0 .8-.1 1 0 .2-.1.4-.1.5-.1.3-.2.4-.3.5.2-.1.2-.4.2-.7 0-.3-.1-.5-.2-.6-.1-.1-.5-.2-1-.2-.2 0-1.4-.1-3.6-.2-1.5-.1-2.7-.3-3.6-.5-.3-.1-.6-.1-.7.1 0 0-.1.3-.2.7l-.8 3.3c-.6 2.1-.9 3.6-.9 4.7 0 .5-.1.9-.1 1.2 0 .5 0 .9.1 1.2.2.6.3 1 .4 1.2.1.6.2 1.1.4 1.4.2.6.4 1 .5 1.3.4.8 1.1 1.8 2.1 3 2.8 4 5 7 6.5 8.9.6.8.9 1.2 1 1.3.1.1.1.3.2.6s.2.5.4.6l1.2.8c1.7.9 3 1.6 3.9 2.1.9.5 1.7.8 2.3.9.8 0 1.5.2 2.1.3.5.1 1.3.2 2.4.5 1 .2 1.8.4 2.4.7l.7.4c.3.2.5.3.8.4.8.2 1.6.2 2.5.1.4 0 1-.1 1.9-.3.3 0 .9-.2 1.7-.6.4-.1 1.1-.2 2.2-.1 1.3 0 2.8-.1 4.5-.2 2.1-.3 3.3-.4 3.6-.5.4-.1 1-.1 1.8-.1s1.4-.1 1.7-.1c.3.1 1.4 0 2.9-.1z"/><path stroke="#000" stroke-width=".5" d="M16.4-37.2c.1.4.4.8.9 1 .4.3 1.2.8 2.3 1.5 1 .6 1.7 1.1 2.2 1.5.7.6.9 1.1.6 1.5l-.2.2-.2.3c-.4.6-.6 1-.8 1.3-.4.6-.7 1.1-.8 1.5-.5 1-.8 2-.8 3.1-.1.8 0 1.4.2 1.8.1.3.4.5.7.7.4.2.7.3.8.5.6.3 1.4.6 2.6 1 1.2.4 2 .8 2.6 1 .6.3 1.5.7 2.6 1.2.9.4 1.5.8 1.8 1.1.9.7 1.4 1.1 1.4 1.2l1.5.9c1.1.8 1.9 1.7 2.2 2.8.3.7.3 1.4 0 2.2-.2.5-.5 1.1-1.1 2-.6.9-.9 1.6-1 2-.6 1.7-1 2.7-1.1 2.9-.8 1.4-1.3 2.3-1.5 2.6-.6.9-.9 1.7-1.1 2.2-.4.8-.6 1.5-.8 2-.1.2-.3.6-.7 1l-.4 1c-.3.4-.5.8-.6 1-.4.4-.6.7-.8.9-.3.5-.6.9-.8 1.1-.7.6-1.3 1-1.8 1.2.1-.1-.3 0-.8.2l-1.1.4c-.8.4-1.9.6-3 .8-1.4.1-2.5.2-3.2.3-.3 0-.9.1-1.7.1-.8 0-1.4.1-1.8.1-.3.1-1.5.2-3.6.5-1.7.2-3.2.2-4.5.2-1-.1-1.8 0-2.2.1-.8.4-1.4.6-1.7.6-.8.2-1.5.3-1.9.3-.9.1-1.8 0-2.5-.1-.2-.1-.5-.2-.8-.4-.5-.1-.7-.3-.8-.3-.6-.2-1.4-.5-2.4-.7-1.1-.2-1.9-.3-2.4-.5-.6-.2-1.3-.3-2.1-.3-.6-.1-1.4-.4-2.3-.9-.9-.5-2.2-1.2-3.9-2.1l-1.2-.8c-.2-.1-.3-.3-.4-.6-.1-.3-.1-.5-.2-.6 0-.1-.4-.5-1-1.3-1.6-1.9-3.8-4.9-6.5-8.9-.9-1.2-1.6-2.2-2.1-3-.2-.3-.4-.8-.5-1.3-.1-.3-.2-.8-.4-1.4-.1-.3-.2-.7-.4-1.2-.1-.3-.1-.8-.1-1.2 0-.3 0-.7.1-1.2.1-1 .4-2.6.9-4.7s.7-3.2.8-3.3c.1-.4.2-.7.2-.7.1-.2.4-.2.7-.1 1 .2 2.2.4 3.6.5 2.3.1 3.5.2 3.6.2.5 0 .9 0 1 .2.1.1.2.3.2.6s0 .5-.2.7c.1-.1.2-.2.3-.5 0-.1.1-.3.1-.5.1-.2.1-.6.1-1 0-.2-.1-.7-.2-1.4v-.6c0-.3 0-.5-.1-.6-.2-.3-.6-.7-1.2-1.1-.7-.8-1.5-1.8-2.4-3.1-.4-.6-1.1-1.4-2.1-2.4l-1.2-1c-.5-.4-.8-.8-1-1.2 0 0-.4-.4-1.1-1.2-.6-.7-1.1-1.2-1.4-1.6m49.4 33c.1.7.1 1.2.2 1.3 0-.1.1-.4.4-1.1l.5-1c.2-.4.6-1.1 1-1.9.4-.8.8-1.4 1.2-1.8.3-.3.5-.6.8-1 .3-.6.4-1 .3-1.2-.4-.3-.6-.4-.8-.5-.7-.7-1.3-1.4-1.6-2-.2-.4-.5-.7-.9-1-.2-.2-.5-.5-1-.9l-1.8-1.9c-1.4-1.2-2.2-1.9-2.2-1.9-.4-.5-.7-.8-1-.7-.3.1-.4.6-.3 1.4l.1 1.7c-.1.3-.1.5 0 .6 0 .1.1.2.3.3l.5.4c.2.2.4.5.5.9.1.4.2.8.3 1 1 3 1.8 5 2.2 6 .3 1 .6 1.8.8 2.3l.5 1zm-31-8v-2.1c.1-.1.2-.4.5-.8.2-.3.3-.6.3-.8s0-.6-.1-1.2c0-.5 0-.8.2-1 .1-.1-.8-.5-2.6-1.3-1.8-.9-3.3-2-4.4-3.5-.6-1-1-1.4-1.1-1.2-.2.3-.2.8 0 1.5.1.5.1 1 .1 1.6-.2.4-.3.6-.3.8-.1.3-.1.8-.1 1.3-.1.7-.1 1.1-.2 1.2l-.4 1.3c0 .2 0 .4.1.7.2.4.3.6.3.7.2.6 0 1.1-.5 1.5.1.1.2.3.4.5l.5.5c.5.8 1.2 1.6 2.1 2.4 1 .9 1.7 2 2.1 3.4.1.2.2.5.5.7.4.3.6.5.6.6-.3-.4-.3-1.1.1-2.2.2-.5.5-1.2.9-2.1.6-1.4.9-2.2 1-2.5z" fill="none"/></g><path fill="#C1855D" d="M-7.3 26.7c.9-.2 1.6-1.4 2.1-3.6.3-1.2.6-2.7.9-4.5.2-.5.6-1.2 1.2-2.2.5-1 .7-1.8.6-2.5-.1-.6-.5-1-1.2-1.4-1.2-.5-1.8-.8-1.8-.8-.3-.3-.4-.8-.4-1.5 0-.1-.1 0-.4.2l-.6.5c-.2.2-.4.4-.5.4-.2 0-.3 0-.4.1 0 .1 0 .2.1.5.2.3.2.6.2.9l-.1.7c0 .2-.2.5-.6.9-.2.3-.4.6-.4.9.1.4.1.6 0 .8-.2.3-.3.5-.4.6-.1.3-.1.6 0 .8.2.2.2.4.2.6-.2.2-.3.4-.4.6l-.4 1c-.1.3-.1.9 0 1.8l.2.8c.3.5.5.9.5 1.1 0 .1 0 .3-.1.8s-.1 1 0 1.6c0 .3.1.6.4.9.5.1.8.2 1.3 0z"/><path stroke="#000" stroke-width=".5" d="M-7.3 26.7c.9-.2 1.6-1.4 2.1-3.6.3-1.2.6-2.7.9-4.5.2-.5.6-1.2 1.2-2.2.5-1 .7-1.8.6-2.5-.1-.6-.5-1-1.2-1.4-1.2-.5-1.8-.8-1.8-.8-.3-.3-.4-.8-.4-1.5 0-.1-.1 0-.4.2l-.6.5c-.2.2-.4.4-.5.4-.2 0-.3 0-.4.1 0 .1 0 .2.1.5.2.3.2.6.2.9l-.1.7c0 .2-.2.5-.6.9-.2.3-.4.6-.4.9.1.4.1.6 0 .8-.2.3-.3.5-.4.6-.1.3-.1.6 0 .8.2.2.2.4.2.6-.2.2-.3.4-.4.6l-.4 1c-.1.3-.1.9 0 1.8l.2.8c.3.5.5.9.5 1.1 0 .1 0 .3-.1.8s-.1 1 0 1.6c0 .3.1.6.4.9.5.1.8.2 1.3 0z" fill="none"/><path fill="#D6C19D" d="M2.8 29c1.6-.7 2.7-1.6 3.5-2.6.7-.9 1.1-1.8 1.4-2.6.5-1.3.6-2.4.4-3.5-.1-.8-.6-1.7-1.4-2.8-.5-.7-.8-1.5-1-2.5-.1-.3 0-.9.1-1.6 0-.2.1-.5.2-.9s0-.7-.1-1c-.2-.3-.6-.7-1.5-1.1l-1.8-.8c-.9-.5-1.5-.8-1.7-.9-.4-.4-.7-.6-1-.7-.5-.3-.9-.3-1.3.1l-.2.5-.4.3c-.2.3-.4.6-.6.7l-.7.6c-.3.4-.4 1.1-.4 2.2v1.5c-.4.1-.7.2-.9.4-.8 1.2-1.2 2.1-1.5 2.7-.2.6-.4 1.1-.5 1.4-.2.6-.3 1.1-.4 1.5v2.9c0 .5-.2 1.2-.5 2.1-.3.9-.3 1.8-.2 2.5.2.9.6 1.6 1.4 2.1.8.5 1.8.8 2.9.9 1 0 1.7 0 2.1-.1l1.7-.2c.7-.1 1.4-.5 2.4-1.1z"/><path stroke="#000" stroke-width=".5" stroke-miterlimit="10" d="M2.8 29c-.9.6-1.6 1-2.1 1.1l-1.7.2c-.5.1-1.2.1-2.1.1-1.1-.1-2.1-.4-2.9-.9-.7-.5-1.2-1.2-1.4-2.1-.1-.8-.1-1.6.2-2.5.3-.9.4-1.6.5-2.1.1-.6.1-1.6 0-2.9 0-.4.2-.9.4-1.5.1-.3.3-.8.5-1.4.2-.6.7-1.5 1.5-2.7.1-.2.4-.3.9-.4.1 0 .1-.5 0-1.5-.1-1.1 0-1.8.4-2.2l.7-.6c-.1-.1.1-.4.3-.7l.4-.4.2-.5c.4-.3.8-.3 1.3 0 .3.1.6.4 1 .8.2.1.8.4 1.7.8l1.8.8c.8.4 1.3.7 1.5 1.1.1.3.2.6.1 1s-.2.8-.2.9c-.1.7-.2 1.2-.1 1.6.2 1 .5 1.9 1 2.5.8 1.1 1.2 2 1.4 2.8.2 1.1.1 2.2-.4 3.5-.3.8-.7 1.7-1.4 2.6-.8 1-2 1.8-3.5 2.6z" fill="none"/><path fill="#D6C19D" d="M-25-24.3c.7.3 1.9.5 3.5.4.4 0 .7-.1.8-.2s.2-.4.2-.8c0-.1.1-.3.4-.6.1-.2.3-1.1.5-2.6 0-.3.1-.7.3-1.3 0-.3 0-.8.1-1.5-.1-.4-.1-1.1-.1-1.9l-.3-1.2c0-.4-.1-.6-.2-.7-.2 0-.4 0-.5.2-.3.2-.5.6-.7 1.1v1l-.2.7c-.1.5-.1.8-.1.9-.1.2-.2.3-.3.4-.2.1-.4.1-.5-.1l-.4-.4-.3-.5c-.1-.2-.3-.5-.8-1.1l-.4-.5c-.1-.1-.2-.2-.3-.4 0-.1-.1-.2-.1-.5v-1.1h-1.2999999999999998c-.3 0-.5.1-.6.3l-.3.3-.2.4-.2.2c-.1.5-.1.8-.1 1 0 .2 0 .4-.1.5-.3.2-.5.4-.6.6v.4c0 .2 0 .3-.1.4-.1.2-.2.4-.2.5.1.5.1.8.2 1l.2.8c0 .1.1.2.4.3l.5.6c.3.5.5.9.5 1-.1.4-.1.6 0 .8.1.7.6 1.2 1.3 1.6z"/><path stroke="#000" stroke-width=".5" stroke-miterlimit="10" d="M-25-24.3c-.7-.3-1.1-.8-1.3-1.5-.1-.2-.1-.5 0-.8 0-.1-.2-.5-.5-1l-.5-.6c-.2-.1-.3-.2-.4-.3l-.2-.8c-.1-.2-.2-.5-.2-1 0-.1.1-.3.2-.5.1-.1.1-.2.1-.4v-.4c.1-.2.3-.4.6-.6.1-.1.1-.3.1-.5s.1-.5.1-1l.2-.2.2-.4.3-.3c.1-.2.3-.3.6-.3h1.2999999999999998v1.1c0 .3 0 .5.1.5.2.2.3.3.3.4l.4.5c.5.6.7.9.8 1.1l.3.5.4.4c.1.2.3.2.5.1.1-.1.2-.2.3-.4 0 0 .1-.3.1-.9l.2-.7v-1.1c.1-.5.4-.9.7-1.1.2-.1.4-.2.5-.2.1.1.2.3.2.7l.3 1.2c0 .8 0 1.5.1 1.9-.1.6-.1 1.1-.1 1.5-.2.6-.3 1-.3 1.3-.3 1.5-.5 2.4-.5 2.6-.2.3-.3.5-.4.6-.1.4-.1.6-.2.8s-.4.2-.8.2c-1.6 0-2.8-.1-3.5-.4z" fill="none"/><g><path fill="#D8D841" d="M7.4 12.4c.5-.1.6-.4.4-.9-.1-.3-.4-.6-.8-.9-.5-.3-.8-.5-1-.6-1.3-1-2.5-1.6-3.5-1.9l-.9-.2c-.4 0-.6 0-.6-.1s.1-.3.5-.6c.2-.4.4-.7.5-.9.1-.1.1-.2 0-.3 0-.2-.1-.3-.2-.4-.5-.9-1-1.9-1.3-3-.1-.2-.1-.6-.1-1l-.1-.3-.7-4.2-.1-.4c-.1-.3-.1-.7 0-1.2 0 .2.2.5.5.7.7.3 1.2.6 1.6.8.1-.3.2-.5.2-.5v-.8c0-.3-.1-.6-.4-.9-.4-.3-.6-.6-.6-.8l.7.1c.4.1.7.1.9.1.4-.1.6-.4.8-.8.1-.4.1-.7 0-1.1l-.2-.2c0 .1-.1.2-.4.4-.2.1-.5 0-1-.2-.3-.1-.6-.3-.9-.5-.3-.4-.5-1-.5-2 .4 0 .6.1.8.2l1 .6c.9.3 1.6.6 2 .9.5.3.9.9 1.2 1.7.4.9.2 1.4-.6 1.3.5.4 1 .6 1.6.5.4-.1.7-.2.9-.5.2-.3.3-.6.2-1l-.2-.7c-.1-.3-.4-.6-.8-.9 0 0 .1 0 .4.2l1.3.2c0-.4-.2-.9-.6-1.3-.3-.4-.7-.7-1.2-.9-.3-.2-.6-.3-.8-.3-.3-.1-.6-.2-.8-.2.2 0 .4-.1.6-.3.1-.2.2-.4.2-.7 0-.5-.3-.9-.9-1.1l-.3-.1c.2.3.1.5-.3.6-.1 0-.4 0-.9.1-.7 0-1.3-.4-1.8-1.3-.1-.3-.3-.7-.6-1.2.4.1.9.1 1.6 0 .3 0 .8-.1 1.5-.2 1.2-.1 2.9-.3 5.3-.5.5-.1 1.3-.2 2.4-.3.9-.1 1.7-.3 2.3-.5.2-.1.3-.1.3-.1 0-.1.1-.2.1-.4v-.9c0-.2 0-.9.1-2.1-2.9.5-5 .7-6.2.7-.5 0-1.1 0-1.9.1-.9.1-1.6.2-1.9.2-1.7.3-2.8.4-3.6.4-.2 0 0-1.5.7-4.5.4-1.5.8-3.1 1.1-4.8.2-1.1.5-2.4 1-3.9.3-.8.7-2 1.3-3.6l.5-.9 2.1-.2c.4 0 1 0 1.7.1.4 0 1.1 0 2.1.1 1.9.1 3.4.5 4.5 1 2 1 3.7 1.9 5.2 2.9.5.4.9.8 1.1 1 .1.1.5-.3 1-1.2.5-1 .8-1.6.6-1.9-.2-.7-1.1-1.4-2.6-2.1-1.2-.6-2.3-.9-3.3-1.1l-48.8-.1c-.1.1-.1.3 0 .5.2.6.5.8.9.8-.3.1-.6.3-.8.7-.3.4-.4.7-.4 1 0 .5.1.9.4 1.2.3.4.6.6 1.1.6.8.1 1.3 0 1.6-.3-.3-.1-.5-.2-.7-.4-.2-.2-.3-.5-.3-.8 0-.4.1-.7.3-.8.2-.2.6-.3 1-.3.4-.1 1.1-.1 2-.1.4-.1.7-.1 1 0 .3 0 .4 0 .5.2.1.1.1.3.1.5l.2.6v.5s.2.3.5.7c.3.4.4.7.5.8l.4.4.4.8c.2.4.5.5.8.5.3-.1.4-.2.4-.5 0-.1 0-.4-.1-.7l.1-.8-.1-1 .1-.8-.1-.9c0-.3.3-.5.9-.5h2c1.2 0 2 .3 2.4.8.3.5.5.8.5 1 0 .4-.1.7-.4.8.6.1 1.1 0 1.5-.2.4-.2.6-.4.7-.6.1-.2.1-.6 0-1.1 0 0-.1-.2-.2-.6-.2-.3-.4-.5-.5-.6.5 0 1.2-.1 2.2-.2 1.2-.1 2.1-.4 2.8-.7.1-.1.9 1.6 2.3 5 .7 2.1 1.3 4.4 1.8 6.8l.5 3.5c0 .3 0 .9.1 1.8.1 1.1.2 1.6.2 1.6-1.1-.2-2.3-.3-3.6-.3l-1.3-.1c-.7-.1-1.2-.1-1.4.1-.1.1-.2.4-.2 1v2.2c.5.2 1.2.3 1.9.3h2l3.5.2c.1.4-.2 1-.9 1.6-.6.6-1.1.8-1.7.8-.2 0-.5-.1-.8-.2-.4-.1-.5-.3-.4-.5l-.5.4c-.3.2-.6.5-.7.8-.2.4-.1.7.1 1 .2.1.4.2.5.2-.1 0-.3 0-.6.1-.5.1-.9.2-1.3.4s-.7.4-.9.7c-.1.3-.2.4-.2.6 0 .3 0 .5-.1.7.3.1.8.1 1.6-.1l-.2.2c-.5.4-.6 1-.4 1.8.1.4.4.7.8.9.3.1.5.1.8.1h.8c-.1 0-.3-.2-.6-.6-.2-.4-.1-.9.1-1.7.1-.3.4-.7.9-1.1.5-.4.9-.6 1.1-.7l1-.5.9-.2-.3 1.2c0 .1-.3.4-.8.8l-.6.3h-1.2c-.1.2 0 .6.1 1.2.1.1.3.4.6.5l.5.2h.5c-.2.1-.3.2-.3.4 0 .3-.1.6-.1.7 0 .3 0 .7.2 1.1.2.4.4.7.5.7 0 0 .1-.1.2-.3.1-.3.2-.4.2-.4l.4-.8c0-.1.1-.2.4-.5.1.8.1 1.4.2 1.8.2.9.3 1.6.3 2.1v2.1c0 .8-.1 1.5-.2 2l-.8 2.2c0 .2-.1.4-.2.5l1.6 1.8c-.2.1-.4.4-.6.7-.7.6-1.2 1.1-1.4 1.5l-.5 1c-.1.5-.1.8 0 1 0 .1.2.1.6.1l.8.2c.2 0 .4.1.8.1-.1 0-.1-.2-.1-.4v-.4c0-.2.2-.4.4-.6l1.1-.8c.3-.2.6-.4.9-.8.2-.2.4-.5.3-.7.1.1.3.4.6.7.4.3.7.4.9.5.5.2 1.1.5 2 .8l1.9 1c.6.3 1.1.6 1.5 1.1.3-.2.7-.3 1.4-.3z"/><path stroke="#000" stroke-width=".5" d="M17.7-37.1c1 .2 2.1.5 3.3 1.1 1.5.7 2.4 1.4 2.6 2.1.1.3-.1.9-.6 1.9-.5.9-.9 1.3-1 1.2-.2-.2-.6-.5-1.1-1-1.5-1-3.2-1.9-5.2-2.9-1.1-.5-2.6-.9-4.5-1-1-.1-1.7-.1-2.1-.1-.7-.1-1.3-.1-1.7-.1l-2.1.2-.5.9c-.6 1.6-1 2.8-1.3 3.6-.5 1.4-.8 2.7-1 3.9-.4 1.7-.8 3.3-1.1 4.8-.8 3-1 4.5-.8 4.5.8 0 1.9-.1 3.5-.5.3 0 1 0 1.9-.2.8-.1 1.4-.1 1.9-.1 1.3 0 3.3-.2 6.2-.7-.1 1.2-.1 1.9-.1 2.2v.9c0 .2-.1.3-.1.4 0 0-.1 0-.3.1-.6.3-1.4.5-2.3.5-1 .1-1.8.2-2.4.3-2.4.2-4.2.4-5.3.5-.7.1-1.2.2-1.5.2-.6.1-1.2.1-1.6 0 .3.5.5.9.6 1.2.5.9 1.1 1.3 1.8 1.3.6-.1.9-.1 1-.1.4-.1.5-.3.3-.6l.3.1c.5.2.8.6.9 1.1 0 .2 0 .5-.2.7-.2.2-.4.3-.6.3.2 0 .5.1.8.2.2.1.5.2.8.3.5.2.9.5 1.2.9.4.4.6.9.6 1.3l-1.4-.3c-.2-.1-.3-.1-.3-.1.5.3.8.7.9 1l.2.8c.1.4 0 .7-.2 1-.4.1-.7.2-1 .3-.6.1-1.1-.1-1.5-.4.8 0 1-.4.6-1.3s-.8-1.5-1.2-1.8c-.4-.3-1.1-.6-2-.9l-1.1-.6c-.2-.1-.5-.2-.9-.3.1 1 .2 1.7.5 2 .4.3.7.5 1 .6.5.2.8.2 1 .2.3-.2.4-.3.4-.4l.1.3c.2.3.2.7 0 1.1 0 .4-.3.6-.6.7-.3.1-.6 0-.9-.1l-.8-.1c0 .2.2.5.6.8.3.3.4.6.4.9v.8s-.1.2-.2.5c-.4-.2-.9-.5-1.6-.8-.3-.2-.5-.5-.5-.7 0 .5 0 .9.1 1.2l.1.4.7 4.2.1.3c0 .5 0 .8.1 1 .3 1.1.8 2.1 1.3 3 0 .1.1.2.2.4.1.1.1.2 0 .3-.2.2-.4.5-.7.9-.4.3-.5.5-.5.6 0 .1.2.1.6.1l.9.2c1.1.3 2.3.9 3.6 1.9.2.1.5.3 1 .6.4.3.7.5.8.9.2.5.1.8-.4.9-.7 0-1.1.1-1.4.2-.4-.5-.9-.9-1.5-1.1l-1.9-1c-.9-.3-1.6-.5-2-.8-.2 0-.5-.2-.9-.4-.3-.3-.5-.6-.6-.7 0 .2-.1.5-.5.9-.3.3-.6.6-.9.8l-1 .7c-.3.2-.4.4-.4.6v.4c0 .2.1.4.1.4-.4-.1-.6-.1-.8-.1l-.7-.3c-.3 0-.5 0-.6-.1-.1-.2-.1-.5 0-1l.5-1c.2-.4.7-.9 1.4-1.5.2-.3.5-.6.6-.7l-1.6-1.7c.1-.1.1-.2.2-.5l.8-2.2c.1-.6.2-1.2.2-2v-2.1c0-.5-.1-1.2-.3-2.1-.1-.5-.1-1.1-.2-1.9-.2.3-.3.4-.4.5l-.4.8-.2.4c-.1.2-.2.3-.2.3-.1 0-.3-.3-.5-.7-.2-.4-.2-.8-.2-1.1 0-.1.1-.4.1-.7 0-.2.1-.3.3-.4h-.5l-.5-.2c-.3-.1-.5-.4-.6-.7-.2-.6-.2-1-.1-1.2h1.2l.6-.3c.5-.4.7-.6.8-.7l.3-1.2-.9.2-1 .5c-.2.1-.6.3-1.1.7-.4.4-.7.8-.9 1.1-.3.7-.3 1.3-.1 1.7.3.4.5.6.6.6h-.8c-.3 0-.5 0-.8-.1-.4-.2-.7-.5-.8-.9-.3-.8-.1-1.4.4-1.8l.2-.2c-.8.2-1.3.2-1.6.1.1-.2.1-.4.1-.7 0-.2.1-.3.3-.5.2-.2.5-.5.9-.7.4-.2.8-.3 1.3-.4.3-.1.5-.1.6-.1-.1-.1-.3-.1-.5-.2-.3-.3-.3-.7-.1-1 .1-.4.4-.6.7-.8l.4-.2c-.1.2 0 .4.4.5.3.1.6.2.8.2.6 0 1.1-.3 1.7-.8.7-.6 1-1.1.9-1.6l-3.5-.2h-2c-.8 0-1.4-.1-1.9-.3.1-1.4.1-2.2 0-2.2 0-.6.1-.9.2-1 .2-.2.7-.2 1.4-.1l1.3.1c1.3.1 2.5.2 3.6.3-.1 0-.1-.5-.2-1.6-.2-1.1-.2-1.7-.2-1.9l-.5-3.5c-.4-2.5-1-4.8-1.8-6.8-1.4-3.4-2.2-5.1-2.3-5-.6.3-1.5.5-2.8.7-1 .1-1.8.2-2.2.2.2 0 .4.2.5.6.2.4.2.6.2.6.1.5 0 .9 0 1.1-.1.2-.3.4-.7.6-.5.3-1 .3-1.5.2.3-.2.4-.5.4-.8 0-.2-.2-.5-.5-1s-1.1-.8-2.4-.8h-2c-.6 0-.9.2-.9.5l.1.9-.1.8.1 1-.1.8c.1.3.1.6.1.7 0 .3-.1.5-.4.5-.3.1-.5-.1-.8-.5-.1-.2-.3-.5-.4-.8l-.4-.4c-.1-.1-.2-.3-.5-.8-.3-.4-.5-.7-.5-.7v-.5l-.2-.6c0-.2 0-.4-.1-.5 0-.1-.2-.2-.5-.2-.3-.1-.7-.1-1 0-.9 0-1.5 0-2 .1-.4 0-.8.1-1 .3-.2.2-.3.5-.3.8 0 .3.1.6.3.8.2.2.4.3.7.4-.2.3-.8.4-1.6.3-.5-.1-.8-.3-1.1-.6-.3-.3-.4-.7-.4-1.2 0-.2.1-.5.4-1 .2-.4.5-.6.8-.7-.4 0-.7-.3-.9-.8-.1-.3-.1-.5 0-.5" fill="none"/></g><g><path fill="#AD100D" d="M-.9-24.8c.7-3.2 1.1-5.2 1.3-6.2l1.1-6.3v-.1h-7.3l.7 3.4c.7 2.4 1.2 4.2 1.5 5.4l.9 5.4c.3 1.8.4 3 .4 3.6.1.8.2 1.3.2 1.4l.1-.5c.2-1.5.5-3.6 1.1-6.1z"/><path stroke="#000" stroke-width=".25" d="M1.5-37.3l-1.1 6.3c-.2.9-.6 3-1.3 6.2-.6 2.5-.9 4.6-1.1 6.2v.5c-.1-.1-.1-.6-.2-1.4 0-.6-.1-1.8-.4-3.6l-.9-5.4c-.3-1.2-.8-3-1.5-5.4l-.7-3.4" fill="none"/></g><path fill="#C1855D" d="M11.3 20.6c.1-.2.2-.8.4-1.8.1-.6.3-1.1.5-1.5.8-1 1.4-2 1.9-2.8.1-.2.3-.5.7-1 .3-.4.6-.8.6-1.1.6 0 1-.2 1.2-.5.1-.1.1-.3.1-.5l.6-.5c.2-.2.3-.4.2-.8-.1-.6-.4-1.1-1-1.4 0 .5-.3.9-.9 1.2-.6.4-1 .5-1 .5-.4.2-.8.2-1.2.2-1.1-.3-2-.4-2.5-.3-.3 0-.6.1-1.1.2-.4.3-.8.4-1 .5-.3 0-.4 0-.5-.1-.3-.2-.5-.3-.6-.3-.3-.1-.6-.1-.8 0 .1 0 .3 0 .4.2.1.1.1.3.1.5 0 .3-.1.6-.3.9-.1.2-.4.3-.7.4-.4.1-.7.2-.8.3-.7.5-1 1.4-.9 2.7.1 1.5 0 2.5-.3 3-.4.4-.8.7-.9 1-.3.3-.5.8-.6 1.4-.1.4-.1.8 0 1.3.1.2.2.6.6 1.2.1.3.1.8-.1 1.5s-.2 1.2 0 1.5c.2.5.7.6 1.4.2.5-.3.9-.6 1.3-1 .3-.4.9-.8 1.7-1.2 1-.5 1.6-.8 1.9-1.1.6-.5 1.2-1.5 1.6-2.8z"/><path stroke="#000" stroke-width=".25" d="M11.3 20.6c.1-.2.2-.8.4-1.8.1-.6.3-1.1.5-1.5.8-1 1.4-2 1.9-2.8.1-.2.3-.5.7-1 .3-.4.6-.8.6-1.1.6 0 1-.2 1.2-.5.1-.1.1-.3.1-.5l.6-.5c.2-.2.3-.4.2-.8-.1-.6-.4-1.1-1-1.4 0 .5-.3.9-.9 1.2-.6.4-1 .5-1 .5-.4.2-.8.2-1.2.2-1.1-.3-2-.4-2.5-.3-.3 0-.6.1-1.1.2-.4.3-.8.4-1 .5-.3 0-.4 0-.5-.1-.3-.2-.5-.3-.6-.3-.3-.1-.6-.1-.8 0 .1 0 .3 0 .4.2.1.1.1.3.1.5 0 .3-.1.6-.3.9-.1.2-.4.3-.7.4-.4.1-.7.2-.8.3-.7.5-1 1.4-.9 2.7.1 1.5 0 2.5-.3 3-.4.4-.8.7-.9 1-.3.3-.5.8-.6 1.4-.1.4-.1.8 0 1.3.1.2.2.6.6 1.2.1.3.1.8-.1 1.5s-.2 1.2 0 1.5c.2.5.7.6 1.4.2.5-.3.9-.6 1.3-1 .3-.4.9-.8 1.7-1.2 1-.5 1.6-.8 1.9-1.1.6-.5 1.2-1.5 1.6-2.8z" fill="none"/><g stroke="#000" fill="none"><path stroke-width=".5" d="M6.9 10.6c.2-.1.3 0 .5.2.1.1.1.3.1.5 0 .3-.1.6-.3.9-.1.2-.4.3-.7.4-.4.1-.7.2-.8.3-.7.5-1 1.4-.9 2.7.1 1.5 0 2.5-.3 3-.4.4-.8.7-.9 1-.4.3-.6.8-.7 1.4-.1.4-.1.8 0 1.3.1.2.2.6.6 1.2.1.3.1.8-.1 1.5s-.2 1.2 0 1.5"/><path stroke-width=".25" d="M4.5 26c-.1-.3 0-.7.2-1.2.2-.7.3-1.1.3-1.2 0-.3 0-.6-.1-.7l-.2-.7c-.1-.5-.2-.8-.2-1.1 0-.3 0-.6.1-.9.2-.6.5-1.2.7-1.6l.9-.9c.3-.5.5-1.2.5-2.1v-.8c0-.3.1-.6.3-.8.3-.4.7-.7 1.1-.9.4-.2.6-.3.6-.5.2-.2.2-.4.1-.7-.1-.5-.6-.9-1.4-1.2M5.5 25.5c0-.3.1-.7.3-1.2.2-.6.3-1 .4-1.3.1-.3.1-.5 0-.8l-.2-.6c-.1-.6-.1-1-.1-1.2l.3-1c.5-1 .7-1.5.8-1.5.1-.2.4-.5.8-1 .2-.4.3-.7.3-1 .2-.6.2-.9.3-.9.3-.5.8-.9 1.8-1.3s1.4-.9 1.2-1.6c-.1-.5-.4-.9-.9-1.1-.4-.2-.9-.2-1.5-.2M6.6 25c.6-1.6.9-2.5.9-2.6l.1-.8-.1-.8c-.1-.5 0-.9.1-1.2l.4-1c.3-.6.6-1.3 1-1.8.2-.3.6-.7 1.2-1.2.2-.2.6-.9 1.2-2l.4-.8c.2-.3.2-.5.2-.8-.1-.6-.3-1.1-.7-1.5M7.6 24.5c.6-1 1-1.9 1.2-2.7l.1-1.6c0-.6.1-1 .2-1.4l1.4-2.6.7-.9c.2-.2.4-.6.5-1.2.2-.6.4-1 .6-1.2.1-.1.5-.3 1.2-.5.4-.2.6-.5.5-1.1 0-.3-.3-.5-.9-.6M8.6 24c.7-.8 1.1-1.7 1.4-2.8.1-.3.1-.5.1-.8l.1-.9c.1-.6.2-1 .4-1.4l2.2-3.6c.4-.6.7-1.1.8-1.5.5-.2.8-.4 1-.7l.5-1.1c.2-.2.6-.5 1.1-.8.6-.7.8-1.2.4-1.6"/><path stroke-width=".5" d="M9.7 23.4c.7-.5 1.2-1.5 1.6-2.8.1-.2.2-.8.4-1.8.1-.6.3-1.1.5-1.5.8-1 1.4-2 1.9-2.8.1-.2.3-.5.7-1 .3-.4.6-.8.6-1.1.6 0 1-.2 1.2-.5.1-.1.1-.3.1-.5l.6-.5c.2-.2.3-.4.2-.8-.1-.6-.4-1.1-1-1.4"/></g><path fill="#AD100D" d="M32.1 18.3c0-.9-.2-1.5-.6-1.6h.8c-.4-.5-.7-.8-.9-.9l-.9-.9c-.6-.5-1.2-.7-1.8-.6-.3 0-.9.3-1.8.8 0-.2.1-.6.2-1.1-.2.1-.7.3-1.5.6-.6.2-1.1.4-1.4.7-.6.4-1.1.7-1.3 1-.4.6-.7 1.1-.9 1.4l-1.2 2.1c-.3.4-.5.7-.5.8l-.3 1v-.8999999999999999l.1-.5v-.9c0-.4-.1-.8-.2-1-1.2-1.7-2.1-2.3-2.8-1.7-1.3-.4-1.9-.5-1.9-.3 0 .4-.1.7-.4.8l.3.1c0 .2-.1.3-.2.5l-.5.4c-.1.1-.1.2-.1.5s0 .4.2.3c0 .2 0 .4.1.7.1.4.1.6.1.8l-.4 1.6c-.2.6-.6 1.2-1.3 1.9-.2.2-.6.7-1.3 1.6-.2.4-.4.7-.6.9-.3.4-.6.6-.9.6h-2.1c-1.7.2-3.2.8-4.2 1.7-.5.3-.9.8-1.4 1.4-.6.7-1 1.2-1.3 1.5-.3.4-.6.9-.8 1.5-.2.7-.2 1.3 0 1.6.1.1.3.2.7.3.2.1.6.3 1 .6 1.1.5 2.4.7 3.8.5.8-.1 1.5-.2 2-.4.8-.3 1.3-.6 1.5-1 .1-.1.1-.3.1-.5.3 0 .8.2 1.5.4.6.2 1.1.4 1.5.4.5.1 1 0 1.6-.1.3-.1.8-.2 1.5-.3.6-.1 1.3-.3 2-.6.5-.2 1.2-.5 2.1-1 .8-.5 1.6-1.2 2.5-2l1.2-1.3c.6-.7 1-1.3 1.2-1.8.2-.5.7-1.1 1.3-1.9.1-.2.2-.5.2-1 0-.3.2-.5.4-.8.2-.3.5-.8.7-1.5.2-.4.5-.8 1-1.4l.3-.5.2-.5c.2-.3.4-.7.6-1.3.3-.4.7-.6 1.2-.7.4 0 .9.1 1.5.5l.1-.5z"/><path stroke="#000" stroke-width=".5" d="M32.1 18.3c0-.9-.2-1.5-.6-1.6h.8c-.4-.5-.7-.8-.9-.9l-.9-.9c-.6-.5-1.2-.7-1.8-.6-.3 0-.9.3-1.8.8 0-.2.1-.6.2-1.1-.2.1-.7.3-1.5.6-.6.2-1.1.4-1.4.7-.6.4-1.1.7-1.3 1-.4.6-.7 1.1-.9 1.4l-1.2 2.1c-.3.4-.5.7-.5.8l-.3 1v-.8999999999999999l.1-.5v-.9c0-.4-.1-.8-.2-1-1.2-1.7-2.1-2.3-2.8-1.7-1.3-.4-1.9-.5-1.9-.3 0 .4-.1.7-.4.8l.3.1c0 .2-.1.3-.2.5l-.5.4c-.1.1-.1.2-.1.5s0 .4.2.3c0 .2 0 .4.1.7.1.4.1.6.1.8l-.4 1.6c-.2.6-.6 1.2-1.3 1.9-.2.2-.6.7-1.3 1.6-.2.4-.4.7-.6.9-.3.4-.6.6-.9.6h-2.1c-1.7.2-3.2.8-4.2 1.7-.5.3-.9.8-1.4 1.4-.6.7-1 1.2-1.3 1.5-.3.4-.6.9-.8 1.5-.2.7-.2 1.3 0 1.6.1.1.3.2.7.3.2.1.6.3 1 .6 1.1.5 2.4.7 3.8.5.8-.1 1.5-.2 2-.4.8-.3 1.3-.6 1.5-1 .1-.1.1-.3.1-.5.3 0 .8.2 1.5.4.6.2 1.1.4 1.5.4.5.1 1 0 1.6-.1.3-.1.8-.2 1.5-.3.6-.1 1.3-.3 2-.6.5-.2 1.2-.5 2.1-1 .8-.5 1.6-1.2 2.5-2l1.2-1.3c.6-.7 1-1.3 1.2-1.8.2-.5.7-1.1 1.3-1.9.1-.2.2-.5.2-1 0-.3.2-.5.4-.8.2-.3.5-.8.7-1.5.2-.4.5-.8 1-1.4l.3-.5.2-.5c.2-.3.4-.7.6-1.3.3-.4.7-.6 1.2-.7.4 0 .9.1 1.5.5l.1-.5z" fill="none"/><path fill="#1196C7" d="M13.8 24.2c.2-.2.6-.5 1-.8.4-.4.5-.8.5-1.2-.2-.9-.3-1.4-.4-1.5-.3-.6-.9-1.1-1.6-1.4-.8-.4-1.5-.4-2 0-.5.3-1 .9-1.5 1.5-.5.8-.9 1.5-1.2 1.8-.9 1.2-1.9 2-2.9 2.6-1.1.8-2.2 1.3-3.2 1.8-2.3 1-4.4 1.4-6.4 1.1-.9-.1-1.8-.3-2.5-.7-.5-.2-.8-.4-.9-.5-.1-.2-.2-.6-.2-1l-.9.1c-.4.1-.7.1-.8.2-.8.5-1.2 1.1-1.3 1.7-.2 1.1-.3 2.3-.2 3.4 0 1.2.2 2.1.4 3 .2.8 1 1.3 2.5 1.4 1.5.1 3 0 4.7-.4.3-.1.9-.4 1.6-1 .5-.4 1.2-.8 2.2-1.4l.1-.1c.2-.1.8-.7 2-1.8.3-.3.6-.7 1.1-1.3.4-.6.8-1 1-1.3.6-.6 1.7-1.1 3.1-1.4.2 0 .2.2.1.7.2.4.6.7 1.1.9.5.2 1.1.2 1.6 0 .5-.1 1-.8 1.5-2l.2-.9c.4-.5.7-1 1.3-1.5z"/><path stroke="#000" stroke-width=".5" d="M13.8 24.2c-.6.5-1 1-1.1 1.6l-.2.9c-.5 1.2-1 1.8-1.5 2-.5.2-1 .2-1.6 0-.6-.2-.9-.5-1.1-.9.1-.5 0-.7-.1-.7-1.4.3-2.4.8-3.1 1.4-.3.3-.6.7-1 1.3-.5.6-.8 1-1.1 1.3-1.2 1.1-1.8 1.7-2 1.8l-.3.1c-1 .5-1.8 1-2.2 1.4-.8.6-1.4.9-1.6 1-1.7.3-3.2.5-4.7.4-1.4-.1-2.3-.5-2.5-1.4-.2-.8-.3-1.8-.4-3-.1-1.2 0-2.3.2-3.4.1-.6.5-1.2 1.3-1.7.1-.1.4-.1.8-.2l.9-.1c0 .4.1.7.2 1 .1.1.4.3.9.5.7.4 1.6.6 2.5.7 2 .3 4.1-.1 6.4-1.1 1.1-.5 2.2-1 3.3-1.8 1-.6 1.9-1.4 2.9-2.6.3-.4.7-1 1.2-1.8.5-.7 1-1.2 1.5-1.5.5-.4 1.2-.4 2 0 .8.3 1.4.8 1.6 1.4.1.1.2.6.4 1.5.1.4-.1.8-.5 1.2-.5.2-.9.5-1.1.7z" fill="none"/><path fill="#D8D841" d="M9.2 26.7c.6-.4.8-.9.5-1.6l-.5-1.2c-1 .2-2.2 1-3.5 2.4l-3.7 3.7c-.5.6-1 1.1-1.3 1.4l-1.7 1.4c-1.2 1.1-2.6 1.8-4.1 2-2 .3-3.5.1-4.6-.6-.4-.5-.7-.9-1-1.1-.1 1.3.2 2.2 1.1 2.9.3.2.7.4 1.3.7.4.2.9.4 1.6.4h.8l.6.1c.4-.1.9-.2 1.7-.4.8-.1 1.6-.3 2.3-.7 1-.6 1.6-1.1 2-1.7.4-.6 1.1-1.4 1.9-2.2l1.8-1.7c1.7-1.6 3.3-2.9 4.8-3.8z"/><path stroke="#000" stroke-width=".5" d="M9.2 26.7c-1.5.9-3.1 2.2-4.7 3.8l-1.8 1.7c-.8.8-1.5 1.6-1.9 2.2-.4.5-1.1 1.1-2 1.7-.7.4-1.5.6-2.3.7-.7.2-1.3.4-1.7.4l-.7-.2h-.8c-.7 0-1.2-.1-1.6-.4-.6-.3-1-.5-1.3-.7-.9-.6-1.2-1.6-1.1-2.9.3.2.6.6 1 1.1 1.1.8 2.6 1 4.6.6 1.5-.2 2.9-.9 4.1-2l1.6-1.5c.4-.1.8-.6 1.4-1.2 1.4-1.3 2.6-2.5 3.7-3.7 1.3-1.4 2.5-2.2 3.5-2.4l.5 1.2c.2.7 0 1.2-.5 1.6z" fill="none"/><g><path fill="#AD100D" d="M-5.1 1c.1-1.1 0-1.8-.5-2.1 0 0-.1-.1-.3-.2.4-.3.4-.6 0-1s-.7-.3-.9.2l-.2 1.5c-.2.7-.2 1.2-.2 1.6 0 .9.1 1.5.4 1.9l.4.6c0 .3 0 .6.1.8.2.3.3.3.5 0l.3-.9c.1-.4.2-1 .5-1.8l-.1-.6z"/><path stroke="#000" stroke-width=".25" d="M-5.1 1c.1-1.1 0-1.8-.5-2.1 0 0-.1-.1-.3-.2.4-.3.4-.6 0-1s-.7-.3-.9.2l-.2 1.5c-.2.7-.2 1.2-.2 1.6 0 .9.1 1.5.4 1.9l.4.6c0 .3 0 .6.1.8.2.3.3.3.5 0l.3-.9c.1-.4.2-1 .5-1.8l-.1-.6z" fill="none"/><path fill="#AD100D" d="M4.6 2.5c.1-.7-.1-1.8-.5-3.3-.1-.2-.1-.4-.2-.8-.1-.3-.2-.5-.4-.6-.2-.1-.4-.1-.6.2-.2.1-.2.2-.2.3l.2.1c-.2.2-.3.4-.4.5-.1.1-.1.3-.1.5v1.5l.3.9s.2.4.7 1c-.4.3-.5.7-.4 1.1.1.2.3.3.6.4.2 0 .4 0 .6-.2s.3-.4.4-.8c-.1-.2 0-.5 0-.8z"/><path stroke="#000" stroke-width=".25" d="M4.6 2.5c.1-.7-.1-1.8-.5-3.3-.1-.2-.1-.4-.2-.8-.1-.3-.2-.5-.4-.6-.2-.1-.4-.1-.6.2-.2.1-.2.2-.2.3l.2.1c-.2.2-.3.4-.4.5-.1.1-.1.3-.1.5v1.5l.3.9s.2.4.7 1c-.4.3-.5.7-.4 1.1.1.2.3.3.6.4.2 0 .4 0 .6-.2s.3-.4.4-.8c-.1-.2 0-.5 0-.8z" fill="none"/><path fill="#AD100D" d="M9 2.3l-.1-1c-.1-.6-.3-1-.5-1.5-.7-1.3-1.2-1.8-1.6-1.5-.2.1-.2.3-.1.7.2.4.4.7.4.8-.2.9-.3 1.5-.2 2 0 .6.2 1.1.6 1.7-.4.3-.2.7.4 1.1.4.2.7 0 1-.5.1-.3.2-.9.1-1.8z"/><path stroke="#000" stroke-width=".25" d="M9 2.3l-.1-1c-.1-.6-.3-1-.5-1.5-.7-1.3-1.2-1.8-1.6-1.5-.2.1-.2.3-.1.7.2.4.4.7.4.8-.2.9-.3 1.5-.2 2 0 .6.2 1.1.6 1.7-.4.3-.2.7.4 1.1.4.2.7 0 1-.5.1-.3.2-.9.1-1.8z" fill="none"/><path fill="#AD100D" d="M12.5 3.9c0-.1.1-.4.1-1 0-.3-.1-.7-.2-1.1v-.1c-.3-.3-.4-.7-.6-1.3l-.4-1c-.1-.5-.3-.8-.6-.9-.3-.1-.5 0-.5.2.1.2.2.4.2.5 0 .1 0 .3-.1.5-.2.5-.2.8-.2 1 .3.7.5 1.2.6 1.6.3.8.5 1.2.6 1.2-.2.1-.3.2-.4.3-.1.2-.1.4 0 .5.2.3.5.3.8.2.3-.1.6-.3.7-.6z"/><path stroke="#000" stroke-width=".25" d="M12.5 3.9c0-.1.1-.4.1-1 0-.3-.1-.7-.2-1.1v-.1c-.3-.3-.4-.7-.6-1.3l-.4-1c-.1-.5-.3-.8-.6-.9-.3-.1-.5 0-.5.2.1.2.2.4.2.5 0 .1 0 .3-.1.5-.2.5-.2.8-.2 1 .3.7.5 1.2.6 1.6.3.8.5 1.2.6 1.2-.2.1-.3.2-.4.3-.1.2-.1.4 0 .5.2.3.5.3.8.2.3-.1.6-.3.7-.6z" fill="none"/><path fill="#AD100D" d="M-8.6 1.5v-.5c-.1-.6-.2-1-.2-1.2-.4-.5-.7-.8-.8-.7l.3-.3c.1-.2 0-.4-.2-.6-.3-.2-.5-.3-.7-.2-.3.1-.5.4-.5.9.1.6.1.9.1 1.1-.1 1.1-.2 1.7-.2 1.7.1.7.2 1.3.6 1.9.1.2.2.5.2.9s.1.6.3.8c.2.1.4 0 .6-.3 0-.1.1-.6.3-1.5l.2-2z"/><path stroke="#000" stroke-width=".25" d="M-8.6 1.5v-.5c-.1-.6-.2-1-.2-1.2-.4-.5-.7-.8-.8-.7l.3-.3c.1-.2 0-.4-.2-.6-.3-.2-.5-.3-.7-.2-.3.1-.5.4-.5.9.1.6.1.9.1 1.1-.1 1.1-.2 1.7-.2 1.7.1.7.2 1.3.6 1.9.1.2.2.5.2.9s.1.6.3.8c.2.1.4 0 .6-.3 0-.1.1-.6.3-1.5l.2-2z" fill="none"/></g><g><path fill="#D8D841" d="M-13.2 9.3c1.2-.5 2-1.2 2.6-2.2.3-.5.5-.9.5-1.2.1-.3.2-.7.1-1-.1-.4-.3-.6-.6-.6 0-.1.1-.2.2-.3.1-.1.1-.6.2-1.3v-.4c0-1.4-.1-2.3-.2-2.8-.2-.8-.4-1.2-.6-1.4-.1-.1-.3-.2-.4-.2-.2 0-.3.1-.4.2 0 .1.1.5.4 1.1.2.5.1.7-.4.8-.2 0-.4-.1-.6-.3-.1-.1-.2-.3-.4-.5-.2-.3-.4-.4-.6-.2-.3.2-.4.7-.3 1.3.1.2.2.4.3.5.1.2.1.4 0 .5-.2.2-.4.1-.8-.4-.4-.7-.8-.9-1.1-.7-.3.2-.3.7-.1 1.4.1.3.1.5 0 .8-.1.3-.3.4-.6.4-.2 0-.4-.2-.5-.4-.1-.1-.2-.3-.4-.5-.3-.4-.5-.4-.6 0-.1.2 0 .6.1 1.2.1.5 0 .8-.3 1-.4.2-.7 0-1-.6-.3-.6-.6-.9-.9-.8-.3 0-.4.4-.5 1 0 .5-.2.8-.6.8-.1 0-.3-.1-.4-.4-.1-.1-.2-.3-.4-.6-.2-.2-.5-.3-.8-.1-.3.1-.2.6.3 1.3.6.9 1.3 1.5 1.9 1.8.4.2.9.5 1.5.9.6.3 1.6.6 2.8.9.2.1.4.2.4.4l.2.5c.7.3 1.3.4 2 .1z"/><path stroke="#000" stroke-width=".5" d="M-13.2 9.3c1.2-.5 2-1.2 2.6-2.2.3-.5.5-.9.5-1.2.1-.3.2-.7.1-1-.1-.4-.3-.6-.6-.6 0-.1.1-.2.2-.3.1-.1.1-.6.2-1.3v-.4c0-1.4-.1-2.3-.2-2.8-.2-.8-.4-1.2-.6-1.4-.1-.1-.3-.2-.4-.2-.2 0-.3.1-.4.2 0 .1.1.5.4 1.1.2.5.1.7-.4.8-.2 0-.4-.1-.6-.3-.1-.1-.2-.3-.4-.5-.2-.3-.4-.4-.6-.2-.3.2-.4.7-.3 1.3.1.2.2.4.3.5.1.2.1.4 0 .5-.2.2-.4.1-.8-.4-.4-.7-.8-.9-1.1-.7-.3.2-.3.7-.1 1.4.1.3.1.5 0 .8-.1.3-.3.4-.6.4-.2 0-.4-.2-.5-.4-.1-.1-.2-.3-.4-.5-.3-.4-.5-.4-.6 0-.1.2 0 .6.1 1.2.1.5 0 .8-.3 1-.4.2-.7 0-1-.6-.3-.6-.6-.9-.9-.8-.3 0-.4.4-.5 1 0 .5-.2.8-.6.8-.1 0-.3-.1-.4-.4-.1-.1-.2-.3-.4-.6-.2-.2-.5-.3-.8-.1-.3.1-.2.6.3 1.3.6.9 1.3 1.5 1.9 1.8.4.2.9.5 1.5.9.6.3 1.6.6 2.8.9.2.1.4.2.4.4l.2.5c.7.3 1.3.4 2 .1z" fill="none"/><path fill="#AD100D" d="M-11.4 11c1.1-.6 1.9-1.5 2.3-2.5.3-.6.4-1.1.5-1.3.1-.3.1-.7 0-1-.1-.4-.4-.6-.6-.7 0-.1 0-.2.1-.3.1-.2.2-.6.1-1.2v-.3c-.1-1.2-.2-2.1-.5-2.8-.3-.7-.5-1.2-.8-1.3-.1-.1-.3-.2-.4-.2-.2 0-.3.1-.4.3 0 .1.1.4.4 1 .2.4.2.7-.2.8-.2.1-.4 0-.6-.2l-.5-.5c-.3-.3-.5-.3-.7-.1-.3.2-.3.7 0 1.3.1.2.2.4.3.5.1.2.1.4.1.5-.2.3-.4.2-.8-.3-.3-.3-.4-.5-.5-.5-.3-.2-.5-.2-.7 0-.3.3-.3.7 0 1.4.1.2.1.5 0 .8-.1.3-.2.4-.5.4-.2 0-.4-.1-.5-.3-.1-.1-.2-.3-.5-.5-.3-.3-.5-.2-.6.1-.1.2 0 .5.2 1.1.2.5.1.9-.2 1-.4.2-.7 0-1-.5-.3-.6-.7-.8-1-.8-.2.1-.3.4-.3 1 0 .5-.1.8-.5.9-.1 0-.3-.1-.5-.3l-.6-.5c-.2-.3-.5-.3-.7-.1-.2.1-.2.4 0 .7.2.3.4.5.4.7.7.8 1.4 1.3 2.2 1.6.4.1.9.4 1.5.8.7.3 1.6.5 2.9.6.2 0 .4.2.4.4.1.3.2.4.4.5.2.1.5.2.9.2.4-.2.7-.3.9-.4z"/><path stroke="#000" stroke-width=".5" d="M-11.4 11c1.1-.6 1.9-1.5 2.3-2.5.3-.6.4-1.1.5-1.3.1-.3.1-.7 0-1-.1-.4-.4-.6-.6-.7 0-.1 0-.2.1-.3.1-.2.2-.6.1-1.2v-.3c-.1-1.2-.2-2.1-.5-2.8-.3-.7-.5-1.2-.8-1.3-.1-.1-.3-.2-.4-.2-.2 0-.3.1-.4.3 0 .1.1.4.4 1 .2.4.2.7-.2.8-.2.1-.4 0-.6-.2l-.5-.5c-.3-.3-.5-.3-.7-.1-.3.2-.3.7 0 1.3.1.2.2.4.3.5.1.2.1.4.1.5-.2.3-.4.2-.8-.3-.3-.3-.4-.5-.5-.5-.3-.2-.5-.2-.7 0-.3.3-.3.7 0 1.4.1.2.1.5 0 .8-.1.3-.2.4-.5.4-.2 0-.4-.1-.5-.3-.1-.1-.2-.3-.5-.5-.3-.3-.5-.2-.6.1-.1.2 0 .5.2 1.1.2.5.1.9-.2 1-.4.2-.7 0-1-.5-.3-.6-.7-.8-1-.8-.2.1-.3.4-.3 1 0 .5-.1.8-.5.9-.1 0-.3-.1-.5-.3l-.6-.5c-.2-.3-.5-.3-.7-.1-.2.1-.2.4 0 .7.2.3.4.5.4.7.7.8 1.4 1.3 2.2 1.6.4.1.9.4 1.5.8.7.3 1.6.5 2.9.6.2 0 .4.2.4.4.1.3.2.4.4.5.2.1.5.2.9.2.4-.2.7-.3.9-.4z" fill="none"/></g><g><path fill="#D8D841" d="M21.2 9.9c.3.1.6.1 1 .1.4-.1.7-.2.9-.4.1-.1.2-.3.2-.6.1-.2.2-.4.4-.5 1.4-.5 2.3-.9 2.9-1.2.3-.2.8-.6 1.4-1.2.8-.5 1.4-1.2 1.9-2.1.5-.7.6-1.2.2-1.5-.3-.2-.5-.1-.8.2-.3.7-.6 1-.8 1-.3.1-.5-.1-.6-.7-.1-.6-.3-.9-.5-1-.4 0-.7.3-.9 1-.2.7-.5.9-.9.8-.4-.1-.6-.5-.5-1 .1-.7.1-1.1 0-1.3-.2-.4-.4-.4-.7 0-.2.3-.3.5-.4.7-.1.2-.3.4-.5.5-.3.1-.5 0-.6-.3-.1-.3-.2-.5-.1-.8.1-.8 0-1.2-.3-1.5-.2-.1-.5-.1-.7.2 0 0-.2.2-.4.6-.3.5-.6.7-.8.5-.1-.1-.1-.3-.1-.5s.1-.4.2-.6c.2-.7 0-1.1-.4-1.3-.3-.1-.5 0-.8.3-.2.3-.3.5-.4.6-.2.3-.4.4-.6.4-.5 0-.6-.3-.5-.9.2-.7.3-1.1.2-1.2 0-.2-.1-.3-.3-.2-.2 0-.3.1-.5.2-.1.2-.3.8-.4 1.6-.1.6 0 1.6.2 3v.3c.1.7.2 1.1.4 1.4.1.1.2.2.2.3-.6.2-.8.8-.4 1.8.1.1.3.5.8 1.2.6.9 1.6 1.6 3 2.1z"/><path stroke="#000" stroke-width=".5" d="M21.2 9.9c-1.4-.5-2.4-1.2-3-2.1-.4-.7-.7-1.2-.8-1.2-.4-1-.2-1.6.4-1.8 0-.1-.1-.2-.2-.3-.2-.3-.3-.7-.4-1.4v-.3c-.2-1.3-.2-2.3-.2-3 .2-.8.3-1.4.5-1.6.1-.1.2-.2.4-.2s.3 0 .4.2c0 .1 0 .5-.2 1.2-.1.5 0 .8.5.9.2 0 .4-.1.6-.4.1-.1.2-.3.4-.6s.5-.4.8-.3c.4.2.6.6.4 1.3-.1.3-.2.5-.2.6-.1.3-.1.5.1.5.2.2.5 0 .8-.5.2-.4.4-.6.4-.6.2-.3.4-.3.7-.2.3.2.4.7.3 1.5-.1.3 0 .5.1.8.2.3.4.4.6.3.2-.1.4-.2.5-.5.1-.1.2-.3.4-.6.3-.4.5-.4.7 0 .1.2.1.6 0 1.3-.1.5.1.9.5 1 .4.1.8-.1.9-.8.2-.7.5-1 .9-1 .3 0 .4.3.5 1 .1.6.3.9.7.8.2 0 .5-.4.8-1 .2-.3.5-.4.8-.2.3.2.2.7-.2 1.5-.4.9-1 1.6-1.9 2.1-.6.5-1.1.9-1.4 1.2-.8.1-1.7.5-3.1 1-.2.1-.3.2-.4.5-.1.3-.1.5-.2.6-.2.2-.5.3-.9.4-.4 0-.7 0-1-.1z" fill="none"/><path fill="#AD100D" d="M25 9.2c.4-.2.9-.5 1.5-1 .8-.4 1.5-1 2.1-2 .6-.7.7-1.2.4-1.4s-.5-.1-.7.2c-.2.2-.3.4-.4.5-.2.3-.4.4-.5.4-.4 0-.6-.3-.7-.8 0-.6-.2-1-.4-1-.4-.1-.7.2-1 .9-.3.6-.6.8-1 .6-.4-.2-.5-.5-.4-1 .1-.7.2-1.2.1-1.3-.2-.4-.4-.4-.7 0-.2.3-.3.5-.4.6-.2.2-.4.4-.6.4-.3.1-.5 0-.6-.4-.1-.3-.1-.5 0-.8.2-.8.1-1.3-.1-1.5-.2-.2-.4-.1-.6.1-.1.1-.2.3-.5.6-.5.6-.8.7-1 .5-.1-.1-.1-.3 0-.6l.3-.6c.2-.7.1-1.1-.3-1.3-.2-.1-.5-.1-.8.2-.2.3-.4.5-.5.6-.2.2-.4.3-.6.3-.5-.1-.6-.4-.4-.9.3-.7.4-1 .4-1.2-.1-.2-.2-.3-.4-.2-.2 0-.3.1-.5.2-.2.2-.4.8-.6 1.5-.1.7-.2 1.7-.1 3v.3c.1.8.2 1.2.3 1.4l.2.3c-.3.1-.6.3-.6.8-.1.3 0 .7.1 1 .2.5.4.9.6 1.3.6 1.1 1.6 1.9 2.8 2.4.3.1.6.2 1 .1.4 0 .7-.1.9-.3.1-.1.2-.2.3-.5.1-.2.2-.4.5-.4 1.2-.4 2.2-.7 2.9-1z"/><path stroke="#000" stroke-width=".5" d="M25 9.2c-.7.3-1.7.6-3 .9-.2 0-.4.2-.5.4-.1.3-.2.5-.3.5-.2.2-.5.3-.9.3s-.7 0-1-.1c-1.2-.5-2.2-1.2-2.8-2.4-.2-.4-.4-.8-.6-1.3-.1-.4-.2-.7-.1-1 .1-.4.3-.7.6-.8l-.2-.3c-.1-.2-.2-.6-.3-1.4v-.2c-.1-1.3 0-2.3.1-2.9.2-.8.4-1.3.6-1.5.1-.1.3-.2.5-.2s.3 0 .4.2c0 .1-.1.5-.4 1.2-.2.5-.1.8.4.9.2 0 .4-.1.6-.3.1-.1.2-.3.5-.6s.5-.3.8-.2c.4.2.5.6.3 1.3l-.3.6c-.1.3-.1.5 0 .6.2.2.5 0 .9-.5.3-.4.4-.6.5-.6.2-.2.4-.3.6-.1.3.2.4.7.1 1.5-.1.3-.1.5 0 .8.1.3.4.4.6.4.2 0 .4-.2.6-.4.1-.1.2-.3.4-.6.3-.4.5-.4.7 0 .1.2 0 .6-.1 1.3-.1.5 0 .8.4 1 .4.2.8 0 1-.6.3-.7.6-1 1-.9.3 0 .4.4.4 1s.2.8.7.8c.1 0 .3-.1.5-.4.3-.2.4-.4.6-.6.2-.3.5-.4.8-.2s.1.7-.4 1.5c-.6.9-1.3 1.6-2.1 2-.7.4-1.2.7-1.6.9z" fill="none"/></g><g><path stroke="#000" stroke-width=".5" d="M3 15.6c-1.7-1-3.4-1.6-5.2-1.8-.9-.1-1.6-.1-1.9.1" fill="none"/><path stroke="#000" stroke-width=".25" d="M-7.2 25.3c.3.2.8.4 1.4.5.7.1 1.1 0 1.4-.2.4-.2.7-.4.9-.7.1-.2.2-.5.1-1-.1-.3-.1-.6-.2-1l-.5-1.4c0-.1-.1-.4-.3-.7-.1-.3-.1-.5 0-.7.1-.1.3-.1.6-.2s.4-.2.5-.5M-3 20.1c.1.2.3.2.7 0 .4-.2.7-.2.9 0 .2.3.2.6 0 .8-.2.2-.5.3-.9.2M-3.5 24.3c-.1.2-.5.4-1 .5-.5.1-.8.1-1 0-.6-.2-.9-.3-.9-.5" fill="none"/><path stroke="#000" stroke-width=".25" d="M-6.3 23.6c.3.3.7.5 1.3.4l1.3-.2c.1-.4-.2-.6-.7-.7-.4-.1-.6-.1-.9 0l-.6-.1m.6.1l-.3.2-.2.5c.2.2.4.3.6.2.2-.1.3-.3.2-.5-.1-.2-.2-.4-.3-.4zM-1.9 23.3l.4.4c.5.5 1.4.6 2.5.2.1 0 .4-.2 1-.4-.6-.3-1.2-.4-1.7-.5-.3 0-.6 0-.8.1-.2-.1-.5 0-.8 0m.8-.1c-.3.1-.4.4-.3.8.2.3.5.3.9 0 .2-.2.1-.4-.1-.5-.2-.2-.3-.3-.5-.3zM-2.1 25c.2.3.6.5 1.4.5 1.2.2 2.4-.2 3.4-1M-1.9 24.1c.3.3.6.4 1.1.5h1.3c.4-.1.8-.2 1.1-.3.4-.3.7-.4 1-.4" fill="none"/><path d="M-1.8 17.9l.5-.2h.5c.1 0 .1-.1 0-.1 0-.1-.1-.1-.2-.1s-.3 0-.7.1c-.6.1-1.3.1-2 0-.6-.1-.9-.1-1 0 0 .1 0 .1.1.2l.5.4.2.2c.1 0 .2 0 .3-.2.1-.1.2-.2.3-.2.1 0 .2.1.2.2.1.1.1.2.2.2s.3-.1.5-.2c.3-.1.4-.2.6-.3zM-3.5 16.8l.4-.1c.2 0 .6.1 1 .2-.2-.4-.5-.6-.9-.6-.2 0-.4 0-.5.2l-.4.4c.1-.1.2-.1.4-.1z"/></g><g stroke="#000" stroke-width=".25" fill="none"><path d="M1.4 7.8c-1-.2-1.9-.5-2.5-.7h.3c.3-.1.6-.2.9-.4.1-.6-.3-1.1-1.1-1.4-.8-.3-1.3-.2-1.5.4-.3.6.2 1.1 1.4 1.5h-.8c-.3 0-.6.1-1 .3-.4.2-.7.3-.7.5"/><path d="M-.7 1.4l-.1.2c-.2.2-.6.3-1.1.2-.3-.1-.5-.2-.6-.5-.1-.3 0-.6.4-.7.4-.2.8-.1 1.1 0 .2.2.3.4.3.8zM-2.4-3.4c-.6.2-.8.6-.5 1 .3.5.7.7 1.3.4.4-.2.6-.5.5-.9-.1-.5-.5-.7-1-.6l-.3.1zM-2-8.8c-.2 0-.5 0-.8.1-.5.2-.7.7-.7 1.3 0 .3.2.6.6.8.3.2.7.4 1 .4.5 0 .9-.2 1.1-.8.2-.4.1-.9-.1-1.2-.3-.4-.7-.6-1.1-.6zM-.8-11.3c.1-.6-.1-1-.7-1.2-.4-.2-.7-.2-1 0-.3 0-.5.2-.7.5-.1.2-.1.5 0 .8s.3.5.5.6c.4.1.7.2.9.2.6-.2.9-.4 1-.9zM-.9-16.9c-.9-.1-1.5-.2-2-.1-.4 0-.7.2-.9.5-.2.4-.1.7.3 1 .3.2.6.2 1.1.2h1.1l.6.1c.4 0 .8-.1 1.2-.3.4-.3.5-.6.2-1-.1-.1-.3-.2-.8-.2-.4-.2-.7-.2-.8-.2zM.1-17.9h-3.7c-.4 0-.7 0-.9.2-.4.2-.6.7-.5 1.6.1.8.4 1.3 1 1.5.4.1 1 .2 1.8.2.8.1 1.5.1 1.9 0 .2 0 .4-.1.8-.1s.6-.1.8-.1c.5-.2.9-.7 1-1.4.1-.7-.1-1.2-.5-1.6-.3-.3-.6-.4-.8-.4-.4 0-.7.1-.9.1zM-1.8 5c-.5-.1-.6-.4-.4-.8.2-.3.5-.4.9-.3.4.1.6.3.7.8.1.4-.1.6-.5.6M-14.3-5.4l.1.1c1.3 1.1 2.1 2.3 2.3 3.6M19.2-2.8l-.5 1.4c-.2.5-.4 1-.7 1.2M-9.7-18.4c-.1-.1-.2-.2-.4-.3l-.5-.5-.8-.8-1.5-1.8c-2.3-3.1-3.7-5.2-4.4-6.3-.2-.3-.5-1-1-2.2-.4-.9-.7-1.6-1.1-2.1M8.2-18.7c.5-.2 1.1-.6 1.9-1.2.6-.5 1.1-1.1 1.6-1.7l.8-1.1.5-1.3"/></g><path fill="#D8D841" d="M-18.9-24.3c-.1-.6-.2-.9-.2-1-.1-.1-.2-.2-.5-.2-.3-.1-.4-.2-.4-.1.1.4-.8.7-2.4.7-1 .1-1.8.1-2.5-.2-.4-.1-.8-.3-1-.6-.2-.2-.4-.5-.6-1-.2-.4-.6-.1-1.4.9-.8 1.2-1.2 1.8-1.3 1.9-.5.4-.7.8-.6 1 0 .1.4.6 1.2 1.3.3.2.9.5 1.7 1 .9.7 1.6 1.2 2.1 1.4.5.2 1.1.2 1.9 0 .4-.1 1.1-.2 1.9-.5l1.2-.3c.4 0 .6-.1.7-.1.2-.1.4-.2.5-.5.1-.1 0-.5-.2-1.1-.1-.6-.2-1.5-.1-2.6z"/><path stroke="#000" stroke-width=".5" d="M-18.9-24.3c-.1-.6-.2-.9-.2-1-.1-.1-.2-.2-.5-.2-.3-.1-.4-.2-.4-.1.1.4-.8.7-2.4.7-1 .1-1.8.1-2.5-.2-.4-.1-.8-.3-1-.6-.2-.2-.4-.5-.6-1-.2-.4-.6-.1-1.4.9-.8 1.2-1.2 1.8-1.3 1.9-.5.4-.7.8-.6 1 0 .1.4.6 1.2 1.3.3.2.9.5 1.7 1 .9.7 1.6 1.2 2.1 1.4.5.2 1.1.2 1.9 0 .4-.1 1.1-.2 1.9-.5l1.2-.3c.4 0 .6-.1.7-.1.2-.1.4-.2.5-.5.1-.1 0-.5-.2-1.1-.1-.6-.2-1.5-.1-2.6z" fill="none"/><path fill="#D6C19D" d="M19.7-24.3c.1-.7.2-1.1.3-1.2.1-.2.2-.3.6-.5.1-.1.2-.1.2-.1.2 0 .2.1.1.2-.1.2-.1.3-.1.4-.1.3 0 .5.4.6 0-.1.1-.2.4-.5.3-.3.5-.5.6-.8 0-.1-.1-.3-.2-.4-.1-.1-.2-.2-.4-.3l-.2-.2.2-.2.4-.5c0-.1 0-.3-.2-.4l-.2-.2c0-.1 0-.2.1-.3 0-.1 0-.3-.1-.5-.1-.1-.2-.2-.3-.4.1 0 .3 0 .5.1.2 0 .3-.1.4-.2 0-.1.1-.2.2-.4l-.1-.1c-.3-.3-.8-.4-1.5-.4-.7.1-1.2.2-1.5.2h-.5c-.7.7-1.3 1.1-1.7 1.3-.3.1-.4.3-.5.5l-.2.7-.4.8-.7 2.5-.3 2.8v.7c0 .1.1.3.3.5l.4.6.7.9c.2.3.4.4.5.5l1.1.1c1.4.2 2.5.1 3.3-.2.8-.3.9-.9.5-1.6-.3-.6-.8-1.1-1.5-1.5-.2-.1-.5-.3-.8-.6-.5-.5-.5-.6-.4-.7.3-.2.5-.6.6-1.2z"/><path stroke="#000" stroke-width=".5" stroke-miterlimit="10" d="M19.7-24.3c.1-.7.2-1.1.3-1.2.1-.2.2-.3.6-.5.1-.1.2-.1.2-.1.2 0 .2.1.1.2-.1.2-.1.3-.1.4-.1.3 0 .5.4.6 0-.1.1-.2.4-.5.3-.3.5-.5.6-.8 0-.1-.1-.3-.2-.4-.1-.1-.2-.2-.4-.3l-.2-.2.2-.2.4-.5c0-.1 0-.3-.2-.4l-.2-.2c0-.1 0-.2.1-.3 0-.1 0-.3-.1-.5-.1-.1-.2-.2-.3-.4.1 0 .3 0 .5.1.2 0 .3-.1.4-.2 0-.1.1-.2.2-.4l-.1-.1c-.3-.3-.8-.4-1.5-.4-.7.1-1.2.2-1.5.2h-.5c-.7.7-1.3 1.1-1.7 1.3-.3.1-.4.3-.5.5l-.2.7-.4.8-.7 2.5-.3 2.8v.7c0 .1.1.3.3.5l.4.6.7.9c.2.3.4.4.5.5l1.1.1c1.4.2 2.5.1 3.3-.2.8-.3.9-.9.5-1.6-.3-.6-.8-1.1-1.5-1.5-.2-.1-.5-.3-.8-.6-.5-.5-.5-.6-.4-.7.3-.2.5-.6.6-1.2z" fill="none"/><path fill="#D8D841" d="M23.3-17c.8-.8 1.4-1.9 2-3.4.7-1.7.5-2.5-.6-2.5l-.7.2c-.3 0-.6-.2-1-.4-.6-.2-.9-.4-1.1-.4-.7-.2-1.3-.2-1.8 0-.1.1-.2.2-.2.5 0 .2-.1.4-.1.5-.2 1.2-.8 2.1-1.6 2.6l-1.1.7c-.3.1-.5.1-.5.1-.1-.1-.3-.3-.4-.5l-.4-.6c-.2-.2-.2-.3-.2-.4 0 .1-.1.2-.4.5-.1.3-.2.5-.2.7 0 .3 0 .5.1.6.1.1.4.5 1 1.1l.6.9c.2.2.6.6 1.3 1.1.2.2.4.3.4.3-.3 0-.3.2-.1.5.2.2.4.4.6.5.5.2 1.2 0 2-.5.8-.6 1.7-1.3 2.4-2.1z"/><path stroke="#000" stroke-width=".5" d="M23.3-17c.8-.8 1.4-1.9 2-3.4.7-1.7.5-2.5-.6-2.5l-.7.2c-.3 0-.6-.2-1-.4-.6-.2-.9-.4-1.1-.4-.7-.2-1.3-.2-1.8 0-.1.1-.2.2-.2.5 0 .2-.1.4-.1.5-.2 1.2-.8 2.1-1.6 2.6l-1.1.7c-.3.1-.5.1-.5.1-.1-.1-.3-.3-.4-.5l-.4-.6c-.2-.2-.2-.3-.2-.4 0 .1-.1.2-.4.5-.1.3-.2.5-.2.7 0 .3 0 .5.1.6.1.1.4.5 1 1.1l.6.9c.2.2.6.6 1.3 1.1.2.2.4.3.4.3-.3 0-.3.2-.1.5.2.2.4.4.6.5.5.2 1.2 0 2-.5.8-.6 1.7-1.3 2.4-2.1z" fill="none"/><g stroke="#000" stroke-width=".25" fill="none"><path stroke-miterlimit="10" d="M16.9-19.1c-1 .4-1.5.4-1.5 0M21.5-27c-.3-.2-.6-.3-.8-.4-.1 0-.3.1-.7.3l-.6.3c-.2.1-.4.2-.5.2M18.2-27.2c.5-.2 1-.7 1.7-1.5.1-.1.4-.1.9 0 .2 0 .5.2 1 .4M17.6-28l.6-.6.8-.6c.1-.1.3-.3.6-.5.1-.1.5 0 1.2 0 .2 0 .4 0 .4.1M19.6-23.9c0 .2-.1.3-.3.5-.2.2-.4.4-.4.5-.1.1-.4.3-.9.5M-14.7-35.8c.6-.2 1-.7 1.1-1.4"/><path d="M-25.6-35.2c.3 0 .6.1.7.1.2 0 .5.1.8.3.6.4.9.8 1 1.2-.1-.5 0-.9.5-1.2.4-.3 1-.4 1.8-.4"/></g><path stroke="#000" stroke-width=".25" d="M-26-9c.6-.2 1.4-.5 2.6-.9 1-.4 1.8-.8 2.5-1.2.5-.2.8-.5 1-1 0-.1-.1-.3-.2-.5s-.2-.3-.1-.4M-19.9-13.6c-.1.2-.3.4-.6.6-.4.2-1.1.3-2 .5l-2.8.6M22.9-11.1c.6.6 1.4 1.2 2.5 1.7.7.3 1.6.6 3 1M23-10.6c.2 0 .4.2.7.6.1.2.3.4.5.7l1.7 1.8M-15.1-2.4c.5-1.8.3-3.5-.4-5.1" fill="none"/><path stroke="#000" stroke-width=".25" stroke-linecap="round" stroke-linejoin="round" stroke-miterlimit="3" d="M11.9 27.8c.9-1.3.9-2.4-.1-3.2m-2.9 2.5c0 .6.5.8 1.4.8.4 0 .8-.1 1.1-.4.3-.3.4-.6.4-.9 0-.6-.3-1.1-.8-1.7-.7-.6-1.2-.9-1.8-.9h-.3m-1.7 9.7c1.5-1.7 1.8-3.8 1-6.3m-7.3 6.9c4 .9 7.4.7 10.1-.5 5.2 1.7 9.4-1 12.5-8.3 3.2-7.3 6-9.6 8.4-6.9m-21.6 14c2.7-2.4 3.7-4.9 3-7.6m6.8-3.6c-.2 6-3.3 10.1-9.1 12.4 3.5-1.6 6-4.8 7.6-9.6 1.2-3.7.8-6.2-1.4-7.4" fill="none"/></g></symbol><symbol id="a" viewBox="-50 -85 100 170"><path fill="#FAFAEE" d="M-43-84.5c-3.6 0-6.5 2.9-6.5 6.5v156c0 3.6 2.9 6.5 6.5 6.5h86c3.6 0 6.5-2.9 6.5-6.5v-156c0-3.6-2.9-6.5-6.5-6.5h-86z"/><path d="M43 84c3.3 0 6-2.7 6-6v-156c0-3.3-2.7-6-6-6h-86c-3.3 0-6 2.7-6 6v156c0 3.3 2.7 6 6 6h86m0 1h-86c-3.9 0-7-3.1-7-7v-156c0-3.9 3.1-7 7-7h86c3.9 0 7 3.1 7 7v156c0 3.9-3.1 7-7 7z"/></symbol><symbol id="e" viewBox="-42 -77 84 154"><path fill="#3F3F3C" d="M-41.5-38.5c-.3 0-.5.2-.5.5v76c0 .3.2.5.5.5s.5-.2.5-.5v-76c0-.3-.2-.5-.5-.5zM39.5-77h-79c-1.4 0-2.5 1.1-2.5 2.5 0 .3.2.5.5.5s.5-.2.5-.5c0-.8.7-1.5 1.5-1.5h79c.8 0 1.5.7 1.5 1.5 0 .3.2.5.5.5s.5-.2.5-.5c0-1.4-1.1-2.5-2.5-2.5zM41.5-38.5c-.3 0-.5.2-.5.5v76c0 .3.2.5.5.5s.5-.2.5-.5v-76c0-.3-.2-.5-.5-.5zM41.5 74c-.3 0-.5.2-.5.5 0 .8-.7 1.5-1.5 1.5h-79c-.8 0-1.5-.7-1.5-1.5 0-.3-.2-.5-.5-.5s-.5.2-.5.5c0 1.4 1.1 2.5 2.5 2.5h79c1.4 0 2.5-1.1 2.5-2.5 0-.3-.2-.5-.5-.5zM41-.5h-82c-.3 0-.5.2-.5.5s.2.5.5.5h82c.3 0 .5-.2.5-.5s-.2-.5-.5-.5z"/></symbol><symbol id="d" viewBox="-3.4 -6.6 6.7 13.2"><path d="M1.8 6.1c.5-.3.8-.8 1-1.5.3-.6.4-1.4.4-2.1.1-.8.2-1.6.2-2.5s0-1.7-.1-2.4c-.2-.8-.3-1.6-.6-2.2-.2-.6-.6-1.1-1-1.4-.5-.3-1-.5-1.6-.6-.8 0-1.4.2-1.9.6-.5.4-.8.9-1 1.5-.2.6-.3 1.3-.4 2.1-.1.8-.2 1.6-.2 2.4 0 .9.1 1.8.2 2.6s.3 1.5.5 2.1c.2.6.5 1.1 1 1.5.5.3 1 .5 1.8.5.7-.1 1.3-.3 1.7-.6zm-.7-1.9c-.1.3-.3.5-.5.7-.2.1-.4.2-.5.2-.3 0-.6-.2-.8-.5-.3-.4-.5-.9-.6-1.6-.1-.8-.2-1.9-.2-3.1 0-.9 0-1.7.1-2.5.1-.7.2-1.2.5-1.7.2-.5.5-.7 1-.7.3 0 .6.2.9.7s.4 1.1.4 1.9c.1.8.2 1.7.2 2.8 0 1-.1 1.8-.2 2.4-.1.6-.2 1.1-.3 1.4z"/></symbol><symbol viewBox="-14.4 -15.9 28.8 31.9"><path fill="#028C02" d="M3.1-12.4c0-.8-.3-1.6-.9-2.2-.6-.6-1.3-.9-2.2-.9-.8 0-1.6.3-2.2.9-.5.7-.8 1.4-.8 2.2 0 .8.3 1.6.9 2.2.6.6 1.3.9 2.2.9.8 0 1.6-.3 2.2-.9.5-.6.8-1.3.8-2.2z"/><path fill="#046604" d="M2.2-14.6c.6.6.9 1.3.9 2.2 0 .8-.3 1.6-.9 2.2-.6.6-1.3.9-2.1.9v-6.1c.8 0 1.5.3 2.1.8z"/><path stroke="#000" stroke-miterlimit="10" d="M3.1-12.4c0-.8-.3-1.6-.9-2.2-.6-.6-1.3-.9-2.2-.9-.8 0-1.6.3-2.2.9-.5.7-.8 1.4-.8 2.2 0 .8.3 1.6.9 2.2.6.6 1.3.9 2.2.9.8 0 1.6-.3 2.2-.9.5-.6.8-1.3.8-2.2z" fill="none"/><path fill="#D9D900" d="M13.9 1.5c0-3.8-1.3-7.1-4-9.8-2.7-2.7-6-4-9.8-4s-7.1 1.3-9.9 4c-2.7 2.7-4 6-4 9.8 0 3.8 1.4 7.1 4 9.8 2.7 2.7 6 4.1 9.9 4.1s7.1-1.4 9.8-4.1c2.7-2.7 4-5.9 4-9.8z"/><path fill="#99950A" d="M.1 15.4v-27.8c3.8 0 7.1 1.4 9.8 4 2.7 2.7 4 6 4 9.8 0 3.8-1.3 7.1-4 9.8-2.8 2.9-6 4.2-9.8 4.2z"/><path fill="#B30000" d="M-13.9 1.5c0-1.8.3-3.5.9-5.1h26c.6 1.6.9 3.3.9 5.1v.9h-27.7c-.1-.3-.1-.6-.1-.9z"/><path fill="#00B300" d="M5.8-10.9c-1.7-.8-3.5-1.2-5.5-1.2s-4 .4-6 1.2c-1.4 1-2.4 2-3 2.9-.6.8-.7 1.3-.3 1.4.3 0 1.1-.3 2.5-.9l4.2-2.1c.5 2 1.2 3 2.3 3 1.1 0 1.8-1 2.3-3.1.8.4 2.2 1.1 4.3 2.1 1.3.7 2.1 1 2.4.9.4-.1.3-.6-.3-1.4-.5-.9-1.5-1.8-2.9-2.8z"/><path d="M3.2 9.3c0-.9-.3-1.6-.9-2.2-.6-.6-1.4-.9-2.3-.9-.9 0-1.6.3-2.2.9-.6.6-.9 1.4-.9 2.2 0 .9.3 1.6.9 2.2.6.6 1.4.9 2.2.9.9 0 1.6-.3 2.2-.9.7-.5 1-1.3 1-2.2z"/><path stroke="#1A171B" stroke-width=".65" fill="none" d="M.1 12.4v3"/><path fill="#087208" d="M9.1-6.6c-.3 0-1.1-.3-2.5-1-2.1-1-3.5-1.7-4.3-2.1-.4 2.1-1.2 3.1-2.2 3.1v-5.5h.3c2 0 3.8.4 5.5 1.2 1.4 1 2.4 2 3 2.9.5.8.6 1.3.2 1.4z"/><path fill="#750B0B" d="M.1 2.4v-6h12.9c.6 1.6.9 3.3.9 5.1v.9h-13.8z"/><path stroke="#000" stroke-miterlimit="10" d="M13.9 1.5c0-3.8-1.3-7.1-4-9.8-2.7-2.7-6-4-9.8-4s-7.1 1.3-9.9 4c-2.7 2.7-4 6-4 9.8 0 3.8 1.4 7.1 4 9.8 2.7 2.7 6 4.1 9.9 4.1s7.1-1.4 9.8-4.1c2.7-2.7 4-5.9 4-9.8z" fill="none"/></symbol><symbol viewBox="-1.4 -31 2.8 62"><path fill="#930" d="M.5-27.6c-.2.1-.3.1-.5.1-.3 0-.5-.1-.8-.2v57.1c.4 2.1.9 2.1 1.2 0v-57z"/><path fill="#ff0" d="M-.8-27.8c.2.2.5.2.8.2.2 0 .3 0 .5-.1.1-.1.2-.2.3-.2.3-.3.4-.6.4-.9 0-.3-.2-.8-.4-1.4-.3-.6-.7-.8-1-.6-.3.2-.5.5-.8.9-.2.4-.4.8-.4 1.1 0 .3.1.6.4.9.1 0 .2.1.2.1z"/><path stroke="#000" stroke-width=".3" stroke-linecap="round" stroke-linejoin="round" stroke-miterlimit="3" d="M-.8-27.8v57.1c.4 2.1.9 2.1 1.2 0v-56.9c.1-.1.2-.2.3-.2.3-.3.4-.6.4-.9 0-.3-.2-.8-.4-1.4-.3-.6-.7-.8-1-.6-.3.2-.5.5-.8.9-.2.4-.4.8-.4 1.1 0 .3.1.6.4.9.2-.1.3 0 .3 0zm1.3.2c-.2.1-.3.1-.5.1-.3 0-.5-.1-.8-.2" fill="none"/></symbol><symbol viewBox="-7.7 -15.9 15.3 31.8"><g><path fill="#F2F200" d="M5.3 10.1c0 2.9-2.4 5.3-5.3 5.3s-5.3-2.4-5.3-5.3v-12.2h10.6v12.2z"/><path fill="#D63403" d="M5.3-2.1v12.2c0 2.9-2.4 5.3-5.3 5.3v-17.5h5.3z"/><path fill="#008000" d="M7.2-4c0-2.8-3.2-5-7.2-5s-7.2 2.3-7.2 5c0 2.8 3.2 2.9 7.2 2.9s7.2-.1 7.2-2.9z"/><path fill="#008000" d="M-4.2-15.4c-.4 0-.8.3-1 .7-.2.6.1 1.2.6 1.4 3.5 1.3 3.6 5.9 3.6 5.9 0 .6.5 1.1 1.1 1.1s1.1-.5 1.1-1.1c0-.2-.1-6.1-4.9-7.9-.3-.1-.4-.1-.5-.1z"/><path fill="#056605" d="M7.2-4c0 2.8-3.2 2.9-7.2 2.9v-8c4 .1 7.2 2.3 7.2 5.1z"/><path fill="#4E5DC9" d="M-5.3-1.6h10.6v2.7h-10.6z"/><path fill="#384A89" d="M0-1.6h5.3v2.7h-5.3z"/><path d="M0 15.4c2.9 0 5.3-2.4 5.3-5.3v-11.7c1.2-.4 1.9-1.1 1.9-2.4 0-2.6-2.7-4.7-6.3-5-.3-1.9-1.4-5.1-4.8-6.3-.1 0-.2-.1-.4-.1-.4 0-.8.3-1 .7-.2.6.1 1.2.6 1.4 2.2.8 3 2.9 3.4 4.4-3.4.4-5.9 2.5-5.9 5 0 1.3.7 2 1.9 2.4v11.6c0 2.9 2.4 5.3 5.3 5.3m0 .5c-3.2 0-5.8-2.6-5.8-5.8v-11.3c-1.2-.6-1.9-1.5-1.9-2.8 0-2.6 2.4-4.8 5.8-5.4-.4-1.3-1.2-2.9-2.9-3.5-.4-.1-.7-.4-.9-.8-.2-.4-.2-.8 0-1.2.2-.6.8-1 1.5-1 .2 0 .4 0 .5.1 3.4 1.3 4.6 4.4 5 6.4 3.7.4 6.4 2.7 6.4 5.4 0 1.3-.6 2.2-1.9 2.8v11.3c0 3.2-2.6 5.8-5.8 5.8z"/></g></symbol><symbol viewBox="-1.4 -27.6 2.8 55.2"><path fill="#930" d="M.5-24.3c-.2.1-.3.1-.5.1-.3 0-.5-.1-.8-.2v51.4c.4.6.9.6 1.2 0v-51.3z"/><path fill="#ff0" d="M-.8-24.4c.2.2.5.2.8.2.2 0 .3 0 .5-.1.1-.1.2-.2.4-.2.3-.3.4-.6.4-.9 0-.3-.1-.8-.4-1.4-.3-.6-.7-.8-1-.6-.3.2-.5.4-.8.8-.2.4-.4.8-.4 1.2 0 .3.1.6.4.9l.1.1z"/><path stroke="#000" stroke-width=".3" stroke-linecap="round" stroke-linejoin="round" stroke-miterlimit="3" d="M-.8-24.4v51.4c.4.6.9.6 1.2 0v-51.2c.1-.1.2-.2.4-.2.3-.3.4-.6.4-.9 0-.3-.1-.8-.4-1.4-.3-.6-.7-.8-1-.6-.3.2-.5.4-.8.8-.2.4-.4.8-.4 1.2 0 .3.1.6.4.9.1-.1.2 0 .2 0zm1.3.1c-.2.1-.3.1-.5.1-.3 0-.5-.1-.8-.2" fill="none"/></symbol><symbol viewBox="-1 -7.3 17.4 7.3"><path stroke="#000" stroke-width="1.5" stroke-linecap="round" stroke-linejoin="round" stroke-miterlimit="3" d="M-.2-1.2c2.9.7 5.7.7 8.6-.1 3.2-.9 5.6-2.7 7.3-5.2" fill="none"/><path stroke="#E6E600" stroke-linecap="round" stroke-linejoin="round" stroke-miterlimit="3" d="M-.2-1.2c2.9.7 5.7.7 8.6-.1 3.2-.9 5.6-2.7 7.3-5.2" fill="none"/></symbol><use xlink:href="#a" width="100" height="170" x="-50" y="-85" transform="matrix(1 0 0 -1 50 85)" overflow="visible"/><g><g><use xlink:href="#b" width="73.4" height="74.8" x="-36.7" y="-37.4" transform="matrix(-1 0 0 1 49 122.416)" overflow="visible"/><use xlink:href="#b" width="73.4" height="74.8" x="-36.7" y="-37.4" transform="matrix(1 0 0 -1 51 47.584)" overflow="visible"/><g><use xlink:href="#c" width="12.9" height="13" x="-6.5" y="-6.5" transform="matrix(-1 0 0 1 89.499 135.5)" overflow="visible"/><use xlink:href="#c" width="12.9" height="13" x="-6.5" y="-6.5" transform="matrix(-1 0 0 1 10.499 135.5)" overflow="visible"/><use xlink:href="#c" width="12.9" height="13" x="-6.5" y="-6.5" transform="matrix(1 0 0 -1 89.501 34.5)" overflow="visible"/><use xlink:href="#c" width="12.9" height="13" x="-6.5" y="-6.5" transform="matrix(1 0 0 -1 10.501 34.5)" overflow="visible"/></g><g><use xlink:href="#d" width="6.7" height="13.2" x="-3.4" y="-6.6" transform="matrix(-1 0 0 1 90.5 151.5)" overflow="visible"/><use xlink:href="#d" width="6.7" height="13.2" x="-3.4" y="-6.6" transform="matrix(-1 0 0 1 9.5 151.5)" overflow="visible"/><use xlink:href="#d" width="6.7" height="13.2" x="-3.4" y="-6.6" transform="matrix(1 0 0 -1 90.5 18.5)" overflow="visible"/><use xlink:href="#d" width="6.7" height="13.2" x="-3.4" y="-6.6" transform="matrix(1 0 0 -1 9.5 18.5)" overflow="visible"/></g></g></g><use xlink:href="#e" width="84" height="154" x="-42" y="-77" transform="matrix(1 0 0 -1 50 85)" overflow="visible"/></svg>
