<svg xmlns="http://www.w3.org/2000/svg" xmlns:xlink="http://www.w3.org/1999/xlink" viewBox="0 0 100 150" enable-background="new 0 0 100 150"><symbol viewBox="-7.3 -7.3 14.6 14.6"><path fill-rule="evenodd" clip-rule="evenodd" d="M1.7 2.6c-.7-.8-1-1.4-1.1-2 .6.1 1.3.4 2 1.1.7.6 1.4.9 2.1.9.7 0 1.3-.3 1.9-.8.5-.5.7-1.1.7-1.8s-.3-1.3-.8-1.9c-.5-.4-1.1-.7-1.8-.7s-1.4.3-2.1 1c-.8.7-1.4 1-2 1.1 0-1.4 0-2.5.1-3.3.2-1.5.6-2.5 1.1-3.2.1-.1.1-.1 0-.2 0-.1-.1-.1-.2-.1-.6.1-1.1.2-1.6.2s-1-.1-1.7-.2c-.1 0-.1 0-.2.1s-.1.1 0 .2c.6.7.9 1.7 1.1 3.1.1.9.2 2 .2 3.3-.5 0-1.2-.4-2-1-.7-.7-1.4-1-2.1-1-.7 0-1.3.3-1.9.8-.5.5-.7 1.1-.7 1.8s.3 1.3.8 1.8c.5.6 1.1.8 1.8.8s1.4-.3 2.1-.9c.8-.7 1.4-1 2-1.1-.1.6-.4 1.3-1.1 2-.6.8-.9 1.4-.9 2.1 0 .7.3 1.3.8 1.9.5.5 1.1.7 1.8.7s1.3-.3 1.9-.8c.4-.5.7-1.1.7-1.8s-.3-1.3-.9-2.1z"/></symbol><symbol viewBox="-7 -7.5 14.1 14.9"><path fill-rule="evenodd" clip-rule="evenodd" fill="#008C00" d="M5.9-2.9c-.8-.7-1.7-1-2.8-1-.9 0-1.7.3-2.4.9h-.1c.1-1.9.5-3.2 1.2-4.1.1-.1.1-.1 0-.2 0-.1-.1-.1-.2-.1-.6.1-1.1.1-1.6.1s-1-.1-1.7-.2c-.1 0-.2 0-.2.1-.1.1-.1.1 0 .2.7.8 1.1 2.2 1.3 4.1h-.1c-.7-.6-1.5-.9-2.4-.9-1.1 0-2 .4-2.8 1.1-.7.7-1.1 1.5-1.1 2.5 0 1.3.8 2.6 2.5 4.1.9.8 2.4 2 4.3 3.6 0 .1.1.2.2.2s.2 0 .3-.1c.8-.8 2.2-2 4.3-3.6 1.6-1.5 2.4-2.9 2.4-4.2 0-1-.4-1.8-1.1-2.5z"/></symbol><symbol viewBox="-6.9 -6.4 13.9 12.9"><path fill-rule="evenodd" clip-rule="evenodd" fill="#D52222" d="M0 4.1c.2.7.5 1.2 1.1 1.7.6.5 1.3.7 2.1.7 1 0 1.9-.3 2.7-1 .7-.7 1.1-1.6 1.1-2.6 0-1.6-.8-3.2-2.4-5-.1-.2-1.6-1.6-4.4-4.2 0-.1-.1-.1-.2-.1s-.2 0-.2.1c-2.8 2.6-4.3 4-4.3 4.1-1.6 1.8-2.4 3.5-2.4 5 0 1 .4 1.8 1.1 2.6.7.7 1.6 1 2.7 1 .8 0 1.4-.2 2-.7.6-.4.9-1 1.1-1.6z"/></symbol><symbol id="b" viewBox="-50 -75 100 150"><path fill="#F0F7E6" d="M-43.9-75c-3.1 0-6.1 3-6.1 6.1v137.8c0 3.1 3 5.1 6.1 5.1h87.8c3.1 0 5.1-2 5.1-5.1v-137.8c0-3.1-2-6.1-5.1-6.1h-87.8z"/><path d="M43.9 74c2.8 0 5.1-2.3 5.1-5.1v-137.8c0-2.8-2.3-5.1-5.1-5.1h-87.8c-2.8 0-5.1 2.3-5.1 5.1v137.8c0 2.8 2.3 5.1 5.1 5.1h87.8m0 1h-87.8c-3.4 0-6.1-2.7-6.1-6.1v-137.8c0-3.4 2.7-6.1 6.1-6.1h87.8c3.4 0 6.1 2.7 6.1 6.1v137.8c0 3.4-2.7 6.1-6.1 6.1z"/></symbol><symbol id="f" viewBox="-41 -66 82 132"><g fill-rule="evenodd" clip-rule="evenodd" fill="#1A171B"><path d="M-40-41h-1v82h1zM41-41h-1v82h1zM34 66h-68v-1h68zM34-65h-68v-1h68z"/></g><path stroke="#1A171B" stroke-miterlimit="10" fill="none" d="M-40.5 0h81"/></symbol><symbol id="a" viewBox="-7.6 -7.6 15.2 15.2"><path fill-rule="evenodd" clip-rule="evenodd" fill="#D52222" d="M7.4-.3c-1.4-.9-2.7-2-3.9-3.2-1.2-1.2-2.3-2.5-3.2-3.9 0-.1-.2-.2-.3-.2-.1 0-.2.1-.3.2-.9 1.4-2 2.7-3.2 3.9-1.2 1.2-2.5 2.3-3.9 3.2-.1.1-.2.2-.2.3 0 .1.1.3.2.3 1.4.9 2.7 2 3.9 3.2 1.2 1.2 2.3 2.5 3.2 3.9.1.1.2.2.3.2.1 0 .3-.1.3-.2.9-1.4 2-2.7 3.2-3.9 1.2-1.2 2.5-2.3 3.9-3.2.1 0 .2-.2.2-.3 0-.1-.1-.2-.2-.3z"/></symbol><symbol id="c" viewBox="-4.9 -4.9 9.9 9.9"><use xlink:href="#a" width="15.2" height="15.2" x="-7.6" y="-7.6" transform="scale(.65)" overflow="visible"/></symbol><symbol id="e" viewBox="-40.5 -0.5 80.8 66"><path fill-rule="evenodd" clip-rule="evenodd" fill="#BD1D1D" stroke="#661010" stroke-miterlimit="10" d="M22.6 0c.1 2.1 1.1 4.4.6 6.4-.8 3.4-2.4 6.5-3.3 9.9-.9 3.5-2.4 7.1-5 9.7-2.3 2.2-5.3 3.6-7.7 5.6-1.5 1.2-3.2 2.1-5 2.8-.9.3-1.8.6-2.6.9l-1.5.4c-.8.2-.6.7-.7 1.4l-.4 2.9c3.9-1.1 7.9-3 11.6-4.8 1.9-.9 3.8-1.7 5.5-3 .7-.5 1.7-.7 2.4-1.1 1-.6 1.9-1.5 2.7-2.3 1.6-1.5 3.4-2.8 5.1-4.3 1.8-1.5 2.9-3.7 4.2-5.6 1.2-1.8 2.4-3.5 3.9-5.1 1.8-1.9 3.6-4 4.8-6.4v-.1l.1-.2.1-.2s0-.1.1-.1v-.1c.9-2 2.4-4.4 2.4-6.6h-17.3z"/><path fill-rule="evenodd" clip-rule="evenodd" fill="#0092CD" d="M9.7 6.5c-1.3-2.5-3-4.8-5.2-6.5h-10.5l-.5.7c-2 3.1-3.9 6.2-5.6 9.5-1.7 3.1-3.3 6.4-4.3 9.8-.7 2.7-1.6 7 .9 9.1 2.1 1.8 5.6 1 8 .4 1.7-.4 5.4-1.3 5.3-3.6 1.3.9 2.4 2.1 4 2.6h.1c.1 0 .1 0 .2.1 1.7.5 3.4.3 5.2.2 1.8-.2 3-.4 3.5-2.3.4-1.5.3-3.1.3-4.6.1-1.5.2-3 .2-4.5.3-3.8.1-7.4-1.6-10.9z"/><path fill-rule="evenodd" clip-rule="evenodd" fill="#30802F" stroke="#003618" stroke-miterlimit="10" d="M-5.1 0h-29.1c-.6 1.3-.2 3-.3 4.4 0 2.4.2 4.7.7 7 .8 3.4 2 6.7 3.4 10 .8 1.9 1.6 3.8 2.7 5.7 2 3.6 4.6 7 8.1 9l.5.3c.9.4 1.5 1 2.3 0 .9-1.2 0-3.1-.1-4.5-.1-3.4 1.1-7.2 1.9-10.5.9-3.9 2.3-7.6 4.1-11.1 1.6-3 3.7-5.7 5.1-8.8.3-.4.5-1 .7-1.5zM26.2 0h-20.4c-.3 1.5.9 3.5 1.2 4.7.7 2.2 1.4 4.3 1.5 6.6.2 2.6-.2 5.1-.4 7.6-.3 3.8.5 7.5.4 11.3v.5c0 .8 0 1.7.2 2.5.2.5.1.6.7.4.6-.2 1.2-.4 1.8-.7 1.9-.9 3.6-2 5-3.5 2.9-2.9 4.9-7.1 6.8-10.7 1.5-3 1.5-6.2 1.9-9.4.2-1.8 0-3.6.1-5.4.1-1 .2-2.1.6-3l.6-.9z"/><path fill="#003618" d="M-18.1 6.3c-.2-1.1-.5-2.2-.7-3.2l-.5-3h-1c.3 2.2.7 4.4 1.2 6.5.2-.1.9-.2 1-.3z"/><path fill-rule="evenodd" clip-rule="evenodd" fill="#D62121" stroke="#000" stroke-width=".75" stroke-miterlimit="10" d="M-19.4 5.6c-4.8 1.1-9.4 3.1-13.4 6.1l-1.5 1.2c-.7.6-.7.6-.6 1.5.2 1.2.5 2.4.9 3.6.9 2.4 2.1 4.7 3.7 6.7 5.1-1.7 10-3.9 14.5-6.8l1.6-1.1c.8-.5.8-.5.5-1.4-.4-1.2-.8-2.3-1.3-3.4-1-2.4-2.5-4.6-4.4-6.4-5.9 1.3 3 3 0 0z"/><path fill-rule="evenodd" clip-rule="evenodd" fill="#F2EB03" stroke="#877F17" stroke-width=".4" stroke-miterlimit="10" d="M-28.1 26.7c3.2-.7 6.3-1.8 9.1-3.4 1.4-.7 2.7-1.6 3.9-2.5l1.8-1.4c.7-.6 0-2.1-.2-2.9-5 3.6-10.6 6.3-16.4 8.2.6.7 1.2 1.4 1.8 2 5.7-1.3-.6-.6 0 0z"/><g fill-rule="evenodd" clip-rule="evenodd" fill="#6D2F2F" stroke="#FFB8B8" stroke-width=".75" stroke-miterlimit="10"><path d="M-27.7 22.8c-.6-3.9-1.9-7.7-4.8-10.6-.2 2.2-.1 4.6.9 6.6.5 1 1.2 1.8 1.9 2.5.1.1 1.9 1.5 2 1.5zM-25.3 15c-.9-1.8-2.3-3.6-3.8-4.9 0 2.2.4 4.6 1.5 6.6.2.5 3.5 4.8 3.9 4.4-.3-2.2-.7-4.2-1.6-6.1-.7-1.3.6 1.2 0 0zM-21.4 13c-1-1.9-2.5-3.5-4.2-4.8.1 2.2.8 4.5 1.9 6.4.6 1 1.2 1.9 2 2.8.2.2 1.4 1.7 1.7 1.7 0 0-.2-2.3-.2-2.4-.2-1.3-.6-2.5-1.2-3.7-.6-1.2.7 1.2 0 0zM-16.2 15.1c-.3-3.6-2.5-6.4-5.6-8.2.3 2 1.1 4.1 2.1 5.9.6.9 1.2 1.8 1.9 2.7.2.2 1.2 1.6 1.6 1.6v-2c-.1-1.5 0 1.3 0 0z"/></g><path fill-rule="evenodd" clip-rule="evenodd" fill="#D62121" d="M-27 23.9c-.1.5-.3 1-.4 1.4.7.2 1.3.4 2 .7.1-.2.5-1.4.4-1.5l-2-.6zM-23 22.3l-.4 1.3c-.2.7 1.1.8 1.7 1.1.1-.3.6-1.5.4-1.7 0-.4-1.3-.6-1.7-.7zM-19.9 22.3c.5.2 1.1.4 1.6.7.1-.4.7-1.8.4-1.9l-1.5-.6c-.1.5-.3 1.2-.5 1.8zM-15 20.8c.1-.3.7-2 .6-2l-1.4-.5c-.1.4-.9 1.9-.5 2 .5.2.9.4 1.3.5z"/><path fill-rule="evenodd" clip-rule="evenodd" fill="#BD1D1D" stroke="#661010" stroke-miterlimit="10" d="M-8.1 41.3c-.5-1.8-2.7-2.5-4.3-3.1-.8-.3-1.7-.8-2.7-.8-.6 0-2 .5-2.6.1-.6-.2-1.3-.8-1.9-1.3l-.5-.4c-.8-.6-1.7-1.2-2.4-1.9-1.7-1.5-3-3.3-4.1-5.3v-.1s0-.1-.1-.1v-.1c-.3-.4-.6-.8-1-1.1-.7-.6-1.5-1.2-2.2-1.7-1.5-1.2-2.4-2.9-3.3-4.5-.8-1.4-1.5-2.9-1.8-4.5-.4-1.8.1-3.1 1-4.6l.2-.3c.5-1 .4-1.9.2-3.1-.3-1.7 0-3.5.4-5.2l.7-3.1h-7.5v18.3c.3.8.7 1.5 1.1 2.2.8 1.7 1.8 3.3 2.9 4.8 1 1.4 2 3 3.4 4 1.5 1.1 3.2 1.8 4.6 3.1 1.8 1.6 3.4 3 5.6 4.1 4.4 1.9 9.1 4.9 14.3 4.6z"/><path fill="#661010" d="M-37.9.5c-.3 0-.6.1-1 .1.4 3.4.7 6.9 1.7 10.2.5 1.6 1.1 3.2 1.7 4.8.2.7.5 1.5.6 2.3.1.5.6.2 1 .1-.5-2.8-1.9-5.4-2.6-8.1-.7-3.1-1-6.2-1.4-9.4z"/><path fill-rule="evenodd" clip-rule="evenodd" fill="#D62121" stroke="#000" stroke-width=".75" stroke-miterlimit="10" d="M18.7.2c-2.3.9-4.4 2.2-6.2 3.8-1 .9-1.9 1.9-2.8 3-.6.8-.5.9-.2 1.7.3.8.6 1.5 1 2.3 2.3 5.3 5.2 10.4 8.6 15.1 2.2-1.2 4.2-2.9 5.9-4.8.9-1 1.7-2.2 2.4-3.3.5-.7.5-.9.2-1.7-.2-.8-.5-1.5-.8-2.2-1.8-5.1-4.5-9.9-8.1-13.9-3.7 1.5 4.2 4.7 0 0z"/><path fill-rule="evenodd" clip-rule="evenodd" fill="#F2EB03" stroke="#877F17" stroke-width=".4" stroke-miterlimit="10" d="M18.8 26.1c-4.1-5.5-7.3-11.5-9.7-17.9-.6.8-1.1 1.6-1.6 2.4.3 1.1.7 2.1 1.1 3.2.7 1.9 1.5 3.7 2.4 5.4.9 1.7 1.9 3.3 3 4.9.6.8 1.2 1.6 1.9 2.4.4.5.4.7 1.1.4.6-.2 1.2-.5 1.8-.8-3.9-5.3-.7.3 0 0z"/><g fill-rule="evenodd" clip-rule="evenodd" fill="#6D2F2F" stroke="#FFB8B8" stroke-width=".75" stroke-miterlimit="10"><path d="M14.6 4.9c-1 .8-1.8 1.9-2.4 3-.1.2-1.2 2.3-1.1 2.4 3.8-1.4 6.9-3.9 9-7.4-1.9.1-3.9.8-5.5 2zM18.6 11.8c1.6-1.5 3-3.4 4-5.3-2.3.4-4.6 1.5-6.2 3.2-.9.9-1.6 1.9-2.2 3-.1.1-.8 2-1 2 0-.1 2-.7 2.1-.8 1.2-.5 2.3-1.2 3.3-2.1 1-.9-1.1 1 0 0zM23 11c-3.6 1.6-5.7 4.5-7.5 7.8 0-.1 2-.6 2.2-.7 1.1-.4 2-1 2.9-1.8 1.8-1.6 3.2-3.9 4.1-6.1-.6.3-1.1.6-1.7.8-1.3.6.7-.3 0 0zM19.7 22.5c3.7-1.1 5.7-4.5 6.8-8-3.9 1.5-6.5 4.8-8.5 8.3-.1 0 1.6-.3 1.7-.3 1.4-.4-1.2.2 0 0z"/></g><path fill-rule="evenodd" clip-rule="evenodd" fill="#D62121" d="M10.2 11.4l-1.4-.3-.3 2c-.1.8.6.6 1.3.7.2-.8.3-1.6.4-2.4zM12.3 15.9l-1.6-.3-.4 2.3 1.6.2c.1-.8.2-1.5.4-2.2zM12.3 21.5l1.8.3.3-2c0-.1-1.5-.3-1.7-.4-.2.7-.3 1.4-.4 2.1zM16.8 23.6c-.6-.2-1.2-.3-1.9-.4-.1.3-.5 1.5-.3 1.7.2.3 1.6.4 1.9.4.1-.5.2-1.1.3-1.7z"/><path fill-rule="evenodd" clip-rule="evenodd" fill="#F2EB03" stroke="#000" stroke-width=".5" stroke-miterlimit="10" d="M9.2 20.6c-8.2-.7-16.6-.6-24.8.2l.2 2c0 .4 0 1.7.2 2 4-.4 8-.6 12-.7 4 0 8 .1 12 .5.2-.3.1-1.6.2-2 .1-.7.2-1.3.2-2z"/><g fill-rule="evenodd" clip-rule="evenodd" fill="#D62121"><path d="M-4.5 21.1l-3 .1c0 .4 0 .9.1 1.3v.7c0 .1 1.3 0 1.5 0 .8 0 1.5.3 1.5-.6-.1-.5-.1-1-.1-1.5zM-10.2 21.4l-2.5.2c-.7.1-.4.2-.4.8.1 1-.2 1.3.8 1.2.4 0 2 .1 2.2-.2.3-.2 0-1.7-.1-2zM1.1 21.1c-1 0-2 0-3-.1v1.8c0 .7 2.3.4 2.9.4.1-.7.1-1.4.1-2.1zM6.8 21.5l-3-.2-.1 2.1c1 0 1.9.1 2.9.2l.2-2.1z"/></g><path fill-rule="evenodd" clip-rule="evenodd" fill="#F2EB03" d="M-3.9 18.6c0-1.2-1.8-1.2-1.8 0s1.8 1.2 1.8 0zM-3.9 14.9c0-1.2-1.8-1.2-1.8 0s1.8 1.2 1.8 0zM-4.1 10.9c0-1.2-1.8-1.2-1.8 0s1.8 1.2 1.8 0zM4.7 10.6c0-1.2-1.8-1.2-1.8 0s1.8 1.2 1.8 0zM4.8 15.2c0-1.2-1.8-1.2-1.8 0s1.8 1.2 1.8 0zM4.6 18.9c0-1.2-1.8-1.2-1.8 0-.1 1.1 1.8 1.2 1.8 0z"/><path fill-rule="evenodd" clip-rule="evenodd" fill="#fff" stroke="#000" stroke-width=".5" stroke-miterlimit="10" d="M1.1 10.9l-1.7 1.5c-.1.1-1.5-1.2-1.7-1.3l1.8-1.5c.2-.1 1.4 1.1 1.6 1.3zm.1 4.3c-.3.3-1.3 1.4-1.7 1.4-.4 0-1.3-1.3-1.6-1.5.2-.2 1.4-1.4 1.5-1.3l1.8 1.4zm.7 3.9c0-.6-1.2-1.4-1.6-1.8.5-.4 2.2-1.4 2.2-2.1 0-.7-1.8-1.7-2.3-2.1.6-.5 1.7-1.2 2-1.8.7-.6-1.4-2-1.8-2.3.4-.3 2.9-2 1.9-2.5-.7-.3-2.4 2-2.6 1.8-.4-.4-2.3-2.6-2.9-2-.6.6 1.8 2.3 2.2 2.6-.6.5-1.9 1.2-2.2 1.8-.7.6 1.6 2.1 2 2.4-.4.3-2.4 1.8-1.8 2.3.3.7 1.4 1.3 1.9 1.8l-1.6 1.4c-.5.4.1 1.2.6.8.3-.1.6-.5.8-.7.6-.5.8-1 1.4-.5 0 .3 1.8 2.3 1.8.9z"/><path d="M-2.5 19.7v-2.2c0-2.6 0-5.2-.1-7.8 0-3.2-.1-6.4-.1-9.7h-1c.1 6.7.1 13.4.2 20.2.7-.1 1 .2 1-.5z"/><g fill-rule="evenodd" clip-rule="evenodd" fill="#F9DE29" stroke="#000" stroke-width=".75" stroke-miterlimit="10"><path d="M-2.2 0h-6.7c-.5.9-.9 2-1.2 2.8-1.7 3.5-3.4 6.9-4.6 10.7-1.1 3.2-2.1 6.3-3.3 9.5l-2.1 5.4c-.7 1.6-.9 3.6-1.2 5.6-.4 2.6.7 4 2.9 5.3 1.1.7 3.9 2.5 4.3.4v-.2c.2-1.3.2-2.6.2-3.9 0-1.9.2-3.7.5-5.5.6-3.7 2-6.9 3.8-10.2 1.1-1.9 2-3.8 3-5.7 1.5-3 3.1-5.8 3.6-9.1.3-1.1 1-3.5.8-5.1zM13.4 29.6c0-1-.1-2.1-.2-3.1-.2-2.3-.4-4.6-.8-6.8-.6-4.2-1.9-8.1-2.7-12.2-.3-1.5-.4-3-1-4.4-.2-.7-.5-1.3-.4-2 0-.4.2-.7.3-.9h-6.5c.2 1 .7 2.1 1 3 .6 1.6 1.1 3.1 1.3 4.8.5 3.5.2 7.1.5 10.6.3 3.2 1.3 6.1 1.3 9.4 0 2.2 0 4.9-.5 7.1-.3 1-.3 1.8-.3 2.8 0 .7 2.1-.5 2.5-.6h.2c1.3-.4 2.5-1 3.6-1.8l1.7-.9c.3-.4.2-1.7.3-2.3 0-1.1-.3-1.9-.3-2.7z"/></g><path fill-rule="evenodd" clip-rule="evenodd" fill="#30802F" stroke="#003618" stroke-miterlimit="10" d="M8.9 45.8c-1.8.4-2.1 1.8-2.8 3.2-.7 1.4-2.3 2.4-3.4 3.5-2.3 2.7-6.2 3-9.6 2.1-1.5-.4-2.8-1.1-3.9-2.2-1.4-1.2-2.6-3-4.4-3.7-4.2-1.7-5.1 5-3.9 7.6.6 1.2.3 2.6.4 3.9.2 1.9 1.7 2.4 3.3 2.9 1 .3 1.7 1 2.4 1.8h16.6l.3-.2c2.2-1.8 5.6-2.3 7.3-4.5.8-1 .6-2.5.7-3.6.1-1.5 1.2-2.3 1.6-3.7v-.1.1c.5-2.3-1.6-7.7-4.6-7.1z"/><path fill-rule="evenodd" clip-rule="evenodd" fill="#EDCFC1" stroke="#000" stroke-width=".5" stroke-miterlimit="10" d="M3 54.4c1.5-.1 2.3-.8 2.4-2.3 0-.7.1-1.4.2-2.1.2-.8-.2-1.4-.3-2.1-.1-1.1.9-2.9 1.4-3.9.2-.5.8-1.3.2-1.7-.3-.1-.6-.1-.9-.3-.4-.2-.3-1-.3-1.4l-.7-1.8c-.2-.6-.1-1.3-.2-1.9-.3-1.8-2.8-.6-3.3-2.2-.5-1.5-.9-3.1-1.2-4.7-.2-1.2-.8-3.3-1.8-4.1-.4-.3-.8 1.1-1 1.3-.4.5-.8 1.1-1.2 1.5-.6.5-1.3.8-1.7 1.4-.5.7-1 1.5-1.6 2.1-2 2.2-2 5.3-1.7 8 .2 1.8-.3 3.2-.9 4.8-.5 1.3-1.1 2.7-.6 4.2.4 1.4 1.7 2.1 3 2.6 1.8.7 3.6 1.5 5.5 2 1.5.3 3.1.7 4.7.6 1.4-.1-.6 0 0 0z"/><g fill-rule="evenodd" clip-rule="evenodd" fill="#fff" stroke="#000" stroke-width=".5" stroke-miterlimit="10"><path d="M-6.3 27.5c-1-.3-1.9-.5-2.9-.6-.6-.1-2.2-.4-2.7.1-.4.4-.4 1.3-.5 1.9l-.6 2.3c-.5 2-.6 4-.7 6 0 .9-.1 1.7-.2 2.6-.1.7.3.7.8.9 1 .3 3.9 2.2 4.4.3.4-1.7.8-3.2 1.5-4.8.7-1.9 1.4-3.7 2.7-5.3 1-1.1 2.4-2.7 2.4-4.3-.8 1.6-2.6 1.3-4.2.9-1.4-.5 1.1.2 0 0zM5 34.8c.7-.2.7-3.3.8-4 .1-1.2.2-2.7-.2-3.9-1.1.4-2.4.1-3.6.2-.7 0-1.3.1-2-.2-.6-.3-.9-.9-1.5-1.1.4 2.5 1.5 4.7 2.2 7.1.2.6.3 1.2.4 1.8.1.7.8.4 1.2.3.9 0 1.9.1 2.7-.2.2 0 0 .1 0 0z"/></g><g fill-rule="evenodd" clip-rule="evenodd" fill="#B18905" stroke="#635A00" stroke-width=".5" stroke-miterlimit="10"><path d="M-1.2 58c1-.4 2.2-1.5 2.3-2.6 0-1.4-1.7-2.4-2.5-3.3-1.8-2-2.5-5.1-2.6-7.7 0-.9 1-3-.5-3-1.6 0-1.2 2.4-1.3 3.4-.1 1-.3 2.4-1.6 2.5-1.3.1-1.5-2.1-1.4-2.9.1-.7 1.5-2.3.1-2.6-1.1-.2-1.9 1.4-2.9 1.6-1.5.4-.5 1.3-.7 2.4-.4 1.5-.4 2.3.3 3.7 1 2.1.2 5.5 2.4 6.9 1.1.7 2.4 1 3.6 1.3 1.5.4 3.2 1 4.8.3 1-.4-.9.4 0 0zM3.6 39.1c-.9-.1-2.3-.2-2.8.7-.4.6-.3 1.1-1.2 1.1.7.8 1.1 0 1.7-.4.9-.5 1.8.2 2.5.5.7.4 1.6.7 2.4.4.4-.2.6-1.5 1-.1.6-.8-.1-1.7-.9-1.8-1 .1-1.8-.2-2.7-.4-.5-.1.2 0 0 0zM3.3 36.2l1.2.6c.9.6.6-.9.6-1.4 0-.4 1.2-4.4-.4-3.6-.7.4-1.2 1.2-1.8 1.6-.8.5-1.7 1-2.6 1.4-.7.3-1.5.5-2.2.9-.7.3-1.3.9-2 1.1 1.2 0 2.2-.7 3.3-.9 1.2-.2 2.8-.2 3.9.3z"/></g><path d="M4.5 41.8c-1.1 0-1 2-.2 1.7l-.2-.4.2-.7c.3-.3 1.2.2 1.6.2.2-.7-.9-.8-1.4-.8zM3.8 49c-.8.4-1.7.7-2.6.8-.7 0-1.7-.8-2-.2 1.4 1.2 3.4.5 4.8-.1 0-.2-.1-.4-.2-.5z"/><path fill-rule="evenodd" clip-rule="evenodd" fill="#009AEF" stroke="#000" stroke-width=".5" stroke-miterlimit="10" d="M2.7 47.2c0-1-.8-1-.8 0-.1 1 .8 1 .8 0z"/><path d="M-1 46.9c-.2.7.7.5 1.2.7.8.3 1.3.7 2.2.7v.1c-.6.1-1.3-.1-1.8-.4-.4-.2-.7-.5-.8.1.7.4 2 1.1 2.8.6.2-.1.2-.3.2-.5l.9-.1c.1-.7-.6-.4-1.1-.4-1.2.1-2.3-.8-3.6-.8z"/><path fill-rule="evenodd" clip-rule="evenodd" fill="#F9DE29" stroke="#918E10" stroke-width=".5" stroke-miterlimit="10" d="M1.3 54c-1 .1-2.1.2-3.1.2-.5 0-1.5-.3-1.5.3v2.1c1 0 2 0 3-.1 1.5-.1 3.2-.2 4.7-.7.4-.1 1.6-.5 1.7-1 0-.4-.4-1.9 0-2.2-1.3 1.1-3.2 1.2-4.8 1.4-1.6.1 1.2-.2 0 0z"/><path fill-rule="evenodd" clip-rule="evenodd" fill="#fff" stroke="#000" stroke-width=".5" stroke-miterlimit="10" d="M-15 45.5c-1-.6-1.7-1.5-2.1-2.6-.7 1 1.4 2.3 2.1 2.6-.7-.2-2.9-1.6-2.1-2.6.4.8.9 1.7 1.6 2.2.4.3 2.1 1 1.8-.1-.4-1.6-1.7-3.8-3.5-3.6-2 .2-3.6 1-4.2 3.1-.3 1.3.3 2.5 1.1 3.5.5.6 1.2 1.8 1.9 2-.3-1-1.3-1.7-2.2-2.2.8.5 1.9 1.3 2.2 2.2-1.1-.3-1.8-2-2.7-2.6.4.2.2 2.4.3 2.9.2.9 1 3.3 2.3 3.1-.2-.9-1.5-1.9-2.1-2.6.6.7 1.9 1.7 2.1 2.6-1.3.2-1.8-2.3-2.4-3-.4 1.2-.2 2.6.2 3.7.2.4 1.3 2.2 1.8 2.2-.8 0-1.2-.8-1.7-1.2.1.7-.2 1.5.2 2.2.4.8 1.3 1.4 2 1.9.6.4.7 1 .9 1.6.3 1 1.2 1.4 2.2 1.5 1.2.1 2.3.3 3.4.5.8.1 1.5.6 2.2.7.9.1 1.7-.3 2.6 0-.1.2-.4.3-.5.6 1 .3 2 0 3-.3.5-.2 2.2-.3 2.6-.7-.3.3-.6.5-.9.6.7-.4 2.3-.3 3.1-.4 1.3-.4 2.1-1.2 2.3-2.6 0-.6.1-1.3-.2-1.8-.2-.4-.7-.7-.9-1.2-.7-1.3-.8-2.9-2-3.8-1.3-.9-3.1-.6-4.4-.5-.8 0-3 .6-3.5-.2-.7-1.1-.5-2.1-1.6-3.1-.3-.3-3-1.2-3.3-1 1.7-1.6-.3-2.8-1.6-3.6-.3-.3.2.1 0 0z"/><path d="M-19.5 48.3c-.6.4.7 1.4 1 1.9l2.2 4c1.1 1.8 3 2.9 4.6 4.2l-1.8.1c2.2 1.3 4.8 1 7.1 1.8-.5.3-1.2.8-.1.8 1 0 2 0 2.9-.2.7-.1 4.6-.9 3.8-1.9-.9.4-1.7 1-2.7 1.3-1.1.2-2.3.3-3.4.3l.6-.3c-1.7-.9-3.6-1-5.5-1.3.4-.6-1.2-1.5-1.7-1.9-.9-.8-2-1.2-2.8-2.2-1.6-2.1-2.2-4.9-4.2-6.6zm8.6 10.6h-.2.2z"/><path fill="#003618" d="M7.3 51.2c-.6.1-.9-.1-.9.5 0 1.3-.5 2.6-1.2 3.7-.5.7-1.2 1.4-2 1.6-.8.2-.6.2-.7 1 3.2.1 5.1-4.1 4.8-6.8z"/><g fill-rule="evenodd" clip-rule="evenodd" stroke-miterlimit="10"><path fill="#30802F" stroke="#003618" stroke-width=".5" d="M28.5 0h-13.5c1 1.9 3.8 3.9 5 4.5 2.8 1.5 6.8-.9 8.1-3.6.1-.2.3-.5.4-.9z"/><path fill="#fff" stroke="#000" stroke-width=".5" d="M28.9 0h-1c-.1.3-.2.6-.5.8-.5.3-.7-.2-.9-.8h-1.3v.5c0 .8-1 1.2-1.4.4-.1-.2-.2-.5-.4-.9h-1.4c0 .5.3 1.2.2 1.6-.3 1.2-1.2-.2-1.4-.7-.2-.3-.5-.7-.9-.9-.2-.1-.3-.1-.4 0-.1.1-.2.3-.2.7 0 .4.8 2.3-.4 2-.4-.1-2-2.5-2.5-.9-.1.5 1.2 1.9 1.6 2.5 0 0 0 .1.1.1 0-.2 5.2-1.8 5.4-1.8 1.4-.3 2.7-.5 4.1-.6.2 0 1.2.1 1.2-.3-.1-.7 0-1.2.1-1.7z"/><path fill="#DBC73D" stroke="#968400" stroke-width=".75" d="M22.2 21.5c.1 1.2.3 2.2 1.2 3.1.8.7 1.5 1.5 2.2 2.3.8.8 1.7 1.8 2.8 2.1 1.3.4 1.5-1.4 1-2.2.8-.4 2.1-.1 2.6-.9.2-.4 0-1.1 0-1.5 0-.7.1-1.4.1-2.2.1-1.4 0-2.7 0-4.1 0-1.2.2-2.5-.5-3.6-.6-.9-1.7-1.6-2.7-2.1-1.1-.5-.5-2.7-.6-3.8-.1-2.3-.2-4.5.2-6.8-3.6.2-7.2.9-10.5 2.5 1.4 2.5 3.1 5.2 4 8 .5 1.7.2 3.6.1 5.4-.1 1.2 0 2.5.1 3.8.1.8 0-.4 0 0z"/></g><path fill-rule="evenodd" clip-rule="evenodd" fill="#29ABE2" stroke="#000" stroke-width=".5" stroke-miterlimit="10" d="M31.3 35.7l-6.6-35.7h-2.5c2.2 11.9 4.4 23.8 6.6 35.8v.2c.9-.1 1.7-.2 2.5-.3z"/><path fill-rule="evenodd" clip-rule="evenodd" fill="#C2D7E7" stroke="#256B8E" stroke-width=".5" stroke-miterlimit="10" d="M26.3 46.1c.9-1.2 1.9-2 3.5-2 .9-.2.7-2.3.7-2.9 0-1.2-1.5-.6-2.3-.6-1.5 0-3-.7-4-1.7-.3-.3-.6-1-1-.7-.4.3-.4 1.1-.4 1.5-.1 1.3-.1 2.7 0 4 .1 1.4.4 3.2 1.3 4.3 1 1.3 1.8-1.1 2.2-1.9.4-.6-.3.5 0 0zM26.6 56.3l-.2-1.8c-.1-.8-1.2-1.6-1.7-2.2-1.6-2.2-2.6-4.8-3.1-7.5-.5-2.8-.5-5.7.2-8.4.3-1.3.8-2.6 1.4-3.9.1-.3.3-.6.4-.8-.2-.5-.4-.9-.5-1.4-.2-.6-.3-1.3-.3-2-5.6 9.1-4 20.9 3.8 28z"/><path fill-rule="evenodd" clip-rule="evenodd" fill="#93A2AA" stroke="#256B8E" stroke-width=".5" stroke-miterlimit="10" d="M26.6 49.8c-1.1-1.9-1.7-4.1-2.1-6.2-.4-2.1-.4-4.2 0-6.3.1-.7 1-2.3.6-2.8-.7-.8-1.1-1.7-1.5-2.7-3.8 7-2.9 16.8 2.8 22.5-.2-2.4-.2-3.1.2-4.5zM33.9 49.1l.3-2.3c.1-.6.5-1.4.2-2-1.3-2.7-2.5-5.6-3.4-8.4-.2-.5-.2-.5-.7-.3-.2 0 .1 1.6.2 1.8l.9 5.2c.7 3.6 1.4 7.1 2.2 10.7 0-1.4.1-3.2.3-4.7z"/><path fill-rule="evenodd" clip-rule="evenodd" fill="#C2D7E7" stroke="#256B8E" stroke-width=".5" stroke-miterlimit="10" d="M31.6 44l-1-5.2-.5-2.7c-1 .2-.9.1-.9 1.2.1 1.5 0 3-.1 4.5-.1 1-.1 1.9-.3 2.9-.1.5-.1 1-.2 1.6.3.4.6.9.8 1.3 1.5 2.3 3.6 5 4.1 7.8.2-.6-1.2-7.6-1.9-11.4z"/><path fill-rule="evenodd" clip-rule="evenodd" fill="#F9DE29" stroke="#C1BC00" stroke-width=".75" stroke-miterlimit="10" d="M29.1 35.6l-1 .9c1 .4 1.3.5 2.3.3 1.2-.2 1.4-.4 2.3-1.2-.4-.2-1-.6-1.4-.5-.8.2-1.5.4-2.2.5z"/><path fill-rule="evenodd" clip-rule="evenodd" fill="#DBC73D" stroke="#968400" stroke-width=".75" stroke-miterlimit="10" d="M32.9 16.9c.5-1.3-2.7-1.7-3.3-1.9-.8-.2-1.6-.4-2.4-.5-.3-.1-.6-.3-.7.1-.2.5 0 1 .2 1.4-.9-.6-.5 1.6 0 2-1.1.2-.5 1.5.1 1.9 1 .7.8.6.8 1.9 0 1 3.4 2.8 2.7 3.6-.1-.2-.2-.4-.2-.6-.1 1.8 1.1 1.6 2.1.7 1.6-1.5-.5-1.9-.8-3.3.5.3 1.4.3 1.8-.2.4-.7-.4-1.4-.5-2.1 1.4.1.5-2.4-.4-2.6.2 0 .5-.1.6-.4z"/><path fill="#968400" d="M25.6 21.5h-.7c0 1.5.8 2.5 1.5 3.7.3.6.6 1.3.5 2-.1.8-.3.6.4 1.1 1.4-2.4-1.6-4.5-1.7-6.8z"/><g fill-rule="evenodd" clip-rule="evenodd" fill="#877F17"><path d="M-20.9 36.2c1.3 1.6 1.4-2.1 1.6-2.7-1.3-1.6-1.6 2.1-1.6 2.7.4.6 0-.9 0 0zM-15.6 33.2c.1.8.8.9 1.2.4.4-.5.3-1.3.1-1.9-.1-.7-.8-.9-1.2-.4-.5.5-.4 1.3-.1 1.9 0 .4-.5-1.1 0 0zM-18.9 28.7c-.2 1.3 1.2-.5 1.3-.9.1-.4 0-.8-.5-.7-.6.4-.9 1-.8 1.6 0 .4-.1-.7 0 0zM-10.8 19.2c-.3.6 1.2.1 1.4-.1 0-.1-1.1-.5-1.4.1zM-15.7 16.9c0 .1-.1.2 0 .2.1.1 1.6-1.6 1.7-1.9.2-.5-.5-.1-.6 0-.6.5-.9 1-1.1 1.7-.2.5.2-.8 0 0zM-13.7 11.9c-.2.4 1.9.1 1.8-.7-.1-1.4-1.6.4-1.8.7zM-7.3 12.6c-.1.1-.2.3-.2.4.3.2 1.8-1.6 1.9-1.9.1-.3-.4-.1-.5-.1-.6.5-1 1-1.2 1.6-.3.4.2-.6 0 0zM-5.1 7c-.2.7 1.1.3 1.3-.3.3-.7-1.1-.3-1.3.3-.1.3.2-.5 0 0zM-10.5 6s-.3.4-.1.5c.4.1 2-1.3 2.1-1.6.2-.3-.5-.2-.6-.2-.6.2-1.1.7-1.4 1.3zM-16.2 39.7c-.2.9 2.2-.7 1.7-1.6-.8-1.2-1.8.9-1.7 1.6 0 .4-.1-.9 0 0zM-17.5 24c-.1.9 1.4-.7 1.5-.9.4-.6.7-1.4 0-2-1.2-.9-1.3 2.3-1.5 2.9 0 .3.1-.1 0 0zM-13.2 23c-.3.8.7.3.9.1.5-.4 1.2-1.1 1.1-1.8-.1-.9-1-.5-1.4-.2-.5.5-.6 1.2-.6 1.9-.2.4 0-1.3 0 0zM-9.9 17.2c.4-.3 1-.1 1.5-.4.1-.1 1-1 .8-1.1-.3-.2-2 1.3-2.3 1.5zM7.3 35.3c.5-.5-.2-3.5-1.1-2.8-.4.5-.1 4 1.1 2.8zM12.1 32.4c.2-.5.6-1.1.6-1.7 0-.2 0-.8-.3-.4-.3.6-.5 1.2-.7 1.8-.3 1.1 0 1.3.4.3zM6.9 30.1c.1.3.8.7.6.1l-.1-1.4c-.1-.5-.4-.7-.7-.2-.5.5-.1.9.2 1.5zM11.6 27.9c.3 1 1.9-.6 1.2-1.3-.3-.3-1-.3-1.4 0-.4.3 0 1 .2 1.3.1.3-.6-.9 0 0zM7.7 25.7c-.1.2-.1.3.1.3.7-.2 2.1-2.9.9-3-1.5-.1-.8 1.9-1 2.7zM10.9 21.8c.3-.2.8.1 1-.3.2-.4 0-.9-.1-1.2-.3-1-.8 1.3-.9 1.5.1 0 .1-.1 0 0zM7.1 19.8c.6.9 1.7-1 .8-1.6-.4-.3-1-.2-1.3.2-.4.4.2 1.1.5 1.4.2.3-.9-.9 0 0zM9.8 15.2c0 .8 2-.7 1.3-1.5-.3-.3-1-.3-1.3-.1-.4.4 0 1.2 0 1.6zM5.6 13.7s.7-1.6.7-2c.1-.5.5-1.9 0-2.3-1.3-1.1-.8 4-.7 4.3 0 .2-.2-.9 0 0zM9.3 11.7c0-.2 1.1-3.3.1-3.1-.4 0-.1 2.6-.1 3.1zM6.4 8.2c.5-.7.3-2-.4-2.6-.7-.8-.4.5-.3.8.1.6.2 1.4.7 1.8zM7.5 5.1c.9 1.4.9-1.4.5-1.7-.3-.3-.7-.1-.9.2-.3.5.1 1.1.4 1.5.4.7-.5-.8 0 0zM3.3 1.6c.4 1.3 1-.7.8-1.3-.4-1.3-1 .7-.8 1.3.2.6-.1-.5 0 0zM9.4 34.9c-.4.2-.8.4-1.1.7-.4.5-.1 1.1.5 1.1.8 0 1.4-2.3.6-1.8zM-4.8 5.2c.5.6 1.2.6 1.2-.2 0-.4.2-1.5 0-1.9-.5-.6-1.1-.7-1.1.1-.1.7-.1 1.3-.1 2zM-8 2.1s1.9-1 1.5-1.7c-.5-.9-1.5 1.5-1.5 1.7-.1.2.2-.6 0 0zM-11.2 10.1c-.2.5.6.7.9.5.6-.2 1-1 1.3-1.6.3-1-1.9 1-2.2 1.1zM-14.2 25.9c-1-1.3-1.7.8-1.2 1.6.1.3.9.4 1.1.1.2-.5.1-1.2.1-1.7-.4-.6 0 .4 0 0z"/></g></symbol><symbol id="d" viewBox="-2.8 -6 5.6 12"><path fill-rule="evenodd" clip-rule="evenodd" fill="#D52222" d="M1.1-1.3c-.1.3-.2.5-.4.6-.2.1-.6.2-1 .2h-.7v-3.8h.7c.5 0 .8.1 1 .3.2.2.3.4.4.7 0 .3.1.6.1 1 0 .5-.1.8-.1 1zm-.3 5.3c-.2.3-.6.4-1.2.4h-.6v-3.3h.8c.6 0 .9.1 1.1.4.2.3.3.7.3 1.3 0 .5-.1.9-.4 1.2zm1.9-2.5c-.1-.3-.3-.5-.4-.7l-.7-.5c.4-.2.7-.5.9-.8.2-.4.3-.9.3-1.5v-.7c0-1-.2-1.9-.8-2.4-.5-.6-1.3-.9-2.4-.9h-2.3v12h2.5c.7 0 1.3-.1 1.8-.4.5-.3.8-.7 1-1.1.1-.5.2-1 .2-1.5v-.5c0-.4-.1-.7-.1-1z"/></symbol><use xlink:href="#b" width="100" height="150" x="-50" y="-75" transform="matrix(1 0 0 -1 50 75)" overflow="visible"/><g><g><use xlink:href="#c" width="9.9" height="9.9" x="-4.9" y="-4.9" transform="matrix(-1 0 0 1 89 122)" overflow="visible"/><use xlink:href="#c" width="9.9" height="9.9" x="-4.9" y="-4.9" transform="matrix(-1 0 0 1 11 122)" overflow="visible"/><use xlink:href="#c" width="9.9" height="9.9" x="-4.9" y="-4.9" transform="matrix(1 0 0 -1 89 28)" overflow="visible"/><use xlink:href="#c" width="9.9" height="9.9" x="-4.9" y="-4.9" transform="matrix(1 0 0 -1 11 28)" overflow="visible"/><use xlink:href="#d" width="5.6" height="12" x="-2.8" y="-6" transform="matrix(-1 0 0 1 90 136)" overflow="visible"/><use xlink:href="#d" width="5.6" height="12" x="-2.8" y="-6" transform="matrix(-1 0 0 1 10 136)" overflow="visible"/><use xlink:href="#d" width="5.6" height="12" x="-2.8" y="-6" transform="matrix(1 0 0 -1 90 14)" overflow="visible"/><use xlink:href="#d" width="5.6" height="12" x="-2.8" y="-6" transform="matrix(1 0 0 -1 10 14)" overflow="visible"/><use xlink:href="#e" width="80.8" height="66" x="-40.5" y="-.5" transform="matrix(-1 0 0 1 50 75)" overflow="visible"/><use xlink:href="#e" width="80.8" height="66" x="-40.5" y="-.5" transform="matrix(1 0 0 -1 50 75)" overflow="visible"/><use xlink:href="#f" width="82" height="132" x="-41" y="-66" transform="matrix(1 0 0 -1 50 75)" overflow="visible"/><use xlink:href="#a" width="15.2" height="15.2" x="-7.6" y="-7.6" transform="matrix(-1 0 0 1 77 128)" overflow="visible"/><use xlink:href="#a" width="15.2" height="15.2" x="-7.6" y="-7.6" transform="matrix(1 0 0 -1 23 22)" overflow="visible"/></g></g></svg>
