<svg xmlns="http://www.w3.org/2000/svg" xmlns:xlink="http://www.w3.org/1999/xlink" width="100" height="170" viewBox="0 0 100 170"><symbol viewBox="-22.5 -21.4 44.9 42.9"><path fill="#008000" d="M1.9-18.1c-.7.6-1.3 1.2-1.9 2-.6-.8-1.3-1.5-2.1-2.1-.6-.5-1.3-.9-2.1-1.3-1.7-.9-3.5-1.3-5.5-1.3-3.4 0-6.3 1.2-8.7 3.6-2.4 2.4-3.6 5.4-3.6 8.8 0 4.7 2.5 9.7 7.5 14.8 6.7 5.9 11.5 10.7 14.5 14.3 3-3.6 7.8-8.4 14.4-14.3 5-5.1 7.6-10.1 7.6-14.8 0-3.4-1.2-6.4-3.6-8.8-2.4-2.4-5.4-3.6-8.8-3.6-1.9 0-3.7.4-5.4 1.3-.9.3-1.6.8-2.3 1.4z"/><path fill="#055905" d="M0 20.7v-36.9c.6-.7 1.2-1.4 1.9-1.9.7-.6 1.5-1 2.3-1.5 1.7-.9 3.5-1.3 5.4-1.3 3.4 0 6.4 1.2 8.8 3.6 2.4 2.4 3.6 5.4 3.6 8.8 0 4.7-2.5 9.7-7.6 14.8-6.6 6-11.4 10.8-14.4 14.4z"/><path stroke="#000" stroke-miterlimit="10" d="M1.9-18.1c-.7.6-1.3 1.2-1.9 2-.6-.8-1.3-1.5-2.1-2.1-.6-.5-1.3-.9-2.1-1.3-1.7-.9-3.5-1.3-5.5-1.3-3.4 0-6.3 1.2-8.7 3.6-2.4 2.4-3.6 5.4-3.6 8.8 0 4.7 2.5 9.7 7.5 14.8 6.7 5.9 11.5 10.7 14.5 14.3 3-3.6 7.8-8.4 14.4-14.3 5-5.1 7.6-10.1 7.6-14.8 0-3.4-1.2-6.4-3.6-8.8-2.4-2.4-5.4-3.6-8.8-3.6-1.9 0-3.7.4-5.4 1.3-.9.3-1.6.8-2.3 1.4z" fill="none"/></symbol><symbol id="c" viewBox="-14 -23.5 28 47"><path fill="#F2F200" d="M10 13c0 5.5-4.5 10-10 10s-10-4.5-10-10v-23h20v23z"/><path fill="#D63403" d="M10-10v23c0 5.5-4.5 10-10 10v-33h10z"/><path fill="#008000" d="M13.5-13.5c0-5.2-6-9.5-13.5-9.5s-13.5 4.3-13.5 9.5 6 5.5 13.5 5.5 13.5-.3 13.5-5.5z"/><path fill="#056605" d="M13.5-13.5c0 5.2-6 5.5-13.5 5.5v-15c7.5 0 13.5 4.3 13.5 9.5z"/><path fill="#4E5DC9" d="M-10-9h20v5h-20z"/><path fill="#384A89" d="M0-9h10v5h-10z"/><path stroke="#000" stroke-miterlimit="10" d="M10-8.9v21.9c0 5.5-4.5 10-10 10s-10-4.5-10-10v-21.9c-2.2-.8-3.5-2.1-3.5-4.6 0-5.2 6-9.5 13.5-9.5s13.5 4.3 13.5 9.5c0 2.5-1.3 3.8-3.5 4.6z" fill="none"/></symbol><symbol id="d" viewBox="-29.9 -9.5 29.9 19"><path fill="#F2F200" d="M-22.8-6.9c-1.8 0-3.6.7-4.9 2-1.3 1.3-2 3-2 4.9 0 3.8 3.1 6.9 6.9 6.9h13.6v-13.8h-13.6z"/><path fill="#D63403" d="M-9.2-6.9h-13.6c-3.8 0-6.9 3.1-6.9 6.9h20.5v-6.9z"/><path fill="#008000" d="M-6.8-9.3c3.6 0 6.5 4.2 6.5 9.3s-2.9 9.3-6.5 9.3-3.8-4.2-3.8-9.3.2-9.3 3.8-9.3z"/><path fill="#056605" d="M-6.8-9.3c-3.6 0-3.8 4.2-3.8 9.3h10.3c.1-5.1-2.9-9.3-6.5-9.3z"/><path fill="#4E5DC9" d="M-9.9 6.9v-13.8h-3.4v13.8z"/><path fill="#384A89" d="M-9.9 0v-6.9h-3.4v6.9z"/><path stroke="#000" stroke-width=".5" stroke-miterlimit="10" d="M-9.9-6.9h-12.9c-3.8 0-6.9 3.1-6.9 6.9s3.1 6.9 6.9 6.9h12.9c.5 1.5 1.4 2.4 3.1 2.4 3.6 0 6.5-4.2 6.5-9.3s-2.9-9.3-6.5-9.3c-1.7 0-2.6.9-3.1 2.4z" fill="none"/></symbol><symbol id="f" viewBox="-4.6 -9.3 9.2 18.7"><path fill="#F2F200" d="M3 5.8c0 1.7-1.4 3-3 3-1.7 0-3-1.4-3-3v-7h6v7z"/><path fill="#D63403" d="M3-1.2v7c0 1.7-1.4 3-3 3v-10h3z"/><path fill="#008000" d="M4.1-2.3c0-1.6-1.8-2.9-4.1-2.9s-4.1 1.3-4.1 2.9 1.8 1.7 4.1 1.7 4.1-.1 4.1-1.7z"/><path fill="#008000" d="M-2.4-8.8c-.2 0-.5.2-.6.4-.1.3 0 .7.4.8 2 .8 2 3.4 2 3.4 0 .3.3.6.6.6s.6-.3.6-.6c0-.1 0-3.5-2.8-4.5-.1-.1-.2-.1-.2-.1z"/><path fill="#056605" d="M4.1-2.3c0 1.6-1.8 1.7-4.1 1.7v-4.6c2.3 0 4.1 1.3 4.1 2.9z"/><path fill="#4E5DC9" d="M-3-.9h6v1.5h-6z"/><path fill="#384A89" d="M0-.9h3v1.5h-3z"/><path d="M0 8.8c1.7 0 3-1.4 3-3v-6.7c.7-.2 1.1-.6 1.1-1.4 0-1.5-1.6-2.7-3.6-2.9-.2-1.1-.8-2.9-2.7-3.6h-.2c-.2 0-.5.2-.6.4-.1.3 0 .7.4.8 1.2.4 1.7 1.6 1.9 2.5-1.9.2-3.4 1.4-3.4 2.8 0 .7.4 1.2 1.1 1.4v6.7c0 1.7 1.3 3 3 3m0 .5c-2 0-3.5-1.6-3.5-3.5v-6.4c-.9-.4-1.1-1.1-1.1-1.7 0-1.5 1.3-2.8 3.3-3.2-.3-.7-.7-1.4-1.5-1.7-.3-.1-.5-.3-.6-.6-.1-.3-.1-.6 0-.9.2-.4.6-.7 1-.7.1 0 .3 0 .4.1 2 .7 2.7 2.5 3 3.7 2.1.3 3.7 1.7 3.7 3.3 0 .6-.2 1.3-1.1 1.7v6.4c-.1 1.9-1.6 3.5-3.6 3.5z"/></symbol><symbol viewBox="-31.7 -33.4 63.5 66.3"><g><use xlink:href="#a" width="17.4" height="7.3" x="-1" y="-7.3" transform="matrix(-1 0 0 1 15.75 8.3)" overflow="visible"/><use xlink:href="#a" width="17.4" height="7.3" x="-1" y="-7.3" transform="matrix(-1 0 0 1 15.75 -4.102)" overflow="visible"/><use xlink:href="#a" width="17.4" height="7.3" x="-1" y="-7.3" transform="matrix(-1 0 0 1 15.75 -16.5)" overflow="visible"/><use xlink:href="#a" width="17.4" height="7.3" x="-1" y="-7.3" transform="translate(-15.65 8.3)" overflow="visible"/><use xlink:href="#a" width="17.4" height="7.3" x="-1" y="-7.3" transform="translate(-15.65 -4.102)" overflow="visible"/><use xlink:href="#a" width="17.4" height="7.3" x="-1" y="-7.3" transform="translate(-15.65 -16.5)" overflow="visible"/><use xlink:href="#b" width="2.8" height="55.2" x="-1.4" y="-27.6" transform="translate(0 -5.833)" overflow="visible"/><use xlink:href="#c" width="28" height="47" x="-14" y="-23.5" transform="matrix(0 -.466 .466 0 20.529 -4.306)" overflow="visible"/><use xlink:href="#c" width="28" height="47" x="-14" y="-23.5" transform="matrix(0 -.466 -.466 0 -20.529 -4.306)" overflow="visible"/><use xlink:href="#c" width="28" height="47" x="-14" y="-23.5" transform="matrix(0 -.466 .466 0 20.529 -17.226)" overflow="visible"/><use xlink:href="#c" width="28" height="47" x="-14" y="-23.5" transform="matrix(0 -.466 .466 0 20.529 7.854)" overflow="visible"/><use xlink:href="#c" width="28" height="47" x="-14" y="-23.5" transform="matrix(0 -.466 -.466 0 -20.529 -17.226)" overflow="visible"/><use xlink:href="#c" width="28" height="47" x="-14" y="-23.5" transform="matrix(0 -.466 -.466 0 -20.529 7.854)" overflow="visible"/><use xlink:href="#c" width="28" height="47" x="-14" y="-23.5" transform="matrix(-.466 0 0 .466 -.126 21.633)" overflow="visible"/></g></symbol><symbol id="h" viewBox="-43.2 -39.2 81.1 77.4"><path fill="#CC1B2C" d="M-35.6-38.5l.4 12.6 27 25.3 9.2-.3 28.6-37.6z"/><path fill="#00AFE9" stroke="#1F282C" stroke-width=".5" stroke-miterlimit="10" d="M-4.9-1.5c-2-1.3-2.7-31.5-2.9-33.3-.2-1.8 6.8-1.9 5.9.6-.9 2.6.4 30.7 1.5 32.4l-4.5.3z"/><path stroke="#1F282C" stroke-width=".25" stroke-miterlimit="10" d="M-2.8-1.2c-3-10.7-1.8-30.7-2-32.5" fill="none"/><path fill="#FADE64" stroke="#141414" stroke-width=".5" stroke-miterlimit="10" d="M6.6-38.6l-3.4 6.8c-2.9-1.1-16.8-1.1-24.2.4-.4-.8-2.4-7-2.4-7"/><path stroke="#141414" stroke-width=".25" stroke-miterlimit="10" d="M3.1-32.9c-4.8-.6-17.4-.6-21.7.4" fill="none"/><g><path stroke="#141414" stroke-width=".5" stroke-miterlimit="10" fill="none" d="M-16.2-35.3l2-1.5 2.8 1.4 2.6-1.7 2.5 1.5 2.8-1.4 2 1.2 3-1.3 2.5 1.5 1.5-1"/><path stroke="#141414" stroke-width=".25" stroke-miterlimit="10" fill="none" d="M4.7-35.1l-.7.5-2.5-1.5-3 1.3-2-1.2-2.8 1.4-2.5-1.5-2.6 1.7-2.8-1.4-2.2 1.6-.5-.2"/><path fill="#141414" d="M-4.8-38.5h-3l1.5 1zM-10.3-38.5h-3l1.5 1zM.2-38.5h-3l1.5 1zM5.6-38.5h-3l1.5 1z"/></g><path fill="#2E9952" stroke="#1F282C" stroke-width=".5" stroke-miterlimit="10" d="M-35.1-31.7c-.2-1.7-2.2-4.2-2.6-3.6-1.1 1.6-3.8 7.2-4.2 8.3-.5 1.2-.3 2.6-.3 3.9.1 1.2.1 2.4.6 3.5.7 1.5 1.8 2.9 2.8 4.2 1.2 1.6 2.5 2.9 4 4.2.9.8 2.3 2.9 3.5 3l1.5.1c1.5.2 3.1.4 4.4 1.3l2.8 2.4c2.3 1.7 4.7 3.2 7.1 4.9 1.2.9 2.5 1.4 3.8 2.1.9.5 1.5 1 2.5 1.2-.8-1.8.5-9.2-.4-11.3-1.4-3.4-6.9-13.2-7.4-15.2-.2-.8-1.6-4-2-4.9-.1-.3-.4-.8-.9-.8-.8 0-2.7 4.8-3.3 5.9-.8 1.3-2.5 2.7-4.1 2.4-1.3-.2-2.9-.9-3.8-1.9-.8-1.1-3.7-7.7-4-9.7zM1-4.4c7 2.7 9.3 7.9 9.3 11.2 3.5-3.6 4.8-3.7 6.9-4.8 2.5-1.4 5.4-2.9 6.8-5.5 1.3-2.5 2.1-5.2 3.3-7.7 2.5-5.3 7.6-11.2 10.4-20.1v-7.1h-7.7c-2 4-9.6 15.8-15.3 13.1-1.2-.6-4.1-1.1-5.3-.4-.7.4-8.5 20.2-8.4 21.3z"/><g stroke="#1F282C" stroke-width=".25" stroke-miterlimit="10" fill="none"><path d="M-21.9-11.7c.6-.8.8-1.8 1-2.8.1-.7.3-1.5.3-2.3.1-1.6 0-3.2-.2-4.7-.1-.8-.5-1.6-.8-2.3M-25-15.5c.7-.5 1.2-1.3 1.7-1.9.4-.5.6-1 .9-1.5.4-.9.7-1.9.5-3-.1-.7-.2-1.4-.5-2.1M-16.7-14.4c-1-1.6-1.8-3.2-2.4-5.1-.3-1-.5-2-.9-2.9-.1-.3-.2-.6-.2-.9M-31.4-8.1c.9 0 1.7.2 2.6.4.6.1 1.2.1 1.8 0 1.2 0 2.5.4 3.7.7.5.1.9.3 1.4.3M16.6-24c.9.5 1.3 1.7 2.1 2.4.9.7 2.3.9 3.2 1.5M15.8-24.5c.8 2.8 1.6 5.7 4.4 7.1M16.6-18c-1-2-1.7-4.3-1-6.5M10.6-17.3c1.1-2.8 2.6-5.3 4.2-7.8M-30-16.7c1.2.1 2.2 0 3.2-.5.9-.4 1.5-.9 2.2-1.7l1.2-2"/></g><path fill="#FADE64" stroke="#1F282C" stroke-width=".5" stroke-miterlimit="10" d="M-35.9-25.4c.2.5.4 1 .7 1.4 1.1 1.8 2.3 4.1 4.4 4.9 1.8.8 4.9 1.3 6.4-.3.5-.6 1.6-2.5 1.4-3.4-.5.3-.5 1.3-1.2 1.4-.4.1-.8-.1-1.3 0-.8.2-1.3.1-2-.1-1.3-.5-2.2-.6-3.1-1.7-1-1.2-2.1-2.5-2.8-4-.8-1.9-1.1-3.7-1.4-5.7-.2-1.7-.8-3.8-.9-5.6 0 0-1.8 2.6-2.1 3.2-1 1.9-.1 2.5.4 4.4.4 1.8.8 3.7 1.5 5.5z"/><g stroke="#1F282C" stroke-miterlimit="10"><path stroke-width=".25" fill="none" d="M-37.4-35.9h.8l-.4 1.2-.5 1.8 1.5.1-.6 2.7 1.8.7-.9 1.7 1.9 1.5-.6 1.9 2.2.8-.3 1.9 2.1.1.4 1.9 2.3-1 1.1 1.5 1.7-1.1.3.9"/><path fill="#FADE64" stroke-width=".5" d="M-14.2-14.4c1.5 2.6 2.7 5.2 3.9 7.9.3.6.8 1.2 1 1.8.3 1 .1.8-.7 1.3-.9.6-2 1.5-2.2 2.6-.2 1.2-.2 2.7.8 3.5.8.8 2.3 1.1 3.4 1.5-.7-2.7.3-4.4 2.9-5.5 1.3-.5 1.1-.8.5-2.1-.5-1-.9-2.1-1.3-3.2-.9-2.9-3-5.6-4.5-8.4-1.3-2.5-2.6-4.7-3.7-7.2-1.1-2.6-1.9-5.3-2.4-8.1-.2-1-.6-1.5-1.7-1.7-4.9-1 .8 11.2 1.5 12.7.8 1.7 1.6 3.3 2.5 4.9z"/><path stroke-width=".25" fill="none" d="M-18.9-30.3l.8.1-.8 2.8 2.2 2-.7 2.5 2.4 1.9-.4 2.5 2.5 1.1-.2 2.3 2.2 1.2-.4 2.5 2.3.9-.6 2.4 2.2 1-.3 2.3 1.8 2-2.6.5.3 1.9-2.1.3 1.4 2.1-1.6.1 1 1.7"/></g><g stroke="#1F282C" stroke-miterlimit="10"><path fill="#FADE64" stroke-width=".5" d="M6.9-15.7c-.2.5-.5 1.1-.7 1.7-.7 1.8-1.3 3.6-2 5.3-.4 1-1.2 2.2-.5 3.2.6 1 1.9 1 2.8 1.6 3.2 2.2 5.2 4.6 4.6 8.7-.1 1.4-.8 3.6-2.6 3.5-1.3 0-1.5-1.5-1.6-2.5-.1-1.4.5-2.6-.4-3.8-.7-1-2.1-2.1-3.1-2.7-1.5-.8-3.9-.6-4.5-2.5-.7-2 .7-4.8 1.4-6.6l2.9-7.5c.9-2.3 2.2-4.2 3.4-6.4.6-1.1 1.5-3.9 3-3.9.6 0 1.2.7 1.7 1 .8.4 1.7.4 2.4.6-.8 1.4-2.1 2.9-3.2 4.3-1.7 2-2.7 3.9-3.6 6z"/><path stroke-width=".25" fill="none" d="M9.5-25l.1 1.9-2.5 1 .2 2.5-2.5.8.7 2.5-2.2.8 2.3 3.5-3.9 1.6 1 2.4-1.8.9 1.1 1.7-1.7 2.1h4.2l.4 2.3 2.7-.8-.5 2.8h2.9l-1.7 3.3 2 1-1.5 1.6 1.3.6"/></g><g stroke="#1F282C" stroke-miterlimit="10"><path fill="#FADE64" stroke-width=".5" d="M21.7-24.1c-1.6.7-3.8.6-5.3.1-2.8-1.1.7-1.7 1.6-2.2 1.7-.9 2.5-2.6 3.8-4 1.3-1.5 6.1-8.3 6.1-8.3h5c0 1-5 7.7-5.8 8.6-1.7 1.8-2.6 4-4.8 5.5-.1.1-.3.2-.6.3z"/><path stroke-width=".25" fill="none" d="M18.1-23.7v-1.2l2.4.7-.5-2.2 2.5.5-.4-2.9h2.8l-.4-2.5 2.6-.3-.5-2 2.4-.3-.5-2.4 2.8-.5-.7-1.4"/></g><path fill="#E0CAA5" stroke="#141414" stroke-width=".5" stroke-miterlimit="10" d="M-19.3-32.2c1-.6 1.8-1.6 2.6-2.4.7-.7 2.5-3.9 2.5-3.9h-8.7c-1.6.5-3.1 2.4-2.5 4.1.7 1.7 2.5 2.5 4.2 2.7.7.1 1.3-.1 1.9-.5z"/><g stroke="#1F282C" stroke-miterlimit="10"><path fill="#FADE64" stroke-width=".5" d="M30.3 18.6c.2.4.4.9.7 1.3l.4.6c-.3-.1-.6-.6-.8-.9-.7-1-1.4-1.9-2.3-2.7l.2.4c.1.4.1 1-.1 1.4-.2.1-.4.3-.6.3-.4-1.1-1-2.1-1.7-3-.5-.7-1.2-1.6-.7-2.5-.4-.1-.7-.4-.6-.8 0-.1 0-.2.1-.3-.8-1-1.8-1.7-2.8-2.5-1-.9-1.9-1.9-2.7-3-.1-.1-.3-.6-.5-1-.1.6-.5 1.1-.9 1.2 0-.7.1-1.4-.2-2.1-.3-.7-1-1.2-1.5-1.8-.3-.5-.9-1.2-.8-1.8 0-.2.1-.3.1-.4-.1 0-.3.1-.5 0-.2 0-.4-.1-.6-.2v.1c-.5.3-2.1-1-2.4-1.3-1-.9-1.2-2.3-1.5-3.6-.1-.3-.2-.6-.4-.9v.3c0 .5-.3 1.8-.9 2 0-.4 0-.8-.1-1.2-.2-1.2-.6-2.3-1.4-3.1-.4-.4-.9-.7-1.3-1l-1.8-1.6c-.7-.5-1.3-1.3-1.7-2-.4-.7-.6-1.6-.3-2.4-.9 0-1.1-.7-.9-1.4h-.1c-1.1.1-1.6-1.1-2.1-1.8-.5-.6-.7-1.3-1-1.9-.3-.8-1-1.5-1.4-2.2-1-1.5-2-3.1-2.9-4.7 0-.1-.1-.2-.2-.4-.2.1-.5.1-.7.1-.7-.1-1.3-.5-1.6-1.2-.3-.6-.2-1.6 0-2.2h-.4c-.9-.1-1.6-.9-1.5-1.8s.9-1.6 1.8-1.5c.9.1 1.6.9 1.5 1.8 0 .2-.1.4-.1.5.7.2 1.4.5 1.7.7.6.4.9 1.1.8 1.8 0 .2-.1.5-.2.7.3.2.6.5.8.7.8.8 1.5 1.7 2.2 2.6.8 1 1.6 2.1 2.6 3 .9.9 2 1.5 2.8 2.5.4.4.4.9.2 1.4.3 0 .6 0 .8.2.4.3.4.8.3 1.2h.3c.3 0 .5.1.7.2 1.3.1 2 1.2 2.6 2.2l1 2.1c.3.5.7.9 1.1 1.3l.2.2.9 1.1c.8.8 1.9 1.4 3 1.5-.3.4-.4.6-.9.8-.4.2-.8.2-1.3.1l1.1.6c.8.5 1.5 1.1 2 1.9l.6.8c.1.2.2 1.2.3 1.2-.3-.2-.6-.3-.9-.3.2.1.2.2.2.3v.2c.4.3.7.8.6 1.3 0 .2-.1.3-.1.4l.6-.2h.3c1 .2 1.9 1.2 2.5 2 .3.4.6.9.9 1.2.2.2.9.8 1.2.6-.2.2-.5.4-.8.5h-.2c.8.8 1.4 2 1.9 2.9.3.6.6 1.2 1 1.9.4.9.9 1.7 1.4 2.6l.2.3h.2c.4 0 .7.4.7.8.3-.1.6-.2.9-.1.6.2.9.8 1.3 1.3.2.2.3.4.5.7l.6.8c.2.2.4.4.7.6.3.2.5.4.9.5-.3.6-1.3.5-1.7.3l-.2-.1v.1l.9 1.8z"/><g fill="#FADE64" stroke-width=".25"><path d="M-6.8-31.1c.1-.9-.6-1.7-1.5-1.8-.9-.1-1.7.6-1.8 1.5s.6 1.7 1.5 1.8c.9.1 1.7-.6 1.8-1.5zM3.7-18.5c-.8-1-1.9-1.6-2.8-2.5-1-.9-1.8-2-2.6-3-.7-.9-1.4-1.8-2.2-2.6-.4-.4-1.1-1.2-1.8-1.2-.9.1-.3 1.4 0 1.8.9 1.6 1.9 3.1 2.9 4.7.5.7 1.1 1.5 1.4 2.2.3.7.5 1.3 1 1.9.6.7 1 2 2.1 1.8 1.3 0 3.1-1.9 2-3.1zM-4.5-28c.1-1.1-.7-2.1-1.8-2.2-1.1-.1-2.1.7-2.2 1.8s.7 2.1 1.8 2.2c1.2.1 2.1-.7 2.2-1.8zM25.2 12.8c-.8-1.1-2-1.9-3-2.9-1-.9-1.9-1.9-2.7-3-.3-.4-1.8-3.3-.4-3.4 1.9 0 3 2.3 3.8 3.7.3.6.6 1.2 1 1.9.4.9.9 1.7 1.4 2.6.1.2.2.5.4.6M27.8 15.9c.1.2.2.4.2.6.1.2.3.5.3.7.1.4.1 1-.1 1.4 0 .2-.2.4-.4.4-.4-1.1-1-2.1-1.7-3-.5-.7-1.2-1.6-.7-2.5.4-.5 1.2-1 1.9-.8.6.2.9.8 1.3 1.3.2.2.3.4.5.7l.6.8c.2.2.4.4.7.6.3.2.5.4.9.5-.3.5-1.3.4-1.7.2-.4-.2-.8-.3-1-.7"/><path d="M26.4 12.9c0-.4-.3-.8-.7-.8-.4 0-.8.3-.8.7 0 .4.3.8.7.8.3 0 .7-.3.8-.7zM15 .2c-.9.5-2.2-1.4-2.6-2-.3-.6-1.1-2-.9-2.7.2-1.5 4.4 1.6 4.5 2.7 0 .4 0 1-.1 1.3-.2.5-.6.5-1.1.5"/><path d="M16.7-.2c.1-.8-.5-1.5-1.3-1.5-.8-.1-1.5.5-1.5 1.3-.1.7.4 1.4 1.2 1.4.8.1 1.5-.5 1.6-1.2zM26.1 14.2c0 .2 0 .3.1.5s.3.5.5.7c.5.6 1 1 1.6 1.5.9.8 1.6 1.7 2.3 2.7.2.3.4.7.8.9-.1-.2-.2-.4-.4-.6-.2-.4-.4-.8-.7-1.3l-.9-1.8c-.4-.9-.9-1.8-1.7-2.5-.2-.2-.4-.4-.6-.5l-.6-.2M16.8 2.6c0 .5.5.9.8 1.2.7.6 1 1.4 1.8 1.9.3.3 1.2 1 1.3.3.1-.8-.4-1.6-.7-2.2-.5-.8-1.1-1.5-1.9-2"/><path d="M17.1 0c-.7 0-1.4.6-1.5 1.3-.1.6.5 1.3.8 1.8.5.6 1.1 1.1 1.5 1.8.3.6.3 1.4.2 2.1.9-.3 1.2-2 .9-2.7-.1-.2-1.6-1.9-1.7-1.8.1-.1.2-.3.4-.4.3.4.5.9.7 1.2.5.6 1.9 1.2 2.7 1 .3-.1.6-.3.8-.5-.3.2-1-.4-1.2-.6-.4-.4-.6-.8-.9-1.2-.5-.8-1.4-1.8-2.5-2h-.2zM13.1-1.5c.3.9 1 1.5 1.5 2.4-.5.3-2.1-1-2.4-1.3-1-.9-1.2-2.3-1.5-3.6-.3-1-1.2-1.9-1.8-2.6-.6-.7-1-1.5-1.5-2.3-.6-.8-1.3-1.6-2-2.3-.7-.6-1.8-1.7-1.2-2.7.9-1.4 3.1-.6 3.8.5.8 1.2 1.3 2.7 1.8 4.1.2.5.5.8.9 1.1.6.5 1.1 1.1 1.6 1.7.5.4 1 .7 1.6 1 .8.5 1.5 1.1 2 1.9l.6.8c.1.2.2 1.2.3 1.2-.6-.3-1.2-.4-1.7-.6-.6-.2-1.2-.5-1.6-.9-.3-.4-.8-1.5-1.3-1.5-.4 0-.4.4-.3.7l.8.6c.2.5.2 1.2.4 1.8zM2.8-13.9c-1.4.1-1.3-1.3-.6-2.2.5-.6 1.8-1.5 2.6-.8.4.4.4 1 .3 1.5M7.5-12.1c.1-.7-.2-1.5-.7-1.9-.4-.3-1-.7-1.5-.4-.6.3-.8 1-.6 1.6.2.7 1.1.9 1.8 1.1.3.1.6.1.9 0 .1 0 .7-.5.6-.6.3.5.6 1.1.7 1.7.1.5-.3 1.3-.8 1.4.1.1.2.3.4.4.5.5.9 1.1 1.3 1.7.4.7.7 1.5.7 2.4 0 .5-.3 1.8-.9 2 0-.4 0-.8-.1-1.2-.3-1.1-.7-2.2-1.5-3-.4-.4-.9-.7-1.3-1l-1.8-1.6c-.7-.5-1.3-1.3-1.7-2-.5-.8-.7-1.8-.3-2.7.4-.8 1.7-1.6 2.6-1.5.3 0 .5.1.7.2 1.3.1 2 1.2 2.6 2.2l1 2.1c.3.5.7.9 1.1 1.3l.2.2.9 1.1c.8.8 1.9 1.4 3 1.5-.3.4-.4.6-.9.8-.8.4-1.8 0-2.5-.5s-1.6-1.4-2.3-2.2l-.6-.7"/></g><path fill="#E0CAA5" stroke-width=".5" d="M2.9-22.7l.7-.8c1.2-1.4 2.8-1.7 1.7-3.7-.6-1.1-1.6-3-3-3.1-.6 0-.9.5-1.4.7-1.3.6-2.8.4-3.9 1.2-1 .7-1.5 1.9-2.7 2.2-.9.2-1.7.1-2.2-.6-.4-.6-1.3-1.5-1.1-.1.1.6.5 1.3.9 1.8.2.3.6.5.8.7.2.3.2.6.5.9.2.3.7.5.7.7.1.3-.3.5-.1 1 .3.6.8.8 1.4.9-.1 0 .1.8.2.8.2.4.6.6 1 .8.9.3 2 .1 2.8-.2 1.5-.6 2.6-1.9 3.7-3.2z"/><path stroke-width=".25" d="M-7.5-24.7c.5.4 1.1.3 1.5.2.6-.1.9-.1 1.5-.1M-6.1-22.9c1.1.6 1.6 0 2.7.1M-5.7-21.1c1.4.3 2.1-.2 3.1-.1" fill="none"/></g><path fill="#00AFE9" stroke="#1F282C" stroke-width=".5" stroke-miterlimit="10" d="M-20.3-23.1c.3-2.6.8-5.2 1.5-7.8.1-.4.7-1.3.2-1.6-.4-.2-1.2.1-1.6.2-1.2 0-2.6-.2-3.7-.8-.7-.4-1.2-1-1.5-1.7-.1-.1-.3-1.7 0-1.7-.5 0-.8-.1-1.1.3l-.5.8c-.2.2-.5.4-.7.5-.9.8-1.9 1.5-2.7 2.5-.7.9-1.4 1.4-2.4 1.9-.3.2-.6.3-.9.4.9.3 1.6.8 2.5 1.2 1.2.5 2.4 1 3.6.3.3-.2.8-.7 1.2-.6.1.6-.2 1.2-.3 1.7-.1.5-.2 1-.2 1.5-.1.9.3 1.8-.1 2.7 1 0 2-.5 2.9-.9.9-.5 1.5-1.4 2-2.3 0 .6-.1 1.1.1 1.7.2.5.4.8.8 1.1.1.1.5.3.9.6zM1.7-30.9c-.2.2-.7.4-.8.7 0 .1-.1.6-.1.6.9-.3 4 4 3.7 5 0 .1-.1.3-.2.6.7.3 1.4-.1 2.3-.4 1.2-.4 2.3-.9 3.5-1.2.9-.2 1.8-.4 2.7-.8.8-.3 1.7-.9 2.6-.9-.4-.8-1.7-1.5-2.4-1.7-.9-.3-1.9-.2-2.8-.3.4-.6 1.1-.9 1.5-1.6.3-.6.5-1.4.7-2l.3-.8c.1-.1.3-.4.3-.8-.6 0-1 .2-1.4.1-.8-.1-1.8-.2-2.5.1-.2.1-1.6.9-1.6 1 0-1 .4-2 .3-3-.1-.9-.8-1-1.1-2.3-.9 1.3-3.3 6.1-5 7.7z"/><g stroke="#1F282C" stroke-miterlimit="10"><path fill="#B37E47" stroke-width=".5" d="M-8.1 9.4v.2c.1 1.3.1 2.6-.2 4-.2 1-.5 2-.4 3 0 .3.4 1.5-.2 1.6-.3.1-.6-.3-.8-.4-.3-.2-.5-.3-.6-.6-.3-.5-.4-1.2-.2-1.7-.5-.1-.7-.8-.7-1.2-.1-.5.2-.9.5-1.3-.3-.3-.5-.8-.3-1.2.2-.5.6-.5.9-.9.2-.3.1-.7.4-1 .4-.4 1.1-.9 1.7-1 0 .1-.1.3-.1.5z"/><path stroke-width=".25" d="M-11 14.5c.2 1 1.6.8 1.9 1.8M-10.9 12c0 .3.1.6.2.8.2.3.4.5.6.7.3.3.9.7.8 1.2M-9.7 10.2c-.5.6 0 1.5.3 2.1.3.5.6.9.6 1.6" fill="none"/></g><path fill="#E0CAA5" stroke="#1F282C" stroke-width=".5" stroke-miterlimit="10" d="M6.4 20.9c1.4-1.3 1.8-3.5 1.8-5.3 0-1.8-.1-4.1-1.2-5.7-1.6-2.6-3.1-5.5-6.1-6.4-1.5-.4-3.3-1.1-4.9-.8-1.8.3-2.7 1.6-3.2 3.2-.4 1.1-.8 2.1-1.1 3.2-.3.9-.9 1.7-.8 2.7l.4 1.7-.6 1.5.2 1.7c-.1.5-.2 1.2 0 1.7.2.4.7.9 1.1 1.2.9.9 2.1 1.5 3.3 2 1.3.5 2.8.1 4.2.3 2.3.4 5.1.7 6.9-1z"/><g><path stroke="#1F282C" stroke-width=".5" stroke-miterlimit="10" d="M-5 15.1c-.1-.4 0-.7 0-1.1 0-.4 0-.8-.2-1.2l-.5-2.1c-.1-.7-.6-1.5 0-2.1.3-.3.5-.2.9-.1M-4.1 8.4c0 .2.3.4.5.4.3 0 .4-.4.5-.5.2-.2.5-.2.8 0 .4.3.3.8.1 1.2s-.4.5-.8.4" fill="none"/><path fill="#1F282C" d="M1.5 16.2l-.1.1c-.2.2-.4.1-.6.2-.3.1-.6.1-.9.1-.3 0-.8-.1-1 .2l-.5-.2c-.2-.1-.5-.1-.6-.3l-.3-.6c-.1-.2-.3-.3-.5-.5.3-.3.7.4 1.1.5l1.2.3c.8.1 1.7 0 2.4-.4.2-.1.7-.4.9-.2.3.4-.6.6-.8.6l-.3.2z"/><path fill="#fff" d="M.7 13.5c-.4-.2-1-.3-1.5-.2-.3.1-.9.2-1 .5-.2.3.2.8.5.9.4.2.9.2 1.3.1s.7-.3 1.1-.5c.2-.1.4-.1.4-.3-.1-.2-.6-.4-.8-.5zM-5.9 12.9c-.4-.2-1-.3-1.5-.2-.3.1-.9.2-1 .5-.2.3.2.8.5.9.4.2.9.2 1.3.1s.7-.3 1.1-.5c.2-.1.4-.1.4-.4-.1-.1-.6-.3-.8-.4z"/><path fill="#1F282C" d="M-.1 14.1c-.2-.3-.6-.1-.5.2 0 .1.1.1 0 .2h-.2c-.1.2.2.2.3.2v.1c-.5.2-1-.3-1.1-.9 0-.5.6-.9 1-.9.2 0 .4 0 .6.1.1 0 .2.1.2.2v.3c-.2-.3-1-.5-1.2-.1-.2.3 0 .4.3.3.1-.1.3-.1.5-.1l.1.4zM-6.7 13.5h-.1c-.2 0-.3 0-.4.2 0 .3.4.7-.2.6-.4-.1-.7-.5-.8-.9 0-.5.6-.9 1-.9.1 0 .5-.1.6.1-.3 0-.6 0-.8.1-.3.2-.2.7.2.5.1-.1.4-.2.6 0 0 .2 0 .3-.1.3zM-5.4 16.1c-.3.5-.6.4-1.1.4-.4-.1-.8 0-1.2 0-.2 0-.4.1-.6 0-.2-.1-.3-.4-.5-.6-.1-.2-.3-.3-.5-.5l.2-.1.3.1.3.3c.3.3.7.2 1 .1.3-.1.7-.1 1-.1.3 0 .5-.1.7-.3.3-.2.3-.5.5-.7.4-.3.4.2.3.5 0 .4-.3.7-.4.9z"/><path stroke="#1F282C" stroke-width=".25" stroke-miterlimit="10" d="M-2.6 13.8c.4-.1.5-.1.6.3 0 .3.1.5.3.7.2.4.6.4 1 .5.6.1 1.2-.2 1.8-.4.3-.1.6-.4 1-.6M-8.5 13.6c-.4.7.4 1.1 1 1.2.6 0 1.3-.1 1.8-.4l.7-.6M-8.1 12.8c-.3.1-.4.6-.3.8.1.3.4.5.7.6.6.3 1.1 0 1.6-.3.3-.2.7-.4.9-.7M-2.1 13.6c.1.7.5 1.1 1.2 1.2.6.1 1.4 0 1.8-.4.3-.3.6-.5 1-.5" fill="none"/></g><g stroke="#1F282C" stroke-miterlimit="10"><path fill="#B37E47" stroke-width=".5" d="M2.6 7c-.7-.5-2-.6-2.7 0-.2.2-.4.6-.8.6v-.3c-.7.5-1.6.7-2.4.9-.4.1-.8.2-1.2.2-.3 0-.7 0-1-.1-.3 0-.3-.2-.5-.4l-1-.7c-.3-.2-.4-.4-.5-.6v.3c-.6-.1-1.3-.6-1.1-1.2.1-.3.4-.5.4-.8 0-.3-.3-.4-.6-.3-.2-.2-.2-.3 0-.5.1-.2.4-.1.5-.2.2-.1.1-.5.1-.7v-.8c.1.1.2.2.4.2-.2-.4-.4-.6-.3-1 0-.2.1-1 .3-1.1l.1.3.4-1c.2.2.3.3.5.6.1-.2 0-.4 0-.6 0-.1.1-.3.2-.4.2-.4.6-.7 1-.8 0 .3-.1.5 0 .8.3-.3.5-.6.9-.8.2-.3.3-.6.6-1 0 .3-.1.6-.1.8.2-.2.4-.8.9-.8.4.1.3.8.4 1.1.2-.2.2-.6.4-.9l.7.8c0-.7.2-1 .9-.9.7.1 1.4.4 2 .7.6.3.9.5 1.4.9.3.3.8.4 1.2.6.5.2.9.5 1.3.9l1.2 1.1c.4.4 1.2 1.3 1 2-.2.1-.3.2-.3.4s.1.4.2.6c.3.6.2 1.1 0 1.7-.1.6 0 1 .3 1.5.1-.1.2-.4.4-.5.2-.3.5-.4.8-.4.4-.1.5-.1.7-.5.2-.3.2-.6.2-1 .2.2.5.4.5.7.1.3-.1.7-.1 1 .4-.3.9-.4 1-1l.1.3c.3.9.1 1.8-.4 2.6-.3.5-.9.8-1.1 1.3-.3.5-.1 1 .1 1.5.4 1 .7 2.2.4 3.3-.2.6-.4 1.2-.7 1.6-.4.5-1 .9-1.5 1.3-.6.5-1.3 1-2.1 1.2-.4.1-1.3.4-1.6 0-.2-.3.1-.9.2-1.2.2-.5.4-.9.5-1.4.3-.9.2-1.8 0-2.7-.1-.6-.4-1.6.2-2.2.5-.5 1.1-.4 1.7-.5 1.3-.4.3-1.6-.1-2.3-.3-.6-.6-1-1.3-.7-.4.2-.8.5-1 1-.3-.5-.5-1-.7-1.5-.3-.4-.6-.7-1-1z"/><path stroke-width=".5" d="M5.1 12.1c.3-.5 1-.6 1.5-.8.5-.1 1.2 0 1.6-.4.3-.3.1-.8.1-1.2-.2-.6.2-.7.6-.9.4-.2.5-.5.7-.9.1-.4.4-.7.3-1.2M-8.8 4.2c.5-.2 1.1-.3 1.6-.2.7.1.6.7.6 1.2 0 .2 0 .5.1.7.3.2.5.1.8.1.3.1.3.2.5.4s.3.1.6 0c.4-.1.6.2.9.2.2 0 .4-.3.7-.1 0-.7 1-.1 1.4 0 0-.4.2-.3.4-.6s0-.7 0-1.1c.1-.7.6-1.1 1.3-1 .5 0 .7.2.9.6-.2-.1-.4-.4-.6-.3-.3.1-.2.6-.1.8l.4.6c.1.3-.1.6-.2.9l-.4.6-.5.4M-5.4 5.5c.2-.5 1.1-.2 1.4-.1.2-.3 1.2-.5 1.3-.1" fill="none"/><g stroke-width=".25" fill="none"><path d="M-5.7 4.3c-.1-.6-.7-1-.7-1.7 0-.4.2-.9.6-1.1M-4.6 4.6c0-.7-.4-1.2-.7-1.8-.3-.6-.3-1 .1-1.5l.3-.6M-3.6 3.9l-.2-1.8c0-.3 0-1.2.2-1.4M-2.6-1.2c.2.3.1.7 0 1-.1.4-.3.6-.2 1.1 0 .2.2.5.3.7.4.5.9.8.7 1.6M.4 2.5c.1-.5.4-.9.6-1.3.2-.5.1-1.1 0-1.7-.2-.5-.4-1.2-1-1.4M2.6 5c.2-.6.5-1.2.3-1.8-.2-.5-.3-1-.7-1.3M1.9 3.8c-.1-.8.1-1.4.3-2.2.1-.5.2-1.4-.3-1.8M2.7-.7c.5.1.9 1.1 1 1.5.1.5.2 1.1-.2 1.5M4.7.5c.3.4.5.8.5 1.3 0 .3 0 .6-.2.9-.1.2-.4.3-.4.5M4.5 2.3c.3.3.1 1.1.1 1.4 0 .6-.2.9-.6 1.3M3.9 4.3c.2.1.3.6.3.8.1.6-.1 1.1-.3 1.7M5.3 7.5c.3-.1.5-.7.6-1.1.1-.5-.1-.8-.4-1.2M6.1 4.8c.6-.9.3-2.1-.2-3M5.1 16c.1-.6.4-1.3.9-1.7.5-.4 1.1-.4 1.7-.7 1.4-.5 1.4-2.1 2.1-3.2M5.1 19c.4-1 1.2-1.7 1.9-2.4.5-.5 1.3-.9 1.7-1.5.5-.8.9-1.6.8-2.6 0-.4-.3-.8-.2-1.2"/></g></g><g stroke="#1F282C" stroke-miterlimit="10"><path fill="#CC1B2C" stroke-width=".5" d="M11.8 27.8c-.5.2.2 1.1.4 1.4 0-.3 0-.5.1-.7.4.6.4 1.2.9 1.7 0-.3 0-.5-.1-.8 0 .3.4.6.6.8l.9.6c.3.2.7.3 1.1.4.3.1.7.1 1 .3.4.2.8.4 1.2.5.3.1.6.2.9.2.4 0 .7 0 1.1.1.3.1.6.3.9.3.4 0 .8 0 1.1-.2-.4.2-1.2-.3-1.4-.7 0 .1.5-.1.5-.1h.7c1.1.1 2.1-.1 3.1-.4 1.6-.6 2.3-.9 3.2-2.1-.3.1-.8.2-1.1.4 1.2-.6 2.4-1.1 2.4-2.2-.1-.8.9-1.2 1.5-1.5-.3-.1-.6-.2-1-.2-.5 0-.9.2-1.4.3-.6.2-1.2.3-1.7.6-.5-1-1.9 0-2.5.3-.6-.3-1.1-.5-1.8-.2-.9.3-1 1-1.6 1.5.4-.7-.6-1.7-1.6-1.6 1.5.6-.4 2.2-1.5 2.3.5-.5 1.5-2.2.2-2.4.8 1.1-2 2.3-3.3 2 1.5 0 2.8-.9 2.5-2-.6.7-1.3 1.3-2.6 1.2-.4-.2-3-1-2.7.2"/><path fill="#CC1B2C" stroke-width=".25" d="M12.8 28c.7 1.3 2.8 2 4.6 2 1.2 0 2.5.1 3.7 0 1.3-.1 3.3-.4 4.3-1M15.6 29.4c.9.2 2.6-1 2.8-1.6M19.1 29.6c.7-.2 1.4-.7 1.6-1.2M16.9 30.9c.7.3 1.3.5 2 .6.7.1 1.4 0 2.1 0M25.9 27.4l.7-.7c.2-.2.4-.5.7-.5M26.9 28.2l1.5-.9c.5-.3.7-.8 1.2-1.2.3-.2.6-.3.9-.3M23.2 28.2c.5-.6.9-1.3 1.8-1.6M23.6 31.1c1.1-.1 2.1-.2 3-.6"/><path stroke-width=".25" d="M28 29c-.5.3-1 .4-1.5.6-.4.2-.8.4-1.2.4" fill="none"/></g><g stroke="#1F282C" stroke-miterlimit="10"><path fill="#FADE64" stroke-width=".5" d="M11.4 28.1c-.3.5.9 1.1 1.2 1.4-.2-.3-.4-.5-.4-.9.7.4 1.1 1.1 1.9 1.5-.1-.3-.4-.6-.6-.8 1.9 1.5 4.6.7 6.5-.3.8-.4 1.1-1.2 1.9-1.5 1-.4 1.7-1.1 2.3-1.9.9-1.4 1.2-2.1 1.2-3.8l-.7.9c.6-1.2 1.3-2.3.5-3.6-.3-.5-.3-.4-.4-1.1-.1-.4-.4-.9-.7-1.2 0 .9-1.2 1.5-1.5 2.7-1-.9-1.5.8-1.8 1.5-.7-.1-1.2 0-1.6.6-.5.7-.1 1.6-.3 2.4-.1-.9-1.6-1.6-2.3-1 1.6-.1 1.1 2.6.2 3.2.1-.8-.2-3.1-1.4-2.8 1.4.8-.1 3.5-1.4 3.7 1.1-.7 1.7-2.3.7-3.3 0 1.1-.2 2.1-1.3 2.6-.4.3-3 .6-2 1.7"/><path stroke-width=".25" d="M12.3 27.8c1.4 1.1 3.6.8 5 0 1-.6 2.1-1.1 3-1.8 1-.8 2.4-1.9 2.8-3.1M15.5 28.1c.9-.2 1.5-2.3 1.2-3.1M18.4 26.6c.5-.6.6-1.4.4-2.1M20.1 27.6c.9 0 1.7-.1 2.6-.2M17.5 29.2c1.1 0 2 0 2.9-.7M22.5 22.2c.1-1-.3-2.3.5-3.1M23.7 21.4c.2-.6.5-1.1.6-1.7.3-.8 0-1.6-.2-2.3M20.7 23.1c0-.9-.1-1.8.4-2.6M23 26.2c.8-.6 1.6-1.2 2-2.1" fill="none"/></g><path fill="#CC1B2C" stroke="#1F282C" stroke-width=".5" stroke-miterlimit="10" d="M-.5 20.8h1.2c2.3 0 4.4-.6 6.6-1.1l2-.4c.5-.1 1.1-.4 1.7-.2.5.2.9.6 1.3.9.9.8 1.7 1.8 1.9 3.1.3 1.5-.6 3.1-1.5 4.2-.5.6-1.2.7-1.9 1-1 .5-2.2.6-3.3.9-1.3.3-2.5.6-3.7.8-2.5.4-5.1.3-7.6.3-1.2 0-2.4-.1-3.5-.2s-2.4-.3-3.4-.8c-.6-.3-1.1-.6-1.5-1.1-1.2-1.1-1.6-2.2-1.3-3.8.1-.7.3-1.4.6-2 .3-.6.8-.9 1.4-1.3.6-.4 1.5-1.2 2.3-.9.9.2 1.8.3 2.7.4.8 0 1.5.2 2.3.3 1 0 2.4-.1 3.7-.1z"/><g stroke="#1F282C" stroke-width=".25" stroke-miterlimit="10"><path fill="#2E9952" d="M1.9 30.8l3.8-5.8 4.3 3.9zM1.9 20.3l3.8 4.7 3.1-6.2zM-1.8 20.6l-3.8 5.2-2.6-5.7z"/><path fill="#FADE64" d="M0 30l-2.8-4 3-4.7 2.9 4.1zM11.5 27.9l-3.3-3.3 1.9-4.9 3 3.5zM-10.8 29.2l-1.3-4.6 2.3-4.1 1.9 4.9z"/><path fill="#2E9952" d="M-9.5 30.3l3.9-4.5 3 5.4z"/><path fill="#FADE64" d="M1.1 25.8c0-.6-.5-1.2-1.2-1.2s-1.2.5-1.2 1.2.6 1.2 1.3 1.2 1.1-.6 1.1-1.2zM11.7 24.2c0-.6-.5-1-1-1-.6 0-1 .5-1 1s.5 1 1 1 1-.5 1-1zM-9 25c0-.6-.5-1-1-1s-1 .5-1 1 .5 1 1 1 1-.4 1-1z"/></g><path fill="#FADE64" stroke="#1F282C" stroke-width=".5" stroke-miterlimit="10" d="M-6.7 19.1c1.6.3 3.3.4 4.9.4 2.9.1 5.6-.4 8.4-1.2 1.1-.3 2-.8 3-1.2.2.5.2 1.1.3 1.6-2.7 1.2-5.3 2-8.2 2.2-1.9.1-3.5.1-5.4 0-1.4-.1-5.8-.8-5.8-.8l.3-1.9s1 .4 1.7.6l.8.3z"/><g fill="#FADE64" stroke="#1F282C" stroke-miterlimit="10"><path stroke-width=".5" d="M18.9 35.2c-.4.4-.9.6-1.4.8-.8.2-2.2 0-2.5-.9-.5 1-1.5 1.4-2.6 1.2-1.2-.2-2.3-1.2-1.7-2.5.3-.5 1-.9 1.6-1-.7-.4-1.4-.7-2.2-.6-1.2.1-1.7 1.2-2 2.2.4.2.8.7.8 1.2 0 .7-.6 1.3-1.3 1.3s-1.3-.6-1.3-1.3c0-.4.2-.7.4-.9-.3-.2-.5-.4-.7-.5-.8-.6-2.6-1.1-3.4-.3-.2.2-.4.5-.2.7.2.2.7 0 .9 0 .7-.1 1.5 0 1.7.8.1.4 0 1.2-.4 1.6-.4.4-.8.3-1.3.2 0 .1.4.7.5.7h-6.1c.1 0 .6-.5.7-.6-.2.1-.9-.3-1-.3-.3-.2-.5-.5-.6-.9-.1-.5 0-1.2.5-1.4.5-.3 1-.1 1.6-.1.6.1 0-.7-.1-.9-.4-.4-1-.4-1.5-.4s-.9 0-1.3.2c-.5.3-.8.8-1.2 1.1.3.2.4.6.4.9 0 .7-.6 1.3-1.3 1.3s-1.3-.6-1.3-1.3c0-.5.3-1 .8-1.2-.6-.5-1-1.4-1.7-1.6h-.2c-.9-.1-1.7.3-2.3.9.4.2.7.4.9.8.8 2.1-2 2.3-3.1 1.2l-.9.6c-.6.4-1.3.4-2.1.2-.7-.1-1.9-.4-2.1-1.1 1.2.2 2.5-.2 3.6-.9l.8-.6c-.1-.1-.1-.3-.1-.5 0-.6.5-1.1 1.1-1.1.2 0 .3 0 .4.1l.1-.1 1.3-1.6s2.4.5 5.7.8c-3.1-.3-5.7-.8-5.7-.8l.5-1.2s5.5 1.1 11.2.8c5.6-.3 9.7-1.9 10.9-2.4.2.5.3 1 .4 1.5-.7.3-1.5.5-2.2.7 1-.3 1.8-.5 2.2-.7.2.7.9 1.4 2.1 2.5.2-.1.3-.2.5-.2.6 0 1 .4 1 1 0 .1 0 .2-.1.3l.6.4c.6.3 1.2.7 1.8.9.5.2 1.4.2 1.8-.1-.4.4-.6.8-.9 1.1z"/><g stroke-width=".25"><path d="M.4 31.5c5.8-.3 10.1-1.5 11.4-2.1.2.7.9 1.4 2.1 2.5-2.6-.6-5.6 0-6.8 1.2-2.1-.4-4.9 0-6.8.4-1.4-.3-4.9-1.4-6.2 0-1.1-.9-6.6-1.1-6.6-1.1l1.3-1.6c0-.1 5.8 1.1 11.6.7zM.5 30.3c5.6-.3 9.7-1.9 10.9-2.4.2.5.3 1 .4 1.5-3.1 1.2-6.2 1.8-10.6 2.2l-12.3-1 .5-1.2c-.1 0 5.4 1.1 11.1.9zM-1.3 33.6c.2.2.7 1 .2.9-.6-.1-1.1-.2-1.6.1-.5.3-.6.9-.5 1.4.1.4.3.7.6.9.1.1.8.5.9.3-.1.1-.6.6-.7.6h6.1l-.5-.7c.5.1.9.2 1.3-.2.5-.3.6-1.1.5-1.6-.2-.7-1-.9-1.7-.8-.2 0-.7.2-.9 0-.2-.2 0-.6.2-.7.8-.9 2.6-.3 3.4.3.5.4 1.8 1.6 2.1.4.3-1 .8-2.2 2-2.3.8-.1 1.5.3 2.2.6-.6.1-1.3.5-1.6 1-.7 1.3.5 2.3 1.7 2.5 1.2.2 2.1-.2 2.6-1.2.3.9 1.7 1.1 2.5.9.5-.1 1-.4 1.4-.8.3-.3.5-.6.7-1-.5.3-1.3.2-1.8.1-.6-.2-1.2-.6-1.8-.9-.9-.5-1.7-1.2-2.5-1.8-.7-.5-1.7-1.2-2.6-1.3-.9-.1-1.9.2-2.7.6-.6.3-1.1.7-1.6 1.2-.3.3-.3.4-.7.2l-1.1-.3c-1-.2-2-.2-3 0-.5.2-.9.5-1.4.8-.2.2-.1.2-.4.1-.6-.4-1-.7-1.6-.9-1.2-.4-3.4-.2-4.3.8l-.5-.6-.7-.5c-.5-.3-1.1-.5-1.6-.6-1-.2-2.2-.3-3.1.4-1.1.9-1.8 2.1-3 2.9-1 .7-2.3 1.1-3.6.9.3.7 1.5 1 2.1 1.1.7.2 1.4.1 2.1-.2l.9-.6c1.1 1.1 3.9.9 3.1-1.2-.2-.4-.5-.6-.9-.8.7-.6 1.5-1 2.4-.9 1.3.1 1.8 2.7 3.2 1.9.5-.3.8-.8 1.2-1.1.4-.2.8-.2 1.3-.2.7-.1 1.3-.1 1.7.3zM-11.9 33.4c0-.6-.5-1.1-1.1-1.1s-1.1.5-1.1 1.1.5 1.1 1.1 1.1 1.1-.5 1.1-1.1zM-5 35.5c0-.7-.6-1.3-1.3-1.3s-1.3.6-1.3 1.3.6 1.3 1.3 1.3 1.3-.6 1.3-1.3zM1.7 35.9c0-.7-.5-1.2-1.2-1.2s-1.2.5-1.2 1.2.5 1.2 1.2 1.2 1.2-.5 1.2-1.2zM8.8 35.6c0-.7-.6-1.3-1.3-1.3s-1.3.6-1.3 1.3.6 1.3 1.3 1.3 1.3-.6 1.3-1.3zM15.5 32.7c0-.6-.4-1-1-1s-1 .4-1 1 .4 1 1 1 1-.4 1-1z"/></g></g><path fill="#CC1B2C" stroke="#1F282C" stroke-width=".5" stroke-miterlimit="10" d="M-28.4 5.7c-.4-4.8-4.5-6.5-6.7-8.3-3.2-2.4-3.9-4.5-4.7-6.5-.4-1-1-1.6-1.9-2.1 1.2-.6 2.5-.8 3.4.5.8 1.2.6 2.6 1.1 3.9.6 1.7 1.7 2.7 3.3 3.6 4 2.3 6.6 5.7 6.4 8.8"/><path fill="#CC1B2C" stroke="#1F282C" stroke-width=".5" stroke-miterlimit="10" d="M-32.8-4.8c-.5.4-1 .6-1.6.6-.4 0-1.5-.3-1.6-.7.2.6.8.9 1.3 1.1.3.1.6.2 1 .3.8.1 1.4.1 2.1.7.2.2 1.7 2.2 1.8 1.2 0-.3-.4-.6-.1-.8.4-.2.6.3.7.6.2.5.3 1 .6 1.5.3.4.9.7 1.1 0 .1-.3-.1-.7.5-.7.4 0 .4.3.4.6.1.6.5 1.8 1.4 1.5.8-.2 0-1.1.1-1.6.2-.9 1.1.5 1.2.8.2.4.6 1.1 1.1.9.5-.2.4-.9.3-1.3-.1-.3-.8-.7-.8-1 0-.5 1 .1 1.2.1.2-.8-.4-1.4-1.1-1.6-.6-.1-.9.1-1.4.2-.3 0-.8.1-.7-.4.7-.3 1.7-.4.8-1.2-.4-.3-1.1-.4-1.5-.3-.5.1-1.4 1.3-2 .6-.5-.6.8-.9 1-1.4.2-.4-.4-.6-.8-.6s-.5.2-.8.5c-.3.3-1.3.8-1.8.7-.5-.2-.1-.4.1-.6.3-.6-.3-.8-.8-.7-.9.1-1.2.7-1.7 1z"/><path fill="#2E9952" stroke="#1F282C" stroke-width=".5" stroke-miterlimit="10" d="M-32.8.2c-.2-.4-.4-.7-.5-1-.2-.6-.7-1-1.2-1.4.2.4 1.1 1.7.5 2.1-.3.3-.8-.3-1.2-.3-1.8-.2.2 1.8-.4 2.2-.5.3-1-2.1-2-2-.3 0-.6.3-.6.7 0 .4.3.5.6.7.7.4.6 1-.3.9-1-.2-1-1.2-1.3-2-.2-.4-1.1-1.9-1.7-1.1-.5.6.8 1 .6 1.7-.1.3-.3.3-.5.1-.4-.3-.5-.7-1.1-.8-1.2-.3-1.4.6-.6 1.4.4.4 2 .4 1.8 1.2-.3 0-.9-.1-1.1.1-.7.6.6 1.1 1 1.2.6.2 1.1-.5 1.6-.1.4.3.2.7.1 1.1-.3.8.1 1.1 1 .9.5-.1.8-.4 1.1-.7.1-.2.4-.8.7-.8.6 0 .2 1.4.4 1.7.3.4 1.2-.2 1.4-.6.2-.4-.2-1.5.4-1.7.4-.1.8.7 1.1.3.4-.4.1-.8.1-1.2-.1-.4 0-.7 0-1.1 0 .5.5.3.6-.1 0-.5-.3-1-.5-1.4z"/><path stroke="#1F282C" stroke-width=".25" stroke-miterlimit="10" d="M-34.5-4.1c1.2.6 2.5-.1 3.7.1 1.1.2 2 1 3 1.6.6.3 1.3.5 2 .8M-39.5 2.4c1.3.9 3.1 1.6 4.5.6.7-.5 1.3-1.5 1.4-2.4 0-.9-.2-1.6-.6-2.4M-41.6-11.4c.6-.2 1.3-.1 1.8.2.4.2 1 .6 1.1 1.1 0 .4-.5.1-.6 0-.3-.2-.7-.4-.8-.8" fill="none"/><use xlink:href="#d" width="29.9" height="19" x="-29.9" y="-9.5" transform="matrix(0 -1 1 0 -28.176 5.366)" overflow="visible"/></symbol><symbol viewBox="-22.5 -21.4 44.9 42.9"><path fill="#008000" d="M1.9-18.1c-.7.6-1.3 1.2-1.9 2-.6-.8-1.3-1.5-2.1-2.1-.6-.5-1.3-.9-2.1-1.3-1.7-.9-3.5-1.3-5.5-1.3-3.4 0-6.3 1.2-8.7 3.6-2.4 2.4-3.6 5.4-3.6 8.8 0 4.7 2.5 9.7 7.5 14.8 6.7 5.9 11.5 10.7 14.5 14.3 3-3.6 7.8-8.4 14.4-14.3 5-5.1 7.6-10.1 7.6-14.8 0-3.4-1.2-6.4-3.6-8.8-2.4-2.4-5.4-3.6-8.8-3.6-1.9 0-3.7.4-5.4 1.3-.9.3-1.6.8-2.3 1.4z"/><path fill="#055905" d="M0 20.7v-36.9c.6-.7 1.2-1.4 1.9-1.9.7-.6 1.5-1 2.3-1.5 1.7-.9 3.5-1.3 5.4-1.3 3.4 0 6.4 1.2 8.8 3.6 2.4 2.4 3.6 5.4 3.6 8.8 0 4.7-2.5 9.7-7.6 14.8-6.6 6-11.4 10.8-14.4 14.4z"/><path stroke="#000" stroke-miterlimit="10" d="M1.9-18.1c-.7.6-1.3 1.2-1.9 2-.6-.8-1.3-1.5-2.1-2.1-.6-.5-1.3-.9-2.1-1.3-1.7-.9-3.5-1.3-5.5-1.3-3.4 0-6.3 1.2-8.7 3.6-2.4 2.4-3.6 5.4-3.6 8.8 0 4.7 2.5 9.7 7.5 14.8 6.7 5.9 11.5 10.7 14.5 14.3 3-3.6 7.8-8.4 14.4-14.3 5-5.1 7.6-10.1 7.6-14.8 0-3.4-1.2-6.4-3.6-8.8-2.4-2.4-5.4-3.6-8.8-3.6-1.9 0-3.7.4-5.4 1.3-.9.3-1.6.8-2.3 1.4z" fill="none"/></symbol><symbol viewBox="-15.5 -15.7 31.1 31.3"><path fill="#E60000" d="M2.9 13c1.4 1.4 2.6 2.1 3.8 2.1 2.3 0 4.3-.8 5.9-2.5 1.6-1.7 2.5-3.7 2.5-6 0-3.3-1.7-7-5.2-11-2-2.3-5.3-5.9-9.9-10.6-4.6 4.7-7.8 8.3-9.8 10.6-3.5 4.1-5.2 7.7-5.2 11 0 2.3.8 4.3 2.5 6 1.7 1.6 3.7 2.5 6 2.5 1.2 0 2.4-.7 3.8-2.1.1-.1 1-1.3 2.8-3.5.4.6 1.4 1.8 2.8 3.5z"/><path fill="#A50A0A" d="M6.7 15.1c-1.2 0-2.4-.7-3.8-2.1-1.4-1.7-2.4-2.9-2.9-3.5v-24.5c4.6 4.7 7.9 8.3 9.9 10.6 3.5 4.1 5.2 7.7 5.2 11 0 2.3-.8 4.3-2.5 6-1.7 1.7-3.6 2.5-5.9 2.5z"/><path stroke="#000" stroke-miterlimit="10" d="M2.9 13c1.4 1.4 2.6 2.1 3.8 2.1 2.3 0 4.3-.8 5.9-2.5 1.6-1.7 2.5-3.7 2.5-6 0-3.3-1.7-7-5.2-11-2-2.3-5.3-5.9-9.9-10.6-4.6 4.7-7.8 8.3-9.8 10.6-3.5 4.1-5.2 7.7-5.2 11 0 2.3.8 4.3 2.5 6 1.7 1.6 3.7 2.5 6 2.5 1.2 0 2.4-.7 3.8-2.1.1-.1 1-1.3 2.8-3.5.4.6 1.4 1.8 2.8 3.5z" fill="none"/></symbol><symbol viewBox="-9.1 -9.2 18.3 18.4"><path fill="#fe0" d="M1.7 7.7c.8.8 1.5 1.2 2.2 1.2 1.4 0 2.5-.5 3.5-1.5s1.5-2.2 1.5-3.5c0-1.9-1-4.1-3-6.5-1.3-1.3-3.2-3.4-5.9-6.2-2.7 2.8-4.6 4.9-5.8 6.3-2 2.3-3.1 4.5-3.1 6.4 0 1.4.5 2.5 1.5 3.5s2.2 1.5 3.5 1.5c.7 0 1.4-.4 2.2-1.2 0 0 .6-.7 1.7-2.1.3.4.9 1.1 1.7 2.1z"/><path fill="#B2A100" d="M3.9 8.9c-.7 0-1.4-.4-2.2-1.2-.8-1-1.4-1.7-1.7-2.1v-14.4c2.7 2.8 4.6 4.9 5.8 6.3 2 2.4 3 4.6 3 6.5 0 1.4-.5 2.5-1.5 3.5-.9.9-2 1.4-3.4 1.4z"/><path stroke="#000" stroke-width=".589" stroke-miterlimit="10" d="M1.7 7.7c.8.8 1.5 1.2 2.2 1.2 1.4 0 2.5-.5 3.5-1.5s1.5-2.2 1.5-3.5c0-1.9-1-4.1-3-6.5-1.3-1.3-3.2-3.4-5.9-6.2-2.7 2.8-4.6 4.9-5.8 6.3-2 2.3-3.1 4.5-3.1 6.4 0 1.4.5 2.5 1.5 3.5s2.2 1.5 3.5 1.5c.7 0 1.4-.4 2.2-1.2 0 0 .6-.7 1.7-2.1.3.4.9 1.1 1.7 2.1z" fill="none"/></symbol><symbol id="g" viewBox="-3.4 -6.4 6.7 12.7"><path d="M-1.5.6l2.8 5.8h1.9l-3-6 3.2-6.8h-2l-2.9 6.4h-.1v-6.4h-1.8v12.8h1.8l.1-5.8z"/></symbol><symbol id="e" viewBox="-50 -85 100 170"><path fill="#FAFAEE" d="M-43-84.5c-3.6 0-6.5 2.9-6.5 6.5v156c0 3.6 2.9 6.5 6.5 6.5h86c3.6 0 6.5-2.9 6.5-6.5v-156c0-3.6-2.9-6.5-6.5-6.5h-86z"/><path d="M43 84c3.3 0 6-2.7 6-6v-156c0-3.3-2.7-6-6-6h-86c-3.3 0-6 2.7-6 6v156c0 3.3 2.7 6 6 6h86m0 1h-86c-3.9 0-7-3.1-7-7v-156c0-3.9 3.1-7 7-7h86c3.9 0 7 3.1 7 7v156c0 3.9-3.1 7-7 7z"/></symbol><symbol id="i" viewBox="-42 -77 84 154"><path d="M-41.5-38.5c-.3 0-.5.2-.5.5v76c0 .3.2.5.5.5s.5-.2.5-.5v-76c0-.3-.2-.5-.5-.5zM39.5-77h-79c-1.4 0-2.5 1.1-2.5 2.5 0 .3.2.5.5.5s.5-.2.5-.5c0-.8.7-1.5 1.5-1.5h79c.8 0 1.5.7 1.5 1.5 0 .3.2.5.5.5s.5-.2.5-.5c0-1.4-1.1-2.5-2.5-2.5zM41.5-38.5c-.3 0-.5.2-.5.5v76c0 .3.2.5.5.5s.5-.2.5-.5v-76c0-.3-.2-.5-.5-.5zM41.5 74c-.3 0-.5.2-.5.5 0 .8-.7 1.5-1.5 1.5h-79c-.8 0-1.5-.7-1.5-1.5 0-.3-.2-.5-.5-.5s-.5.2-.5.5c0 1.4 1.1 2.5 2.5 2.5h79c1.4 0 2.5-1.1 2.5-2.5 0-.3-.2-.5-.5-.5z"/></symbol><symbol viewBox="-14.4 -15.9 28.8 31.9"><path fill="#028C02" d="M3.1-12.4c0-.8-.3-1.6-.9-2.2-.6-.6-1.3-.9-2.2-.9-.8 0-1.6.3-2.2.9-.5.7-.8 1.4-.8 2.2 0 .8.3 1.6.9 2.2.6.6 1.3.9 2.2.9.8 0 1.6-.3 2.2-.9.5-.6.8-1.3.8-2.2z"/><path fill="#046604" d="M2.2-14.6c.6.6.9 1.3.9 2.2 0 .8-.3 1.6-.9 2.2-.6.6-1.3.9-2.1.9v-6.1c.8 0 1.5.3 2.1.8z"/><path stroke="#000" stroke-miterlimit="10" d="M3.1-12.4c0-.8-.3-1.6-.9-2.2-.6-.6-1.3-.9-2.2-.9-.8 0-1.6.3-2.2.9-.5.7-.8 1.4-.8 2.2 0 .8.3 1.6.9 2.2.6.6 1.3.9 2.2.9.8 0 1.6-.3 2.2-.9.5-.6.8-1.3.8-2.2z" fill="none"/><path fill="#D9D900" d="M13.9 1.5c0-3.8-1.3-7.1-4-9.8-2.7-2.7-6-4-9.8-4s-7.1 1.3-9.9 4c-2.7 2.7-4 6-4 9.8 0 3.8 1.4 7.1 4 9.8 2.7 2.7 6 4.1 9.9 4.1s7.1-1.4 9.8-4.1c2.7-2.7 4-5.9 4-9.8z"/><path fill="#99950A" d="M.1 15.4v-27.8c3.8 0 7.1 1.4 9.8 4 2.7 2.7 4 6 4 9.8 0 3.8-1.3 7.1-4 9.8-2.8 2.9-6 4.2-9.8 4.2z"/><path fill="#B30000" d="M-13.9 1.5c0-1.8.3-3.5.9-5.1h26c.6 1.6.9 3.3.9 5.1v.9h-27.7c-.1-.3-.1-.6-.1-.9z"/><path fill="#00B300" d="M5.8-10.9c-1.7-.8-3.5-1.2-5.5-1.2s-4 .4-6 1.2c-1.4 1-2.4 2-3 2.9-.6.8-.7 1.3-.3 1.4.3 0 1.1-.3 2.5-.9l4.2-2.1c.5 2 1.2 3 2.3 3 1.1 0 1.8-1 2.3-3.1.8.4 2.2 1.1 4.3 2.1 1.3.7 2.1 1 2.4.9.4-.1.3-.6-.3-1.4-.5-.9-1.5-1.8-2.9-2.8z"/><path d="M3.2 9.3c0-.9-.3-1.6-.9-2.2-.6-.6-1.4-.9-2.3-.9-.9 0-1.6.3-2.2.9-.6.6-.9 1.4-.9 2.2 0 .9.3 1.6.9 2.2.6.6 1.4.9 2.2.9.9 0 1.6-.3 2.2-.9.7-.5 1-1.3 1-2.2z"/><path stroke="#1A171B" stroke-width=".65" fill="none" d="M.1 12.4v3"/><path fill="#087208" d="M9.1-6.6c-.3 0-1.1-.3-2.5-1-2.1-1-3.5-1.7-4.3-2.1-.4 2.1-1.2 3.1-2.2 3.1v-5.5h.3c2 0 3.8.4 5.5 1.2 1.4 1 2.4 2 3 2.9.5.8.6 1.3.2 1.4z"/><path fill="#750B0B" d="M.1 2.4v-6h12.9c.6 1.6.9 3.3.9 5.1v.9h-13.8z"/><path stroke="#000" stroke-miterlimit="10" d="M13.9 1.5c0-3.8-1.3-7.1-4-9.8-2.7-2.7-6-4-9.8-4s-7.1 1.3-9.9 4c-2.7 2.7-4 6-4 9.8 0 3.8 1.4 7.1 4 9.8 2.7 2.7 6 4.1 9.9 4.1s7.1-1.4 9.8-4.1c2.7-2.7 4-5.9 4-9.8z" fill="none"/></symbol><symbol viewBox="-1.4 -31 2.8 62"><path fill="#930" d="M.5-27.6c-.2.1-.3.1-.5.1-.3 0-.5-.1-.8-.2v57.1c.4 2.1.9 2.1 1.2 0v-57z"/><path fill="#ff0" d="M-.8-27.8c.2.2.5.2.8.2.2 0 .3 0 .5-.1.1-.1.2-.2.3-.2.3-.3.4-.6.4-.9 0-.3-.2-.8-.4-1.4-.3-.6-.7-.8-1-.6-.3.2-.5.5-.8.9-.2.4-.4.8-.4 1.1 0 .3.1.6.4.9.1 0 .2.1.2.1z"/><path stroke="#000" stroke-width=".3" stroke-linecap="round" stroke-linejoin="round" stroke-miterlimit="3" d="M-.8-27.8v57.1c.4 2.1.9 2.1 1.2 0v-56.9c.1-.1.2-.2.3-.2.3-.3.4-.6.4-.9 0-.3-.2-.8-.4-1.4-.3-.6-.7-.8-1-.6-.3.2-.5.5-.8.9-.2.4-.4.8-.4 1.1 0 .3.1.6.4.9.2-.1.3 0 .3 0zm1.3.2c-.2.1-.3.1-.5.1-.3 0-.5-.1-.8-.2" fill="none"/></symbol><symbol id="b" viewBox="-1.4 -27.6 2.8 55.2"><path fill="#930" d="M.5-24.3c-.2.1-.3.1-.5.1-.3 0-.5-.1-.8-.2v51.4c.4.6.9.6 1.2 0v-51.3z"/><path fill="#ff0" d="M-.8-24.4c.2.2.5.2.8.2.2 0 .3 0 .5-.1.1-.1.2-.2.4-.2.3-.3.4-.6.4-.9 0-.3-.1-.8-.4-1.4-.3-.6-.7-.8-1-.6-.3.2-.5.4-.8.8-.2.4-.4.8-.4 1.2 0 .3.1.6.4.9l.1.1z"/><path stroke="#000" stroke-width=".3" stroke-linecap="round" stroke-linejoin="round" stroke-miterlimit="3" d="M-.8-24.4v51.4c.4.6.9.6 1.2 0v-51.2c.1-.1.2-.2.4-.2.3-.3.4-.6.4-.9 0-.3-.1-.8-.4-1.4-.3-.6-.7-.8-1-.6-.3.2-.5.4-.8.8-.2.4-.4.8-.4 1.2 0 .3.1.6.4.9.1-.1.2 0 .2 0zm1.3.1c-.2.1-.3.1-.5.1-.3 0-.5-.1-.8-.2" fill="none"/></symbol><symbol id="a" viewBox="-1 -7.3 17.4 7.3"><path stroke="#000" stroke-width="1.5" stroke-linecap="round" stroke-linejoin="round" stroke-miterlimit="3" d="M-.2-1.2c2.9.7 5.7.7 8.6-.1 3.2-.9 5.6-2.7 7.3-5.2" fill="none"/><path stroke="#E6E600" stroke-linecap="round" stroke-linejoin="round" stroke-miterlimit="3" d="M-.2-1.2c2.9.7 5.7.7 8.6-.1 3.2-.9 5.6-2.7 7.3-5.2" fill="none"/></symbol><use xlink:href="#e" width="100" height="170" x="-50" y="-85" transform="matrix(1 0 0 -1 50 85)" overflow="visible"/><g><g><g><use xlink:href="#f" width="9.2" height="18.7" x="-4.6" y="-9.3" transform="matrix(-1 0 0 1 90.5 134.5)" overflow="visible"/><use xlink:href="#f" width="9.2" height="18.7" x="-4.6" y="-9.3" transform="matrix(-1 0 0 1 9.5 134.5)" overflow="visible"/><use xlink:href="#f" width="9.2" height="18.7" x="-4.6" y="-9.3" transform="matrix(1 0 0 -1 90.5 35.5)" overflow="visible"/><use xlink:href="#f" width="9.2" height="18.7" x="-4.6" y="-9.3" transform="matrix(1 0 0 -1 9.5 35.5)" overflow="visible"/></g><g><use xlink:href="#g" width="6.7" height="12.7" x="-3.4" y="-6.4" transform="matrix(-1 0 0 1 90.5 151.5)" overflow="visible"/><use xlink:href="#g" width="6.7" height="12.7" x="-3.4" y="-6.4" transform="matrix(-1 0 0 1 9.5 151.5)" overflow="visible"/><use xlink:href="#g" width="6.7" height="12.7" x="-3.4" y="-6.4" transform="matrix(1 0 0 -1 90.5 18.5)" overflow="visible"/><use xlink:href="#g" width="6.7" height="12.7" x="-3.4" y="-6.4" transform="matrix(1 0 0 -1 9.5 18.5)" overflow="visible"/></g><use xlink:href="#h" width="81.1" height="77.4" x="-43.2" y="-39.2" transform="matrix(-1 0 0 1 46.182 123.508)" overflow="visible"/><use xlink:href="#h" width="81.1" height="77.4" x="-43.2" y="-39.2" transform="matrix(1 0 0 -1 53.818 46.492)" overflow="visible"/></g></g><use xlink:href="#i" width="84" height="154" x="-42" y="-77" transform="matrix(1 0 0 -1 50 85)" overflow="visible" opacity=".75"/></svg>
