<svg xmlns="http://www.w3.org/2000/svg" xmlns:xlink="http://www.w3.org/1999/xlink" width="100" height="170" viewBox="0 0 100 170"><symbol viewBox="-22.5 -21.4 44.9 42.9"><path fill="#008000" d="M1.9-18.1c-.7.6-1.3 1.2-1.9 2-.6-.8-1.3-1.5-2.1-2.1-.6-.5-1.3-.9-2.1-1.3-1.7-.9-3.5-1.3-5.5-1.3-3.4 0-6.3 1.2-8.7 3.6-2.4 2.4-3.6 5.4-3.6 8.8 0 4.7 2.5 9.7 7.5 14.8 6.7 5.9 11.5 10.7 14.5 14.3 3-3.6 7.8-8.4 14.4-14.3 5-5.1 7.6-10.1 7.6-14.8 0-3.4-1.2-6.4-3.6-8.8-2.4-2.4-5.4-3.6-8.8-3.6-1.9 0-3.7.4-5.4 1.3-.9.3-1.6.8-2.3 1.4z"/><path fill="#055905" d="M0 20.7v-36.9c.6-.7 1.2-1.4 1.9-1.9.7-.6 1.5-1 2.3-1.5 1.7-.9 3.5-1.3 5.4-1.3 3.4 0 6.4 1.2 8.8 3.6 2.4 2.4 3.6 5.4 3.6 8.8 0 4.7-2.5 9.7-7.6 14.8-6.6 6-11.4 10.8-14.4 14.4z"/><path stroke="#000" stroke-miterlimit="10" d="M1.9-18.1c-.7.6-1.3 1.2-1.9 2-.6-.8-1.3-1.5-2.1-2.1-.6-.5-1.3-.9-2.1-1.3-1.7-.9-3.5-1.3-5.5-1.3-3.4 0-6.3 1.2-8.7 3.6-2.4 2.4-3.6 5.4-3.6 8.8 0 4.7 2.5 9.7 7.5 14.8 6.7 5.9 11.5 10.7 14.5 14.3 3-3.6 7.8-8.4 14.4-14.3 5-5.1 7.6-10.1 7.6-14.8 0-3.4-1.2-6.4-3.6-8.8-2.4-2.4-5.4-3.6-8.8-3.6-1.9 0-3.7.4-5.4 1.3-.9.3-1.6.8-2.3 1.4z" fill="none"/></symbol><symbol id="c" viewBox="-14 -23.5 28 47"><path fill="#F2F200" d="M10 13c0 5.5-4.5 10-10 10s-10-4.5-10-10v-23h20v23z"/><path fill="#D63403" d="M10-10v23c0 5.5-4.5 10-10 10v-33h10z"/><path fill="#008000" d="M13.5-13.5c0-5.2-6-9.5-13.5-9.5s-13.5 4.3-13.5 9.5 6 5.5 13.5 5.5 13.5-.3 13.5-5.5z"/><path fill="#056605" d="M13.5-13.5c0 5.2-6 5.5-13.5 5.5v-15c7.5 0 13.5 4.3 13.5 9.5z"/><path fill="#4E5DC9" d="M-10-9h20v5h-20z"/><path fill="#384A89" d="M0-9h10v5h-10z"/><path stroke="#000" stroke-miterlimit="10" d="M10-8.9v21.9c0 5.5-4.5 10-10 10s-10-4.5-10-10v-21.9c-2.2-.8-3.5-2.1-3.5-4.6 0-5.2 6-9.5 13.5-9.5s13.5 4.3 13.5 9.5c0 2.5-1.3 3.8-3.5 4.6z" fill="none"/></symbol><symbol viewBox="-29.9 -9.5 29.9 19"><path fill="#F2F200" d="M-22.8-6.9c-1.8 0-3.6.7-4.9 2-1.3 1.3-2 3-2 4.9 0 3.8 3.1 6.9 6.9 6.9h13.6v-13.8h-13.6z"/><path fill="#D63403" d="M-9.2-6.9h-13.6c-3.8 0-6.9 3.1-6.9 6.9h20.5v-6.9z"/><path fill="#008000" d="M-6.8-9.3c3.6 0 6.5 4.2 6.5 9.3s-2.9 9.3-6.5 9.3-3.8-4.2-3.8-9.3.2-9.3 3.8-9.3z"/><path fill="#056605" d="M-6.8-9.3c-3.6 0-3.8 4.2-3.8 9.3h10.3c.1-5.1-2.9-9.3-6.5-9.3z"/><path fill="#4E5DC9" d="M-9.9 6.9v-13.8h-3.4v13.8z"/><path fill="#384A89" d="M-9.9 0v-6.9h-3.4v6.9z"/><path stroke="#000" stroke-width=".5" stroke-miterlimit="10" d="M-9.9-6.9h-12.9c-3.8 0-6.9 3.1-6.9 6.9s3.1 6.9 6.9 6.9h12.9c.5 1.5 1.4 2.4 3.1 2.4 3.6 0 6.5-4.2 6.5-9.3s-2.9-9.3-6.5-9.3c-1.7 0-2.6.9-3.1 2.4z" fill="none"/></symbol><symbol viewBox="-31.7 -33.4 63.5 66.3"><g><use xlink:href="#a" width="17.4" height="7.3" x="-1" y="-7.3" transform="matrix(-1 0 0 1 15.75 8.3)" overflow="visible"/><use xlink:href="#a" width="17.4" height="7.3" x="-1" y="-7.3" transform="matrix(-1 0 0 1 15.75 -4.102)" overflow="visible"/><use xlink:href="#a" width="17.4" height="7.3" x="-1" y="-7.3" transform="matrix(-1 0 0 1 15.75 -16.5)" overflow="visible"/><use xlink:href="#a" width="17.4" height="7.3" x="-1" y="-7.3" transform="translate(-15.65 8.3)" overflow="visible"/><use xlink:href="#a" width="17.4" height="7.3" x="-1" y="-7.3" transform="translate(-15.65 -4.102)" overflow="visible"/><use xlink:href="#a" width="17.4" height="7.3" x="-1" y="-7.3" transform="translate(-15.65 -16.5)" overflow="visible"/><use xlink:href="#b" width="2.8" height="55.2" x="-1.4" y="-27.6" transform="translate(0 -5.833)" overflow="visible"/><use xlink:href="#c" width="28" height="47" x="-14" y="-23.5" transform="matrix(0 -.466 .466 0 20.529 -4.306)" overflow="visible"/><use xlink:href="#c" width="28" height="47" x="-14" y="-23.5" transform="matrix(0 -.466 -.466 0 -20.529 -4.306)" overflow="visible"/><use xlink:href="#c" width="28" height="47" x="-14" y="-23.5" transform="matrix(0 -.466 .466 0 20.529 -17.226)" overflow="visible"/><use xlink:href="#c" width="28" height="47" x="-14" y="-23.5" transform="matrix(0 -.466 .466 0 20.529 7.854)" overflow="visible"/><use xlink:href="#c" width="28" height="47" x="-14" y="-23.5" transform="matrix(0 -.466 -.466 0 -20.529 -17.226)" overflow="visible"/><use xlink:href="#c" width="28" height="47" x="-14" y="-23.5" transform="matrix(0 -.466 -.466 0 -20.529 7.854)" overflow="visible"/><use xlink:href="#c" width="28" height="47" x="-14" y="-23.5" transform="matrix(-.466 0 0 .466 -.126 21.633)" overflow="visible"/></g></symbol><symbol viewBox="-22.5 -21.4 44.9 42.9"><path fill="#008000" d="M1.9-18.1c-.7.6-1.3 1.2-1.9 2-.6-.8-1.3-1.5-2.1-2.1-.6-.5-1.3-.9-2.1-1.3-1.7-.9-3.5-1.3-5.5-1.3-3.4 0-6.3 1.2-8.7 3.6-2.4 2.4-3.6 5.4-3.6 8.8 0 4.7 2.5 9.7 7.5 14.8 6.7 5.9 11.5 10.7 14.5 14.3 3-3.6 7.8-8.4 14.4-14.3 5-5.1 7.6-10.1 7.6-14.8 0-3.4-1.2-6.4-3.6-8.8-2.4-2.4-5.4-3.6-8.8-3.6-1.9 0-3.7.4-5.4 1.3-.9.3-1.6.8-2.3 1.4z"/><path fill="#055905" d="M0 20.7v-36.9c.6-.7 1.2-1.4 1.9-1.9.7-.6 1.5-1 2.3-1.5 1.7-.9 3.5-1.3 5.4-1.3 3.4 0 6.4 1.2 8.8 3.6 2.4 2.4 3.6 5.4 3.6 8.8 0 4.7-2.5 9.7-7.6 14.8-6.6 6-11.4 10.8-14.4 14.4z"/><path stroke="#000" stroke-miterlimit="10" d="M1.9-18.1c-.7.6-1.3 1.2-1.9 2-.6-.8-1.3-1.5-2.1-2.1-.6-.5-1.3-.9-2.1-1.3-1.7-.9-3.5-1.3-5.5-1.3-3.4 0-6.3 1.2-8.7 3.6-2.4 2.4-3.6 5.4-3.6 8.8 0 4.7 2.5 9.7 7.5 14.8 6.7 5.9 11.5 10.7 14.5 14.3 3-3.6 7.8-8.4 14.4-14.3 5-5.1 7.6-10.1 7.6-14.8 0-3.4-1.2-6.4-3.6-8.8-2.4-2.4-5.4-3.6-8.8-3.6-1.9 0-3.7.4-5.4 1.3-.9.3-1.6.8-2.3 1.4z" fill="none"/></symbol><symbol id="e" viewBox="-6.8 -8.1 13.5 16.2"><path fill="#008000" d="M-2.1-7.8c-.2 0-.5.1-.6.3-.1.3 0 .6.3.8 1.9.9 1.8 3.4 1.8 3.4 0 .3.2.6.6.6.3 0 .6-.2.6-.6 0-.1.2-3.4-2.5-4.6 0 .1-.1.1-.2.1z"/><path fill="#008000" d="M.6-3.8c-.3.2-.4.4-.6.6l-.6-.6c-.2-.2-.4-.3-.6-.4-.5-.3-1-.4-1.6-.4-1 0-1.9.4-2.6 1.1-.7.7-1.1 1.6-1.1 2.6 0 1.4.7 2.9 2.2 4.4 2 1.7 3.4 3.2 4.3 4.2.9-1.1 2.3-2.5 4.3-4.2 1.5-1.5 2.2-3 2.2-4.4 0-1-.4-1.9-1.1-2.6-.7-.7-1.6-1.1-2.6-1.1-.6 0-1.1.1-1.6.4l-.6.4z"/><path fill="#055905" d="M0 7.7v-10.9c.2-.2.3-.4.6-.6l.6-.4c.5-.3 1-.4 1.6-.4 1 0 1.9.4 2.6 1.1.7.7 1.1 1.6 1.1 2.6 0 1.4-.7 2.9-2.2 4.4-2 1.7-3.4 3.1-4.3 4.2z"/><path stroke="#000" stroke-width=".5" stroke-miterlimit="10" d="M4.3 3.5c-2 1.7-3.4 3.1-4.3 4.2-.9-1.1-2.3-2.5-4.3-4.2-1.5-1.5-2.2-3-2.2-4.4 0-1 .4-1.9 1.1-2.6.7-.7 1.6-1.1 2.6-1.1.6 0 1.1.1 1.6.4.2.1.4.2.6.4-.1-.8-.4-2.3-1.8-2.9-.3-.1-.4-.5-.3-.8.1-.2.3-.4.6-.3.1 0 .1 0 .2.1 2 .9 2.4 3 2.5 4 .2-.3.4-.4.6-.5.5-.3 1-.4 1.6-.4 1 0 1.9.4 2.6 1.1.7.7 1.1 1.6 1.1 2.6 0 1.4-.7 2.9-2.2 4.4z" fill="none"/></symbol><symbol id="g" viewBox="-39.5 -46.6 75.3 83.2"><path fill="#CC1B2C" stroke="#1F282C" stroke-width=".5" stroke-linecap="round" stroke-miterlimit="10" d="M2.3-37.6s3.1 2.6 4.4 4.7l2.2 5.9 11.1-10.6h-17.7z"/><g stroke="#1F282C" stroke-miterlimit="10"><path fill="#FADE64" stroke-width=".5" d="M26.2-17.3l-.3-.3c-.9-1-1.7-2.1-2.4-3.3l-1.7-3.3c-.3-.5-.7-.8-1-1.2l-.5-.7-.5-.2c-.4-.4.7-1.3 1-1.5.4-.3.6-.9 1.2-.9.2.5.5.9.7 1.3.3.5.6 1.1 1 1.6l1 1 .5 1 .9 1.3c.5.7 1.1 1.4 1.5 2.1.7 1.2 1.2 2.4 1.3 3.8 0 .2 0 .5.1.6.2.2.6.4.9.6l2 1.6s-.4 3.2.4 3.7c.5.4 1 .3 1.1 1.1.1.7-.1 1.1-.8 1.3-.7.2-1.2-.3-1.5-.9-.2-.5.1-.9 0-1.3s-.7-.7-1-.9c-.4-.3-1.6-1-1.6-1s-.4-2.2-.5-2.9c-.1-.7-.5-1-.9-1.5-.4-.4-.6-.8-.9-1.1z"/><g stroke-width=".2" fill="none"><path d="M27.3-15.9c.4-.1 1-.4 1.2-.7M27.8-15.3c.3 0 1-.6 1.2-.9M27-16.2c-.1-.4-.2-.7-.1-1.1.1-.4.4-.8.5-1.3.2-.6.4-1.2.2-1.8M25.5-18c0-.8 0-1.4.4-2.1.3-.6.6-1.1.6-1.7 0-.3-.1-.7-.3-1M23.9-19.9c.1-.4-.1-.8 0-1.3l.4-.9c.3-.5.5-1 .5-1.5 0-.2 0-.6-.1-.8"/></g><path stroke-width=".5" d="M31.1-9.6c.2-.5.9-.5 1.4-.5" fill="none"/><path stroke-width=".2" d="M31.2-10.8c0-.8-.3-1.5-.3-2.2 0-.2.1-.6 0-.7-.1-.3-.6-.5-.8-.6-.3-.2-.8-.3-1.1-.6" fill="none"/><path fill="#FADE64" stroke-width=".5" d="M33.9-18.9c-.2.3-.5.5-.8.8-.3.3-1.5 1.3-1.3 2.2.4-.3.9-.4 1.2-.3.4 0 .6.5.6.9 0 .6-.8 1.5-1.5 1.5-.8 0-1.6-.8-1.8-1.5-.2-1.2.3-2.5 1.3-3.2.2-.2.5-.3.5-.3s-.4-.8-.5-1.1l-.6-1.1c-.3-.6-.7-1.2-1.1-1.8-.4-.5-1.5-2.6-1.8-3.1-.3-.4-.7-.2-1 0-.6.4-1.2.7-1.7 1.1l-1.5 1.1c-.8.5-1.5 1.2-2.3 1.6-.8.5-1.6.9-2.5 1.2-.4.2-1.2.4-1.5-.1-.4-.6-.2-1.3-.2-1.9l1.7-.6.5-.2.8-.3 2.4-1.3c.7-.4 1.2-.8 1.8-1.3.3-.2.6-.5.9-.8.4-.4.9-.7 1.4-1 .6-.3 1.4-.6 2-.2.5.3.8.7 1 1.2.5.9.9 1.8 1.3 2.7.9 1.6 2.2 3.4 2.9 5 .2.5 0 .5-.2.8z"/></g><path fill="#2E9952" stroke="#1F282C" stroke-width=".5" stroke-miterlimit="10" d="M31.9 17c0 1.2.1 2.2-.8 3.2-1.4 1.4-3.3 2.1-5.2 2.3-1.9.2-4.2 0-5.8-1.2-1.2-.9-2.1-2.3-3.1-3.4-1.3-1.4-2.9-2.9-4.8-3.5-1.8-.6-3.4-1.3-5.1-2.2-.7-.4-1.4-.5-2.3-.7-.3-.1-.6-.1-.8-.2l-2.3-.7c-3.1-.8-6.3-1-9.3-1.9-3.5-1.1-7.7-2.9-9.7-6-2.2-3.3-2.4-8-2.1-11.9l1.2-6.5c.1-2.3 1.3-4.7 2.3-6.8.6-1.2 1.9-1.3 3.1-1.5 1-.2 1.7.4 2.5.8 1 .5 2 1 2.9 1.7-.4-1-.3-2-.4-3.1-.1-.9.3-1.8.7-2.7-1.1-.4-2.5-1.6-3.5-2.2l-2.3-2.1c1-1.1-.2-2.9-.2-2.9s2.6-1.9 4.2-3.1h6.2c2.7 1.7 11.7 9.7 11.7 9.7s2.8-5.6 5.9-6.3c.8-.2 1.6-.4 2.5-.5 1.6-.3 3.2-.5 4.8-.2.8.2 2.7.6 2.6 1.7-.1.6-.7 1.2-1 1.6l-1.3 1.7-1.9 2.6-2 1.9c-.5.5-1.1.9-1.4 1.6-.3 1.1-.2 2.5.1 3.6l.8 2.7c.3 1.1.1 2.4.2 3.5.1 1 .6 1.7.8 2.6.2 1 .1 2.2.2 3.3.1 1.1.2 2.1.2 3.1 0 1.6 0 3.2-.1 4.8-.1 1-.1 3-1.3 3.5.8.6 1.8.7 2.8 1 .5.2 1.1.6 1.5.8.5.3 1.1.5 1.6.9.4.4.5.7 1.1.9 1 .5 2.3.5 3.2 1.2.9.7 2 1.3 2.7 2.2.8 1 1 2.8 1.2 4 0 .9-.2 1.8-.3 2.7z"/><path stroke="#1F282C" stroke-width=".2" stroke-miterlimit="10" d="M18.8 3.4c-1.3-.6-2.7-.3-4.1-.4" fill="none"/><g stroke="#1F282C" stroke-miterlimit="10" fill="none"><path stroke-width=".5" d="M-9-22.6c1.8 1.4 3.2 2.6 4.5 4.5 1.2 1.9 2.3 3.8 3.8 5.5M-8.7-6.8c-.6-.4-1.3-.7-1.8-1.3-.3-.3-.4-.8-.7-1.2-1.3-1.4-2.7-3.1-2.5-5.2"/><path stroke-width=".2" d="M-14.9-8.7c1 .5 3.3 1 4.1.1"/></g><path fill="#FADE64" stroke="#1F282C" stroke-width=".5" stroke-miterlimit="10" d="M-12.9-37.5h7.1c-5.2 1.2-6.7 3.1-6.7 3.1s1.9 1.5 2.2 1.8c-.6.5-1.4 1.3-1.9 1.9-.4-.3-.8-.6-1.2-1-.5-.4-.8-.8-1.2-1.2.3-.6.9-1.1 1.3-1.5-.4-.2-2-1.2-1.9-1.8.2-.7 2.3-1.3 2.3-1.3zM-17-4.4c.3-.9 1-1.6 1.8-2 .7-.4 2.7-1 3.5-.7 1 .4 1.7.4 2.5 1.1.7.7 1.5 1.3 2.1 2.1l.5.9.4.5c.2.3.2.6.3.9 0 .3.3.4.4.7.1.2 0 .5 0 .7l-.4 1.1c-.1.3.1.3.2.5s.1.3 0 .5c-.1.4-.3.7-.7.8-1 .3-1.7-1.2-.6-1.6-.1-1.1-.4-2.3-.8-3.3-.2-.6-.5-1.2-.8-1.7-.4-.4-.7-.4-1.1-.6-.4-.2-.6-.6-.9-.9-.7.5-2.4-.4-3.3 0-.9.4-1.5 1.5-1.8 2.4-.6 1.9-.1 4.4 1.2 6 .5.6 1.8 1.4 1.9 2.2.8.1 2 0 2.1.9.1.3 0 .6-.1.8-.2.3-.6.5-1 .6-.4.1-.6.1-.9-.1-.1-.1-.7-.9-.6-.9-2.3 0-3.8-3.5-4.7-5.1-1.3-2.3-2.2-4.8-2.7-7.5-.3-1.5-.4-2.9-.3-4.4 0-.3 0-1.5.4-1.4.5.1.9 2.6.9 3 .5 2.4.9 4.8 1.6 7.2l.3 1c.1.4.4.8.6 1.2 0-.4-.2-.7-.3-1-.1-.4-.1-.9-.1-1.3 0-1 .1-1.8.4-2.6z"/><path fill="#B37E47" stroke="#1F282C" stroke-width=".5" stroke-miterlimit="10" d="M-11.2 18.9c-.5-.3-1-.7-1.1-1.3-.1-.7 0-1.6 0-2.3 0-.5-.1-1.2.2-1.7.3-.4.8-.6 1.2-.8.1 0 .1-.5.1-.6.1-.2.2-.4.3-.5.9-.6 2.9-.7 3.5.3.8 1.2.7 2.7.3 4-.4 1.2-1 2.7-2.2 3.3-.5.2-1 .2-1.5 0-.2-.1-.5-.3-.8-.4z"/><path fill="#E0CAA5" stroke="#1F282C" stroke-width=".5" stroke-miterlimit="10" d="M5.6 15.1c-.4 2.8-.2 5.6-1.4 8.2-2 4.3-6.4 3.2-9.8 1.1-2.6-1.7-7.7-6.2-4.9-9.7l2.4-2.2c.6-.6.8-1.3 1.3-1.9.4-.6 1.1-1.2 1.6-1.7 1.2-1.1 2.6-1.7 4.2-1.6 1.8.2 3.5.7 4.9 1.5.8.5 1.9 1.3 2.4 2.1.6 1.1-.3 2.2-.5 3.2-.1.4-.1.7-.2 1z"/><path fill="#FAFAEE" d="M-7.1 12.4c.2 0 .4 0 .6.1.3.2 1.2 1.3.7 1.7-.4.4-2-1.4-2.2-1.2.3-.2.6-.5.9-.6zM-2.2 15.1c.4 0 .7.3 1 .5.2.3.5.8.5 1.1 0 .4-.3.6-.6.4-.3-.1-.4-.6-.7-.8-.1-.1-1.1-.5-1-.6.2-.3.4-.6.7-.6h.1z"/><path fill="#1F282C" d="M-7.1 12.5c.8-.3 1.2.5 1.1 1.2 0-.5-.6-1.1-1-.7l.3.3v.5c-.3-.2-.5-.4-.9-.6.1-.3.2-.5.5-.7zM-2.2 15.2c.8-.2 1.2.6 1.2 1.2 0-.5-.6-1.1-1-.7l.3.3v.5c-.3-.2-.5-.4-.9-.6 0-.3.1-.6.4-.7z"/><path stroke="#1F282C" stroke-width=".5" stroke-miterlimit="10" d="M-7 15.5c.4-.1.4-.5.6-.6.2-.1.5.1.8 0 .4-.2.6-.9.7-1.3.2-.5.5-.9.7-1.3.2-.6.2-.6.8-.9.5-.2 1-.6 1.6-.4M-2.4 11.6c.3.2 1 .8 1.3.3" fill="none"/><path stroke="#1F282C" stroke-width=".25" stroke-miterlimit="10" d="M-1.7 13.6c.6-.2 1-.7 1-1.3M-3.9 16c.4-.8 1.6.1 2 .5.5.5.7 1.5 1.7 1.2M-3.5 16.7c.7.8 1.4 1.3 2.5 1.3M-8.5 13.1c1.1-.5 1.7 1.3 2.8 1.2M-8.6 13.7c.6.8 1.5 1 2.4 1.1" fill="none"/><path fill="#1F282C" d="M-2 18.6c-.6-.1-1.3-.3-1.8-.7-.2-.2-.4-.3-.5-.6 0-.1-.3-.8-.2-.8-1 .1.5 1.8.7 2 .8.7 1.8.5 2.8.6.4.1.7.2 1.1.4-.3-.2-.5-.5-.9-.6l-1.2-.3zM-7 15.5c-.2-.2-.5-.3-.7-.3-.7-.1-1.1.1-1.2-.8 0-.2-.1-1.5-.4-.9-.4.7-.1 1.6.5 2 .6.4 1.4.2 2.1.2-.1-.1-.2-.2-.3-.2z"/><path stroke="#1F282C" stroke-width=".5" stroke-miterlimit="10" d="M3.9 16.3c.1-.4.8-.3 1 0 .2.2.5 1 .5 1.3" fill="none"/><g stroke="#1F282C" stroke-miterlimit="10"><path fill="#B37E47" stroke-width=".5" d="M5.3 18.8c0-.3.1-.6.4-.9-.4-.3-.4-1.3-.4-1.7 0-.3.3-1.7.6-1.8.3-.1 1.1.7 1.2 1 .3.6.2 1.1.3 1.7l.7 1.6c.2.8-.1 1.3-.5 1.9-.8 1.1-1.3 2.4-2.2 3.4-.3.3-.7.6-.9.9l-.2.6c-.2.4-.6.3-1 .3-1 0-2-.2-3-.5-.6-.2-2-.5-2.1-1.3-.1-.5.4-.9.7-1.1l1.5-1.8c.5-.5 1-.3 1.7-.4.2-.6.4-1.4 1.2-1.5.7 0 1.3-.1 2.1-.3-.1.1-.1 0-.1-.1z"/><path stroke-width=".2" d="M4.3 21c-.2 0-.4 0-.7-.1-.6-.1-1.4-.1-1.9.3-.3.2-.3.6-.4.9-.1.4-.3.7-.6 1.1-.2.3-.4.7-.7.9M2 24.2l.7-1.2c.1-.2.1-.5.3-.7 0-.1.1-.2.2-.3.2-.3.3-.6.6-.8.3-.2.7-.2 1.1-.3.3-.1.7-.4.9-.7.2-.3.9-1.4.4-1.7-.4-.2-.5.2-.5.5M3.4 25c.2-.5.5-.9.8-1.3.3-.5.5-1 .7-1.4.6-1 1.8-1.5 2.3-2.6.2-.4.2-.8.2-1.2-.1-.4-.1-.6-.4-.8" fill="none"/><path stroke-width=".5" d="M5.2 18.4c.5-.3.9-.7 1.5-.8.5 0 1.1.2 1.2.8" fill="none"/><path stroke-width=".2" d="M-14-34.9c.6.2 1.2.5 1.8.8.6.3 1.1.9 1.7 1.3.6.4 1.1 1 1.6 1.5.8.8 1.4 1.8 2.1 2.7" fill="none"/><path stroke-width=".2" d="M5.4 17.4c.3-.6 1.4-.8 1.9-.3M5.3 16.2c.1-.3.9-.4 1.2-.4.3 0 .5.2.7.3M-11.6 13.4c.8-.7 1.9-.7 2.8-.3" fill="none"/></g><path fill="#FADE64" stroke="#1F282C" stroke-width=".5" stroke-linecap="round" stroke-miterlimit="10" d="M19.9-37.6c-.4 0-.7 0-1.1.1-4.3.5-7.7 4.9-10 9l-.2.4v.4c.1 2.1.6 4.1 1.1 6 .3 1.1.5 2 .6 2.9.4 2.8.2 6.3 0 9.3-.2 3.1-1.2 6.3-2.1 9.4-.1.6-.3 1.3-.5 2-.5 1.9-1.4 4.3-2.4 6.4-.3.7 0 1.6.7 1.9.7.3 1.5 0 1.9-.7 1-2.3 2-4.8 2.5-6.8l.6-2.1c.9-3.2 1.9-6.6 2.2-10 .3-3.2.5-6.9 0-10-.2-1-.4-2-.7-3.1-.4-1.6-.8-3.4-1-5.1 1.8-3.1 4.4-6.9 7.6-7.2 1.8-.2 3.4.3 4.8 1.3l.5.6c.1.2.3.2.5.1s.4-.2.6-.4c.3-.2.8-.5 1-.9.3-.5 0-.9-.3-1.2-.3-.4-.8-.8-1.2-1.1-.9-.6-2-1-3-1.2-.9.1-1.5 0-2.1 0zM-2.3-37.6c3.2 2.1 7 6 8.3 9.9.2.8 2.4 10.5 2.1 16.6-.3 6.6-3.9 16-5 17.1l-1.2.7 1.7 2.3 1.1-.8c2.3-1.7 5.9-12.8 6.2-19.2.4-6.8-2.1-17-2.2-17.4v-.1c-1.3-3.9-3.4-6.8-6.4-9"/><g stroke="#1F282C" stroke-width=".2" stroke-miterlimit="10" fill="none"><path d="M0-37.6v1.2l3.3-.4-.4 2.8 2.7-.3-.9 2.5 2.7.1-1.7 2 3 1.3-1.8 2.4 2.6 1.2-1.9 1.9 2.4 1.4-1.9 1.7 2.2 1.5-2 1.5 2.5 1.4-2 2.1 2 .8-2.2 1.9 2.2 1.2-2.8 1.9 2.2 1.6-2.6 1.4 1.8 1.8-2.6 1.4 1.6 2-2.6.8 1.5 2.2-2.9.5 1.5 2.6M6.1 6.9l3.1-1.3-1.9-1.9 2.7-.8-1.5-2.1 2.4-.8-1.4-2.5 2.1-.7-1.3-2.5 2-1.4-1.4-2.2s1.9-1.2 1.8-1.2l-1.7-2.1 1.8-1.2-2.1-1.7 2-1.3-2-1.5 1.7-2.1-2.3-1.2 1.8-1.1-2.3-1.8 1.7-1.5-2.2-2.1 2.5-1.1-1.1-2.1h2.4l-.8-2.4 2.8.2.1-2.8 2.3 1.2.9-2.4 2.1 2.3 2-2 .7 2.7 1.9-1.4-.3 3.1"/></g><path fill="#CC1B2C" stroke="#1F282C" stroke-width=".25" stroke-miterlimit="10" d="M16.7-22.6c-.2 0-.4.1-.5.2-.5.4-1 .7-1.6 1.1-.5.3-1.1.6-1.6 1-1.1.8-2.2 1.8-3.2 2.9-.9 1-1.8 2.1-2.6 3.1l-.6.8c-1 1.2-1.8 2.5-2.6 3.8-.4.4-.8 1-1.2 1.6-3.8 5.5-7.2 9.9-11.4 13.6l-.3.3c-.5.4-1.2 1.1-1.7 1.2-.5.1-.8.5-.7 1 .1.5.5.8 1 .7 1-.1 1.9-1 2.6-1.6l.3-.3c4.3-3.9 7.7-8.4 11.6-14 .4-.5.8-1.1 1.2-1.7.8-1.2 1.6-2.5 2.6-3.7l.6-.8c.8-1.1 1.6-2 2.5-3 .9-1 2-1.9 3-2.7.4-.3.9-.6 1.4-.9.6-.4 1.3-.7 1.9-1.2.4-.3.4-.8.1-1.2-.3-.1-.5-.2-.8-.2z"/><path fill="#CC1B2C" stroke="#1F282C" stroke-width=".5" stroke-linecap="round" stroke-miterlimit="10" d="M2.1-29.3c-1 0-2.1-.1-3.1 0-.4 0-.8.2-1.2.3-1.2.2-2.4.6-3.5 1-1.2.4-2.1 1.4-2.1 2.7 0 .3-.1.7-.2 1 0 .1.1 1.5.1 1.5.6.1 1.4-.5 1.9-.8.7-.3 1.3-.6 2.1-.8l2.1-.6c.9-.2 1.8-.3 2.7-.4h4.4c1 0 1.9.3 2.8.5.8.2 1.7.4 2.5.5 1.3.3 2.5.6 3.7 1.1 1.1.5 2.1 1.4 2.9 2.4.1.1.4.6.6.5.2-.1.1-1.1.1-1.3v-2.1c0-.4.1-.9 0-1.3-.2-.5-.7-.8-1.1-1.1-1.2-.8-2.4-1.6-3.8-2-.8-.3-1.7-.3-2.6-.6-.7-.2-1.5-.4-2.2-.4-.3 0-.5.1-.8 0l-1.2-.1c-.9-.1-1.8-.1-2.7-.1-.5.2-.9.2-1.4.1z"/><path fill="#FADE64" stroke="#1F282C" stroke-width=".5" stroke-linecap="round" stroke-miterlimit="10" d="M13.7-26.3c0 .3.1 2.7-.4 2.7l-.4-.1c-1-.4-2-.7-3-.8l-1.8-.2c-.4 0-.9 0-1.3-.1-.5-.2-.3-1-.3-1.4 0-.7.1-1.4.2-2.1 0-.3-.1-.6.2-.7.2-.1.6-.1.8-.1h1.1c1.1 0 2.2.2 3.2.6.5.2 1 .4 1.5.7.3.3.2 1 .2 1.5zm-3.8.4l1.3.3.4.1.4.1c.1-.1 0-.5 0-.6l-.1-1.2c-.5-.2-1-.2-1.5-.3-.6-.1-1.4-.3-2-.3.1.5 0 1.1 0 1.6.3 0 .6.1.8.2.3 0 .5 0 .7.1z"/><g stroke="#1F282C" stroke-miterlimit="10"><path fill="#CC1B2C" stroke-width=".5" d="M19.1 13.3c.2.4.5.8.8 1.2.4.6.6 1.4 1.2 1.8.8.6 2.1.7 3 .8 1.9.2 4.8.2 5.4-2.1.4-1.6.5-3.4.1-5-.3-1.2-1.2-1.3-2.1-1.8-1.3-.7-2.2-1.4-3.7-1.4-2.2 0-4.8.5-5.5 3-.3 1.3.2 2.4.8 3.5z"/><path fill="#E0CAA5" stroke-width=".5" d="M19.8 12.1c.2-.1.4-.2.5-.3.5-.1.9.2 1.3.1.6-.1 1-.4 1.3-.9.8-1.5.6-3.5-.9-4.4-.6-.4-1.3-.4-2-.6-.7-.2-1.2-.5-2-.6-1.4-.1-2.8.3-4.2-.2-.7-.2-2.2-1.6-2.8-.8-.8 1 .9 2.3 1.6 2.6.4.3 1.4.7 1.8 1.2.4.6-.2.3-.5.1-.3-.2-.8-.3-1 .1-.3.3 0 .9.1 1.2 0 .1.5 1.1.4 1.1-.3-.1-.6 0-.9 0 0-.7-.5-1.9-1.4-1.8-.6.1-.6.9-.5 1.4 0 .2.6 2 .6 2l1.1.4c.3.1.4-.1.6-.1.3 0 .2 0 .5.2s.5.5.9.6c-.2.3-.8.7-.8 1.1 0 .6.5.6 1 .5.5-.2.8-.7 1.4-.8.5-.1 1 0 1.4-.5-.3.4-.9 1-.5 1.5.3.5.9.3 1.1-.2.2-.9 1.1-2.3 1.9-2.9z"/><path fill="#FADE64" stroke-width=".5" d="M19.3 14.8c0 .1 0 .2.1.2.3 1 1.3 2.1 2.2 2.5 1.3.6 2.8.9 4.2 1 .4 0 4.5.4 4.5.1.3-2.6.5-5.6-.3-8.2-.6-1.8-2.5-3.6-4.5-3.6 1.2 1.1 2.2 3 2.4 4.5.2 1.3 0 3.4-.1 4.7-2.1.4-7.1-1.4-8.8-3.1 0 .6.1 1.4.3 1.9z"/><g stroke-width=".25" fill="none"><path d="M18.2 10.8c-.4.1-.1.5-.2.7-.1.2-.3.3-.5.5-.3.4-.4.9-.2 1.3-.4.2-1.1.7-.8 1.2M16.8 10.6c-.2.2-.4.5-.4.9-.5.2-1.3.9-1.4 1.5-.4.1-1.1.2-1.2.8M13.4 10.2c.4.5-.7 2-.1 2.4M13.7 8.6c1.3.3 1.7 2 1.3 3.1M15.1 11c.2.1.5.2.6.5"/></g><path stroke-width=".2" d="M19.8 14.4l.7 2.3.5-1.3 1.7 2.2s.3-1.3.3-1.4l1 1.8.9-1.2 1.2 1.6.7-1.4 1.7 1.4-.4-1.8h1.9l-1.7-2.3 1.5-1.1s-1.6-.9-1.5-1l1.4-.6-1.6-.6s1.3-.8 1.2-.8l-1.6-.3 1-.6-1.7-.9.3-.4M22.5 11.9c.5 0 1.1-.3 1.6-.5s.9-.5 1.2-1c.3-.6.5-1.3.4-2 0-.3-.1-.5-.2-.7" fill="none"/></g><path fill="#B37E47" stroke="#1F282C" stroke-width=".5" stroke-miterlimit="10" d="M34.9 4.2h-.1l-43.3 4.6c-.5 0-.9.5-.9 1.1s.5.9 1.1.9l43.3-4.6c.5-.1.7-.5.6-1.1 0-.5-.2-.9-.7-.9z"/><path stroke="#1F282C" stroke-width=".25" stroke-miterlimit="10" d="M35.2 4.3c-.6 0-1.1.6-.9 1.2.2.5 1.2.9 1.4.2" fill="none"/><g fill="#1F282C"><path d="M11 8.2c-.4-.1-.9-.1-1.1.1-.2.3 1.1.8 1.4 0-.1 0-.2 0-.3-.1zM13.5 8c-.4-.1-.9-.1-1.1.1-.2.2 1.1.7 1.4-.1h-.3zM16 7.7c-.4-.1-.9-.1-1.1.1-.3.2 1.1.8 1.3-.1h-.2zM18.4 7.4c-.4-.1-.9-.1-1.1.1-.2.2 1.1.7 1.4-.1h-.3zM20.9 7.1c-.4 0-.9-.1-1.2.2-.2.2 1.1.7 1.4-.1l-.2-.1z"/></g><g stroke="#1F282C" stroke-miterlimit="10"><path fill="#CC1B2C" stroke-width=".5" d="M-5.1-1.7c-.3-.5-.5-.8-1-1.2-.6-.4-.9-.8-1.1-1.5-.3-1.1-.4-2.3-.4-3.4.1-1.9.5-4.8 2.9-5 1.7-.1 3.4 0 5 .6 1.4.5 1.2 1.7 1.5 3 .5 2.3 2.5 4.3 2.4 6.7 0 1.5-1.5 2.5-2.7 3.1-2.5 1.2-5.1.4-6.4-2-.1-.1-.2-.2-.2-.3z"/><path fill="#E0CAA5" stroke-width=".5" d="M2.5 12.8c.2.9.7 1.9-.4 2.4-.5-.9-1-1.7-1.4-2.7-.4-1-.6-2-.9-3.1-.3-1.8-.7-3.7-.8-5.6-.1-.9 0-1.9-.3-2.8 0-.2-.1-.4-.1-.5-.1-.5-.1-.8.3-1.4.7-.8 1.6-1.1 2.5-1.4 1.4-.4 1.6-.1 2 1.2l1.1 2.2 1 2.6c.4.8.5 1.3 1.1 1.9.7.7 1.1 1.3 1.5 2.1.4.8 1.6.9 1.9 1.6.4 1.2-1.3.5-1.9.4v.3l-1.5.2c-.8.2-.4.3-.9.8-1 1-3.2.8-3.4-.8.1.9 0 1.8.2 2.6z"/><path fill="#FADE64" stroke-width=".5" d="M-6.2-2.5c0-.1-1.3-1.1-1.5-1.2-.4-.5-.6-1-.8-1.6-.3-1.1-.4-2.3-.4-3.4.1-1.9.5-4.8 2.9-5 1.8-.2 4.1.3 5.7 1.1.8.4 1.5.9 1.9 1.7.1.2.6 2.4.5 2.4-2.1-1-5-3.1-7.4-2.1-1.1.5-1 2.2-1 3.2.1 1.7.2 3.3.1 4.9z"/><g stroke-width=".25" fill="none"><path d="M2.4 10.2c-.4-.7-.4-1.7-.9-2.4M3.2 7c.5.8.4 2.2 1.1 2.9.5.5 1.5.4 2.1.3M5.1 6.5c.6 1 1.2 2.3 2.3 2.7l1 .3"/></g><path fill="#E0CAA5" stroke-width=".5" d="M13.5 9.4c-.4-.3-1.2-.2-1.3-.8-.1-.6.6-.7 1-.6.7.1.9.5 1.3 1"/><path stroke-width=".2" d="M-7.9-4l.8-.5-1.2-1.4h1.2l-1.4-2 1.8.5-1.3-2.4 1.3.6-1.1-2.4s1.8 1.1 1.9 1.1l-.2-2.5 2.1 1.8s.3-1.5.4-1.5l1.2 1.7.7-1.5 1 1.9.3-1.1 1.1 1.7v-1.1s1.1 2.1 1.3 2" fill="none"/></g><path fill="#CC1B2C" stroke="#1F282C" stroke-width=".5" stroke-miterlimit="10" d="M-20.4-10.6c-.9.1-1.4-1-1.6-1.6-.2-.5.1-.9 0-1.4 0-.5-.3-.9-.5-1.3-.4-1-.5-2-.3-3.1.6-.2 2.4-.5 2.9-.2-.1.8-.2 1.6-.2 2.3 0 .6-.2 1.4 0 2 .2.6.6.8.6 1.5.1.5-.4 1.6-.9 1.8z"/><path fill="#2E9952" stroke="#1F282C" stroke-width=".5" stroke-miterlimit="10" d="M.4 33.4l-1.1.5c-.4.1-.8.1-1.2.3-1 .3-2 .6-3 .7-4.2.5-9.2-1.4-11.5-5.2-2.1-3.5-2.1-8.1-2-12.1 0-1.6-.1-2.7-.5-4.1-.1-.4-.3-1.9-.7-2.1 1 .3 2.2 1.7 2.8 2.6.7 1.2 1 2.5 1.2 3.9.3 3.1.1 6.8 1.9 9.6 1.5 2.2 4.2 4 6.7 4.8 1.6.5 3.3.8 4.9.9.8.1 1.6.2 2.5.2z"/><path fill="#FADE64" stroke="#1F282C" stroke-width=".5" stroke-miterlimit="10" d="M-17.3 26.2c-.1 1.3.4 3.3-.6 3.2-.1.7-.9 1.6-1.7 1.3 0 1-1.7 1-1.7 1.1 0 .6-.3.6-.8.8-.4.2-.6.5-.9.7-.6.4-1.8.2-2.3-.2-.4.5-.4.9-1.1 1-1.3.2-3.1-.6-4.1-1.3-.8-.6-.7-.8-.7-1.6s-.7-1.9-.3-2.7c.3-.7 1.1-1 1.8-1.2l1.4-.6c.6-.1 1.1.1 1.7-.2.6-.3.8-.5 1.5-.5.7.1.8-.1 1.5-.3.6-.2 1.1.2 1.8.2s.9-.5 1.4-.9c.6-.5 1.3-.7 2.1-.6.4 0 1.5.6 1.7.6-.5.2-.7.6-.7 1.2z"/><path fill="#CC1B2C" stroke="#1F282C" stroke-width=".5" stroke-miterlimit="10" d="M-15.7 24.2c0 .1-.1.1-.2.2-.3.3-1.1.4-1.5.6-.7.4-1.4 1.1-2.1 1.3l-2.1.1.4-.1c-1.2-.2-2.9.8-4-.3l.2-.1c-1.9.1-3-.5-3.9-2.2-.4-.7-1.3-1.1-1.6-1.8l-.1-1.2c-.2-.4-.7-.5-.9-.8-.3-.6-.5-2 0-2.5-.1-.8-.7-2.5.3-3-.2-1.8 1.9-1.6 2.8-.7-.2-.4-.3-.9-.6-1.2.9.1 1.9.3 2.5 1 .7.8.5 1.5.7 2.4 1.5-.6 2.5 1 2.6 2.4.4.1.9.3 1.3.6.6-.5 1.6 0 2.2.1 1.1.1 1.6 1.2 2 2.1.5 1.1 1 1.7 1.7 2.7.3.2.4.2.3.4z"/><path fill="#FADE64" stroke="#1F282C" stroke-width=".5" stroke-miterlimit="10" d="M15.5 35.5c-.2.7-1.1 1.3-1.6.5-.3-.4-.2-.9-.2-1.3s.3-1.3.1-1.6c-.4-.8-2.3-1.1-3-1.3-2.8-1-6.2.3-8.9 1.3-1.9.8-3.8 1.6-5.8 1.9-4.2.5-9.2-1.4-11.5-5.2-1.3-2.1-1.4-4.8-1.9-7.2-.4-2.5-.3-5-.8-7.5-.3-1.5-.6-2.5-1.7-3.6-.4.8-1.1 1.5-2.1 1.4-.8-.2-1.5-1-1-1.8 1.4-2 4.4.2 5.6 1.3.3.3.6.6.9 1 1 1.3 1.5 2.9 1.7 4.6.3 3.6.1 7.5 2.5 10.5 1.8 2.4 5 3.6 7.9 3.6 2.2 0 4.1-.8 6.1-1.7.4-.2.9-.4 1.3-.5 2-.8 4.4-1.1 6.5-.6 1.1.3 2.1.9 3 1.7.8.7 1.6 1.6 2.2 2.4.4.5.9 1.4.7 2.1z"/><path stroke="#1F282C" stroke-width=".2" stroke-miterlimit="10" fill="none" d="M-17.5 12.5l-.3 1.4 1.8.5-1.1 1.8 1.9 1-1.5 2.3 2 .6-1.7 2.5 2 .6-1.2 2.6 1.7.5-1 2.8 2.2-.4.2 2.8 2.6-.6.3 2.2 3.4-1.2 1 1.9 1.9-2.2 1.5 2.2 1.6-2.1 2.2 1.1 1.1-2.9 1.7 1.5 1.3-2.3 1.8 1.6 1-1.4 1 1.4.9-.7.8 1.2 1-.3"/><path fill="#1F282C" d="M-16.9 12.8l-.1 1 1.7.4-1 1.7 1.8 1-1.3 2.2 2 .6-1.6 2.7 1.9.5-1.4 2.6 1.6.5-.9 2.6 2.1-.3.1 2.6 2.5-.5.4 2.3 3.2-1.1 1 1.8 1.8-2.1 1.4 2.1 1.5-2 2.1 1.1 1.3-3.1 1.6 1.4 1.2-2.4 1.8 1.6 1.3-1 .8 1.2 1-.7.8 1.2.5-.1-2.3-1.8s-9.1 0-9.2-.1l-10.7-2.9-3.2-7.8-1.5-3.5-2.2-1.7z"/><path fill="#CC1B2C" stroke="#1F282C" stroke-width=".5" stroke-miterlimit="10" d="M3.1 29.9c-.4.2-.9.4-1.3.5-2 .8-3.9 1.7-6.1 1.7-2.9 0-6.1-1.3-7.9-3.6-2.3-3-2.1-6.9-2.5-10.5-.2-1.8-.6-3.3-1.7-4.6 0-.2 1.6.9 2.2 1.5.7.7 1.4 1.3 2.2 1.9 1.9 1.7 3.5 3.8 5.8 5 1.8 1 3.9 1.6 6 2.2 3.7 1 7.6 1.9 10.5 4.5 1.2 1 2.7 2.7 2.3 2.6-.9-.8-1.9-1.4-3-1.7-2-.7-4.5-.3-6.5.5z"/><path fill="#2E9952" stroke="#1F282C" stroke-width=".5" stroke-miterlimit="10" d="M-1.5 31.5c1.2 0 2.3-.5 3.4-.8.4 1.1 1.4 1.7.5 2.8-.5.6-1.1.7-1.9.7-.7-.1-1.4 0-2.1.1 0 .6-.9.7-1.4.8-.3 0-.7 0-1.1-.1 0 0-.7-.4-.6-.4-1 .3-2.9 1.6-3.9.6-.7-.7-.6-2.8.2-3.4.9-.7 2.6.4 3.7.2 1.2-.3 2-.6 3.2-.5z"/><g stroke="#1F282C" stroke-width=".2" stroke-miterlimit="10" fill="none"><path d="M-20.9-8.5c.5-.1 1.1-.6 1.4-.9M-20.6-6.9c.5-.4.9-.7 1.5-1M-20.5-5.5c.1-.2.5-.4.7-.6.2-.2.4-.5.7-.6M-20.1-3.9l.6-.6.6-.7M-19.7-2.4c.4-.5.8-.9 1.1-1.4M-19.2-1.4s.1-.2.2-.2c.3-.5.5-.9.7-1.4M-18.6.5c.3-.5.5-1 .7-1.6M-18.1 1.7c.2-.1.2-.4.3-.6.1-.4.2-.7.5-1M-17.2 2.7c-.3-.3.3-.8.4-1.1-.5-.4-.2-.6-.1-1.1.2-.6.4-1 .9-1.3M-16.1 3.2c-.4-.4-.6-.8-.4-1.4.1-.4.4-.6.6-.8M-15.2 4.5c-.5-.1-.6-1-.6-1.4 0-.4.2-.8.4-1.1M-13.9 5.8c-.5-.1-.7-.8-.7-1.2 0-.2.1-.8.3-1M-13 6.8c-.3.1-.5-.3-.6-.5-.2-.4-.3-.7-.3-1.2 0-.3.1-.8.4-1M-16.3 4.2c-.3-.3 0-.8.2-1M-15.1 5.7c-.3-.2-.4-.9-.2-1.2M-14.4 6.3l-.2-.6v-.7M-12.3 7.6c-.7-.3-1.1-1.8-.2-2.2M-17.4-1.3c-.3-.4 1.2-1.5 1.6-1.5M-17.4-3.4c-.1-.4.7-.7 1-.8.4-.1.7-.1 1.1 0M-16.3-5.5c.6-.4 1.7-.2 2.2.3M-14-6.7c.3 0 .7.3.9.5.2.2.5.5.6.8M-12-7.1c.5.3.8 1.1 1.2 1.6M-8.8-5.7c.3.4-.1 1.1-.4 1.4M-8.2-3l.4-.9M-7.3-1.4c.1-.3.3-.5.5-.7l.3-.3M-7.2.1l.6-.7c.3-.3.6-.5.8-.8M-7.3 1.2c.5 0 1.6-.4 1.7.4"/></g><path stroke="#1F282C" stroke-width=".2" stroke-miterlimit="10" d="M31.7-14.7c-.3-.5-.2-.7.1-1M20.3 18.5c-1.4-.4-.3-2.8-1-3.7 0 .9-.5 1.7-.4 2.6" fill="none"/><g><g stroke="#000" stroke-miterlimit="10"><path fill="#00AFE9" stroke-width=".5" d="M-29.7-33.3c0 .2 0 .3-.1.5-.1.5-.5.9-1 1.1-.6.2-1.2.4-1.7.7-.5.3-.9.8-1.4 1 .1-.5 0-1 0-1.5l-.2-1.3v-.9c0-.5.3-.8.6-1.2.6-.8 1.3 0 1.7.6.1-.3.3-.8.2-1.1-.1-.6-.7-1-1.1-1.4-.5-.4-1-.8-1.5-1.1-.4-.2-1-.6-1-1.1 0-.5.6-.1.8.1l1.3 1c.5.2.9.4 1.3.7.4.4.6.8.8 1.3.1.4.2.7.2 1.1 0 .2.1.8-.1.9.2-.2.7-.4.9-.3.3.1.3.6.3.9z"/><path stroke-width=".25" d="M-33.1-31.7l1.5-1.3c.4-.4.6-1 .6-1.6" fill="none"/></g><path fill="#209747" stroke="#000" stroke-width=".5" stroke-miterlimit="10" d="M-27.8-30.5c-.4-2.1-1.3-4.2-2.9-5.6-1.5-1.3-3.5-1.8-4.8-3.2-1.3-1.4-2.7-4.1-1.6-5.9.4-.8 1.5-1.1 2.3-1.1-1.2-.1-1.1 1.9-1 2.6.2 2.2 1.5 3.4 3.3 4.6 1.6 1 3.1 2.1 4.7 3.2.6.4 1.1.6 1.7.8.5.2 1.1.7 1.7.8-.6-.9-.6-2.1.6-2.4 1.8-.4 3.9 2.9 4.8 4.1.5.7.9 1.5 1.7 2-1.5-.7-3-.9-4.6-.7-1.4.2-4.7.2-3.5-2.1.3 0-1.6-1.6-2.7-1.7.4 1.7 3.6 8 .7 9-.1 0-.2-3.1-.2-3.5-.1-.4-.2-.7-.2-.9z"/><path fill="#008000" d="M-26.2-27.6c-.4.3-.7.7-1 1.1-.3-.4-.7-.8-1.2-1.2-.3-.3-.7-.5-1.1-.7-.9-.5-1.9-.7-3-.7-1.9 0-3.5.7-4.8 2-1.3 1.3-2 2.9-2 4.8 0 2.6 1.4 5.3 4.1 8.1 3.6 3.2 6.2 5.8 7.9 7.8 1.7-2 4.3-4.6 7.9-7.8 2.8-2.8 4.2-5.5 4.2-8.1 0-1.9-.7-3.5-2-4.8-1.3-1.3-2.9-2-4.8-2-1 0-2 .2-3 .7-.4.2-.8.5-1.2.8z"/><path fill="#055905" d="M-27.2-6.3v-20.2c.3-.4.6-.7 1-1.1.4-.3.8-.6 1.3-.8.9-.5 1.9-.7 3-.7 1.9 0 3.5.7 4.8 2 1.3 1.3 2 2.9 2 4.8 0 2.6-1.4 5.3-4.2 8.1-3.6 3.3-6.2 5.9-7.9 7.9z"/><path stroke="#000" stroke-width=".5" stroke-miterlimit="10" d="M-26.2-27.6c-.4.3-.7.7-1 1.1-.3-.4-.7-.8-1.2-1.2-.3-.3-.7-.5-1.1-.7-.9-.5-1.9-.7-3-.7-1.9 0-3.5.7-4.8 2-1.3 1.3-2 2.9-2 4.8 0 2.6 1.4 5.3 4.1 8.1 3.6 3.2 6.2 5.8 7.9 7.8 1.7-2 4.3-4.6 7.9-7.8 2.8-2.8 4.2-5.5 4.2-8.1 0-1.9-.7-3.5-2-4.8-1.3-1.3-2.9-2-4.8-2-1 0-2 .2-3 .7-.4.2-.8.5-1.2.8z" fill="none"/><path stroke="#000" stroke-width=".25" stroke-miterlimit="10" d="M-25.8-34.4c.9.6 1.9 1 3 1.2 1.1.2 2.3.3 3.3.8" fill="none"/></g></symbol><symbol viewBox="-15.5 -15.7 31.1 31.3"><path fill="#E60000" d="M2.9 13c1.4 1.4 2.6 2.1 3.8 2.1 2.3 0 4.3-.8 5.9-2.5 1.6-1.7 2.5-3.7 2.5-6 0-3.3-1.7-7-5.2-11-2-2.3-5.3-5.9-9.9-10.6-4.6 4.7-7.8 8.3-9.8 10.6-3.5 4.1-5.2 7.7-5.2 11 0 2.3.8 4.3 2.5 6 1.7 1.6 3.7 2.5 6 2.5 1.2 0 2.4-.7 3.8-2.1.1-.1 1-1.3 2.8-3.5.4.6 1.4 1.8 2.8 3.5z"/><path fill="#A50A0A" d="M6.7 15.1c-1.2 0-2.4-.7-3.8-2.1-1.4-1.7-2.4-2.9-2.9-3.5v-24.5c4.6 4.7 7.9 8.3 9.9 10.6 3.5 4.1 5.2 7.7 5.2 11 0 2.3-.8 4.3-2.5 6-1.7 1.7-3.6 2.5-5.9 2.5z"/><path stroke="#000" stroke-miterlimit="10" d="M2.9 13c1.4 1.4 2.6 2.1 3.8 2.1 2.3 0 4.3-.8 5.9-2.5 1.6-1.7 2.5-3.7 2.5-6 0-3.3-1.7-7-5.2-11-2-2.3-5.3-5.9-9.9-10.6-4.6 4.7-7.8 8.3-9.8 10.6-3.5 4.1-5.2 7.7-5.2 11 0 2.3.8 4.3 2.5 6 1.7 1.6 3.7 2.5 6 2.5 1.2 0 2.4-.7 3.8-2.1.1-.1 1-1.3 2.8-3.5.4.6 1.4 1.8 2.8 3.5z" fill="none"/></symbol><symbol viewBox="-9.1 -9.2 18.3 18.4"><path fill="#fe0" d="M1.7 7.7c.8.8 1.5 1.2 2.2 1.2 1.4 0 2.5-.5 3.5-1.5s1.5-2.2 1.5-3.5c0-1.9-1-4.1-3-6.5-1.3-1.3-3.2-3.4-5.9-6.2-2.7 2.8-4.6 4.9-5.8 6.3-2 2.3-3.1 4.5-3.1 6.4 0 1.4.5 2.5 1.5 3.5s2.2 1.5 3.5 1.5c.7 0 1.4-.4 2.2-1.2 0 0 .6-.7 1.7-2.1.3.4.9 1.1 1.7 2.1z"/><path fill="#B2A100" d="M3.9 8.9c-.7 0-1.4-.4-2.2-1.2-.8-1-1.4-1.7-1.7-2.1v-14.4c2.7 2.8 4.6 4.9 5.8 6.3 2 2.4 3 4.6 3 6.5 0 1.4-.5 2.5-1.5 3.5-.9.9-2 1.4-3.4 1.4z"/><path stroke="#000" stroke-width=".589" stroke-miterlimit="10" d="M1.7 7.7c.8.8 1.5 1.2 2.2 1.2 1.4 0 2.5-.5 3.5-1.5s1.5-2.2 1.5-3.5c0-1.9-1-4.1-3-6.5-1.3-1.3-3.2-3.4-5.9-6.2-2.7 2.8-4.6 4.9-5.8 6.3-2 2.3-3.1 4.5-3.1 6.4 0 1.4.5 2.5 1.5 3.5s2.2 1.5 3.5 1.5c.7 0 1.4-.4 2.2-1.2 0 0 .6-.7 1.7-2.1.3.4.9 1.1 1.7 2.1z" fill="none"/></symbol><symbol id="d" viewBox="-50 -85 100 170"><path fill="#FAFAEE" d="M-43-84.5c-3.6 0-6.5 2.9-6.5 6.5v156c0 3.6 2.9 6.5 6.5 6.5h86c3.6 0 6.5-2.9 6.5-6.5v-156c0-3.6-2.9-6.5-6.5-6.5h-86z"/><path d="M43 84c3.3 0 6-2.7 6-6v-156c0-3.3-2.7-6-6-6h-86c-3.3 0-6 2.7-6 6v156c0 3.3 2.7 6 6 6h86m0 1h-86c-3.9 0-7-3.1-7-7v-156c0-3.9 3.1-7 7-7h86c3.9 0 7 3.1 7 7v156c0 3.9-3.1 7-7 7z"/></symbol><symbol id="h" viewBox="-42 -77 84 154"><path d="M-41.5-38.5c-.3 0-.5.2-.5.5v76c0 .3.2.5.5.5s.5-.2.5-.5v-76c0-.3-.2-.5-.5-.5zM39.5-77h-79c-1.4 0-2.5 1.1-2.5 2.5 0 .3.2.5.5.5s.5-.2.5-.5c0-.8.7-1.5 1.5-1.5h79c.8 0 1.5.7 1.5 1.5 0 .3.2.5.5.5s.5-.2.5-.5c0-1.4-1.1-2.5-2.5-2.5zM41.5-38.5c-.3 0-.5.2-.5.5v76c0 .3.2.5.5.5s.5-.2.5-.5v-76c0-.3-.2-.5-.5-.5zM41.5 74c-.3 0-.5.2-.5.5 0 .8-.7 1.5-1.5 1.5h-79c-.8 0-1.5-.7-1.5-1.5 0-.3-.2-.5-.5-.5s-.5.2-.5.5c0 1.4 1.1 2.5 2.5 2.5h79c1.4 0 2.5-1.1 2.5-2.5 0-.3-.2-.5-.5-.5z"/></symbol><symbol viewBox="-14.4 -15.9 28.8 31.9"><path fill="#028C02" d="M3.1-12.4c0-.8-.3-1.6-.9-2.2-.6-.6-1.3-.9-2.2-.9-.8 0-1.6.3-2.2.9-.5.7-.8 1.4-.8 2.2 0 .8.3 1.6.9 2.2.6.6 1.3.9 2.2.9.8 0 1.6-.3 2.2-.9.5-.6.8-1.3.8-2.2z"/><path fill="#046604" d="M2.2-14.6c.6.6.9 1.3.9 2.2 0 .8-.3 1.6-.9 2.2-.6.6-1.3.9-2.1.9v-6.1c.8 0 1.5.3 2.1.8z"/><path stroke="#000" stroke-miterlimit="10" d="M3.1-12.4c0-.8-.3-1.6-.9-2.2-.6-.6-1.3-.9-2.2-.9-.8 0-1.6.3-2.2.9-.5.7-.8 1.4-.8 2.2 0 .8.3 1.6.9 2.2.6.6 1.3.9 2.2.9.8 0 1.6-.3 2.2-.9.5-.6.8-1.3.8-2.2z" fill="none"/><path fill="#D9D900" d="M13.9 1.5c0-3.8-1.3-7.1-4-9.8-2.7-2.7-6-4-9.8-4s-7.1 1.3-9.9 4c-2.7 2.7-4 6-4 9.8 0 3.8 1.4 7.1 4 9.8 2.7 2.7 6 4.1 9.9 4.1s7.1-1.4 9.8-4.1c2.7-2.7 4-5.9 4-9.8z"/><path fill="#99950A" d="M.1 15.4v-27.8c3.8 0 7.1 1.4 9.8 4 2.7 2.7 4 6 4 9.8 0 3.8-1.3 7.1-4 9.8-2.8 2.9-6 4.2-9.8 4.2z"/><path fill="#B30000" d="M-13.9 1.5c0-1.8.3-3.5.9-5.1h26c.6 1.6.9 3.3.9 5.1v.9h-27.7c-.1-.3-.1-.6-.1-.9z"/><path fill="#00B300" d="M5.8-10.9c-1.7-.8-3.5-1.2-5.5-1.2s-4 .4-6 1.2c-1.4 1-2.4 2-3 2.9-.6.8-.7 1.3-.3 1.4.3 0 1.1-.3 2.5-.9l4.2-2.1c.5 2 1.2 3 2.3 3 1.1 0 1.8-1 2.3-3.1.8.4 2.2 1.1 4.3 2.1 1.3.7 2.1 1 2.4.9.4-.1.3-.6-.3-1.4-.5-.9-1.5-1.8-2.9-2.8z"/><path d="M3.2 9.3c0-.9-.3-1.6-.9-2.2-.6-.6-1.4-.9-2.3-.9-.9 0-1.6.3-2.2.9-.6.6-.9 1.4-.9 2.2 0 .9.3 1.6.9 2.2.6.6 1.4.9 2.2.9.9 0 1.6-.3 2.2-.9.7-.5 1-1.3 1-2.2z"/><path stroke="#1A171B" stroke-width=".65" fill="none" d="M.1 12.4v3"/><path fill="#087208" d="M9.1-6.6c-.3 0-1.1-.3-2.5-1-2.1-1-3.5-1.7-4.3-2.1-.4 2.1-1.2 3.1-2.2 3.1v-5.5h.3c2 0 3.8.4 5.5 1.2 1.4 1 2.4 2 3 2.9.5.8.6 1.3.2 1.4z"/><path fill="#750B0B" d="M.1 2.4v-6h12.9c.6 1.6.9 3.3.9 5.1v.9h-13.8z"/><path stroke="#000" stroke-miterlimit="10" d="M13.9 1.5c0-3.8-1.3-7.1-4-9.8-2.7-2.7-6-4-9.8-4s-7.1 1.3-9.9 4c-2.7 2.7-4 6-4 9.8 0 3.8 1.4 7.1 4 9.8 2.7 2.7 6 4.1 9.9 4.1s7.1-1.4 9.8-4.1c2.7-2.7 4-5.9 4-9.8z" fill="none"/></symbol><symbol id="f" viewBox="-3 -6.5 6 13"><path d="M-3 6.5h1.8v-9.5c0-.3 0-.5.1-.9.1-.3.2-.5.4-.7.1-.2.4-.3.7-.3s.6.1.8.3c.2.2.3.4.4.7l.1.9v9.5h1.7v-9.6c0-.8-.1-1.5-.4-2s-.6-.8-1-1c-.5-.3-1-.4-1.6-.4-.6 0-1.1.1-1.6.4-.4.2-.8.5-1 1-.3.5-.4 1.2-.4 2v9.6z"/></symbol><symbol viewBox="-1.4 -31 2.8 62"><path fill="#930" d="M.5-27.6c-.2.1-.3.1-.5.1-.3 0-.5-.1-.8-.2v57.1c.4 2.1.9 2.1 1.2 0v-57z"/><path fill="#ff0" d="M-.8-27.8c.2.2.5.2.8.2.2 0 .3 0 .5-.1.1-.1.2-.2.3-.2.3-.3.4-.6.4-.9 0-.3-.2-.8-.4-1.4-.3-.6-.7-.8-1-.6-.3.2-.5.5-.8.9-.2.4-.4.8-.4 1.1 0 .3.1.6.4.9.1 0 .2.1.2.1z"/><path stroke="#000" stroke-width=".3" stroke-linecap="round" stroke-linejoin="round" stroke-miterlimit="3" d="M-.8-27.8v57.1c.4 2.1.9 2.1 1.2 0v-56.9c.1-.1.2-.2.3-.2.3-.3.4-.6.4-.9 0-.3-.2-.8-.4-1.4-.3-.6-.7-.8-1-.6-.3.2-.5.5-.8.9-.2.4-.4.8-.4 1.1 0 .3.1.6.4.9.2-.1.3 0 .3 0zm1.3.2c-.2.1-.3.1-.5.1-.3 0-.5-.1-.8-.2" fill="none"/></symbol><symbol id="b" viewBox="-1.4 -27.6 2.8 55.2"><path fill="#930" d="M.5-24.3c-.2.1-.3.1-.5.1-.3 0-.5-.1-.8-.2v51.4c.4.6.9.6 1.2 0v-51.3z"/><path fill="#ff0" d="M-.8-24.4c.2.2.5.2.8.2.2 0 .3 0 .5-.1.1-.1.2-.2.4-.2.3-.3.4-.6.4-.9 0-.3-.1-.8-.4-1.4-.3-.6-.7-.8-1-.6-.3.2-.5.4-.8.8-.2.4-.4.8-.4 1.2 0 .3.1.6.4.9l.1.1z"/><path stroke="#000" stroke-width=".3" stroke-linecap="round" stroke-linejoin="round" stroke-miterlimit="3" d="M-.8-24.4v51.4c.4.6.9.6 1.2 0v-51.2c.1-.1.2-.2.4-.2.3-.3.4-.6.4-.9 0-.3-.1-.8-.4-1.4-.3-.6-.7-.8-1-.6-.3.2-.5.4-.8.8-.2.4-.4.8-.4 1.2 0 .3.1.6.4.9.1-.1.2 0 .2 0zm1.3.1c-.2.1-.3.1-.5.1-.3 0-.5-.1-.8-.2" fill="none"/></symbol><symbol id="a" viewBox="-1 -7.3 17.4 7.3"><path stroke="#000" stroke-width="1.5" stroke-linecap="round" stroke-linejoin="round" stroke-miterlimit="3" d="M-.2-1.2c2.9.7 5.7.7 8.6-.1 3.2-.9 5.6-2.7 7.3-5.2" fill="none"/><path stroke="#E6E600" stroke-linecap="round" stroke-linejoin="round" stroke-miterlimit="3" d="M-.2-1.2c2.9.7 5.7.7 8.6-.1 3.2-.9 5.6-2.7 7.3-5.2" fill="none"/></symbol><use xlink:href="#d" width="100" height="170" x="-50" y="-85" transform="matrix(1 0 0 -1 50 85)" overflow="visible"/><g><g><g><use xlink:href="#e" width="13.5" height="16.2" x="-6.8" y="-8.1" transform="matrix(-1 0 0 1 90 134)" overflow="visible"/><use xlink:href="#e" width="13.5" height="16.2" x="-6.8" y="-8.1" transform="matrix(-1 0 0 1 10 134)" overflow="visible"/><use xlink:href="#e" width="13.5" height="16.2" x="-6.8" y="-8.1" transform="matrix(1 0 0 -1 90 36)" overflow="visible"/><use xlink:href="#e" width="13.5" height="16.2" x="-6.8" y="-8.1" transform="matrix(1 0 0 -1 10 36)" overflow="visible"/></g><g><use xlink:href="#f" width="6" height="13" x="-3" y="-6.5" transform="matrix(-1 0 0 1 90.5 151.5)" overflow="visible"/><use xlink:href="#f" width="6" height="13" x="-3" y="-6.5" transform="matrix(-1 0 0 1 9.5 151.5)" overflow="visible"/><use xlink:href="#f" width="6" height="13" x="-3" y="-6.5" transform="matrix(1 0 0 -1 90.5 18.5)" overflow="visible"/><use xlink:href="#f" width="6" height="13" x="-3" y="-6.5" transform="matrix(1 0 0 -1 9.5 18.5)" overflow="visible"/></g><use xlink:href="#g" width="75.3" height="83.2" x="-39.5" y="-46.6" transform="matrix(-1 0 0 1 50 122.582)" overflow="visible"/><use xlink:href="#g" width="75.3" height="83.2" x="-39.5" y="-46.6" transform="matrix(1 0 0 -1 50 47.419)" overflow="visible"/></g></g><use xlink:href="#h" width="84" height="154" x="-42" y="-77" transform="matrix(1 0 0 -1 50 85)" overflow="visible" opacity=".75"/></svg>
