<svg xmlns="http://www.w3.org/2000/svg" xmlns:xlink="http://www.w3.org/1999/xlink" width="100" height="170" viewBox="0 0 100 170"><symbol id="f" viewBox="-3.6 -6.4 7.3 12.7"><path d="M.8 6.4h-1.8l-2.6-12.8h1.6l.5 2.6h2.8l.5-2.6h1.9l-2.9 12.8zm-2-8.8l1.1 5.8 1.1-5.8h-2.2z"/></symbol><symbol viewBox="-22.5 -21.4 44.9 42.9"><path fill="#008000" d="M1.9-18.1c-.7.6-1.3 1.2-1.9 2-.6-.8-1.3-1.5-2.1-2.1-.6-.5-1.3-.9-2.1-1.3-1.7-.9-3.5-1.3-5.5-1.3-3.4 0-6.3 1.2-8.7 3.6-2.4 2.4-3.6 5.4-3.6 8.8 0 4.7 2.5 9.7 7.5 14.8 6.7 5.9 11.5 10.7 14.5 14.3 3-3.6 7.8-8.4 14.4-14.3 5-5.1 7.6-10.1 7.6-14.8 0-3.4-1.2-6.4-3.6-8.8-2.4-2.4-5.4-3.6-8.8-3.6-1.9 0-3.7.4-5.4 1.3-.9.3-1.6.8-2.3 1.4z"/><path fill="#055905" d="M0 20.7v-36.9c.6-.7 1.2-1.4 1.9-1.9.7-.6 1.5-1 2.3-1.5 1.7-.9 3.5-1.3 5.4-1.3 3.4 0 6.4 1.2 8.8 3.6 2.4 2.4 3.6 5.4 3.6 8.8 0 4.7-2.5 9.7-7.6 14.8-6.6 6-11.4 10.8-14.4 14.4z"/><path stroke="#000" stroke-miterlimit="10" d="M1.9-18.1c-.7.6-1.3 1.2-1.9 2-.6-.8-1.3-1.5-2.1-2.1-.6-.5-1.3-.9-2.1-1.3-1.7-.9-3.5-1.3-5.5-1.3-3.4 0-6.3 1.2-8.7 3.6-2.4 2.4-3.6 5.4-3.6 8.8 0 4.7 2.5 9.7 7.5 14.8 6.7 5.9 11.5 10.7 14.5 14.3 3-3.6 7.8-8.4 14.4-14.3 5-5.1 7.6-10.1 7.6-14.8 0-3.4-1.2-6.4-3.6-8.8-2.4-2.4-5.4-3.6-8.8-3.6-1.9 0-3.7.4-5.4 1.3-.9.3-1.6.8-2.3 1.4z" fill="none"/></symbol><symbol id="c" viewBox="-14 -23.5 28 47"><path fill="#F2F200" d="M10 13c0 5.5-4.5 10-10 10s-10-4.5-10-10v-23h20v23z"/><path fill="#D63403" d="M10-10v23c0 5.5-4.5 10-10 10v-33h10z"/><path fill="#008000" d="M13.5-13.5c0-5.2-6-9.5-13.5-9.5s-13.5 4.3-13.5 9.5 6 5.5 13.5 5.5 13.5-.3 13.5-5.5z"/><path fill="#056605" d="M13.5-13.5c0 5.2-6 5.5-13.5 5.5v-15c7.5 0 13.5 4.3 13.5 9.5z"/><path fill="#4E5DC9" d="M-10-9h20v5h-20z"/><path fill="#384A89" d="M0-9h10v5h-10z"/><path stroke="#000" stroke-miterlimit="10" d="M10-8.9v21.9c0 5.5-4.5 10-10 10s-10-4.5-10-10v-21.9c-2.2-.8-3.5-2.1-3.5-4.6 0-5.2 6-9.5 13.5-9.5s13.5 4.3 13.5 9.5c0 2.5-1.3 3.8-3.5 4.6z" fill="none"/></symbol><symbol viewBox="-29.9 -9.5 29.9 19"><path fill="#F2F200" d="M-22.8-6.9c-1.8 0-3.6.7-4.9 2-1.3 1.3-2 3-2 4.9 0 3.8 3.1 6.9 6.9 6.9h13.6v-13.8h-13.6z"/><path fill="#D63403" d="M-9.2-6.9h-13.6c-3.8 0-6.9 3.1-6.9 6.9h20.5v-6.9z"/><path fill="#008000" d="M-6.8-9.3c3.6 0 6.5 4.2 6.5 9.3s-2.9 9.3-6.5 9.3-3.8-4.2-3.8-9.3.2-9.3 3.8-9.3z"/><path fill="#056605" d="M-6.8-9.3c-3.6 0-3.8 4.2-3.8 9.3h10.3c.1-5.1-2.9-9.3-6.5-9.3z"/><path fill="#4E5DC9" d="M-9.9 6.9v-13.8h-3.4v13.8z"/><path fill="#384A89" d="M-9.9 0v-6.9h-3.4v6.9z"/><path stroke="#000" stroke-width=".5" stroke-miterlimit="10" d="M-9.9-6.9h-12.9c-3.8 0-6.9 3.1-6.9 6.9s3.1 6.9 6.9 6.9h12.9c.5 1.5 1.4 2.4 3.1 2.4 3.6 0 6.5-4.2 6.5-9.3s-2.9-9.3-6.5-9.3c-1.7 0-2.6.9-3.1 2.4z" fill="none"/></symbol><symbol viewBox="-31.7 -33.4 63.5 66.3"><g><use xlink:href="#a" width="17.4" height="7.3" x="-1" y="-7.3" transform="matrix(-1 0 0 1 15.75 8.3)" overflow="visible"/><use xlink:href="#a" width="17.4" height="7.3" x="-1" y="-7.3" transform="matrix(-1 0 0 1 15.75 -4.102)" overflow="visible"/><use xlink:href="#a" width="17.4" height="7.3" x="-1" y="-7.3" transform="matrix(-1 0 0 1 15.75 -16.5)" overflow="visible"/><use xlink:href="#a" width="17.4" height="7.3" x="-1" y="-7.3" transform="translate(-15.65 8.3)" overflow="visible"/><use xlink:href="#a" width="17.4" height="7.3" x="-1" y="-7.3" transform="translate(-15.65 -4.102)" overflow="visible"/><use xlink:href="#a" width="17.4" height="7.3" x="-1" y="-7.3" transform="translate(-15.65 -16.5)" overflow="visible"/><use xlink:href="#b" width="2.8" height="55.2" x="-1.4" y="-27.6" transform="translate(0 -5.833)" overflow="visible"/><use xlink:href="#c" width="28" height="47" x="-14" y="-23.5" transform="matrix(0 -.466 .466 0 20.529 -4.306)" overflow="visible"/><use xlink:href="#c" width="28" height="47" x="-14" y="-23.5" transform="matrix(0 -.466 -.466 0 -20.529 -4.306)" overflow="visible"/><use xlink:href="#c" width="28" height="47" x="-14" y="-23.5" transform="matrix(0 -.466 .466 0 20.529 -17.226)" overflow="visible"/><use xlink:href="#c" width="28" height="47" x="-14" y="-23.5" transform="matrix(0 -.466 .466 0 20.529 7.854)" overflow="visible"/><use xlink:href="#c" width="28" height="47" x="-14" y="-23.5" transform="matrix(0 -.466 -.466 0 -20.529 -17.226)" overflow="visible"/><use xlink:href="#c" width="28" height="47" x="-14" y="-23.5" transform="matrix(0 -.466 -.466 0 -20.529 7.854)" overflow="visible"/><use xlink:href="#c" width="28" height="47" x="-14" y="-23.5" transform="matrix(-.466 0 0 .466 -.126 21.633)" overflow="visible"/></g></symbol><symbol viewBox="-22.5 -21.4 44.9 42.9"><path fill="#008000" d="M1.9-18.1c-.7.6-1.3 1.2-1.9 2-.6-.8-1.3-1.5-2.1-2.1-.6-.5-1.3-.9-2.1-1.3-1.7-.9-3.5-1.3-5.5-1.3-3.4 0-6.3 1.2-8.7 3.6-2.4 2.4-3.6 5.4-3.6 8.8 0 4.7 2.5 9.7 7.5 14.8 6.7 5.9 11.5 10.7 14.5 14.3 3-3.6 7.8-8.4 14.4-14.3 5-5.1 7.6-10.1 7.6-14.8 0-3.4-1.2-6.4-3.6-8.8-2.4-2.4-5.4-3.6-8.8-3.6-1.9 0-3.7.4-5.4 1.3-.9.3-1.6.8-2.3 1.4z"/><path fill="#055905" d="M0 20.7v-36.9c.6-.7 1.2-1.4 1.9-1.9.7-.6 1.5-1 2.3-1.5 1.7-.9 3.5-1.3 5.4-1.3 3.4 0 6.4 1.2 8.8 3.6 2.4 2.4 3.6 5.4 3.6 8.8 0 4.7-2.5 9.7-7.6 14.8-6.6 6-11.4 10.8-14.4 14.4z"/><path stroke="#000" stroke-miterlimit="10" d="M1.9-18.1c-.7.6-1.3 1.2-1.9 2-.6-.8-1.3-1.5-2.1-2.1-.6-.5-1.3-.9-2.1-1.3-1.7-.9-3.5-1.3-5.5-1.3-3.4 0-6.3 1.2-8.7 3.6-2.4 2.4-3.6 5.4-3.6 8.8 0 4.7 2.5 9.7 7.5 14.8 6.7 5.9 11.5 10.7 14.5 14.3 3-3.6 7.8-8.4 14.4-14.3 5-5.1 7.6-10.1 7.6-14.8 0-3.4-1.2-6.4-3.6-8.8-2.4-2.4-5.4-3.6-8.8-3.6-1.9 0-3.7.4-5.4 1.3-.9.3-1.6.8-2.3 1.4z" fill="none"/></symbol><symbol viewBox="-15.5 -15.7 31.1 31.3"><path fill="#E60000" d="M2.9 13c1.4 1.4 2.6 2.1 3.8 2.1 2.3 0 4.3-.8 5.9-2.5 1.6-1.7 2.5-3.7 2.5-6 0-3.3-1.7-7-5.2-11-2-2.3-5.3-5.9-9.9-10.6-4.6 4.7-7.8 8.3-9.8 10.6-3.5 4.1-5.2 7.7-5.2 11 0 2.3.8 4.3 2.5 6 1.7 1.6 3.7 2.5 6 2.5 1.2 0 2.4-.7 3.8-2.1.1-.1 1-1.3 2.8-3.5.4.6 1.4 1.8 2.8 3.5z"/><path fill="#A50A0A" d="M6.7 15.1c-1.2 0-2.4-.7-3.8-2.1-1.4-1.7-2.4-2.9-2.9-3.5v-24.5c4.6 4.7 7.9 8.3 9.9 10.6 3.5 4.1 5.2 7.7 5.2 11 0 2.3-.8 4.3-2.5 6-1.7 1.7-3.6 2.5-5.9 2.5z"/><path stroke="#000" stroke-miterlimit="10" d="M2.9 13c1.4 1.4 2.6 2.1 3.8 2.1 2.3 0 4.3-.8 5.9-2.5 1.6-1.7 2.5-3.7 2.5-6 0-3.3-1.7-7-5.2-11-2-2.3-5.3-5.9-9.9-10.6-4.6 4.7-7.8 8.3-9.8 10.6-3.5 4.1-5.2 7.7-5.2 11 0 2.3.8 4.3 2.5 6 1.7 1.6 3.7 2.5 6 2.5 1.2 0 2.4-.7 3.8-2.1.1-.1 1-1.3 2.8-3.5.4.6 1.4 1.8 2.8 3.5z" fill="none"/></symbol><symbol viewBox="-9.1 -9.2 18.3 18.4"><path fill="#fe0" d="M1.7 7.7c.8.8 1.5 1.2 2.2 1.2 1.4 0 2.5-.5 3.5-1.5s1.5-2.2 1.5-3.5c0-1.9-1-4.1-3-6.5-1.3-1.3-3.2-3.4-5.9-6.2-2.7 2.8-4.6 4.9-5.8 6.3-2 2.3-3.1 4.5-3.1 6.4 0 1.4.5 2.5 1.5 3.5s2.2 1.5 3.5 1.5c.7 0 1.4-.4 2.2-1.2 0 0 .6-.7 1.7-2.1.3.4.9 1.1 1.7 2.1z"/><path fill="#B2A100" d="M3.9 8.9c-.7 0-1.4-.4-2.2-1.2-.8-1-1.4-1.7-1.7-2.1v-14.4c2.7 2.8 4.6 4.9 5.8 6.3 2 2.4 3 4.6 3 6.5 0 1.4-.5 2.5-1.5 3.5-.9.9-2 1.4-3.4 1.4z"/><path stroke="#000" stroke-width=".589" stroke-miterlimit="10" d="M1.7 7.7c.8.8 1.5 1.2 2.2 1.2 1.4 0 2.5-.5 3.5-1.5s1.5-2.2 1.5-3.5c0-1.9-1-4.1-3-6.5-1.3-1.3-3.2-3.4-5.9-6.2-2.7 2.8-4.6 4.9-5.8 6.3-2 2.3-3.1 4.5-3.1 6.4 0 1.4.5 2.5 1.5 3.5s2.2 1.5 3.5 1.5c.7 0 1.4-.4 2.2-1.2 0 0 .6-.7 1.7-2.1.3.4.9 1.1 1.7 2.1z" fill="none"/></symbol><symbol id="d" viewBox="-50 -85 100 170"><path fill="#FAFAEE" d="M-43-84.5c-3.6 0-6.5 2.9-6.5 6.5v156c0 3.6 2.9 6.5 6.5 6.5h86c3.6 0 6.5-2.9 6.5-6.5v-156c0-3.6-2.9-6.5-6.5-6.5h-86z"/><path d="M43 84c3.3 0 6-2.7 6-6v-156c0-3.3-2.7-6-6-6h-86c-3.3 0-6 2.7-6 6v156c0 3.3 2.7 6 6 6h86m0 1h-86c-3.9 0-7-3.1-7-7v-156c0-3.9 3.1-7 7-7h86c3.9 0 7 3.1 7 7v156c0 3.9-3.1 7-7 7z"/></symbol><symbol id="h" viewBox="-42 -77 84 154"><path d="M-41.5-38.5c-.3 0-.5.2-.5.5v76c0 .3.2.5.5.5s.5-.2.5-.5v-76c0-.3-.2-.5-.5-.5zM39.5-77h-79c-1.4 0-2.5 1.1-2.5 2.5 0 .3.2.5.5.5s.5-.2.5-.5c0-.8.7-1.5 1.5-1.5h79c.8 0 1.5.7 1.5 1.5 0 .3.2.5.5.5s.5-.2.5-.5c0-1.4-1.1-2.5-2.5-2.5zM41.5-38.5c-.3 0-.5.2-.5.5v76c0 .3.2.5.5.5s.5-.2.5-.5v-76c0-.3-.2-.5-.5-.5zM41.5 74c-.3 0-.5.2-.5.5 0 .8-.7 1.5-1.5 1.5h-79c-.8 0-1.5-.7-1.5-1.5 0-.3-.2-.5-.5-.5s-.5.2-.5.5c0 1.4 1.1 2.5 2.5 2.5h79c1.4 0 2.5-1.1 2.5-2.5 0-.3-.2-.5-.5-.5z"/></symbol><symbol viewBox="-14.4 -15.9 28.8 31.9"><path fill="#028C02" d="M3.1-12.4c0-.8-.3-1.6-.9-2.2-.6-.6-1.3-.9-2.2-.9-.8 0-1.6.3-2.2.9-.5.7-.8 1.4-.8 2.2 0 .8.3 1.6.9 2.2.6.6 1.3.9 2.2.9.8 0 1.6-.3 2.2-.9.5-.6.8-1.3.8-2.2z"/><path fill="#046604" d="M2.2-14.6c.6.6.9 1.3.9 2.2 0 .8-.3 1.6-.9 2.2-.6.6-1.3.9-2.1.9v-6.1c.8 0 1.5.3 2.1.8z"/><path stroke="#000" stroke-miterlimit="10" d="M3.1-12.4c0-.8-.3-1.6-.9-2.2-.6-.6-1.3-.9-2.2-.9-.8 0-1.6.3-2.2.9-.5.7-.8 1.4-.8 2.2 0 .8.3 1.6.9 2.2.6.6 1.3.9 2.2.9.8 0 1.6-.3 2.2-.9.5-.6.8-1.3.8-2.2z" fill="none"/><path fill="#D9D900" d="M13.9 1.5c0-3.8-1.3-7.1-4-9.8-2.7-2.7-6-4-9.8-4s-7.1 1.3-9.9 4c-2.7 2.7-4 6-4 9.8 0 3.8 1.4 7.1 4 9.8 2.7 2.7 6 4.1 9.9 4.1s7.1-1.4 9.8-4.1c2.7-2.7 4-5.9 4-9.8z"/><path fill="#99950A" d="M.1 15.4v-27.8c3.8 0 7.1 1.4 9.8 4 2.7 2.7 4 6 4 9.8 0 3.8-1.3 7.1-4 9.8-2.8 2.9-6 4.2-9.8 4.2z"/><path fill="#B30000" d="M-13.9 1.5c0-1.8.3-3.5.9-5.1h26c.6 1.6.9 3.3.9 5.1v.9h-27.7c-.1-.3-.1-.6-.1-.9z"/><path fill="#00B300" d="M5.8-10.9c-1.7-.8-3.5-1.2-5.5-1.2s-4 .4-6 1.2c-1.4 1-2.4 2-3 2.9-.6.8-.7 1.3-.3 1.4.3 0 1.1-.3 2.5-.9l4.2-2.1c.5 2 1.2 3 2.3 3 1.1 0 1.8-1 2.3-3.1.8.4 2.2 1.1 4.3 2.1 1.3.7 2.1 1 2.4.9.4-.1.3-.6-.3-1.4-.5-.9-1.5-1.8-2.9-2.8z"/><path d="M3.2 9.3c0-.9-.3-1.6-.9-2.2-.6-.6-1.4-.9-2.3-.9-.9 0-1.6.3-2.2.9-.6.6-.9 1.4-.9 2.2 0 .9.3 1.6.9 2.2.6.6 1.4.9 2.2.9.9 0 1.6-.3 2.2-.9.7-.5 1-1.3 1-2.2z"/><path stroke="#1A171B" stroke-width=".65" fill="none" d="M.1 12.4v3"/><path fill="#087208" d="M9.1-6.6c-.3 0-1.1-.3-2.5-1-2.1-1-3.5-1.7-4.3-2.1-.4 2.1-1.2 3.1-2.2 3.1v-5.5h.3c2 0 3.8.4 5.5 1.2 1.4 1 2.4 2 3 2.9.5.8.6 1.3.2 1.4z"/><path fill="#750B0B" d="M.1 2.4v-6h12.9c.6 1.6.9 3.3.9 5.1v.9h-13.8z"/><path stroke="#000" stroke-miterlimit="10" d="M13.9 1.5c0-3.8-1.3-7.1-4-9.8-2.7-2.7-6-4-9.8-4s-7.1 1.3-9.9 4c-2.7 2.7-4 6-4 9.8 0 3.8 1.4 7.1 4 9.8 2.7 2.7 6 4.1 9.9 4.1s7.1-1.4 9.8-4.1c2.7-2.7 4-5.9 4-9.8z" fill="none"/></symbol><symbol id="e" viewBox="-5.9 -6.5 11.7 12.9"><path fill="#028C02" d="M1.3-5c0-.3-.1-.6-.4-.9-.3-.2-.5-.3-.9-.3-.3 0-.6.1-.9.4-.2.2-.3.5-.3.8 0 .3.1.6.4.9.2.2.5.3.8.3.3 0 .6-.1.9-.4.2-.2.4-.4.4-.8z"/><path fill="#046604" d="M.9-5.9c.2.3.4.6.4.9 0 .3-.1.6-.4.9-.3.2-.5.3-.9.3v-2.5c.4.1.6.2.9.4z"/><path stroke="#000" stroke-width=".5" stroke-miterlimit="10" d="M1.3-5c0-.3-.1-.6-.4-.9-.3-.2-.5-.3-.9-.3-.3 0-.6.1-.9.4-.2.2-.3.5-.3.8 0 .3.1.6.4.9.2.2.5.3.8.3.3 0 .6-.1.9-.4.2-.2.4-.4.4-.8z" fill="none"/><path fill="#D9D900" d="M5.6.6c0-1.5-.5-2.9-1.6-4-1.1-1-2.5-1.6-4-1.6s-2.9.5-4 1.6-1.6 2.4-1.6 4 .5 2.9 1.6 4 2.4 1.7 4 1.7 2.9-.5 4-1.7c1.1-1.1 1.6-2.4 1.6-4z"/><path fill="#99950A" d="M0 6.2v-11.2c1.5 0 2.9.5 4 1.6s1.6 2.4 1.6 4-.5 2.9-1.6 4-2.4 1.6-4 1.6z"/><path fill="#B30000" d="M-5.6.6c0-.7.1-1.4.4-2.1h10.4c.2.6.4 1.3.4 2.1v.4h-11.2v-.4z"/><path fill="#00B300" d="M2.3-4.4c-.6-.3-1.4-.5-2.2-.5-.8 0-1.6.2-2.4.5-.6.4-1 .8-1.2 1.2-.3.3-.3.5-.1.6.1 0 .5-.1 1-.4.8-.4 1.4-.7 1.7-.8.2.7.5 1.2.9 1.2s.7-.4.9-1.3c.4.2.9.4 1.8.9.5.3.9.4 1 .4.2 0 .1-.2-.1-.6-.3-.4-.7-.8-1.3-1.2z"/><path d="M1.3 3.8c0-.3-.1-.6-.4-.9-.2-.3-.5-.4-.9-.4s-.7.1-.9.4c-.2.3-.4.6-.4.9 0 .4.1.7.4.9.3.2.6.3.9.3.3 0 .6-.1.9-.4.3-.2.4-.5.4-.8z"/><path stroke="#1A171B" stroke-width=".65" fill="none" d="M0 5v1.2"/><path fill="#087208" d="M3.7-2.7c-.1 0-.4-.1-1-.4-.9-.4-1.4-.6-1.7-.8-.2.8-.5 1.3-1 1.3v-2.2h.1c.8 0 1.5.2 2.2.5.6.4 1 .8 1.2 1.2.3.2.3.4.2.4z"/><path fill="#750B0B" d="M0 1v-2.4h5.2c.2.6.4 1.3.4 2.1v.4h-5.6z"/><path stroke="#000" stroke-width=".5" stroke-miterlimit="10" d="M5.6.6c0-1.5-.5-2.9-1.6-4-1.1-1-2.5-1.6-4-1.6s-2.9.5-4 1.6-1.6 2.4-1.6 4 .5 2.9 1.6 4 2.4 1.7 4 1.7 2.9-.5 4-1.7c1.1-1.1 1.6-2.4 1.6-4z" fill="none"/></symbol><symbol id="g" viewBox="-39.5 -35.8 79 72.9"><g><path fill="#27A1DE" stroke="#000" stroke-width=".5" stroke-miterlimit="10" d="M2.3 10c-.6.6-1.4.9-2.2.9-.9 0-1.6-.3-2.2-.9-.6-.6-.9-1.4-.9-2.2s.3-1.6.9-2.2c.6-.6 1.4-.9 2.2-.9.9 0 1.6.3 2.2.9.6.6.9 1.4.9 2.2s-.3 1.6-.9 2.2zm-1.1-3.4c-.3-.3-.7-.4-1.1-.4s-.8.2-1.1.5c-.3.3-.5.7-.5 1.1 0 .4.2.8.5 1.1.3.3.7.5 1.1.5s.8-.2 1.1-.5c.3-.3.5-.7.5-1.1-.1-.5-.2-.9-.5-1.2z"/><path fill="#D9D900" d="M14.6 22.3c0-4-1.4-7.4-4.2-10.3-2.9-2.8-6.4-4.2-10.4-4.2s-7.5 1.4-10.3 4.2c-2.8 2.9-4.2 6.3-4.2 10.3 0 4 1.4 7.4 4.2 10.3 2.8 2.8 6.3 4.3 10.3 4.3s7.4-1.4 10.3-4.3c2.8-2.9 4.3-6.3 4.3-10.3z"/><path fill="#99950A" d="M.1 36.9v-29.1c4 0 7.4 1.4 10.3 4.2 2.8 2.9 4.2 6.3 4.2 10.3 0 4-1.4 7.4-4.2 10.3-2.9 2.8-6.4 4.3-10.3 4.3z"/><path fill="#B30000" d="M13.3 16.3c.8 1.8 1.2 3.8 1.2 6v.9c-9.6-2-19.4-2-29 0v-.9c0-2.2.4-4.2 1.2-6 8.8-1.5 17.8-1.5 26.6 0z"/><path fill="#750B0B" d="M.1 21.7v-6.6c4.4 0 8.9.4 13.3 1.2.4.1.8 2.3.9 2.7.1.3.4 4.3.3 4.2-4.9-.9-9.7-1.5-14.5-1.5z"/><path fill="#00B300" d="M6.1 9.3c-1.8-.9-3.7-1.3-5.8-1.3-2 0-4.1.4-6.3 1.3-1.4 1-2.5 2.1-3.1 3.1-.7.9-.8 1.4-.3 1.5.3 0 1.2-.3 2.6-1 2.1-1.1 3.6-1.8 4.4-2.2.5 2.2 1.3 3.2 2.4 3.2 1.1 0 1.9-1.1 2.4-3.2.9.3 2.4 1 4.6 2.1 1.4.7 2.2 1 2.6 1 .4-.1.3-.6-.3-1.5-.7-1-1.8-2-3.2-3z"/><path d="M3.3 30.5c0-.9-.3-1.7-1-2.3-.7-.6-1.4-1-2.3-1-.9 0-1.7.3-2.3 1-.6.7-1 1.4-1 2.3 0 .9.3 1.7 1 2.3.6.6 1.4 1 2.3 1 .9 0 1.7-.3 2.3-1 .7-.6 1-1.4 1-2.3z"/><path stroke="#1A171B" stroke-width=".65" fill="none" d="M.1 33.7v3.2"/><path fill="#087208" d="M9.5 13.8c-.3 0-1.2-.3-2.6-1-2.2-1.1-3.7-1.8-4.5-2.2-.5 2.2-1.3 3.2-2.4 3.2v-5.8h.3c2.1 0 4 .4 5.7 1.2 1.4 1 2.5 2.1 3.1 3 .7 1 .8 1.5.4 1.6z"/><path stroke="#000" stroke-width=".5" stroke-miterlimit="10" d="M14.6 22.3c0-4-1.4-7.4-4.2-10.3-2.9-2.8-6.4-4.2-10.4-4.2s-7.5 1.4-10.3 4.2c-2.8 2.9-4.2 6.3-4.2 10.3 0 4 1.4 7.4 4.2 10.3 2.8 2.8 6.3 4.3 10.3 4.3s7.4-1.4 10.3-4.3c2.8-2.9 4.3-6.3 4.3-10.3z" fill="none"/></g><g><path fill="#27A1DE" stroke="#000" stroke-width=".5" stroke-miterlimit="10" d="M2.3-18.8c-.6.6-1.4.9-2.2.9-.9 0-1.6-.3-2.2-.9-.6-.6-.9-1.4-.9-2.2s.3-1.6.9-2.2c.6-.6 1.4-.9 2.2-.9.9 0 1.6.3 2.2.9.6.6.9 1.4.9 2.2s-.3 1.6-.9 2.2zm-1.1-3.3c-.3-.3-.7-.5-1.1-.5s-.8.2-1.1.5c-.3.3-.5.7-.5 1.1 0 .4.2.8.5 1.1.3.3.7.5 1.1.5s.8-.2 1.1-.5c.3-.3.5-.7.5-1.1-.1-.4-.2-.8-.5-1.1z"/><path fill="#D9D900" d="M14.6-6.4c0-4-1.4-7.4-4.2-10.3-2.9-2.9-6.4-4.3-10.4-4.3s-7.5 1.4-10.3 4.2c-2.8 2.9-4.2 6.3-4.2 10.3 0 4 1.4 7.4 4.2 10.3 2.8 2.9 6.3 4.3 10.3 4.3s7.4-1.4 10.3-4.3c2.8-2.8 4.3-6.2 4.3-10.2z"/><path fill="#99950A" d="M.1 8.1v-29.1c4 0 7.4 1.4 10.3 4.2 2.8 2.9 4.2 6.3 4.2 10.3 0 4-1.4 7.4-4.2 10.3-2.9 2.9-6.4 4.3-10.3 4.3z"/><path fill="#B30000" d="M13.3-12.4c.8 1.8 1.2 3.8 1.2 6v.9c-9.6-2-19.4-2-29 0v-.9c0-2.2.4-4.2 1.2-6 8.8-1.6 17.8-1.6 26.6 0z"/><path fill="#750B0B" d="M.1-7v-6.6c4.4 0 8.9.4 13.3 1.2.4.1.8 2.3.9 2.7.1.3.4 4.3.3 4.2-4.9-1-9.7-1.5-14.5-1.5z"/><path fill="#00B300" d="M6.1-19.5c-1.8-.8-3.7-1.2-5.7-1.2-2.1 0-4.2.4-6.3 1.2-1.4 1-2.5 2.1-3.1 3.1-.8.9-.9 1.4-.4 1.4.3 0 1.2-.3 2.6-1 2.1-1.1 3.6-1.8 4.4-2.2.5 2.2 1.3 3.2 2.4 3.2 1.1 0 1.9-1.1 2.4-3.2.9.4 2.4 1.2 4.6 2.2 1.4.7 2.2 1 2.6 1 .4-.1.3-.6-.3-1.5-.7-.9-1.8-2-3.2-3z"/><path d="M3.3 1.7c0-.9-.3-1.7-1-2.3-.7-.6-1.4-1-2.3-1-.9 0-1.7.3-2.3 1-.6.7-1 1.4-1 2.3 0 .9.3 1.7 1 2.3.6.6 1.4 1 2.3 1 .9 0 1.7-.3 2.3-1 .7-.6 1-1.3 1-2.3z"/><path stroke="#1A171B" stroke-width=".65" fill="none" d="M.1 4.9v3.2"/><path fill="#087208" d="M9.5-15c-.3 0-1.2-.3-2.6-1-2.2-1.1-3.7-1.8-4.5-2.2-.4 2.2-1.2 3.3-2.3 3.3v-5.8h.3c2.1 0 4 .4 5.7 1.2 1.4 1 2.5 2.1 3.1 3 .6 1 .7 1.5.3 1.5z"/><path stroke="#000" stroke-width=".5" stroke-miterlimit="10" d="M14.6-6.4c0-4-1.4-7.4-4.2-10.3-2.9-2.9-6.4-4.3-10.4-4.3s-7.5 1.4-10.3 4.2c-2.8 2.9-4.2 6.3-4.2 10.3 0 4 1.4 7.4 4.2 10.3 2.8 2.9 6.3 4.3 10.3 4.3s7.4-1.4 10.3-4.3c2.8-2.8 4.3-6.2 4.3-10.2z" fill="none"/></g><g stroke="#000" stroke-miterlimit="10"><g stroke-width=".25"><path fill="#A3C06B" d="M26.2-26.3c.1.1.2.2.4.3.5.5 1.6 1.8 1.7 2.6l-2.5-.6c-.6-.2-1.5-.1-2.1-.4-.9-.4-1.5-1.4-2.4-1.9-1-.6-2.2-1.1-3.4-1 1.1-.9 3-.5 4.3-.4.9 0 1.6.8 2.4 1 .6.1 1.1.1 1.6.4z"/><path d="M27.7-24.6c-1.7-.1-2.8-1.3-4.2-2.1-1.1-.6-3-.7-4.3-.8" fill="none"/><path fill="#A3C06B" d="M26.5-20.6c.9-1.3 1.8-2.4 1.6-4.1-.1-1.3-1-2.6-1.8-3.5-.3-.3-.6-.6-.9-.8-.2-.1-.3-.2-.5-.4-.1-.1-.2-.2-.4-.2.1.3.4.5.5.7l.4.7c.2.6.1 1.3 0 1.9-.1.7-.1 1.3.1 2 .1.3.4.6.4.9.1.4-.1.7-.1 1.1.1.5.6 1.3 1 1.6"/><path d="M27-22.9c-.6-2.1-.4-4.8-2.2-6.3" fill="none"/><path fill="#A3C06B" d="M27.5-26.1c.3 1.6 1.3 2.4 2.6 3.3.7.5 1.4.8 2.2 1.1.4.2 1.7.3 2 .6-.8-.9-1-2.1-1.7-3.1-.4-.5-1-.8-1.4-1.2-.4-.4-.6-.8-.9-1.2-.7-.6-1.6-1.2-2.5-1.6-.7-.4-1.6-.6-2.4-.8 1.4.7 1.8 1.1 2.1 2.9z"/><path d="M31.5-23.6c-.7-1-1.9-1.4-2.7-2.4-.8-1.1-1.4-2.2-2.8-2.7" fill="none"/><path fill="#A3C06B" d="M25.5-29.3l2 .1c1.7-.1 3.4-.5 5.1-.1.8.2 1.4.5 1.8 1.2l.2.4.6 1.3c.1.1.3.4.2.6 0 .2-.4.2-.5.2h-.8c-.5 0-1-.1-1.5-.2-.8-.2-1.2-.6-1.9-.9l-2.1-.5c-.6-.2-1-.8-1.5-1.2-.6-.4-1.4-.9-2.2-.8"/><path d="M32.8-27.7c-1.5-2.1-5.3-.9-7.6-1.4" fill="none"/><path fill="#A3C06B" d="M36.7-32.1c.7.3 1.3.7 2 1.2-.9 0-1.8.5-2.7.6-.9.1-1.8.2-2.6.4-1.7.5-3.3-.4-5.1-.4-1.1 0-1.9.6-2.9.8 1.1-.8 2.7-.7 3.8-1.6 1.4-1.1 2.9-2.1 4.8-1.7 1.1.1 1.9.4 2.7.7z"/><path d="M35.9-31.4c-2.4-1.6-6.3.8-8.8 1.2" fill="none"/><path fill="#A3C06B" d="M30-35.3c.5-.1 1-.2 1.6-.3-1.2.9-1.6 2.2-2.6 3.2-1.3 1.2-3.2 1.4-4.5 2.7-.3.3-.5.7-.9.8.1-.2.3-.4.5-.6.2-.2.3-.5.4-.8.3-.7.6-1.4 1-2.1.9-1.7 2.9-2.5 4.5-2.9z"/><path d="M29.7-34.6c-2 .2-3.7 3.4-5.1 4.8" fill="none"/><path fill="#A3C06B" d="M24.3-34.2c.5-.1 1-.2 1.6-.3-1.2.9-1.6 2.2-2.6 3.2-1.6 1.6-4.2 1.5-5.2 3.7.6-1.2 1-2.6 1.7-3.8.9-1.6 2.9-2.4 4.5-2.8z"/><path d="M23.8-33.6c-.3.6-.8 1.4-1.3 1.9-.6.6-1.4 1.1-2.1 1.6-.6.4-1 .9-1.4 1.3" fill="none"/><path fill="#A3C06B" d="M21.4-24.7c.1.1.2.2.4.3.5.5 1.6 1.8 1.7 2.6l-2.5-.6c-.6-.2-1.5-.1-2.1-.4-.7-.3-1.1-1.3-1.6-1.8-.7-.7-1.9-1.2-2.7-1.6.5 0 .9.2 1.3.2l1.4-.2c.9 0 1.6.8 2.4 1 .7.2 1.2.2 1.7.5z"/><path d="M21.9-23.2c-1.6-.1-2.6-.9-3.8-1.7-.9-.6-1.9-.9-2.7-1.4" fill="none"/><path fill="#A3C06B" d="M9.6-26c1 .3 1.7.5 2.7.6 1 .1 1.5.7 2.4 1 .8.3 1.6 1.2 2.3 1.8.9.7 1.8 1.5 2.3 2.5-.9-.1-1.6.2-2.5 0-1-.2-1.9-.7-2.7-1.2-2.1-1-2.2-4-4.5-4.7z"/><path d="M16.8-21.4c-1-.6-1.9-.9-2.9-1.4-.7-.3-.9-1.1-1.4-1.6-.6-.6-1.5-1-2.2-1.5" fill="none"/><path fill="#A3C06B" d="M7.7-21c-1.2-.6-1.7-1.9-2.4-3-.2-.3-1.6-2.6-1.8-2.6 1.6.1 2.9 1.7 4.3 2.2.7.2 1.1.2 1.7.7.6.6 1.1 1.3 1.8 2 .3.3.7.7.9 1.1.1.2.3 1.2.4 1.3-.8-.5-1.6-.3-2.4-.5-.9-.3-1.8-.8-2.5-1.2z"/><path d="M10.6-20.9c-.9-.3-1.6-1-2.4-1.4-.6-.3-1.1-.4-1.6-1-.8-.9-1.3-2.5-2.6-2.8" fill="none"/><path fill="#A3C06B" d="M17.5-33.4c.9-.5 1.8-1 1.8-1.3 0 1.9-1 3.5-2.4 4.7-.6.5-1.2.8-1.9 1.2-.7.4-1.2 1.2-2.1 1.5-.9.3-1.8.7-2.7 1.1.6-.4 1.4-.9 1.9-1.4.8-.8.7-2 1.5-2.9.7-.8 1.7-1.4 2.5-2 .1-.3.7-.6 1.4-.9z"/><path d="M17.5-32.1c-1.8.2-2.3 1.5-3.4 2.7-.5.6-1.2 1.2-1.8 1.8" fill="none"/><path fill="#A3C06B" d="M10.2-33c.8-.4 1.6-.6 2.6-.8-.5.6-.9 1.2-1.2 1.9-.7 1.2-1.6 1.4-2.5 2.4-.8.8-1.4 1.3-2.5 1.6-1.1.3-1.9.7-2.5 1.9.6-1.2 1-2.6 1.7-3.8.7-1.3 2-1.6 3.2-2.4.4-.4.8-.6 1.2-.8z"/><path d="M10.1-31.9c-.9.1-1.3 1.4-2.1 1.9-.6.4-1.2.5-1.7 1.1-.5.5-.8 1.3-1.4 1.8" fill="none"/></g><g stroke-width=".5" fill="none"><path d="M25.5-29.6c1-.2 1.8-.8 2.9-.8 1.8 0 3.4 1 5.1.4.8-.3 1.7-.3 2.6-.4.9-.1 1.8-.6 2.7-.6-.7-.5-1.4-.9-2-1.2-.8-.3-1.6-.6-2.6-.8-1.9-.4-3.4.5-4.8 1.7-1.2 1-2.8.9-3.9 1.7zM24.8-29.4c.2.1.4.2.5.4h.2l-.2-.1c.2.1.4.1.7.2h.6c-.4-.2-.9-.4-1.4-.3l.4-.1 2 .1c1.7-.1 3.4-.5 5.1-.1.8.2 1.4.5 1.8 1.2.3.4.6.9.8 1.4.2.4.4.9.4 1.3-.4-.3-.9-.2-1.4-.2-.5 0-1-.1-1.4-.2-.8-.2-1.2-.6-1.9-.9-.4-.2-.9-.3-1.3-.3.2.1.4.3.5.4.4.3.6.8.9 1.2.4.4 1 .7 1.4 1.2l1.7 3.1c-.3-.3-1.6-.4-2-.6-.8-.3-1.5-.6-2.2-1.1-.8-.5-1.5-1.1-2-1.9v.7c.1.2.1.4.1.5h-.2c.2 0-1.4 2.7-1.4 2.9-.3-.5-.7-1-.8-1.6-.1-.4.1-.7.1-1.1-.1-.4-.3-.6-.4-.9-.6-.1-1.3-.1-1.8-.3-.9-.4-1.5-1.4-2.4-1.9-1-.6-2.2-1.1-3.4-1 1.1-.9 3-.5 4.3-.4.9 0 1.6.8 2.4 1l.8.2c0-.3.1-.5.1-.7l-.6-1.8c-.1-.1-.4-.4-.3-.5.1-.1.2.2.3.2zm1.8.6c.2.1.4.1.5.2l-.2-.1-.3-.1zm-1.3-.2c.3.2.6.5.9.8.4.5.9 1.1 1.2 1.7-.1-.6-.3-1-.5-1.3l-.8-.8-.5-.3-.3-.1zM23.3-31.4c1-1 1.4-2.3 2.6-3.2-.6 0-1.1.1-1.6.3-1.6.5-3.6 1.2-4.5 2.8-.7 1.2-1.1 2.6-1.7 3.8 1.1-2.2 3.7-2.1 5.2-3.7zM21.4-24.7c-.5-.3-1-.3-1.6-.5-.8-.3-1.5-1-2.4-1-.5 0-.9.2-1.3.2l-.7-.3.6.3h-.1c-.5 0-.9-.2-1.3-.2.8.4 2 .9 2.7 1.6.6.5.9 1.5 1.6 1.8.6.3 1.4.2 2.1.4.8.2 1.6.5 2.5.6 0-.8-1.1-2-1.7-2.6-.2-.2-.3-.3-.4-.3zM17-22.6c-.7-.6-1.4-1.5-2.3-1.8-.9-.4-1.4-1-2.4-1-.7 0-1.2-.2-1.8-.3l-.3-.2.3.2c-.3-.1-.6-.2-1-.3 2.4.7 2.4 3.7 4.4 4.8.9.5 1.8.9 2.7 1.2.9.2 1.7-.1 2.5 0-.3-1.1-1.3-1.9-2.1-2.6zM3.5-26.6c.1 0 1.6 2.3 1.8 2.6.7 1.1 1.2 2.4 2.4 3 .8.4 1.6.9 2.5 1.1.8.2 1.6 0 2.4.5-.1-.1-.3-1.1-.4-1.3-.2-.4-.5-.8-.9-1.1-.7-.6-1.2-1.3-1.8-2-.6-.5-1-.5-1.7-.7-1.1-.4-2.2-1.5-3.4-2 .5-.9 1.3-1.2 2.3-1.5 1.1-.3 1.7-.8 2.5-1.6.9-.9 1.8-1.2 2.5-2.4l1.2-1.9c-1 .2-1.8.4-2.6.8-.4.2-.8.4-1.2.7-1.2.8-2.5 1.1-3.2 2.4-.6 1.1-1 2.3-1.5 3.4-.3.1-.6 0-.9 0zM10.1-26.3c.9-.3 1.8-.7 2.7-1.1.8-.3 1.3-1 2.1-1.5.7-.4 1.3-.6 1.9-1.2 1.4-1.2 2.4-2.8 2.4-4.7 0 .3-.9.9-1.8 1.3-.6.3-1.2.6-1.4.8-.8.7-1.8 1.2-2.5 2l-1.5 2.9c-.5.6-1.2 1.1-1.9 1.5z"/></g><path fill="#B37E47" stroke-width=".5" d="M21.3-28.4c-1.4.3-3 .6-4.4 1.3l.5.1c-.1.4-.7.4-1 .4l-1.5.5c-.8.3-1.6.2-2.4.3-.9.1-1.7.2-2.5.2s-1.5-.3-2.3-.4l-2.1-.1c-.6 0-1.2-.2-1.8-.3-.5-.1-1.1-.1-1.5-.3.2.2.6.5.2.7-.3-.3-.6-.7-1-.9l-1.1-.5c-.8-.4-1.6-.9-2.4-1.4l-2-1.5c.5-.8.2-2.7-.7-3.1 1 .6 1.8 1.2 2.5 2.1.6.8 1 1.8 1.8 2.5 1 1 2.5 1.4 3.8 1.8.9.2 1.7.2 2.6.2.5 0 1.3.1 1.8 0 .2 0 1.6-.6 1.6-.8-.1.4-.5.8-.8 1.1l2 .2c.6.1 1.1.1 1.8-.1.6-.2 1.4-.2 2-.5.8-.3 1.5-1.2 2.2-1.8 1.5-1.1 3.2-1.4 5.1-1.2 1.1.1 2.6.1 3.4 1.1-.5 0-1-.4-1.5-.5-2.1-.7-4.9-.3-6.7.9-.5.4-.8.9-1.2 1.4 1-.5 2-1 3-1.2l1.5-.2c1.6-.4 3.6-1.3 5.3-.5-1.2-.3-2.3.3-3.4.5-.2-.2-.5-.1-.8 0z"/><path fill="#E30A17" stroke-width=".5" d="M17.4-26.8c0-.4.3-.7.7-.7s.7.3.7.7-.3.7-.7.7-.7-.3-.7-.7zM9.1-27.9c0-.4.3-.7.7-.7s.7.3.7.7-.3.7-.7.7-.7-.3-.7-.7zM2-25.4c0-.4.3-.6.7-.6s.7.3.7.7-.4.6-.7.6-.7-.3-.7-.7z"/><g stroke-width=".25"><path fill="#A3C06B" d="M-26.2-26.3c-.1.1-.2.2-.4.3-.5.5-1.6 1.8-1.7 2.6l2.5-.6c.6-.2 1.5-.1 2.1-.4.9-.4 1.5-1.4 2.4-1.9 1-.6 2.2-1.1 3.4-1-1.1-.9-3-.5-4.3-.4-.9 0-1.6.8-2.4 1-.6.1-1.1.1-1.6.4z"/><path d="M-27.7-24.6c1.7-.1 2.8-1.3 4.2-2.1 1.1-.6 3-.7 4.3-.8" fill="none"/><path fill="#A3C06B" d="M-26.5-20.6c-.9-1.3-1.8-2.4-1.6-4.1.1-1.3 1-2.6 1.8-3.5.3-.3.6-.6.9-.8.2-.1.3-.2.5-.4.1-.1.2-.2.4-.2-.1.3-.4.5-.5.7l-.4.7c-.2.6-.1 1.3 0 1.9.1.7.1 1.3-.1 2-.1.3-.4.6-.4.9-.1.4.1.7.1 1.1-.1.5-.6 1.3-1 1.6"/><path d="M-27-22.9c.6-2.1.4-4.8 2.2-6.3" fill="none"/><path fill="#A3C06B" d="M-27.5-26.1c-.3 1.6-1.3 2.4-2.6 3.3-.7.5-1.4.8-2.2 1.1-.4.2-1.7.3-2 .6.8-.9 1-2.1 1.7-3.1.4-.5 1-.8 1.4-1.2.4-.4.6-.8.9-1.2.7-.6 1.6-1.2 2.5-1.6.7-.4 1.6-.6 2.4-.8-1.4.7-1.8 1.1-2.1 2.9z"/><path d="M-31.5-23.6c.7-1 1.9-1.4 2.7-2.4.8-1.1 1.4-2.2 2.8-2.7" fill="none"/><path fill="#A3C06B" d="M-25.5-29.3l-2 .1c-1.7-.1-3.4-.5-5.1-.1-.8.2-1.4.5-1.8 1.2l-.2.4-.6 1.3c-.1.1-.3.4-.2.6 0 .2.4.2.5.2h.8c.5 0 1-.1 1.5-.2.8-.2 1.2-.6 1.9-.9l2.1-.5c.6-.2 1-.8 1.5-1.2.6-.4 1.4-.9 2.2-.8"/><path d="M-32.8-27.7c1.5-2.1 5.3-.9 7.6-1.4" fill="none"/><path fill="#A3C06B" d="M-36.7-32.1c-.7.3-1.3.7-2 1.2.9 0 1.8.5 2.7.6.9.1 1.8.2 2.6.4 1.7.5 3.3-.4 5.1-.4 1.1 0 1.9.6 2.9.8-1.1-.8-2.7-.7-3.8-1.6-1.4-1.1-2.9-2.1-4.8-1.7-1.1.1-1.9.4-2.7.7z"/><path d="M-35.9-31.4c2.4-1.6 6.3.8 8.8 1.2" fill="none"/><path fill="#A3C06B" d="M-30-35.3c-.5-.1-1-.2-1.6-.3 1.2.9 1.6 2.2 2.6 3.2 1.3 1.2 3.2 1.4 4.5 2.7.3.3.5.7.9.8-.1-.2-.3-.4-.5-.6-.2-.2-.3-.5-.4-.8-.3-.7-.6-1.4-1-2.1-.9-1.7-2.9-2.5-4.5-2.9z"/><path d="M-29.7-34.6c2 .2 3.7 3.4 5.1 4.8" fill="none"/><path fill="#A3C06B" d="M-24.3-34.2c-.5-.1-1-.2-1.6-.3 1.2.9 1.6 2.2 2.6 3.2 1.6 1.6 4.2 1.5 5.2 3.7-.6-1.2-1-2.6-1.7-3.8-.9-1.6-2.9-2.4-4.5-2.8z"/><path d="M-23.8-33.6c.3.6.8 1.4 1.3 1.9.6.6 1.4 1.1 2.1 1.6.6.4 1 .9 1.4 1.3" fill="none"/><path fill="#A3C06B" d="M-21.4-24.7c-.1.1-.2.2-.4.3-.5.5-1.6 1.8-1.7 2.6l2.5-.6c.6-.2 1.5-.1 2.1-.4.7-.3 1.1-1.3 1.6-1.8.7-.7 1.9-1.2 2.7-1.6-.5 0-.9.2-1.3.2l-1.4-.2c-.9 0-1.6.8-2.4 1-.7.2-1.2.2-1.7.5z"/><path d="M-21.9-23.2c1.6-.1 2.6-.9 3.8-1.7.9-.6 1.9-.9 2.7-1.4" fill="none"/><path fill="#A3C06B" d="M-9.6-26c-1 .3-1.7.5-2.7.6-1 .1-1.5.7-2.4 1-.8.3-1.6 1.2-2.3 1.8-.9.7-1.8 1.5-2.3 2.5.9-.1 1.6.2 2.5 0 1-.2 1.9-.7 2.7-1.2 2.1-1 2.2-4 4.5-4.7z"/><path d="M-16.8-21.4c1-.6 1.9-.9 2.9-1.4.7-.3.9-1.1 1.4-1.6.6-.6 1.5-1 2.2-1.5" fill="none"/><path fill="#A3C06B" d="M-7.7-21c1.2-.6 1.7-1.9 2.4-3 .2-.3 1.6-2.6 1.8-2.6-1.6.1-2.9 1.7-4.3 2.2-.7.2-1.1.2-1.7.7-.6.6-1.1 1.3-1.8 2-.3.3-.7.7-.9 1.1-.1.2-.3 1.2-.4 1.3.8-.5 1.6-.3 2.4-.5.9-.3 1.8-.8 2.5-1.2z"/><path d="M-10.6-20.9c.9-.3 1.6-1 2.4-1.4.6-.3 1.1-.4 1.6-1 .8-.9 1.3-2.5 2.6-2.8" fill="none"/><path fill="#A3C06B" d="M-17.5-33.4c-.9-.5-1.8-1-1.8-1.3 0 1.9 1 3.5 2.4 4.7.6.5 1.2.8 1.9 1.2.7.4 1.2 1.2 2.1 1.5.9.3 1.8.7 2.7 1.1-.6-.4-1.4-.9-1.9-1.4-.8-.8-.7-2-1.5-2.9-.7-.8-1.7-1.4-2.5-2-.1-.3-.7-.6-1.4-.9z"/><path d="M-17.5-32.1c1.8.2 2.3 1.5 3.4 2.7.5.6 1.2 1.2 1.8 1.8" fill="none"/><path fill="#A3C06B" d="M-10.2-33c-.8-.4-1.6-.6-2.6-.8.5.6.9 1.2 1.2 1.9.7 1.2 1.6 1.4 2.5 2.4.8.8 1.4 1.3 2.5 1.6 1.1.3 1.9.7 2.5 1.9-.6-1.2-1-2.6-1.7-3.8-.7-1.3-2-1.6-3.2-2.4-.4-.4-.8-.6-1.2-.8z"/><path d="M-10.1-31.9c.8.1 1.3 1.4 2.1 1.9.6.4 1.2.5 1.7 1.1.5.5.8 1.3 1.4 1.8" fill="none"/></g><g stroke-width=".5" fill="none"><path d="M-25.5-29.6c-1-.2-1.8-.8-2.9-.8-1.8 0-3.4 1-5.1.4-.8-.3-1.7-.3-2.6-.4-.9-.1-1.8-.6-2.7-.6.7-.5 1.4-.9 2-1.2.8-.3 1.6-.6 2.6-.8 1.9-.4 3.4.5 4.8 1.7 1.2 1 2.8.9 3.9 1.7zM-24.5-29.5l-.3.5-.6 1.8c0 .2 0 .4.1.7.2-.1.5-.1.8-.2.8-.3 1.5-1 2.4-1 1.3-.1 3.1-.5 4.3.4-1.2-.1-2.4.4-3.4 1-.8.5-1.5 1.5-2.4 1.9-.5.2-1.2.2-1.8.3-.1.3-.4.5-.4.9-.1.4.1.7.1 1.1-.1.6-.5 1.1-.8 1.6 0-.3-1.6-2.9-1.4-2.9h-.2c0-.1.1-.3.1-.5v-.7c-.5.7-1.2 1.3-2 1.9-.7.5-1.4.8-2.2 1.1-.4.2-1.7.3-2 .6.8-.9 1-2.1 1.7-3.1.4-.5 1-.8 1.4-1.2.4-.4.6-.8.9-1.2.2-.2.4-.3.5-.4-.4.1-.9.1-1.3.3-.7.4-1.1.8-1.9.9l-1.4.2c-.5 0-1 0-1.4.2-.1-.4.2-.9.4-1.3.2-.5.5-1 .8-1.4.5-.7 1-1 1.8-1.2 1.7-.4 3.4 0 5.1.1.7 0 1.3 0 2-.1l.4.1c-.5-.1-1 .1-1.4.3h.6c.2-.1.4-.1.7-.2-.1 0-.2.1-.2.1h.2c.2-.1.4-.2.5-.4.1-.1.2-.4.3-.2zm-2.5.8l-.2.1c.2-.1.4-.1.5-.2l-.3.1zm1.4-.3c-.2.1-.4.2-.5.3l-.8.8c-.2.3-.4.8-.5 1.3.3-.6.8-1.2 1.2-1.7.3-.3.6-.6.9-.8l-.3.1zM-23.3-31.4c-1-1-1.4-2.3-2.6-3.2.6 0 1.1.1 1.6.3 1.6.5 3.6 1.2 4.5 2.8.7 1.2 1.1 2.6 1.7 3.8-1.1-2.2-3.7-2.1-5.2-3.7zM-21.4-24.7c.5-.3 1-.3 1.6-.5.8-.3 1.5-1 2.4-1 .5 0 .9.2 1.3.2l.7-.3-.6.3h.1c.5 0 .9-.2 1.3-.2-.8.4-2 .9-2.7 1.6-.6.5-.9 1.5-1.6 1.8-.6.3-1.4.2-2.1.4-.8.2-1.6.5-2.5.6 0-.8 1.1-2 1.7-2.6.2-.2.3-.3.4-.3zM-17-22.6c.7-.6 1.4-1.5 2.3-1.8.9-.4 1.4-1 2.4-1 .7 0 1.2-.2 1.8-.3l.3-.2-.3.2c.3-.1.6-.2 1-.3-2.4.7-2.4 3.7-4.4 4.8-.9.5-1.8.9-2.7 1.2-.9.2-1.7-.1-2.5 0 .3-1.1 1.3-1.9 2.1-2.6zM-3.5-26.6c-.1 0-1.6 2.3-1.8 2.6-.7 1.1-1.2 2.4-2.4 3-.8.4-1.6.9-2.5 1.1-.8.2-1.6 0-2.4.5.1-.1.3-1.1.4-1.3.2-.4.5-.8.9-1.1.7-.6 1.2-1.3 1.8-2 .6-.5 1-.5 1.7-.7 1.1-.4 2.2-1.5 3.4-2-.5-.9-1.3-1.2-2.3-1.5-1.1-.3-1.7-.8-2.5-1.6-.9-.9-1.8-1.2-2.5-2.4l-1.2-1.9c1 .2 1.8.4 2.6.8.4.2.8.4 1.2.7 1.2.8 2.5 1.1 3.2 2.4.6 1.1 1 2.3 1.5 3.4.3.1.6 0 .9 0zM-10.1-26.3c-.9-.3-1.8-.7-2.7-1.1-.8-.3-1.3-1-2.1-1.5-.7-.4-1.3-.6-1.9-1.2-1.4-1.2-2.4-2.8-2.4-4.7 0 .3.9.9 1.8 1.3.6.3 1.2.6 1.4.8.8.7 1.8 1.2 2.5 2l1.5 2.9c.5.6 1.2 1.1 1.9 1.5z"/></g><path fill="#B37E47" stroke-width=".5" d="M-21.3-28.4c1.4.3 3 .6 4.4 1.3l-.5.1c.1.4.7.4 1 .4l1.5.5c.8.3 1.6.2 2.4.3.9.1 1.7.2 2.5.2s1.5-.3 2.3-.4l2.1-.1c.6 0 1.2-.2 1.8-.3.5-.1 1.1-.1 1.5-.3-.2.2-.6.5-.2.7.3-.3.6-.7 1-.9l1.1-.5c.8-.4 1.6-.9 2.4-1.4l2-1.5c-.5-.8-.2-2.7.7-3.1-1 .6-1.8 1.2-2.5 2.1-.6.8-1 1.8-1.8 2.5-1 1-2.5 1.4-3.8 1.8-.9.2-1.7.2-2.6.2-.5 0-1.3.1-1.8 0-.2 0-1.6-.6-1.6-.8.1.4.5.8.8 1.1l-2 .2c-.6.1-1.1.1-1.8-.1-.6-.2-1.4-.2-2-.5-.8-.3-1.5-1.2-2.2-1.8-1.5-1.1-3.2-1.4-5.1-1.2-1.1.1-2.6.1-3.4 1.1.5 0 1-.4 1.5-.5 2.1-.7 4.9-.3 6.7.9.5.4.8.9 1.2 1.4-1-.5-2-1-3-1.2l-1.5-.2c-1.6-.4-3.6-1.3-5.3-.5 1.2-.3 2.3.3 3.4.5.2-.2.5-.1.8 0z"/><path fill="#E30A17" stroke-width=".5" d="M-17.4-26.8c0-.4-.3-.7-.7-.7s-.7.3-.7.7.3.7.7.7.7-.3.7-.7zM-9.1-27.9c0-.4-.3-.7-.7-.7s-.7.3-.7.7.3.7.7.7.7-.3.7-.7zM-2-25.4c0-.4-.3-.7-.7-.7s-.7.3-.7.7.3.7.7.7.7-.3.7-.7z"/></g></symbol><symbol viewBox="-1.4 -31 2.8 62"><path fill="#930" d="M.5-27.6c-.2.1-.3.1-.5.1-.3 0-.5-.1-.8-.2v57.1c.4 2.1.9 2.1 1.2 0v-57z"/><path fill="#ff0" d="M-.8-27.8c.2.2.5.2.8.2.2 0 .3 0 .5-.1.1-.1.2-.2.3-.2.3-.3.4-.6.4-.9 0-.3-.2-.8-.4-1.4-.3-.6-.7-.8-1-.6-.3.2-.5.5-.8.9-.2.4-.4.8-.4 1.1 0 .3.1.6.4.9.1 0 .2.1.2.1z"/><path stroke="#000" stroke-width=".3" stroke-linecap="round" stroke-linejoin="round" stroke-miterlimit="3" d="M-.8-27.8v57.1c.4 2.1.9 2.1 1.2 0v-56.9c.1-.1.2-.2.3-.2.3-.3.4-.6.4-.9 0-.3-.2-.8-.4-1.4-.3-.6-.7-.8-1-.6-.3.2-.5.5-.8.9-.2.4-.4.8-.4 1.1 0 .3.1.6.4.9.2-.1.3 0 .3 0zm1.3.2c-.2.1-.3.1-.5.1-.3 0-.5-.1-.8-.2" fill="none"/></symbol><symbol id="b" viewBox="-1.4 -27.6 2.8 55.2"><path fill="#930" d="M.5-24.3c-.2.1-.3.1-.5.1-.3 0-.5-.1-.8-.2v51.4c.4.6.9.6 1.2 0v-51.3z"/><path fill="#ff0" d="M-.8-24.4c.2.2.5.2.8.2.2 0 .3 0 .5-.1.1-.1.2-.2.4-.2.3-.3.4-.6.4-.9 0-.3-.1-.8-.4-1.4-.3-.6-.7-.8-1-.6-.3.2-.5.4-.8.8-.2.4-.4.8-.4 1.2 0 .3.1.6.4.9l.1.1z"/><path stroke="#000" stroke-width=".3" stroke-linecap="round" stroke-linejoin="round" stroke-miterlimit="3" d="M-.8-24.4v51.4c.4.6.9.6 1.2 0v-51.2c.1-.1.2-.2.4-.2.3-.3.4-.6.4-.9 0-.3-.1-.8-.4-1.4-.3-.6-.7-.8-1-.6-.3.2-.5.4-.8.8-.2.4-.4.8-.4 1.2 0 .3.1.6.4.9.1-.1.2 0 .2 0zm1.3.1c-.2.1-.3.1-.5.1-.3 0-.5-.1-.8-.2" fill="none"/></symbol><symbol id="a" viewBox="-1 -7.3 17.4 7.3"><path stroke="#000" stroke-width="1.5" stroke-linecap="round" stroke-linejoin="round" stroke-miterlimit="3" d="M-.2-1.2c2.9.7 5.7.7 8.6-.1 3.2-.9 5.6-2.7 7.3-5.2" fill="none"/><path stroke="#E6E600" stroke-linecap="round" stroke-linejoin="round" stroke-miterlimit="3" d="M-.2-1.2c2.9.7 5.7.7 8.6-.1 3.2-.9 5.6-2.7 7.3-5.2" fill="none"/></symbol><use xlink:href="#d" width="100" height="170" x="-50" y="-85" transform="matrix(1 0 0 -1 50 85)" overflow="visible"/><g><g><g><use xlink:href="#e" width="11.7" height="12.9" x="-5.9" y="-6.5" transform="matrix(-1 0 0 1 90 135.5)" overflow="visible"/><use xlink:href="#e" width="11.7" height="12.9" x="-5.9" y="-6.5" transform="matrix(-1 0 0 1 10 135.5)" overflow="visible"/><use xlink:href="#e" width="11.7" height="12.9" x="-5.9" y="-6.5" transform="matrix(1 0 0 -1 90 34.5)" overflow="visible"/><use xlink:href="#e" width="11.7" height="12.9" x="-5.9" y="-6.5" transform="matrix(1 0 0 -1 10 34.5)" overflow="visible"/></g><g><use xlink:href="#f" width="7.3" height="12.7" x="-3.6" y="-6.4" transform="matrix(-1 0 0 1 90.5 151.5)" overflow="visible"/><use xlink:href="#f" width="7.3" height="12.7" x="-3.6" y="-6.4" transform="matrix(-1 0 0 1 9.5 151.5)" overflow="visible"/><use xlink:href="#f" width="7.3" height="12.7" x="-3.6" y="-6.4" transform="matrix(1 0 0 -1 90.5 18.5)" overflow="visible"/><use xlink:href="#f" width="7.3" height="12.7" x="-3.6" y="-6.4" transform="matrix(1 0 0 -1 9.5 18.5)" overflow="visible"/></g><use xlink:href="#g" width="79" height="72.9" x="-39.5" y="-35.8" transform="matrix(-1 0 0 1 50 122.06)" overflow="visible"/><use xlink:href="#g" width="79" height="72.9" x="-39.5" y="-35.8" transform="matrix(1 0 0 -1 50 47.94)" overflow="visible"/></g></g><use xlink:href="#h" width="84" height="154" x="-42" y="-77" transform="matrix(1 0 0 -1 50 85)" overflow="visible" opacity=".75"/></svg>
