<svg xmlns="http://www.w3.org/2000/svg" xmlns:xlink="http://www.w3.org/1999/xlink" width="100" height="170" viewBox="0 0 100 170"><symbol viewBox="-22.5 -21.4 44.9 42.9"><path fill="#008000" d="M1.9-18.1c-.7.6-1.3 1.2-1.9 2-.6-.8-1.3-1.5-2.1-2.1-.6-.5-1.3-.9-2.1-1.3-1.7-.9-3.5-1.3-5.5-1.3-3.4 0-6.3 1.2-8.7 3.6-2.4 2.4-3.6 5.4-3.6 8.8 0 4.7 2.5 9.7 7.5 14.8 6.7 5.9 11.5 10.7 14.5 14.3 3-3.6 7.8-8.4 14.4-14.3 5-5.1 7.6-10.1 7.6-14.8 0-3.4-1.2-6.4-3.6-8.8-2.4-2.4-5.4-3.6-8.8-3.6-1.9 0-3.7.4-5.4 1.3-.9.3-1.6.8-2.3 1.4z"/><path fill="#055905" d="M0 20.7v-36.9c.6-.7 1.2-1.4 1.9-1.9.7-.6 1.5-1 2.3-1.5 1.7-.9 3.5-1.3 5.4-1.3 3.4 0 6.4 1.2 8.8 3.6 2.4 2.4 3.6 5.4 3.6 8.8 0 4.7-2.5 9.7-7.6 14.8-6.6 6-11.4 10.8-14.4 14.4z"/><path stroke="#000" stroke-miterlimit="10" d="M1.9-18.1c-.7.6-1.3 1.2-1.9 2-.6-.8-1.3-1.5-2.1-2.1-.6-.5-1.3-.9-2.1-1.3-1.7-.9-3.5-1.3-5.5-1.3-3.4 0-6.3 1.2-8.7 3.6-2.4 2.4-3.6 5.4-3.6 8.8 0 4.7 2.5 9.7 7.5 14.8 6.7 5.9 11.5 10.7 14.5 14.3 3-3.6 7.8-8.4 14.4-14.3 5-5.1 7.6-10.1 7.6-14.8 0-3.4-1.2-6.4-3.6-8.8-2.4-2.4-5.4-3.6-8.8-3.6-1.9 0-3.7.4-5.4 1.3-.9.3-1.6.8-2.3 1.4z" fill="none"/></symbol><symbol id="c" viewBox="-14 -23.5 28 47"><path fill="#F2F200" d="M10 13c0 5.5-4.5 10-10 10s-10-4.5-10-10v-23h20v23z"/><path fill="#D63403" d="M10-10v23c0 5.5-4.5 10-10 10v-33h10z"/><path fill="#008000" d="M13.5-13.5c0-5.2-6-9.5-13.5-9.5s-13.5 4.3-13.5 9.5 6 5.5 13.5 5.5 13.5-.3 13.5-5.5z"/><path fill="#056605" d="M13.5-13.5c0 5.2-6 5.5-13.5 5.5v-15c7.5 0 13.5 4.3 13.5 9.5z"/><path fill="#4E5DC9" d="M-10-9h20v5h-20z"/><path fill="#384A89" d="M0-9h10v5h-10z"/><path stroke="#000" stroke-miterlimit="10" d="M10-8.9v21.9c0 5.5-4.5 10-10 10s-10-4.5-10-10v-21.9c-2.2-.8-3.5-2.1-3.5-4.6 0-5.2 6-9.5 13.5-9.5s13.5 4.3 13.5 9.5c0 2.5-1.3 3.8-3.5 4.6z" fill="none"/></symbol><symbol viewBox="-29.9 -9.5 29.9 19"><path fill="#F2F200" d="M-22.8-6.9c-1.8 0-3.6.7-4.9 2-1.3 1.3-2 3-2 4.9 0 3.8 3.1 6.9 6.9 6.9h13.6v-13.8h-13.6z"/><path fill="#D63403" d="M-9.2-6.9h-13.6c-3.8 0-6.9 3.1-6.9 6.9h20.5v-6.9z"/><path fill="#008000" d="M-6.8-9.3c3.6 0 6.5 4.2 6.5 9.3s-2.9 9.3-6.5 9.3-3.8-4.2-3.8-9.3.2-9.3 3.8-9.3z"/><path fill="#056605" d="M-6.8-9.3c-3.6 0-3.8 4.2-3.8 9.3h10.3c.1-5.1-2.9-9.3-6.5-9.3z"/><path fill="#4E5DC9" d="M-9.9 6.9v-13.8h-3.4v13.8z"/><path fill="#384A89" d="M-9.9 0v-6.9h-3.4v6.9z"/><path stroke="#000" stroke-width=".5" stroke-miterlimit="10" d="M-9.9-6.9h-12.9c-3.8 0-6.9 3.1-6.9 6.9s3.1 6.9 6.9 6.9h12.9c.5 1.5 1.4 2.4 3.1 2.4 3.6 0 6.5-4.2 6.5-9.3s-2.9-9.3-6.5-9.3c-1.7 0-2.6.9-3.1 2.4z" fill="none"/></symbol><symbol viewBox="-31.7 -33.4 63.5 66.3"><g><use xlink:href="#a" width="17.4" height="7.3" x="-1" y="-7.3" transform="matrix(-1 0 0 1 15.75 8.3)" overflow="visible"/><use xlink:href="#a" width="17.4" height="7.3" x="-1" y="-7.3" transform="matrix(-1 0 0 1 15.75 -4.102)" overflow="visible"/><use xlink:href="#a" width="17.4" height="7.3" x="-1" y="-7.3" transform="matrix(-1 0 0 1 15.75 -16.5)" overflow="visible"/><use xlink:href="#a" width="17.4" height="7.3" x="-1" y="-7.3" transform="translate(-15.65 8.3)" overflow="visible"/><use xlink:href="#a" width="17.4" height="7.3" x="-1" y="-7.3" transform="translate(-15.65 -4.102)" overflow="visible"/><use xlink:href="#a" width="17.4" height="7.3" x="-1" y="-7.3" transform="translate(-15.65 -16.5)" overflow="visible"/><use xlink:href="#b" width="2.8" height="55.2" x="-1.4" y="-27.6" transform="translate(0 -5.833)" overflow="visible"/><use xlink:href="#c" width="28" height="47" x="-14" y="-23.5" transform="matrix(0 -.466 .466 0 20.529 -4.306)" overflow="visible"/><use xlink:href="#c" width="28" height="47" x="-14" y="-23.5" transform="matrix(0 -.466 -.466 0 -20.529 -4.306)" overflow="visible"/><use xlink:href="#c" width="28" height="47" x="-14" y="-23.5" transform="matrix(0 -.466 .466 0 20.529 -17.226)" overflow="visible"/><use xlink:href="#c" width="28" height="47" x="-14" y="-23.5" transform="matrix(0 -.466 .466 0 20.529 7.854)" overflow="visible"/><use xlink:href="#c" width="28" height="47" x="-14" y="-23.5" transform="matrix(0 -.466 -.466 0 -20.529 -17.226)" overflow="visible"/><use xlink:href="#c" width="28" height="47" x="-14" y="-23.5" transform="matrix(0 -.466 -.466 0 -20.529 7.854)" overflow="visible"/><use xlink:href="#c" width="28" height="47" x="-14" y="-23.5" transform="matrix(-.466 0 0 .466 -.126 21.633)" overflow="visible"/></g></symbol><symbol viewBox="-22.5 -21.4 44.9 42.9"><path fill="#008000" d="M1.9-18.1c-.7.6-1.3 1.2-1.9 2-.6-.8-1.3-1.5-2.1-2.1-.6-.5-1.3-.9-2.1-1.3-1.7-.9-3.5-1.3-5.5-1.3-3.4 0-6.3 1.2-8.7 3.6-2.4 2.4-3.6 5.4-3.6 8.8 0 4.7 2.5 9.7 7.5 14.8 6.7 5.9 11.5 10.7 14.5 14.3 3-3.6 7.8-8.4 14.4-14.3 5-5.1 7.6-10.1 7.6-14.8 0-3.4-1.2-6.4-3.6-8.8-2.4-2.4-5.4-3.6-8.8-3.6-1.9 0-3.7.4-5.4 1.3-.9.3-1.6.8-2.3 1.4z"/><path fill="#055905" d="M0 20.7v-36.9c.6-.7 1.2-1.4 1.9-1.9.7-.6 1.5-1 2.3-1.5 1.7-.9 3.5-1.3 5.4-1.3 3.4 0 6.4 1.2 8.8 3.6 2.4 2.4 3.6 5.4 3.6 8.8 0 4.7-2.5 9.7-7.6 14.8-6.6 6-11.4 10.8-14.4 14.4z"/><path stroke="#000" stroke-miterlimit="10" d="M1.9-18.1c-.7.6-1.3 1.2-1.9 2-.6-.8-1.3-1.5-2.1-2.1-.6-.5-1.3-.9-2.1-1.3-1.7-.9-3.5-1.3-5.5-1.3-3.4 0-6.3 1.2-8.7 3.6-2.4 2.4-3.6 5.4-3.6 8.8 0 4.7 2.5 9.7 7.5 14.8 6.7 5.9 11.5 10.7 14.5 14.3 3-3.6 7.8-8.4 14.4-14.3 5-5.1 7.6-10.1 7.6-14.8 0-3.4-1.2-6.4-3.6-8.8-2.4-2.4-5.4-3.6-8.8-3.6-1.9 0-3.7.4-5.4 1.3-.9.3-1.6.8-2.3 1.4z" fill="none"/></symbol><symbol viewBox="-15.5 -15.7 31.1 31.3"><path fill="#E60000" d="M2.9 13c1.4 1.4 2.6 2.1 3.8 2.1 2.3 0 4.3-.8 5.9-2.5 1.6-1.7 2.5-3.7 2.5-6 0-3.3-1.7-7-5.2-11-2-2.3-5.3-5.9-9.9-10.6-4.6 4.7-7.8 8.3-9.8 10.6-3.5 4.1-5.2 7.7-5.2 11 0 2.3.8 4.3 2.5 6 1.7 1.6 3.7 2.5 6 2.5 1.2 0 2.4-.7 3.8-2.1.1-.1 1-1.3 2.8-3.5.4.6 1.4 1.8 2.8 3.5z"/><path fill="#A50A0A" d="M6.7 15.1c-1.2 0-2.4-.7-3.8-2.1-1.4-1.7-2.4-2.9-2.9-3.5v-24.5c4.6 4.7 7.9 8.3 9.9 10.6 3.5 4.1 5.2 7.7 5.2 11 0 2.3-.8 4.3-2.5 6-1.7 1.7-3.6 2.5-5.9 2.5z"/><path stroke="#000" stroke-miterlimit="10" d="M2.9 13c1.4 1.4 2.6 2.1 3.8 2.1 2.3 0 4.3-.8 5.9-2.5 1.6-1.7 2.5-3.7 2.5-6 0-3.3-1.7-7-5.2-11-2-2.3-5.3-5.9-9.9-10.6-4.6 4.7-7.8 8.3-9.8 10.6-3.5 4.1-5.2 7.7-5.2 11 0 2.3.8 4.3 2.5 6 1.7 1.6 3.7 2.5 6 2.5 1.2 0 2.4-.7 3.8-2.1.1-.1 1-1.3 2.8-3.5.4.6 1.4 1.8 2.8 3.5z" fill="none"/></symbol><symbol viewBox="-9.1 -9.2 18.3 18.4"><path fill="#fe0" d="M1.7 7.7c.8.8 1.5 1.2 2.2 1.2 1.4 0 2.5-.5 3.5-1.5s1.5-2.2 1.5-3.5c0-1.9-1-4.1-3-6.5-1.3-1.3-3.2-3.4-5.9-6.2-2.7 2.8-4.6 4.9-5.8 6.3-2 2.3-3.1 4.5-3.1 6.4 0 1.4.5 2.5 1.5 3.5s2.2 1.5 3.5 1.5c.7 0 1.4-.4 2.2-1.2 0 0 .6-.7 1.7-2.1.3.4.9 1.1 1.7 2.1z"/><path fill="#B2A100" d="M3.9 8.9c-.7 0-1.4-.4-2.2-1.2-.8-1-1.4-1.7-1.7-2.1v-14.4c2.7 2.8 4.6 4.9 5.8 6.3 2 2.4 3 4.6 3 6.5 0 1.4-.5 2.5-1.5 3.5-.9.9-2 1.4-3.4 1.4z"/><path stroke="#000" stroke-width=".589" stroke-miterlimit="10" d="M1.7 7.7c.8.8 1.5 1.2 2.2 1.2 1.4 0 2.5-.5 3.5-1.5s1.5-2.2 1.5-3.5c0-1.9-1-4.1-3-6.5-1.3-1.3-3.2-3.4-5.9-6.2-2.7 2.8-4.6 4.9-5.8 6.3-2 2.3-3.1 4.5-3.1 6.4 0 1.4.5 2.5 1.5 3.5s2.2 1.5 3.5 1.5c.7 0 1.4-.4 2.2-1.2 0 0 .6-.7 1.7-2.1.3.4.9 1.1 1.7 2.1z" fill="none"/></symbol><symbol id="f" viewBox="-3.4 -6.4 6.7 12.7"><path d="M-1.5.6l2.8 5.8h1.9l-3-6 3.2-6.8h-2l-2.9 6.4h-.1v-6.4h-1.8v12.8h1.8l.1-5.8z"/></symbol><symbol id="d" viewBox="-50 -85 100 170"><path fill="#FAFAEE" d="M-43-84.5c-3.6 0-6.5 2.9-6.5 6.5v156c0 3.6 2.9 6.5 6.5 6.5h86c3.6 0 6.5-2.9 6.5-6.5v-156c0-3.6-2.9-6.5-6.5-6.5h-86z"/><path d="M43 84c3.3 0 6-2.7 6-6v-156c0-3.3-2.7-6-6-6h-86c-3.3 0-6 2.7-6 6v156c0 3.3 2.7 6 6 6h86m0 1h-86c-3.9 0-7-3.1-7-7v-156c0-3.9 3.1-7 7-7h86c3.9 0 7 3.1 7 7v156c0 3.9-3.1 7-7 7z"/></symbol><symbol id="h" viewBox="-42 -77 84 154"><path d="M-41.5-38.5c-.3 0-.5.2-.5.5v76c0 .3.2.5.5.5s.5-.2.5-.5v-76c0-.3-.2-.5-.5-.5zM39.5-77h-79c-1.4 0-2.5 1.1-2.5 2.5 0 .3.2.5.5.5s.5-.2.5-.5c0-.8.7-1.5 1.5-1.5h79c.8 0 1.5.7 1.5 1.5 0 .3.2.5.5.5s.5-.2.5-.5c0-1.4-1.1-2.5-2.5-2.5zM41.5-38.5c-.3 0-.5.2-.5.5v76c0 .3.2.5.5.5s.5-.2.5-.5v-76c0-.3-.2-.5-.5-.5zM41.5 74c-.3 0-.5.2-.5.5 0 .8-.7 1.5-1.5 1.5h-79c-.8 0-1.5-.7-1.5-1.5 0-.3-.2-.5-.5-.5s-.5.2-.5.5c0 1.4 1.1 2.5 2.5 2.5h79c1.4 0 2.5-1.1 2.5-2.5 0-.3-.2-.5-.5-.5z"/></symbol><symbol viewBox="-14.4 -15.9 28.8 31.9"><path fill="#028C02" d="M3.1-12.4c0-.8-.3-1.6-.9-2.2-.6-.6-1.3-.9-2.2-.9-.8 0-1.6.3-2.2.9-.5.7-.8 1.4-.8 2.2 0 .8.3 1.6.9 2.2.6.6 1.3.9 2.2.9.8 0 1.6-.3 2.2-.9.5-.6.8-1.3.8-2.2z"/><path fill="#046604" d="M2.2-14.6c.6.6.9 1.3.9 2.2 0 .8-.3 1.6-.9 2.2-.6.6-1.3.9-2.1.9v-6.1c.8 0 1.5.3 2.1.8z"/><path stroke="#000" stroke-miterlimit="10" d="M3.1-12.4c0-.8-.3-1.6-.9-2.2-.6-.6-1.3-.9-2.2-.9-.8 0-1.6.3-2.2.9-.5.7-.8 1.4-.8 2.2 0 .8.3 1.6.9 2.2.6.6 1.3.9 2.2.9.8 0 1.6-.3 2.2-.9.5-.6.8-1.3.8-2.2z" fill="none"/><path fill="#D9D900" d="M13.9 1.5c0-3.8-1.3-7.1-4-9.8-2.7-2.7-6-4-9.8-4s-7.1 1.3-9.9 4c-2.7 2.7-4 6-4 9.8 0 3.8 1.4 7.1 4 9.8 2.7 2.7 6 4.1 9.9 4.1s7.1-1.4 9.8-4.1c2.7-2.7 4-5.9 4-9.8z"/><path fill="#99950A" d="M.1 15.4v-27.8c3.8 0 7.1 1.4 9.8 4 2.7 2.7 4 6 4 9.8 0 3.8-1.3 7.1-4 9.8-2.8 2.9-6 4.2-9.8 4.2z"/><path fill="#B30000" d="M-13.9 1.5c0-1.8.3-3.5.9-5.1h26c.6 1.6.9 3.3.9 5.1v.9h-27.7c-.1-.3-.1-.6-.1-.9z"/><path fill="#00B300" d="M5.8-10.9c-1.7-.8-3.5-1.2-5.5-1.2s-4 .4-6 1.2c-1.4 1-2.4 2-3 2.9-.6.8-.7 1.3-.3 1.4.3 0 1.1-.3 2.5-.9l4.2-2.1c.5 2 1.2 3 2.3 3 1.1 0 1.8-1 2.3-3.1.8.4 2.2 1.1 4.3 2.1 1.3.7 2.1 1 2.4.9.4-.1.3-.6-.3-1.4-.5-.9-1.5-1.8-2.9-2.8z"/><path d="M3.2 9.3c0-.9-.3-1.6-.9-2.2-.6-.6-1.4-.9-2.3-.9-.9 0-1.6.3-2.2.9-.6.6-.9 1.4-.9 2.2 0 .9.3 1.6.9 2.2.6.6 1.4.9 2.2.9.9 0 1.6-.3 2.2-.9.7-.5 1-1.3 1-2.2z"/><path stroke="#1A171B" stroke-width=".65" fill="none" d="M.1 12.4v3"/><path fill="#087208" d="M9.1-6.6c-.3 0-1.1-.3-2.5-1-2.1-1-3.5-1.7-4.3-2.1-.4 2.1-1.2 3.1-2.2 3.1v-5.5h.3c2 0 3.8.4 5.5 1.2 1.4 1 2.4 2 3 2.9.5.8.6 1.3.2 1.4z"/><path fill="#750B0B" d="M.1 2.4v-6h12.9c.6 1.6.9 3.3.9 5.1v.9h-13.8z"/><path stroke="#000" stroke-miterlimit="10" d="M13.9 1.5c0-3.8-1.3-7.1-4-9.8-2.7-2.7-6-4-9.8-4s-7.1 1.3-9.9 4c-2.7 2.7-4 6-4 9.8 0 3.8 1.4 7.1 4 9.8 2.7 2.7 6 4.1 9.9 4.1s7.1-1.4 9.8-4.1c2.7-2.7 4-5.9 4-9.8z" fill="none"/></symbol><symbol id="e" viewBox="-5.9 -6.5 11.7 12.9"><path fill="#028C02" d="M1.3-5c0-.3-.1-.6-.4-.9-.3-.2-.5-.3-.9-.3-.3 0-.6.1-.9.4-.2.2-.3.5-.3.8 0 .3.1.6.4.9.2.2.5.3.8.3.3 0 .6-.1.9-.4.2-.2.4-.4.4-.8z"/><path fill="#046604" d="M.9-5.9c.2.3.4.6.4.9 0 .3-.1.6-.4.9-.3.2-.5.3-.9.3v-2.5c.4.1.6.2.9.4z"/><path stroke="#000" stroke-width=".5" stroke-miterlimit="10" d="M1.3-5c0-.3-.1-.6-.4-.9-.3-.2-.5-.3-.9-.3-.3 0-.6.1-.9.4-.2.2-.3.5-.3.8 0 .3.1.6.4.9.2.2.5.3.8.3.3 0 .6-.1.9-.4.2-.2.4-.4.4-.8z" fill="none"/><path fill="#D9D900" d="M5.6.6c0-1.5-.5-2.9-1.6-4-1.1-1-2.5-1.6-4-1.6s-2.9.5-4 1.6-1.6 2.4-1.6 4 .5 2.9 1.6 4 2.4 1.7 4 1.7 2.9-.5 4-1.7c1.1-1.1 1.6-2.4 1.6-4z"/><path fill="#99950A" d="M0 6.2v-11.2c1.5 0 2.9.5 4 1.6s1.6 2.4 1.6 4-.5 2.9-1.6 4-2.4 1.6-4 1.6z"/><path fill="#B30000" d="M-5.6.6c0-.7.1-1.4.4-2.1h10.4c.2.6.4 1.3.4 2.1v.4h-11.2v-.4z"/><path fill="#00B300" d="M2.3-4.4c-.6-.3-1.4-.5-2.2-.5-.8 0-1.6.2-2.4.5-.6.4-1 .8-1.2 1.2-.3.3-.3.5-.1.6.1 0 .5-.1 1-.4.8-.4 1.4-.7 1.7-.8.2.7.5 1.2.9 1.2s.7-.4.9-1.3c.4.2.9.4 1.8.9.5.3.9.4 1 .4.2 0 .1-.2-.1-.6-.3-.4-.7-.8-1.3-1.2z"/><path d="M1.3 3.8c0-.3-.1-.6-.4-.9-.2-.3-.5-.4-.9-.4s-.7.1-.9.4c-.2.3-.4.6-.4.9 0 .4.1.7.4.9.3.2.6.3.9.3.3 0 .6-.1.9-.4.3-.2.4-.5.4-.8z"/><path stroke="#1A171B" stroke-width=".65" fill="none" d="M0 5v1.2"/><path fill="#087208" d="M3.7-2.7c-.1 0-.4-.1-1-.4-.9-.4-1.4-.6-1.7-.8-.2.8-.5 1.3-1 1.3v-2.2h.1c.8 0 1.5.2 2.2.5.6.4 1 .8 1.2 1.2.3.2.3.4.2.4z"/><path fill="#750B0B" d="M0 1v-2.4h5.2c.2.6.4 1.3.4 2.1v.4h-5.6z"/><path stroke="#000" stroke-width=".5" stroke-miterlimit="10" d="M5.6.6c0-1.5-.5-2.9-1.6-4-1.1-1-2.5-1.6-4-1.6s-2.9.5-4 1.6-1.6 2.4-1.6 4 .5 2.9 1.6 4 2.4 1.7 4 1.7 2.9-.5 4-1.7c1.1-1.1 1.6-2.4 1.6-4z" fill="none"/></symbol><symbol id="g" viewBox="-38.4 -51 74.8 87.8"><path fill="#CC1B2C" stroke="#31393D" stroke-width=".5" stroke-miterlimit="10" d="M-17.1-38.4v10.7h32.6l6.1-3.1s-1.4-4.1-2.3-7.6c-2.6 1.6-5.7 1.4-8.4 1-1.6-.3-2.6-.7-3.2-.9-.7.9-1.9 1.8-2.2 2.7-.4-.8-.3-1.9-.8-2.7"/><path fill="#CC1B2C" d="M36.2-5.5c-1.1.3-2.4.5-3.8.5-3.8 0-7-1.6-7-3.5s3.1-3.5 7-3.5c1.4 0 2.7.2 3.8.6v5.9z"/><path fill="#FADE64" stroke="#31393D" stroke-width=".25" stroke-miterlimit="10" d="M26.4-9.4c-.3.4-1.7-.3-1.5-.7.3-.7.9-1.7 1.6-2.1 1.3-.8 2.7-1.2 4.2-1.2l2.3-.1c.8 0 1.4.1 2.1.3.2.1 1 .3 1 .3l.1 2.2s-.6-.3-.8-.3c-.6-.2-1.3-.3-1.9-.4-.7-.1-1.3-.1-2-.1-1.2 0-2.6.1-3.7.7-.5.3-1 .6-1.3 1.2 0 0 0 .1-.1.2zM25.9-8.3c.9-.1.8-1.5 0-1.8-.9-.3-1.8.3-1.8 1.1.6 6.9 11.4 5.6 12 4.9v-1.8c-2.3 1-9.1.7-10.2-2.4z"/><path fill="#CC1B2C" stroke="#31393D" stroke-width=".25" stroke-miterlimit="10" d="M23.8-16.2l2.3-.8c-1.7-3.3-1.5-7.7.2-12.3l-1.8.3c-1.4 2.4-2.2 10.4-.7 12.8z"/><path stroke="#31393D" stroke-width=".25" stroke-miterlimit="10" d="M19.1-30c.6-.3 1.1-.5 1.8-.6.7-.1 1.4 0 1.9.4" fill="none"/><g stroke="#31393D" stroke-miterlimit="10"><path fill="#CC1B2C" stroke-width=".5" d="M-16.1-38c-1.8-1.2-3.7-1.3-5.8-1.6-2.2-.3-4.6 0-6.5 1.2-1.3.8-2.5 2.9-3.1 4.2-.4.9-.5 2-.3 2.9.1.8.2 2 .5 2.7.2.5.9 1.1 1.2 1.6.9 1.3 1.6 2.7 1.7 4.3.3 2.8 2.1 5.2 2.8 7.9.7 2.7 1.5 5.7 3.3 7.9.4.5-.8 2.3 1.1 1.7-.6.2 2.2 3.3 2.2 3.4 1.4 1.5 1.9 2.9 3.9 3.7 1.7.7 3.4 1.7 5.2 2.2 1.7.6 3.4.9 5.1 1.6 1.4.6 2.7 1 4.1 1.3 1.7.3 3.3.3 5 .5 1.8.2 3.6.5 5.4.5 1.8-.1 3.1-1.2 4.5-2.2 2.4-1.8 5.5-1.8 7.7-3.7 1.5-1.3 2.5-3.1 3.2-4.8l-1.3-30.5"/><path stroke-width=".5" d="M-14.5-11.9c.7-2.3.5-5.3.3-7.7-.2-1.7-.9-3.6-1.5-5.1-.3-.8-.9-1.9-1.3-2.7" fill="none"/><path stroke-width=".25" d="M-27.8-30.7c2.5 2.8 6.4 3.8 10 2.6M-24.5-25.3c.6-.2 1.4-.7 2.1-.7.5 0 .8.3 1.4.2 1-.3 1.9-1.1 2.8-1.6M-20.8-23.2c1.7-1.3 2.6-2.4 3.3-4.5" fill="none"/><path stroke-width=".5" d="M-22.3-5.6c.1-1.1 1.5-1.6 2.2-2.3" fill="none"/><path stroke-width=".25" d="M-16.6-12c.1-1.3 1.3-2.9 1.6-4.2.4-1.2 1.2-3.7.4-4.8" fill="none"/></g><path fill="#FADE64" stroke="#31393D" stroke-width=".5" stroke-miterlimit="10" d="M14.2-35.2l-3.5.3c1.1 15-2.9 27.5-6.1 34.4l4 .8c2.9-7.5 7.3-18.6 5.6-35.5z"/><path fill="#2E9952" stroke="#31393D" stroke-width=".25" stroke-miterlimit="10" d="M13.8-35l-2 .1c1.2 15.6-3.3 27.9-6 33.9l1.8.8c2.8-6 7.4-18.8 6.2-34.8z"/><path fill="#FADE64" stroke="#31393D" stroke-width=".5" stroke-miterlimit="10" d="M20-32.3c-4.1-.4-9.1-.5-14.6 0 .3-.9.3-1.9.1-2.8l-.4-1.1c6.2-.7 11.5-.4 15.9 0-.8 1.1-1.1 2.5-1 3.9z"/><path fill="#2E9952" stroke="#31393D" stroke-width=".25" stroke-miterlimit="10" d="M20-33.2c-3.8-.4-8.8-.6-14.4-.1.1-.6 0-1.2-.1-1.8l-.1-.2c5.9-.6 11-.3 15 .1-.2.6-.4 1.3-.4 2z"/><g fill="#FADE64" stroke="#31393D" stroke-width=".25" stroke-miterlimit="10"><path d="M10.1-34.5c0-.6-.5-1-1-1s-1 .4-1 1 .5 1 1 1 1-.4 1-1zM13.7-34.5c0-.5-.4-.9-.9-.9s-.9.4-.9.9.4.9.9.9.9-.4.9-.9zM17.4-34.4c0-.6-.5-1.1-1.1-1.1s-1.1.5-1.1 1.1.5 1.1 1.1 1.1 1.1-.5 1.1-1.1zM20.5-34.4c0-.5-.4-.9-.9-.9s-.9.4-.9.9.4.9.9.9.9-.4.9-.9zM7.2-34.1c0-.5-.4-.9-.9-.9s-.9.4-.9.9.4.9.9.9.9-.4.9-.9z"/></g><path fill="#2E9952" stroke="#31393D" stroke-width=".5" stroke-miterlimit="10" d="M4.9-38.4c.2.5.5 2.3.7 2.7 0 4-1 10.2-1.9 14.8-.8 3.5-1.6 6.9-2.9 10.2-.6 1.4-1.2 2.7-1.7 4.1-1.2 2.8-2.5 5.6-4 8.3-.6 1.1-1.2 3.2-2.3 3.7-.6.2-.8-.1-1.2-.4-.8-.6-2-.7-2.9-1-1-.3-1.9-.7-2.9-1.1-.6-.2-1.1-.6-1.6-.8-.5-.2-1.1-.3-1.5-.6 0-.1 1.2-.8 1.3-.9.7-.7 1.1-1.7 1.6-2.5 1.5-2.3 2.9-4.5 4-7 .4-.8.7-1.7 1-2.5l1.1-3c.4-1.1.8-2.2 1.1-3.4.5-1.7.8-3.5 1.2-5.2.4-2.1.9-4.2 1.4-6.4.4-2.1.2-8.1.1-9"/><g fill="#FADE64" stroke="#1F282C" stroke-width=".25" stroke-miterlimit="10"><path d="M-16.3 1.2l6-1.4-2.4-4.7zM-11.1-7.7l2.5-6.8 3 6zM-8.3-15.2l5.4-1.3-3.4-5.3zM-5.7-23.1l3.9-2-2.6-3.5zM-4.4-30.3l4.3-3.5-4.2-4.1zM4.3-24.1l-3.6-4.8 4.6-2.5zM4-22l-4.9 1.3 3.2 4.9zM-1-7l-2.5-5.4 5.3-1.3zM-5.2 1.9l-2.5-6 6.3-1zM-6 3.4l-3.9 1.1 2.4 1.2z"/></g><g fill="#1F282C"><path d="M-15-.5l2.9-.8-1.5-1.8zM-10.3-9.3l2.7-.5-1.4-2.9zM-7.6-16.7l2.6-.8-1.6-2.3zM2.8-17.6l-1.6-2.2 2.3-.9zM4.5-25.9l-1.7-2.4 2.2-1.3zM-.1-8.9l-1.4-2.6 2.7-.6zM-4.2-.1l-1.2-2.9 2.8-.4z"/></g><g fill="#FADE64" stroke="#31393D" stroke-width=".25" stroke-miterlimit="10"><path d="M-3.7-38.4c0 1.4.3 6.9-.2 9.2l-.6 2.5c-.3 1.3-.6 2.5-.8 3.8-.3 1.6-.7 3.4-1.2 5.2l-1 3.2-.2.5-1 2.8c-.3.9-.7 1.8-1 2.6-1.1 2.4-2.4 4.6-4 7.1l-.5.8c-.3.6-.7 1.3-1.3 1.8-.4.3-1 .8-1.5.7-.4-.1-.7-.7-.5-1.1.2-.3.7-.5 1-.7.4-.4.7-.9 1-1.4l.5-.9c1.6-2.5 2.9-4.6 3.9-6.9.4-.8.7-1.6 1-2.5.3-.9.7-1.8 1-2.8l.2-.5c.4-1 .7-2 1-3.1.5-1.8.8-3.6 1.1-5.1.2-1.3.5-2.6.8-3.9l.6-2.5c.4-1.8.1-7.1.1-8.9"/><path d="M6.2-35.7v.7c0 4.8-.9 9.7-1.8 14.3-.7 3.1-1.5 6.7-2.9 10.3-.6 1.4-1.2 2.8-1.8 4.1-1.4 3.1-2.7 5.8-4 8.3l-.4.9c-.4 1-.9 2.1-1.8 2.9-.3.3-1 .6-1.4.3-.5-.4.2-.7.4-1 .2-.2.2-.5.3-.7.4-.7.7-1.3 1-2 .2-.4.3-.7.5-1 1.3-2.5 2.6-5.2 4-8.2.6-1.3 1.2-2.6 1.7-4 1.4-3.5 2.2-7 2.8-10.1.5-2.1.9-4 1.2-5.9.3-1.9.6-3.9.7-5.9l.1-1.5c0-.4.3-2.8.3-3.5.2.6.3 2.1.5 2 .1-.3.6-1 .7-1.1-.1.4-.1 1-.1 1.1z"/></g><path fill="#2E9952" stroke="#31393D" stroke-width=".5" stroke-miterlimit="10" d="M11.1 7.9s5.1-8.7 7.5-21.4l6.9-1.9s-2.6 12.8-3.9 17.1c-.6 1.7-1.4 1.4-4.7 3.3l-5.8 2.9z"/><path fill="#FADE64" stroke="#31393D" stroke-width=".25" stroke-miterlimit="10" d="M13.2 5.5l4.2-3-2.4-2.2zM16.2-3l4.1-2.1-2.1-4zM20.6 1.6l-2.1-2.4 3.4-2z"/><path fill="#31393D" d="M14 3.7l.6-2.4 1.4 1.4zM16.7-4.7l1.1-3 1.4 2.3zM20.6.6l-.7-1.3 1.4-.8z"/><g fill="#FADE64" stroke="#31393D" stroke-width=".25" stroke-miterlimit="10"><path d="M18.6-14.3c-.4 0-.7.2-.7.6-1.1 5.7-2.8 11.2-5.1 16.5-.6 1.4-1.2 2.7-1.7 4.1-.2.4-.6 1.1-.6 1.5 1.6 1 3.6-4.6 3.9-5.5 1.2-3.1 2.4-6.3 3.4-9.5.7-2.2 1.2-4.5 1.6-6.8.1-.4-.2-.8-.6-.9h-.2zM23.3-7.3c-.1-.1-1.4 3.4-1.5 3.7-.3 1.4-.6 2.8-1.1 4.2-.6 1.5-1.5 2.3-2.3 3.6.7.1 1.8-1 2.3-1.4 1.5-1.3 2.1-3.6 2.5-5.5.2-1.2 1.1-3.4.1-4.6z"/></g><path fill="#fff" stroke="#1F282C" stroke-width=".5" stroke-miterlimit="10" d="M11.9 6.7c.3-.6.8-2.2-.3-2.1 0 0 .3-.4.3-.5l.4-.5c.4-.7.6-1.5.4-2.3-.3-.9-1-1.5-2-1.2-.3.1-.8.7-1 .2-.1-.3.1-.6.1-.9 0-.9-.8-1.8-1.5-2.2-1.7-1-3.6-.1-4.5 1.5-.4.7-1 .5-1.3-.1-.4-.7-1-1.1-1.8-1.1-.7-.1-1.8 0-2.3.7-.3.4-.4.8-.3 1.2 0 .3.3.5.3.9l-.9-.3c-1.4 0-2.4 1.8-2.1 3.1.1.3.2.5.4.7-.7.1-1.2.3-1.2 1 0 .9 1 1.4 1.7 1.8 1.5.9 3.4 1.1 5.2 1.3 1.3.2 2.7.3 4 .3 2 0 5.4.6 6.4-1.5z"/><path stroke="#1F282C" stroke-width=".25" stroke-miterlimit="10" d="M9.7 8.1c.5-.2 1-.3 1.3-.8.4-.5 1.1-1.6.4-2.1-.2-.2-.7.1-.9-.3-.3-.7 1-1.5 1.3-2 .4-.5.5-1.9-.3-2-.8-.2-.9.7-1.5 1-1 .4-1.3-.9-1.3-1.6 0-.7.1-1.7-.5-2.1-.7-.4-1.6-.5-2.3-.2-.5.2-1.2.6-1.5 1.1-.1.3 0 .6-.2.8-.2.3-.6.5-1 .4-1.1-.4-1.3-1.8-2.5-2.1-.6-.2-1.4 0-1.6.7-.2.8.4 1.6-.6 2-.6.2-1.1-.1-1.6.4-.3.3-.5.6-.6 1-.1.4.1.8.2 1.2" fill="none"/><g stroke="#31393D" stroke-miterlimit="10"><path fill="#FADE64" stroke-width=".5" d="M-19.4-29.2c-.3-1.1.5-1.7.9-2.7-1.1.4-1.5-.8-1.5-1.6 0-1.2.2-1.6-.7-2.5.9-.1 1.5-.1 2.3-.6.4-.2 1.2-1.1 1.5-.2-1.1-1.5 2-2.8 2.3-4.3.4.9.2 1.8.8 2.7.5.8 1.1 1.6 1.8 2.3.2.2.7.5.7.9s-.2.8-.4 1.1l-.6 1.5c-.3.7-.7 1.2-1.1 1.8-.3.5-.5 1-.9 1.4-.3.3-.7.7-1.1.9l-1.8 1c-.2.1-1.3.6-1.2.8-.2-.9-.7-1.6-1-2.5z"/><path stroke-width=".25" d="M-14.8-28.7c-1.3-.7-1-2.8-.7-3.9.3-1.3 1-2.7 2.4-3 .5-.1 1.2-.2 1.7.2" fill="none"/></g><path fill="#FADE64" stroke="#1F282C" stroke-width=".5" stroke-miterlimit="10" d="M-21.1-10.7c.1.2.2.2.2.5v.5c0 .4-.1.7-.2 1-.2.6-.6 1.2-.9 1.7-.3.5-.7 1-1 1.4-.4.7-1 1.3-1.5 2-.4.5-.7 1-1 1.5-.2.4-.3.8-.4 1.3-.1.4-.3.8-.2 1.2-.3-.2-.6-.5-.7-.9v-.9c-.3.2-.5.5-.8.6-.4.2-.8 0-1.1 0l-.1 1.2c-.2.3-.2.5-.3.8l-.5.9c-.4.5-.9.9-1.5 1.2l-.4.2c-.1.1-.3.1-.5.2-.1 0-.4.1-.4.1.4.7.5 1.4.2 2.2-.2.5-.5.9-.8 1.4l-.6 1.1c-.1.2-.1.6-.1.8-.4-.1-.6-.2-.8-.6-.1-.3-.3-.7-.2-1 0 .3-.1.5-.3.7-.4.4-.8.9-1.3 1.2-.1.1-.5.3-.6.3-.4 0-.1-1.2-.1-1.4.1-.3.2-.6.4-.8.1-.2.5-.7.6-.7h-.9c-.4-.1-.7-.3-1-.7.3-.1.6-.1.8-.3.3-.2.5-.5.7-.8l.6-.6c.6-.7 1.4-1.8 2.5-1.3-.2-.1 0-.9 0-1 .1-.4.2-.7.3-1 .3-.7.7-1.3 1.3-1.7.3-.2.8-.5 1.2-.7.3-.1.7-.4 1-.3-.4 0-.2-1-.2-1.2 0-.4.2-.9.5-1.1-.5.4-1 .4-1.6.2l-.9-.4c.2.1.6-.1.7-.2l.9-.5c.6-.4 1.2-.8 1.7-1.3l.6-.6c.9-.9 1.5-2.1 2.3-3 .2-.3.4-.5.7-.7.3-.3.6-.5.9-.7.3-.2.6-.5 1-.5.3 0 .6.2.8.3-.2-.3-.3-.6-.1-.9.2-.4.9-.7 1.3-.5-.3-.4-.1-1.2.2-1.6.2-.3.6-.6 1-.5-.3-.5-.1-1.2.2-1.6.3-.5.6-.9 1-1.4.6-.8 1.4-1.4 2.2-2 .4-.3.7-.6 1.1-.7.3-.2.7-.2.9-.6-.7-.8.2-2.7 1.4-2l.5-.8c.4-.5.8-1.1 1.1-1.7.9-1.7 1.7-3.4 2.9-4.8.3-.4.5-.7.7-1.1.4-.7.7-1.3 1.3-1.8.4-.3.8-.5 1.3-.6-.1-.7.1-1.4.9-1.1-.4-1.3.2-2 1.6-2 1.2 0 2 1.2 1.4 2.3-.4.6-1 .7-1.6.8.3.4.1.7-.2 1.1-.4.4-.3.4-.3.9 0 .9-.5 2.1-1.3 2.6-.6.4-1.2.6-1.7 1.2l-1.9 2.2-1.9 2c-.5.5-1 1-1.3 1.5-.3.4-.2.9-.4 1.4-.2.7-.7.9-1.4.7-.4 1.1-1 2.2-1.6 3.2-.5 1-1.1 2.1-2 2.9-.3.3-.8.5-1.2.6.1 0 .1.8.1.8-.1.2-.2.5-.4.6-.5.4-1.1.4-1.6.3 0 .4.2.7-.1 1.1-.3-.2-.8 0-1.1-.1z"/><path stroke="#1F282C" stroke-width=".25" stroke-miterlimit="10" d="M-29.4-3.9c.2.4.4.6.8.4.4-.2.5-.5.7-.9l.3-.8c0 .5.2.8.6.3.4-.4.6-.9.8-1.4l.2-.6c-.2.5.4.9.7 1.1.5.3.9.1 1-.4.1-.2 0-.3 0-.5-.1-.8-.2-1.7.1-2.4.2-.4.9-1.4 1.5-.9.4.3 0 1.2-.3 1.4-.2.2-.6.3-.8.3M-26.8-.7v-.6l.1-.6c.1-.3.2-.7.4-1-.3-.1-.6-.1-.8-.4-.1-.1.7-1.1.8-1.2.3-.3.7-.6 1-.8-.2-.2-.3-.7-.4-1M-28.1-4c.4-.3.9.1 1.2.3M-23.8-6.7l.8-.2.6-.3c.6-.4.9-.9 1.2-1.5M-25.2-6.8c-.3-.9-.1-1.9.4-2.6.4-.5.9-1.3 1.6-1.5M-33.9 3.2c.3-.1.7.2.9.3.3.2.6.5.7.9M-34.2 3.3c.7-.1 1.3.1 1.8.6M-36.6 6.1c.8-.2 1.1-1 1.6-1.6.3-.3.5-.6.9-.7.4 0 .8.1 1.1.3.6.4.4 1.2.1 1.7M-32.7 2.7c.3-1.3 1.1-2.6 2.4-3.2.2-.1.4-.2.6-.2M-29.1-2.6c.2-.9 1.5-1.3 2-.4.2.3.2.6.1.9M-5.7-33.8c1.2-.6 2.4.5 2.5 1.5M-4.8-34.8c.4-.4.7-.2 1.1.1.4.3.7.5.8 1M-1.9-34.7c.4-.5.3-1.5-.4-1.8-.2-.1-.5-.2-.7 0M-18.8-12.8c.2-.4.3-.7 0-1-.3-.3-.6-.4-1-.2" fill="none"/><path fill="#1F282C" d="M-22.8-8.8c-.3.5-1 .8-1.5.8-.1-.5.4-1.2.9-1.4.4-.2.8.1.6.6z"/><path stroke="#1F282C" stroke-width=".25" stroke-miterlimit="10" d="M-20.4-14.5c.8-.9 2.5.3 2.4 1.2M-14.5-22.2c.3.8.5 1.6 1.5 1.7" fill="none"/><g stroke="#31393D" stroke-miterlimit="10"><path fill="#E0CAA5" stroke-width=".5" d="M-6.2-29.8l.3.6c.3-.1.6-.1.8 0 .1 0 .7.3.7.3l.3-.3c.2-.5.7-.8 1.2-.9.8-.2.5.6.3 1-.3.6-.5 1.2-.7 1.8-.1.2-.1.5-.2.6 0 .1-.6.3-.6.3 0 .5 0 .9-.4 1.3l-1.4 1.4c.9.9-.6 1.4-1.2 1.8-.3.3-.6.7-1 .9-.3.1-.6.4-1 .2-.6-.3-1.2-.7-1.7-1.1-.6-.4-1.3-.8-1.7-1.5l-.6-.9c-.2-.4-.4-.8-.5-1.2l-.6-2.3-.4-1.8c-.2-.6-.4-1.3-.2-2 .2-.8.6-1.7 1.1-2.4.8-.9 2-1 3.1-.8 1.3.3 2.5 1.4 3.1 2.5.2.4.5.8.6 1.2l.1.6c.3.3.5.5.6.7z"/><path stroke-width=".25" d="M-7.1-26.7c.4-.3.7-.3 1.2-.1.4.1.8.3 1.2.2.4-.1.8-.2 1.1-.4M-8.5-24.5c0-.2.6-.4.8-.4.3-.1.7 0 .9 0 .7.1 1.4.4 2.1 0M-9.7-22.8c.5-.5 1.2-.3 1.8-.3h.8c.3 0 .3.1.5-.1s.5-.4.6-.7" fill="none"/></g><g stroke="#31393D" stroke-miterlimit="10"><path fill="#B37E47" stroke-width=".5" d="M-6.2 20.3v.3c.1.5.4.9.4 1.4-2.1-.3-1.8-3-2.2-4.5-.2-.8-.7-1.2-.4-2.1.1-.3.3-.6.4-1l.1-1c.2-.4.5-.7 1-.5.6.2.6.8.8 1.2.3.7.5 1.3.5 2.1 0 1.1-.4 2-.6 3 0 .4-.1.7 0 1.1z"/><path stroke-width=".25" d="M-7.3 18.6c0-1-.1-1.7-.4-2.6-.3-.9-.6-1.8.1-2.6" fill="none"/></g><g stroke="#31393D" stroke-miterlimit="10"><path fill="#E0CAA5" stroke-width=".5" d="M4.2 5.8c.6.3 1.2.7 1.7 1.2 1.1 1.1 1.6 2.5 2.1 4 .2.5.3 1.3.8 1.2.2-.1 0-.3.5-.2 1 .2.5 1.8.9 2.5.2.3.4.5.5.8.1.6-.2 1.3-.5 1.8-.4.8-.9 1.6-1.2 2.4-.2.6-.1 1.1-.2 1.6-.1.7-.8.9-1.4 1.1-1.7.5-3.6.7-5.4.8-2.1.1-4.2 0-6.2-.5-.9-.2-2.2-.6-2.7-1.6-.4-.9.2-2 .3-2.9.1-.8.3-1.6 0-2.4-.4-1-.3-1.9-.2-2.9.2-1.2 1-2.2 1.4-3.4l.3-1.7c.5-1.3 1.2-3.3 2.5-4.2 1.3-.8 3.1.3 4.2.9.8.6 1.7 1 2.6 1.5z"/><path stroke-width=".25" d="M9.3 15.3c0-.5.1-1.1-.3-1.5M8.5 15.1c-.1-.2-.2-.3-.4-.5-.3-.2-1.1-.4-.3-.7l.5-.1c.1-.2 0-.5-.2-.5" fill="none"/></g><path fill="#fff" d="M-3.7 16c-.3-.2-.6-.3-.9-.3-.5-.1-1.4.4-1.2 1.1.1.5.9.6 1.3.6.9 0 1.9-.7.8-1.4zM2.5 15.9c-.2 0-.5-.1-.6-.1-.7 0-1.3.6-2 .8.4.6 1 .9 1.7.9.4 0 2-.7 1.8-1.2 0-.2-.5-.3-.9-.4z"/><path stroke="#31393D" stroke-width=".5" stroke-miterlimit="10" d="M-3.3 19.3l.4-2c.1-.3-.1-.6-.1-1-.2-.8-.1-1.6-.1-2.4v-1.1l-.1-.9c.1-.7.9-.8 1.4-.5.3.2.6.4 1 .2.3-.2.4-.5.1-.7" fill="none"/><path stroke="#31393D" stroke-width=".25" stroke-miterlimit="10" d="M-.3 13.2c.3.1.6-.6.7-.9.2-.6.1-.9-.4-1.3M4.4 16.6c-.4.2-.8.4-1.1.7-.4.3-.7.7-1.3.7-2.3 0-2-1.4-2.5-1.9.6.6.9 1.4 1.8 1.4.8 0 1.3-.3 1.9-.9.3-.3.4-.5.9-.5-.4-.5-1.1-.7-1.7-.8M-3 17.3c-1 1-2.7.8-3.3-.5M-3.2 15.8c-.3-.3-1.2-.7-1.6-.7M-6.3 16c.4 1.4 2.4 2.2 3.2.7" fill="none"/><path fill="#31393D" d="M1.9 19.1c-.3 0-.7.1-1.1 0-.2-.1-.5-.4-.8-.5-.3-.1-.2 0-.6.1l1.4 1.1c.3.1.5-.1.8-.1l1.7-.1c.5-.1.9-.4 1.2-.7.2-.2 1-.5 1.1-.8-.2 0-.4.1-.5.2-.5.4-.9.5-1.5.7-.5.1-1.1.1-1.7.1zM-4.8 19c-.4.1-.7.1-1-.1-.1-.1-.9-.5-.9-.7 0 .1.9 1.3.8 1.4.6-.3 1.1-.2 1.7-.3.4-.1.7-.3 1.2-.2 0-.2.1-.5 0-.7l-.8.2c-.4.3-.7.3-1 .4zM-3.9 16.3c-.1-.3-.5-.7-.8-.5-.4.1-.7.7-.7 1.1 0 .3.5.7.8.7-.1-.1-.2-.5-.1-.7l.5-.1c.3-.3-.4-.3-.5-.4-.3-.4.8-.2.8.1v-.2zM2.3 16.4c-.1-.3-.5-.7-.8-.6-.4.1-.7.7-.7 1.1 0 .3.5.7.8.7-.2 0-.2-1.1.4-.6.1-.6-.5-.2-.7-.6 0 0 .4-.2.5-.2.2 0 .3.2.5.3v-.1z"/><g stroke="#31393D" stroke-miterlimit="10"><path fill="#B37E47" stroke-width=".5" d="M13 16.5l-.2.4c-.2.4-.5.4-.5.9 0 .4 0 .7-.1 1.1-.2.6-.6 1.3-1.1 1.7-.5.4-1 .7-1.5 1.2-.4.5-.9.8-1.6.9-1 .2-1.4-.3-1.6-1.3-.2-1.2.6-1.7 1.1-2.7-.3-.4 0-1.4.1-1.8.2-.5.6-1.2 1.2-1.4.5-.2 1.1-.1 1.6-.1.2-.7-.4-1.1-.4-1.8 0-.4.1-1-.3-1.3-.5-.4-1.1.2-1.6.2-.3 0-.3-.2-.6 0-.2.1-.1.4-.5.2-.3-.2-.6-.8-.7-1.1l-.3-1.3c0-.6-.2-.9-.7-1.3-.4-.3-.7-.6-1-1 0 .2 0 .5-.2.7-.3-.3-.6-.7-1-1 0 .2 0 .5-.1.7-.6-.3-.5.6-.5.9-.1.8-.7 1.1-1.4 1.4-1 .4-1.9-.1-3 0-.4 0-.7.2-1.1.1-.4-.1-.6-.5-1.1-.5-.5-.1-.9 0-1.2-.5-.2-.4-.2-.8-.2-1.2 0-.3 0-1.1-.5-.9-.5.1-.4.8-.2 1.1-.5-.5-1-1.6-.8-2.2.2-.7 1.4-1.2 2-.6 0-.3.3-.9.4-1.2.1-.4.4-.8.9-.8 0-2 2-2.1 3.6-2.3 1.4-.1 2.8.1 3.9.9.4.3.8.6 1.3.8.6.2 1.1.3 1.5.8.4.5.6 1 1.1 1.4.5.2 1 .4 1.3 1 .2.6.3 1.2.7 1.7.4.5.7.9.8 1.5.6-.1.5-.2.8.3.3.4.9.4 1.2.9.2.3.1.6.1.9l.7 2.2c0 .8 0 1.7-.3 2.4z"/><path stroke-width=".5" d="M-5.1 5.7c.8.2 1.4 2.1 1.4 2.8.7.1 1 .8 1.8.7.4 0 1 0 1.4-.1.3-.1.4-.4.7-.7.6-.5 1.3-.2 1.6-1 .2-.6.9-1.4 1.7-1.2.8.2 1 1.4 1 2.1M-2.6 8.2c.3-.2.8-.3 1.2-.3.3 0 1.2.3 1.2.3" fill="none"/><path stroke-width=".25" d="M6.9 19.6c.4-.8 1.1-1.1 1.9-1.6.7-.5 1.3-1 1.6-1.8.1-.4.2-.7.2-1.1M7.4 22.7c-.6 0-.2-1.6 0-1.8.4-.6 1-1 1.6-1.3 1-.5 2-1 2.4-2.2.2-.5.3-1.1 0-1.5M10.7 15.8c.7-.6 1.4-.9 1.4-1.9 0-.8-.3-1.5-1.1-1.7-.6-.2-.9-.3-1.5.1M8.7 12.5c-.1-1.1 2.4-2.5 1.1-3.5M7.3 12.6c-.2-1-.5-1.9-.2-3 .3-.9.9-1.6.9-2.6 0-.7 0-1.2-.6-1.6M5.9 9.6c-.8-2.1 2.6-3.3.7-5.2M5.4 6.7c.2-.6.6-3.3-.4-3.5M3.6 5.3c.6-.7.5-2.4-.3-3M.2 6.2c-.1-1 .8-1.9.9-2.8.1-.5 0-1.7-.6-2 1.6-.1 2.3 2.1 2 3.4M-3.3 5.6c-.2-.8-.5-1.8-.1-2.6M-1.7 6.4c.2-.7-.2-1.6-.3-2.3-.2-.9.2-1.8.7-2.6" fill="none"/></g><g stroke="#31393D" stroke-miterlimit="10"><path fill="#FADE64" stroke-width=".5" d="M31.9 2.3c.1.2.1.4.1.6l.1.7v1c0 .4-.1.8-.5 1-.4.3-.8-.2-1.1-.5 0 .2-.2.4-.3.5-.1.2-.3.2-.5.2-.3 0-.5-.2-.7-.4-.1-.1-.5-.6-.4-.7-.1.3-.5.5-.8.3-.3-.1-.4-.5-.4-.7-.1-.8.3-1.7.6-2.4"/><path fill="#FADE64" stroke-width=".5" d="M30.3 6.6c0-.4-.3-.8-.7-.8-.4 0-.7.3-.7.8s.3.8.7.8c.3 0 .7-.4.7-.8z"/><path stroke-width=".25" d="M28.6 4.9c-.1-.2.1-.6.1-.7 0-.2.1-.5.2-.7l.2-1M30.6 5.3c-.1-.5 0-1 0-1.5v-1" fill="none"/><path fill="#FADE64" stroke-width=".5" d="M28.1 1.3c-.3.1-.3.4-.1.6.4.4 1 .5 1.5.6.5.1.9.3 1.4.2.3 0 .6-.1.8-.2.2-.1.4-.2.5-.4.1-.2 0-.4-.2-.4"/><path fill="#CC1B2C" stroke-width=".5" d="M29-.4c-.5.2-1.3.4-1.3 1s.6.9 1.1 1.1c.8.3 1.9.6 2.7.3.6-.2 1.1-.7 1-1.4-.1-.5-.7-.6-1-.7"/></g><path fill="#00AFE9" stroke="#31393D" stroke-width=".5" stroke-miterlimit="10" d="M36-.6c-.6.1-1.6.1-2.4-.6-.5 1.1-2.5 1.6-3.2 1.6-1.7 0-3.7-2.1-3.7-2.1s-1 .4-1.1.4c-.6 0-1.3-.1-1.9-.5-.8-.5-1.2-1.2-1.4-2.1v-1.3c-.7.3-1.8-.8-2.1-1.4-.4-.9-.2-2.7.1-3.6.3-.8 1.5-2.3 1.5-2.3s-1.9-2-2.2-2.6c-.6-1.2-1-2.6-1.4-3.9-.5-1.7-.3-3.9-.1-5.6.3-2.1 1.5-3.9 2.4-5.7 2-4.1 4.8-7.7 6.6-11.9.6-1.5 1.4-3.3 1.5-4.9.1-.9-.6-1.7-.9-2.5.8.2 2 .4 2.7.8.8.5 1.3 1.3 1.8 2 .3.5.7 1 .9 1.6.2.6.3 1.2.4 1.9.2 1.2.2 2.4-.2 3.6-1 3.1-2.4 5.1-3 6.3.8-.7 1.7-1.5 2.4-2.1.7-.5 1.4-.7 2.3-.7-1.4 1-.3 3.1-1 4.4-.8 1.3-1.8 2.8-1.9 4.3.4-.7 1.3-1.3 1.7-1.5.6-.3 1.2-.5 1.7-.8l.1 1.2c0 1-.3 1.7-.7 2.6-.3.6-.5 1.3-.7 1.9-1 3.7-.6 6.2-.6 6.2s1.4 0 2.3.5v16.8z"/><path fill="#fff" stroke="#31393D" stroke-width=".25" stroke-miterlimit="10" d="M20.6-14.2c-1.2-1.3-1.6-3.1-1.9-4.8-.3-1.5-.4-3-.3-4.4.1-.9.3-1.7.5-2.6.2-1.1.5-2.1 1.2-3 .3-.4.5-.8.8-1.1-1 0-2.2 1-2.8 1.7-.7.7-1.2 1.7-1.5 2.7-.8 2.4-1 5-.4 7.4.3 1.2.6 2.4 1.1 3.5.4 1.1 1.1 2.1 2 2.8.8.6 2.1 1.5 2.9.6.6-.6-.2-1.4-.6-1.8l-1-1z"/><path fill="#FADE64" stroke="#31393D" stroke-width=".5" stroke-miterlimit="10" d="M17.8-15.4c.6 1.4 1.7 3.1 3.2 3.6-.3-.5.2-1.2.3-1.3.3-.3.7-.5 1.2-.5 1.2 0 1.6 1.2 1.3 2.2-.4 1.4-2 1.9-3.2 1.6-1.5-.3-2.7-1.5-3.5-2.7-.5-.6-.9-1.4-1.2-2.1-.6-1.3-1-2.4-1.2-3.8-.2-2.1-.1-4.3.4-6.4 1.1-4.7 3.8-8.4 6.2-12.5l3-5c.9-1.5 1.9-3.2 2.2-5 .1-1-.3-2.6-1.3-3.1.6-.6 1.7-.3 2.4 0 1.1.4 1.7 1.6 2 2.7.6 1.9.4 4.2-.9 5.8-.6.8-1.9.9-2.4 1.7 1-1 3-1 3.9 0 .3.3.5.7.6 1.1-.6 0-.9 0-1.4.4-.9.7-1.5 1.6-2.1 2.5-.5.9-1 1.8-1.9 2.3-.5.3-1.1.4-1.6.6.5.9.5 2.1.2 3.1-.2.7-.6 1.5-1.2 2-.4-1.3-2.5-1.2-3.3-.5-1 .8-1.5 2-1.9 3.1-.2.6-.4 1.2-.5 1.8-.7 2.8-.5 5.7.7 8.4z"/><g stroke-width=".25" stroke-miterlimit="10" fill="none"><path stroke="#1F282C" d="M25.5-12.4c3.3-2.9 7.9-2.5 10.6-1.6"/><path stroke="#31393D" d="M19.8-31.7c1.5-.4 2.9-1.2 4.3-1.8M26.7-40.5c-.8.2-1.3.8-1.9 1.3-.6.6-1.3 1-1.9 1.5l-1.9 2.1M23.7-40.1l2.4-3.9c.2-.4.4-.8.6-1.1.4-.8.9-1.9.9-2.9 0-.5-.2-.9-.5-1.3M25.7-42c.7-.8 1.4-1.6 1.9-2.5.3-.5.6-1.2.6-1.8"/></g><g stroke="#1F282C" stroke-width=".25" stroke-miterlimit="10" fill="none"><path d="M27.1-17.6c-1.2-5.3 1-12.5 3-15.4M30.7-18.2c-.1-1.8.7-7.4 1.6-9.5M26.1-17.3c-1.3-4-.7-8.3.6-12.2M24.8-16.4c-1-2.4-1.2-6.3-.3-8.9M23.1-15.4c-.8-2-1.2-4.8-.8-7M29.5-18c-.1-3.5.6-6.3 1.5-9.3M28.3-17.7c-.1-1.9-.4-6.4 1-10M32.1-18c-.1-1.8.1-4.1.8-6.1"/></g><path fill="#CC1B2C" d="M36.1-4.1c-5.4 2.2-11.2 0-11.2-3.9s8.5-4.3 11.1-3.2"/><path fill="#FADE64" stroke="#1F282C" stroke-width=".25" stroke-miterlimit="10" d="M36.1-10c-.5-.3-2.2-.8-3.6-.8s-6.1-.1-7.2 2.7c0 0-1.6 1.1-1.6.2 0-3.1 3.4-4.8 7.9-4.8 1.3 0 3.3.1 4.4.7M36.1-5.1c-.5.3-2 .7-3.5.7s-6.4-.3-7-2.8c1.3-.1.6-1.9-.5-1.9-1 0-1.4 1-1.4 1.9 0 3.1 5.9 4.9 7.9 4.9 1.3 0 3.3-.1 4.4-.7"/><g stroke="#31393D" stroke-miterlimit="10"><path fill="#FADE64" stroke-width=".5" d="M16 31.2c-.2-.2-.4-.5-.5-.8-.4 1.9-3.8.8-3.3-1.1.1-.4.3-.7.6-.9.2-.1.8-.4 1-.1-.3-.4-.6-.6-1-.8-.7-.4-1.9-.6-2.7 0-.5.3-.7.9-.9 1.4-.2.5-.1 1-.2 1.5.4 0 1 .2 1.2.6.2.4 0 1.1-.3 1.4-.5.7-1.1.9-1.9.7-.8-.1-1.5-.3-1.5-1.1 0-.7.2-1.3.9-1.5-.3-.6-.9-1.2-1.5-1.6-.7-.4-1.5-.6-2.2-.5-1.1.1-1.8 1.2-1.9 2.3.6-.4 1.4-.8 2.1-.2.5.5.7 1.2.7 1.9-.1 1-1 1.7-1.9 1.7.4.3.7.6.6 1.2-.4 1.5-2.8 1.8-3.7.7-.4-.5-.5-1.2-.2-1.7-.6 0-1.4 0-1.8-.6-.5-.6-.8-1.7-.3-2.4.2-.3.6-.5 1-.5s.8 0 1.1.1c0-.5-.3-1.1-.7-1.4-.5-.4-1-.6-1.6-.5-.3.1-.6.2-.8.4-.3.2-.4.4-.6.7.3.2.6.3.7.7.1.4.1.8-.1 1.1-.3.3-.7.6-1.3.7-.8 0-1.8-.2-2.1-1-.4-1 .6-1.8 1.5-1.8 0 0-.2-1.2-.2-1.3-.2-.4-.7-.5-1.1-.6-.5-.1-1.6 0-1.7.7.6.2.7 1.4.4 1.9-.3.6-1.8.8-2.4.7-.3-.1-.7-.3-.7-.3s-.6.8-1 .9c-1.2.3-2.8-.3-3.5-1.3.3 0 .6 0 .8-.1 2-.5 3.9-1.4 5.2-3 .4-.5.7-1 1-1.6-.3-.2-.5-.5-.3-.8.1-.3.5-.5.8-.3.2-.6.4-1.4.6-2.2h-.1c-.3-.1-.5-.5-.4-.8.1-.3.5-.5.8-.4.4.1 3.8 1.3 8.8 1.2 4.4 0 8.8-1.3 10.1-1.7h.2c.3 0 .5.2.6.5.1.3-.1.6-.3.7.2.7.5 1.3.7 1.9h.2c.3 0 .5.1.6.4.1.3 0 .6-.2.8-.1.1 3.3 3.7 3.6 4 .5.6 1.1 1.1 1.8 1.6.5.4 1.1.7 1.7 1.1-1.3.2-3.3.4-4.4-.6z"/><path stroke-width=".25" d="M-10 27.8c.6-.6 1.4-1.3 2.3-1.4 1.3-.1 2.3.6 2.8 1.7-.1-.1.6-.5.7-.6.4-.2.8-.4 1.3-.4 1.1-.1 2.2.6 2.9 1.4.5-1.9 4.6-1.9 7.7-.4.6-1.7 1.3-1.8 2-2 .7-.2 1.5-.3 2.2-.1 1.4.2 2.8 1 3.9 2" fill="none"/><g fill="#2E9952" stroke-width=".25"><path d="M-4.7 23.2l-2.7.5 2.1 1.4 2.7-.4zM2 23.5l-3.2 1.1 3.2 1.1 2.7-1.3zM9.3 22.5l-2.6 1.8 3.1.3 2.4-1.8z"/></g><g fill="#CC1B2C" stroke-width=".25"><path d="M2 32.9c0-.7-.6-1.3-1.3-1.3s-1.3.6-1.3 1.3.6 1.3 1.3 1.3 1.3-.6 1.3-1.3zM-1.2 24.9c0-.5-.4-.9-.9-.9s-.9.4-.9.9.4.9.9.9.9-.4.9-.9zM6.6 24.4c0-.4-.4-.8-.8-.8s-.8.4-.8.8.4.8.8.8.8-.3.8-.8zM17.2 28.3c0-.5-.4-1-1-1s-1 .4-1 1 .4 1 1 1 1-.5 1-1zM-10.1 28.6c0-.6-.5-1.1-1.1-1.1s-1.1.5-1.1 1.1.5 1.1 1.1 1.1 1.1-.5 1.1-1.1zM-7 23.7c0-.4-.3-.7-.7-.7s-.7.3-.7.7.3.7.7.7.7-.3.7-.7zM13.4 23c0-.5-.4-.8-.8-.8s-.8.4-.8.8.4.8.8.8.8-.4.8-.8z"/></g><path fill="#FADE64" stroke-width=".25" d="M11.8 20.6h-.2c-1.3.4-5.7 1.6-10.1 1.7-5 .1-8.4-1.1-8.8-1.2-.3-.1-.7.1-.8.4-.1.3.1.7.4.8.4.1 4 1.3 9.2 1.3 4.6 0 9.1-1.3 10.4-1.7.3-.1.6-.5.5-.8-.1-.3-.3-.5-.6-.5zM13 23.7c-.1 0-.2 0-.3.1-2 .8-6.6 1.9-8.9 2.1-1.4.1-2.7.2-3.8.1-1.6 0-6-.6-8-1.5-.3-.1-.7 0-.9.3-.1.3 0 .7.3.9 2.3 1 6.8 1.6 8.5 1.6 1.2 0 2.6 0 4.1-.2 2.5-.3 7.2-1.3 9.3-2.2.3-.1.5-.5.3-.9-.1-.2-.3-.3-.6-.3z"/></g><g><path fill="#27A1DE" stroke="#000" stroke-width=".5" stroke-miterlimit="10" d="M-24.2 12.9c-.5.5-1.1.8-1.8.8s-1.3-.2-1.9-.8c-.5-.5-.8-1.1-.8-1.8s.2-1.3.8-1.9c.5-.5 1.1-.8 1.9-.8.7 0 1.3.3 1.8.8s.8 1.1.8 1.9c0 .7-.2 1.3-.8 1.8zm-.9-2.8c-.2-.2-.6-.4-.9-.4-.4 0-.7.1-.9.4-.3.3-.4.6-.4.9 0 .4.1.7.4.9.3.2.6.4.9.4.4 0 .7-.1.9-.4.3-.3.4-.6.4-.9 0-.3-.1-.6-.4-.9z"/><path fill="#D9D900" d="M-14.1 23c0-3.3-1.2-6.1-3.5-8.5-2.4-2.3-5.2-3.5-8.5-3.5s-6.1 1.2-8.5 3.5c-2.3 2.4-3.5 5.2-3.5 8.5s1.2 6.1 3.5 8.4c2.4 2.4 5.2 3.5 8.5 3.5s6.1-1.2 8.5-3.5c2.4-2.3 3.5-5.1 3.5-8.4z"/><path fill="#99950A" d="M-26 35v-23.9c3.3 0 6.1 1.2 8.4 3.5 2.3 2.4 3.5 5.2 3.5 8.5s-1.2 6.1-3.5 8.4c-2.3 2.3-5.1 3.5-8.4 3.5z"/><path fill="#B30000" d="M-15.1 18.1c.7 1.5 1 3.1 1 4.9v.8c-7.9-1.7-16-1.7-23.9 0v-.8c0-1.8.3-3.4 1-4.9 7.3-1.3 14.7-1.3 21.9 0z"/><path fill="#750B0B" d="M-26 22.6v-5.4c3.6 0 7.3.3 10.9 1 .3.1.7 1.9.7 2.2.1.3.4 3.5.3 3.5-3.9-.9-7.9-1.3-11.9-1.3z"/><path fill="#00B300" d="M-21 12.3c-1.4-.7-3-1-4.7-1-1.7 0-3.4.3-5.2 1-1.2.9-2 1.7-2.6 2.5-.5.7-.6 1.1-.2 1.2.3 0 1-.2 2.2-.8l3.6-1.8c.4 1.8 1.1 2.7 2 2.7.9 0 1.6-.9 2-2.7.7.3 1.9.9 3.7 1.8 1.1.6 1.8.8 2.1.8.4-.1.3-.5-.2-1.2-.7-.8-1.5-1.7-2.7-2.5z"/><path d="M-23.3 29.8c0-.7-.3-1.4-.8-1.9s-1.2-.8-1.9-.8c-.8 0-1.4.3-1.9.8s-.8 1.2-.8 1.9c0 .8.3 1.4.8 1.9s1.2.8 1.9.8 1.4-.3 1.9-.8c.6-.6.8-1.2.8-1.9z"/><path stroke="#1A171B" stroke-width=".65" fill="none" d="M-26 32.4v2.6"/><path fill="#087208" d="M-18.2 16c-.3 0-1-.2-2.1-.8-1.8-.9-3-1.5-3.7-1.8-.4 1.8-1.1 2.7-2 2.7v-4.8h.2c1.7 0 3.3.3 4.7 1 1.2.9 2 1.7 2.6 2.5.6.7.6 1.1.3 1.2z"/><path stroke="#000" stroke-width=".5" stroke-miterlimit="10" d="M-14.1 23c0-3.3-1.2-6.1-3.5-8.5-2.4-2.3-5.2-3.5-8.5-3.5s-6.1 1.2-8.5 3.5c-2.3 2.4-3.5 5.2-3.5 8.5s1.2 6.1 3.5 8.4c2.4 2.4 5.2 3.5 8.5 3.5s6.1-1.2 8.5-3.5c2.4-2.3 3.5-5.1 3.5-8.4z" fill="none"/></g></symbol><symbol viewBox="-1.4 -31 2.8 62"><path fill="#930" d="M.5-27.6c-.2.1-.3.1-.5.1-.3 0-.5-.1-.8-.2v57.1c.4 2.1.9 2.1 1.2 0v-57z"/><path fill="#ff0" d="M-.8-27.8c.2.2.5.2.8.2.2 0 .3 0 .5-.1.1-.1.2-.2.3-.2.3-.3.4-.6.4-.9 0-.3-.2-.8-.4-1.4-.3-.6-.7-.8-1-.6-.3.2-.5.5-.8.9-.2.4-.4.8-.4 1.1 0 .3.1.6.4.9.1 0 .2.1.2.1z"/><path stroke="#000" stroke-width=".3" stroke-linecap="round" stroke-linejoin="round" stroke-miterlimit="3" d="M-.8-27.8v57.1c.4 2.1.9 2.1 1.2 0v-56.9c.1-.1.2-.2.3-.2.3-.3.4-.6.4-.9 0-.3-.2-.8-.4-1.4-.3-.6-.7-.8-1-.6-.3.2-.5.5-.8.9-.2.4-.4.8-.4 1.1 0 .3.1.6.4.9.2-.1.3 0 .3 0zm1.3.2c-.2.1-.3.1-.5.1-.3 0-.5-.1-.8-.2" fill="none"/></symbol><symbol id="b" viewBox="-1.4 -27.6 2.8 55.2"><path fill="#930" d="M.5-24.3c-.2.1-.3.1-.5.1-.3 0-.5-.1-.8-.2v51.4c.4.6.9.6 1.2 0v-51.3z"/><path fill="#ff0" d="M-.8-24.4c.2.2.5.2.8.2.2 0 .3 0 .5-.1.1-.1.2-.2.4-.2.3-.3.4-.6.4-.9 0-.3-.1-.8-.4-1.4-.3-.6-.7-.8-1-.6-.3.2-.5.4-.8.8-.2.4-.4.8-.4 1.2 0 .3.1.6.4.9l.1.1z"/><path stroke="#000" stroke-width=".3" stroke-linecap="round" stroke-linejoin="round" stroke-miterlimit="3" d="M-.8-24.4v51.4c.4.6.9.6 1.2 0v-51.2c.1-.1.2-.2.4-.2.3-.3.4-.6.4-.9 0-.3-.1-.8-.4-1.4-.3-.6-.7-.8-1-.6-.3.2-.5.4-.8.8-.2.4-.4.8-.4 1.2 0 .3.1.6.4.9.1-.1.2 0 .2 0zm1.3.1c-.2.1-.3.1-.5.1-.3 0-.5-.1-.8-.2" fill="none"/></symbol><symbol id="a" viewBox="-1 -7.3 17.4 7.3"><path stroke="#000" stroke-width="1.5" stroke-linecap="round" stroke-linejoin="round" stroke-miterlimit="3" d="M-.2-1.2c2.9.7 5.7.7 8.6-.1 3.2-.9 5.6-2.7 7.3-5.2" fill="none"/><path stroke="#E6E600" stroke-linecap="round" stroke-linejoin="round" stroke-miterlimit="3" d="M-.2-1.2c2.9.7 5.7.7 8.6-.1 3.2-.9 5.6-2.7 7.3-5.2" fill="none"/></symbol><use xlink:href="#d" width="100" height="170" x="-50" y="-85" transform="matrix(1 0 0 -1 50 85)" overflow="visible"/><g><g><g><use xlink:href="#e" width="11.7" height="12.9" x="-5.9" y="-6.5" transform="matrix(-1 0 0 1 90 135.5)" overflow="visible"/><use xlink:href="#e" width="11.7" height="12.9" x="-5.9" y="-6.5" transform="matrix(-1 0 0 1 10 135.5)" overflow="visible"/><use xlink:href="#e" width="11.7" height="12.9" x="-5.9" y="-6.5" transform="matrix(1 0 0 -1 90 34.5)" overflow="visible"/><use xlink:href="#e" width="11.7" height="12.9" x="-5.9" y="-6.5" transform="matrix(1 0 0 -1 10 34.5)" overflow="visible"/></g><g><use xlink:href="#f" width="6.7" height="12.7" x="-3.4" y="-6.4" transform="matrix(-1 0 0 1 90.5 151.5)" overflow="visible"/><use xlink:href="#f" width="6.7" height="12.7" x="-3.4" y="-6.4" transform="matrix(-1 0 0 1 9.5 151.5)" overflow="visible"/><use xlink:href="#f" width="6.7" height="12.7" x="-3.4" y="-6.4" transform="matrix(1 0 0 -1 90.5 18.5)" overflow="visible"/><use xlink:href="#f" width="6.7" height="12.7" x="-3.4" y="-6.4" transform="matrix(1 0 0 -1 9.5 18.5)" overflow="visible"/></g><use xlink:href="#g" width="74.8" height="87.8" x="-38.4" y="-51" transform="matrix(-1 0 0 1 45.5 123.4)" overflow="visible"/><use xlink:href="#g" width="74.8" height="87.8" x="-38.4" y="-51" transform="matrix(1 0 0 -1 54.5 46.6)" overflow="visible"/></g></g><use xlink:href="#h" width="84" height="154" x="-42" y="-77" transform="matrix(1 0 0 -1 50 85)" overflow="visible" opacity=".75"/></svg>
