<svg xmlns="http://www.w3.org/2000/svg" xmlns:xlink="http://www.w3.org/1999/xlink" viewBox="0 0 100 150" enable-background="new 0 0 100 150"><symbol id="f" viewBox="-33.2 -7.8 66.3 15.5"><g fill="#FFFF3C"><path d="M-21.1-1.4c-.3-1.8-2.1-3.7-4-3.7-.9 0-2 .8-2.8 1.2-1.5.7-2-1.8-4-1.1-.8.3-1.2 1.4-.8 2.2.1.2 1.8 1.1 1.7.6 0-.6-1.7-.5-1.3-1.8.2-.6 1-.9 1.6-.6 1.3.7 1.3 3.2 1.4 4.4.1 1.8.4 4.9-1.1 6.3-.5.4-1.4.5-1.9 0-1-1.1.7-1.3.7-1.7-.1-.6-1.4.6-1.4 1.1-.1 1.1.8 1.9 1.8 2.2 1.3.3 2.5-.3 3.3-1.2.4 0 1.4.8 1.8 1 1.6.9 3.7-.8 4.1-2.4.4-1.4-.8-2.4 0-3.4.7-.9 1-2 .9-3.1-.2-1.2 0 .1 0 0zm-3.3 6.2c-.6 2.3-1.6 2.1-3.3 1.3 1.1-1.5 1.2-3.6.9-5.3 2.3.4 3 1.5 2.4 4-.2.6.1-.5 0 0zm1.4-6c-.5 2-1.3 1.8-3 1.6-1.3-.2-.9-.4-1.3-1.5-.3-.8-.5-.6 0-.8l4.2-1.9c.4.6.3 1.8.1 2.6-.3.9 0-.3 0 0zM-11.8-3.7l-2.3-1.2c-.4-.2-1 .8-1.1 1.1l-2.8-1.2c-2.8-.9-1.3 5.9-2.9 6.7.9.5 2.7 2.1 3.3.5.5-1.2.1-3 .1-4.3 0-1.7 2-1.9 2-.6 0 1.2.5 3.7-.9 4.3 1.1.6 3.4 2.4 3.4-.3.1-1.3-.5-4.4 1.2-5zM.8-1c0-1.4-.4-2.7-1.1-3.8-.2-.3-2.6-3.3-3.1-2.8.3-.4 1.6 4.1 1.7 4.4.2 1.3.6 4-.9 4.7-1.2.7-1.1-1.1-1.1-1.7 0-1.1-.3-2.9.9-3.5-.9-.5-2.7-2.1-3.3-.5-.5 1.2-.1 3-.1 4.3 0 1.6-2.1 1.9-2.1.6 0-1.2-.5-3.7.9-4.4-1.5-.9-3.4-2.3-3.4.7-.2 1.4.7 4-1 4.6.7.4 3.5 2.5 3.5.2.7.4 2 1.2 2.8 1.2 1.6 0 .8-1.6 2.3-.7.6.3 1.3.9 2 .6 1.4-.7 2-2.5 2-3.9zM13.9-1c0-1.4-.4-2.7-1.1-3.8-.2-.3-2.6-3.3-3.1-2.8.4-.3 1.7 4.2 1.8 4.5.2 1.3.6 4-.9 4.7-1.4.7-1.3-1.2-1.3-1.8 0-1.1-.3-2.9.9-3.5-.9-.6-2.6-2.2-3.3-.6-.5 1.2-.1 3.1-.1 4.3 0 1.6-2.1 1.9-2.1.6 0-1.2-.5-3.7.9-4.4-1.4-.8-3.4-2.2-3.4.8-.2 1.4.8 3.9-1 4.6.7.4 3.5 2.5 3.5.2.8.4 2 1.2 2.9 1.2 1.6 0 .8-1.6 2.3-.7.6.3 1.3.9 2 .6 1.3-.7 1.9-2.5 2-3.9 0-1.9-.1 1.1 0 0zM20.7-3.3c-1.3-1.1-2.4-2.5-4.2-1.6-1.6.8-3 4.3-1.1 5.6.7.6 2.4 2.3 3.3 2.3 1.3 0 1.9-1.7 1.6-2.7-.4-1.3-2-1.9-3.2-2 .1-.7.6-2.5 1.6-2.5.7 0 1.4 1.9 2 .9zm-2.5 4.1c0 .8-.4 1.2-1 .6-.6-.4-.3-2.2-.2-2.8 1 .4 1.2 1.3 1.2 2.2zM28.4 1.2l-2.1-1.5c.1 1.8-1.7 2.9-1.7.8 0-1.3-.5-3.7 1-4.3-1.4-.7-3-2.2-3.5.2-.3 1.4.7 4.3-1 5.1 1 .5 2.8 2.2 3.4.3 1.3 1 3.7 2.1 3.9-.6zM33.2-3.8c-.8-.4-2.1-1.7-2.9-.9-.8.9-.7 2.2-.7 3.3 0 1.5.9 6.8-.9 7.6.8.4 2.1 1.7 3 1 .7-.6.5-2.2.5-3.1-.1-1.5-1-7.1 1-7.9z"/></g></symbol><symbol id="e" viewBox="-36.5 -9.7 73.1 19.4"><path fill="#9C0000" d="M32.7-2c0 2.7 1.2 9.1-1.3 11-2.5 1.8-6.2-1.5-8.4-2.8l2.4-1.2c-.6 0-1.5-.6-1.9-.5-.3.2-1 .7-1.3.7l-2.3-1.3c-2.4 2.4-4.4.3-6.4-1.1-.6 1-1.5 1.9-2.7 2.2-1 .2-1.7-.7-2.5-.6-1.1.5-1.9.6-3 .4-1.4-.3-1.3-.2-2.7.1-1.2.3-1.9-1.3-3-1.2-.8.9-2.1 1.5-3.3 1.1l-1.2-.6c-.6.4-1.2.7-1.9.7-.8 0-1.5-.4-2.1-.6-.4.3-1.5.8-2.1.8-.3 0-.9-.5-1.2-.7-1.3-.7-1.2 0-2.6.4-1.4.3-1.7-.9-2.9-1-1.2 1.3-2.3 1.3-3.6.5-.1 2.4-1.8 4.4-4.1 5.1-1 .3-1.9.3-2.8-.2-1.1-.6-1-.2-2.2.2-2.5.7-5.7-.6-6-3.4-.2-2.1 1.6-4.3 3.8-3.7.1-1.1.4-2.3-.7-2.6-1.2-.3-2.3-1.1-2.6-2.3-.6-2 .7-4.2 2.8-4.6 1-.2 2.1 0 3 .5 1.2.6 1.1.4 2.3-.1 2-.9 4-.1 5.5 1.3.8-1.2 2.3-2 3.7-1.5.5.1 1.1.4 1.6.6.4-.3.9-.6 1.4-.9.4-.2 1.3.5 1.7.7 1.7.9 1.5-.9 3.1-.8.5 0 1.8 1 2.2 1.2-.1.2 1.2-.7 1.5-.8.2-.3.2-.5.2-1 .2-4.2 5.8.5 6.8 2 1.1-1.2 1.7-1.4 3-.8.4.2.8.5 1.3.7.1.1 1.6-.9 1.9-1 .2 0 .1-1.1.1-1.4 0-.5.9-1 1.3-1.2 2.1-.7 4.5 2.2 5.5 3.7 1.3-1.2 3.9-2 5.4-.7.4.2.7.6 1.1.9.1.1 1.4-1 1.9-1.3 1.1-.6 3.7 1.4 4.8 2 .7.4 1.8-1.5 2.7-2 .8-.5 1.5.2 2.2.6 1.8 1 3.6 1.9 5.5 2.9-1.3.6-2.6 1.1-3.9 1.6zm-7-.2c.1 0 .3.2.4.3v-.5c-.1.1-.2.2-.4.2z"/></symbol><symbol id="a" viewBox="-49 -74 98 148"><path fill="#fff" d="M-43-73.5c-3 0-5.5 2.5-5.5 5.5v136c0 3 2.5 5.5 5.5 5.5h86c3 0 5.5-2.5 5.5-5.5v-136c0-3-2.5-5.5-5.5-5.5h-86z"/><path fill="#878787" d="M43 73c2.8 0 5-2.2 5-5v-136c0-2.8-2.2-5-5-5h-86c-2.8 0-5 2.2-5 5v136c0 2.8 2.2 5 5 5h86m0 1h-86c-3.3 0-6-2.7-6-6v-136c0-3.3 2.7-6 6-6h86c3.3 0 6 2.7 6 6v136c0 3.3-2.7 6-6 6z"/></symbol><symbol id="g" viewBox="-13 -18.7 26 37.5"><path fill="#FFFF3C" d="M0 18.7c-7.7 0-13-7.7-13-18.7s5.4-18.7 13-18.7c7.7 0 13 7.7 13 18.7s-5.3 18.7-13 18.7zm0-35.8c-7.1 0-11.4 7.7-11.4 17.1 0 9.5 4.3 17.1 11.4 17.1 7.1 0 11.4-7.7 11.4-17.1 0-9.5-4.3-17.1-11.4-17.1zM7.5-5.7c-.4 1.6-2.1 2.5-3.5 1.3-1.2-1-1.7-2.2-2.7-.2-.6 1.2-.8 3 .2 4.1 1.1 1.3 1.7-.5 1.6-1.5.5 0 1-.3 1.4-.6.3 2.4-2.1 4-3.8 1.9-.1.8-.8 2 .4 2.2.7.1 1.3.2 2 .4 2.8.5 1.7 4.6-1.1 3.9-.5 2.5-.4 7-3.2 8.2-2.4 1-5.1-.7-5.2-3.3 0-1.5.5-3.1.8-4.6l.3-1.7-1-.3c-.5-.3-.9-.8-1-1.4-.5-2.8 2.6-2.3 4.2-2 .5.2 1.1.5 1.7.4.7-.1 1.1-1.7 1-2.2 0-.9-.6-2.2-1.7-1.7-.9.5-1 1.8.1 2.1-1.4.6-1.7-1.5-1.1-2.3.8-1 2.1-.9 3-.1 0-1.1.7-2.1.5-3.2-.1-.8-1.4-.2-1.8-.1-2.4.7-4-1.4-2.7-3.6 1.2-2 3-.9 4.1.5.2.3.8 1.1 1.2.5.4-.5-.2-1.8-.3-2.3-.4-1.8.5-4.1 2.8-3.4 2.2.7 1.9 3 .6 4.3-.6.5-1.3 1-1.6 1.6-.4.9.8.7 1.2.5.8-.3 1.8-.6 2.6-.2 1.1.5 1.3 1.8 1 2.8-.4 1.5.5-1.5 0 0zm-12.5 10.3c-.5 2.8-2.7 8.6 1.7 9.4.5-2.9 1.1-5.8 1.6-8.8l-3.3-.6z"/></symbol><symbol id="d" viewBox="-353.1 -508.1 706.3 1016.1"><g stroke="#F46460" stroke-miterlimit="10" fill="none"><path stroke-width=".5" d="M0-507.8c207.8 0 352.9 208.8 352.9 507.8s-145.1 507.8-352.9 507.8c-207.8 0-352.9-208.8-352.9-507.8s145.1-507.8 352.9-507.8z"/><path stroke-width=".537" d="M0-497.2c203.4 0 345.5 204.5 345.5 497.2 0 292.8-142.1 497.2-345.5 497.2s-345.5-204.5-345.5-497.2c0-292.8 142.1-497.2 345.5-497.2z"/><path stroke-width=".573" d="M0-486.6c199.1 0 338.2 200.1 338.2 486.6s-139.1 486.6-338.2 486.6-338.2-200.1-338.2-486.6 139.1-486.6 338.2-486.6z"/><path stroke-width=".61" d="M0-476c194.8 0 330.8 195.7 330.8 476s-136 476-330.8 476-330.8-195.7-330.8-476 136-476 330.8-476z"/><path stroke-width=".646" d="M0-465.4c190.4 0 323.4 191.4 323.4 465.4s-133 465.4-323.4 465.4c-190.4 0-323.4-191.4-323.4-465.4s133-465.4 323.4-465.4z"/><path stroke-width=".683" d="M0-454.8c186.1 0 316.1 187 316.1 454.8s-130 454.8-316.1 454.8c-186.1 0-316.1-187-316.1-454.8s130-454.8 316.1-454.8z"/><path stroke-width=".72" d="M0-444.2c181.8 0 308.7 182.7 308.7 444.2 0 261.6-126.9 444.2-308.7 444.2-181.8 0-308.7-182.7-308.7-444.2 0-261.6 126.9-444.2 308.7-444.2z"/><path stroke-width=".756" d="M0-433.6c177.4 0 301.3 178.3 301.3 433.6s-123.9 433.6-301.3 433.6-301.3-178.3-301.3-433.6 123.9-433.6 301.3-433.6z"/><path stroke-width=".793" d="M0-423c173.1 0 294 173.9 294 423s-120.9 423-294 423-294-173.9-294-423 120.9-423 294-423z"/><path stroke-width=".829" d="M0-412.4c168.7 0 286.6 169.6 286.6 412.4 0 242.8-117.9 412.4-286.6 412.4-168.7 0-286.6-169.6-286.6-412.4 0-242.8 117.9-412.4 286.6-412.4z"/><path stroke-width=".866" d="M0-401.8c164.4 0 279.2 165.2 279.2 401.8 0 236.6-114.8 401.8-279.2 401.8-164.4 0-279.2-165.2-279.2-401.8 0-236.6 114.8-401.8 279.2-401.8z"/><path stroke-width=".902" d="M0-391.2c160.1 0 271.9 160.9 271.9 391.2 0 230.3-111.8 391.2-271.9 391.2-160.1 0-271.9-160.9-271.9-391.2 0-230.3 111.8-391.2 271.9-391.2z"/><path stroke-width=".939" d="M0-380.6c155.7 0 264.5 156.5 264.5 380.6 0 224.1-108.8 380.6-264.5 380.6s-264.5-156.5-264.5-380.6c0-224.1 108.8-380.6 264.5-380.6z"/><path stroke-width=".976" d="M0-370c151.4 0 257.1 152.2 257.1 370 0 217.9-105.7 370-257.1 370-151.4 0-257.1-152.2-257.1-370 0-217.9 105.7-370 257.1-370z"/><path stroke-width="1.012" d="M0-359.4c147.1 0 249.8 147.8 249.8 359.4 0 211.6-102.7 359.4-249.8 359.4-147.1 0-249.8-147.8-249.8-359.4 0-211.6 102.7-359.4 249.8-359.4z"/><path stroke-width="1.049" d="M0-348.8c142.7 0 242.4 143.4 242.4 348.8s-99.7 348.8-242.4 348.8-242.4-143.4-242.4-348.8 99.7-348.8 242.4-348.8z"/><path stroke-width="1.085" d="M0-338.2c138.4 0 235 139.1 235 338.2s-96.7 338.2-235 338.2c-138.4 0-235-139.1-235-338.2s96.6-338.2 235-338.2z"/><path stroke-width="1.122" d="M0-327.6c134 0 227.7 134.7 227.7 327.6 0 192.9-93.6 327.6-227.7 327.6-134 0-227.7-134.7-227.7-327.6 0-192.9 93.7-327.6 227.7-327.6z"/><path stroke-width="1.159" d="M0-317c129.7 0 220.3 130.4 220.3 317 0 186.7-90.6 317-220.3 317-129.7 0-220.3-130.4-220.3-317 0-186.7 90.6-317 220.3-317z"/><path stroke-width="1.195" d="M0-306.4c125.4 0 212.9 126 212.9 306.4 0 180.4-87.6 306.4-212.9 306.4-125.4 0-212.9-126-212.9-306.4 0-180.4 87.5-306.4 212.9-306.4z"/><path stroke-width="1.232" d="M0-295.8c121 0 205.6 121.6 205.6 295.8 0 174.2-84.6 295.8-205.6 295.8s-205.6-121.6-205.6-295.8c0-174.2 84.6-295.8 205.6-295.8z"/><path stroke-width="1.268" d="M0-285.2c116.7 0 198.2 117.3 198.2 285.2 0 167.9-81.5 285.2-198.2 285.2-116.7 0-198.2-117.3-198.2-285.2 0-167.9 81.5-285.2 198.2-285.2z"/><path stroke-width="1.305" d="M0-274.6c112.4 0 190.8 112.9 190.8 274.6 0 161.7-78.5 274.6-190.8 274.6-112.4 0-190.9-112.9-190.9-274.6.1-161.7 78.5-274.6 190.9-274.6z"/><path stroke-width="1.341" d="M0-264c108 0 183.5 108.6 183.5 264 0 155.5-75.5 264-183.5 264s-183.5-108.6-183.5-264c0-155.5 75.5-264 183.5-264z"/><path stroke-width="1.378" d="M0-253.4c103.7 0 176.1 104.2 176.1 253.4s-72.4 253.4-176.1 253.4c-103.7 0-176.1-104.2-176.1-253.4s72.4-253.4 176.1-253.4z"/><path stroke-width="1.415" d="M0-242.8c99.4 0 168.7 99.8 168.7 242.8s-69.4 242.8-168.7 242.8c-99.4 0-168.7-99.8-168.7-242.8s69.3-242.8 168.7-242.8z"/><path stroke-width="1.451" d="M0-232.2c95 0 161.4 95.5 161.4 232.2s-66.4 232.2-161.4 232.2-161.4-95.5-161.4-232.2 66.4-232.2 161.4-232.2z"/><path stroke-width="1.488" d="M0-221.6c90.7 0 154 91.1 154 221.6s-63.3 221.6-154 221.6-154-91.1-154-221.6 63.3-221.6 154-221.6z"/><path stroke-width="1.524" d="M0-211c86.3 0 146.6 86.8 146.6 211 0 124.3-60.3 211-146.6 211s-146.7-86.8-146.7-211 60.4-211 146.7-211z"/><path stroke-width="1.561" d="M0-200.4c82 0 139.3 82.4 139.3 200.4s-57.3 200.4-139.3 200.4c-82 0-139.3-82.4-139.3-200.4s57.3-200.4 139.3-200.4z"/><path stroke-width="1.598" d="M0-189.8c77.7 0 131.9 78.1 131.9 189.8 0 111.8-54.2 189.8-131.9 189.8s-131.9-78.1-131.9-189.8c0-111.8 54.2-189.8 131.9-189.8z"/><path stroke-width="1.634" d="M0-179.2c73.3 0 124.6 73.7 124.6 179.2 0 105.5-51.2 179.2-124.6 179.2-73.3 0-124.6-73.7-124.6-179.2 0-105.5 51.3-179.2 124.6-179.2z"/><path stroke-width="1.671" d="M0-168.6c69 0 117.2 69.3 117.2 168.6s-48.2 168.6-117.2 168.6-117.2-69.3-117.2-168.6 48.2-168.6 117.2-168.6z"/><path stroke-width="1.707" d="M0-158c64.7 0 109.8 65 109.8 158s-45.2 158-109.8 158c-64.7 0-109.8-65-109.8-158s45.1-158 109.8-158z"/><path stroke-width="1.744" d="M0-147.4c60.3 0 102.5 60.6 102.5 147.4 0 86.8-42.1 147.4-102.5 147.4-60.3 0-102.5-60.6-102.5-147.4 0-86.8 42.2-147.4 102.5-147.4z"/><path stroke-width="1.78" d="M0-136.8c56 0 95.1 56.3 95.1 136.8 0 80.6-39.1 136.8-95.1 136.8-56 0-95.1-56.3-95.1-136.8 0-80.6 39.1-136.8 95.1-136.8z"/><path stroke-width="1.817" d="M0-126.2c51.6 0 87.7 51.9 87.7 126.2 0 74.3-36.1 126.2-87.7 126.2-51.7 0-87.7-51.9-87.7-126.2 0-74.3 36.1-126.2 87.7-126.2z"/><path stroke-width="1.854" d="M0-115.6c47.3 0 80.4 47.6 80.4 115.6 0 68.1-33 115.6-80.4 115.6-47.3 0-80.4-47.6-80.4-115.6 0-68.1 33.1-115.6 80.4-115.6z"/><path stroke-width="1.89" d="M0-105c43 0 73 43.2 73 105s-30 105-73 105-73-43.2-73-105 30-105 73-105z"/><path stroke-width="1.927" d="M0-94.4c38.6 0 65.6 38.8 65.6 94.4s-27 94.4-65.6 94.4c-38.6 0-65.6-38.8-65.6-94.4s27-94.4 65.6-94.4z"/><path stroke-width="1.963" d="M0-83.8c34.3 0 58.3 34.5 58.3 83.8s-24 83.8-58.3 83.8-58.3-34.5-58.3-83.8 24-83.8 58.3-83.8z"/><path stroke-width="2" d="M0-73.2c30 0 50.9 30.1 50.9 73.2s-20.9 73.2-50.9 73.2-50.9-30.1-50.9-73.2 20.9-73.2 50.9-73.2z"/></g></symbol><use xlink:href="#a" width="98" height="148" x="-49" y="-74" transform="matrix(1 0 0 -1 50 75)" overflow="visible"/><g><path fill="#840000" d="M9.1 6c-2.1 0-3.1 1.4-3.1 3.1v131.7c0 1.8 1.4 3.2 3.2 3.2h81.6c1.8 0 3.2-1.4 3.2-3.2v-131.7c0-1.7-1.4-3.1-3.2-3.1h-81.7z"/><defs><path id="b" d="M9.1 6c-2.1 0-3.1 1.4-3.1 3.1v131.7c0 1.8 1.4 3.2 3.2 3.2h81.6c1.8 0 3.2-1.4 3.2-3.2v-131.7c0-1.7-1.4-3.1-3.2-3.1h-81.7z"/></defs><clipPath id="c"><use xlink:href="#b" overflow="visible"/></clipPath><g clip-path="url(#c)"><path fill="#840000" d="M94 142.1c0 2.2-1.8 4-4 4h-80c-2.2 0-4-1.8-4-4v-134.2c0-2.2 1.8-4 4-4h80c2.2 0 4 1.8 4 4v134.2z"/><use xlink:href="#d" width="706.3" height="1016.1" x="-353.1" y="-508.1" transform="matrix(.256 0 0 -.256 49.978 114.779)" overflow="visible" opacity=".5"/><use xlink:href="#d" width="706.3" height="1016.1" x="-353.1" y="-508.1" transform="matrix(-.256 0 0 .256 49.978 35.221)" overflow="visible" opacity=".5"/><use xlink:href="#e" width="73.1" height="19.4" x="-36.5" y="-9.7" transform="matrix(1 0 0 -1 51.382 65.052)" overflow="visible"/><use xlink:href="#e" width="73.1" height="19.4" x="-36.5" y="-9.7" transform="matrix(-1 0 0 1 48.616 84.692)" overflow="visible"/><use xlink:href="#f" width="66.3" height="15.5" x="-33.2" y="-7.8" transform="matrix(1 0 0 -1 50 65.078)" overflow="visible"/><use xlink:href="#f" width="66.3" height="15.5" x="-33.2" y="-7.8" transform="matrix(-1 0 0 1 50 84.666)" overflow="visible"/><use xlink:href="#g" width="26" height="37.5" x="-13" y="-18.7" transform="matrix(-1 0 0 1 49.536 114.779)" overflow="visible"/><use xlink:href="#g" width="26" height="37.5" x="-13" y="-18.7" transform="matrix(1 0 0 -1 49.536 35.221)" overflow="visible"/></g></g></svg>