<svg xmlns="http://www.w3.org/2000/svg" xmlns:xlink="http://www.w3.org/1999/xlink" viewBox="0 0 100 150" enable-background="new 0 0 100 150"><symbol id="i" viewBox="-5.5 -5.5 10.9 10.9"><path fill="#fff" stroke="#30436B" stroke-miterlimit="22.926" d="M-.3 5c2.7.1 5.1-2 5.2-4.7.2-2.8-1.9-5.1-4.6-5.3-2.7-.1-5.1 2-5.2 4.7-.2 2.8 1.9 5.1 4.6 5.3z"/><path fill-rule="evenodd" clip-rule="evenodd" fill="#30436B" d="M2.2-1.9c.3-.2.6-.4.9-.4.1 0 .1-.1 0-.2-.6-.3-1-.6-1.4-1.1-.1-.1-.2 0-.2.1 0 .7-.4 1.5-.8 2.1-.1-.5-.4-.9-.7-1.2-1-.7-2.2-.6-2.9.2-1 1.3.1 3.7.3 5.5 0 .1 0 .1.1.1h.1c1.8-.2 4.4.2 5.4-1 .4-.5.5-1.1.3-1.7-.2-.6-.5-1-1.2-1-.6 0-1.4.5-1.9.8l1.3.8c.2.4.1.9-.3 1.2-.4.2-.9.1-1.2-.3-.3-.5.1-.9-.2-1.5l-.8 1.3c-.3.2-.8.1-1.1-.3-.2-.4-.1-.9.3-1.2.5-.3.9.2 1.5-.1l-1.3-.8c-.2-.4-.1-.9.3-1.2.4-.2.9-.1 1.1.3.4.5-.1.9.2 1.5.9-.5 1.4-1.3 2.2-1.9"/></symbol><symbol id="b" viewBox="-49 -74 98 148"><path fill="#F0F7E6" d="M-43-73.5c-3 0-5.5 2.5-5.5 5.5v136c0 3 2.5 5.5 5.5 5.5h86c3 0 5.5-2.5 5.5-5.5v-136c0-3-2.5-5.5-5.5-5.5h-86z"/><path fill="#878787" d="M43 73c2.8 0 5-2.2 5-5v-136c0-2.8-2.2-5-5-5h-86c-2.8 0-5 2.2-5 5v136c0 2.8 2.2 5 5 5h86m0 1h-86c-3.3 0-6-2.7-6-6v-136c0-3.3 2.7-6 6-6h86c3.3 0 6 2.7 6 6v136c0 3.3-2.7 6-6 6z"/></symbol><symbol id="f" viewBox="-16.5 -20 32.8 40.1"><g fill-rule="evenodd" clip-rule="evenodd"><path fill="#fff" d="M4.9-15.2c-1.2 0-1.4-1.1-1.4-2.1 0-.9.3-2 1.4-2 1.2 0 1.4 1.1 1.4 2.1-.1 1-.3 2-1.4 2zm-17.6-4.6h-.5v2h.6c.1-.9.8-1.4 1.7-1.4.5 0 1.1.2 1.1.8 0 .4-.3.5-.7.6l-1.6.4c-.7.2-1.3.6-1.3 1.4 0 1.1 1 1.6 2 1.6.6 0 1.1-.1 1.5-.5l.2.5h.5v-1.9h-.6c-.2.8-.7 1.2-1.6 1.2-.4 0-1-.2-1-.7 0-.3.2-.5.6-.6l1.8-.4c.7-.2 1.1-.7 1.1-1.4 0-1.1-1-1.7-2-1.7-.7 0-1.2.2-1.7.6l-.1-.5zm7.4 5.1v-.6h-1.2v-3.5c0-.4.1-.5.5-.5.2 0 .4 0 .8.1v-.6c-.5-.1-.8-.2-1.3-.2s-.8.1-.9.3c-.1.2-.1.4-.1.9v3.5h-.9v.6c1 0 1.2.7 1.2 2h.7v-2h1.2zm.5 0l1.9.2v-3.9c0-.5.5-.8.9-.8.7 0 1.4.6 1.4 1.3v2.4c0 .2-.1.3-.2.3h-.6v.6l1.9.2v-4.6c0-.2.1-.3.2-.3h.7v-.6h-2v.4l.1.5c-.4-.8-1-1.1-1.8-1.1s-1.6.5-1.7 1.3v3.1c0 .2-.1.3-.2.3h-.6v.7zm7.9-5.1h-.6v6.4c0 .1 0 .5-.4.5h-.5v.6l2 .2v-3.2c.3.6 1 .9 1.7.9 1.5 0 2.2-1.2 2.2-2.6 0-1.5-.8-2.8-2.4-2.8-.6 0-1.3.3-1.6.8l-.4-.8zm6.2 3.1h2.5c0 .8-.3 1.5-1.2 1.5-.8 0-1.3-.7-1.3-1.5zm1.4 2.2c1.7 0 2.4-1.2 2.4-2.9h-3.8c0-1.4.7-1.9 1.6-1.9 1.3 0 1.5 1.1 1.5 1.1h.7c0-.7-.8-1.9-2.3-1.9-1.7 0-2.6 1.2-2.6 2.7-.1 1.7.9 2.9 2.5 2.9zm-19.8 12.8v-3.7h-1c-.1.4-.2.8-.3 1.1-.5 1.1-1.4 1.7-2.7 1.7-.9 0-1.9-.4-1.9-1.5 0-.5.3-1 .9-1.1 1.2-.4 2.4-.7 3.7-1.1 1-.3 1.7-1.1 1.7-2.5 0-2.1-1.7-3.1-3.6-3.1-1.2 0-2 .2-2.9 1-.2-.3-.3-.6-.4-.8h-.9v3.8h.9c.4-1.7 1.3-2.9 3.1-2.9 1 0 2.2.5 2.2 1.6 0 .6-.3 1-.9 1.2l-3.6 1c-1.3.4-1.9 1.6-1.9 2.5 0 1.9 1.7 2.9 3.4 2.9 1 0 1.9-.3 2.7-1l.4.7c.6.2.8.2 1.1.2zm12.5-6.5h2.3l-1.1 2.7-.1.6-.1-.6c-.4-.9-.7-1.8-1-2.7zm5.4 4.5h7.5v-3h-.8c-.1 1.1-.2 2.1-1.4 2.1h-.8v-5.7c0-.3.2-.4.4-.4h.8v-.9h-4.1v.9h.9c.2 0 .4.2.4.4v5.7h-.7c-1.1 0-1.2-.9-1.3-2.1h-.8c-.1 1-.1 2-.1 3zm-4.7 0h1.5l2.6-6.6c.1-.3.4-.4.9-.4h.1v-.9h-3.8v.9h.7c.2 0 .3.2.3.3 0 .1-.1.3-.5 1.3h-3c-.2-.7-.5-1.2-.5-1.4 0-.3.2-.3.6-.3h.4v-.9h-6.7v.9h.7c.1 0 .2.1.2.2s-.1.3-.2.4c-.5.7-1.1 1.5-1.8 2.4l-1-.9v-1.8c0-.2.2-.3.4-.3h.8v-.9h-4.1v.9h.8c.2 0 .4.1.4.3v5.4c0 .2-.2.4-.4.4h-.8c.3.4.3.7.3 1h4.1v-.9h-.8c-.3 0-.4-.1-.4-.4v-2.4c1.9 1.7 2.8 2.4 2.8 2.6 0 .1-.1.2-.2.2h-.7v.9h3.8v-.9h-.7c-.4 0-1.1-.7-2.7-2.1.6-.9 1.7-2.2 2.7-3.7.2-.2.5-.3.7-.3h.3c.4 0 .6.1.7.4.8 2.2 1.6 4.4 2.5 6.6z"/><path fill="#C32F26" d="M-.2 2.2c.1-.9.3-1.8.7-2.5.1-.2-.1-.4-.3-.4-1.7.7-2.8.9-4.7.8-.2 0-.4.3-.2.5 1.4 1.2 2.2 3.3 2.7 5.3h-.1c-.9-.7-2.1-.9-3.4-.7-3 .5-5 3.2-4.5 5.9.7 4.1 7.2 6.3 11.1 8.9.1.1.3.1.4.1.1 0 .3-.1.3-.2 2.8-3.8 8.1-8.1 7.4-12.2-.2-1.6-1.2-2.9-2.6-3.5-1.4-.7-2.8-.7-4 .5-1.3 1.1-1.8 3.6-2 5.2 1.6.1 2.2-1.4 3.8-1.1 1.2.2 2 1.4 1.8 2.6-.2 1.2-1.4 2-2.6 1.8-1.6-.3-1.6-1.9-3.1-2.3-.1 1.6 1.3 2.1 1.1 3.7-.2 1.2-1.4 2-2.6 1.8-1.2-.2-2-1.4-1.8-2.6.3-1.6 1.9-1.6 2.3-3.1-1.6-.1-2.1 1.4-3.7 1.1-1.2-.2-2-1.4-1.8-2.6.2-1.2 1.4-2 2.6-1.8 1.6.3 1.6 1.9 3.2 2.3.3-2.6-.3-5 0-7.5z"/></g></symbol><symbol id="a" viewBox="-4.8 -4.8 9.6 9.7"><path fill-rule="evenodd" clip-rule="evenodd" fill="#30436B" d="M.5-2.6c.1-.4.2-.6.4-.9.1-.1 0-.2-.1-.1-.6.1-1 .1-1.7 0l-.1.1c.4.5.6 1.3.6 2-.3-.3-.7-.4-1.2-.4-1.1 0-1.9.8-1.9 1.8 0 1.5 2.2 2.6 3.4 3.8l.1.1c.1 0 .1 0 .1-.1 1.2-1.2 3.3-2.4 3.3-3.9 0-.6-.3-1.1-.7-1.4-.4-.3-1-.4-1.4-.1-.5.3-.8 1.2-1 1.7.5.1.8-.4 1.4-.2.4.1.6.6.5 1-.2.5-.6.8-1 .6-.5-.2-.5-.7-1-1-.1.6.4.9.2 1.4-.1.4-.6.6-1 .5-.4-.1-.6-.6-.5-1 .2-.5.7-.5 1-1-.5-.1-.8.4-1.4.2-.4-.1-.6-.6-.5-1 .2-.4.6-.6 1-.5l1 1c.3-.9.2-1.8.5-2.6"/><path stroke="#30436B" stroke-width=".5" stroke-miterlimit="22.926" d="M2.7 3.7c2-1.5 2.5-4.3 1-6.4-1.5-2.1-4.3-2.5-6.3-1s-2.5 4.3-1 6.4c1.4 2 4.2 2.5 6.3 1z" fill="none"/></symbol><symbol id="g" viewBox="-2.1 -63 4.1 126"><path fill="#30436B" d="M-1-62.8c-.4 0-.6.2-.7.4-.5.9.6 2.9.8 3.1.8 1.1 1.4 2.1 1.1 3.6-.1.6-.5 1.2-.9 1.7-.3.5-.6.9-.8 1.5-.5 1.6-.2 3.3.9 4.9 1.3 1.9.7 3 0 4.5-.4.8-.9 1.6-1 2.6-.2 1.5.4 2.7 1 3.9.6 1.6 1.3 3 .3 4.7-1.7 2.8-1.7 4.7 0 7.5 1 1.6.3 3-.4 4.5-.6 1.2-1.2 2.5-1 3.9.2 1 .6 1.8 1 2.6.8 1.5 1.4 2.6 0 4.5-.9 1.3-1.3 2.7-1.1 4.1.1.8.6 1.5 1 2.1.5.7.9 1.2 1 1.9.3 1.3-.3 2.4-.9 3.6-.7 1.3-1.4 2.7-.8 4.5.2.6.5 1 .8 1.5.4.6.7 1.1.9 1.7.3 1.3-.2 2.1-.8 3.2-.2.3-.4.6-.6 1-1.1 2.1-.3 3.5.5 4.9.5.9 1 1.9 1 3 0 1.2-.5 2.1-1 3.1-.8 1.5-1.6 3.1-.2 5.3.8 1.2 1.4 2.1 1.1 3.6-.1.6-.5 1.2-.9 1.7-.3.5-.6.9-.8 1.5-.6 1.8.1 3.2.8 4.6.7 1.3 1.3 2.6.7 4.1-.2.5-.4.9-.6 1.3-1 2-1.8 3.7 0 6.2 1.3 1.9.7 3.2-.1 4.7-.5 1-1 2-1 3.3 0 .5.4.7.8.7.2 0 .4-.1.5-.2.3-.3.3-.8.4-1.2 0-.3 0-.5.1-.7l.7-1.2c.4-.6.8-1.3 1-2.1.2-1.5-.4-2.7-1-3.9-.7-1.5-1.4-2.9-.4-4.5 1.7-2.8 1.7-4.7 0-7.5-1-1.6-.3-3 .4-4.5.6-1.2 1.2-2.5 1-3.9-.2-1-.6-1.8-1-2.6-.8-1.5-1.4-2.6 0-4.5.9-1.3 1.3-2.7 1.1-4.1-.1-.8-.6-1.5-1-2.1-.4-.6-.7-1.1-.9-1.8-.3-1.3.3-2.4.9-3.6.7-1.3 1.4-2.7.8-4.5-.4-.7-.7-1.2-1-1.7-.4-.5-.8-1.1-.9-1.7-.2-1.3.2-2.1.9-3.2.2-.3.4-.6.6-1 1.1-2.1.3-3.5-.5-4.9-.5-.9-1-1.9-1-3 0-1.2.5-2.1 1-3.1.8-1.5 1.6-3.1.2-5.3-.8-1.2-1.4-2.1-1.1-3.6.1-.6.5-1.2.9-1.7.3-.5.6-.9.8-1.5.6-1.8-.1-3.2-.8-4.6-.8-1.3-1.4-2.6-.8-4.1.2-.5.4-.9.6-1.3 1-2 1.8-3.7 0-6.2-1.3-1.9-.7-3.2.1-4.7.5-1 1-2 1-3.3 0-1.2-.5-2.2-1.1-3.2-.8-1.5-1.4-2.7-.4-4.3l.3-.4c.7-1.1 1.3-2 1.3-3.4 0-1.3-.5-2.1-1-2.9-.3-.4-.5-.8-.7-1.3 0-.1-.1-.4-.1-.6-.2-.7-.2-1.6-1-1.6z"/><path fill="#fff" d="M-1 62.5c.1 0 .2 0 .3-.1.4-.4.2-1.3.4-1.8.5-1.2 1.5-2 1.7-3.3.5-3.2-3.3-5.4-1.4-8.5 1.7-2.7 1.7-4.5 0-7.2-1.9-3.1 1.9-5.4 1.4-8.5-.5-2.9-3.2-4.3-1-7.3.8-1.2 1.3-2.5 1-3.9-.2-1.5-1.6-2.5-1.9-4-.6-3.1 2.8-4.8 1.7-8-.4-1.2-1.4-2-1.7-3.2-.3-2.1.7-3.1 1.5-4.6 1.7-3.3-1.5-4.8-1.5-7.8 0-3.1 3.5-4.8 1.2-8.3-.8-1.2-1.5-2.3-1.1-3.8.2-1.2 1.3-2.1 1.7-3.2 1.1-3.4-2.8-5.5-1.5-8.7 1.1-2.7 2.7-4.4.6-7.2-2.3-3.3 1.1-5 1.1-8.2 0-2.8-3.3-4.7-1.4-7.7.7-1.2 1.4-2.1 1.4-3.6 0-1.8-1.1-2.6-1.7-4.2-.2-.5 0-2-.8-2-1.3 0 0 2.7.3 3.1.8 1.2 1.5 2.3 1.1 3.8-.2 1.2-1.3 2.1-1.7 3.2-.6 1.7-.1 3.3.9 4.7 2.2 3.1-.6 4.5-1 7.3-.5 3.2 3.3 5.4 1.4 8.5-1.7 2.7-1.7 4.5 0 7.2 1.9 3.1-1.9 5.4-1.4 8.5.5 2.9 3.2 4.3 1 7.3-.8 1.2-1.3 2.5-1 3.9.2 1.5 1.6 2.5 1.9 4 .6 3.1-2.8 4.8-1.7 8 .4 1.2 1.4 2 1.7 3.2.4 1.9-.7 2.8-1.4 4.3-1.7 3.3 1.5 4.8 1.5 7.8 0 3.1-3.5 4.8-1.2 8.3.8 1.2 1.4 2.3 1.1 3.8-.2 1.2-1.3 2.1-1.7 3.2-1.1 3.4 2.8 5.5 1.5 8.7-1.1 2.7-2.7 4.4-.6 7.3 2.3 3.3-1.1 5-1.1 8.2-.1.6.2.8.4.8m0 .5c-.6 0-1-.4-1-1 0-1.4.6-2.5 1.1-3.5.8-1.5 1.4-2.7.1-4.4-1.9-2.6-1-4.5 0-6.5.2-.4.4-.8.6-1.3.6-1.4 0-2.6-.7-3.9-.7-1.4-1.5-2.9-.8-4.7.2-.6.5-1.1.9-1.6s.7-1 .8-1.6c.3-1.3-.2-2.2-1.1-3.5-1.6-2.3-.7-4 .1-5.5.5-1 1-1.9 1-3s-.5-1.9-1-2.9c-.8-1.4-1.6-3-.5-5.2.2-.4.4-.7.6-1 .6-1 1.1-1.7.8-3-.1-.6-.5-1.1-.8-1.6-.3-.5-.7-1-.9-1.6-.6-1.9.1-3.4.8-4.7.6-1.1 1.1-2.1.9-3.4-.1-.6-.5-1.2-.8-1.7-.4-.7-.9-1.3-1-2.2-.3-1.4.1-2.8 1.1-4.2 1.2-1.8.7-2.8-.1-4.2-.4-.8-.9-1.7-1-2.7-.2-1.5.4-2.8 1-4.1.7-1.5 1.4-2.8.4-4.3-1.8-2.9-1.8-4.9 0-7.7.9-1.5.3-2.8-.4-4.3-.6-1.2-1.3-2.5-1-4.1.2-1.1.6-1.9 1-2.7.8-1.4 1.3-2.5.1-4.2-1.2-1.7-1.5-3.5-.9-5.2.2-.6.5-1.1.9-1.6s.7-1 .8-1.6c.3-1.3-.2-2.2-1.1-3.4 0 0-1.3-2.3-.8-3.4.2-.3.5-.5.9-.5 1 0 1.1 1.1 1.2 1.8 0 .2 0 .4.1.5.2.5.5.9.7 1.3.5.8 1.1 1.7 1.1 3 0 1.5-.6 2.5-1.3 3.6l-.2.3c-1 1.5-.3 2.7.4 4.1.5 1 1.1 2 1.1 3.3 0 1.4-.6 2.5-1.1 3.5-.8 1.5-1.4 2.7-.1 4.4 1.9 2.6 1 4.5 0 6.5-.2.4-.4.8-.6 1.3-.6 1.4 0 2.6.7 3.9.7 1.4 1.5 2.9.8 4.7-.2.6-.5 1.1-.9 1.6s-.7 1-.8 1.6c-.3 1.3.2 2.2 1.1 3.5 1.5 2.3.6 4.1-.2 5.6-.5 1-1 1.9-1 3s.5 1.9 1 2.9c.8 1.4 1.6 3 .5 5.2-.2.4-.4.7-.6 1-.6 1-1.1 1.7-.8 3 .1.3.4.8.8 1.4.3.5.7 1 .9 1.6.6 1.9-.1 3.4-.8 4.7-.6 1.1-1.1 2.1-.9 3.4.1.6.5 1.2.8 1.7.4.7.9 1.3 1 2.2.2 1.5-.1 2.9-1.1 4.3-1.2 1.8-.7 2.8.1 4.2.4.8.9 1.7 1 2.7.2 1.5-.4 2.8-1 4.1-.7 1.5-1.4 2.8-.4 4.3 1.8 2.9 1.8 4.9 0 7.7-.9 1.5-.3 2.8.4 4.3.6 1.2 1.3 2.5 1 4.1-.1.9-.6 1.6-1 2.2-.3.4-.5.8-.7 1.2-.1.1-.1.4-.1.6 0 .5-.1 1-.4 1.4-.2.2-.4.3-.7.3z"/></symbol><symbol id="h" viewBox="-41.2 -2 82.3 4.1"><path fill="#30436B" d="M20.5-1.8c-.5 0-.9.1-1.4.3-.6.2-1.1.6-1.6.9-.7.5-1.3.9-2.2.9-.2 0-.4 0-.6-.1-.8-.2-1.4-.6-2-.9-.8-.5-1.6-1-2.7-1-.2 0-.5 0-.7.1-.8.1-1.5.6-2.1 1-.9.4-1.5.8-2.5.8-.9 0-1.7-.5-2.5-1s-1.7-1-2.8-1c-1.2 0-1.9.5-2.7 1-.6.5-1.1.8-1.8 1l-.6.1c-.9 0-1.6-.4-2.3-.9-.7-.4-1.3-.9-2.2-1l-.8-.1c-1.2 0-1.9.5-2.8 1-.4.3-.8.5-1.3.7-.4.2-.8.3-1.2.3-.8 0-1.5-.4-2.2-.9-.5-.3-1-.7-1.6-.9-.5-.2-1-.3-1.4-.3-1.4 0-2.6.8-3.6 1.5-.5.4-1 .5-1.6.5-.9 0-1.7-.5-2.5-1l-.8-.5c-.6-.3-1.3-.5-2-.5-1.1 0-2.2.4-3.2 1.1-.7.5-1.4.8-2.1.8-.8 0-1.7-.3-2.9-1.2l-.5-.3.1.6c.2 1.7 1 2.5 2.3 2.5 1 0 2.3-.5 3.5-1 1.1-.5 2.2-.9 3-.9h.4c.8.2 1.4.6 2 .9.8.5 1.6 1 2.7 1 .2 0 .5 0 .7-.1.9-.1 1.6-.6 2.2-1 .7-.5 1.4-.9 2.3-.9.2 0 .4 0 .6.1.8.2 1.4.6 2 .9.8.5 1.6 1 2.7 1 .2 0 .5 0 .7-.1.9-.1 1.6-.6 2.2-1 .7-.5 1.4-.9 2.3-.9.2 0 .4 0 .6.1.8.2 1.4.6 2 1 .8.5 1.6 1 2.7 1 .2 0 .5 0 .7-.1.9-.1 1.6-.6 2.2-1 .8-.5 1.5-.9 2.4-.9.2 0 .4 0 .6.1.7.1 1.2.4 1.8.8.8.5 1.6 1 2.7 1s2-.5 2.8-1c.8-.5 1.5-1 2.5-1s1.7.5 2.5 1 1.7 1 2.8 1c1.1 0 2-.5 2.8-1 .8-.5 1.5-1 2.5-1 .9 0 1.7.5 2.5 1s1.7 1 2.8 1 2-.5 2.8-1c.8-.5 1.5-1 2.5-1 .9 0 1.7.5 2.5 1s1.7 1 2.8 1c2.1 0 3.9-1.3 4.2-3l.1-.4-.4.1c-.6.2-1.1.5-1.6.9 0 0-.1 0-.1.1-.6.5-1.3.7-1.9.7-.9 0-1.8-.4-2.7-.9-1-.5-2-1-3.1-1-.6 0-1.3.2-1.9.5-.3.2-.6.4-.9.5-.8.5-1.5 1-2.4 1-.4 0-.8-.1-1.2-.3-.5-.2-.9-.5-1.3-.7-.9-.5-1.7-1-2.8-1z"/><path fill="#fff" d="M-38.5 1.5c1.9 0 4.7-2 6.5-2h.4c1.9.4 2.7 1.9 4.6 1.9.2 0 .4 0 .7-.1 1.8-.3 2.8-1.9 4.6-1.9.2 0 .4 0 .7.1 1.9.4 2.7 1.9 4.6 1.9.2 0 .4 0 .7-.1 1.8-.3 2.8-1.9 4.6-1.9.2 0 .4 0 .7.1 1.9.5 2.8 2 4.7 2 .2 0 .4 0 .7-.1 1.8-.3 2.8-1.9 4.6-1.9.2 0 .4 0 .7.1 1.7.3 2.5 1.9 4.4 1.9l5.3-2 5.3 2 5.3-2 5.3 2 5.3-2 5.3 2c1.9 0 3.6-1.1 4-2.8-.6.2-1.1.5-1.6.9-.2.1-.2.2-.2.2s.1-.1.2-.1c-.7.5-1.4.8-2.1.8-2 0-3.7-1.9-5.8-1.9-.6 0-1.1.1-1.8.5-1.2.6-2.2 1.5-3.4 1.5-.4 0-.8-.1-1.3-.3-1.5-.7-2.5-1.7-4-1.7-.4 0-.8.1-1.3.3-1.5.5-2.3 1.8-3.9 1.8-.2 0-.4 0-.7-.1-1.9-.6-2.8-2.1-4.7-2.1-.2 0-.4 0-.7.1-1.7.3-2.6 1.9-4.5 1.9l-5.3-2c-1.9 0-2.8 1.6-4.5 1.9l-.7.1c-1.8 0-2.8-1.6-4.6-1.9-.3 0-.5-.1-.7-.1-1.6 0-2.5 1-4 1.7-.5.2-.9.3-1.3.3-1.5 0-2.5-1.3-4-1.8-.5-.2-.9-.2-1.4-.2-1.3 0-2.4.7-3.5 1.4-.6.4-1.2.6-1.7.6-1.2 0-2.3-.9-3.5-1.5-.6-.3-1.3-.5-1.9-.5-1.1 0-2.1.4-3 1.1-.8.6-1.5.8-2.2.8-1 0-2-.5-3-1.2.3 1.8 1.1 2.3 2.1 2.3m77.4-1.9l.1-.1s0 .1-.1.1m-77.4 2.4c-1.4 0-2.3-.9-2.5-2.7l-.2-1.1.9.6c1.1.8 2 1.1 2.7 1.1.6 0 1.3-.2 1.9-.7 1-.8 2.2-1.2 3.3-1.2.8 0 1.5.2 2.1.6.3.2.6.3.8.5.8.5 1.6 1 2.4 1 .5 0 .9-.2 1.4-.5 1.1-.7 2.3-1.5 3.8-1.5.5 0 1 .1 1.5.3.6.2 1.2.6 1.7.9.7.5 1.3.9 2.1.9.3 0 .7-.1 1.1-.3.5-.2.9-.5 1.3-.7.8-.5 1.7-1 2.9-1 .3 0 .5 0 .8.1.9.2 1.6.6 2.3 1 1 .3 1.6.7 2.5.7.2 0 .4 0 .6-.1.6-.1 1.1-.5 1.7-.8.8-.5 1.6-1.1 2.9-1.1 1.2 0 2.1.6 3 1.1.7.5 1.4.9 2.2.9.8 0 1.5-.4 2.2-.9.7-.4 1.3-.9 2.2-1 .3-.1.6-.1.8-.1 1.2 0 2 .5 2.8 1 .6.4 1.2.7 1.9.9.3.1.5.1.7.1.8 0 1.4-.4 2.1-.8.5-.3 1-.7 1.7-.9.4-.2.9-.3 1.4-.3 1.2 0 2 .5 2.9 1.1.4.3.8.5 1.3.7.4.1.8.2 1.1.2.8 0 1.5-.4 2.2-.9l.9-.6c.7-.3 1.4-.5 2.1-.5 1.2 0 2.2.5 3.2 1 .9.4 1.7.9 2.6.9.6 0 1.2-.2 1.8-.7 0 0 .1 0 .1-.1.5-.4 1-.7 1.7-.9l.8-.2-.2.8c-.4 1.9-2.3 3.2-4.5 3.2-1.2 0-2.1-.6-3-1.1-.7-.5-1.4-.9-2.3-.9-.9 0-1.6.4-2.3.9-.9.5-1.8 1.1-3 1.1s-2.1-.6-3-1.1c-.7-.5-1.4-.9-2.3-.9-.9 0-1.6.4-2.3.9-.9.5-1.7 1.1-3 1.1-1.2 0-2.1-.6-3-1.1-.7-.5-1.4-.9-2.3-.9-.8 0-1.5.4-2.3.9-.9.5-1.7 1.1-3 1.1-1.2 0-2-.6-2.8-1.1-.6-.3-1.1-.7-1.8-.8-.2-.1-.4-.1-.5-.1-.8 0-1.5.4-2.2.9-.7.4-1.4.9-2.4 1-.2.1-.5.1-.7.1-1.2 0-2-.5-2.8-1-.6-.4-1.2-.7-1.9-.9-.3-.1-.4-.1-.6-.1-.8 0-1.5.4-2.2.9-.7.4-1.4.9-2.3 1-.3.1-.6.1-.8.1-1.2 0-2-.5-2.8-1-.6-.4-1.2-.7-1.9-.9-.3-.1-.4-.1-.6-.1-.8 0-1.5.4-2.2.9-.7.4-1.4.9-2.3 1-.3.1-.6.1-.8.1-1.2 0-2-.5-2.8-1-.6-.4-1.2-.7-1.9-.9h-.3c-.8 0-1.9.5-3 .9-1.2.5-2.5 1-3.6 1z"/></symbol><symbol id="e" viewBox="-50.2 -4.8 100.3 9.7"><use xlink:href="#a" width="9.6" height="9.7" x="-4.8" y="-4.8" transform="translate(-36.294)" overflow="visible"/><use xlink:href="#a" width="9.6" height="9.7" x="-4.8" y="-4.8" transform="matrix(-1 0 0 -1 -27.22 0)" overflow="visible"/><use xlink:href="#a" width="9.6" height="9.7" x="-4.8" y="-4.8" transform="matrix(-1 0 0 -1 -45.368 0)" overflow="visible"/><use xlink:href="#a" width="9.6" height="9.7" x="-4.8" y="-4.8" overflow="visible"/><use xlink:href="#a" width="9.6" height="9.7" x="-4.8" y="-4.8" transform="matrix(-1 0 0 -1 9.074 0)" overflow="visible"/><use xlink:href="#a" width="9.6" height="9.7" x="-4.8" y="-4.8" transform="translate(-18.147)" overflow="visible"/><use xlink:href="#a" width="9.6" height="9.7" x="-4.8" y="-4.8" transform="matrix(-1 0 0 -1 -9.073 0)" overflow="visible"/><use xlink:href="#a" width="9.6" height="9.7" x="-4.8" y="-4.8" transform="translate(36.295)" overflow="visible"/><use xlink:href="#a" width="9.6" height="9.7" x="-4.8" y="-4.8" transform="matrix(-1 0 0 -1 45.368 0)" overflow="visible"/><use xlink:href="#a" width="9.6" height="9.7" x="-4.8" y="-4.8" transform="translate(18.148)" overflow="visible"/><use xlink:href="#a" width="9.6" height="9.7" x="-4.8" y="-4.8" transform="matrix(-1 0 0 -1 27.221 0)" overflow="visible"/></symbol><use xlink:href="#b" width="98" height="148" x="-49" y="-74" transform="matrix(1 0 0 -1 50 75)" overflow="visible"/><g><defs><path id="c" d="M94 137c0 3.9-3.1 7-7 7h-74c-3.9 0-7-3.1-7-7v-124c0-3.9 3.1-7 7-7h74c3.9 0 7 3.1 7 7v124z"/></defs><clipPath id="d"><use xlink:href="#c" overflow="visible"/></clipPath><path clip-path="url(#d)" fill="#275486" d="M2.6-3.4h94.8v156.8h-94.8z"/><g clip-path="url(#d)"><use xlink:href="#e" width="100.3" height="9.7" x="-50.2" y="-4.8" transform="matrix(1 0 0 -1 47.752 47.105)" overflow="visible"/><use xlink:href="#e" width="100.3" height="9.7" x="-50.2" y="-4.8" transform="matrix(1 0 0 -1 52.286 55.06)" overflow="visible"/><use xlink:href="#e" width="100.3" height="9.7" x="-50.2" y="-4.8" transform="matrix(1 0 0 -1 47.752 31.194)" overflow="visible"/><use xlink:href="#e" width="100.3" height="9.7" x="-50.2" y="-4.8" transform="matrix(1 0 0 -1 52.286 39.149)" overflow="visible"/><use xlink:href="#e" width="100.3" height="9.7" x="-50.2" y="-4.8" transform="matrix(1 0 0 -1 47.752 15.282)" overflow="visible"/><use xlink:href="#e" width="100.3" height="9.7" x="-50.2" y="-4.8" transform="matrix(1 0 0 -1 52.286 23.238)" overflow="visible"/><use xlink:href="#e" width="100.3" height="9.7" x="-50.2" y="-4.8" transform="matrix(1 0 0 -1 52.286 7.326)" overflow="visible"/><use xlink:href="#e" width="100.3" height="9.7" x="-50.2" y="-4.8" transform="matrix(1 0 0 -1 47.752 110.751)" overflow="visible"/><use xlink:href="#e" width="100.3" height="9.7" x="-50.2" y="-4.8" transform="matrix(1 0 0 -1 52.286 118.706)" overflow="visible"/><use xlink:href="#e" width="100.3" height="9.7" x="-50.2" y="-4.8" transform="matrix(1 0 0 -1 47.752 94.839)" overflow="visible"/><use xlink:href="#e" width="100.3" height="9.7" x="-50.2" y="-4.8" transform="matrix(1 0 0 -1 52.286 102.795)" overflow="visible"/><use xlink:href="#e" width="100.3" height="9.7" x="-50.2" y="-4.8" transform="matrix(1 0 0 -1 47.752 142.573)" overflow="visible"/><use xlink:href="#e" width="100.3" height="9.7" x="-50.2" y="-4.8" transform="matrix(1 0 0 -1 47.752 126.662)" overflow="visible"/><use xlink:href="#e" width="100.3" height="9.7" x="-50.2" y="-4.8" transform="matrix(1 0 0 -1 52.286 134.617)" overflow="visible"/><use xlink:href="#e" width="100.3" height="9.7" x="-50.2" y="-4.8" transform="matrix(1 0 0 -1 47.752 78.928)" overflow="visible"/><use xlink:href="#e" width="100.3" height="9.7" x="-50.2" y="-4.8" transform="matrix(1 0 0 -1 52.286 86.883)" overflow="visible"/><use xlink:href="#e" width="100.3" height="9.7" x="-50.2" y="-4.8" transform="matrix(1 0 0 -1 47.752 63.016)" overflow="visible"/><use xlink:href="#e" width="100.3" height="9.7" x="-50.2" y="-4.8" transform="matrix(1 0 0 -1 52.286 70.972)" overflow="visible"/></g><use xlink:href="#f" width="32.8" height="40.1" x="-16.5" y="-20" transform="matrix(1 0 0 -1 50.12 44.88)" overflow="visible"/><use xlink:href="#f" width="32.8" height="40.1" x="-16.5" y="-20" transform="matrix(-1 0 0 1 50.12 104.88)" overflow="visible"/><ellipse transform="matrix(-.052 -.999 .999 -.052 .623 24.53)" fill="#fff" stroke="#fff" stroke-width="2" stroke-miterlimit="22.926" cx="12" cy="12" rx="5" ry="5"/><ellipse transform="matrix(.052 .999 -.999 .052 221.329 42.957)" fill="#fff" stroke="#fff" stroke-width="2" stroke-miterlimit="22.926" cx="88" cy="138" rx="5" ry="5"/><ellipse transform="matrix(.052 -.999 .999 .052 71.53 99.275)" fill="#fff" stroke="#fff" stroke-width="2" stroke-miterlimit="22.926" cx="88" cy="12" rx="5" ry="5"/><ellipse transform="matrix(-.052 .999 -.999 -.052 150.422 133.238)" fill="#fff" stroke="#fff" stroke-width="2" stroke-miterlimit="22.926" cx="12" cy="138" rx="5" ry="5"/><use xlink:href="#g" width="4.1" height="126" x="-2.1" y="-63" transform="matrix(1 0 0 -1 8.5 74.967)" overflow="visible"/><use xlink:href="#g" width="4.1" height="126" x="-2.1" y="-63" transform="matrix(-1 0 0 -1 91.5 74.967)" overflow="visible"/><use xlink:href="#h" width="82.3" height="4.1" x="-41.2" y="-2" transform="translate(50.551 141.5)" overflow="visible"/><use xlink:href="#h" width="82.3" height="4.1" x="-41.2" y="-2" transform="matrix(1 0 0 -1 50.551 8.5)" overflow="visible"/><use xlink:href="#i" width="10.9" height="10.9" x="-5.5" y="-5.5" transform="matrix(1 0 0 -1 11.957 11.97)" overflow="visible"/><use xlink:href="#i" width="10.9" height="10.9" x="-5.5" y="-5.5" transform="matrix(-1 0 0 -1 88.044 11.97)" overflow="visible"/><use xlink:href="#i" width="10.9" height="10.9" x="-5.5" y="-5.5" transform="translate(11.957 138.03)" overflow="visible"/><use xlink:href="#i" width="10.9" height="10.9" x="-5.5" y="-5.5" transform="matrix(-1 0 0 1 88.044 138.03)" overflow="visible"/></g></svg>