<svg xmlns="http://www.w3.org/2000/svg" xmlns:xlink="http://www.w3.org/1999/xlink" viewBox="0 0 100 150" enable-background="new 0 0 100 150"><symbol viewBox="-7.3 -7.3 14.6 14.6"><path fill-rule="evenodd" clip-rule="evenodd" d="M1.7 2.6c-.7-.8-1-1.4-1.1-2 .6.1 1.3.4 2 1.1.7.6 1.4.9 2.1.9.7 0 1.3-.3 1.9-.8.5-.5.7-1.1.7-1.8s-.3-1.3-.8-1.9c-.5-.4-1.1-.7-1.8-.7s-1.4.3-2.1 1c-.8.7-1.4 1-2 1.1 0-1.4 0-2.5.1-3.3.2-1.5.6-2.5 1.1-3.2.1-.1.1-.1 0-.2 0-.1-.1-.1-.2-.1-.6.1-1.1.2-1.6.2s-1-.1-1.7-.2c-.1 0-.1 0-.2.1s-.1.1 0 .2c.6.7.9 1.7 1.1 3.1.1.9.2 2 .2 3.3-.5 0-1.2-.4-2-1-.7-.7-1.4-1-2.1-1-.7 0-1.3.3-1.9.8-.5.5-.7 1.1-.7 1.8s.3 1.3.8 1.8c.5.6 1.1.8 1.8.8s1.4-.3 2.1-.9c.8-.7 1.4-1 2-1.1-.1.6-.4 1.3-1.1 2-.6.8-.9 1.4-.9 2.1 0 .7.3 1.3.8 1.9.5.5 1.1.7 1.8.7s1.3-.3 1.9-.8c.4-.5.7-1.1.7-1.8s-.3-1.3-.9-2.1z"/></symbol><symbol id="a" viewBox="-7 -7.5 14.1 14.9"><path fill-rule="evenodd" clip-rule="evenodd" fill="#000000" d="M5.9-2.9c-.8-.7-1.7-1-2.8-1-.9 0-1.7.3-2.4.9h-.1c.1-1.9.5-3.2 1.2-4.1.1-.1.1-.1 0-.2 0-.1-.1-.1-.2-.1-.6.1-1.1.1-1.6.1s-1-.1-1.7-.2c-.1 0-.2 0-.2.1-.1.1-.1.1 0 .2.7.8 1.1 2.2 1.3 4.1h-.1c-.7-.6-1.5-.9-2.4-.9-1.1 0-2 .4-2.8 1.1-.7.7-1.1 1.5-1.1 2.5 0 1.3.8 2.6 2.5 4.1.9.8 2.4 2 4.3 3.6 0 .1.1.2.2.2s.2 0 .3-.1c.8-.8 2.2-2 4.3-3.6 1.6-1.5 2.4-2.9 2.4-4.2 0-1-.4-1.8-1.1-2.5z"/></symbol><symbol id="c" viewBox="-4.6 -4.8 9.1 9.7"><use xlink:href="#a" width="14.1" height="14.9" x="-7" y="-7.5" transform="scale(.65)" overflow="visible"/></symbol><symbol id="e" viewBox="-40.7 -0.4 81.6 66.4"><g clip-rule="evenodd"><path fill-rule="evenodd" fill="#16A3D9" d="M16.5 28.2c0-.5 0-1.1-.1-1.6 0-.2 0-.4-.1-.7-.1-.7-.2-1.3-.4-2-.1-.5-.3-1-.4-1.6-.1-.3-.2-.6-.2-.9-.3-1.3-.7-2.5-.9-3.8l-.1-.7c-.3-1.7-.5-3.3-.7-5l-.5-4c-.3-2.3-.2-5.8-1.6-7.9h-25.2c-.2-.2-.4-.2-.5 0h-8.2v.8c0 .9.1 1.8.2 2.7v1c0 .2 0 .4.1.6.1 1.1.3 2.3.3 3.4v.30000000000000004c0 .5 0 1 .1 1.5v.7c0 .6 0 1.2.1 1.8 0 .4 0 .7.1 1.1l.1 1.7c0 .4 0 .8.1 1.3v3.0999999999999996c0 .7.1 1.4.1 2 .2 1.8.5 3.5 1.3 5 .2.4.4.7.6 1l.1.1c.3.4.6.7 1 1 .1.1.3.2.5.3l.2.1.3.2c.8.4 1.7.6 2.7.6h.6c.5 0 1.1 0 1.6-.1l3.3-.4c.8-.1 1.5-.1 2.2-.1l2.5.1c3.2.2 6.3.7 9.4 1.4l3.5.9c.1 0 .2 0 .3.1h.30000000000000004c.2 0 .3.1.4.1h.2c.4.1.8.1 1.2.1h1c.3 0 .6 0 .9-.1.8-.1 1.5-.4 2.1-.9.9-.4 1.5-1.6 1.5-3.2z"/><path stroke="#077EB3" stroke-width="1.689" d="M18.1 14l-1.3-.6-.7-.3c-.9-.4-1.8-.8-2.6-1.2-.9-.4-1.8-.8-2.7-1.3-1.4-.7-2.9-1.4-4.3-2-6.1-2.8-15.5-5.4-21.4-8.2M-16.1 26.8c-1.1-.8-.4-3.2 0-4.2.6-1.6 1.7-3 3.1-3.9 2.9-1.9 7-1.3 10-.2s5.4 3.1 7.8 5.1c2.7 2.3 5.6 4.4 8.9 5.7" fill="none"/></g><path fill-rule="evenodd" clip-rule="evenodd" fill="#DCFF00" d="M18.5 24.3c-1-.9-2-1.8-3-2.6l-.3-.3c-2.4-2.1-4.9-4.2-7.4-6.1-.1-.1-.2-.2-.4-.3l-.4-.3-.2-.2c-.1-.1-.2-.2-.4-.3h-.1c-.1 0-.1-.1-.2-.2-.2-.1-.3-.2-.4-.3-.1 0-.1-.1-.2-.2h-.1l-.4-.3c0-.1 0-.2-.1-.2-.1-.1-.2-.2-.4-.3h-.1l-.2-.2-.1-.1c-.1-.1-.2-.2-.3-.2-.1-.1-.2-.2-.3-.2-.1-.1-.3-.2-.5-.3 0-.1 0-.1-.1-.2l-.4-.3c-.1 0-.1-.1-.2-.2l-.4-.3c-.1 0-.2-.1-.2-.2l-.4-.3c-.1 0-.1-.1-.2-.2-.4 0-.5-.2-.7-.3l-.2-.1c-.2-.1-.3-.2-.4-.4-.1 0-.2-.1-.2-.2h-.1c-.2 0-.3-.1-.4-.2l-.3-.2c-.1-.1-.3-.2-.5-.3l-.2-.2c-.1-.1-.2-.2-.4-.3-.1 0-.2-.1-.2-.2h-.1c-.1-.1-.2-.2-.4-.2-.1-.1-.2-.1-.2-.2l-.5-.3c-.1-.1-.2-.1-.2-.2l-.5-.3c-.1-.1-.2-.1-.2-.2-.2 0-.3-.2-.5-.3l-.2-.1-.5-.3c0-.1-.1-.1-.2-.2l-.5-.3s-.1-.1-.2-.1l-.5-.3c-.1 0-.2-.1-.2-.1l-.4-.3h-.1c-.1-.2-.1-.2-.2-.2l-.2-.1-.3-.2c-.1 0-.2-.1-.2-.1h-.1c-.1-.2-.3-.3-.4-.4-.1-.1-.2-.1-.2-.2-.2 0-.4-.1-.5-.2-.1 0-.2-.1-.2-.1l-.5-.3c-.1 0-.2-.1-.2-.2l-.5-.3c-.1 0-.2-.1-.2-.1l-.5-.3-.2-.1s-.1-.1-.2-.1c-.3-.1-.4-.2-.5-.3l-.3-.2-.5-.3c-.1 0-.2-.1-.2-.1l-.5-.3-.3-.1h-13.799999999999999l-.1.2 1.5.8 1.7.9c.5.2.9.5 1.4.8l.8.4.3.2c.2.1.4.2.5.3 0 0 .1 0 .1.1l.3.2c1 .5 2 1.1 2.9 1.7.6.4 1.2.7 1.9 1.1.8.5 1.6 1 2.5 1.5l1.5.9 2.1 1.3.9.6.5.3.4.3c.1.1.2.2.4.2l.2.1.5.3c.1.1.2.1.2.2l.5.3c.1.1.2.1.2.2l.4.3h.2l.2.1.4.3c.1 0 .2.1.2.2.1.1.2.2.4.3l.2.2.4.3.1.1.2.1c.2.1.3.2.4.3.1 0 .2.1.2.2.2.1.3.2.4.3l.2.1c.1.1.2.1.2.2.1.1.2.1.2.2l.2.2c.2.1.3.2.4.3.1.1.2.1.2.2l.4.3c.1.1.2.1.2.2.2.1.3.2.4.3.1 0 .2.1.2.2l.4.3c.1.1.2.1.2.2l.4.3c.1.1.2.1.2.2l.2.1c.1.1.2.1.2.2.1.1.2.1.2.2l.4.3.2.2.4.3.2.2c.8-.4 1-.3 1.1-.2.1 0 .1.1.2.2.2.1.3.2.4.3l.2.2.5.3c.1 0 .1.1.2.2l.4.3.2.2.4.3c.1 0 .1.1.2.2l.4.3c.1 0 .1.1.2.2l.4.3c.1 0 .1.1.2.2l.4.3c.1 0 .2.1.2.2.2.1.4.2.5.4.1 0 .1.1.2.2l.4.3c.1 0 .1.1.2.2.2 0 .3.1.4.3.1 0 .1.1.2.2l.4.3.2.1c.1.1.3.2.4.4.1.1.2.1.2.2 1.1.9 2.2 1.9 3.4 2.8l1.2-1.2 1.2-1.3.2-.2c.1-.1.2-.3.4-.4.5-.7 1-1.2 1.5-1.8z"/><g fill-rule="evenodd" clip-rule="evenodd"><path fill="#f00" d="M6.6 17.7l-.9 1c.2.1.8.8.9.7.2 0 .7-.8.9-1-.3-.2-.6-.4-.9-.7z"/><path fill="#A1EEFF" d="M7.6 18.5l-.9 1c.2.1.7.8 1 .7.2 0 .7-.8.9-1-.4-.2-.7-.5-1-.7zM8.5 19.2l-.9 1c.2.2.7.8.9.8.2 0 .7-.8.9-1l-.9-.8zM4.7 16.2l-.9 1c.2.2.7.8 1 .8.2 0 .7-.8.9-1-.4-.3-.7-.5-1-.8zM5.6 17l-.9 1c.2.1.7.8 1 .7.2 0 .7-.8.9-1-.3-.2-.6-.5-1-.7zM5.7 18.7l-.9 1c.2.1.7.8 1 .7.2 0 .7-.8.9-1-.4-.2-.7-.4-1-.7zM7.5 16.7l-.9 1c.2.1.7.8 1 .7.2 0 .7-.8.9-1-.4-.2-.7-.4-1-.7z"/><path fill="#9FB800" d="M8.4 17.5l-.9 1 .9.8c.2 0 .7-.8.9-1-.2-.3-.5-.6-.9-.8zM6.7 19.5l-.9 1c.2.1.7.8.9.7.2 0 .7-.8.9-1l-.9-.7zM9.5 21.7l.9-1c-.3-.2-.8-.9-1.1-.6l-.8.9c.4.2.7.5 1 .7zM7.7 22l-.9 1c.2.1.7.8.9.8.2 0 .7-.9.9-1-.3-.3-.6-.6-.9-.8zM4.8 18l-.9 1c.2.1.7.7 1 .7.2 0 .7-.8.9-1-.4-.2-.7-.5-1-.7zM6.5 15.9l-.9 1c.2.1.8.8 1 .7.2 0 .7-.8.9-1-.3-.2-.7-.4-1-.7zM3.7 15.5l-.9 1c.2.1.8.8 1 .7.2 0 .7-.8.9-1-.4-.2-.7-.5-1-.7zM5.5 13.4l-.9 1c.2.1.8.8 1 .7.2 0 .7-.8.9-1-.4-.2-.7-.4-1-.7zM2 17.5l-.9 1c.2.1.8.7 1 .7.2 0 .7-.9.9-1-.4-.2-.7-.4-1-.7z"/></g><path fill-rule="evenodd" clip-rule="evenodd" fill="#9FB800" d="M8.6 22.7l-.9 1c.2.1.7.7.9.7.2 0 .7-.8.9-1-.3-.2-.6-.4-.9-.7z"/><g fill-rule="evenodd" clip-rule="evenodd"><path fill="#f00" d="M-.1 14.3l.9-1c-.2-.1-.8-.7-1-.7-.2 0-.7.8-.9 1 .3.2.6.5 1 .7z"/><path fill="#A1EEFF" d="M.7 13.3l-.9 1c.2.1.8.8 1 .7.2 0 .7-.8.9-1-.3-.2-.6-.5-1-.7zM1.7 14l-.9 1c.2.1.8.8 1 .7.2 0 .7-.8.9-1-.3-.2-.6-.4-1-.7zM-2.3 11.1l-.9 1c.2.1.8.7 1 .7.2 0 .7-.9.9-1-.3-.2-.6-.4-1-.7zM-1.3 11.8l-.9 1c.2.1.8.7 1 .7.2 0 .7-.8.9-1-.3-.2-.6-.4-1-.7zM-1.1 13.6l-.9 1c.2.1.8.7 1 .7.2 0 .7-.9.9-1-.4-.2-.7-.5-1-.7zM.6 11.5l-.9 1c.2.1.8.7 1 .7.2 0 .7-.8.9-1-.3-.2-.7-.4-1-.7z"/><path fill="#9FB800" d="M1.7 14l.9-1c-.2-.1-.8-.8-1-.7-.2 0-.7.8-.9 1 .4.2.7.5 1 .7zM0 16.1l.9-1c-.2-.1-.8-.8-1-.7-.2 0-.7.9-.9 1 .3.2.7.4 1 .7zM2.7 14.7l-.9 1c.2.1.8.8 1 .7.2 0 .7-.8.9-1-.3-.2-.7-.4-1-.7zM5.5 13.4c-.2-.1-.8-.8-1-.7-.2 0-.7.8-.9 1 .2.1.8.8 1 .7.2 0 .7-.8.9-1zM1 16.8l-.9 1c.2.1.8.7 1 .7.2 0 .7-.8.9-1-.4-.2-.7-.5-1-.7zM-1.1 13.6c-.2-.1-.8-.7-1-.7-.2 0-.7.9-.9 1 .2.1.8.7 1 .7.2 0 .7-.8.9-1zM-.3 12.6l.9-1c-.2-.1-.8-.8-1-.7-.2 0-.7.8-.9 1 .4.2.7.4 1 .7zM-3.3 10.4l-.9 1c.2.1.8.7 1 .7.2 0 .7-.9.9-1-.3-.2-.7-.4-1-.7zM-1.6 8.3l-.9 1 .8.6c.4.3.8-.6 1.1-.9-.3-.2-.6-.4-1-.7zM-4.9 14.3c.3-.3.6-.7.8-1-.2-.1-.8-.7-1-.7-.2 0-.7.9-.8 1.1.4.1.7.4 1 .6z"/></g><g fill-rule="evenodd" clip-rule="evenodd"><path fill="#f00" d="M-7.4 7.6c-.3.4-.6.8-.9 1.1.2.1.9.7 1 .7.2 0 .7-.9.9-1.1-.3-.2-.7-.4-1-.7z"/><path fill="#A1EEFF" d="M-6.4 8.3c-.3.4-.6.8-.9 1.1l.9.6c.4.2.8-.7 1-1-.3-.2-.6-.4-1-.7zM-5.4 9l-.9 1.1.8.6c.4.3.8-.6 1.1-.9-.3-.3-.6-.5-1-.8zM-9.6 6.3c-.3.4-.6.7-.8 1.1.2.1.9.7 1 .7.3-.1.7-.9.9-1.1-.3-.3-.7-.5-1.1-.7zM-8.5 7l-.9 1c.2.1.9.7 1 .7.2 0 .7-.9.9-1.1-.3-.2-.6-.4-1-.6zM-8.3 8.7c-.3.4-.6.7-.8 1.1.2.1.8.7 1 .7.2 0 .7-.9.9-1.1-.4-.2-.8-.4-1.1-.7zM-6.6 6.6l-.9 1.1c.2.1.9.7 1 .7.2 0 .7-.9.9-1.1-.3-.3-.6-.5-1-.7z"/><path fill="#9FB800" d="M-5.5 7.3l-.9 1c.2.1.8.7 1 .7.3 0 .7-.8.9-1-.3-.3-.7-.5-1-.7zM-7.3 9.4l-.9 1.1c.2.1.8.7 1 .7.2 0 .7-.9.9-1.1-.3-.2-.6-.5-1-.7zM-4.3 9.7l-.9 1.1c.2.1.8.7 1 .7.2 0 .7-.9.9-1l-1-.8zM-2.6 7.6l-.9 1c.2.1.8.7 1 .7.2 0 .7-.8.9-1-.3-.2-.6-.4-1-.7zM-6 11.8c-.3.4-.6.7-.8 1.1.2.1.8.7 1 .7.2 0 .7-.9.8-1.1-.4-.2-.7-.4-1-.7zM-9.4 8c-.3.4-.6.7-.8 1.1.2.1.9.7 1 .7.2 0 .7-.9.8-1.1-.3-.2-.6-.4-1-.7zM-7.6 5.9l-.9 1.1c.2.1.9.7 1 .7.2 0 .7-.9.9-1.1l-1-.7zM-10.4 7.4c.3-.4.6-.7.8-1.1-.2-.1-.9-.7-1.1-.7-.2 0-.7.9-.9 1.1.5.2.8.4 1.2.7zM-8.9 3.5l-.9 1.1c.2.1.9.7 1.1.7.2 0 .7-.9.9-1.1-.4-.3-.7-.5-1.1-.7z"/></g><g fill-rule="evenodd" clip-rule="evenodd"><path fill="#A1EEFF" d="M-14.1 1.9c-.3.4-.6.7-.8 1.1.2.1.9.7 1.1.7.2-.1.7-.9.8-1.1-.4-.3-.7-.5-1.1-.7z"/><path fill="#9FB800" d="M-13 2.5c-.3.4-.6.7-.8 1.1.2.1.9.7 1.1.7.2-.1.7-.9.9-1.1-.5-.2-.8-.4-1.2-.7zM-11.7 4.9c-.3.4-.6.8-.8 1.1.2.1.9.7 1.1.7.2 0 .7-.9.9-1.1-.5-.2-.8-.4-1.2-.7zM-9.8 4.5l.9-1.1c-.2-.1-.9-.7-1.1-.6-.2 0-.7.9-.9 1.1.4.2.8.4 1.1.6z"/></g><path fill-rule="evenodd" clip-rule="evenodd" fill="#1A171B" d="M9.8 25.7c0 .1-.1.1-.2.2l-.4-.3s.1-.1.1-.2c.2-.3.4-.5.7 0 0 0-.1.1-.2.3zm.8.3l-.2.2c-.2.2-.4.2-.5-.2l.1-.2c.1-.2.3-.3.5-.2.1 0 .1.1.2.2l-.1.2zm-20.1-23c-.1.2-.2.2-.3.3-.2 0-.3-.2-.5-.3l.1-.1.1-.2c.2-.3.4-.4.7 0l-.1.3zm-.8-.4c-.2.2-.4.3-.7 0l.2-.3c.2-.3.4-.4.7 0 0 .1-.1.2-.2.3zm-.7-.4c-.2.2-.3.3-.7 0l.2-.3c.2-.3.4-.4.8 0-.2.1-.2.2-.3.3zm-.8-.4c-.2.2-.3.3-.7 0 .1-.1.1-.2.2-.2.2-.3.4-.4.8 0-.1-.1-.2.1-.3.2zm-.7-.5c-.2.2-.4.3-.7 0 .1-.1.2-.2.2-.3.2-.3.4-.5.8-.1-.1.2-.2.3-.3.4zm-.7-.4c0 .1-.1.2-.2.2-.2 0-.3-.2-.5-.3.1-.1.1-.2.2-.2.2-.3.4-.5.8-.1l-.3.4zm-.8-.4c-.2.2-.3.2-.7-.1 0-.1.1-.1.2-.2l.1-.2c.2-.2.3-.2.5 0l.1.1c0 .1-.1.3-.2.4zm-.7-.5c0 .1-.1.1-.2.2-.1 0-.3-.1-.4-.2h.6zm23.9 25.2c-.2.2-.3.2-.6-.2l.2-.2c.1-.1.2-.2.3-.4.2.1.3.2.4.3l-.3.5zm-.3-.9l-.3.4c-.2.1-.3.2-.5-.2l.1-.2v-.1c.3-.2.4-.4.7.1zm-.9-.2c-.2.2-.4.2-.6-.1 0-.1.1-.1.2-.2l.1-.1c.1-.1.2-.2.3-.2h.1c.1 0 .2.1.3.3-.2.1-.3.2-.4.3zm-1.9-1.5c-.2.2-.3.2-.6-.2l.2-.2c.2-.3.4-.5.7 0-.1.2-.2.3-.3.4zm.7.4c-.2.2-.4.3-.6-.1l.1-.2c.2-.3.4-.5.7-.1 0 .3-.1.4-.2.4zm.6.6c-.2.2-.4.2-.5-.2 0 0 0-.1.1-.1 0 0 0-.1.1-.1.2-.3.4-.3.7.1-.2.1-.3.2-.4.3zm-1.9-1.5c-.1.2-.3.2-.5-.1l.1-.2c.1-.1.2-.2.3-.4.2.1.3.2.4.3-.1.2-.2.3-.3.4zm-3.1-2.5c-.2.2-.3.3-.6-.1.1-.1.1-.2.2-.2.1-.2.2-.3.3-.3.1 0 .2.1.3.3 0 .1-.1.2-.2.3zm.6.5c-.2.2-.3.2-.6-.1l.2-.2c.2-.3.4-.5.7 0l-.3.3zm1.3 1c-.2.2-.3.2-.6-.1l.2-.2c.2-.3.4-.5.7 0l-.3.3zm.6.5c-.2.2-.4.2-.5-.2l.1-.2c.2-.3.5-.4.7 0-.1.2-.2.3-.3.4zm-1.2-1c-.2.2-.3.2-.6-.1l.2-.2c.2-.3.4-.5.7 0-.2.1-.3.2-.3.3zm-1.9-1.5c-.2.2-.4.3-.6-.1l.2-.2c.1-.1.2-.2.2-.3.1 0 .3.2.4.3-.1.1-.2.2-.2.3zm-.6-.6v.2c-.2 0-.2.1-.3.2-.2 0-.3-.2-.4-.3.1-.1.1-.2.2-.2.4-.4.6-.3.5.1zm-.7-.3c-.2.2-.3.3-.6-.1 0-.1.1-.2.1-.2.1-.1.2-.2.3-.2.1 0 .2 0 .4.2-.1.1-.2.2-.2.3zm5-4.7l-.2.2c-.1 0-.2-.1-.4-.3.1-.1.2-.2.2-.3.2-.2.4-.3.7.1l-.3.3zm2.2 1.3c-.1.1-.1.2-.2.2-.2.2-.4.3-.7-.1.1-.1.2-.2.2-.3.1-.1.2-.2.4-.2.1.1.2.1.3.4zm-.9-.3c-.2.2-.4.3-.6 0l-.1-.1c.1-.1.2-.2.2-.3.2-.2.4-.3.7.1 0 .1-.1.2-.2.3zm-.6-.5c-.2.2-.4.3-.7-.1.1-.1.2-.2.2-.3.2-.2.4-.3.7.1l-.2.3zm-12.4-.6c-.1.1-.2.2-.2.3-.2 0-.3-.2-.5-.3l.2-.3c.2-.2.4-.4.7 0 0 .1-.1.2-.2.3zm1.4 1c-.2.2-.4.4-.7 0l.2-.3c.2-.2.3-.4.6 0 0 .1 0 .2-.1.3zm-.7-.5c-.2.2-.4.4-.7 0l.2-.3.2-.3s.1 0 .1.1c.1.1.2.2.3.2.1.1 0 .2-.1.3zm4 2.8c-.1.1-.1.2-.2.2s-.3-.2-.4-.3l.2-.3c.2-.3.4-.4.7 0-.1.2-.2.3-.3.4zm1.3 1c-.2.2-.3.3-.6-.1.1-.1.1-.2.2-.2.1-.1.2-.2.2-.3l.4.3c0 .1-.1.2-.2.3zm-.6-.5c-.2.2-.3.3-.6-.1.1-.1.1-.2.2-.2.1-.1.2-.2.2-.3.2 0 .3.2.4.3-.1.1-.2.2-.2.3zm-1.3-1c-.2.2-.3.3-.6-.1l.2-.3c.2-.2.4-.4.7 0-.2.2-.3.4-.3.4zm-.7-.4c-.1 0-.1.1-.2.2-.4-.1-.4-.4-.2-.6.2-.2.5-.3.7 0l-.3.4zm-.7-.5l-.2.3c-.2 0-.3-.2-.5-.3.2-.1.2-.3.3-.3.2-.2.4-.4.7 0l-.3.3zm-.6-.5c-.2.2-.4.4-.7 0l.2-.3c.1-.1.2-.2.2-.3.2 0 .3.2.4.3l-.1.3zm1.6-7.1c-.1.1-.2.2-.3.2-.1 0-.2 0-.4-.2.1-.2.1-.3.2-.3.2-.2.4-.4.7 0-.1.1-.2.2-.2.3zm2.7 1.9l-.2.2c-.2 0-.3-.2-.4-.3.1-.1.2-.2.2-.3.2-.2.3-.3.7.1l-.3.3zm-.7-.5l-.2.2c-.1 0-.3 0-.4-.2 0-.1.1-.2.2-.3.2-.2.4-.4.7 0l-.3.3zm-.7-.5c-.2.2-.3.4-.6 0 .1-.1.2-.2.2-.3.2-.2.4-.4.7 0l-.3.3zm-.6-.5c-.2.2-.4.3-.7 0l.2-.3.3-.3.5.3c-.2.2-.3.2-.3.3zm-5 4.9c-.2.2-.4.4-.7 0 .1-.1.2-.2.2-.3.2-.2.4-.3.6 0l.1.1c-.1 0-.2.1-.2.2zm-.7-.5c-.1.1-.2.2-.2.3-.1 0-.2-.1-.3-.2l-.1-.1v-.1c.1-.1.1-.2.2-.2.2-.2.3-.4.7 0-.2.1-.2.2-.3.3zm-.7-.5l-.1.1c0 .1-.1.1-.1.1-.1 0-.3-.2-.4-.3 0 0 0-.1.1-.1l.1-.2c.2-.2.4-.4.7 0-.1.2-.2.3-.3.4zm3.6-5.8c-.1.1-.2.2-.2.3-.2 0-.4-.2-.5-.3l.2-.3c.2-.2.4-.4.7 0 0 .2-.1.3-.2.3zm-1.4-.9c-.2.2-.4.4-.7 0 .1-.1.2-.2.2-.3.2-.2.4-.4.7 0l-.2.3zm-.7-.4c-.2.2-.4.4-.7 0 .1-.1.2-.2.2-.3.2-.2.3-.3.7 0l-.2.3zm1.4.9c-.2.2-.4.4-.7 0 .1-.1.2-.2.2-.3.1-.1.2-.2.2-.3l.5.3-.2.3zm-2.1-1.4c-.1.1-.2.2-.2.3-.1 0-.3-.1-.4-.2 0 0-.1 0-.1-.1l.2-.3c.2-.2.4-.4.7 0l-.2.3zm-.7-.4c-.2.2-.4.4-.7 0 .1-.1.2-.2.2-.3.2-.2.3-.4.7 0l-.2.3zm-.7-.5c-.1.1-.2.2-.3.2-.1 0-.2 0-.4-.2l.2-.3c.2-.2.3-.3.7 0-.1.1-.2.2-.2.3zm5.6 3.7c-.2.2-.4.4-.7 0l.2-.3.2-.3c.2 0 .3.2.5.3l-.2.3zm-.7-.5l-.3.3c-.2 0-.3-.2-.4-.3l.2-.3c.2-.2.4-.4.7 0l-.2.3zm8.8 6.2c-.2.3-.4.4-.7 0 0 0 0-.1.1-.1l.1-.2c.2-.2.4-.4.7 0-.1.2-.1.3-.2.3zm-.7-.4c-.2.2-.4.4-.7 0 .1-.1.2-.2.2-.3.2-.1.2-.2.3-.3.1 0 .3.2.4.3 0 .1-.1.2-.2.3zm-.7-.5c-.1.1-.2.2-.2.3l-.4-.4c.1 0 .1-.1.2-.2.2-.2.4-.4.7 0l-.3.3zm-.6-.5c-.2.2-.4.3-.7 0 .1-.1.2-.2.2-.3.1-.1.2-.2.2-.3.2.1.4.2.5.3l-.2.3zm-1.4-1c-.1.1-.2.2-.2.3-.2-.1-.3-.2-.4-.3l.2-.3c.2-.2.4-.4.7 0-.1.2-.2.3-.3.3zm.7.5c-.2.2-.4.3-.7 0 .1-.1.2-.2.2-.3.2-.2.4-.4.7 0 0 .1-.1.3-.2.3zm-1.3-.9c-.2.2-.4.3-.7 0l.2-.3c.2-.2.4-.4.7 0l-.2.3z"/><g clip-rule="evenodd"><path fill-rule="evenodd" fill="#FFE608" d="M14.4 29.7c-5.5-3-11.8-4.6-18.1-4.7-3.2 0-6.4.3-9.5 1-1.5.4-3 .8-4.4 1.3l.9 4.8c9.3-2.8 19.6-1.5 27.7 3.9l3.4-6.3c-4.8-2.6-1.2 2.2 0 0z"/><path stroke="#000" stroke-width=".483" d="M14.4 29.7c-5.5-3-11.8-4.6-18.1-4.7-3.2 0-6.4.3-9.5 1-1.5.4-3 .8-4.4 1.3l.9 4.8c9.3-2.8 19.6-1.5 27.7 3.9l3.4-6.3c-4.8-2.6-1.2 2.2 0 0z" fill="none"/><path fill-rule="evenodd" fill="#FDE826" d="M-7.6 25.8c-.1.1-.2.3-.2.5-.3-.6-1.3-.4-1.3.3-.3-.6-1.3-.4-1.3.3-.3-.6-1.3-.4-1.3.3-.3-.6-1.3-.4-1.3.3-.3-.6-1.3-.4-1.3.3-.3-.6-1.3-.4-1.3.3-.3-.6-1.3-.4-1.3.3-.3-.6-1.3-.4-1.3.3 0 .9 1.3 1 1.4.1.3.6 1.3.4 1.3-.3.3.6 1.3.4 1.3-.3.3.6 1.3.4 1.3-.3.3.6 1.3.4 1.3-.3.3.6 1.3.4 1.3-.3.3.6 1.3.4 1.3-.3.3.6 1.3.4 1.3-.3.3.5 1.1.5 1.3-.1.2.6 1.1.8 1.4.1.2.6 1.1.8 1.4.1.2.7 1.1.8 1.4.1.2.7 1.1.7 1.4.1.2.7 1.1.8 1.4.1.2.6 1.1.8 1.4.1.2.7 1.1.8 1.4.1-.2.5.6.7 1 .2 0 .7.9 1 1.3.4 0 .7.8 1.1 1.3.5 0 .7.8 1.1 1.3.5 0 .7.8 1 1.3.5 0 .7.8 1 1.3.5 0 .7.8 1.1 1.3.5 0 .7.8 1.1 1.3.5 0 .6.7 1.1 1.2.6.7-.7-.5-1.7-1.1-.9 0-.7-.8-1.1-1.3-.5 0-.7-.8-1.1-1.3-.5 0-.7-.8-1.1-1.3-.5 0-.7-.8-1-1.3-.5 0-.7-.8-1-1.3-.5 0-.7-.8-1.1-1.3-.5 0-.7-.8-1-1.3-.5 0-.8-1.1-1-1.4-.3-.1-.6-1.1-.8-1.3-.1-.1-.6-1.1-.8-1.4-.1-.1-.6-1.1-.8-1.4-.1-.2-.7-1.1-.8-1.4-.1-.1-.7-1.1-.8-1.4-.1-.1-.7-1.1-.7-1.4-.1-.2-.6-1.1-.8-1.4-.1.1-.5-.6-.7-1-.3z"/><path stroke="#000" stroke-width=".483" d="M-7.6 25.8c.4-.4 1-.2 1.2.3.2-.7 1.2-.6 1.4.1.3-.6 1.2-.6 1.4.1.3-.7 1.2-.6 1.4.1.3-.7 1.2-.6 1.4.1.2-.7 1.2-.5 1.4.1.2-.7 1.2-.5 1.4.1 0-.7 1-.5 1.1.1.3-.7 1.4-.5 1.4.3.4-.6 1.3-.2 1.3.5.4-.6 1.3-.2 1.3.5.4-.6 1.3-.2 1.3.5.4-.6 1.2-.3 1.2.4.5-.6 1.3-.2 1.3.5.5-.6 1.3-.2 1.3.5.4-.6 1.3-.2 1.3.5.5-.6 1.5 0 1.2.7-.3.8-1.4.4-1.4-.3-.5.6-1.3.2-1.3-.5-.4.6-1.3.2-1.3-.5-.4.6-1.3.2-1.3-.5-.4.6-1.2.2-1.2-.5-.5.6-1.3.2-1.3-.5-.4.6-1.3.3-1.3-.4-.4.6-1.3.2-1.3-.4-.3.4-1.1.2-1.2-.3-.3.6-1.2.6-1.4-.1-.3.7-1.2.5-1.4-.1-.3.7-1.2.5-1.4-.1-.3.6-1.2.6-1.4-.1-.3.6-1.2.6-1.4-.1-.2.7-1.2.5-1.4-.1-.2.7-1.2.5-1.4-.1-.2.6-1 .6-1.3.1-.1.7-1 .9-1.3.3-.1.7-1 .9-1.3.3-.1.7-1 .9-1.3.3 0 .7-1 .9-1.3.3 0 .7-1 .9-1.3.3 0 .7-1 .9-1.3.3-.1.7-1 .9-1.3.3-.1.7-1.1.9-1.4.2-.3-.8.9-1.4 1.3-.6.1-.7 1-.9 1.3-.3.1-.7 1-.9 1.3-.3.1-.7 1-.9 1.3-.3.1-.7 1-.9 1.3-.3.1-.7 1-.9 1.3-.3.1-.7 1-.9 1.3-.3.1-.7 1-.9 1.3-.3l.5-.5z" fill="none"/></g><g clip-rule="evenodd" stroke="#871818"><path fill-rule="evenodd" fill="#C42A1F" stroke-width=".75" d="M-40.2 12.1c.1.2.1.3.1.5l-.1-.5zm.1.5l.1.4c-.1-.1-.1-.3-.1-.4zm22 15.3v1.2000000000000002c-.2 1.8-.9 3.2-2.9 2.4-.4-.1-.7-.3-1.1-.6l-.7-.5h-.1c-.7-.6-1.4-1.2-2.2-1.6-1.2-.6-2.4-1.2-3.2-2.3 0 0 0-.1-.1-.1v-.1c-.5-.8-.8-1.7-1.5-2.3-.7-.6-1.6-.9-2.3-1.3-1.5-.8-1.4-2.5-2.2-3.8l-1-1.5c-.7-.9-1.6-1.6-2.5-2.3l-1-.9c-.4-.3-.7-.7-1-1.1v-13.2.1h17.8c.1.4.1.7.1 1.1 0 .9.1 1.7.2 2.6v.1l.1.7v.2c0 .1 0 .2.1.3 0 .2.1.3.1.4v.2c0 .2.1.4.2.7l.4 1.5.9 2.9.1.3c0 .1.1.2.1.4l.2.5v.2c.1.5.3 1 .4 1.4.3 1.3.6 2.6.7 3.9.1.5.1.9.1 1.4v.6c.1 1.8.1 3.6.1 5.4v2.4c.2.3.2.5.2.7zM40 13v-13h-32.6c.1.9.2 1.8.3 2.6.1 1.8.8 3.4 1.6 5 .5 1 1 2 1.4 3 .6 1.3 1.2 2.5 1.9 3.7l1.6 2.6c.2.4.5.7.8 1.1.8 1.1.7 2.1.6 3.5v.2c0 .2 0 .5-.1.7l-.2 2.8-.1 1.6v1.1c0 .5 0 1-.1 1.6 0 .8-.1 1.5-.2 2.2l-.1 1.1c-.6 3.6 3.4 1.4 4.4-.2.6-.9 1.2-1.7 1.9-2.6l.3-.4.1-.2.7-1c.4-.7.8-1.4 1.4-1.9.4-.4 1-.7 1.5-1l1.6-.6.6-.3c.5-.2 1-.4 1.5-.7.5-.2 1-.5 1.5-.8l.1-.1h.1c2.6-1.6 5-3.9 6.8-6.3 1-1.2 1.9-2.4 2.7-3.7z"/><path stroke-width="1.93" d="M40 4.9l-.7 1.2c-.9 1.3-1.8 2.6-2.7 4-1.4 2.1-2.7 4.2-4 6.4-1 1.6-2.1 3-3.7 3.8-.3.1-.6.3-1 .4-.2.1-.5.1-.8.2h-1.6c-.5-.1-.9-.2-1.3-.4-2.7-1.2-3.6-5-4.5-7.9-.8-2.6-1.4-5.2-1.9-7.8-.2-1.1-.5-2.1-.6-3.2-.1-.6-.1-1.1-.2-1.6M-33.1 0c.2.9.5 1.7.5 2.6 0 .4-.1.8-.2 1.1 0 .1 0 .2-.1.2 0 .1-.1.2-.1.2-.2.5-.5 1-.8 1.5 0 .2-.1.3-.2.4-.4.8-.6 1.7-.7 2.7-.1.7-.1 1.3 0 2 .1.6.2 1.2.4 1.8v.1l.1.3c0 .2.1.3.2.4 0 .1.1.2.1.2 0 .1 0 .1.1.1.5 1.2 1.3 2 2.1 3 .8.9 1.4 1.9 2.4 2.5 1.1.7 2.9 1.7 4.4 1.9.5 0 1 0 1.5-.2M-40 13c.7.7 1.3 1.5 2 2.1.8.8 1.6 1.6 2.5 2.3l2.2 1.9c1.2 1 3.4 3.1 5.2 2.5.9 1.1 2.5 2.3 3.9 3 .3.2.6.3.9.4" fill="none"/></g><g fill-rule="evenodd" clip-rule="evenodd"><path fill="#fff" stroke="#000" stroke-width=".75" stroke-miterlimit="10" d="M-13.3 33.5c0 .2-.1.5-.2.7-.2.6-.9 1-1.5 1.2-.1 0-.6.2-.9.4-.3.2-.5.4-.3.5l-1-.7-.1.3c-.1-.2-.3-.3-.4-.4-.1-.1-.2-.1-.2-.2-.1.1-.2.2-.2.3-.5-.5-1.3-.5-1.7-1.2.1.3 0 .1 0 0l-.1.2c.2-.6-1.6-1.4-1.7-1.8-.2-.6-.2-1.3-.3-1.9-.1-.4-.1-.9-.3-1.3-.2.2-.3.5-.4.8l-.1.3v-.4c0-.9.1-1.9-.2-2.8l-.3.8c-.4-.8-.4-1.7-.5-2.5 0 .1-.1.2-.2.3.2-.4 0-.8-.2-1.3-.2-.4-.4-.9-.4-1.2-.1-.9-.1-1.8-.2-2.6 0-.4 0-.8-.1-1.2v-.1l-.1-.8c-.1-.4-.1-.9-.1-1.3v-1.9c.1-.6.1-1.3.1-1.9v-2.5c0-.6 0-1.3-.1-1.9v-.5l-.2-5.5-.1-1.5c0-.6.1-1.9.1-1.9h7.8s.1 2 .2 3l.1 1.7c.1.6.1 1.2.1 1.8 0 .3 0 .7.1 1l.3 3 .1.7v.2l.1.6c.1.3.2.7.2 1 0 .2.1.4.1.5l1 3.7c0 .1 0 .2.1.3l.2 1v.8999999999999999c0 .2 0 .5.1.7.1 1.6.3 3.2.5 4.8.1.4.1.8.1 1.2v2.9c0 .4.1.8.2 1.1v.1c0 .1.1.2.1.4s.1.4.2.6v.1c.3.8.4 1.5.3 2.2zm-11.7-16.7v.3c0-.1 0-.3.1-.5v-.2.2c-.1 0-.1.1-.1.2zM22.1 23.4c-.4-1-1.2-1.9-1.1-3 .3.1.5.2.6.5l-1-2.1c-.1-.3-.8-2-.2-1.4-.7-1.1-.5-2.8-.8-4.1-.5-1.9-.8-3.8-1.4-5.6-.5-1.6-.8-3.3-1.1-4.9-.2-1-.3-1.9-.7-2.8h-12.3c-.2 2.2 1.4 5.5 1.7 6.8-.1-.3-.1-.6-.1-.9.4.8.6 1.8.7 2.8 0 .3.1.6.1.8.1 1.4-.2 3.2.6 4.4 0-.1.1-.2.1-.4 0 .1.1.6.3 1 .1.2.2.4.2.2v.1l.2.5.2 1.8c.1-.3.3-.7.3-1l.1 1.5c.1.5.2.9.3 1.3.1.3.2.5.2.8 0 .2.1.4.2.6.1.2.1.4.2.7l.2.7c0 .1.1.2.1.4.1.3.2.6.2.9l.6 2.7c0 .1 0 .3.1.4v.30000000000000004l.2 1.6v.1c0 .4.2 1.1-.1.8 0 .2.1.4.2.6l.4 1v.1l.1.5-.1-.5c.2.7.4 1.4.6 2l.3.9.1.3c.4.9 1.2 1.8 1.3 2.8-.1-1 .9-.5 1.3 0 .2-1 .8-.2 1.4-.4.6-.2.9-.9 1.1-1.5.2.3.5.3.7.7-.1-.3 0-.6 0-.9v-.2l.4-.9c.6.2.9-.2.9-.8 1.2.7 1.4-2.5 2.5-1.2.1-.8.2-1.6.2-2.4 0-.2 0-.4-.1-.7l-.1-1c0-.3-.3-1.9.2-1.5-.1-.2.2-1.9 0-2.4z"/><g fill="#1A171B"><path d="M-14.8 24.5c-.2-.7-.2-1.6-.8-2.2-.3-.5-.3-1.1-.5-1.6s-.5-.8-.6-1.3c0 .1-.2 1.2-.3.8-.1.6-.8 1.5-.7 2.1-.1 0-.1 2-.1 2.3 0-.6.5-.9.7-1.4l.4-1.5c-.2.6 1.6 2.2 1.9 2.8-.1-.1-.1-.3 0 0zM-21.9 8.9s.3-1.4.3-.7c.1-.4-.1-1 .2-1.3-.3.3 1.8 2.6 2.3 1.9.1.1.1.5.1.6.4-.5-.4-.6-.4-.7-.5-.4-.6-1.2-.8-1.7-.2-.4-.6-.2-.9-.7-.3-.6-1.1-1.1-1.1-1.7-.1 1.2-.4 2.4-.4 3.6 0 .2.2 1.4.3 1.9.2-.4.3-.7.4-1.2zM-19.6 23.3v.3c.4-.3-.5-1.4-.7-1.7-.4-.7-1.1-1.5-1-2.4-.3 1.6-.5 2.9-.5 4.7 0 0 .2-1.2.2-.8.1-.3.4-1.9.7-1.9.1.1.4 1.9.7 1.6 0 .1-.1.6 0 .7.3.1.4-.5.6-.5 0 .1-.1 0 0 0zM-18.9 13.6c0-.3 0-.6.3-.3.1-.3.4-.6.6-.9l.2-1c-.2.3 1.1 1.4 1.3 1.5.3.2 1 .3.6-.2-.5-.6-1.1-1.2-1.6-1.9-.4-.6-.3-1.1-.5-1.7 0 0-.6 2.6-.7 2.8-.4.8-.3 1.4-.1 2.3 0-.1 0-.4-.1-.6 0-.4.1.3 0 0zM10.2 4.4c.5.8 1.5 1.1 2.1 1.8-.6-1.6-2-2.6-3-3.9.3.8.3 1.7.2 2.5 0 .3-.3 1.8 0 2 .4.3.7-2.2.7-2.4.2.3 0 1.1 0 0zM10.6 16.8c.6-.5.9-1.4 1.1-2.2l1.7 2.2c-.1-1.7-1.5-2.9-2.3-4.4.4.8 0 1.8-.3 2.6 0 .2-.4 1.9-.2 1.8.5-.4-.2.1 0 0zM17.9 13.6c.3.3.7.6.9 1.1-.1-1.8-1.7-2.8-2.2-4.4.2.9-1.1 4-.6 4.5.3.3 1.1-2.1 1.2-2.3 0 .4.4.8.7 1.1.5.4-.4-.4 0 0zM19.5 25.8c0-.1 0 .7.1.6h.2c.5-.6.3-1.8.2-2.5.2-.4.5.6.5.7.4.3.9.7 1.1 1.1-.3-.8-.7-1.5-1-2.2l-1.4-1.7c.3 1.3.2 2.6.3 4zM17.4 27.3c.1 0 .1 0 .2.1 0-.7-.5-1.3-1-1.7-.6-.6-.6-1.9-.5-2.7-.3 1.6-1.7 3-1.4 4.7l1.2-2.4c.2.4 1.1 1.9 1.5 2zM18.9 32.1c.3 0-.7-1-.8-1.1-.5-.4-.9-.7-.7-1.4-.5 1-1.1 2.3-1 3.4.1-.4.7-1 .8-1.2l.3-.7c.3.5.9.6 1.4 1 .2 0-.1-.1 0 0zM19.7 29.5c-.2.3-.4 1.1.2.7.3-.2.7-1.3 1-1.4.1 0 .1 1.2.2 1.4.1.2.3 0 .4.3 0-.1.3.7.2.5.2-.6.2-.9.1-1.5-.1.1-.2.1-.2.1l-.1-1.4-.4-1.1c-.1.9-.8 1.7-1.4 2.4-.3.5.1-.2 0 0zM-19.6 29c.2-.4.6-1.1.6-1.6.1.8.8 1 1.1 1.6l.2.5c.2.4.4-.3.6-.2.1.2.1.2.3.2.3-.1-1-1.6-1-1.7-.1-.3-.9-2.6-1-2-.1-.3-.2-.7-.2-1v.5c-.1.5-.1.4-.3.4-.6 1-.8 3.4-.6 4.5-.1-.4.2-.8.3-1.2.5-.9-.3.6 0 0zM10.7 21.8c-.2-.7-1.4-.5-1.4-1.1 0 1.4 1.2 2.1 2.3 3-.6-.6-.2-1.3-.9-1.9 0-.1.4.3 0 0z"/></g></g><g clip-rule="evenodd" stroke="#ACA132"><path fill-rule="evenodd" fill="#50370E" stroke-width=".5" d="M-11 52.9c.7.6 1.6-.1 1.5-.9-.1-.9-.7-1.7-.9-2.6-.4-2.1-.9-4.2-.9-6.3l.1-5.9c0-1.3.3-5.2 2.1-5.3-1-.1-1.7-1-2.6-1.3-1.4-.5-3.1-.4-4.3.6-2.2 1.8-2.6 5.9-.9 8.1.1.2.3.4.5.6.5.4 0 .4-.2.9-.3.6-.3 1.3-.2 1.9.4 1.4 1.5 2.5 2.3 3.6 1.6 2 1.4 5 3.5 6.6.1.1-.4-.3 0 0z"/><path stroke-width=".483" d="M-10.6 52.8c-1.3-1.8-2.4-3.6-2.8-5.9-.4-2.7 1.4-5.3.5-7.9-.2-.6-.6-1.3-.6-2 0-1 1.9-1.3 1.4-2.4-.5-.9-2.4-1.6-1.6-3 .5-.9 2-1 2.7-.3-2.1-2.5-4.1.5-4.7 2.6-.4 1.5-.1 2.5.5 3.8.5 1.1-1 2.5-1.4 3.4" fill="none"/></g><g clip-rule="evenodd"><path fill-rule="evenodd" fill="#F2D8C0" d="M-6.8 57.5c1.6.6 3.4.6 5.1.3 1.4-.3 3.3-.4 4.6-1.1 2.8-1.4 2.3-6 2.1-8.6-.2-3-.7-6-.9-8.9-.1-1.7-.3-3-1.7-4-1.5-1-3.1-1.9-4.8-2.5-1.4-.5-3-.7-4.4-1.3-.5-.2-1.4-.6-1.8 0-.4.6 0 1.5.1 2.1.1.7-.8 1.8-1.1 2.5l-1.3 4.6c-.6 1.5-.8 3.4-.6 5 .1.8.4 1.6.1 2.4-.2.7-.4 1.4-.4 2.1 0 3.4 1.8 6.2 5 7.4 1 .3-1.3-.5 0 0z"/><path stroke="#000" stroke-width=".483" d="M-6.8 57.5c-3-1.1-5.1-3.9-5-7.2 0-.7.1-1.3.3-2 .3-.8.1-1.4 0-2.2-.2-1.7-.1-3.8.6-5.5.5-1.3.7-2.8 1.2-4.2.3-.8 1.2-1.9 1.3-2.7.1-1.2-.8-3.2 1.3-2.4 1.5.5 3.1.9 4.7 1.4 1.6.5 3.1 1.3 4.5 2.3 1.4 1 1.9 2.1 2 3.8.2 3.1.6 6.2.9 9.3.2 2.5.7 6.7-1.7 8.4-1.2.8-3 .8-4.5 1.2-1.8.4-3.8.4-5.6-.2-1.3-.5 1 .3 0 0z" fill="none"/></g><g clip-rule="evenodd" stroke="#ACA132"><path fill-rule="evenodd" fill="#50370E" stroke-width=".5" d="M.4 37.7c2 1 2.7 2.9 3 5 1.2-1 1.6-2.7 1.7-4.2.1-.8.8-1.4.8-2.1 0-.6.1-1 .2-1.6.2-1.9-2.7-2.1-3.9-2.6-1.5-.6-3.1-1.4-4.7-1.7-.7-.1-1.3-.4-2-.6-.5-.1-1 0-1.5-.3-.7-.4-1.3-.9-1.9-.4-.5.5-1.3.7-1.4 1.5-.1.6-.4 1-.7 1.5-.5.9-.5 1.6-.9 2.5-.3.7-.4 1.6-.2 2.3.1.3.2.6.2.9 0 .3-.3 1.2.2.7-.2.5-.4 1-.6 1.6-.2.5-.4 2 0 2.5.3-1.2.4-2.2 1.1-3.3.3-.6.9-1.1 1.1-1.8.2-.7.4-1.3.7-2 0 .2 0 .4.1.6.2-.3.3-1.1.5-1.3.3-.2.4.5.5.6.4-1.4.2-.4 1.1.1-.1-1.5 2 .4 2.5.7 1.4.4 2.8.8 4.1 1.4zM-7.1 40.8l2.8.2c.8-.1 1.5-.8 2.2-1.2 1.5-.9.7-3.5 3-3.2-.9-.8-3-1-3.4.3-.4 1.4-1 2-2.5 2s-3.2.4-4.2-1.1c-.3-.4-.5-1.3-1-1.4-.8-.2-1.3 0-1.7.8 1.1-.3 1.6 1.5 1.9 2.2.6 1.5 1.5 1.8 2.9 1.4.3 0-.3.1 0 0zM2.2 57.9c1.3.1 2.8 0 3.8-1 1.1-1.1 1-2.4 1.5-3.7.6-1.3 1.4-2.5 1.8-4 .4-1.5.6-2.7 1.5-3.9.7-1 1.6-1.9 2.2-2.9.8-1.4.7-3 .4-4.5-.1-.7-.6-1.1-.9-1.7-.3-.7 0-1.3-.4-2.1-.3-.5-.6-.9-1-1.3-.2-.2-1.3-.8-1.3-1.2 0 .5-.1.9-.3 1.3-1.3-1-2.4-2.5-4.3-1.8.5 1.3.8 2.3-.1 3.5-.7 1.2-2.1 1.9-1.9 3.4.2 1.7 1 2.2-.4 3.6-.9.9-.8 1.8-.5 3 .3 1.2.8 2.7 0 3.8-.8 1.2-1.4 2-1.6 3.4-.1 1.2.3 2.7-.2 3.8-.3.4-.8 1-.5 1.5.5.7 1.5.8 2.2.8.7.1-.9-.1 0 0z"/><path stroke-width=".483" d="M12.4 35.9c.1 1-.6 1.8-1.6 2-.7.2-.3.9-.2 1.6l.2 1.8c.1 2.1-1.4 4.9-3.4 5.8-.6.3-.2 2.1-.2 2.8 0 1.2 0 2.5-.3 3.7-.3 1.1-.8 2.1-1.6 2.8-.4.3-2.3 1.5-2.5.6-.2-.8.4-2 .5-2.7.2-1.2.3-2.4.4-3.6.2-2.8 2-4.3 3.4-6.5.6-.9 1.1-1.9 1-2.9-.2-1.1-.9-2.2-1-3.3 0-.9 1.2-1.6 1.7-2.3.7-1 1.1-2.4.1-3.3" fill="none"/></g><g clip-rule="evenodd" stroke="#000"><path stroke-width=".483" d="M-11.8 49.9c1.1.7 2.9.6 4-.3 1-.9.4-2.5.4-3.6 0-1.2-.4-1.9-.6-3-.1-.6-.3-1.2.5-1.5.4-.1 1 .2 1.4.2-.6.2.7.3.9.3.3-.5-.7-.3-.9-.3 1.2-.5 2.2.1 1.9 1.4" fill="none"/><path fill-rule="evenodd" fill="#154B66" stroke-width=".5" d="M-3.9 47.8c0 1.3 1.7 1.3 1.7.1.1-1.2-1.6-1.3-1.7-.1zM-9.3 48.3c.5-.7-.2-2.1-.9-1.1-.6.7.2 2 .9 1.1.1-.2-.2.1 0 0z"/><path stroke-width=".483" d="M.2 50.4c-.7.1-1.2.4-1.9.3-1.1-.1-2-.8-3.2-.9M-7.8 47.3c-.5.7-.4 1.5-1.4 1.4-.7-.1-1.6-.3-1.7-1.1M-.2 47.6c-.4 1.1-2 1.1-3 1.2-1.2.1-1.1-.6-1.6-1.5M-4.5 38c-.7-.3-3-1.6-3.1.2" fill="none"/></g><path fill-rule="evenodd" clip-rule="evenodd" fill="#FFE608" d="M-13.6 60.2s-.1-.1-.2-.1c-.2-.2-.4-.3-.5-.5l-.1-.1c-.1-.1-.3-.2-.4-.4l-.4.4-.1.1c-.2.2-.4.5-.5.7-.1.1-.1.1-.1.2l-.4.8c0 .1-.1.2-.1.2-.1.3-.2.6-.2.8 0 .1 0 .2-.1.3-.1.3-.1.6-.1.9v.3c0 .3 0 .6.1.9v.1h2.3l-.1-.5v-1.5c.1-.3.1-.6.3-.9l.1-.2c.1-.3.3-.5.5-.8l.1-.2c.5-.2.3-.2-.1-.5zM6.4 63.1v-1.2c0-.3-.1-.6-.2-.8-.2-.1-.2-.2-.3-.3l-.3-.7v-.1c0-.1-.1-.2-.1-.2-.2-.3-.3-.5-.5-.7l-.2-.2c-.1-.1-.1-.2-.2-.2h-.1l-.1-.1-.3-.3c-.1-.2-.1-.2-.2-.3l-.1-.1-.3-.3c0 .1-.1.2-.3.3 0 0 0 .1-.1.1l-.4.4c-.1.1-.1.2-.2.2v.1l-.1.1c-.2.2-.3.4-.3.6.1.1.2.1.2.2l.3.3.1.1.1.1.2.2.1.2c.1.1.1.1.1.2.2.3.3.5.4.8 0 .1.1.2.1.2 0 .1 0 .1.1.2l.2.7v1.1c0 .1 0 .2-.1.3-.1.3-.2.6-.3.8v.1h1.7c0 .3.4.4.6.3l.1-.3c0-.1.1-.2.1-.4l.1-.4c0-.2.1-.5.1-.8.1 0 .1-.1.1-.2z"/><path fill-rule="evenodd" clip-rule="evenodd" fill="#D62A0D" stroke="#9B1C0B" stroke-width=".4" d="M3.3 58.4c0-.6-1-.5-.9.1.1.5.9.5.9-.1zM4.8 58.6c0-.6-1-.5-.9.1 0 .5 1 .5.9-.1zM5.6 59.4c0-.6-1-.5-.9.1 0 .6.9.5.9-.1zM6.1 60.4c0-.6-1-.5-.9.1.1.6 1 .5.9-.1zM6.5 61.5c0-.6-1-.5-.9.1 0 .6.9.5.9-.1zM6.8 62.6c0-.6-1-.5-.9.1 0 .6 1 .5.9-.1zM6.6 63.8c0-.6-1-.5-.9.1 0 .5.9.4.9-.1zM6.3 65v-.1c0-.1 0-.2-.1-.2-.2-.4-.8-.2-.8.3 0 .3.4.4.6.3.2 0 .3-.1.3-.3zM6.3 64.9zM-16.3 64.4c0-.6-1-.5-.9.1.1.5 1 .5.9-.1zM-16.1 63.2c0-.6-1-.5-.9.1 0 .6 1 .5.9-.1zM-15.9 62.1c0-.6-1-.5-.9.1 0 .6.9.5.9-.1zM-15.6 61.4c.4-.4-.3-1.1-.7-.6-.4.4.3 1 .7.6 0-.1-.1.1 0 0zM-14.9 60.1c0-.6-1-.5-.9.1 0 .5 1 .5.9-.1zM-13.4 59.8c0-.6-1-.5-.9.1 0 .6.9.5.9-.1zM-13.3 61.6c0-.6-1-.5-.9.1.1.6.9.5.9-.1zM-13.8 62.6c0-.6-1-.5-.9.1 0 .6.9.5.9-.1zM-14 63.7c0-.6-1-.5-.9.1 0 .6.9.5.9-.1zM-13.8 64.9c0-.4-.4-.5-.7-.4-.2.1-.3.2-.2.4v.1h.9v-.1zM-13.8 64.9zM4.2 64.4c0-.6-1-.5-.9.1.1.6 1 .5.9-.1zM4.5 63.3c0-.6-1-.5-.9.1 0 .6 1 .5.9-.1zM4.4 62.2c0-.6-1-.5-.9.1 0 .6 1 .5.9-.1zM4.1 61.1c0-.6-1-.5-.9.1 0 .6.9.5.9-.1-.1-.1 0 .1 0 0zM3.3 60.2c0-.6-1-.5-.9.1.1.6 1 .5.9-.1z"/><path fill-rule="evenodd" clip-rule="evenodd" fill="#FFE608" d="M-11.3 61.2c.9-.5-.7-1.8-.9-2.2-.3-.7-.1-2.4-1-2.6-1.1-.2-.8 1-1.1 1.5-.3.6-2.4-.3-1.7 1.1.2.4.9.3 1 .6.1.3-.3.6.1.9.8.4.2-1.5 1.2-1 .7.3-.5 2 .6 1.8l.8-.7c.3-.1.3.9 1 .6.1-.1-.2.1 0 0z"/><path clip-rule="evenodd" stroke="#000" stroke-width=".483" d="M-11.3 61.2c.9-.5-.7-1.8-.9-2.2-.3-.7-.1-2.4-1-2.6-1.1-.2-.8 1-1.1 1.5-.3.6-2.4-.3-1.7 1.1.2.4.9.3 1 .6.1.3-.3.6.1.9.8.4.2-1.5 1.2-1 .7.3-.5 2 .6 1.8l.8-.7c.3-.1.3.9 1 .6.1-.1-.2.1 0 0z" fill="none"/><path fill-rule="evenodd" clip-rule="evenodd" fill="#FFE608" d="M.1 59.1c-.6 1.6 1.4-.1 1.3-.1l.9.5c.4 0 .6-.5.4-.8-.3-.2-.7-.3-.4-.7.2-.3.7-.5.9-.1.1.2.2 1 .6.7.4-.3 0-.7 0-.9.1-.3.9-.3.9-.8 0-.4-.2-.9-.7-.7-1.4.7-1-.6-1.7-1.2-1-.9-1.2.8-1.2 1.3 0 1.2-.7 1.7-1 2.8-.1.2 0-.1 0 0z"/><path clip-rule="evenodd" stroke="#000" stroke-width=".483" d="M.1 59.1c.4-1.1 1.1-1.6 1-2.9 0-.6.2-2.3 1.2-1.3.7.6.3 1.9 1.7 1.2.5-.2.7.3.7.7-.1.6-.9.5-.9.8-.1.2.4.6 0 .9-.4.4-.5-.5-.6-.7-.2-.4-.8-.1-.9.2-.2.4.2.6.4.8.2.3 0 .8-.4.8l-.9-.5c.1-.1-1.9 1.6-1.3 0 0-.1-.1.2 0 0z" fill="none"/><g fill-rule="evenodd" clip-rule="evenodd"><path fill="#FFE608" d="M-6.9 61.5c.3-.4.3-.5.1-.7-.1 0-.1-.1-.2-.2 0 0-.1-.1-.2-.1l-.5-.5-.1-.1s-.1 0-.1-.1l-.2-.1-.2-.2-.2.2-.1.1c.2.1.1.2.1.2l-.1.1-.3.4c-.1.1-.2.2-.2.3l-.1.2-.3.5-.1.3-.1.2c-.2.4-.3.7-.3 1 0 .1 0 .2-.1.3-.1.3-.1.6-.1.9v1.2c.2 0 .3-.1.4-.3h1.7c-.1.1-.2.2-.1.4 0 .3.2.4.5.4-.2-.4-.3-.6-.3-.9v-1.2000000000000002c0-.1 0-.2.1-.3.1-.3.2-.6.3-.8l.1-.2c.1-.3.3-.5.5-.8v-.1l.1-.1zM12.9 63.9v-1.2c0-.3-.1-.5-.2-.8l-.1-.3c-.1-.3-.2-.5-.4-.8l-.1-.2c-.1-.3-.3-.5-.5-.8 0-.1-.1-.1-.2-.2-.2-.2-.4-.4-.6-.7 0 0-.1-.1-.2-.1l-.1-.1c-.1-.1-.3-.2-.4-.4l-.3.3-.1.1c-.2.2-.4.4-.6.7-.2.3-.4.5-.4.7.1.1.2.1.2.2l.3.3c.2.2.4.4.6.7.1.1.1.1.1.2.2.2.3.5.4.8l.1.3c.1.3.2.6.2.9v1c0 .1 0 .2-.1.3 0 .1 0 .1-.1.2h2.3c0-.2.1-.5.1-.8.1-.1.1-.2.1-.3z"/><path fill="#D62A0D" stroke="#9B1C0B" stroke-width=".4" d="M9.9 59.1c0-.6-1-.5-.9.1 0 .5.9.5.9-.1zM11.4 59.3c0-.6-1-.5-.9.1 0 .6 1 .5.9-.1zM12.1 60.2c0-.6-1-.5-.9.1.1.5 1 .5.9-.1 0-.1.1.1 0 0zM12.7 61.2c0-.6-1-.5-.9.1 0 .5.9.5.9-.1zM13 62.3c0-.6-1-.5-.9 0 0 .6 1 .6.9 0zM13.3 63.4c0-.6-1-.5-.9.1.1.6 1 .5.9-.1zM13.1 64.5c0-.6-1-.5-.9 0 0 .7.9.6.9 0zM-9.8 64.9c0-.3-.2-.4-.5-.5-.2 0-.5.2-.5.5v.1c.1.2.3.3.5.3s.3-.1.4-.3c.1 0 .1-.1.1-.1zM-9.7 64c.4-.4-.3-1-.7-.6-.4.4.3 1.1.7.6zM-9.4 62.5c0-.6-1-.5-.9.1 0 .6 1 .5.9-.1zM-9 61.5c0-.6-1-.5-.9.1 0 .5 1 .5.9-.1zM-8.3 60.5c0-.6-1-.5-.9.1 0 .6.9.5.9-.1zM-6.9 60.3c0-.6-1-.5-.9 0 0 .7 1 .6.9 0zM-6.8 62.1c0-.6-1-.5-.9.1.1.5 1 .5.9-.1 0-.2.1.1 0 0zM-7.3 63.1c0-.6-1-.5-.9 0 0 .6 1 .6.9 0zM-7.5 64.2c0-.6-1-.5-.9.1.1.6.9.5.9-.1zM-7.3 65.3c0-.1-.1-.2-.2-.3-.1-.1-.3-.1-.5-.1 0 0-.1 0-.1.1-.1.1-.2.2-.1.4 0 .3.2.4.5.4.2 0 .4-.2.4-.5zM10.7 65c0-.1-.1-.1-.2-.2-.2-.1-.6-.1-.7.2h.9zM11 64c0-.6-1-.5-.9 0 0 .7 1 .6.9 0zM11 62.9c0-.6-1-.5-.9.1 0 .6.9.5.9-.1-.1-.1 0 .1 0 0zM10.6 61.8c0-.6-1-.5-.9.1 0 .6 1 .5.9-.1zM9.8 61.3c.4-.4-.3-1.1-.7-.6-.4.4.3 1 .7.6z"/></g><path fill-rule="evenodd" clip-rule="evenodd" fill="#FFE608" d="M-5.3 61.6c.3.2.7.2.8-.2.2-.4-.3-.8-.5-1-.9-.9-.7-1.9-1-3-.3-.9-1.4-.5-1.6.2 0 .3 0 .8-.3.9-.4.2-1.2-.2-1.5.1-.8.9 1 1.3.9 1.5-.2.3 0 .8.4.8.6 0 .1-1 .7-1.1 1.3-.1 0 1.3.4 1.7.2.3.6.2.8-.1.4-.6.4-.1.9.2.2.1-.1 0 0 0z"/><path clip-rule="evenodd" stroke="#000" stroke-width=".483" d="M-5.3 61.6c.3.2.7.2.8-.2.2-.4-.3-.8-.5-1-.9-.9-.7-1.9-1-3-.3-.9-1.4-.5-1.6.2 0 .3 0 .8-.3.9-.4.2-1.2-.2-1.5.1-.8.9 1 1.3.9 1.5-.2.3 0 .8.4.8.6 0 .1-1 .7-1.1 1.3-.1 0 1.3.4 1.7.2.3.6.2.8-.1.4-.6.4-.1.9.2.2.1-.1 0 0 0z" fill="none"/><path fill-rule="evenodd" clip-rule="evenodd" fill="#FFE608" d="M10.2 59.3c.4 0 .5-.6.3-.8-.2-.2.6-.5.7-.6 1.2-1.3-1.5-.9-1.7-1-.4-.5-.3-1.8-1.3-1.4-.8.3-.4 1.7-.5 2.3-.1.7-1.4 2.1-.8 2.6.7.7.8-1.3 1.6-.3.2.2.6.3.8 0 .3-.5-.1-.6-.3-1-.2-.3.1-.8.5-.8.5 0 .1 1.1.7 1z"/><path clip-rule="evenodd" stroke="#000" stroke-width=".483" d="M10.2 59.3c-.5 0-.3-.7-.5-.9-.4-.3-.8.2-.8.6l.5.7c0 .4-.3.7-.7.5-.4-.1-.7-.8-1-.2-.1.3-.4.6-.7.5-1-.3.4-1.8.6-2.3.2-.7-.2-2.1.4-2.6.8-.7 1.2.4 1.4 1 .3 1.1 2.1-.5 2 1-.1.6-.8.4-1 .8-.1.1.4.9-.2.9z" fill="none"/><g clip-rule="evenodd"><g fill-rule="evenodd"><path fill="#FFE608" d="M-1.2 65.5v-4.1h-2.8v4.1c.3 0 .5-.2.5-.5h1.8c0 .3.2.5.5.5z"/><path fill="#D62A0D" stroke="#9B1C0B" stroke-width=".4" d="M-.7 62.4c0-.7-1.1-.7-1.1 0 .1.7 1.1.7 1.1 0zM-.7 63.7c0-.7-1.1-.7-1.1 0 .1.7 1.1.7 1.1 0zM-.7 65c0-.4-.3-.5-.6-.5s-.5.2-.5.5.3.5.5.5c.4 0 .6-.1.6-.5zM-3.5 65c0-.4-.3-.5-.5-.5-.3 0-.5.2-.5.5 0 .4.3.5.5.5.2.1.5-.1.5-.5zM-3.5 63.8c0-.7-1.1-.7-1.1 0s1.1.7 1.1 0zM-3.5 62.5c0-.7-1.1-.7-1.1 0s1.1.7 1.1 0zM-1.9 61.4c0-.7-1.1-.7-1.1 0 0 .8 1.1.7 1.1 0z"/></g><path fill-rule="evenodd" fill="#FFE608" d="M-5 61.4c.3.1.8-.3.8.2 0 .3.2.7.6.7.9-.2.3-2.1 1.5-1.4.5.2 0 1.9 1.2 1.3.4-.2.1-.8.7-.8.4.1 1.5-.4.7-.9-.6-.4-2.1-.4-2.1-1.3 0-.4.3-1-.1-1.3-.4-.2-1.3-.3-1.6.1-.6.8.4 1.6-.9 2-.4.1-.9.2-1.3.4-.3.3 0 .9.5 1 .1.1-.2 0 0 0z"/><path stroke="#000" stroke-width=".483" d="M-5 61.4c.3.1.8-.3.8.2 0 .3.2.7.6.7.9-.2.3-2.1 1.5-1.4.5.2 0 1.9 1.2 1.3.4-.2.1-.8.7-.8.4.1 1.5-.4.7-.9-.6-.4-2.1-.4-2.1-1.3 0-.4.3-1-.1-1.3-.4-.2-1.3-.3-1.6.1-.6.8.4 1.6-.9 2-.4.1-.9.2-1.3.4-.3.3 0 .9.5 1 .1.1-.2 0 0 0z" fill="none"/></g><path fill-rule="evenodd" clip-rule="evenodd" fill="#FFE608" stroke="#000" stroke-width=".5" d="M-7.4 53c-1.2-.1-3.2 0-4.2-1 0 2.2-2.3 3.6-3.4 5.3 8.7 2.1 18 2.1 26.7 0-1.1-1.6-3-3.7-3-5.7-.6.6-1.7.8-2.5.9-1.8.3-3.5.5-5.2.5-2.8.1-5.7.2-8.4 0-2.3-.1.7.1 0 0z"/><g clip-rule="evenodd"><path fill-rule="evenodd" fill="#FFE608" d="M7.6 55c.3-.1 2.1-.4 1.9-.9l-.7-1.7c-.6.3-1.3.6-2 .7.2.5.4 1.8.8 1.9z"/><path stroke="#B3A106" stroke-width=".724" d="M7.6 55c-.4-.1-.6-1.4-.8-1.8.7-.2 1.3-.4 2-.7l.7 1.5c.3.5-1.6.9-1.9 1z" fill="none"/><path fill-rule="evenodd" fill="#FFE608" d="M-9.3 55.6c1 .4.7-1.2.8-1.9-.6-.1-1.5-.5-1.8.1l-.7 1.5c.5.1 1.1.2 1.7.3z"/><path stroke="#B3A106" stroke-width=".724" d="M-9.3 55.6l-1.8-.3.6-1.2c.4-.8 1-.4 1.9-.3 0 .5.3 2.2-.7 1.8z" fill="none"/><path fill-rule="evenodd" fill="#FFE608" d="M.1 53.7c-.1 0-2.2 0-2.2.1 0 .6 0 1.3.1 1.9l4.1-.1-.3-1.3c-.2-.9-.9-.6-1.7-.6z"/><path stroke="#B3A106" stroke-width=".724" d="M.1 53.7c.6 0 1.5-.3 1.6.3.1.5.2 1 .4 1.6l-4.1.1c0-.6 0-1.3-.1-1.9 0-.1 2.1-.1 2.2-.1z" fill="none"/><path fill-rule="evenodd" fill="#FFE608" d="M5.6 53.4c-.9.1-1.8.2-2.8.3.1.6.3 1.2.4 1.7.1.4 2.6-.1 3.1-.2l-.7-1.8z"/><path stroke="#B3A106" stroke-width=".724" d="M5.6 53.4l.7 1.8c-.5.1-3 .6-3.1.2-.1-.6-.3-1.2-.4-1.7 1-.2 1.9-.2 2.8-.3z" fill="none"/><path fill-rule="evenodd" fill="#FFE608" d="M-12.7 54.5l.4.3c.2-.5 1.3-1.8.5-2-.3.6-.6 1.2-.9 1.7z"/><path stroke="#B3A106" stroke-width=".724" d="M-12.7 54.5l.9-1.7c.8.2-.2 1.5-.5 2-.1-.1-.2-.2-.4-.3z" fill="none"/><path fill-rule="evenodd" fill="#FFE608" d="M-4.8 55.8h1.5v-1.6c0-.7-1.4-.4-1.9-.4-.6 0-2-.4-2.1.3-.1.5-.1 1-.2 1.6.9.1 1.8.1 2.7.1z"/><path stroke="#B3A106" stroke-width=".724" d="M-4.8 55.8c-.9 0-1.8 0-2.8-.1.1-.5.1-1 .2-1.6.1-.7 1.5-.3 2.1-.3.6 0 1.9-.3 1.9.4v1.6h-1.4z" fill="none"/><path fill-rule="evenodd" fill="#FFE608" d="M-11.1 55.3c-.9-.2-1-.7-1.4.2-.3.7-.7 1.4-1 2 .8.4 1 .8 1.4 0 .3-.8.6-1.5 1-2.2z"/><path stroke="#B3A106" stroke-width=".724" d="M-11.1 55.3l-1.1 2.2c-.4.8-.6.4-1.4 0l.9-1.8c.6-1.1.5-.7 1.6-.4z" fill="none"/><path fill-rule="evenodd" fill="#f00" d="M-12.2 54.8c.5.3 1 .6 1.3.1l.7-1.5c-.4-.1-.8-.2-1.1-.4-.3.7-.6 1.2-.9 1.8z"/><path stroke="#8F0014" stroke-width=".483" d="M-12.2 54.8l.9-1.8c.4.2.7.3 1.1.4l-.6 1.2c-.4.8-.7.6-1.4.2z" fill="none"/><path fill-rule="evenodd" fill="#FFE608" d="M-8 59.9l.4-4.2c-.8 0-1.2-.4-1.3.4l-.2 2c-.1.5-.1 1-.2 1.6.1.1 1.1.1 1.3.2z"/><path stroke="#B3A106" stroke-width=".724" d="M-8 59.9c-.1 0-1.2-.1-1.2-.2l.1-1.4.2-2c.1-1 .3-.7 1.3-.6-.1 1.4-.2 2.8-.4 4.2z" fill="none"/><path fill-rule="evenodd" fill="#f00" d="M-8.7 55.6c.8.1 1.2.3 1.3-.5l.1-1.3c-.3 0-1.2-.3-1.2.1-.1.6-.2 1.1-.2 1.7z"/><path stroke="#8F0014" stroke-width=".483" d="M-8.7 55.6l.2-1.8c0-.3.9-.1 1.2-.1l-.1 1.3c-.1 1-.5.7-1.3.6z" fill="none"/><path fill-rule="evenodd" fill="#FFE608" d="M4.3 59.9l-.7-3-.3-1.4c0-.1-1.1.1-1.2.1l1 4.5c.4 0 .8-.1 1.2-.2z"/><path stroke="#B3A106" stroke-width=".724" d="M4.3 59.9l-1.2.3-1-4.5c1.3-.1 1.2-.2 1.5 1 .2 1.1.4 2.1.7 3.2z" fill="none"/><path fill-rule="evenodd" fill="#f00" d="M2.1 55.6l1.2-.1-.3-1.3c-.2-.8-.5-.5-1.4-.5.2.7.3 1.3.5 1.9z"/><path stroke="#8F0014" stroke-width=".483" d="M2.1 55.6l-.4-1.9c.8 0 1.2-.3 1.4.5l.3 1.3c-.5.1-.9.1-1.3.1z" fill="none"/><path fill-rule="evenodd" fill="#FFE608" d="M-1.9 58.9l-.1-3.1c-.2 0-1.1-.1-1.2.1-.1.1 0 1.2 0 1.4 0 .6 0 1.1.1 1.7 0-.1 1-.1 1.2-.1z"/><path stroke="#B3A106" stroke-width=".724" d="M-1.9 58.9c-.2 0-1 .2-1.2 0-.1-.1 0-1.2 0-1.4 0-.6 0-1.1-.1-1.7 0-.1 1.1-.1 1.2-.1 0 1.1 0 2.1.1 3.2z" fill="none"/><path fill-rule="evenodd" fill="#f00" d="M-3.2 55.8c.3 0 1.2.1 1.2-.2 0-.6 0-1.2-.1-1.8-.3 0-1.2-.1-1.2.2 0 .6 0 1.2.1 1.8z"/><path stroke="#8F0014" stroke-width=".483" d="M-3.2 55.8c0-.6 0-1.2-.1-1.8 0-.4.9-.2 1.2-.2 0 .6 0 1.2.1 1.8 0 .3-.9.2-1.2.2z" fill="none"/><path fill-rule="evenodd" fill="#FFE608" d="M8.6 57.9l-.9-2.3c-.3-.8-.5-.5-1.4-.4.3.8.6 1.5.8 2.3.4 1 .5.7 1.5.4z"/><path stroke="#B3A106" stroke-width=".724" d="M8.6 57.9c-.8.3-1 .7-1.4-.2l-.9-2.5c.9-.2 1.1-.5 1.4.4.3.7.6 1.5.9 2.3z" fill="none"/><path fill-rule="evenodd" fill="#f00" d="M6.3 55.2c.4-.1.8-.2 1.2-.2-.2-.4-.3-.8-.5-1.3-.3-.8-.6-.5-1.4-.3l.7 1.8z"/><path stroke="#8F0014" stroke-width=".483" d="M6.3 55.2l-.7-1.8c.8-.1 1.1-.5 1.4.3.2.4.3.8.5 1.3l-1.2.2z" fill="none"/></g><g clip-rule="evenodd"><path fill-rule="evenodd" fill="#FFE608" d="M-14.2 56.7c1-1.2-2.1-1.6-1.8-.1-.3-.1-.7 0-1 .2-.1-.8-1.1-.8-1.6-.5-1.2.7.2 1.7 1.1 1.2 0 1.1 2.2.8 2-.3.5.1 1-.1 1.3-.5.1-.2-.2.2 0 0z"/><path stroke="#000" stroke-width=".483" d="M-14.2 56.7c-.3.4-.8.5-1.3.4.2 1.1-2 1.5-2 .3-.6.4-2.1 0-1.4-.9.4-.6 1.8-.7 1.9.2.3-.2.6-.2 1-.2-.4-1.4 2.8-1 1.8.2-.2.2.1-.2 0 0z" fill="none"/><path fill-rule="evenodd" fill="#FFE608" d="M10.8 56.9c-.4 1 1.5 1.7 1.9.8.4.5 1.9.7 1.8-.3-.1-.8-1.6-1.3-1.9-.5-.2-.2-.6-.4-.9-.4.5-.8-.7-1.5-1.4-1.3-.5.1-.6.6-.4 1 .2.4 1 .5.9.7-.1.2 0-.1 0 0z"/><path stroke="#000" stroke-width=".483" d="M10.8 56.9c.1-.2-.7-.4-.9-.7-.3-.4-.1-.9.4-1 .7-.2 1.9.5 1.4 1.3.3 0 .7.2.9.4.4-.8 1.8-.3 1.9.5.1 1-1.4.8-1.8.3-.4.9-2.3.2-1.9-.8 0-.1-.1.2 0 0z" fill="none"/><path fill-rule="evenodd" fill="#FFE608" d="M-9.4 58.4c-.2 1.3 1.9 1.6 2 .3.2-1.4-1.8-1.6-2-.3z"/><path stroke="#000" stroke-width=".483" d="M-9.4 58.4c-.2 1.3 1.9 1.6 2 .3.2-1.4-1.8-1.6-2-.3z" fill="none"/><path fill-rule="evenodd" fill="#FFE608" d="M-9 59c-.8-1.1-2.4.2-1.7 1.2.9 1.1 2.5-.2 1.7-1.2-.1-.3.2.2 0 0z"/><path stroke="#000" stroke-width=".483" d="M-9 59c-.8-1.1-2.4.2-1.7 1.2.9 1.1 2.5-.2 1.7-1.2-.1-.3.2.2 0 0z" fill="none"/><path fill-rule="evenodd" fill="#FFE608" d="M-7.5 61c1.3.2 1.6-1.9.3-2.1-1.3-.2-1.6 1.9-.3 2.1.3 0-.2-.1 0 0z"/><path stroke="#000" stroke-width=".483" d="M-7.5 61c1.3.2 1.6-1.9.3-2.1-1.3-.2-1.6 1.9-.3 2.1.3 0-.2-.1 0 0z" fill="none"/><path fill-rule="evenodd" fill="#FFE608" d="M-7.7 61.1c.2-1.3-1.9-1.6-2.1-.3-.1 1.4 1.9 1.7 2.1.3z"/><path stroke="#000" stroke-width=".483" d="M-7.7 61.1c.2-1.3-1.9-1.6-2.1-.3-.1 1.4 1.9 1.7 2.1.3z" fill="none"/><g fill-rule="evenodd"><path fill="#fff" d="M-9.4 58.7c-1 .8.2 2.4 1.2 1.7 1.1-.9-.1-2.5-1.2-1.7z"/><path fill="#FF0024" d="M-7.8 59.7v.2s0 .1-.1.1c0 .1-.1.1-.2.2l-.1.1h-.8s-.1 0-.1-.1c-.1 0-.2-.1-.2-.2-.2-.2-.3-.4-.3-.8v-.1c0-.1 0-.1.1-.2 0-.1 0-.1.1-.2 0 0 0-.1.1-.1l.1-.1.3-.1h.6c.2.1.4.2.5.4l.1.3v.2l-.1.4zm-1-.5c-.1 0-.2 0-.2.1-.1.1 0 .3.1.5h.1c.1 0 .1-.2.1-.3.2-.1 0-.2-.1-.3z"/></g><path fill-rule="evenodd" fill="#FFE608" d="M2.3 58.6c.1 1.3 2.2 1.1 2.1-.2-.1-1.3-2.2-1.1-2.1.2.1.3 0-.3 0 0z"/><path stroke="#000" stroke-width=".483" d="M2.3 58.6c.1 1.3 2.2 1.1 2.1-.2-.1-1.3-2.2-1.1-2.1.2.1.3 0-.3 0 0z" fill="none"/><path fill-rule="evenodd" fill="#FFE608" d="M2.3 60.9c1.3-.2 1.2-2.2-.2-2.1-1.3.1-1.1 2.2.2 2.1.3-.1-.3 0 0 0z"/><path stroke="#000" stroke-width=".483" d="M2.3 60.9c1.3-.2 1.2-2.2-.2-2.1-1.3.1-1.1 2.2.2 2.1.3-.1-.3 0 0 0z" fill="none"/><path fill-rule="evenodd" fill="#FFE608" d="M4.8 60.7c1.3-.1 1.1-2.2-.2-2.1-1.3.1-1.1 2.2.2 2.1.3-.1-.3 0 0 0z"/><path stroke="#000" stroke-width=".483" d="M4.8 60.7c1.3-.1 1.1-2.2-.2-2.1-1.3.1-1.1 2.2.2 2.1.3-.1-.3 0 0 0z" fill="none"/><path fill-rule="evenodd" fill="#FFE608" d="M4.4 61.6c.8-1-.7-2.3-1.6-1.3-.9 1 .7 2.4 1.6 1.3.2-.2-.2.3 0 0z"/><path stroke="#000" stroke-width=".483" d="M4.4 61.6c.8-1-.7-2.3-1.6-1.3-.9 1 .7 2.4 1.6 1.3.2-.2-.2.3 0 0z" fill="none"/><g fill-rule="evenodd"><path fill="#fff" d="M2.7 59.6c.1 1.3 2.2 1.2 2.1-.2-.2-1.3-2.3-1.1-2.1.2 0 .3-.1-.3 0 0z"/><path fill="#FF0024" d="M4.6 60.1c-.1.1-.1.2-.2.2l-.1.1c-.1.1-.2.1-.2.1-.1.1-.3.1-.4.1s-.3 0-.4-.1c0 0-.1 0-.1-.1 0 0-.1 0-.1-.1l-.1-.1c0-.1-.1-.2-.1-.2v-.5c0-.1 0-.2.1-.3l.1-.1.1-.1.2-.1h.7c.1 0 .1 0 .2.1h.1l.1.1.1.1.1.1.1.3v.3c-.1-.1-.2 0-.2.2zm-.9-.3c.2-.1.3-.3.2-.5 0 0-.1-.1-.2-.1h-.1c-.2 0-.3.1-.3.3.1.1.2.3.4.3z"/></g></g><path fill-rule="evenodd" clip-rule="evenodd" fill="#16A3D9" stroke="#077EB3" stroke-width=".5" d="M-25 13.2l-.1-.3-.1-.3c-.1-.3-.2-.6-.2-.9l-.1-.6c0-.4-.1-.8-.1-1.1v-.2c0-.2-.1-.5-.1-.8v-.6c-.2-1.6-.4-3.2-.7-4.8-.2-.9-.3-1.8-.6-2.5-.1-.4-.3-.7-.5-1h-9c-.1.3-.1.6-.1.9v.8c.1.7.2 1.5.4 2.2.1.3.1.6.2.8.2 1.5.7 2.7 1.4 3.9.3.6.8 1.2 1.3 1.7.3.3 1.1 1.2 2.1 2.3.6.6 1.2 1.2 1.9 1.8h.1c.6.5 1.1 1 1.7 1.3l.7.5.3.2c.2.1.4.2.5.2.2 0 .3.1.4.1.1 0 .3 0 .4-.1 0 0 .1 0 .1-.1.2-.1.3-.3.4-.7v-.30000000000000004c.3-.7 0-1.6-.3-2.4z"/><path fill-rule="evenodd" clip-rule="evenodd" fill="#E8E853" d="M-9.2 11.4c0-.1-.1-.1-.2-.2.4-.5-.2-.8-.1-1.2v-.2c0-.2-.1-.4-.2-.5-.3-.5-.2-.3-.2-.5 0 0 0-.1-.1-.2 0 0 0-.1-.1-.1l-.1-.1-.7-.9-.1-.1v-.1c0-.2-.1-.4-.2-.5l-.1-.1c-.1-.1-.2-.1-.3-.1.1-.3 0-.5-.2-.7l-.2-.3c-.2-.4-.3-.8-.8-.9v-.1c0-.5-.7-.6-.7-.8 0-.1 0-.2-.1-.2v-.1c-.1-.2-.2-.3-.4-.4-.4-.2-.2-.3-.5-.6 0 0-.5-.2-.5-.3 0-.3-.2-.6-.4-.7-.4-.2-.3-.8-.9-.9v-.3h-8.6s.1.3.1.4c0 .3.2.6.4.7-.1.3-.1.6.2.9.3.3.6.7.9 1.1.3.4.5.9.7 1.2.1.1.2.3.3.3l.1.1h.1v.4c0 .1.1.2.2.2 0 0 .1.1.2.1s.2.1.2.2v.2c0 .1.1.2.2.3 0 0 .1.1.2.1l.3.2c.2.2.2.5.5.6h.2c0 .6.6.7.8 1.1.1.3.4.5.6.5 0 .3.2.7.5.8-.1.3.1.7.4.8l.2.1v.4s0 .1.1.2l.1.1s.1.1.2.1c-.5 0-.2.2-.7 0-.2-.1-.5 0-.7.1l-.1-.1-.1-.1-.1-.1c-.2-.1-.5-.1-.7.1l-.3-.3h-.1c-.2 0-.4 0-.6.1-.1-.1-.2-.2-.3-.2h-.30000000000000004c-.2.2-.4.2-.5 0l-.1-.1c-.1-.1-.3-.1-.4-.1-.3 0-.5-.3-.8-.5h-.4c-.1-.4-.6-.6-1-.5 0 0 0-.1-.1-.1-.2-.3-.5-.3-.7-.4-.1 0-.2-.1-.3-.2-.1-.1-.3-.2-.4-.2-.2-.1-.3-.1-.5-.3-.2-.1-.3-.2-.5-.2-.3 0-.3-.4-.6-.5-.1-.1-.3-.1-.4 0-.1-.5-.2-.7-.5-.8-.1-.1-.3-.1-.4 0-.1-.3-.4-.6-.8-.6-.3 0-.4-.6-.9-.6-.3 0-.4-.7-1-.6-.1-.4-.5-.7-.9-.6 0-.3-.2-.5-.5-.6h-.1c-.1 0-.2-.1-.2 0l-.3-.3c-.2-.2-.3-.2-.5-.2-.2.1-.3-.1-.3-.4-.2-.1-.3-.2-.6-.2s-.3-.4-.6-.5l-.5-.7c-.2-.1-.3-.2-.5-.2-.1-.1-.2-.3-.2-.4-.4-.4-1.1-.6-1.4-1h-1.9v9.4c.3.1 1 .7 1.2.9.2.2.4.3.7.2.1.4.4.6.8.6s1.1.9 1.5 1.1c.7.3.1-.2.7.4.2.2.4.3.7.2.1.3.3.5.5.6h.2c.3 0 .3.4.6.5.6.3.1-.2.6.4.2.2.5.3.8.2.1.3.4.5.7.5.2 0 .4.1.5.2.1.1.2.1.4.1.3 0 1.2.4 1.4.6.2.2.5.2.8.2.1.3.4.5.7.5.3 0 1.2.4 1.4.6.1.1.3.2.5.2h.3c.2.4.6.6 1 .4.1.3.4.5.7.5.7 0 .2 0 .7.2.2.1.4 0 .5 0h.1s.1 0 .1.1l.3.2c.2.1.5.1.7-.1.4.5 1 .1 1.1.2.2.2.5.3.8.2.3-.1.3 0 .5.1l.3.1c.2 0 .4-.1.6-.2.2.1.3.2.5.2s.4-.1.6-.3c.2.1.4.2.6.1.1 0 .1 0 .2-.1.3-.1.3-.2.3-.2h.4c.3 0 .6-.2.7-.5h.3c.2 0 .3-.1.4-.2l.1-.1c.3-.2.5-.1.8-.4l.3-.3s.1 0 .3-.1c.3-.1.5-.4.5-.7 0-.2.7-.3.7-.9.8-.1.5-.9.8-1.2.2-.2.3-.6.1-.9.2-.1.3-.3.3-.4.1-.2.1-.4-.1-.6.1 0 .1-.1.2-.2.6-.4.6-.7.4-1z"/><path d="M-16.3 11.1c-.1.1-.2.1-.3.1-.5.1-.8-.7-.3-.9-.6.1-1.1-.6-.5-1-.2.1-.3.2-.4.1h-.1c-.3-.2-.4-.6-.2-.9-.5.5-1.2-.4-.7-.8-.5.3-1.2-.3-.7-.8-.5.3-1.2-.3-.7-.8-.5.3-1.2-.4-.7-.8-.2.1-.6 0-.8-.2-.1-.1-.1-.2-.1-.3 0-.1.1-.2.2-.2h-.2c-.3 0-.4-.2-.5-.4v-.2c0-.1 0-.2.1-.3h-.1c-.3.1-.5-.1-.5-.4v-.5c-.6.3-.9-.5-.6-.9-.6.2-1-.5-.5-.9-.7-.1-.4-.5-.5-.9h-.8c.1.5.4 1 .5 1.1l.1.7.6.9c.2.4.5.5.6.9l.6.9c.1.3.3.5.6.8l.7.9.1.2c.1.2.3.3.5.3 0 .3.2.6.5.7.2.1.3.2.4.4.3.3.5.7.7 1l.1.1c.2-.1.2 0 .2 0 .3.2.7.6.7.8 0 .1 0 .2.1.4.2.4.5.9.6 1.1-.3-.2-.6-.2-.8-.2-.1 0-.2 0-.3-.1l-1-.2c-.1 0-.2 0-.2-.1-.2 0-.3 0-.5.1-.2-.1-.3-.2-.5-.2h-.5s-.1-.1-.3-.2c-.3-.1-.8-.2-1.1-.4-.2-.1-.3-.2-.4-.3-.1-.1-.5-.3-.8-.5-.4-.2-.8-.3-.9-.3-.1-.1-.4-.4-.7-.6-.4-.2-.8-.5-1-.5-.3-.7-1.5-.9-2-1.4-.2-.2-.4-.3-.7-.3-.1-.2-.3-.4-.5-.5l-.9-.6c-.4-.2-.7-.7-1.2-.7-.1-.3-.4-.5-.7-.6h-.2c-.2-.5-.8-.6-1.1-.9l-.9-.6c-.4-.4-1.2-.6-1.5-1.1l-.1-.2c-.2-.2-.4-.3-.6-.3-.1-.2-.2-.5-.5-.6h-.9c.1.1.1.3 0 .5.5-.3 1.3.3.7.8.4-.4 1.5 0 .8.7.1-.1.3-.2.4-.2.4 0 .7.4.5.8.4-.6 1.1.1.8.6.4-.6 1.2 0 .9.6.4-.7 1.2 0 .9.6.1-.3.3-.3.5-.3.3.1.6.5.4.9.4-.7 1.2 0 .9.6.4-.6 1.2 0 .9.6.3-.6 1.3 0 .9.6.4-.5 1.2 0 .9.6.4-.6 1.1 0 .9.6.4-.6 1.1 0 .9.6.4-.7 1.1 0 .9.6.1-.3.4-.3.6-.2.2.1.4.4.2.7.1-.2.3-.3.4-.3.3 0 .5.2.6.5v.3c.2-.8 1.4-.2.9.5.1-.2.4-.3.7-.3.3 0 .6.3.3.7.2-.3.8-.4 1-.1.1.1.1.3 0 .5.1-.3.4-.4.6-.4l.3.1c.1.1.2.3 0 .6h.1c0-.3.1-.4.2-.5.2-.1.5-.1.6.1.2.1.3.3.2.5 0 0 0 .1-.1.1h.1c-.1-.9.7-.6 1-.1l.1.3c0-.5.4-.6.7-.5.2.1.3.2.4.5v-.2c.1-.3.4-.5.7-.4 0 0 .1 0 .1.1 0-.1 0-.2.1-.3-.1-.1 0-.2.1-.3zM-8.8 11.6c0-.2-.1-.3-.2-.5 0-.1 0-.1.1-.2 0-.2 0-.4-.1-.5 0-.1-.1-.2-.2-.3l.1-.3c0-.5-.4-.9-.6-1.3v-.1c-.1-.2-.3-.7-.6-1v-.1l-.4-.3c0-.3-.1-.5-.3-.8 0 0 0-.1-.1-.1l-.3-.5c-.1-.2-.2-.4-.4-.7-.2-.4-.5-.7-.8-.8v-.1c-.1-.3-.2-.5-.5-.6-.2-.1-.3-.2-.3-.4l-.1-.2-.7-.8-.5-.6-.6-.8c-.1-.3-.3-.4-.5-.6h-.6c.1.2.1.5-.2.6.5-.3 1.3.4.7.8.5-.3 1.2.3.7.8.3-.2.6-.1.7.1.1.2.2.5 0 .7.3-.3.8-.1.8.3v.1c0 .1 0 .2-.1.2l-.1.1.2-.1c.3 0 .6.2.6.4 0 .1 0 .3-.1.5.5-.4 1.1.3.6.8 0 0 .1.1.3.1l.3.1c.3.3 0 .5.1.8.1.3.3.2.4.2h.1s.1.1.1.2v.1c0 .6 1.3 1.7.9 2.3h.3c.2 0 .3.1.3.2.1.2 0 .6-.3.8h.1c.5 0 .5.5.3.8 0 .1-.1.2-.2.2.5 0 .6.5.4.8 0 .1-.1.1-.2.2l-.3.1c.6.5-.1.7-.2 1.1.3.2.2.5.1.7-.1.1-.3.2-.5.3.1.1.2.2.2.4 0 .3-.3.8-.8.5 0 .4 0 .8-.4.9h-.3c.2.3.1.5 0 .7-.2.2-.5.2-.8.1.3.8-.8.6-.9.7 0 .1 0 .2-.1.3-.1.1-.2.2-.4.2s-.4 0-.5-.1c.1.4-.3.6-.5.6s-.3-.1-.4-.3c0 .3-.4.5-.6.5-.2 0-.3-.1-.4-.4-.3.1-.7 1-1.1.1 0 .3-.2.5-.5.5-.1 0-.2 0-.3-.1-.1-.1-.2-.2-.2-.4-.2.6-1 .5-1.1-.1-.1.8-1 .3-1-.2-.1.5-.5.5-.8.2l-.1-.1s0-.1-.1-.1c0-.1-.1-.2-.1-.2-.2.8-1 .2-1-.3-.2.6-1 .3-1-.2v-.1c-.1.1-.3.2-.5.2-.6 0-.2-.4-.5-.6-.2-.1-.3.1-.5.1-.5 0-.3-.3-.4-.4l-.1-.1c-.1-.1-.2 0-.3 0-.1.1-.2.1-.4-.1l-.1-.1c-.1-.1 0-.2-.2-.3l-.1.1c-.4.2-.5-.3-.7-.5h-.1c-.3.3-.8 0-.8-.4h-.5c-.6 0-.2-.3-.6-.5-.1-.1-.3 0-.4.1h-.30000000000000004l-.2-.5c-.1-.1-.3.1-.5.1-.4 0-.5-.4-.5-.7-.4.7-1.1 0-.9-.5-.4.6-1 0-.9-.5-.2.3-.6.2-.8-.1-.1-.1-.1-.2-.1-.3v-.1c-.3.2-.9.1-.9-.4 0 0-.1 0-.1-.1h-.3c-.5 0-.3-.6-.5-.6-.3-.2-.4.3-.8-.1l-.2-.6c-.4.3-.9 0-.8-.5 0 0-1 0-.9-.7-.4.5-1-.2-.9-.6-.1.2-.2.2-.4.2v.6c.2.3.5.5.8.5.2.3.5.6.9.6.2.5.8.5 1.1.9l.9.6 1.8 1.2.6.4c.1 0 .2.1.2.2.2.2.5.3.7.3.2.4 1.1.7 1.5.9.2.1.5.2.8.2h.1c.3.1.6.2.8.4.2.2 1.4.7 1.7.7.2 0 1.1.4 1.3.6.2.2 1.3.7 1.6.7.5 0 1.1.6 1.6.8.3.1.9.3 1.3.3h.4c.1.1.3.2.5.3h.3l1 .2 1.1.1.8.1h.3l1.2-.1.9-.1c.2 0 .3 0 .4-.1l.6-.1c.4 0 .7-.2.9-.5h.2c.2 0 .5-.2.7-.3.2-.1.3-.2.5-.2l.9-.6c.3-.1.5-.4.6-.8.5-.2.8-.7 1.1-1.1.2-.2.7-1.4.7-1.7 0-.2 0-.5.1-.7l.2-.6.1-.3v-.7000000000000001zM-16.6 11.4v-.2c.1 0 .2 0 .3-.1l-.3.3zM-13.8 3.9l.1-.1.1.1c-.1-.1-.2-.1-.2 0zM-13.8 3.9l.1-.1.1.1c-.1-.1-.2-.1-.2 0zM-16.6 11.4v-.2c.1 0 .2 0 .3-.1l-.3.3zM-13.8 3.9l.1-.1.1.1c-.1-.1-.2-.1-.2 0zM-16.6 11.4v-.2c.1 0 .2 0 .3-.1l-.3.3zM-13.8 3.9l.1-.1.1.1c-.1-.1-.2-.1-.2 0zM-16.6 11.4v-.2c.1 0 .2 0 .3-.1l-.3.3zM-13.8 3.9l.1-.1.1.1c-.1-.1-.2-.1-.2 0zM-16.6 11.4v-.2c.1 0 .2 0 .3-.1l-.3.3zM-13.8 3.9l.1-.1.1.1c-.1-.1-.2-.1-.2 0zM-16.6 11.4v-.2c.1 0 .2 0 .3-.1l-.3.3zM-13.8 3.9l.1-.1.1.1c-.1-.1-.2-.1-.2 0zM-16.6 11.4v-.2c.1 0 .2 0 .3-.1l-.3.3zM-13.8 3.9l.1-.1.1.1c-.1-.1-.2-.1-.2 0zM-16.6 11.4v-.2c.1 0 .2 0 .3-.1l-.3.3zM-13.8 3.9l.1-.1.1.1c-.1-.1-.2-.1-.2 0zM-16.6 11.4v-.2c.1 0 .2 0 .3-.1l-.3.3zM-13.8 3.9l.1-.1.1.1c-.1-.1-.2-.1-.2 0zM-16.6 11.4v-.2c.1 0 .2 0 .3-.1l-.3.3zM-13.8 3.9l.1-.1.1.1c-.1-.1-.2-.1-.2 0zM-16.6 11.4v-.2c.1 0 .2 0 .3-.1l-.3.3zM-13.8 3.9l.1-.1.1.1c-.1-.1-.2-.1-.2 0zM-16.6 11.4v-.2c.1 0 .2 0 .3-.1l-.3.3zM-13.8 3.9l.1-.1.1.1c-.1-.1-.2-.1-.2 0zM-16.6 11.4v-.2c.1 0 .2 0 .3-.1l-.3.3zM-13.7 3.7l.1.1c-.1 0-.1 0-.2.1l.1-.2zM-16.6 11.2c.1 0 .2 0 .3-.1-.1.1-.2.2-.2.3-.1 0-.1-.1-.1-.2zM-16.6 11.4v-.2c.1 0 .2 0 .3-.1l-.3.3zM-13.8 3.9l.1-.1.1.1c-.1-.1-.2-.1-.2 0zM-16.6 11.4v-.2c.1 0 .2 0 .3-.1l-.3.3zM-13.8 3.9l.1-.1.1.1c-.1-.1-.2-.1-.2 0zM-16.6 11.4v-.2c.1 0 .2 0 .3-.1l-.3.3zM-13.8 3.9l.1-.1.1.1c-.1-.1-.2-.1-.2 0zM-16.6 11.4v-.2c.1 0 .2 0 .3-.1l-.3.3zM-13.8 3.9l.1-.1.1.1c-.1-.1-.2-.1-.2 0zM-16.6 11.4v-.2c.1 0 .2 0 .3-.1l-.3.3zM-13.8 3.9l.1-.1.1.1c-.1-.1-.2-.1-.2 0zM-16.6 11.4v-.2c.1 0 .2 0 .3-.1l-.3.3zM-13.8 3.9l.1-.1.1.1c-.1-.1-.2-.1-.2 0zM-16.6 11.4v-.2c.1 0 .2 0 .3-.1l-.3.3zM-13.8 3.9l.1-.1.1.1c-.1-.1-.2-.1-.2 0zM-16.6 11.4v-.2c.1 0 .2 0 .3-.1l-.3.3zM-13.8 3.9l.1-.1.1.1c-.1-.1-.2-.1-.2 0zM-16.6 11.4v-.2c.1 0 .2 0 .3-.1l-.3.3zM-13.8 3.9l.1-.1.1.1c-.1-.1-.2-.1-.2 0zM-16.6 11.4v-.2c.1 0 .2 0 .3-.1l-.3.3zM-13.8 3.9l.1-.1.1.1c-.1-.1-.2-.1-.2 0zM-16.6 11.4v-.2c.1 0 .2 0 .3-.1l-.3.3zM-13.8 3.9l.1-.1.1.1c-.1-.1-.2-.1-.2 0zM-16.6 11.4v-.2c.1 0 .2 0 .3-.1l-.3.3zM-13.8 3.9l.1-.1.1.1c-.1-.1-.2-.1-.2 0z"/><path fill-rule="evenodd" clip-rule="evenodd" fill="#E80046" d="M-11 10.4c0-.1 0-.1-.1-.2-.2-.6-.6-1.1-1.1-1.4-.2-.2-.9-.3-1-.5.1.3.1.5 0 .6-.3.4-1 .5-1.4-.1-.2-.3-.2-.6-.1-.8.1-.5.6-.9 1.1-.9 1.2 0 .9-.5 0-1-.4-.3-1.2-.5-1.5-.9.8.8-.5 1.3-1.2.9-.6-.4-.6-1.2-.3-1.7.2-.3 1.1-.6 1-1-.2-.6-1.2-1-1.8-1 .2.3.1.6 0 .7-.2.2-.8.1-1-.4-.4-.8.1-1.4.9-1.3-.2 0-.9-1.3-.9-1.3h-4.3l.1.2.4.9c.8 1.6 2 3 3.1 4.3l.9 1c.3.3.7.7 1.1 1.2 1.3 1.4 3 3.4 2.5 4.9-.2.7-.9 1-1.6 1.2-.8.2-1.8.1-2.4 0h-.6c-.3 0-.6-.1-.8-.2-.5-.1-.9-.2-1.4-.4l-.3-.1-1.6-.6-.9-.4-.6-.3c-.1 0-.2-.1-.2-.1-.1 0-.2-.1-.3-.2l-.2-.1c-.4-.2-.8-.4-1.2-.7-1.8-1.1-3.5-2.2-5.2-3.4l-1.8-1.2-2.4-1.7c-1.3-1-2.6-2-3.8-3v6.2l.6.4c1.6 1.1 3.1 2.2 4.8 3.2 1.1.7 2.2 1.4 3.4 2.1.7.4 1.4.8 2.1 1.1.1 0 .2.1.3.2l2.1 1c.5.2 1.1.5 1.7.7l.4.2h.1l1.6.6c.5.2 1 .3 1.5.4l.9.2h.1c.7.2 1.3.2 2 .3l.9.1c.8 0 1.7 0 2.5-.2l.7-.2c.6-.2 1.2-.5 1.7-1 .1-.1.3-.2.5-.4l.1-.1c.4-.5.9-1.1 1.2-1.7l.2-.6c.1-.6 0-1.2-.5-1.8-.1.2-.3.4-.5.4h-.1c-1.4-1.2-.2-3.1.6-2.1z"/><g fill-rule="evenodd" clip-rule="evenodd" fill="#E8E853" stroke="#1D1D1B" stroke-width=".5" stroke-miterlimit="10"><path d="M-9.6 12c0-.3-.1-.6-.4-.7.1.3.2.6.4.7-.4-.3-.3-.7-.8-.8-.5-.1-1.3 0-1.4.7-.2 1.3 1.5 1.3 1.8 2.3.1.3-.3.9-.7.7-.6-.3-.1-.9-.4-1.4-.7-1-2.5-.1-2.4 1 .1 1.2 1.8.8 2.1 1.7.1.4-.2.6-.5.7-.5.1-.6-.3-.8-.7-.2-.4-.4-1-1-.8-.7.2-1 .8-.9 1.5.1.6 2.7 1.8 1.2 2-.4 0-.4-.7-.5-.9-.3-.7-1.1-.4-1.6 0-1.1.9-.2 1.6.8 1.5 1.3-.1 2.4 0 3.6-.5 1.2-.5 2.2-1.4 2.7-2.6.4-1.1.8-2.7.1-3.8l-.7-1.6c0-.6 0-1.4-.8-.8-.8.6.3 1.8.7 2.2.2.3.3 1.1-.2.7-.3-.2-.2-.8-.3-1.1.1-.3 0 .1 0 0zM-3.8 16.9c-.4.1-.8.5-.8.9.5 0 .6-.5.8-.9-.2.4-.3.9-.8.9 0-.4.4-.8.8-.9.2-.4-.3-.6-.5-.8-.2-.3-.4-.8-.8-.9-.8-.1-.8.2-1.5-.4-1.1-.9-2 0-2.6.9-.9 1.4-.7 2.1-.3 3.6.7 2.2 2.6 4.5 5.1 3.4 1.2-.6 2-1.6 2.3-2.9.3-.9-.3-3.4-1.7-2.9zM-11.7 22c.8 1.5 3.3 2.3 4.8 2.7 2 .6 3.9-.3 5.2-1.9.6-.8.9-1.7.9-2.7 0-.6-.1-2.4-.9-2.6-.4 0-1.2.8-1.4 1.1-.6.5-1.4 1.1-1.9 1.8-.2-.6-1-1.4-1.5-1.9-.8-.9-1.7-1.4-2.9-1.2-1.3.4-3 3.3-2.3 4.7z"/></g><g clip-rule="evenodd"><path fill-rule="evenodd" fill="#F2D8C0" d="M-25.5 19.8c.6-.1.9.4 1.4.3.6-.1 1.1-.6 1.5-1 .6-.5 2.1-1.5 2.4-2.3.4-.9.2-2.5.3-3.5.2-1.3.4-2-1.1-2.2.2-.6.1-2.1-.6-2.3-.4-.1-.7-.1-.9.2-.3.6-.7-.3-1.2-.1-.9.2-.9 2.1-1.1 2.8-.2 1-.5 2.1-1.4 2.6l1-3.5c.3-1.7-1.3-1.2-1.8 0-.5 1.3-1 2.3-1.9 3.4-.6.6-2.1.9-2.1 1.9v-.1c-.3.2.4 1.3.6 1.5.2.2.5.2.8.1.5-.1.3.1.5.5.4.8.8.5 1.5.7.8 0 1.1 1.1 2.1 1z"/><path stroke="#000" stroke-width=".483" d="M-31 15.9c-.4.3.5 1.5.8 1.6.6.1.7-.3 1 .3.2.3.4.7.8.9l1.1.1 1.2.9c.5.2.9-.1 1.4.2.5.3.9.3 1.3-.1.8-.5 1.4-1.2 2.1-1.8.8-.8 1.2-1.1 1.2-2.2 0-.9.1-1.8.3-2.7.2-1.2.1-1.8-1.1-1.9.2-.6.1-2.1-.6-2.3-.4-.1-.7-.1-.9.2-.3.6-.7-.3-1.2-.1-.9.2-.9 2.1-1.1 2.8-.2 1-.5 2.1-1.4 2.6l1-3.5c.3-1.9-1.5-.9-1.8.2-.5 1.3-1.1 2.3-2 3.4-.8.9-2.2.7-1.8 2.2M-26 13.4c-.3 1-.8 1.8-1.3 2.7M-21.1 11.1c-.2 1.3-.4 2.7-.9 3.9-.5 1-1.3 1.9-2 2.8M-22.8 9.4c-.4 1.1-.4 2.6-.6 3.8-.3 1.4-1.3 2.6-2 3.9" fill="none"/></g><path fill-rule="evenodd" clip-rule="evenodd" fill="#f00" d="M31.3 40.1c-.1-.6-1.2-.6-1 .2.1.6 1.2.5 1-.2 0-.1.1.1 0 0zM31.5 41.5c-.1-.8-1.4-.3-1 .3.3.5 1.1.3 1-.3zM31.6 42.9c-.1-.6-1.2-.6-1 .2.1.6 1.2.5 1-.2 0-.2.1.1 0 0zM31.8 44.3c-.1-.6-1.2-.6-1 .2 0 .6 1.1.5 1-.2zM32 45.7c-.1-.7-1.1-.6-1.1.1.1.7 1.1.6 1.1-.1-.1-.2 0 .1 0 0zM32.1 47.1c-.1-.6-1.2-.5-1 .2 0 .6 1.1.5 1-.2zM32.3 48.5c-.1-.7-1.1-.5-1.1.2.1.6 1.1.5 1.1-.2-.1-.2 0 .1 0 0zM32.4 49.9c-.1-.7-1.2-.6-1 .2 0 .6 1.1.5 1-.2zM32.6 51.3c-.1-.7-1.1-.6-1.1.1.1.7 1.1.6 1.1-.1-.1-.2 0 .1 0 0zM32.7 52.7c-.1-.6-1.2-.6-1 .2 0 .6 1.1.5 1-.2zM32.9 54.1c-.1-.7-1.1-.5-1.1.2.1.6 1.1.5 1.1-.2-.1-.2 0 .1 0 0zM33 55.5c-.1-.7-1.1-.6-1.1.1.2.6 1.2.6 1.1-.1zM33.2 56.9c-.1-.6-1.2-.6-1 .2 0 .6 1.1.5 1-.2zM31.5 57c-.1-.6-1.1-.6-1.1.1.2.7 1.2.6 1.1-.1zM31.2 55.6c-.1-.6-1.2-.6-1 .2.1.6 1.2.5 1-.2 0-.1.1.2 0 0zM31 54.3c-.1-.6-1.2-.6-1 .1 0 .6 1.1.6 1-.1zM30.7 52.9c-.1-.7-1.1-.5-1.1.2.2.6 1.2.5 1.1-.2 0-.2.1.1 0 0zM30.5 51.5c-.1-.7-1.1-.6-1.1.1.1.7 1.2.6 1.1-.1zM30.2 50.1c-.1-.6-1.1-.6-1 .2.1.6 1.1.5 1-.2zM29.9 49.1c.4-.6-.5-1.2-.9-.6s.5 1.2.9.6zM29.7 47.3c-.1-.6-1.2-.6-1 .2 0 .7 1.1.6 1-.2zM29.4 46.4c.4-.6-.5-1.2-.9-.6-.4.5.5 1.1.9.6 0-.2-.1.1 0 0zM29.2 44.6c-.1-.7-1.1-.6-1.1.1.2.7 1.2.6 1.1-.1zM28.9 43.2c-.1-.6-1.1-.6-1 .2.1.6 1.2.5 1-.2 0-.1.1.1 0 0zM28.7 41.8c-.1-.6-1.2-.6-1 .1 0 .7 1.1.6 1-.1zM28.4 40.4c-.1-.6-1.2-.6-1 .2.1.6 1.2.6 1-.2 0-.1.1.2 0 0z"/><g fill-rule="evenodd" clip-rule="evenodd" stroke="#000" stroke-width=".5"><path fill="#E8E853" d="M24.8 18.5c.2.9.8.7 1.5.6-.5-2.1-1.2-4.2-1.2-6.4-.1-2.3.1-4.5-.2-6.7-.1-.8-.5-.5-1.2-.4-.5.1-.5.6-.5 1l1.6 11.9zM31.8 60.6c.2 0 .4-.1.5-.1-1.4-8.4-3.3-16.7-3.6-25.2l-1.4.2c1.5 8.3 3 16.7 4.5 25.1zM32.9 64.9c.4-.8-.3-3.1-.6-3.9-.2.5-.7 1.6-.7 2.1.2.6 1 1.4 1.3 1.8zM24.8 6.1c-.1-.9-.4-1.8-.8-2.6-.3-.8-.8-1.5-1.5-.7-1.3 1.7.3 3.9 2.3 3.3-.2-1.1-.2.1 0 0zM32.4 61.3c.1-.7-.3-1.8-.4-2.6-1.7.3-1.3 2.9.4 2.6zM26.1 38.3c-1-1.2 1-1.9 1-1.2l.4-2.1c0-.5 0-1-.1-1.5-.2-1.5-.7-3-1.2-4.5-.6-1.8-1.2-3.5-1.3-5.4 0-.8-.1-1.7.2-2.5.3-.6 1.3-1.7 1.5-.6.8 3.7 1.6 7.4 1.9 11.1l.2 3.6c0 .9.2 1.9-.3 2.7-.5.8-1.6 1.2-2.3.4zM31 59.1l1-.1c-.1-.7.1-1.2-.7-1.1-.3 0-.7 0-.9.3-.2.4.1 1 .6.9zM26.6 21.5h.2c-.3-1.2-.6-2.5-.8-3.7-1.2.2-2.1 1.4-1.9 2.7.2 1.2 1.5 1.1 2.5 1zM23.8 2.3c1.1-.2.9-1.9-.3-1.7-1 .1-.8 1.8.3 1.7.3-.1-.2 0 0 0z"/><path fill="#C1BC00" d="M27.1 19c1.1-.2-.4-6.6-.5-7.3l-.6-4.5c-.1-.7-.1-2.2-1.2-1.8.7 3.1-.2 6.5.6 9.6l.7 2.9c.2 1 0 1.2 1 1.1zM31 52.6c.1.6 1.2 7.9 1.4 7.9.7-.1.4-.5.4-1.1l-1-8.4c-.6-5.3-1.2-10.6-1.8-15.8l-1 .1c-.5.1-.2 1.5-.2 1.9.1 1.5.1 2.9.3 4.4.4 3.6 1.3 7.3 1.9 11 .6 3.5-.5-3.1 0 0zM33 64.6c.1-.3.7-1.5.5-1.8l-1.1-1.7.6 3.5zM24.8 6.1c2.7-.9.9-5.2-1.7-3.8 1.1 1 1.4 2.5 1.7 3.8.4-.1-.2-1.1 0 0zM33.5 59.8c-.1-.7-.8-1.2-1.5-1.1l.4 2.6c.7-.1 1.2-.8 1.1-1.5-.1-.3 0 .4 0 0zM30.4 37.8c.5.3 1.2.8 1.6 0 .3-.8-.6-2.2-1.2-1.2-2.9-2 0-17-4.3-16.7 1.3 5.7 2 11.3 2.2 17.1.1-.3.2-.7.1-1.1.3.9 1 1.5 1.6 1.9.9.7-.8-.6 0 0zM33.1 58.8c.6-.1.6-1 .1-1.1-.4-.1-.9.1-1.3.1.1 1.2 0 1.2 1.2 1zM28.8 19.7c-.2-1.3-1.5-2.2-2.8-2 .2.9.4 1.8.6 2.8 0 .2.1.9.2 1 1.1-.2 2.2-.5 2-1.8z"/></g><g clip-rule="evenodd" stroke="#000"><path fill-rule="evenodd" fill="#F2D8C0" stroke-width=".5" d="M29.5 15.2c1-.4.9-1.8.9-2.7.1-1 .4-2 .6-3 .3-1.3.9-3.1.1-4.3-.7-1-1.6-2.7-3-2.4-.8.2-1.9 1.4-2.1 2.2-.2.8.4 2.3-.6 2.7-.9.3-2 .4-2.9-.1-1.4-.7-1.7.7-.7 1.6-1.7.1-.2 1.7-.4 2.4-.2.9 0 1.1.6 1.8.3.2.3.5.3.8 0 .6.5.9.9 1.2.5.5 1.2 1.2 1.9 1.4.8.3 1.4-.4 2.1-.6.8-.5 1.6-.8 2.3-1 .2-.1-.2 0 0 0z"/><path stroke-width=".483" d="M21.9 12.9c.9.7 1.4 1.5 2.6 1.3 1-.1 2.3-.4 3.3 0M21.4 10.6c.3.4.7.6 1 .9.6.7 1.1.7 2.1.6.4 0 2.7-.3 3 .1M21.7 8.9c.5.4 1.3 1.1 2 1.2 1 .1 2-.1 3.1-.1M30.4 14.4c.2-.6-.5-1-.4-1.5.1-.4.6-.9.2-1.3-.7-.5-.2-.8-.4-1.5-.2-.5-.5-1-.7-1.6" fill="none"/></g><path fill-rule="evenodd" clip-rule="evenodd" fill="#16A3D9" stroke="#077EB3" stroke-width=".5" d="M38 0h-9.8l-.2 1.3c-.2.5-1.2 1-1.1 1.6 0 .5 1-.4 1.2-.4.7-.2 1.3.2 1.8.6.6.5 1.2 1.2 1.5 2 .2.3.4 2.2.6 2.2.5.2.3-1.3.4-1.6.2-.7.8-1.2 1.3-1.6 1.3-1 2.7-2.1 3.8-3.3.1-.2.3-.5.5-.8z"/></symbol><symbol viewBox="-6.9 -6.4 13.9 12.9"><path fill-rule="evenodd" clip-rule="evenodd" fill="#D52222" d="M0 4.1c.2.7.5 1.2 1.1 1.7.6.5 1.3.7 2.1.7 1 0 1.9-.3 2.7-1 .7-.7 1.1-1.6 1.1-2.6 0-1.6-.8-3.2-2.4-5-.1-.2-1.6-1.6-4.4-4.2 0-.1-.1-.1-.2-.1s-.2 0-.2.1c-2.8 2.6-4.3 4-4.3 4.1-1.6 1.8-2.4 3.5-2.4 5 0 1 .4 1.8 1.1 2.6.7.7 1.6 1 2.7 1 .8 0 1.4-.2 2-.7.6-.4.9-1 1.1-1.6z"/></symbol><symbol id="d" viewBox="-3.2 -6 6.5 12.1"><path fill-rule="evenodd" clip-rule="evenodd" fill="#000000" d="M2.8 6l-2.4-4.8 2.8-7.2h-1.8l-2 5.4-.9-1.7v-3.7h-1.7v12h1.7v-5.5l2.6 5.5h1.7z"/></symbol><symbol id="b" viewBox="-50 -75 100 150"><path fill="#F0F7E6" d="M-43.9-75c-3.1 0-6.1 3-6.1 6.1v137.8c0 3.1 3 5.1 6.1 5.1h87.8c3.1 0 5.1-2 5.1-5.1v-137.8c0-3.1-2-6.1-5.1-6.1h-87.8z"/><path d="M43.9 74c2.8 0 5.1-2.3 5.1-5.1v-137.8c0-2.8-2.3-5.1-5.1-5.1h-87.8c-2.8 0-5.1 2.3-5.1 5.1v137.8c0 2.8 2.3 5.1 5.1 5.1h87.8m0 1h-87.8c-3.4 0-6.1-2.7-6.1-6.1v-137.8c0-3.4 2.7-6.1 6.1-6.1h87.8c3.4 0 6.1 2.7 6.1 6.1v137.8c0 3.4-2.7 6.1-6.1 6.1z"/></symbol><symbol id="f" viewBox="-41 -66 82 132"><g fill-rule="evenodd" clip-rule="evenodd" fill="#1A171B"><path d="M-40-41h-1v82h1zM41-41h-1v82h1zM34 66h-68v-1h68zM34-65h-68v-1h68z"/></g><path stroke="#1A171B" stroke-miterlimit="10" fill="none" d="M-40.5 0h81"/></symbol><symbol viewBox="-7.6 -7.6 15.2 15.2"><path fill-rule="evenodd" clip-rule="evenodd" fill="#FFA001" d="M7.4-.3c-1.4-.9-2.7-2-3.9-3.2-1.2-1.2-2.3-2.5-3.2-3.9 0-.1-.2-.2-.3-.2-.1 0-.2.1-.3.2-.9 1.4-2 2.7-3.2 3.9-1.2 1.2-2.5 2.3-3.9 3.2-.1.1-.2.2-.2.3 0 .1.1.3.2.3 1.4.9 2.7 2 3.9 3.2 1.2 1.2 2.3 2.5 3.2 3.9.1.1.2.2.3.2.1 0 .3-.1.3-.2.9-1.4 2-2.7 3.2-3.9 1.2-1.2 2.5-2.3 3.9-3.2.1 0 .2-.2.2-.3 0-.1-.1-.2-.2-.3z"/></symbol><use xlink:href="#b" width="100" height="150" x="-50" y="-75" transform="matrix(1 0 0 -1 50 75)" overflow="visible"/><g><g><use xlink:href="#c" width="9.1" height="9.7" x="-4.6" y="-4.8" transform="matrix(-1 0 0 1 90 122)" overflow="visible"/><use xlink:href="#c" width="9.1" height="9.7" x="-4.6" y="-4.8" transform="matrix(-1 0 0 1 10 122)" overflow="visible"/><use xlink:href="#c" width="9.1" height="9.7" x="-4.6" y="-4.8" transform="matrix(1 0 0 -1 90 28)" overflow="visible"/><use xlink:href="#c" width="9.1" height="9.7" x="-4.6" y="-4.8" transform="matrix(1 0 0 -1 10 28)" overflow="visible"/><use xlink:href="#d" width="6.5" height="12.1" x="-3.2" y="-6" transform="matrix(-1 0 0 1 90 136)" overflow="visible"/><use xlink:href="#d" width="6.5" height="12.1" x="-3.2" y="-6" transform="matrix(-1 0 0 1 10 136)" overflow="visible"/><use xlink:href="#d" width="6.5" height="12.1" x="-3.2" y="-6" transform="matrix(1 0 0 -1 90 14)" overflow="visible"/><use xlink:href="#d" width="6.5" height="12.1" x="-3.2" y="-6" transform="matrix(1 0 0 -1 10 14)" overflow="visible"/><use xlink:href="#e" width="81.6" height="66.4" x="-40.7" y="-.4" transform="matrix(-1 0 0 1 50 75)" overflow="visible"/><use xlink:href="#e" width="81.6" height="66.4" x="-40.7" y="-.4" transform="matrix(1 0 0 -1 50 75)" overflow="visible"/><use xlink:href="#f" width="82" height="132" x="-41" y="-66" transform="matrix(1 0 0 -1 50 75)" overflow="visible"/><use xlink:href="#a" width="14.1" height="14.9" x="-7" y="-7.5" transform="matrix(-1 0 0 1 78.5 129)" overflow="visible"/><use xlink:href="#a" width="14.1" height="14.9" x="-7" y="-7.5" transform="matrix(1 0 0 -1 21.5 21)" overflow="visible"/></g></g></svg>
