<svg xmlns="http://www.w3.org/2000/svg" xmlns:xlink="http://www.w3.org/1999/xlink" viewBox="0 0 100 150" enable-background="new 0 0 100 150"><symbol viewBox="-7.3 -7.3 14.6 14.6"><path fill-rule="evenodd" clip-rule="evenodd" d="M1.7 2.6c-.7-.8-1-1.4-1.1-2 .6.1 1.3.4 2 1.1.7.6 1.4.9 2.1.9.7 0 1.3-.3 1.9-.8.5-.5.7-1.1.7-1.8s-.3-1.3-.8-1.9c-.5-.4-1.1-.7-1.8-.7s-1.4.3-2.1 1c-.8.7-1.4 1-2 1.1 0-1.4 0-2.5.1-3.3.2-1.5.6-2.5 1.1-3.2.1-.1.1-.1 0-.2 0-.1-.1-.1-.2-.1-.6.1-1.1.2-1.6.2s-1-.1-1.7-.2c-.1 0-.1 0-.2.1s-.1.1 0 .2c.6.7.9 1.7 1.1 3.1.1.9.2 2 .2 3.3-.5 0-1.2-.4-2-1-.7-.7-1.4-1-2.1-1-.7 0-1.3.3-1.9.8-.5.5-.7 1.1-.7 1.8s.3 1.3.8 1.8c.5.6 1.1.8 1.8.8s1.4-.3 2.1-.9c.8-.7 1.4-1 2-1.1-.1.6-.4 1.3-1.1 2-.6.8-.9 1.4-.9 2.1 0 .7.3 1.3.8 1.9.5.5 1.1.7 1.8.7s1.3-.3 1.9-.8c.4-.5.7-1.1.7-1.8s-.3-1.3-.9-2.1z"/></symbol><symbol id="a" viewBox="-7 -7.5 14.1 14.9"><path fill-rule="evenodd" clip-rule="evenodd" fill="#000000" d="M5.9-2.9c-.8-.7-1.7-1-2.8-1-.9 0-1.7.3-2.4.9h-.1c.1-1.9.5-3.2 1.2-4.1.1-.1.1-.1 0-.2 0-.1-.1-.1-.2-.1-.6.1-1.1.1-1.6.1s-1-.1-1.7-.2c-.1 0-.2 0-.2.1-.1.1-.1.1 0 .2.7.8 1.1 2.2 1.3 4.1h-.1c-.7-.6-1.5-.9-2.4-.9-1.1 0-2 .4-2.8 1.1-.7.7-1.1 1.5-1.1 2.5 0 1.3.8 2.6 2.5 4.1.9.8 2.4 2 4.3 3.6 0 .1.1.2.2.2s.2 0 .3-.1c.8-.8 2.2-2 4.3-3.6 1.6-1.5 2.4-2.9 2.4-4.2 0-1-.4-1.8-1.1-2.5z"/></symbol><symbol id="c" viewBox="-4.6 -4.8 9.1 9.7"><use xlink:href="#a" width="14.1" height="14.9" x="-7" y="-7.5" transform="scale(.65)" overflow="visible"/></symbol><symbol id="e" viewBox="-40.5 -0.5 81 66.1"><g><g fill-rule="evenodd" clip-rule="evenodd"><path fill="#279DC1" d="M22.5 24.1c-.3-2.4-1.1-5.1-2.5-8-1-2.1-2.4-4.6-4.1-7.3-1.9-2.9-3.6-5.2-5.2-6.8-.8-.8-1.5-1.4-2.3-2h-37.8c-.3 1-.2 2.2.2 3.6.2.8.5 1.8.7 2.9.2 1.3.4 2.3.5 2.9.5 2.6 1.1 4.8 1.9 6.5.7 1.5 1 2.3 1 2.3.4.9.9 1.6 1.3 2.2.1.2.3.3.5.5.3.3.5.4.6.5l.8.8c.3.3.6.6.9.8l.7.4c.3.2.5.3.6.5.1.1.2.4.3.7.1.4.2.7.2.8.5 1.3 1.1 2.3 1.7 3 .5.5 1 .9 1.6 1.3.5.3 1.2.6 1.9.8.4.1 1 .4 1.7.8.5.3 1.2.5 2.2.5.3 0 .6.1 1 .2l.9.3c.1 0 .6.2 1.3.5.6.2 1 .3 1.3.4.3 0 .7-.1 1.1-.3.2-.1.6-.3 1-.6 1-.6 1.9-1 2.5-1.3.7-.2 1.5-.3 2.5-.1.9.2 1.7.4 2.4.9.6.4 1.5.9 2.8 1.7l.7.4c.2.1.5.2.6.3.2 0 .5 0 .9-.1.2-.1.5-.2.8-.3.5-.2 1-.2 1.7-.2s1.4-.1 2.2-.4c.5-.2 1.2-.5 2.1-1 .4-.2 1.1-.5 2-.7.9-.2 1.6-.4 2-.6 1.1-.5 1.8-1.3 2.3-2.5.5-1.3.7-2.7.5-4.3z"/><path fill="#CC2506" stroke="#000" stroke-width=".75" stroke-miterlimit="10" d="M-17.6 23.8c-.4-.4-.8-.4-1.2 0-.4.4-.4.8 0 1.2l2 2c.8.7 1.5 1.4 2.2 1.8.6.4 1.4.9 2.6 1.5 1.2.6 2 1.1 2.6 1.5.5.3.8.2 1.1-.3.3-.5.2-.9-.2-1.2-.6-.3-1.4-.8-2.5-1.3s-1.9-1-2.4-1.4c-.7-.5-1.4-1.1-2.2-1.8-.4-.4-1.1-1-2-2zM-7.9 29.4c.4.3.8.2 1.1-.3.3-.5.2-.9-.2-1.2-3-2.1-5.4-4.1-7.3-5.8-2.5-2.3-4.5-4.6-6-7.1-.3-.5-.7-.5-1.2-.3-.5.3-.6.7-.3 1.1 1.6 2.5 3.7 5 6.2 7.4 2.1 1.9 4.6 3.9 7.7 6.2zM-8.3 23.8c1.2.7 2.1 1.3 2.6 1.8.4.3.8.3 1.2-.1.4-.4.4-.8 0-1.1-.5-.4-1.4-1-2.6-1.7-1.2-.7-2.1-1.3-2.6-1.8-2-1.7-3.7-3.4-4.9-5.1-1.6-2.1-2.8-4-3.7-5.5-.3-.6-.8-1.5-1.4-2.6-.5-1-1.1-1.8-1.7-2.4-.4-.4-.8-.4-1.1 0-.4.4-.4.8 0 1.2.5.5 1.1 1.4 1.7 2.5.8 1.5 1.3 2.4 1.5 2.8.9 1.3 1.4 2.2 1.8 2.7.7 1 1.3 1.9 1.9 2.7 1.5 1.9 3.1 3.5 4.8 4.9.4.4 1.3 1 2.5 1.7zM-3.1 23c-.5-5.1-2.1-9.9-4.7-14.2-.4-.6-1-1.6-2-2.9-.9-1.3-1.5-2.3-2-3-.6-1-1-1.9-1.4-2.8h-1.8c.3.9.7 1.7 1.2 2.6.4.8 1 1.8 1.8 2.9.9 1.3 1.5 2.2 1.9 2.8 2.4 3.6 3.9 7.4 4.8 11.4-.6-.8-1.5-2.1-3-3.9-1.3-1.7-2.3-3-2.9-4-1.3-2-2.7-4.7-4.3-7.9-.7-1.5-1.4-2.8-1.9-4h-1.8c.6 1.4 1.3 2.9 2.2 4.7 1.6 3.4 3.1 6.1 4.4 8.1.5.8 1.8 2.5 3.9 5.1 1.6 2.1 2.8 3.9 3.5 5.4.1.2.2.3.4.4.2.1.3.1.5 0 .3.2.6.2.8 0 .3-.1.4-.4.4-.7zM14.8 28c-1.1 1.5-2 2.6-2.8 3.4l-.8.8c-.4.4-.7.5-1 .5-.5-.1-.9.1-1 .7-.2.5 0 .9.6 1 1 .2 2.1-.3 3.3-1.4.5-.5 1.3-1.4 2.4-2.9 1-1.3 1.8-2.5 2.5-3.4.9-1.3 1.6-2.5 2.1-3.7.2-.5.1-.9-.4-1.2-.5-.3-.8-.2-1.1.3-.4 1-1 2-1.7 3.1-.6.6-1.3 1.6-2.1 2.8zM12.6 24.4c-1.5 2-3.2 3.5-5.1 4.3-.5.3-.6.6-.4 1.1.3.5.7.6 1.2.4 1.9-.9 3.7-2.5 5.5-4.8 1.8-2.3 2.9-4.5 3.4-6.6.1-.5-.1-.9-.6-1-.5-.1-.9 0-1 .6-.6 2.1-1.6 4.1-3 6zM5 23.7c-.4.4-.7.7-1.1.9-.5.2-.7.6-.5 1.1.1.5.5.7 1 .5.8-.3 1.6-1 2.3-1.9.4-.5 1-1.4 1.7-2.5.9-1.3 1.7-2.4 2.3-3.4.8-1.2 1.4-2.4 1.9-3.6.2-.5 0-.8-.5-1-.5-.2-.9 0-1.1.5-.8 1.7-2 3.7-3.6 5.9-.5.7-1 1.5-1.6 2.3-.3.6-.6 1-.8 1.2zM.9 22.5c-.3.4-.2.8.3 1.1.5.3.9.2 1.2-.2 1.4-1.9 2.6-4.2 3.7-6.8.8-1.9 1.6-4.3 2.6-7.3.2-.5 0-.9-.6-1-.6-.1-1 0-1.1.6-.9 2.9-1.7 5.3-2.5 7.1-1.1 2.5-2.3 4.7-3.6 6.5zM4.7 4.8c-.5-.1-.9.1-1 .6-.3 1.2-.9 2.7-1.8 4.6-1 2.2-1.7 3.7-1.9 4.5-.3.8-.5 1.5-.7 1.9-.3.8-.5 1.4-.6 2l-.4-1c-.4-1.2-.7-2.2-.8-3.2-.1-1.1 0-2.2.2-3.3.2-.9.5-1.9 1-3 .2-.6.6-1.6 1.1-2.8.6-1.9 1-3.6 1.1-5.1h-1.7c-.1 1.5-.6 3.3-1.4 5.5-1.1 3-1.8 5-2 6.2-.3 1.9-.1 3.8.7 5.8.6 1.6.9 2.5 1 2.7.4 1 .5 2 .6 2.8 0 .5.3.8.8.8s.8-.2.8-.8c.3 0 .5-.1.6-.3.1-.2.2-.4.1-.7-.2-.7-.3-1.4-.2-2.2.1-.6.2-1.3.5-2.1l1.2-3.6c.4-.9 1-2.3 1.8-4.1.8-1.6 1.3-3 1.6-4.2.2-.5 0-.8-.6-1z"/></g><path fill-rule="evenodd" clip-rule="evenodd" fill="#199259" stroke="#545454" stroke-width=".75" stroke-miterlimit="10" d="M-11.5 58.8c.8.7 1.4.8 2.1.4.3-.2.4-.5.5-1v-1.2c0-1-.2-2.3-.5-3.7l-.9-3.6c-.1-.5-.1-1.2.1-2.1.1-.5.2-1.3.5-2.3.4-1.9.1-3.3-.7-4-.6-.6-1.4-.7-2.5-.5-.9.2-1.6.6-2.4 1.1-.6.5-1.1.9-1.4 1.3-.5.5-.9 1.1-1.1 1.6-.2.5-.2.9 0 1.4l.5 1.4v.2c0 .1 0 .2-.1.4 0 .2-.1.3-.1.4 0 1.7.4 3.2 1.4 4.6.3.5.8 1.1 1.4 1.8.4.4.9 1 1.7 1.8.9 1.3 1.4 1.9 1.5 2z"/><path fill="#545454" d="M-12.6 42.3c-.5 0-1.1.4-1.8 1.1-.8.8-1.4 1.6-1.7 2.3-1.1 2.1-1 4.5.1 7l.7-.3c-1.1-2.4-1.1-4.5-.1-6.4.3-.6.8-1.3 1.6-2.1.8-.9 1.1-.9 1.2-.9 0 0 .1 0 .1.1l.6-.4c-.1-.3-.4-.4-.7-.4z"/><path fill-rule="evenodd" clip-rule="evenodd" fill="#827420" stroke="#D9BF3B" stroke-width=".75" stroke-miterlimit="10" d="M-10.7 49.4c0 1.8.1 3.1.1 4.1.5-.4.8-1 1-1.8.1-.5.2-1.2.3-2.1.1-.4.1-1.1.1-2 0-.9 0-1.5.1-2 .2-1 .7-2.3 1.4-3.9l1.1-2.3c.5-1 .8-1.9 1.1-2.6.7-2.1.5-3.8-.4-5-.6-.7-1.6-1-3.1-.9-1.4.2-2.4.6-2.9 1.4-.3.5-.4 1.2-.2 2 .3.9.5 1.5.6 1.9.1.5.1 1.1-.1 2-.2 1-.3 1.8-.2 2.3 0 .5.2 1.3.5 2.4.3 1 .4 1.8.4 2.3.1.9.2 2.3.2 4.2z"/><path fill="#D9BF3B" d="M-9.8 32.7c-.3 0-.6.1-.8.4-.6.6-.6 1.2-.4 1.7v.1c.3.5.5.9.6 1.2.2.5.3 1 .3 1.6 0 .3-.1.7-.2 1.1-.3.9-.3 1.2-.3 1.3-.1.6-.2 1.1-.3 1.4-.1.6-.1 1.1.1 1.5.3.9.5 1.9.6 3.1l.7-.1c-.1-1.3-.3-2.4-.6-3.3-.1-.3-.1-.7 0-1.2 0-.3.1-.8.3-1.4 0-.1.1-.4.3-1.2.1-.5.2-1 .2-1.3 0-.6-.1-1.2-.4-1.8-.1-.3-.3-.7-.7-1.2-.1-.2-.1-.5.3-.9.1-.1.2-.2.3-.2.2 0 .3.1.4.3.1.1.1.1.1.2v.7c.5 0 .7-.3.7-.6 0-.2-.1-.5-.3-.8-.2-.4-.5-.5-.9-.6z"/><path fill-rule="evenodd" clip-rule="evenodd" fill="#F9FF00" stroke="#EAD30A" stroke-miterlimit="10" d="M-9.6 18.4c5.1-.4 10.2-.4 15.3 0l.1-1.6c-5.2-.4-10.4-.4-15.6 0l.2 1.6zM-9.5 20.5c5-.4 10-.4 15 0l.2-1.5c-5.1-.4-10.2-.4-15.2 0v1.5z"/><path fill-rule="evenodd" clip-rule="evenodd" fill="#FFFC8D" d="M20.3 29.7c-6.2-5.8-10.3-9.8-12.4-11.8-2.2-2.3-6-6.5-11.4-12.7l-1.8-2-1.2 2.4c-1.3 2.6-2.8 6.8-4.5 12.6-.7 2.5-1.3 4.8-1.8 7.1s-.9 4.2-1.1 5.6l3.6.5c.2-1.3.5-3.1 1.1-5.4.5-2.2 1.1-4.5 1.8-6.9 1.1-3.8 2.1-6.9 3.1-9.5 4.4 5.2 7.8 9 10.2 11.4 2.1 2.1 6 5.9 11.9 11.4l2.5-2.7z"/><path fill-rule="evenodd" clip-rule="evenodd" fill="#00f" d="M9.2 23.2l1.5-1.6-.7-.7-1.5 1.6.7.7zm2.8 2.6l.7.7 1.5-1.6-.7-.7-1.5 1.6zm5 1.8l-1.5 1.6.7.7 1.5-1.6-.7-.7zm-26.2-5l-2.1-.5-.2.9 2.1.5.2-.9zm-3.4 5.1l2.1.4.2-.9-2.1-.5-.2 1zm3.7-14.1l2.1.7.3-.9-2.1-.7-.3.9zm-1.4 4.7l2.1.6.3-.9-2.1-.6-.3.9zm3.3-9.5l1.8 1 .4-.9-1.8-1.1-.4 1zm13.6 8.7l-1.6 1.6.7.7 1.6-1.5-.7-.8zm-6.5-7l-1.6 1.4.6.7 1.6-1.4-.6-.7zm3.2 3.5l-1.6 1.5.7.7 1.6-1.4-.7-.8zm-6.4-7.1l-1.4 1.7.6.7 1.4-1.7-.6-.7z"/><path fill-rule="evenodd" clip-rule="evenodd" fill="#f00" d="M12.9 23.8l-1.7-1.7-1.5 1.6 1.8 1.7 1.4-1.6zm.3 3.2l1.8 1.7 1.5-1.6-1.8-1.6-1.5 1.5zm3.5 3.3l1.6 1.5 1.5-1.6-1.6-1.5-1.5 1.6zm-28.9-4.2l2.1.5.5-2.3-2.1-.5-.5 2.3zm-.9 4.8l2.1.3c.1-.8.2-1.5.4-2.3l-2.1-.4c-.2.9-.3 1.7-.4 2.4zm4.1-9l.6-2.3-2.1-.6-.6 2.4 2.1.5zm3.5-11.5l-2-.8-.8 2.4 2.1.7c.2-.8.5-1.6.7-2.3zm-2.2 6.9c.3-1 .5-1.8.7-2.3l-2.1-.7-.7 2.3 2.1.7zm1.4-10.5l1.5 1.4 1.2-1.9-1.6-1.8-1.1 2.3zm12.5 13.5l1.7 1.7 1.5-1.5-1.7-1.7-1.5 1.5zm-6.6-7.1l1.6 1.8 1.6-1.5-1.6-1.8-1.6 1.5zm4.9 5.3l1.6-1.5-1.6-1.7-1.6 1.5 1.6 1.7zm-8.1-8.9l1.6 1.8 1.6-1.4-1.6-1.8-1.6 1.4z"/><path fill-rule="evenodd" clip-rule="evenodd" fill="#EAD30A" stroke="#F9FF00" stroke-miterlimit="10" d="M-4.4 2.5c.4-.4.6-.8.5-1.1-.1-.3-.4-.6-1-.7-.6-.1-1-.2-1.2-.2-.5 0-.9.1-1.2.3-.3.2-.3.6-.2.9.1.3.4.6.7.8.8.8 1.6.7 2.4 0zM-4.1 0h-3.9c0 .2.1.4.2.5.1.2.2.3.4.3h.6c.2 0 .6.1 1.3.2.6.1 1 0 1.3-.1.1-.2.2-.5.1-.9z"/><path fill-rule="evenodd" clip-rule="evenodd" fill="#CC2506" stroke="#751800" stroke-miterlimit="10" d="M-14.2 30.8c-1.4-.7-2.7-1.8-3.7-3.3-.7-1.1-1.5-2.6-2.3-4.5-.5-1.4-1.1-2.9-1.5-4.7-.3-1.1-.6-2.8-1.1-4.9-.1-.4-.2-1.1-.3-2.1-.1-.9-.3-1.5-.5-2-1.3-3.4-2.3-6-3-7.9-.1-.2-.2-.6-.3-1.2v-.1h-13.1v11.3l.1.1c.5.3.8.5 1.1.7.4.3.6.5.6.5 0 .1.1.4.2 1 .2.8.5 1.4.8 2 .3.5.8 1.1 1.4 1.6 2.9 3 5.2 5.1 6.7 6.5 2.6 2.3 5.2 4.1 7.7 5.2.5.2 1.1.4 1.8.6.4.1 1 .3 1.8.5.4.1 1 .3 1.8.4.8 0 1.5.2 1.8.3zM40 13.1v-13.1h-41.9c.9 1 1.8 2.2 2.9 3.5.3.3.7.9 1.3 1.7.5.8.9 1.4 1.2 1.8.4.4.8 1 1.4 1.6.9.7 1.3 1.3 1.5 1.4 1 1.1 2.4 2.4 4.1 4.1 2 2 3.4 3.3 4.2 4.1.6.6 1.3 1.4 2.1 2.4.4.5 1.1 1.4 2 2.5.4.5.6.7.6.7.1.2.2.5.2.9 0 1.1-.1 2.2-.3 3.3-.2 1.5-.4 2.5-.8 3-.1.2-.3.3-.6.5-.3.1-.6.2-.7.3-.3.1-.8.3-1.3.6-.7.4-1.1.6-1.2.6-.9.4-2 .6-3.4.6-.2 0-.4-.1-.5-.1-.2 0-.2.1-.2.3 0 .4.5.8 1.4 1 .8.2 1.4.3 2 .2 1-.1 2-.3 3-.6 1.1-.4 2-.8 2.7-1.4.6-.5 1.5-1.2 2.7-2.1 1-.9 1.9-1.6 2.5-2.3.3-.4.9-.8 1.7-1.5.8-.6 1.3-1.1 1.6-1.5.2-.2.6-.9 1.2-2 .4-.7.9-1.2 1.6-1.5.5-.2 1.3-.5 2.4-.8.9-.3 1.6-.8 2-1.4.3-.5.7-1 .9-1.8.4-1 1.1-2.1 2.2-3.5.6-.4 1.1-1 1.5-1.5z"/><path fill="#751800" d="M39.3 9.1l-.7-.7c-.8.8-2.1 1.1-3.9.9-1.2-.2-2.7-.6-4.5-1.3-1.5-.6-3.2-1.4-5-2.5-.6-.4-2.2-1.5-4.7-3.1-1.4-1-2.6-1.8-3.5-2.4h-1.8c1.2.7 2.8 1.8 4.8 3.2 2.5 1.7 4.1 2.8 4.7 3.2 1.8 1.1 3.6 2 5.1 2.6 1.8.7 3.4 1.1 4.6 1.3 2.2.2 3.8-.2 4.9-1.2zM14.8 4.2l-.7.6c2.2 2.4 5.4 5.3 9.7 8.5 4 3 7.9 3.8 11.6 2.5l-.4-.9c-3.4 1.2-7 .4-10.7-2.4-4.2-3.2-7.4-6-9.5-8.3z"/><path fill-rule="evenodd" clip-rule="evenodd" fill="#F7E7CB" stroke="#C6A281" stroke-width=".5" stroke-miterlimit="10" d="M8.1 54.3c.5-.8.8-1.8.9-3.2.3-2.9 3.7-19.2-4.3-23.4-.8-.8-4-2.8-4.6-3-.7-.2-4.2 1.1-4.7 2.2-.8 1.6-1 3.5-.6 5.6.1.5.2.9.2 1.1v1.1c-.6 0-1.1.3-1.5.8-.2.2-.4.6-.6 1.2-.2.6-.4 1.1-.5 1.4 0 .1-.2.5-.3 1.1-.1.4-.3.8-.4 1.1-.2.5-.4.9-.5 1.1-.2.4-.3.8-.4 1.1-.3 1.1-.5 2-.5 2.8 0 .5-.1.9-.1 1.2-.1.4-.2.8-.4 1.2-.3.6-.4 1.4-.4 2.6.1 1.3.2 2.2.3 2.7-.1.7 17.9 2 18.4 1.3z"/><path fill-rule="evenodd" clip-rule="evenodd" fill="#F4F4F6" stroke="#7F7F7F" stroke-width=".5" stroke-miterlimit="10" d="M3.6 29l2.3 2.3c.1.1.5.4 1 .9.4.4.7.7 1 .9l.3.4s.1.1.1.3c0 .1.1.2.1.2.1.1.1.1.2.1 0 0 .1 0 .2-.1.2 0 .5-.1.9-.3.4-.1.7-.3.9-.4.5-.3.8-.6.7-.9 0-.2-.2-.4-.7-.4h-1c.1-1 .2-1.7.1-2.2-.1-.8-.5-1.4-1.2-1.7-.7-.3-1.6-.3-2.7 0 .1 0 .2-.2.4-.6.1-.3.2-.6.2-.7 0-.2 0-.5-.1-.7-.1-.3-.2-.5-.3-.7-.3-.3-.7-.6-1.2-.8-.5-.2-1-.2-1.4-.1-.4.1-.7.2-1 .4.1-.2.2-.5.1-.8-.1-.7-.4-1.2-1.1-1.6-.7-.4-1.3-.4-1.9-.2-.3.1-.6.4-.9.9-.1.2-.2.4-.3.5-.1.2-.2.4-.4.4-.1 0-.2 0-.4-.1-.1 0-.2-.1-.3-.3-.2-.2-.5-.4-.8-.5-.3-.2-.6-.3-.9-.3-.3-.1-.7-.1-1 0 .1.1-.2.3-.5.6-.2.3-.4.7-.4 1.1 0 .5.1 1 .4 1.6-.7-.1-1.2-.1-1.7 0-.7.2-1.1.5-1.2 1-.1.7 0 1.4.4 2 .2.2.4.5.7.7.3.2.6.4.8.5-.4-.3-1-.3-1.9.1-.3.1-.6.3-.7.5-.1.1-.2.4-.4.8 0 0 .4.2 1.1.4.4.1.8.2 1.3.4.2 0 .5.1.9.2s.7.2.9.3c0 0 .1-.1.1-.3.1-.2.2-.7.4-1.4.2-.6.3-.9.3-1 .2-.3.4-.8.7-1.4.3-.6.6-1 .8-1.4.9-1.1 1.4-1.9 1.7-2.4.1-.1.5.1 1.4.6.4.3.9.6 1.4 1 .2.1.6.4 1.2 1 .2.2.4.4.8.6l.6.6z"/><path fill="#7F7F7F" d="M-8 31.4c-.2 0-.4.1-.6.2-.2.1-.3.3-.4.5l.2.1v.2s.1 0 .7.3c.6.2.8.3.8.3.1 0 .2-.1.3-.2.1-.3.1-.7-.2-1-.1-.2-.4-.4-.8-.4zm-.4.7c0-.1.1-.1 0 0 .1-.1.3-.1.4-.1.2 0 .4.1.5.2.1.1.1.2.1.3-.1 0-.3-.1-.5-.2s-.4-.2-.5-.2zM-6.6 27.2c-.3 0-.6.1-.8.3-.2.2-.3.4-.3.7s.1.5.3.7c.2.2.5.3.8.3.3 0 .5-.1.8-.3.2-.2.3-.4.3-.7 0-.3-.1-.5-.3-.7-.2-.2-.5-.3-.8-.3zm0 1.5c-.2 0-.3-.1-.4-.2-.1-.1-.2-.2-.2-.4 0-.1.1-.3.2-.4.1-.1.3-.2.4-.2.2 0 .3.1.4.2.2.2.2.3.2.5s-.1.3-.2.4c-.1.1-.2.1-.4.1zM-4.3 23.9c-.3 0-.5.1-.8.3-.2.2-.3.4-.3.7 0 .3.1.5.3.7.2.2.5.3.8.3.3 0 .5-.1.8-.3.2-.2.3-.4.3-.7s-.1-.5-.3-.7c-.3-.2-.5-.3-.8-.3zm0 1.5c-.2 0-.3-.1-.4-.2-.1-.1-.2-.2-.2-.4 0-.1.1-.3.2-.4.1-.1.3-.2.4-.2.2 0 .3.1.4.2.1.1.2.2.2.4 0 .1-.1.3-.2.4-.1.1-.2.2-.4.2zM.7 23.2c-.3 0-.5.1-.8.3-.2.2-.3.4-.3.7 0 .3.1.5.3.7.2.2.5.3.8.3.3 0 .5-.1.8-.3.2-.2.3-.4.3-.7 0-.3-.1-.5-.3-.7-.3-.2-.5-.3-.8-.3zm0 1.5c-.2 0-.3-.1-.4-.2-.1-.1-.2-.2-.2-.4 0-.1.1-.3.2-.4.1-.1.3-.2.4-.2.2 0 .3.1.4.2.1.1.2.2.2.4s-.1.3-.2.4c-.1.1-.2.2-.4.2zM4.1 25.6c-.3 0-.5.1-.8.3-.2.2-.3.4-.3.7 0 .3.1.5.3.7.2.2.5.3.8.3.3 0 .5-.1.8-.3.2-.2.3-.4.3-.7 0-.3-.1-.5-.3-.7-.3-.2-.5-.3-.8-.3zm0 1.5c-.2 0-.3 0-.4-.2-.1-.1-.2-.2-.2-.4 0-.1.1-.3.2-.4.1-.1.3-.2.4-.2.2 0 .3.1.4.2.1.1.2.2.2.4 0 .1-.1.3-.2.4-.1.2-.2.2-.4.2zM7.2 29.4c-.3 0-.5.1-.8.3-.2.2-.3.4-.3.7 0 .3.1.5.3.7.2.2.5.3.8.3.3 0 .5-.1.8-.3.2-.2.3-.4.3-.7 0-.3-.1-.5-.3-.7-.3-.3-.5-.3-.8-.3zm0 1.5c-.2 0-.3-.1-.4-.2-.1-.1-.2-.2-.2-.4 0-.1.1-.3.2-.4.1-.1.3-.2.4-.2.2 0 .3.1.4.2.1.1.2.2.2.4 0 .1-.1.3-.2.4-.1.1-.3.2-.4.2zM10 32.5c-.3 0-.6.2-.9.5-.2.2-.3.5-.2.6 0 .2.1.4.3.4h.1c.1 0 .1 0 .9-.3.4-.2.5-.2.6-.2-.1 0-.2 0-.2-.1l.4-.2-.2.1.2-.1c-.1-.2-.2-.3-.4-.5-.2-.1-.4-.2-.6-.2zm-.7 1.1s0-.1.1-.2c.3-.3.4-.4.6-.4.1 0 .2 0 .4.1-.1 0-.2.1-.4.2l-.7.3z"/><path fill-rule="evenodd" clip-rule="evenodd" fill="#D9BF3B" stroke="#827420" stroke-width=".75" stroke-miterlimit="10" d="M5 47.7c0 .8-.1 1.4 0 1.8.1 2 .1 3 .1 3.1.1 1.4.6 2.2 1.3 2.4 1.1.3 2 .1 2.5-.7.1-.2.2-.4.3-.7.1-.3.1-.6.2-.7.1-.2.3-.5.6-.8.3-.3.5-.6.5-.9.2-.5.2-1 .2-1.7-.1-1.1-.1-1.6-.1-1.7.1-2 .3-3.6.7-4.8.6-1.8 1.5-3 2.9-3.6.7-.3 1.1-.5 1.2-.6.4-.3.6-.6.6-1 0-.9-.3-1.8-1.1-2.6-.8-.9-1.6-1.4-2.5-1.4-.1 0-.3 0-.6.1h-.6c-.1 0-.3-.2-.6-.4-.2-.1-.4-.2-.7-.2-.4 0-.8.1-1.2.3-.4.1-.8.3-1.1.5-.4.2-.7.6-.9 1.1-.1.3-.2.8-.2 1.4 0 .1.1.6.2 1.5.1.6 0 1.1-.2 1.4 0 .1-.3.4-.9 1-.3.4-.5.8-.6 1.2-.1.6-.1 1.2-.1 2.1 0 .1 0 .8.1 2.1v1.8z"/><path fill="#827420" d="M13.9 36.7c-.3 0-.7.3-1.1.5-.4.3-.9.8-1.3 1.3-.8 1-1.8 2.4-2.8 4.1-.4.8-.8 1.8-1.1 3.1-.3 1.4-.5 2.4-.7 3.1l.7.2c.2-.7.4-1.7.7-3.1.3-1.2.6-2.2 1-2.9 1-1.7 1.9-3.1 2.8-4 .4-.5.8-.9 1.2-1.2.2-.2.4-.3.5-.3h.7c0-.5-.2-.7-.3-.7-.1-.1-.2-.1-.3-.1zM9.3 34.5c-.1 0-.3 0-.5.1l.2.6c.2 0 .5-.1.7.1.1.2.4 1.2-2.3 5.6-.3.4-.5.9-.7 1.7-.1.8-.2 1.3-.3 1.6l.7.2c.1-.3.2-.9.3-1.7.1-.6.3-1.1.5-1.3v-.1c2.8-4.6 2.7-5.9 2.3-6.4-.1-.3-.4-.4-.9-.4z"/><path fill-rule="evenodd" clip-rule="evenodd" fill="#D9BF3B" stroke="#827420" stroke-width=".5" stroke-miterlimit="10" d="M-2.6 36.1c0-.1.1-.2.2-.4s.2-.3.3-.3c.2 0 .2.2.3.4 0-.1.1 0 .1-.2.1-.2.2-.3.3-.4 0 0 .1.1.1.3l.1.3c0-.1 0-.2.1-.4l.3-.3c.1-.1.2-.2.4-.2.1 0 .2-.1.4-.1.4-.1.7-.1 1 0 .3.1.6.2 1 .4.1.1.2.2.4.3.2.1.3.2.5.2-.3-.4-.6-.7-1.1-.9l-1.2-.6c-.3-.2-.6-.4-.8-.7-.2-.2-.4-.5-.6-.9-.1-.2-.3-.4-.5-.7-.2-.3-.4-.5-.5-.6-.2-.2-.3-.5-.5-.9s-.4-.7-.5-.9c-.3.7-.6 1.3-.8 1.6-.3.6-.6 1.1-1 1.5-.3.3-.5.5-.6.7-.2.3-.3.6-.4.8-.1.3-.2.6-.2.8-.1.3 0 .6.1.7 0-.1 0-.1.1-.2s.2-.1.3-.1c.1 0 .1.1.2.2l.2.2.3.1.1.2c.1-.2.2-.3.3-.3v.2c0-.3.1-.4.3-.3.1.1.2.3.3.5.2-.1.1-.4.3-.4l.2.2c.2-.1.1-.2.2-.2.1.1.2.2.3.4zM.3 40.9c0-.1.1-.2.1-.2.1-.3.1-.6 0-.8-.1-.2-.3-.4-.5-.5-.2-.1-.4-.1-.8-.2h-1c-.3 0-.7-.1-1.2 0s-.9.1-1.1.1c-.5.1-1 0-1.7-.1l-1.8-.2c-.5 0-.8.2-1 .6-.1.3-.1.5-.2.6 0 .3 0 .5.1.6 0-.2 0-.3.2-.5.1-.2.3-.3.4-.4.2-.1.4-.1.7 0l.5.4c.4.4.7.6.7.6.4.3.7.4.9.4.1 0 .1 0 .2-.1.1 0 .1-.1.1-.1h.3c.2.1.3.2.3.2.5.2 1 0 1.7-.4.2-.2.7-.5 1.4-.9h.8c.2.1.4.2.6.4l.3.5c-.1.3-.1.4-.1.5.1-.1.1-.3.1-.5z"/><path fill-rule="evenodd" clip-rule="evenodd" fill="#CC2506" stroke="#751800" stroke-miterlimit="10" d="M16.7 61.5c-.3 1.4-1 2.6-1.9 3.5h-27.8l-.3-.3c-.9-.9-2.1-2.3-3.6-4.3-1-1.2-1.5-2.5-1.7-3.9-.2-1.4.1-2.8.7-4.3.5-1.2 1.5-1.9 2.9-2.1.7-.1 1.7-.1 2.8.1.3-.1.6-.1.9 0l-.2.1h.3c-.1 0 0 .3.3 1s.4 1 .5 1.1c.1.2.3.3.6.6l-.9-2.4c.1.1.2.3.3.5.1.2.3.6.6 1.3.2.5.4.8.6 1 .5.5 1.5.9 3 1.1 1.4.2 2.5.1 3.1-.2-.3.2-1 .4-2 .9-.8.3-1.5.7-2 1-.4.3-.8.5-1 .7.2-.1.5-.2 1-.5.6-.3 1.5-.8 2.7-1.4 1.1-.5 2-.8 2.9-.8 1.5 0 2.7.2 3.6.6.2.1.4.2.6.4-.2-.4-.4-.8-.4-1h1.1c.5 0 .8-.1 1.1-.1.7-.1 1.3-.3 1.9-.6.4-.2 1-.5 1.7-1 .8-.5 1.2-.8 1.3-.8.4-.3.7-.7.9-1.3.1-.4.3-1 .6-1.8.3-.7.7-1.2 1.2-1.4.5-.3 1.2-.4 1.9-.4.8 0 1.4.3 1.7.8.3.4.4 1.1.4 2.4 0 1.4 0 2.3.1 2.5.7 2.9 1 4.4 1 4.5-.1 1.5-.2 3-.5 4.5zm-30.3-8c0-.5.1-1 .1-1.3-.5.7-.7 1.5-.8 2.6-.1 1.2.3 1.9 1.1 2.1-.3-.7-.5-1.9-.4-3.4zm21.8 5.9c-.8-.4-1.2-.6-1.3-.6-.1-.1-.5-.2-1.1-.3l.9.6c.9.5 1.8.8 2.6.9-.2-.2-.6-.4-1.1-.6zm-19.6-9.2l.3-.1.2.5c-.1-.1-.3-.3-.5-.4z"/><path fill-rule="evenodd" clip-rule="evenodd" fill="#ff0" stroke="#B5981F" stroke-miterlimit="10" d="M5.7 51.9c-1.7.6-3.7.9-6 1-4.5.2-8-.3-10.4-1.7 0 .9.1.6 0 1.8v.9c0 .6 0 .8.1.9 2.6 1.4 6.1 1.9 10.7 1.6 5.1-.3 8.6-1.8 10.6-4.3.1-.1.1-.4.1-.9 0-.3 0-.6-.1-.9 0-.1 0-.4-.1-.9v-1.3c-1.2 1.6-2.8 3.1-4.9 3.8z"/><path fill="#B5981F" d="M8.5 50.2c-.2 0-.4.2-.4.3 0 .2-.1.6-.1 1.2 0 .5-.1.9 0 1.2 0 .4-.1.7-.2 1.1-.2-.3-.4-.6-.5-.9-.3-.5-.5-1-.6-1.4 0-.2-.2-.3-.3-.3-.2 0-.3.1-.4.2-.3.8-.6 1.5-.9 2.1-.3.7-.5 1.2-.6 1.5-.3-.2-.7-.5-1-.8-.7-.7-1.1-1.1-1.4-1.3-.2-.1-.4-.1-.5 0-.3.3-.6.8-1 1.5-.2.5-.4.8-.6 1.1-.7-.6-1.2-1-1.4-1.2-.1-.1-.3-.4-.5-.7-.2-.4-.4-.6-.6-.8-.1-.1-.3-.1-.4-.1-.6.3-1 .8-1.4 1.6-.2.5-.3.8-.4 1.1-.4-.4-.7-.8-.9-1.1-.5-.6-.7-1.1-.7-1.4 0-.2-.1-.4-.3-.4-.2 0-.4.1-.4.3 0 .2-.1.5-.7 1.3-.3.4-.5.6-.6.8-.1-.4-.2-.8-.4-1.3s-.3-.9-.3-1.3v-.4h-.7v.3c0 .2-.1.5-.2.8-.2.5-.3 1-.4 1.2l.7.2c0-.2.1-.4.2-.7.2.7.4 1.3.4 1.6 0 .1 0 .2.1.3 0 .2 0 .2.1.2.5 0 .9-.4 1.5-1.2.2-.2.3-.4.4-.6.1.3.3.5.6.8.3.4.7.9 1.3 1.6.1.1.2.1.3.1.1 0 .2-.1.3-.2.1-.3.3-.9.7-1.7.2-.5.5-.9.8-1.1.1.1.2.3.3.5.2.4.4.6.6.8.3.3.9.8 1.8 1.6.1.1.2.1.3.1.1 0 .2-.1.2-.1.2-.3.5-.8.9-1.5.2-.4.5-.8.7-1.1l1 1c.6.6 1.2 1 1.7 1.2.2.1.3 0 .4-.1.1-.1.1-.2 0-.3 0-.1.1-.5.6-1.6.1-.4.3-.7.5-1.2l.3.7c.3.5.6 1 1 1.4.2-.1.3-.1.4-.1.1 0 .2 0 .3-.1.4-.6.6-1.3.6-2 0-.3 0-.7.1-1.1 0-.1 0-.3.1-.4 0 .1.1.1.1.1.1.1.2.3.5.8.2.4.4.6.6.8l.5-.5c-.1-.1-.3-.4-.5-.7-.2-.4-.4-.7-.5-.8 0-.1-.1-.1-.5-.5l-.2-.2c0-.1-.2-.2-.4-.2z"/><path fill-rule="evenodd" clip-rule="evenodd" fill="#93A2AA" stroke="#256B8E" stroke-width=".5" stroke-miterlimit="10" d="M28.8 52.4c.6 1.8 1.9 3.5 3.8 5-1.4-1.9-2.3-4.3-2.5-7.1-.2-2.7.1-5.1 1-7.2.7-1.5.6-3.3-.2-5.2-.6-1.5-1.6-2.9-2.9-4.2-.1 0-.2-.1-.2-.2 1.4 4.5.7 7.1-2.3 7.8-1 .2-2.2.2-3.5 0-1.1-.2-1.9-.4-2.4-.7-.4 1-.6 2.1-.4 3.5.2 1.5.7 2.6 1.5 3.5.6-1.7 2.1-2.6 4.5-2.7 1.2 0 2.3.1 3.3.4-.4 3-.3 5.4.3 7.1z"/><path fill-rule="evenodd" clip-rule="evenodd" fill="#C2D7E7" stroke="#256B8E" stroke-width=".5" stroke-miterlimit="10" d="M32.6 57.3c-.7-4.1-.6-7.4.1-9.8.4-1.2.8-2 1.3-2.3l-1.3-1.1.2-1.4c.2-1.1.2-1.9.2-2.5-.1-3.2-1.1-5.5-3-7-.6-.5-1.2-.8-1.9-1l-.9-.2c.1.3.3.7.5 1.3l.2.2c1.3 1.3 2.3 2.7 2.9 4.2.8 1.9.9 3.6.2 5.2-.9 2.1-1.3 4.5-1 7.2.2 2.9 1 5.3 2.5 7.2z"/><path fill-rule="evenodd" clip-rule="evenodd" fill="#A09A4A" stroke="#751800" stroke-width=".75" stroke-miterlimit="10" d="M22.3 38.2c.3 0 .9-.1 1.7-.2.7-.1 1.3-.2 1.7-.2l-.3-4.7c-.7.1-1.3.2-1.7.2-.6.1-1.2.1-1.7 0l.3 4.9z"/><path fill-rule="evenodd" clip-rule="evenodd" fill="#93A2AA" stroke="#256B8E" stroke-width=".5" stroke-miterlimit="10" d="M26.5 37.4c-.5 0-1.4.1-2.5.1-1.1.1-1.9.1-2.5.2l.3 5.5 4.9-.4-.2-5.4z"/><g fill-rule="evenodd" clip-rule="evenodd"><path fill="#E8E3B8" d="M24.1 33.3c-.1-.7-.1-1.8-.3-3.3-.2-3-.6-8.5-1.1-16.2-.4-5.6-.7-10.2-1-13.8h-1.7l2 33.4c.6 0 1.3 0 2.1-.1z"/><path fill="#751800" d="M22.7 33.4h-.6l-2.1-33.4h.7l2 32.7h.6l-.2-2.7c-.2-2.8-.5-7.5-1-14.1-.4-6.8-.8-12.1-1.1-15.9h.7c.3 3.6.6 8.2 1 13.8.5 7.8.9 13.2 1.1 16.2.1 1.5.2 2.6.3 3.4h-1.4zM25.5 33.2l-2.1-33.2h-1.7c.3 3.6.6 8.2 1 13.8.5 7.8.9 13.2 1.1 16.2.1 1.5.2 2.6.3 3.4.6-.2 1.1-.2 1.4-.2z"/><path fill="#42210B" d="M24.1 33.3c-.1-.7-.1-1.8-.3-3.3-.2-3-.6-8.5-1.1-16.2-.4-5.6-.7-10.2-1-13.8h.7c.3 3.8.7 9.1 1.1 15.8.3 5.5.6 9.8.9 12.8l-1.7-28.6h.7l2 33.2c-.2 0-.7 0-1.3.1z"/></g><path fill-rule="evenodd" clip-rule="evenodd" fill="#93A2AA" stroke="#256B8E" stroke-width=".5" stroke-miterlimit="10" d="M27.8 63.1l-1.5-20.3-2 .1 1.7 22.1z"/><path fill-rule="evenodd" clip-rule="evenodd" fill="#C2D7E7" stroke="#256B8E" stroke-width=".5" stroke-miterlimit="10" d="M26 65l-1.7-22.1-1.9.2 1.5 20.3z"/><path fill-rule="evenodd" clip-rule="evenodd" fill="#199259" stroke="#545454" stroke-width=".75" stroke-miterlimit="10" d="M22 55.1c0-.7-.1-1.5-.3-2.4-.1-.4-.3-1.2-.5-2.4-.1-.3-.2-1.1-.5-2.2-.2-1-.5-1.7-.9-1.9 0 .2 0 .6-.1 1v-.1c-.1-.8-.3-1.6-.7-2.5-.9-2-2-3-3.1-3-.1.2 0 .4 0 .6-.3-.2-.6-.4-.8-.5-.6-.3-1.4-.3-2.4-.1-.8.2-1.3.6-1.4 1.4v2.1c-.2 1.2-.2 2-.2 2.6 0 1 .2 1.9.7 2.5.4.6 1 1.1 1.6 1.6-.4-.2-.7-.3-1-.2.1.8.5 1.7 1.2 2.5.1.1.2.3.4.4-.4-.2-.7-.2-1 .1-.1.1 0 .2.1.5s.1.5.1.6c0 .1-.2.3-.4.5s-.4.5-.5.6c-.1.5-.1 1.1 0 2 .1.8.3 1.5.5 1.9-.4-.5-.8-.5-1.1.1-.3.5-.4 1-.5 1.5.1 1.1.2 1.9.2 2.5v.2h7.6c.1-.3.3-.8.5-1.5.1-.3.3-.7.6-1.2s.5-.9.7-1.2c.4-.8.7-1.8.9-2.9.3-1.1.4-2.2.3-3.1z"/><path fill="#545454" d="M18.3 53.8c0-1.4-.3-3.1-.8-4.9 0-.1-.1-.4-.3-1.9-.2-.9-.4-1.5-.7-2l-.6.5c.3.3.5.9.6 1.6l.3 1.9c.5 1.8.8 3.4.8 4.7v3.7c-.1 1.4-.3 2.6-.6 3.6-.2.7-.6 1.4-1.2 2.1-.7.8-1.2 1.4-1.6 1.9h1c.3-.4.7-.9 1.2-1.4.7-.8 1.1-1.6 1.4-2.4.4-1 .6-2.3.7-3.8-.2-.4-.2-1.6-.2-3.6z"/><g fill-rule="evenodd" clip-rule="evenodd" fill="#F9FF00" stroke="#EAD30A" stroke-width=".75" stroke-miterlimit="10"><path d="M-15.5 20.2c0-.2-.1-.3-.2-.4-.1-.1-.3-.2-.4-.2-.2 0-.3.1-.4.2h-.1c-.1.1-.1.1-.1 0h-.1c-.1-.1-.2-.3-.3-.6 0-.1-.1-.2-.1-.4 0-.5.4-1.4 1.2-2.5.3-.4.7-1 1.4-1.7.8-1 1.3-1.7 1.6-2.1 1.3-1.7 2-3.3 2-4.8 0-1.1-.3-2.1-1-3.1-.6-.8-1.4-1.5-2.4-2.1-.9-.5-1.9-1-3.1-1.3-1.1-.3-2.1-.4-3.1-.4-.2 0-.3.1-.4.2-.1.1-.2.3-.2.4 0 .7.1 1.1.4 1.1.9 0 1.8.1 2.8.4 1 .3 2 .7 2.8 1.1 1.7 1 2.6 2.4 2.6 4.2 0 .6-.1 1.2-.4 1.7-.3.6-.7 1.3-1.3 2.1-.4.6-.9 1.2-1.4 1.9-.6.9-1 1.5-1.2 1.7-.5.7-.8 1.2-1 1.6-.3.6-.4 1.1-.4 1.6 0 .3 0 .6.1.8.2.5.4.8.6 1 .3.3.6.4.9.4.4 0 .8-.2 1-.4.1-.1.2-.3.2-.4zM-18.5 17.3c-.7-.1-1.3-.1-1.9 0-.7.1-1.3.4-1.8.7l.2 1.7c.5-.4 1-.6 1.7-.6.5 0 1.2 0 2 .2l-.2-2zM-22.2 18c.5-.4 1.1-.6 1.8-.7.6-.1 1.3-.1 1.9 0l-1.7-13.2c-1.4-.1-2.6.1-3.7.6l1.7 13.3zM-20.2 4.1l-.5-3.7c0-.2 0-.3-.1-.5h-3.6c0 .3-.1.6 0 .9l.5 3.8c1.1-.4 2.3-.6 3.7-.5zM-18.3 19.2c-.8-.1-1.5-.2-2-.2-.7 0-1.3.3-1.7.6l.4 3.1c1.1-.5 2.3-.7 3.7-.7l-.4-2.8zM-21.6 22.8l.1 1.1c.7-.3 1.3-.5 1.8-.6.7-.2 1.3-.2 1.9-.1l-.2-1.2c-1.3 0-2.5.2-3.6.8zM-21 25.6c.4-.4 1-.6 1.6-.8.6-.2 1.2-.2 1.8-.2v-.6l-.1-.9c-.6-.1-1.2 0-1.9.1-.4.1-1 .3-1.8.6l.1.7c0 .4.1.8.3 1.1zM-19.2 26.7c.4-.1.8-.3 1.1-.7.3-.4.4-.9.5-1.4-.6 0-1.2 0-1.8.2-.6.2-1.1.4-1.6.8.2.4.5.7.8.9.3.2.6.3 1 .2z"/></g><path fill-rule="evenodd" clip-rule="evenodd" fill="#F7E7CB" stroke="#C6A281" stroke-width=".5" stroke-miterlimit="10" d="M26.2 16c.1-.1.4-.3.8-.6.3-.2.6-.5.8-.6.2-.2.5-.4.9-.7.4-.3.6-.6.6-.9.1-1.5.2-2.7.3-3.5.1-1.3.3-2.4.5-3.5.1-.3.2-.8.5-1.6.2-.7.1-1.2-.1-1.6-.2-.4-.5-.8-.9-1.1-.4-.3-.8-.6-1.2-.8-.8-.1-1.3-.1-1.8 0-.7.2-1.4.8-2 1.7-.4.5-.6.9-.8 1.2-.3.5-.6.9-.8 1.2 0 0-.2.3-.4.8-.1.4-.3.7-.5.8-.1.2-.4.3-.7.5-.5.2-.7.4-.8.4-.4.2-.9.4-1.5.5-.7.1-1.2.2-1.5.3-.6.2-1 .3-1.2.5-.4.3-.7.6-.7 1 0 .3.1.4.4.5.2.1.5.1.8.1h.8c-.2.4-.1.8.2 1.2.3.3.7.5 1.1.5 0 0 0 .2-.1.6 0 .1 0 .2.1.3l.2.2c.1.1.4.3.7.4.4.2.6.3.7.4.2.1.5.2.8.2.2 0 .5-.1.9-.1.7-.1 1.4-.1 2.2-.2-.4.4-.6.7-.7.8-.3.2-.6.4-.9.4-.2 0-.8 0-1.9-.1-.8-.1-1.4 0-1.8.3-.2.1-.4.3-.5.5-.1.2-.1.4 0 .6.1.1.3.2.7.3.5.1.7.1.8.1.2.1.4.1.5.2.4.1 1 .2 1.6.2.4 0 .9 0 1.7.1.4 0 .8-.1 1.2-.4.2-.4.6-.7 1-1.1z"/><path fill="#C6A281" d="M22.7 9.4l-.2.1c-.3.1-.3.2-.4.2-.1.1-.2.1-.2.1l-.5.2c-.2.1-.4.1-.6.1l-.8-.1h-2.2v.5h2.2s.1 0 .7.1c.3 0 .6 0 .9-.1l.5-.2c.1 0 .2-.1.3-.2 0 0 .1 0 .3-.1.2-.1.3-.1.3-.2l-.3-.4zM24.3 11.6c-.3 0-.8.1-1.3.3-.2.1-.6.2-1.2.4-.2.1-.4.2-.5.2-.2.1-.3.1-.4 0-.2-.1-.4-.2-.5-.2l-.6-.2h-.5c-.2 0-.3 0-.4-.1l-.2.4c.1.1.3.1.5.1h.4c.1 0 .3.1.5.1.1 0 .3.1.5.2s.5.1.7 0c.1 0 .3-.1.6-.2l1.1-.4c.4-.1.8-.2 1.1-.3l.2-.3z"/><path fill-rule="evenodd" clip-rule="evenodd" fill="#F7E7CB" stroke="#C6A281" stroke-width=".5" stroke-miterlimit="10" d="M-17.9 9c-.1-.1-.1-.1-.1-.2.1 0 .2-.1.4-.2l.3-.3c.1-.3.1-.6 0-.9-.2-.4-.5-.6-.7-.8-.3-.2-.7-.6-1.2-1.1-.1-.1-.4-.4-.8-.7-.3-.3-.6-.5-.8-.7-.2-.2-.5-.6-1-1.2-.4-.5-.8-.9-1-1.2l-.6-.6c-.3-.2-.5-.5-.6-.6 0-.1-.1-.2-.3-.4v-.1h-4.2c-.4.5-.7.9-.8 1.1-.2.2-.3.3-.3.4-.3.2-.4.4-.4.5-.1.5-.1 1 .1 1.6.1.4.2.9.5 1.5.2.4.3.9.4 1.5.1.7.2 1.2.3 1.6.3 1 .4 1.7.5 2.2 0 .4.1.8.2 1.2.1.5.3.8.4 1.1.2.2.5.6.9 1.2.4.5.7.9.9 1.2.3.4.6 1 .9 1.8 0 .1.1.4.2.8s.2.6.3.8c.1.2.3.3.6.2.2-.1.4-.2.6-.4.2-.2.3-.5.4-.9v-1c0-.3 0-.7-.2-1-.1-.2-.2-.5-.5-1h.3c.1.2.4.4.7.6.3.3.6.5.7.6.3.3.7.4 1.1.3.2 0 .7-.1 1.2-.1.5-.1.8-.2 1.1-.5.2-.2.2-.5.1-.9-.1-.3-.3-.5-.5-.8h.5l.5-.2c.3-.1.5-.3.6-.6.2-.3.1-.6 0-1-.1-.3-.4-.5-.6-.8.2.1.3.1.6-.1.2-.2.3-.4.4-.5 0-.2 0-.4-.1-.7-.1-.3-.2-.5-.4-.6l-.6-.1z"/><path fill="#C6A281" d="M-25.7 12.6l-.3.4.9.6c.8.6 1.4 1 1.8 1.3l.3-.4c-.4-.3-1-.8-1.8-1.4-.3-.1-.7-.3-.9-.5zM-22.4 11.6l-.4.3.5.7c.2.3.4.5.6.6.4.4.8.6 1.1.6h1.2l.4.1v-.5h-.2c-.2 0-.3-.1-.4-.1h-.9c-.1 0-.4-.1-.8-.5-.2-.1-.4-.3-.6-.6l-.5-.6zM-21.1 9.5l-.3.4c.2.1.5.4.8.7.4.4.7.6 1 .8.2.1.5.2.9.1h.7l.1-.5c-.2 0-.5-.1-.9 0-.3 0-.5 0-.7-.1-.2-.1-.5-.4-.9-.7-.2-.3-.5-.6-.7-.7zM-19.5 7.9l-.3.4c.2.2.5.3.9.5s.7.3.9.4l.3-.4c-.2-.1-.5-.2-.9-.5-.5-.1-.7-.3-.9-.4z"/><path fill-rule="evenodd" clip-rule="evenodd" fill="#38A5C6" stroke="#2D85A0" stroke-width=".75" stroke-miterlimit="10" d="M-28.6 0h-6.2l.1.1.8.8c.4.4.8.7 1.1 1 .3.2.6.5.9.6.1.1.3.1.5.3.2.1.4.1.5 0 .2-.1.2-.2.3-.4 0-.1 0-.3.1-.5l.3-.5c.1-.1.2-.2.5-.4.5-.4.8-.7.8-.7l.3-.3zM35.2 0h-9l-.3.4c-.1.2-.2.4-.2.5 0 .2.1.3.4.3h.5c1 .2 1.8.5 2.6 1.1.2.1.3.3.5.5.1.1.2.3.4.6.1.2.2.4.2.5v.6c.1.1.2.2.3.2 0 0 .1 0 .2-.1.5-.4.9-.8 1.4-1.5.1-.2.3-.3.6-.5.3-.3.5-.4.6-.5l.6-.6c.4-.4.7-.8.9-1.2.2-.1.3-.2.3-.3z"/><path d="M-4.8 41.2h-.2c-.1 0-.2 0-.5.2l-.3.1-.2-.2c-.1-.1-.3-.1-.6.1s-.4.4-.4.6c0 .2 0 .4.1.6.2.6.4.9.4 1.2.4 1.2.5 2.2.4 2.9 0 .4-.1.7-.1.9-.1.3-.2.5-.4.7-.5.4-1.2.6-2.1.5-.9-.1-1.5-.4-1.9-.9l-.4.3c.5.6 1.2 1 2.2 1.1 1 .1 1.8-.1 2.4-.6.3-.2.4-.5.6-.9.1-.2.1-.6.1-1 .1-.8-.1-1.8-.4-3-.1-.2-.2-.6-.5-1.2-.1-.1-.1-.3-.1-.4 0-.2.1-.2.1-.3l.1-.1s.1.1.3.2l.1.1.5-.2.6-.2c.2 0 .4 0 .6.1-.2.2-.1.4-.1.5.1.1.3.2.5.2s.4-.1.4-.2c.1-.2 0-.3-.1-.5.1 0 .3 0 .5.2.2.1.3.3.3.4 0 .1 0 .2-.1.3l.4.3c.2-.2.2-.5.2-.7 0-.3-.2-.5-.6-.7-.5-.3-.9-.3-1.2-.2 0-.2-.3-.2-.6-.2z"/><path fill-rule="evenodd" clip-rule="evenodd" fill="#20759E" stroke="#000" stroke-width=".5" stroke-miterlimit="10" d="M-1.6 47.6c0 .3 0 .5.2.7.1.2.3.3.6.4.2 0 .4 0 .6-.2.2-.2.3-.4.3-.7 0-.3 0-.5-.2-.7-.1-.2-.3-.3-.6-.4-.2 0-.4 0-.6.2-.2.2-.3.4-.3.7zM-9 46.8c0 .3 0 .5.2.7.1.2.3.3.5.3s.4-.1.5-.3c.2-.2.3-.4.3-.7 0-.3 0-.5-.2-.7-.1-.2-.3-.3-.5-.3s-.4.1-.5.3c-.2.2-.3.4-.3.7z"/><path d="M-3.5 48.6l-.4.3c.2.2.4.4.7.6.8.5 1.9.7 3.2.8h1c.4 0 .8-.1 1.1-.1l-.1-.5c-.2.1-.6.1-1 .1h-1c-1.2 0-2.2-.3-2.9-.7l-.6-.5zM-10 46.8c-.1.4.1.8.4 1 .2.2.6.2 1 .2s.9 0 1.3-.2c.4-.1.8-.2 1.2-.5l-.2-.3c-.4.2-.8.3-1.1.4-.4.1-.8.1-1.2.1-.3 0-.6-.1-.7-.2-.2-.1-.2-.3-.2-.5h-.5zM2 47.3c-.1.4-.4.6-.8.8-.1.1-.5.2-1.4.3-.5.1-.9 0-1.3-.1s-.7-.4-.9-.7l-.4.2c.2.5.6.8 1.2 1 .4.1.9.2 1.5.1.7-.1 1.2-.2 1.5-.3.6-.2.9-.6 1.1-1.1l-.5-.2zM-4.8 37.3c-.4 0-.8.1-1.1.3l.3.4c.4-.3.9-.3 1.5-.1.6.2.9.5 1.1.9l.5-.1c-.2-.6-.7-1-1.4-1.2-.4-.2-.6-.2-.9-.2z"/></g></symbol><symbol viewBox="-6.9 -6.4 13.9 12.9"><path fill-rule="evenodd" clip-rule="evenodd" fill="#D52222" d="M0 4.1c.2.7.5 1.2 1.1 1.7.6.5 1.3.7 2.1.7 1 0 1.9-.3 2.7-1 .7-.7 1.1-1.6 1.1-2.6 0-1.6-.8-3.2-2.4-5-.1-.2-1.6-1.6-4.4-4.2 0-.1-.1-.1-.2-.1s-.2 0-.2.1c-2.8 2.6-4.3 4-4.3 4.1-1.6 1.8-2.4 3.5-2.4 5 0 1 .4 1.8 1.1 2.6.7.7 1.6 1 2.7 1 .8 0 1.4-.2 2-.7.6-.4.9-1 1.1-1.6z"/></symbol><symbol id="b" viewBox="-50 -75 100 150"><path fill="#F0F7E6" d="M-43.9-75c-3.1 0-6.1 3-6.1 6.1v137.8c0 3.1 3 5.1 6.1 5.1h87.8c3.1 0 5.1-2 5.1-5.1v-137.8c0-3.1-2-6.1-5.1-6.1h-87.8z"/><path d="M43.9 74c2.8 0 5.1-2.3 5.1-5.1v-137.8c0-2.8-2.3-5.1-5.1-5.1h-87.8c-2.8 0-5.1 2.3-5.1 5.1v137.8c0 2.8 2.3 5.1 5.1 5.1h87.8m0 1h-87.8c-3.4 0-6.1-2.7-6.1-6.1v-137.8c0-3.4 2.7-6.1 6.1-6.1h87.8c3.4 0 6.1 2.7 6.1 6.1v137.8c0 3.4-2.7 6.1-6.1 6.1z"/></symbol><symbol id="f" viewBox="-41 -66 82 132"><g fill-rule="evenodd" clip-rule="evenodd" fill="#1A171B"><path d="M-40-41h-1v82h1zM41-41h-1v82h1zM34 66h-68v-1h68zM34-65h-68v-1h68z"/></g><path stroke="#1A171B" stroke-miterlimit="10" fill="none" d="M-40.5 0h81"/></symbol><symbol viewBox="-7.6 -7.6 15.2 15.2"><path fill-rule="evenodd" clip-rule="evenodd" fill="#FFA001" d="M7.4-.3c-1.4-.9-2.7-2-3.9-3.2-1.2-1.2-2.3-2.5-3.2-3.9 0-.1-.2-.2-.3-.2-.1 0-.2.1-.3.2-.9 1.4-2 2.7-3.2 3.9-1.2 1.2-2.5 2.3-3.9 3.2-.1.1-.2.2-.2.3 0 .1.1.3.2.3 1.4.9 2.7 2 3.9 3.2 1.2 1.2 2.3 2.5 3.2 3.9.1.1.2.2.3.2.1 0 .3-.1.3-.2.9-1.4 2-2.7 3.2-3.9 1.2-1.2 2.5-2.3 3.9-3.2.1 0 .2-.2.2-.3 0-.1-.1-.2-.2-.3z"/></symbol><symbol id="d" viewBox="-2.8 -6 5.6 12"><path fill-rule="evenodd" clip-rule="evenodd" fill="#000000" d="M1.1-1.3c-.1.3-.2.5-.4.6-.2.1-.6.2-1 .2h-.7v-3.8h.7c.5 0 .8.1 1 .3.2.2.3.4.4.7 0 .3.1.6.1 1 0 .5-.1.8-.1 1zm-.3 5.3c-.2.3-.6.4-1.2.4h-.6v-3.3h.8c.6 0 .9.1 1.1.4.2.3.3.7.3 1.3 0 .5-.1.9-.4 1.2zm1.9-2.5c-.1-.3-.3-.5-.4-.7l-.7-.5c.4-.2.7-.5.9-.8.2-.4.3-.9.3-1.5v-.7c0-1-.2-1.9-.8-2.4-.5-.6-1.3-.9-2.4-.9h-2.3v12h2.5c.7 0 1.3-.1 1.8-.4.5-.3.8-.7 1-1.1.1-.5.2-1 .2-1.5v-.5c0-.4-.1-.7-.1-1z"/></symbol><use xlink:href="#b" width="100" height="150" x="-50" y="-75" transform="matrix(1 0 0 -1 50 75)" overflow="visible"/><g><g><use xlink:href="#c" width="9.1" height="9.7" x="-4.6" y="-4.8" transform="matrix(-1 0 0 1 90 122)" overflow="visible"/><use xlink:href="#c" width="9.1" height="9.7" x="-4.6" y="-4.8" transform="matrix(-1 0 0 1 10 122)" overflow="visible"/><use xlink:href="#c" width="9.1" height="9.7" x="-4.6" y="-4.8" transform="matrix(1 0 0 -1 90 28)" overflow="visible"/><use xlink:href="#c" width="9.1" height="9.7" x="-4.6" y="-4.8" transform="matrix(1 0 0 -1 10 28)" overflow="visible"/><use xlink:href="#d" width="5.6" height="12" x="-2.8" y="-6" transform="matrix(-1 0 0 1 90 136)" overflow="visible"/><use xlink:href="#d" width="5.6" height="12" x="-2.8" y="-6" transform="matrix(-1 0 0 1 10 136)" overflow="visible"/><use xlink:href="#d" width="5.6" height="12" x="-2.8" y="-6" transform="matrix(1 0 0 -1 90 14)" overflow="visible"/><use xlink:href="#d" width="5.6" height="12" x="-2.8" y="-6" transform="matrix(1 0 0 -1 10 14)" overflow="visible"/><use xlink:href="#e" width="81" height="66.1" x="-40.5" y="-.5" transform="matrix(-1 0 0 1 50 75)" overflow="visible"/><use xlink:href="#e" width="81" height="66.1" x="-40.5" y="-.5" transform="matrix(1 0 0 -1 50 75)" overflow="visible"/><use xlink:href="#f" width="82" height="132" x="-41" y="-66" transform="matrix(1 0 0 -1 50 75)" overflow="visible"/><use xlink:href="#a" width="14.1" height="14.9" x="-7" y="-7.5" transform="matrix(-1 0 0 1 78.5 129)" overflow="visible"/><use xlink:href="#a" width="14.1" height="14.9" x="-7" y="-7.5" transform="matrix(1 0 0 -1 21.5 21)" overflow="visible"/></g></g></svg>
