<svg xmlns="http://www.w3.org/2000/svg" xmlns:xlink="http://www.w3.org/1999/xlink" viewBox="0 0 100 150" enable-background="new 0 0 100 150"><symbol viewBox="-7.3 -7.3 14.6 14.6"><path fill-rule="evenodd" clip-rule="evenodd" d="M1.7 2.6c-.7-.8-1-1.4-1.1-2 .6.1 1.3.4 2 1.1.7.6 1.4.9 2.1.9.7 0 1.3-.3 1.9-.8.5-.5.7-1.1.7-1.8s-.3-1.3-.8-1.9c-.5-.4-1.1-.7-1.8-.7s-1.4.3-2.1 1c-.8.7-1.4 1-2 1.1 0-1.4 0-2.5.1-3.3.2-1.5.6-2.5 1.1-3.2.1-.1.1-.1 0-.2 0-.1-.1-.1-.2-.1-.6.1-1.1.2-1.6.2s-1-.1-1.7-.2c-.1 0-.1 0-.2.1s-.1.1 0 .2c.6.7.9 1.7 1.1 3.1.1.9.2 2 .2 3.3-.5 0-1.2-.4-2-1-.7-.7-1.4-1-2.1-1-.7 0-1.3.3-1.9.8-.5.5-.7 1.1-.7 1.8s.3 1.3.8 1.8c.5.6 1.1.8 1.8.8s1.4-.3 2.1-.9c.8-.7 1.4-1 2-1.1-.1.6-.4 1.3-1.1 2-.6.8-.9 1.4-.9 2.1 0 .7.3 1.3.8 1.9.5.5 1.1.7 1.8.7s1.3-.3 1.9-.8c.4-.5.7-1.1.7-1.8s-.3-1.3-.9-2.1z"/></symbol><symbol viewBox="-7 -7.5 14.1 14.9"><path fill-rule="evenodd" clip-rule="evenodd" fill="#008C00" d="M5.9-2.9c-.8-.7-1.7-1-2.8-1-.9 0-1.7.3-2.4.9h-.1c.1-1.9.5-3.2 1.2-4.1.1-.1.1-.1 0-.2 0-.1-.1-.1-.2-.1-.6.1-1.1.1-1.6.1s-1-.1-1.7-.2c-.1 0-.2 0-.2.1-.1.1-.1.1 0 .2.7.8 1.1 2.2 1.3 4.1h-.1c-.7-.6-1.5-.9-2.4-.9-1.1 0-2 .4-2.8 1.1-.7.7-1.1 1.5-1.1 2.5 0 1.3.8 2.6 2.5 4.1.9.8 2.4 2 4.3 3.6 0 .1.1.2.2.2s.2 0 .3-.1c.8-.8 2.2-2 4.3-3.6 1.6-1.5 2.4-2.9 2.4-4.2 0-1-.4-1.8-1.1-2.5z"/></symbol><symbol id="a" viewBox="-6.9 -6.4 13.9 12.9"><path fill-rule="evenodd" clip-rule="evenodd" fill="#D52222" d="M0 4.1c.2.7.5 1.2 1.1 1.7.6.5 1.3.7 2.1.7 1 0 1.9-.3 2.7-1 .7-.7 1.1-1.6 1.1-2.6 0-1.6-.8-3.2-2.4-5-.1-.2-1.6-1.6-4.4-4.2 0-.1-.1-.1-.2-.1s-.2 0-.2.1c-2.8 2.6-4.3 4-4.3 4.1-1.6 1.8-2.4 3.5-2.4 5 0 1 .4 1.8 1.1 2.6.7.7 1.6 1 2.7 1 .8 0 1.4-.2 2-.7.6-.4.9-1 1.1-1.6z"/></symbol><symbol id="c" viewBox="-4.5 -4.2 9 8.4"><use xlink:href="#a" width="13.9" height="12.9" x="-6.9" y="-6.4" transform="scale(.65)" overflow="visible"/></symbol><symbol id="e" viewBox="-40.4 -0.4 80.8 65.8"><g clip-rule="evenodd" stroke="#871818"><path fill-rule="evenodd" fill="#C42A1F" stroke-width=".75" d="M40 16v-16h-80v15.4c.8.6 1.7 1 2.4 1.6 1.9 1.5 3.2 3.5 4.9 5.3.9 1 2 1.9 3.1 2.7 1 .8 2 1.6 3.1 2.1 2.3 1 5 1.2 7.5 1.7 2.6.5 5.1 1.2 7.8 1.7 2.8.5 5.6.9 8.4 1.3 6.1.8 12.1 1.4 18.2-.2l5.7-1.7c2.2-.6 4.4-1.2 6.3-2.2.9-.5 1.6-.8 2.6-1 .8-.2 1.6-.4 2.3-.9 1.9-1.1 3.6-2.9 4.8-4.9l-.1.1.1-.2s0-.1.1-.1l2.8-4.7z"/><path stroke-width="1.93" d="M24.1 0v.3c-.2 4.3 4.5 8.2 8 9.9 2.1 1 4.5 1.1 6.8.8.4 0 .8-.1 1.1-.2M40 3.6c-2.7 1.2-5.4 3.6-8.8 2.9-1.9-.4-3.3-1.8-4.4-3.3M36.9 16.4c-4.2-.3-7.6-3.3-10.4-6.2-1.5-1.6-2.9-3.1-3.7-5.2-.3-.8-.7-1.7-.9-2.6-.2-.9-.5-1.7-.6-2.7M-26.2.2c.1 1.4-.2 2.3-1.2 3.7-1 1.3-3.2 1.9-4.7 2.2-1.5.4-4.2-.4-5.1-1.8-1-1.5-.1-2.7-.5-4.4M-39.3.2c.2 1.6.2 6.9.8 8 .8 1.5 2 2.9 3.4 3.9 1.3.9 2.9 1.6 3.9 2.9" fill="none"/></g><g clip-rule="evenodd"><path fill-rule="evenodd" fill="#FDE826" stroke="#000" stroke-width=".5" d="M14.4 24.3c-3.7-3.8-7.7-7.3-11.9-10.4l-3.2-2.3c-.1-.1-1.2-.8-1.2-.8-.1.1-.2.3-.4.4-.7.9-1.4 1.8-2.1 2.6 5.9 3.9 11.4 8.4 16.4 13.5l2.4-3z"/><path stroke="#9E9600" stroke-width=".483" stroke-linejoin="round" stroke-miterlimit="3" d="M13.9 24.9c-3.2-3.3-6.6-6.3-10.2-9.1-1.8-1.4-3.7-2.7-5.6-4-.7-.5-.6-.4-1.1.2l-.9 1.1c6 3.9 11.5 8.4 16.4 13.5l1.4-1.7z" fill="none"/><path fill-rule="evenodd" fill="#FDE826" stroke="#000" stroke-width=".5" d="M-16.9 34.8c4.4-8.5 9.5-16.6 15.2-24.3-.7-.4-1.3-.8-1.9-1.2-.4-.2-.8-.4-1.1-.7-.5-.3-.8.6-1.1 1-2.5 3.4-4.9 6.9-7.1 10.5-2.2 3.6-4.3 7.2-6.3 10.9-.1.3-1 1.6-.8 1.7l1.1.7c.6.5 1.3 1 2 1.4z"/><path stroke="#9E9600" stroke-width=".483" stroke-linejoin="round" stroke-miterlimit="3" d="M-17.6 34.4c4.4-8.5 9.5-16.6 15.2-24.3-.6-.4-1.1-.7-1.6-1-.5-.3-.6.3-.9.7l-1.5 2.1c-2 2.8-3.9 5.7-5.8 8.7-1.8 3-3.6 6-5.3 9l-1.2 2.3c-.2.3-.9 1.2-.5 1.4.5.4 1 .7 1.6 1.1z" fill="none"/></g><path fill-rule="evenodd" clip-rule="evenodd" fill="#FDE826" d="M-6.2 12.2h5l-.8-4.5-.3-1.8c0-.1-1.7 0-1.8 0h-1.8c-.1.6-.1 1.2-.1 1.8l-.2 4.5z"/><path fill-rule="evenodd" clip-rule="evenodd" fill="#9E9600" d="M-1.5 7.4c0-.6-1-.6-1 0s1 .6 1 0c-.1-.2 0 .1 0 0zM-1.4 8.3c0-.6-1-.6-1 0 .1.6 1.1.7 1 0 0-.1.1.2 0 0zM-1.2 9.3c0-.6-1-.6-1 0 .1.6 1.1.7 1 0zM-1 10.3c0-.6-1-.6-1 0 .1.6 1.1.6 1 0zM-.8 11.3c0-.6-1-.6-1 0 .1.6 1 .7 1 0zM-.8 12.2c0-.6-1-.6-1 0 .1.6 1 .6 1 0zM-5.7 12.1c0-.6-1-.6-1 0 .1.6 1.1.6 1 0zM-5.7 11.1c0-.6-1-.6-1 0 .1.6 1.1.6 1 0 0-.1.1.1 0 0zM-5.6 10.1c0-.6-1-.6-1 0 .1.6 1.1.7 1 0zM-5.6 9.1c0-.6-1-.6-1 0 .1.7 1.1.7 1 0zM-5.6 8.2c0-.6-1-.6-1 0 .1.6 1.1.6 1 0 0-.2.1.1 0 0zM-5.5 7.2c0-.6-1-.6-1 0 .1.6 1.1.6 1 0z"/><path clip-rule="evenodd" stroke="#9E9600" stroke-width=".483" d="M-2.4 11.1c-.2-1.3-.4-2.7-.5-4 0-.2 0-1.3-.2-1.4-.3-.2-1.5 0-1.9 0v4.5c0 .4-.2 1 .3 1 .7-.1 1.5-.1 2.3-.1z" fill="none"/><path fill-rule="evenodd" clip-rule="evenodd" fill="#FDE826" d="M-2.4 0h-4.5c.2 1.2.4 2.5.7 3.7h2.8c.9 0 .9.2.9-.7l.1-3z"/><path fill-rule="evenodd" clip-rule="evenodd" fill="#9E9600" d="M-6.9 2.3c.1.6 1 .6 1 0-.1-.6-1.1-.7-1 0zM-7.1 1.3c0 .6 1 .6 1 0-.1-.6-1-.7-1 0zM-7.3.3c.1.6 1 .6 1 0s-1-.7-1 0zM-2.9.5c.1.6 1 .6 1 0-.1-.6-1-.7-1 0zM-2.9 1.5c.1.6 1 .6 1 0-.1-.6-1.1-.7-1 0zM-3 2.4c.1.6 1 .6 1 0 0-.5-1-.6-1 0 .1.2 0-.1 0 0z"/><path clip-rule="evenodd" stroke="#9E9600" stroke-width=".483" d="M-3.4 3.9v-3.9h-2.4l.5 3.9h1.9z" fill="none"/><path fill-rule="evenodd" clip-rule="evenodd" fill="#FDE826" d="M-11.8 2.3c.1 1.7.2 3.3.4 5 1.5-.1 3-.3 4.4-.4l1.8-.2c.1 0-.1-1.7-.1-1.8 0-.2-.1-1.9-.1-1.9-.6 0-1.2-.1-1.8-.2-1.6-.1-3.1-.3-4.6-.5z"/><path fill-rule="evenodd" clip-rule="evenodd" fill="#9E9600" d="M-6.6 7.3c.6 0 .5-1-.1-1-.6.1-.5 1 .1 1zM-7.6 7.4c.6 0 .5-1-.1-1-.6.1-.5 1 .1 1zM-8.6 7.5c.6 0 .5-1-.1-1-.6.1-.5 1 .1 1zM-9.5 7.6c.6 0 .5-1-.1-1-.6.1-.5 1 .1 1zM-10.5 7.7c.7 0 .5-1-.1-1-.6.1-.5 1 .1 1zM-11.4 7.7c.6 0 .5-1-.1-1-.6.1-.5 1 .1 1zM-11.5 6.7c.6 0 .5-1-.1-1-.6.1-.5 1 .1 1zM-11.5 5.7c.7 0 .5-1-.1-1-.6.1-.5 1 .1 1zM-11.6 4.7c.6 0 .5-1-.1-1-.6.1-.5 1 .1 1zM-11.7 3.7c.6 0 .5-1-.1-1-.6.1-.5 1 .1 1zM-11.7 2.8c.6 0 .5-1-.1-1-.6.1-.5 1 .1 1zM-10.7 2.9c.6 0 .5-1-.1-1-.6.1-.5 1 .1 1zM-9.7 3c.6 0 .5-1-.1-1-.6.1-.5 1 .1 1zM-8.7 3.1c.6 0 .5-1-.1-1-.6.1-.5 1 .1 1zM-7.7 3.3c.6 0 .5-1-.1-1s-.5 1 .1 1zM-6.7 3.4c.6 0 .5-1-.1-1s-.5 1 .1 1z"/><path clip-rule="evenodd" stroke="#9E9600" stroke-width=".483" d="M-10.4 6.2c1.8-.2 3.6-.3 5.4-.4l-.1-1.9c0-.1-1.2-.1-1.3-.1-1.4-.1-2.8-.2-4.1-.3 0 .9 0 1.8.1 2.7z" fill="none"/><path fill-rule="evenodd" clip-rule="evenodd" fill="#FDE826" d="M3.3 7.3c-.1-1.7-.2-3.4-.3-5l-4.5.4-1.8.2c-.1 0 .1 1.7.1 1.8 0 .1.1 1.8.1 1.8l1.8.2c1.6.2 3.1.4 4.6.6z"/><path fill-rule="evenodd" clip-rule="evenodd" fill="#9E9600" d="M-1.9 2.3c-.6 0-.5 1 .1 1 .7 0 .5-1-.1-1zM-.9 2.2c-.6 0-.5 1 .1 1 .6-.1.5-1-.1-1zM.1 2.1c-.6 0-.5 1 .1 1 .6-.1.5-1-.1-1zM1.1 2c-.6 0-.5 1 .1 1 .6-.1.5-1-.1-1zM2.1 1.9c-.6 0-.5 1 .1 1 .6-.1.5-1-.1-1zM2.9 1.9c-.6 0-.5 1 .1 1s.5-1-.1-1zM3 2.9c-.6 0-.5 1 .1 1 .6-.1.5-1-.1-1zM3.1 3.9c-.6 0-.5 1 .1 1 .6-.1.5-1-.1-1zM3.1 4.9c-.6 0-.5 1 .1 1 .7-.1.5-1-.1-1zM3.6 6.7c.4-.4-.3-1.1-.7-.7-.4.4.3 1.1.7.7zM3.2 6.8c-.6 0-.5 1 .1 1 .6-.1.5-1-.1-1zM2.2 6.7c-.6 0-.5 1 .1 1 .6-.1.5-1-.1-1zM1.2 6.6c-.6 0-.5 1 .1 1 .6-.1.5-1-.1-1zM.2 6.5c-.6 0-.5 1 .1 1 .6-.1.5-1-.1-1zM-.8 6.4c-.6 0-.5 1 .1 1 .6-.1.5-1-.1-1zM-1.4 6.4c-.5-.5-1.1.2-.6.7.4.4 1.1-.3.6-.7z"/><path clip-rule="evenodd" stroke="#9E9600" stroke-width=".483" d="M-3.4 3.8l.1 1.9c0 .1 1.2.1 1.3.1 1.4.1 2.8.2 4.1.3 0-.8-.1-1.5-.1-2.2 0-.6-.3-.4-.8-.4-1.6.1-3.1.2-4.6.3z" fill="none"/><path fill-rule="evenodd" clip-rule="evenodd" fill="#FDE826" stroke="#000" stroke-width=".25" d="M-1.7 3.6c-.6-.6-1.5.3-.9 1 .7.6 1.6-.4.9-1-.1-.1.2.1 0 0zM-1.5 4.8c-.6-.6-1.5.3-.9 1 .7.5 1.5-.4.9-1zM-1.7 6.4c-.1-.8-1.4-.9-1.3 0 .1.9 1.4.9 1.3 0 0-.1.1.2 0 0zM-3 6.5c-.7-.6-1.5.3-.9 1 .7.6 1.6-.4.9-1-.1-.1.2.1 0 0zM-4.2 6.6c-.6-.6-1.4.3-.8.9.6.6 1.5-.3.8-.9-.1-.1.2.1 0 0zM-5.3 7c.6-.6-.4-1.5-1-.9s.4 1.6 1 .9c.1-.1-.1.2 0 0zM-6 5c-.6-.6-1.5.3-.9.9.7.6 1.6-.3.9-.9-.1-.2.2.1 0 0zM-6.1 3.8c-.6-.6-1.5.3-.9 1 .7.5 1.6-.4.9-1zM-5.7 2.6c-.7-.6-1.5.4-.9 1 .7.6 1.6-.4.9-1zM-5.5 3.1c.6.6 1.5-.4.9-1s-1.5.3-.9 1c.2.1-.1-.2 0 0zM-3.4 2.1c-.7-.6-1.5.3-.9 1 .7.5 1.5-.4.9-1-.1-.2.1.1 0 0zM-2.2 2.6c-.6-.6-1.5.3-.9 1 .7.5 1.6-.5.9-1-.1-.2.1.1 0 0z"/><path fill-rule="evenodd" clip-rule="evenodd" fill="#3F26EF" stroke="#000" stroke-width=".25" d="M-5.5 6c1.7 1.6 4-.9 2.3-2.5-1.7-1.5-4 1-2.3 2.5.4.4-.4-.3 0 0z"/><g fill-rule="evenodd" clip-rule="evenodd" fill="#FDE826" stroke="#9E9600" stroke-width=".5"><path d="M-7.2 10.9c.4 1.1.5 2.3.9 3.5.3.9.9 2.3 2.1 2.4 2.6.2 3.6-5.3 2.1-6.8.2.2-.2 1.3-.3 1.6-.2-.3-.1-1.5-.3-1.6-.3.7-.8 1.3-.9 2 0-1-.1-1.9-.4-2.7-.2.7-.3 1.5-.4 2.2-.1-.7-.3-1.4-.5-2-.2 1-.1 2 .1 2.9-.3-.9-.8-1.7-1.5-2.3.1.8.2 1.6.3 2.3-.6-.3-1-.9-1.2-1.5 0 .1.2.7 0 0zm3.4 1v.1-.1zM-4.7 20.8c.1 1.8.2 3.6.4 5.3.1 1 .3 1.9.5 2.8.1.7 0 1.2.7 1.1.6-.1.5-.1.4-.7l-.1-2.2-.3-6.1c.1-.6.1-1.3.1-2v-.4c0-.2-1.6-.2-1.8-.2 0 .8 0 1.6.1 2.4zM-2.4 17.2c0-1.9-3-1.9-3 0s3 1.9 3 0z"/></g><path fill-rule="evenodd" clip-rule="evenodd" fill="#fff" stroke="#1A171B" stroke-width=".5" d="M13.4 34.1c1.6-2.3-1.5-5.2-3-6.7-1.7-1.8-3.9-3-6.2-4.1l-3.8-1.7c-.3-.1-1.8 3.2-1.9 3.6-.6 1.5-1.1 3.1-1.3 4.7-.8-.8-1.3-2.1-1.7-3.1-.8-1.8-1.5-3.6-2.1-5.4-1.1.9-2.4 1.9-3.3 3-1.4 1.7-1.8 4.1-1.8 6.2 0 1.1 0 2.3.3 3.4.2.7 1.5 1.3 2.2 1.5 1 .3 2-.1 2.9-.5 1-.4 1.2-.8 1.2-1.8 0-2.1 2.1-3.1 3.8-2.9 2.3.2 4.3 1.5 6.1 2.8l4.4 3.3c1.4 1.2 3.4-1.1 4.2-2.3.7-1-.3.4 0 0z"/><path fill-rule="evenodd" clip-rule="evenodd" fill="#BCBCBC" d="M-10.7 33.9c0-.5-.8-.5-.8 0 0 .6.8.6.8 0zM-10.7 32.8c0-.5-.8-.5-.8 0 0 .6.8.6.8 0zM-10.7 31.7c0-.5-.8-.5-.8 0 0 .6.8.6.8 0zM-10.7 30.6c0-.5-.8-.5-.8 0 0 .6.8.6.8 0zM-10.7 29.5c0-.5-.8-.5-.8 0 0 .6.8.6.8 0zM-10.4 28.5c0-.5-.8-.5-.8 0-.1.5.8.5.8 0zM-10.2 27.4c0-.5-.8-.5-.8 0s.8.5.8 0zM-9.8 26.4c0-.5-.8-.5-.8 0-.1.5.8.5.8 0zM-9.2 25.5c0-.5-.8-.5-.8 0s.8.5.8 0zM-8.5 24.6c0-.5-.8-.5-.8 0-.1.5.8.5.8 0zM-7.8 23.8c0-.5-.8-.5-.8 0 0 .6.8.6.8 0zM-7 23.1c0-.5-.8-.5-.8 0s.8.5.8 0zM-6.6 23.9c0-.5-.8-.5-.8 0s.8.5.8 0zM-6.2 24.9c0-.5-.8-.5-.8 0-.1.6.8.6.8 0zM-5.9 26c0-.5-.8-.5-.8 0s.8.5.8 0zM-5.5 27c0-.5-.8-.5-.8 0s.8.5.8 0zM-5 28c0-.5-.8-.5-.8 0s.8.5.8 0zM-4.5 28.9c0-.5-.8-.5-.8 0 0 .6.8.6.8 0zM-3.9 29.9c0-.5-.8-.5-.8 0-.1.5.8.5.8 0zM12.6 32.1c0-.5-.8-.5-.8 0s.8.5.8 0zM12.2 31.1c0-.5-.8-.5-.8 0-.1.6.8.6.8 0zM11.6 30.4c.4-.4-.2-1-.6-.6-.3.4.2 1 .6.6zM11.3 29.1c0-.5-.8-.5-.8 0-.1.6.8.6.8 0zM10.4 28.4c0-.5-.8-.5-.8 0s.8.5.8 0zM9.6 27.7c0-.5-.8-.5-.8 0s.8.5.8 0zM8.8 26.9c0-.5-.8-.5-.8 0 0 .6.8.6.8 0zM8 26.2c0-.5-.8-.5-.8 0-.1.6.8.6.8 0zM7 25.7c0-.5-.8-.5-.8 0s.8.5.8 0zM6.1 25.1c0-.5-.8-.5-.8 0-.1.6.8.6.8 0zM4.4 24.9c.4.4 1-.2.6-.6-.4-.4-1 .2-.6.6zM4.2 24c0-.5-.8-.5-.8 0-.1.6.8.6.8 0zM3.1 23.6c0-.5-.8-.5-.8 0s.8.5.8 0zM2.2 23.1c0-.5-.8-.5-.8 0s.8.6.8 0zM1.2 22.7c0-.5-.8-.5-.8 0-.1.5.8.5.8 0zM.6 23.4c0-.5-.8-.5-.8 0-.1.6.8.6.8 0zM0 24.4c0-.5-.8-.5-.8 0s.8.5.8 0zM-.4 25.4c0-.5-.8-.5-.8 0-.1.5.8.5.8 0zM-.7 26.4c0-.5-.8-.5-.8 0-.1.6.8.6.8 0zM-1.1 27.5c0-.5-.8-.5-.8 0s.8.5.8 0zM-1.4 28.5c0-.5-.8-.5-.8 0 0 .6.8.6.8 0zM-1.6 29.6c0-.5-.8-.5-.8 0s.8.5.8 0z"/><g fill-rule="evenodd" clip-rule="evenodd"><path fill="#fff" stroke="#1A171B" stroke-width=".5" d="M-11.8 29.3v.1c0 1.3.1 2.6 0 3.9v-.4c0 .3 0 .6-.1.9 0-.1-.1-.1-.2-.2 0 .4-.1 1.5.2 1.8.2.2-.5 0-.7-.1l-.3-.3c-.2-.1-.7.2-.7.3-.2-.3-.6.3-.7-.4-.5.6-.6-.5-.9-.5-.2 0-.7.2-.7-.2v.4l-.1.2c-.1 0-.3-.2-.3-.2-.2-.2-.5-.5-.8-.6-.2-.1-1.4-.3-1 .2-.8-.7-1.6-1.6-2.6-2-.6-.2-1.5-.1-1.3.8-.2-.3-1-1.8-1.4-1.1-.3-.4-1.4-.9-1.3-1.4l-.2.5c-.6-.5-1.1-1.3-1.4-2-.2.2-.5.5-.6.7-.4-.9.1-1.4.1-2.3 0 .3-.3.4-.3.6-.1-.4.5-1.2.3-1.6.1-.4 0-1.3-.6-1-.1-.7.1-1.4.4-2l-.2.2c0-.1.6-1.4.6-1.4.3-.9.2-1.6.7-2.5 1-1.7.9-3.3.9-5.2 0 .5.2-.6.2-.6l.1-.7c.1-.5.2-1 .3-1.4.2-1.1.6-2.1.9-3.1.5-2 .4-3.9.7-5.9.1-1 .3-2 .7-2.9h9.2l.1.3c.6 1.6.3 4.5.2 4.6.3 3.4.3 10.5.3 10.6l.1.7c0 .2.4 2.5.4 2.9 0 0 0 2.9.1 4 0 .5-.1 5.5-.1 5.5v.8zM32.7 25.5c-.2-.6-.5-1.1-.8-1.6l-2.8-3.6c0 .1-.1.2-.2.3 0 0-1.7-2.9-2-3.1-.4-.4-.6-1-.8-1.5-.5-1-.9-2-1.7-2.8-.3.6-.7-.5-.7-.7-.4-.8-1.4-1.6-2-2.2-1.7-1.6-3.3-3.3-4.7-5.1-.6-.7-1.3-1.4-1.8-2.2-.4-.6-.9-1.1-1.4-1.6-.4-.4-.7-.5-1.1-.8-.5-.3-.6-.4-.7-.6h-7.9c-.2 1.3.1 2.8.4 4.1.4 2.1 1 4 1.5 6.1.5 2 .4 4.1.7 6.2.4 2.3 1.6 4.5 2.4 6.6.8 2.3 1.7 4.6 2.7 6.9.9 2.1 1.8 4.4 1.9 6.8.1-.3.3-.3.5-.2.5.3.4-.3 1-.3s.8-.4 1.4-.3c.2 0 .3-.1.4-.3.3-.2.7-.2 1-.1.1 0 .9-.6 1-.7.2-.1.5-.5.8-.4.5.1.7.2.8-.4.1.2 2-.4 2.2-.5.3-.2.5-.2.7-.5.2-.3.5-.7.8-.4.5.4.7-.1 1.2-.4.6-.4 1.3-.8 1.8-1.3.3-.4.7-.3 1-.6.4-.3.6-.5.8 0 .1.2 1-1.5 1-1.7.4.5 1.1-1.2 1.4-1.5l.4.4c.1 0 .4-.9.5-1 .5.2.4-.7.3-1z"/><g fill="#1A171B"><path d="M-15.1 25c.4-.2 1.2-1.6.9-2.1.3.5.6 1.1 1 1.5.4.4.8.8 1 1.4 0-1.4-1.1-2.2-1.3-3.4l-.2-.8c-.1 0-.2-.1-.3-.2-.1-.2-.3-.8-.2-1.1v.2c0 .2-.1.9-.3 1-.1 0-.1-.1-.1-.1-.3 1.1-.9 2.1-1 3.3 0-.3-.1-.6 0-.9 0 .7 0 1.4.1 2.1 0-.4.1-.9.4-.9.3-.2-.1 0 0 0zM-12.4 16c-.1.2-.7-2-1.2-1.9-.5.1-.5-.5-.7-.8-.1-.2-.3-.4-.5-.3-.1-.3-.4-.6-.4-1 0 1-.2 1.9-.3 2.8-.1 1 .1 1.9.3 2.8v-.6s.2-.6.2-.8c0-.1.2-.9.3-.6.1-.4-.1-.9.2-1.3-.1.1.8 1.3.9 1.3.1.4.7.5 1.1.5.2 0 .7.2.4.6.2-.3-.2-.9-.3-.7-.3.3 0-.1 0 0zM-14.2 6.9c.3 0 .4.7.5.6.2-.2.3-.9.4-.2.3-.3-.4-1.1-.7-1.3-.7-.4-1.6-1.4-1.6-2.3 0 .7-.1 1.4-.1 2.2v.1c0 .2 0 .4.1.7l.3 1.6c0-.2-.1-.8 0-.9v.1c0-.2.4-1.9.4-1.9.5 0 .6 1.1.7 1.3.5 0 0-.1 0 0zM-17.8 4.6c.2.1.3-.3.3-.4-.1.6-.5-.6-.5-.7l-.3-1.3c-.1-.3.1-1.8-.1-2-.1-.1-1.1 1.5-1.2 1.7 0 .2-.1.9-.5.9s-.7.9-.8 1.3c.1-.3.3-.6.5-.2l.9-.8c.2-.2.2-.7.5-.8-.3.2 1 2.3 1.2 2.3zM6.4 3.2zM6.5 3.1l-.1.1c.1 0 .1 0 .1-.1zM9.2 3.1c0-.7-.4-1.2-.6-1.9-.2.6-.4-.3-.5-.5l-.3-.7h-.8c0 .5-.2 1-.3 1.4 0 .2-.5 1.6-.3 1.8h.2c.6-.6.8-1.4 1-2.1.2.8 1.3 1.1 1.6 2zM9.7 8c.6-.5.9-1.4 1.1-2.2.3.9 1.4 1.2 1.7 2.2-.2-1.8-1.5-3-2.2-4.4.2 1-.1 2-.4 2.9-.1.2-.7 2.1 0 1.5-.1-.1-.2.1-.2 0 .7-.5-.1.2 0 0zM7.6 13.8c.6-.6.9-1.4 1.1-2.2l1.7 2.2c-.1-1.7-1.5-2.9-2.3-4.4.5.8-.1 1.8-.2 2.6-.1.3-.5 1.7-.3 1.8 0 0 .1-.1.2-.1 0 0-.3.2-.2.1.7-.5-.2.2 0 0zM16.3 13.4l-2.1-3.4c.1.4-.5 4.5-.7 4.5.8.1 1.1-1.8 1.2-2.3l1.7 2.2c.1-.4.1-.8-.1-1-.4-1.3.2.3 0 0zM15.8 24.4c.1.2.1.2.2 0 .2.5.4-.4.4-.5.1-.6.3-1.1.3-1.7 0-.8.5.1.6.4l1.4 1.2c-.4-.8-.8-1.7-1.4-2.4-.5-.5-1.3-.8-1.6-1.5.3 1.5.1 3.1.1 4.5.1.2 0-.2 0 0zM14.2 27.8c.4-.3.6-.8.6-1.3l.3.7c.2-.4.4.4.4.6.1.3.6.6.8.8 0-.4-.3-1-.5-1.3l-.6-.6c-.3-.7-.5-1.7-.4-2.4-.2 1.5-1.7 2.9-1.3 4.6.1-.4.3-.8.7-1.1zM17.4 32.3l.2.3c0-.5.2-.9.3-1.4 0 .1.1-.6 0-.7.5.4 1.2.4 1.9.4-.5-.3-1-.7-1.5-.8-.5-.2-.8-.3-.8-.9 0 1-.6 2.4-.1 3.1.1.2-.1 0 0 0zM29.2 26.5c0 .1.2.6.3.2 0 .2.1.3.2.4 0-.1-.1-.7-.1-.6-.1.1-.2-.3-.3-.4-.2-.4-.1-.4-.4-.2-.1.1-.7-1.1-.7-1.2-.3-.4-.8-.5-1-.9.4 1.1-.4 2.1-.6 3.1-.2 1 .8-.1.9-.5.2-.6.2-1.3.7-.5.1.2.2.7.4.7.3.1.5-.3.6.2v-.3zM26.7 21.4c.1.2.5-.3.6.3 0-.1 0-.2.2-.3.1 0 .4.8.4.8-.1-.5-.4-1-.7-1.4-.3-.4-.4-1-.8-1.3-.3-.2-.4.3-.7 0l-.4-.8c.4.6.1 1.5-.1 2.1 0 .1-.6 1.8-.4 1.7.4-.1 1.4-1.9 1.2-2 0 .5.4.6.7.9.1.2-.2-.2 0 0zM-14.7 31.9c.2.1.3 0 .2-.2 0 .5-.3-.7-.3-.7-.3-.5-.7-.6-.9-1.2-.1-.2-.7-1.9-.8-1.6-.1-.3-.3-.7-.2-1 0 .3 0 .8-.2 1.1 0-.3-.2.4-.2.5l-.2.9c-.3 1-.4 2.1-.3 3.1.3-1 1.1-1.9 1.1-3 .1.8 1 1.2 1.2 1.9.1.7.5-.3.6.2.2 0-.1-.2 0 0zM8.3 19.3c.2.3.7.4 1.1.7-.2-.3-.3-.6-.3-1-.1-.5-.3-.7-.6-1.1-.3-.3-1.3-.4-1.3-.9 0 .2 0 .8.2 1 0 0 .1 0 .1-.1.3.3.5 1 .8 1.4z"/></g></g><g clip-rule="evenodd" stroke="#ACA132"><path fill-rule="evenodd" fill="#50370E" stroke-width=".5" d="M-4.9 36.7c.8-2.5-2-3.7-3.9-2.8-.5.2-.8.8-1.3.7-.5-.2-1.1-.3-1.6-.3-1 0-1.8.9-1.5 2 .3 1.1 1.1 1.8.7 3-.4 1.1-.5 2 .2 3.1.6 1 1.4 1.9 1.6 3 .1 1.1-.7 1.9.2 2.9.7.8 1 1.5 1.1 2.6 0 .9-.1 2.5.9 2.9.8.4 2.3 0 2.4-1 .1-1.1-.5-2.3-.7-3.4-.2-1.3-.4-2.7-.3-4 .1-1 .2-2 .1-3-.2-2.2 1.4-3.8 2.1-5.7.2-.6-.1.2 0 0z"/><path stroke-width=".483" d="M-8.3 50.6c-.1-1.5-.3-2.7-.9-4.1-.6-1.4-1.4-3-.9-4.6.2-.7.7-1.4.7-2.1 0-.7-.7-1.2-.9-1.9-.4-1.6.1-3.7 1.9-4.2-.4.6-.8 1.3-.9 2.1-.1.8.7 1.8 1.6 1.5-.9 0-1.1-1.4-.9-2.1.3-.8 1.1-.8 1.7-1.2-1.1.9-1.6 3.3.4 3.3m-.4-3.3" fill="none"/></g><g clip-rule="evenodd" stroke="#000"><path fill-rule="evenodd" fill="#F2D8C0" stroke-width=".5" d="M.5 55.9c1.6.1 3.2-.3 4.7-.7 1.3-.3 3.4-.7 4.2-1.9.3-.4.2-1.1.2-1.6 0-1-.1-2.1-.2-3.1-.2-1.8-.5-3.6-.8-5.5l-.5-4.9c0-1.3-1.1-3.2-2.2-4.3-1.8-1.9-4.6-3-7.2-3.5-1.3-.2-2.7.1-3.7 1-1.2 1.1.1 2.2-.3 3.4-.2.7-.8 1.2-1.1 1.9-.4.8-.5 1.6-.8 2.4-.4 1.5-.8 3-1 4.5-.1 1.6-.3 3 .2 4.4.2.5.4 1.3 0 1.8-.4.8-.5 1.5-.4 2.4 0 .8-.1 2.7.9 2.9.9.2 1.8.3 2.7.4 1.8.2 3.6.4 5.3.4 1.9.1-.6 0 0 0z"/><path stroke-width=".483" d="M-.7 34c1.6.2 3.6 1 4.9 2" fill="none"/></g><g fill-rule="evenodd" clip-rule="evenodd" fill="#ACA132" stroke="#50370E" stroke-width=".5"><path d="M-4.9 42.3c1.2.1 3.1.1 4.2-.7.6-.4 1-1.3 1.9-1.1.7.2 1.4.8 1.3 1.6 1.3-.7 0-2.2-1-2.4-1.5-.3-3.1.1-4.5.6-.7.2-1.1.3-1.8 0-.8-.3-1.6-.3-2.4-.2-1.3.3-1.7 1.1-1.5 2.4.3-.4.4-1.2 1-1.3.6-.1.8.2 1.3.5.4.4 1 .6 1.5.6zM-3.5 37.4c.8.1 1.2-.3 1.7-.8.3-.3.7-.6 1.2-.7.5-.1.5-.5.4-.9-.2-1-1.1-1.7-1.7-2.5-.5-.7-.9-1.3-1.9-1.3.8 1.6-1.3 2-1.7 3.2-.1.3-.3.8-.2 1.2 0 .3.6.2.8.4.6.6.4 1.3 1.4 1.4zM5.2 57.5c1.7 1.1 5.3.7 6.4-1.2.7-1.2.6-2.7.6-4 0-1.5.2-2.4 1.2-3.5.8-.9 1.4-1.7 1.8-2.9.2-.6.3-1.2.3-1.9 0-.8-.2-1.6 0-2.4.2-1 .9-1.7 1.1-2.6.3-1.2.3-2.7-.3-3.8-.5-1-1.6-1.3-2.7-1-.5.1-.9.3-1.4.6-.4.2-1.2 1-1.7.8-1-.4-1.6-.8-2.7-.5-1.3.1-2.5.9-2.8 2.4-.1.5-.3 1.4.4 1.4.6 0 1.2-.2 1.8.1 1.2.4.9 1.7.6 2.7-.7 2.4-.7 4.6-.6 7 .1 1.7-.3 3.4-.6 5-.1.9-2.8 2.9-1.4 3.8.4.2-.5-.3 0 0z"/></g><g clip-rule="evenodd" stroke="#000"><path stroke-width=".483" d="M-8.4 51.3c1.2.7 2.9.6 4-.3 1-.8.5-2.2.3-3.2-.2-1.1-.6-2.1-.9-3.2-.5-1.8.8-1.6 2.1-1.7-.7.2.7.3.9.3.4-.5-.8-.3-.9-.3 1.2-.5 2.4 0 2.1 1.4" fill="none"/><path fill-rule="evenodd" fill="#20759E" stroke-width=".5" d="M-.2 49.2c0 1.3 1.7 1.3 1.7.1 0-1.3-1.7-1.3-1.7-.1zM-6.7 49.2c0 1 1.1.9 1.3 0 .2-1.2-1.3-1.2-1.3 0z"/><path stroke-width=".483" d="M4.7 51.1c-1 .5-2.2.6-3.3.7-.9.1-2.1.1-2.7-.7M-3.9 49.6c-1 .3-3.4 1-3.6-.7M3.5 49c-.7 1.8-3.9 1.8-4.7.1M-1.3 39.4c-1.2-.5-2.8-.6-3.8.3" fill="none"/></g><path clip-rule="evenodd" stroke="#50370E" stroke-width=".483" d="M12.4 36.9c-.5.9-1.9-1-1.2-1.6.9-.7 2.5.6 2.7 1.4.3 1.2-.3 2.1-1.3 2.7-1.2.8-1.7 1.4-1 2.8.6 1.1 1.1 2 .8 3.3-.3 1.5-1.1 2.2-2.1 3.3-1.8 2.1-.3 4.7-.8 7.1-.1.6-1.4 2.7-2 1.3-.2-.4.1-1.1.3-1.5.2-.7.4-1.4.5-2.1.4-2.2-.2-4.2-.5-6.4-.2-1.2 0-2.5.5-3.6s1.4-1.9 1.8-3c.4-1 .1-2.4-.8-3.1-1.3-1-2.5.1-3.6.8l-.7.5" fill="none"/><path fill-rule="evenodd" clip-rule="evenodd" fill="#F2DE24" d="M12.8 58.7c-.3-.3-.4-.5-.6-.2-.3.3-.5.6-.8.8.7.6 1.5 1.3 1.8 2.2.4 1.4-1.4 2-2.5 2.1-.7.1-1.4.1-2.1.1l-1.4.1c-2.3.1-4.8.2-7.2.1h-2.1l-3-.1c-1.4-.1-3.5.1-4.7-.8-1.1-.8-.5-2.3.2-3.2.3-.4.3-.3-.1-.6-.2-.2-.5-.4-.8-.6-.8 1-1.4 2-1.3 3.3 0 .5.2 1 .5 1.4l.3.4.2.2c.2.2.5.4.8.5l.2.1.9.3h.2l.9.1h.2l.9.1h14.200000000000005c.3 0 .6 0 .9-.1h1.5l.9-.1h.2l.9-.2c.1 0 .2 0 .2-.1.3-.1.6-.2.8-.4.1 0 .2-.1.2-.2.2-.1.3-.3.5-.5s.3-.4.4-.6c1.1-1.5 0-3.1-1.2-4.1z"/><path fill-rule="evenodd" clip-rule="evenodd" fill="#D62A0D" stroke="#9B1C0B" stroke-width=".25" d="M14.8 59.7c0-.7-1-.5-1 .1.1.7 1 .5 1-.1zM15.3 60.7c0-.6-1-.5-1 .1.1.6 1 .5 1-.1zM15.5 61.8c0-.6-1-.5-1 .1.1.6 1 .5 1-.1zM15.2 62.9c0-.7-1-.5-1 .1 0 .7 1 .5 1-.1zM14.2 64.2c.4-.5-.2-1.1-.7-.6-.4.5.3 1 .7.6zM13.3 64.4c0-.7-.9-.5-.9.1s.9.5.9-.1zM12.2 64.8v-.2c-.2-.4-.9-.2-.9.2v.1h.9v-.1zM11 65v-.1c-.2-.4-.8-.3-.9.1h.9zM9.8 65c-.1-.4-.7-.4-.9 0h.8999999999999999zM8.7 65.1c-.2-.4-.7-.4-.9-.1 0 0 0 .1-.1.1h1zM7.5 65.1s0-.1-.1-.1c-.2-.2-.5-.2-.7 0-.1 0-.1.1-.1.2.3 0 .6 0 .9-.1zM6.3 65.2l-.1-.2c-.2-.1-.4-.1-.6 0l-.2.2h.9zM5.2 65.2c0-.1-.1-.2-.2-.2-.2-.1-.4-.1-.5 0-.1 0-.2.1-.2.3l.9-.1zM4 65.3c0-.2-.1-.3-.2-.3-.1-.1-.3-.1-.4 0-.1 0-.2.2-.3.3h.9zM2.8 65.3c0-.2-.2-.2-.3-.3h-.3c-.1 0-.2.1-.3.3h.9zM1.7 65.3c0-.1-.1-.2-.3-.3h-.4c-.1 0-.2.1-.3.3h1zM.5 65.3c0-.2-.2-.2-.3-.3h-.4c-.1 0-.2.1-.3.3h1zM-.7 65.3c0-.1-.1-.2-.2-.3-.1-.1-.3-.1-.5 0-.1 0-.2.1-.2.3h.9zM-1.8 65.2c0-.1-.1-.2-.2-.2-.2-.1-.4-.1-.6 0-.1 0-.1.1-.2.2h1zM-3 65.2c0-.1-.1-.2-.1-.2-.2-.2-.5-.2-.7 0-.1 0-.1.1-.1.2h.9zM-4.2 65.2c0-.1 0-.1-.1-.2-.2-.2-.6-.2-.8 0 0 0 0 .1-.1.2h1zM-5.3 65.2c0-.1 0-.1-.1-.2-.2-.3-.7-.3-.8 0v.1c.2 0 .5 0 .9.1zM-6.5 65.1c-.2-.5-.9-.5-.9-.1l.9.1zM-8.6 65v-.2c.1-.4.8-.3.9.1M-8.9 65c.1-.1.1-.1.1-.2v-.1c0-.5-.8-.7-.9-.2v.1c0 .2.1.3.2.4"/><path fill-rule="evenodd" clip-rule="evenodd" fill="#D62A0D" stroke="#9B1C0B" stroke-width=".25" d="M-9.9 64.3c0-.6-1-.7-1-.1s1 .7 1 .1zM-11 63.8c0-.6-1-.7-1-.1.1.5 1 .7 1 .1zM-11.4 62.6c0-.6-1-.8-1-.1 0 .6 1 .8 1 .1zM-11.8 61.5c0-.6-1-.8-1-.1 0 .6 1 .8 1 .1zM-11.4 60.5c0-.6-1-.8-1-.1 0 .5 1 .7 1 .1z"/><g fill-rule="evenodd" clip-rule="evenodd"><path fill="#F2DE24" stroke="#9E9600" stroke-miterlimit="1" d="M10.5 59.8c1.2-.7 3.2-.2 4.5 0-1.5-1.8-2.7-4.3-2.6-6.7-7 1.8-14.4 1.8-21.4.1-.3 2.6-1.5 5.8-4.2 6.8 2.3-.4 4.2-.1 5.1 2.3 1.4-.9 2.7-1.5 4.3-.7.8.4 1.6 1 2.3 1.5.5.4.6 0 1.1-.3.4-.3.9-.5 1.4-.7 1.7-.7 3.8-.8 5.5-.1.4.1.7.3 1.1.5l.5.3.6-.7c.4-.8.9-1.8 1.8-2.3.6-.3-.3.2 0 0zM12.8 54.3c-7.3 1.8-15 1.9-22.2.1l-.3 1.7-.1.7c0 .1 2 .5 2.2.5 3.1.6 6.2.9 9.4.9 3.1 0 6.3-.3 9.4-1l2.2-.5-.1-.6c-.3-.5-.4-1.2-.5-1.8z"/><path fill="#0093CE" d="M0 57c0-.8-1.1-.9-1.2-.1-.1.8 1.2.9 1.2.1zM-5.6 56.4c.1-.8-1.1-1-1.2-.2-.1.9 1.1 1.1 1.2.2zM-9.1 55.8c.1-.8-1-1.1-1.2-.3-.1.8 1.1 1.1 1.2.3zM13.6 55.4c-.2-.8-1.3-.5-1.2.3.2.8 1.4.5 1.2-.3 0-.2.1.2 0 0z"/><path fill="#C1001F" d="M10.9 56c-.1-.6-1.1-.5-1 .2.1.7 1.1.5 1-.2-.1-.1 0 .2 0 0zM4 56.9c0-.6-1-.6-1 0 .1.7 1.1.7 1 0zM-2.9 56.8c.1-.7-.9-.8-1-.1 0 .6 1 .7 1 .1zM-7.5 56.1c.1-.6-.8-.9-1-.2 0 .7.9.9 1 .2.1-.1 0 .2 0 0z"/><path fill="#0093CE" d="M8.1 56.5c-.1-.8-1.3-.7-1.2.2.1.8 1.3.6 1.2-.2z"/><path fill="#C1001F" d="M-.5 61.8l-.9-3.3-.7 2.5c0 .1-.3.7-.2.8l.9.9.9-.9zM8.5 61.1l-1.5-3c-.1 1.1-.2 2.2-.2 3.3 0 .3.7.6.9.8.2 0 .6-.9.8-1.1zM-7.1 60.9l.1-3.3-1.2 2.2c-.4.8-.3.9.1 1.8.4-.3.7-.5 1-.7zM-11.5 59.2l1.6-2.6c-.6.4-1.2.8-1.8 1.3-.7.5-.7.6-.8 1.5.3-.1.6-.1 1-.2zM14.7 58.6l-2.3-2c.3.7.6 1.4 1 2.1.4.8.5.8 1.3 1v-1.1zM-13 60.6c0-.9-1.4-.9-1.4 0s1.4 1 1.4 0z"/><path fill="#0093CE" d="M-7.7 63.1c0-.9-1.4-.9-1.4 0s1.4.9 1.4 0z"/><path fill="#C1001F" d="M-.8 64.2c0-.9-1.4-.9-1.4 0s1.4.9 1.4 0z"/><path fill="#0093CE" d="M8.7 63.6c0-.9-1.4-.9-1.4 0s1.4.9 1.4 0z"/><path fill="#C1001F" d="M16.1 60.7c0-.9-1.4-.9-1.4 0s1.4.9 1.4 0z"/></g><g fill-rule="evenodd" clip-rule="evenodd"><path fill="#2374CC" stroke="#000" stroke-width=".5" d="M-26.2 27.5c5.1 0 9.4-4.2 9.4-9.4 0-5.1-4.2-9.4-9.4-9.4-5.1 0-9.4 4.2-9.4 9.4.1 5.2 4.3 9.4 9.4 9.4z"/><path fill="#FDE826" stroke="#000" stroke-width=".5" d="M-28.4 22.2v6.5c0 .1-.1.6 0 .8 1.3.1 2.7.1 4 0 .1-.1 0-.6 0-.8v-5.9c0-.5-.2-.6.4-.7 1.4-.1 2.7-.3 4.1-.5.4-.1 2.9-.4 2.9-.7v-4.8c-6.1 1.6-12.6 1.6-18.7 0v4.8c0 .2 1.6.4 1.8.5 1.8.4 3.6.6 5.5.8z"/><path fill="#23AF2D" d="M-25.3 19.8c0-1.5-2.3-1.5-2.3 0s2.3 1.5 2.3 0zM-30.9 19.5c0-1.3-2.3-1.9-2.3-.4 0 1.4 2.3 2 2.3.4zM-19.5 19.1c0-1.6-2.3-1-2.3.4 0 1.6 2.3 1 2.3-.4z"/><path fill="#FF3833" d="M-22.5 19.7c0-1.3-2-1.1-2 .2s2 1.1 2-.2zM-25.4 22.8c0-1.3-2-1.3-2 0s2 1.3 2 0zM-28.2 19.9c0-1.2-2-1.5-2-.2s2 1.5 2 .2zM-34.9 19.9c1.4.3 1.1-1.7 0-2-1.4-.3-1.1 1.8 0 2 .3.1-.3 0 0 0zM-16.9 18.7c0-1.4-2-.6-2 .5.1 1.4 2 .6 2-.5z"/><g stroke="#000" stroke-width=".5"><g fill="#FDE826"><path d="M-29.3 34h4.5c.1 0 .8.1.9 0 .1-.1 0-.7 0-.8v-3.8c0-.1.1-.8 0-.9-.1-.1-.7 0-.8 0h-3.8c-.1 0-.8-.1-.9 0-.1.1 0 .7 0 .8v2c.1.9.1 1.8.1 2.7zM-26.1 26.6v2.1c0 .3-.2 1.9 0 2.1h2.1c.3 0 1.8.2 2.1 0 .1-.1 0-1 0-1.1 0-.3-.1-.3-.4-.3-.4 0-2.1.3-2.4 0-.3-.3 0-2 0-2.4 0-.3.1-.4-.3-.4h-1.1zm-5.1 4.2h2.1c.3 0 1.9.2 2.1 0v-2.1c0-.3.2-1.8 0-2.1-.1-.1-1 0-1.1 0-.3 0-.3.1-.3.4 0 .4.3 2.1 0 2.4-.3.3-2 0-2.4 0-.3 0-.4-.1-.4.3v1.1zm2.8 2.3v2.4c0 .3-.1.4.3.4.2 0 1 .1 1.1 0 .2-.3 0-1.7 0-2.1 0-.3.2-1.9 0-2.1h-2.1c-.3 0-1.8-.2-2.1 0-.1.1 0 1 0 1.1 0 .3.1.3.4.3h2.4zm2.3-1.4v2.1c0 .3-.2 1.8 0 2.1.1.1 1 0 1.1 0 .3 0 .3-.1.3-.4 0-.4-.3-2.1 0-2.4h2.4c.3 0 .4.1.4-.3 0-.2.1-1 0-1.1-.3-.2-1.7 0-2.1 0h-2.1z"/></g><g fill="#FC0000"><path d="M-25.6 36.2c0-1.2-1.9-1.2-1.9 0s1.9 1.2 1.9 0zM-25.6 31.3c0-1.2-1.9-1.2-1.9 0s1.9 1.2 1.9 0zM-25.6 26.3c0-1.2-1.9-1.2-1.9 0s1.9 1.2 1.9 0z"/></g><g fill="#FC0000"><path d="M-31.5 32.2c1.2 0 1.2-1.9 0-1.9-1.3 0-1.3 1.9 0 1.9zM-21.6 32.2c1.2 0 1.2-1.9 0-1.9s-1.2 1.9 0 1.9z"/></g></g></g><g clip-rule="evenodd" stroke="#231F20"><path fill-rule="evenodd" fill="#BCBC33" stroke-width=".75" d="M-32.2 9.8l-.2-.7c.2.1.3.3.3.5-.1 0-.1.1-.1.2zm13.2 3.3c-.3-.3-.3-.9-.4-1.3-.1-.7-.1-2-.8-2.4l-.3 1.8v2.2c0 .5 0 1.2-.2 1.6-.2.3-1.3-.7-1.4-.8-.7-.8-.2-2.3-.2-3.2 0-.6-.2-1.4-.8-1.8-.5-.4-1.3-.3-1.9-.5.2 1.3 1.1 2.5.9 3.9-.1.8-.2 1.4-.2 2.2 0 .6-.1 1.3-.8 1.4-1.4.4-1.5-2.7-1.2-3.4.4-1.2-1-2.3-1.8-3-1.4-1.4-1.1 1.2-1.4 1.9-.5 1.3 1.6 1.9 1.4 3.3-.1.3-.2.6-.5.8-.4.3-.5.2-.9-.1-.5-.5-1-1.1-1.4-1.7-.4-.6-.9-1.3-1-2-.1-.7-.1-1.4-.3-2.1-.2.5-.9.6-1.3.9-.4.3-.3.8-.3 1.2 0 .8 1.3 1.7.4 2.5-.6.6-1.8-.8-2-1.4-.3-.8-.3-1.7-.3-2.5.1-1.1-.4-2.1.4-2.9.5-.8 1.8-1.7 1.3-2.7-.2-.5-.8-.7-1.2-.9-.6-.3-1-.6-1.3-1.2-.5-1-.2-2 .3-2.9v-.1h7l1.6 2c.8.9 1.7 1.5 2.6 2.2.7.6 1.7 1 2.5 1.4.8.4 1.2 1.1 1.9 1.6.9.8 1.9 1.3 2.2 2.5.2.9.3 2.1.3 3 0 .8-.7.8-.9.5z"/><path stroke-width=".483" d="M-20.2 9.5c-.6-1.2-1.1-2.4-2.1-3.3-1-.9-2.1-.4-3.3-.8l-1.5-.7c-.6-.2-1 .4-1.4.6-.9.4-2.3-.9-3 0" fill="none"/></g><g fill-rule="evenodd" clip-rule="evenodd" stroke="#000" stroke-width=".5"><path fill="#FDE826" d="M21.4.6v-.4c0-.1 0-.2-.1-.3h-5.5c-.1.3-.1.7-.1 1.1.5 3.6 5.9 3.1 5.7-.4z"/><path fill="#E5C025" d="M22.9 17.2l-1.8-14.5-.1-.8c-.1-.4-2.1-.5-2.5-.4-.2 0-2.2.6-2.2.9 0 .2 0 .4.1.6l1 8.2c.3 2.1.5 4.2.8 6.4.1.5 1 .1 1.5.1 1.1-.3 2.2-.4 3.2-.5z"/></g><path fill-rule="evenodd" clip-rule="evenodd" fill="#C2D7E7" stroke="#256B8E" stroke-width=".5" d="M24.8 55.4l-3.3-29.4c-.4-3.5-.8-7-1.2-10.4-.3 0-2.8.3-2.8.4l.1 1c.2 2 .4 4 .7 6l2.1 18.9 1 9.2.2 1.5c0 .3 1.2 1.1 1.4 1.3.7.5 1.2 1 1.8 1.5z"/><path fill-rule="evenodd" clip-rule="evenodd" fill="#93A2AA" stroke="#256B8E" stroke-width=".5" d="M24.8 55.4c.7-1 1.4-2 2.2-3 .3-.4.3-.4.3-.9l-.6-5.1c-.7-6.2-1.4-12.4-2.1-18.5l-1.4-12.6c-.3 0-2.8.3-2.8.3 0 .3.1.6.1 1l.6 5.7c.7 6.2 1.4 12.4 2.1 18.7.6 4.7 1.1 9.6 1.6 14.4z"/><g fill="#FDE826" stroke="#000" stroke-width=".5"><path d="M30.8 18.7c1 .8-.2 2.4-1.2 1.6-.2-.2-.3-.4-.4-.7 0-.5-.3-.3-.7-.4-.9-.1-1.8-.2-2.6-.3-3.1-.2-6.3.2-9.3 1l-2.1.6c-.3.1-.7.2-1 .4-.4.2-.7.1-.6.6.2 1.4-2.2 1.4-2 0 0-.3.9-1 .9-.9 0-.2 0-.3-.1-.5l-.3-2.3-.2-1.8c0-.3-.3-.1-.5-.2-.6-.3-.8-1-.4-1.5.3-.4 1-.5 1.4-.2.2.2.3.4.4.7.1.4.3.3.8.4 1.6.2 3.3.3 4.9.3 3.1-.1 6.2-.6 9.1-1.7.3-.1.7-.2 1-.4.4-.2.7-.1.6-.5-.1-.5.3-1 .9-1.1.5-.1 1 .3 1.1.9 0 .3 0 .5-.2.7 0 0-.7.5-.7.4l.3 2.7.2 1.5c0 .7.1.2.7.7.2.1-.2-.2 0 0zM20.6 17.7c-2.6.3-5.2 1-7.7 1.9-.1-1-.2-2.1-.4-3.1 5.3.7 10.7.1 15.7-1.8.1 1 .2 2.1.4 3.1-2.6-.4-5.3-.4-8-.1-2.6.3 2.7-.3 0 0z"/></g><g fill-rule="evenodd" clip-rule="evenodd" stroke="#000" stroke-width=".5"><path fill="#FDE826" d="M24.1 19c1.7-1.7.4-4.7-1.9-5-.7-.1-1.6.1-2.3.2-1 .1-1.9.2-2.7.9-1.9 1.8-.7 5.1 1.9 5.2 1.5.1 4-.1 5-1.3.6-.6-.5.6 0 0z"/><path fill="#FC0000" d="M21.8 15.7c-.9 0-1.9.1-2.7.3-1.5.4-1.2 2.6.4 2.6.9 0 1.9-.1 2.8-.3 1.3-.4 1-2.6-.5-2.6z"/></g><g clip-rule="evenodd" stroke="#231F20"><path fill-rule="evenodd" fill="#BCBC33" stroke-width=".75" d="M38.7 0h-10.8c-.8.9-1.7 1.7-2.8 2-1 .3-1.7.8-2.3 1.6-.5.7-1.2 1.3-1.8 1.9-.6.7-1.4.8-2.2.9-1 .2-2 .4-3.1.3-.9-.1-2-.1-2.7.7-.8.9.3 1.4 1.1 1.4.6 0 .8-.1.8.5.1.4.4.7.5 1 .1.4-.1.7.1 1.1.2.4.7.4 1 .8-.9-.4-2.2.1-1.3 1.1l1.8 1.9c.7.6 2 .5 2.8.4 1.2 0 2.5-.2 3.7-.3 1.1-.1 1.8.1 2.6-.8.8-.8 1.3-1.9 1.9-2.8.6-1 1.2-1.9 2-2.8.6-.7 1.5-2.1 1.2-3.1.5-.2.9 0 1.3-.4.2-.2.4-.4.3-.8-.1-.5.1-.3.5-.4.5-.1.8-.7 1.1-.9.6-.4 1.2-.8 1.7-1.3l.1-.1c.9-.7 1.6-1.3 2.5-1.9z"/><path stroke-width=".483" d="M14.8 8.8c.9 0 1.7.3 2.6.4.6.1 2.3-.2 2.8-.7M15.5 9.9c.2.4.7.7 1.1.9.4.3.9.8 1.5.9 1.2.2 2.5-.3 3.7-.3M16.5 12l1.4 1c.4.3.9.9 1.4.9 1.1 0 2.5-1 3.5-.5" fill="none"/></g></symbol><symbol id="d" viewBox="-3.2 -6 6.5 12.1"><path fill-rule="evenodd" clip-rule="evenodd" fill="#D52222" d="M2.8 6l-2.4-4.8 2.8-7.2h-1.8l-2 5.4-.9-1.7v-3.7h-1.7v12h1.7v-5.5l2.6 5.5h1.7z"/></symbol><symbol id="b" viewBox="-50 -75 100 150"><path fill="#F0F7E6" d="M-43.9-75c-3.1 0-6.1 3-6.1 6.1v137.8c0 3.1 3 5.1 6.1 5.1h87.8c3.1 0 5.1-2 5.1-5.1v-137.8c0-3.1-2-6.1-5.1-6.1h-87.8z"/><path d="M43.9 74c2.8 0 5.1-2.3 5.1-5.1v-137.8c0-2.8-2.3-5.1-5.1-5.1h-87.8c-2.8 0-5.1 2.3-5.1 5.1v137.8c0 2.8 2.3 5.1 5.1 5.1h87.8m0 1h-87.8c-3.4 0-6.1-2.7-6.1-6.1v-137.8c0-3.4 2.7-6.1 6.1-6.1h87.8c3.4 0 6.1 2.7 6.1 6.1v137.8c0 3.4-2.7 6.1-6.1 6.1z"/></symbol><symbol id="f" viewBox="-41 -66 82 132"><g fill-rule="evenodd" clip-rule="evenodd" fill="#1A171B"><path d="M-40-41h-1v82h1zM41-41h-1v82h1zM34 66h-68v-1h68zM34-65h-68v-1h68z"/></g><path stroke="#1A171B" stroke-miterlimit="10" fill="none" d="M-40.5 0h81"/></symbol><symbol viewBox="-7.6 -7.6 15.2 15.2"><path fill-rule="evenodd" clip-rule="evenodd" fill="#FFA001" d="M7.4-.3c-1.4-.9-2.7-2-3.9-3.2-1.2-1.2-2.3-2.5-3.2-3.9 0-.1-.2-.2-.3-.2-.1 0-.2.1-.3.2-.9 1.4-2 2.7-3.2 3.9-1.2 1.2-2.5 2.3-3.9 3.2-.1.1-.2.2-.2.3 0 .1.1.3.2.3 1.4.9 2.7 2 3.9 3.2 1.2 1.2 2.3 2.5 3.2 3.9.1.1.2.2.3.2.1 0 .3-.1.3-.2.9-1.4 2-2.7 3.2-3.9 1.2-1.2 2.5-2.3 3.9-3.2.1 0 .2-.2.2-.3 0-.1-.1-.2-.2-.3z"/></symbol><use xlink:href="#b" width="100" height="150" x="-50" y="-75" transform="matrix(1 0 0 -1 50 75)" overflow="visible"/><g><g><use xlink:href="#c" width="9" height="8.4" x="-4.5" y="-4.2" transform="matrix(-1 0 0 1 89.5 123)" overflow="visible"/><use xlink:href="#c" width="9" height="8.4" x="-4.5" y="-4.2" transform="matrix(-1 0 0 1 10.5 123)" overflow="visible"/><use xlink:href="#c" width="9" height="8.4" x="-4.5" y="-4.2" transform="matrix(1 0 0 -1 89.5 27)" overflow="visible"/><use xlink:href="#c" width="9" height="8.4" x="-4.5" y="-4.2" transform="matrix(1 0 0 -1 10.5 27)" overflow="visible"/><use xlink:href="#d" width="6.5" height="12.1" x="-3.2" y="-6" transform="matrix(-1 0 0 1 90 136)" overflow="visible"/><use xlink:href="#d" width="6.5" height="12.1" x="-3.2" y="-6" transform="matrix(-1 0 0 1 10 136)" overflow="visible"/><use xlink:href="#d" width="6.5" height="12.1" x="-3.2" y="-6" transform="matrix(1 0 0 -1 90 14)" overflow="visible"/><use xlink:href="#d" width="6.5" height="12.1" x="-3.2" y="-6" transform="matrix(1 0 0 -1 10 14)" overflow="visible"/><use xlink:href="#e" width="80.8" height="65.8" x="-40.4" y="-.4" transform="matrix(-1 0 0 1 50 75)" overflow="visible"/><use xlink:href="#e" width="80.8" height="65.8" x="-40.4" y="-.4" transform="matrix(1 0 0 -1 50 75)" overflow="visible"/><use xlink:href="#f" width="82" height="132" x="-41" y="-66" transform="matrix(1 0 0 -1 50 75)" overflow="visible"/><use xlink:href="#a" width="13.9" height="12.9" x="-6.9" y="-6.4" transform="matrix(-1 0 0 1 77.5 129.5)" overflow="visible"/><use xlink:href="#a" width="13.9" height="12.9" x="-6.9" y="-6.4" transform="matrix(1 0 0 -1 22.5 20.5)" overflow="visible"/></g></g></svg>