<svg xmlns="http://www.w3.org/2000/svg" xmlns:xlink="http://www.w3.org/1999/xlink" viewBox="0 0 100 150" enable-background="new 0 0 100 150"><symbol viewBox="-7.3 -7.3 14.6 14.6"><path fill-rule="evenodd" clip-rule="evenodd" d="M1.7 2.6c-.7-.8-1-1.4-1.1-2 .6.1 1.3.4 2 1.1.7.6 1.4.9 2.1.9.7 0 1.3-.3 1.9-.8.5-.5.7-1.1.7-1.8s-.3-1.3-.8-1.9c-.5-.4-1.1-.7-1.8-.7s-1.4.3-2.1 1c-.8.7-1.4 1-2 1.1 0-1.4 0-2.5.1-3.3.2-1.5.6-2.5 1.1-3.2.1-.1.1-.1 0-.2 0-.1-.1-.1-.2-.1-.6.1-1.1.2-1.6.2s-1-.1-1.7-.2c-.1 0-.1 0-.2.1s-.1.1 0 .2c.6.7.9 1.7 1.1 3.1.1.9.2 2 .2 3.3-.5 0-1.2-.4-2-1-.7-.7-1.4-1-2.1-1-.7 0-1.3.3-1.9.8-.5.5-.7 1.1-.7 1.8s.3 1.3.8 1.8c.5.6 1.1.8 1.8.8s1.4-.3 2.1-.9c.8-.7 1.4-1 2-1.1-.1.6-.4 1.3-1.1 2-.6.8-.9 1.4-.9 2.1 0 .7.3 1.3.8 1.9.5.5 1.1.7 1.8.7s1.3-.3 1.9-.8c.4-.5.7-1.1.7-1.8s-.3-1.3-.9-2.1z"/></symbol><symbol viewBox="-7 -7.5 14.1 14.9"><path fill-rule="evenodd" clip-rule="evenodd" fill="#008C00" d="M5.9-2.9c-.8-.7-1.7-1-2.8-1-.9 0-1.7.3-2.4.9h-.1c.1-1.9.5-3.2 1.2-4.1.1-.1.1-.1 0-.2 0-.1-.1-.1-.2-.1-.6.1-1.1.1-1.6.1s-1-.1-1.7-.2c-.1 0-.2 0-.2.1-.1.1-.1.1 0 .2.7.8 1.1 2.2 1.3 4.1h-.1c-.7-.6-1.5-.9-2.4-.9-1.1 0-2 .4-2.8 1.1-.7.7-1.1 1.5-1.1 2.5 0 1.3.8 2.6 2.5 4.1.9.8 2.4 2 4.3 3.6 0 .1.1.2.2.2s.2 0 .3-.1c.8-.8 2.2-2 4.3-3.6 1.6-1.5 2.4-2.9 2.4-4.2 0-1-.4-1.8-1.1-2.5z"/></symbol><symbol viewBox="-6.9 -6.4 13.9 12.9"><path fill-rule="evenodd" clip-rule="evenodd" fill="#D52222" d="M0 4.1c.2.7.5 1.2 1.1 1.7.6.5 1.3.7 2.1.7 1 0 1.9-.3 2.7-1 .7-.7 1.1-1.6 1.1-2.6 0-1.6-.8-3.2-2.4-5-.1-.2-1.6-1.6-4.4-4.2 0-.1-.1-.1-.2-.1s-.2 0-.2.1c-2.8 2.6-4.3 4-4.3 4.1-1.6 1.8-2.4 3.5-2.4 5 0 1 .4 1.8 1.1 2.6.7.7 1.6 1 2.7 1 .8 0 1.4-.2 2-.7.6-.4.9-1 1.1-1.6z"/></symbol><symbol id="d" viewBox="-3.2 -6 6.5 12.1"><path fill-rule="evenodd" clip-rule="evenodd" fill="#D52222" d="M2.8 6l-2.4-4.8 2.8-7.2h-1.8l-2 5.4-.9-1.7v-3.7h-1.7v12h1.7v-5.5l2.6 5.5h1.7z"/></symbol><symbol id="b" viewBox="-50 -75 100 150"><path fill="#F0F7E6" d="M-43.9-75c-3.1 0-6.1 3-6.1 6.1v137.8c0 3.1 3 5.1 6.1 5.1h87.8c3.1 0 5.1-2 5.1-5.1v-137.8c0-3.1-2-6.1-5.1-6.1h-87.8z"/><path d="M43.9 74c2.8 0 5.1-2.3 5.1-5.1v-137.8c0-2.8-2.3-5.1-5.1-5.1h-87.8c-2.8 0-5.1 2.3-5.1 5.1v137.8c0 2.8 2.3 5.1 5.1 5.1h87.8m0 1h-87.8c-3.4 0-6.1-2.7-6.1-6.1v-137.8c0-3.4 2.7-6.1 6.1-6.1h87.8c3.4 0 6.1 2.7 6.1 6.1v137.8c0 3.4-2.7 6.1-6.1 6.1z"/></symbol><symbol id="f" viewBox="-41 -66 82 132"><g fill-rule="evenodd" clip-rule="evenodd" fill="#1A171B"><path d="M-40-41h-1v82h1zM41-41h-1v82h1zM34 66h-68v-1h68zM34-65h-68v-1h68z"/></g><path stroke="#1A171B" stroke-miterlimit="10" fill="none" d="M-40.5 0h81"/></symbol><symbol id="a" viewBox="-7.6 -7.6 15.2 15.2"><path fill-rule="evenodd" clip-rule="evenodd" fill="#D52222" d="M7.4-.3c-1.4-.9-2.7-2-3.9-3.2-1.2-1.2-2.3-2.5-3.2-3.9 0-.1-.2-.2-.3-.2-.1 0-.2.1-.3.2-.9 1.4-2 2.7-3.2 3.9-1.2 1.2-2.5 2.3-3.9 3.2-.1.1-.2.2-.2.3 0 .1.1.3.2.3 1.4.9 2.7 2 3.9 3.2 1.2 1.2 2.3 2.5 3.2 3.9.1.1.2.2.3.2.1 0 .3-.1.3-.2.9-1.4 2-2.7 3.2-3.9 1.2-1.2 2.5-2.3 3.9-3.2.1 0 .2-.2.2-.3 0-.1-.1-.2-.2-.3z"/></symbol><symbol id="c" viewBox="-4.9 -4.9 9.9 9.9"><use xlink:href="#a" width="15.2" height="15.2" x="-7.6" y="-7.6" transform="scale(.65)" overflow="visible"/></symbol><symbol id="e" viewBox="-40.5 -0.5 81 66.1"><path fill-rule="evenodd" clip-rule="evenodd" fill="#72680C" d="M-22 26.5c13.5 0 26.9 0 40.4.1h1.3l-.5-23.6c-14 .6-28 1.2-41.9 1.8l-7.6.3c2.7 7.1 5.5 14.3 8.3 21.4z"/><path fill-rule="evenodd" clip-rule="evenodd" fill="#45C1FF" d="M-5.8 20.8v-.8c-.5-6.6-1-13.3-1.5-20h-24.6c0 .1-.1.2-.1.4-.2 1.4-.6 3.6.8 4.6.8.5 1.7.7 2.6 1 1.2.4 2.2.9 3.1 1.8 1.3 1.1 2.7 2.5 3.6 3.9 2.3 3.7 1.6 8.7-.8 12.2 0 0-.1.1-.1.2-.4.6-1.3 1.8-.6 2.1 1.1.4 2.2.6 3.4.8l6.3.9c1.6.2 2.5-2.3 3-3.4.9-1.9 2.6-4.3 4.9-3.7z"/><path fill="#D3D300" d="M-5.7 20.1h-.2c-4.1-.9-5 4.5-7 6.7-.4.4-.8.2-1.3.2-1.1-.2-2.1-.3-3.2-.4-1.8-.2-3.6-.5-5.4-1 1-2.2 2.3-3.6 2.7-6 .4-2.7.5-5.2-.9-7.7-1-1.8-2.6-3.3-4.1-4.6-.9-.8-1.8-1.4-2.9-1.8-1-.3-2.5-.5-3.2-1.4-.6-.8-.6-2.7 0-4h-1.5c-.3 1.1-.3 2.6-.1 3.6.3 1.4 1.5 2.1 2.8 2.5 1.8.6 3.2 1.1 4.6 2.5 1.1 1.1 2.3 2.1 3.1 3.4 1.1 1.9 1.3 3.9 1 6.1-.2 1.2-.3 2.5-.9 3.6-.7 1.3-1.8 2.5-2.2 4-.1.5-.2.5.4.7.7.3 1.3.5 2 .6 1.7.4 3.5.6 5.3.9l3.4.5c1.4 0 2.2-1.7 2.7-2.7.9-1.6 1.5-3.2 3.2-4.1.2-.1 1.5-.5 1.5-.3l.2-.6c-.1-.2 0-.4 0-.7z"/><path fill-rule="evenodd" clip-rule="evenodd" fill="#2193CC" d="M16 25.8c-.5-1.5-1.4-2.7-2-4.1-.8-1.8-1.3-3.8-1.5-5.8-.2-2-.2-4 .1-5.9.3-1.8.9-3.5 1.2-5.2.3-1.7.1-3.1 0-4.8h-21.1c0 .3 0 .6.1.9.4 5.1.7 10.1 1 15.2.1 1.3.2 2.6.3 4v.6c.3.5 2.1.9 2.5 1.1 1.7.8 3.4 1.6 5.1 2.5 0 0 .1 0 .1.1l.2.1c.1 0 .2.1.3.2 1.5.7 3.2 1.2 4.1 2.7.9 1.5 1.8 2.5 3.7 2 1.3-.4 2.4-1.1 3.7-1.3.7-.1 1.5-.1 2-.5.8-.6.4-1.1.2-1.8z"/><path fill="#D3D300" d="M16.6 25.6c-.5-1.4-1.3-2.7-2-4-1.6-3.2-1.9-7.1-1.5-10.6.3-3.2 1.9-6.3 1.5-9.6 0-.4 0-.9-.1-1.4h-1.6c.1 1.6.3 3 0 4.6l-1.1 4.7c-.4 2-.4 4.1-.2 6.2.3 3.5 1.5 6.2 3.1 9.3l.8 2.1c-.4.4-1.2.4-1.8.4-1.1.2-2.1.8-3.1 1.2-1.1.4-2.1.5-2.8-.5-1.1-1.5-2-2.5-3.7-3.3l-6.2-3.1c-1.1-.5-2.2-1-3.4-1.4-.3-.1-.5 1-.6 1.3 2.9.9 5.5 2.5 8.2 3.8 1.6.8 3.1 1.3 4.1 2.9.7 1 1.3 1.9 2.6 2.1 1.5.1 2.9-.7 4.3-1.3l2.5-.5c.6-.2 1.2-.6 1.4-1.2.2-.5-.2-1.3-.4-1.7z"/><path fill-rule="evenodd" clip-rule="evenodd" fill="#29ABE2" stroke="#E5E5E5" stroke-miterlimit="10" d="M-16.5 6.6c-1-.1-1.9-.2-2.9-.4 0 .5-.2 1.7.4 1.8.9.1 1.8.2 2.6.3-.1-.5-.1-1.1-.1-1.7zM-19.8 29.3c.2-.7.8-1.6.6-2.4-.2-.7-1.1-1-1.7-.7-1 .4-1.3 1.6-1.6 2.5 1 .3 1.8.5 2.7.6zM-21.7 26.7c.6-1.6 3.3-1.5 2.7.4.4-1.2 2.2-4.9 0-5.3-2.1-.2-2.3 3.5-2.7 4.9.1-.4.4-1.3 0 0zM-17.3 18c-.7-.8-2-.7-2.4.3-.5 1.2-.5 2.8-.8 4 .4-1.7 3.2-1.5 2.8.4.2-1.1 1.2-3.7.4-4.7-.3-.3.2.3 0 0zM-16.9 18.5c.2-1.4 1.3-5-.9-5.3-2.1-.3-1.7 3.5-1.9 4.8.2-1.7 3-1.3 2.8.5.1-1.3 0-.5 0 0zM-14.8 11.9c0-1.5-.1-2.9-2-3.2-1.2-.2-4.1-1-4.1 1.1-.2 1.5.2 2.9 1.9 3.2 1.3.1 4.2 1 4.2-1.1z"/><path fill-rule="evenodd" clip-rule="evenodd" fill="#ED1C24" d="M-15.9 11.1c0-1.5-3.8-2.1-3.8-.5 0 1.5 3.8 2.1 3.8.5z"/><path fill-rule="evenodd" clip-rule="evenodd" fill="#E6E6E6" d="M14.2 27.6c-.4.2-.6.4-.8.8.8.1 1.6-.5 2.2-.8-.4-.2-.9-.2-1.4 0-.4.2.5-.2 0 0z"/><path fill-rule="evenodd" clip-rule="evenodd" fill="#2193CC" stroke="#E5E5E5" stroke-miterlimit="10" d="M4.4 7.8l1.8-.7.9-.3c.2-.1-.2-1.4-.3-1.7-.5.2-1.1.4-1.7.6l-1 .4c-.2.1.2 1.4.3 1.7zM14.2 24.9c-.4-.7-1.2-1.1-2-.8-1.3.5-.6 1.8-.1 2.6.2.4 1 2.3 1.4 1.3.5-1.1 1.6-.1 2.1-.6-.4-.7-.9-1.6-1.4-2.5-.2-.4.5.9 0 0zM11.3 24.2c.5-1.2 2.1-.9 2.6 0-.6-1.2-1.5-4.5-3.3-4.3-2.6.4.2 4.3.8 5.4-.2-.3-.3-.7-.1-1.1.1-.3-.2.4 0 0zM10.4 16.8c-.4-1.1-2.1-1.2-2.6-.1-.6 1.2 1 3.5 1.5 4.6-.7-1.7 1.8-2.6 2.6-1.1-.5-1.1-1-2.2-1.5-3.4-.1-.4.5 1.2 0 0zM8.2 11.9c-.9-.3-2.1.5-2 1.5.1 1.2.9 2.7 1.4 3.8-.6-1.7 1.9-2.7 2.6-1.1-.4-1-.9-3.7-2-4.2-.3-.1.3.2 0 0zM8.4 11.4c1.5-.6 1.6-3.6.1-4.3-1.1-.5-2.9.6-3.9 1-1.5.6-1.6 3.2-.3 4.1 1.1.8 3-.4 4.1-.8z"/><path fill-rule="evenodd" clip-rule="evenodd" fill="#F72D12" d="M6.8 10.8c.6-.2 1.4-.7 1.5-1.5.2-1.1-1.5-.9-2.1-.7-.6.2-1.5.7-1.6 1.5-.1 1.2 1.6.9 2.2.7z"/><path fill-rule="evenodd" clip-rule="evenodd" fill="#D3D300" stroke="#938C00" stroke-miterlimit="10" d="M-2.2.1l-5.8-.1-.6.8c-4.8 6.3-6.9 14.7-7.6 22.5-.2 2.3-.2 4.6-.2 6.8h4.3c0-3 .1-5.9.5-8.9 1-6.6 2.9-13.3 7.2-18.5.4-.7 1-1.3 1.6-1.9.3-.4.6-.5.6-.7z"/><path fill-rule="evenodd" clip-rule="evenodd" fill="#D62A0D" d="M-6.6 3.6c0-1.3-2.1-1.3-2.1 0s2.1 1.3 2.1 0z"/><path fill="#9B1C0B" d="M-7.7 2.2c-1.8 0-1.8 2.7 0 2.7s1.8-2.7 0-2.7zm0 2.1c-.9 0-.9-1.4 0-1.4s1 1.4 0 1.4z"/><path fill-rule="evenodd" clip-rule="evenodd" fill="#D62A0D" stroke="#9B1C0B" stroke-width=".6" stroke-miterlimit="10" d="M-9.1 8c0-1.3-2.1-1.3-2.1 0 .1 1.4 2.1 1.4 2.1 0zM-11 12.8c0-1.3-2.1-1.3-2.1 0 .1 1.3 2.1 1.3 2.1 0zM-12.1 17.8c0-1.3-2.1-1.3-2.1 0s2.1 1.3 2.1 0zM-14.7 23.5c1 .9 2.4-.5 1.5-1.5-1-.9-2.4.6-1.5 1.5zM-15.1 28.7c.9.9 2.4-.5 1.5-1.5-.9-.9-2.4.5-1.5 1.5z"/><path fill-rule="evenodd" clip-rule="evenodd" fill="#D3D300" stroke="#938C00" stroke-miterlimit="10" d="M11.8 27.3c-4-7.6-8.8-14.8-14.2-21.3-1.8-2.1-3.6-4.1-5.4-6h-5.9c-.1.2.2.4.6.8l3.2 3.3c2.9 3.1 5.6 6.3 8.1 9.7 2.6 3.5 5 7.1 7.2 10.9.9 1.5 1.8 3.1 2.6 4.7.2.3.7 1.9 1.1 1.7l3.3-1.7c.8-.4-.3-1.4-.6-2.1z"/><path fill-rule="evenodd" clip-rule="evenodd" fill="#D62A0D" d="M-6.9 3.4c0-1.4-2.1-1.4-2.1 0 0 1.3 2.1 1.3 2.1 0z"/><path fill="#9B1C0B" d="M-8 2c-1.7 0-1.7 2.7 0 2.7 1.8 0 1.8-2.7 0-2.7zm0 2.1c-.9 0-.9-1.4 0-1.4 1 0 1 1.4 0 1.4z"/><path fill-rule="evenodd" clip-rule="evenodd" fill="#D62A0D" stroke="#9B1C0B" stroke-width=".6" stroke-miterlimit="10" d="M-4.6 8.3c1.3 0 1.3-2.1 0-2.1-1.4 0-1.4 2.1 0 2.1zM-.3 11.1c0-1.3-2.1-1.3-2.1 0 .1 1.4 2.1 1.4 2.1 0zM2.7 15.3c0-1.3-2.1-1.3-2.1 0 .1 1.3 2.1 1.3 2.1 0zM5.1 20.3c.9-.9-.5-2.4-1.5-1.5-.9 1 .6 2.5 1.5 1.5zM8.2 23.9c0-1.3-2.1-1.3-2.1 0 0 1.4 2.1 1.4 2.1 0zM10.9 28.3c0-1.3-2.1-1.3-2.1 0s2.1 1.3 2.1 0z"/><g fill-rule="evenodd" clip-rule="evenodd" fill="#D62A0D" stroke="#E8E800" stroke-width=".75" stroke-miterlimit="10"><path d="M1.6 1c-.8-.1-1.7 0-2.5-.4-.5-.2-.9-.4-1.3-.6 0 0-.1 0-.2-.1h-5.1c0 .3.1.6.2.9l2.8 1.7c.3.3.5.4.7.6 1.1.6 1.7 1.3 2.5 2.3.2-.5.3-1.5.8-1.4.8 0 1.6 0 2.4.1l-1.2-1.8c-.4-.4.6-1 .9-1.3zM-7.9 0h-5.1c-1.3.5-2.4.8-4 1 .2.2 1.2 1 1 1.2-.5.6-.9 1.2-1.3 1.9l2.4-.1c.5 0 .6.9.8 1.4 1.2-1.4 2.1-2 3.6-3 .8-.5 1.6-1 2.3-1.4.2-.1.2-.6.3-1z"/></g><path fill-rule="evenodd" clip-rule="evenodd" fill="#D3D300" stroke="#938C00" stroke-miterlimit="10" d="M-4.8 1.7v-1.7h-6.4c0 .6-.2 1.7.3 1.7h6.1z"/><path fill-rule="evenodd" clip-rule="evenodd" fill="#D62A0D" stroke="#9B1C0B" stroke-miterlimit="10" d="M-7.8 30.9c0-.6-.2-.8-.8-1-1.3-.5-2.8-.7-4.1-1-2.5-.5-3.7-2.5-5.4-4.2-1.2-1.2-2-1.9-2.4-3.6l-1.6-4.3c-.8-2.9-1-6-.3-9 .3-1.2.8-2.6.9-3.9 0-.7-2.4-.3-2.9-.2l-.2-1.5c-.1-.4-.4-.8-.6-1.2-.2-.3-.2-.7-.3-1h-14.5v15.5h.1c1 .6 2 1.4 2.8 2.3 1.9 2 3.6 4.2 5.6 6.1l.2.2c1.8 1.6 3 4.5 5.6 5 1.5.3 3 0 4.4.2 1.5.3 2.5 1.4 4.1 1.4 1.4 0 2.9-.1 4.3.3l3.9 1 1 .2c.1-.4.2-.8.2-1.3z"/><path fill="#9B1C0B" d="M-26.2 19.6c-2.6-1.4-4.7-3.2-6.5-5.5-1.6-2.1-2.9-4.3-4.5-6.3-1.3-1.7-1.9-3.7-2.8-5.6v3.4c.1.3.3.7.5 1 .8 1.4 1.9 2.6 2.8 3.9.9 1.3 1.8 2.6 2.7 3.8 2.1 2.9 4.6 4.7 7.6 6.5 1.3.8 2.3 2.1 2.6 3.6.1.3.2 2.2.2 2.2.4.1.8.1 1.1.2.5-2.8-1.1-5.8-3.7-7.2zM-21.3 4.7l-.1-1.2c0-.4-1.6-.1-2-.1-1.1 0-2.3-.2-3.4-.3-3.3-.3-6.7 1.6-9.9.7 2.3-.6 4.7-.5 7-1.4 1-.4 2.2-.9 2.8-1.8.1-.2.2-.4.2-.6h-1.7c-2.1 1.7-5 1.6-7.5 2.1-.8.1-2.3.3-2.6 1.2-.5 1.5 1.4 1.9 2.4 2 2.7.3 5.4-.8 8.1-.9 2.2 0 4.3.5 6.7.3z"/><path fill-rule="evenodd" clip-rule="evenodd" fill="#72680C" stroke="#000" stroke-width=".5" stroke-miterlimit="10" d="M-22.4 8.3l.4-2.1c-3.1.2-6.1-.5-9.2.1-2.1.4-4.7 1.3-6.7 0 .4.6.7 1.2 1.1 1.9.6 1.1 2.7 1 3.8.8 1.7-.3 3.4-.9 5.2-.9 1.8-.1 3.5.3 5.4.2z"/><path fill-rule="evenodd" clip-rule="evenodd" fill="#D62A0D" stroke="#9B1C0B" stroke-miterlimit="10" d="M40 8.5v-8.5h-31c.5.7 1.2 1.4 1.5 1.9.8 1.3 1.3 2.6 2.3 3.8 1.4 1.5 2.1 2.3 2.4 4.3.2 1.7 1.6 2.7 2.5 4 1.1 1.5.9 3 .3 4.8-.5 1.4-.9 2.7-1 4.1-.2 1.7-.3 3.4-2.3 3.8-1.6.3-3.2.9-4.8 1.5-1.5.6-3.9 1.2-5 2.5-.7.9-.2 1.8.9 1.6 1-.2 1.8-.9 2.8-1.2 2.4-.7 4.7-1.2 7-2.1 2.8-1 5.5-2.2 8.2-3.4 2.2-1 3.9-2.3 5.6-3.9 2.1-2 4.1-4 5-6.8.9-2.6 2.5-5.2 5.1-6.3.3 0 .4-.1.5-.1z"/><path fill="#9B1C0B" d="M21.1 16.5c-.5-1.5-2.2-2.5-3.3-3.7-1.3-1.5-2.2-3.2-2.4-5.3l-.1-4.8c-.1-.9 0-1.8 0-2.7h-1.3l.1 5.4c0 1.7 0 3.5.7 5.1.8 2 2.5 3.7 4.1 5.1 1.4 1.4 1.4 3.3 1.1 5.1-.4 2.1-1.6 4.1-3.5 5.1-1.6.9-3.5 1.3-5.2 2-.8.3-1.6.6-2.5.8-.6.2-.2.7-.1 1.3 1.6-.4 3.1-1.1 4.6-1.6 1.6-.5 3.2-1 4.6-2 1.5-1.1 2.6-2.8 3-4.6.5-1.5.7-3.7.2-5.2z"/><path fill-rule="evenodd" clip-rule="evenodd" fill="#F2D8C0" stroke="#000" stroke-width=".5" stroke-miterlimit="10" d="M4.1 54.4c1.7-.3 2.4-1 3-2.6.5-1.3 1.6-3.6.8-4.9-.9-1.2.7-3.6 1.4-4.5.4-.5 1-1.3.3-1.8-.6-.4-1.8-.3-2-1.1-.1-.5-.5-1.5-.4-2 .3-.8.8-1.6-.2-1.9-1-.3-.1-2.4-.9-3.2-1.1-1.1-2.8-.9-2.8-2.8 0-1.8 1.8-3.2-.3-4.4-1.4-.8-3.1-1.6-4.7-1.7-1.6-.1-3.1.3-4.6.7-1.3.4-3.6.7-4.4 1.9-.8 1.1.4 2.9.3 4.2-.1 2.8.8 5.4.3 8.2-.1 1.3-1.2 2.1-1.6 3.4l-.5 1.9c-.3.7-1 1.5-1 2.4.3 3.6 3.8 6.3 6.9 7.5 1.7.7 3.4 1.1 5.2 1.2 1.8.2 3.5-.2 5.2-.5.7-.1-.8.1 0 0z"/><path fill-rule="evenodd" clip-rule="evenodd" fill="#fff" stroke="#000" stroke-width=".5" stroke-miterlimit="10" d="M6.8 29.3c-.8-3.4-3-5.8-5.9-7.6-2.2-1.4-5.4-2.8-7.9-1.7-1.3.6-2.8 1.2-4 2.2-.6.5-.4 2.6-.5 3.3-.1 2.5-.2 4.8.3 7.2 1.1-.5.8-1.4.9-2.4.1-1.1.3-2.2 1-3.1 1.4-1.9 5.2-1.4 7.3-1.1 2.5.3 4.9 1.3 6.5 3.3.5.6.8 2.1 1.6 2 .2 0 .7 0 .7-.2.2-.8.1-1.3 0-1.9-.3-1.6.1.5 0 0z"/><path fill="#1A171B" d="M-10.1 21.7c-.9-.3-.8 1.6-.8 2.2 0 .7.4 1.4.3 2.1-.1.8-1.1 1.2-1 2.2.5.1 1.4-1.5 1.4-2.1.1-.8-.3-1.7-.3-2.5.1-.7.4-1.3.4-1.9zM-6.6 19.9c-.4 1.6-.7 3.2-.9 4.8.8.3.8-1.8 1-2.4.1-.5.8-2.5-.1-2.4zM-4 19.7c-.8.2.3 2.1.5 2.6.2.6.5 2.3 1.2 2.1 0-.7-.4-1.3-.6-2-.4-.8-.6-1.8-1.1-2.7zM-1.6 20.5c-.1 0-.3.2-.4.3l2.2 3.3c.3.5.7 1.8 1.4 1.7 0-.8-.7-1.6-1.1-2.2-.8-1-1.5-2.1-2.1-3.1zM-.8 21.9c-.7.3-.2 3 0 3.5.8 0 .3-1.3.3-1.8 0-.4 0-1.4-.3-1.7zM1.8 21.9c-.8.3.4 1.7.7 2.2.6 1.1 1.2 2.3 1.9 3.3.9-.2-.4-1.6-.7-2.1-.6-1.1-1.2-2.3-1.9-3.4zM-8 20.7c-.8-.2-.6 1.1-.8 1.6-.3.9-1 1.7-1 2.7.7.2.7-.8.9-1.3.5-1 .9-1.9.9-3zM-6.7 20.8c-.3.7.5 1.9.8 2.5.1.2.7.9.7 1.2 0 0 .4.1.5.1.2-.5-.7-1.5-.9-1.9-.3-.6-.5-1.9-1.1-1.9z"/><path d="M7 40.3c-1.1 0-1 2-.2 1.7l-.2-.4.2-.7c.2-.3 1.2.2 1.5.2.2-.6-.8-.8-1.3-.8zM6.5 47.4c-.7 0-1.4.5-2.1.6-.5.1-1.1.1-1.6-.1-.4-.2-.7-.6-.9 0 .9.7 2.2.8 3.3.4.4-.1 1-.6 1.5-.4.2.1.3.2.5 0-.1-.3-.4-.5-.7-.5z"/><path fill-rule="evenodd" clip-rule="evenodd" fill="#009AEF" stroke="#000" stroke-width=".5" stroke-miterlimit="10" d="M5.3 45.6c0-1-.8-1-.8 0s.8 1 .8 0z"/><path d="M1.7 45.3c-.3.7.7.5 1.1.7.7.4 1.4.7 2.2.7v.1c-.5.1-1 0-1.5-.2s-.9-.7-1.1 0c.8.4 1.7.9 2.6.7.3-.1.4-.3.4-.6l.9-.1c.1-.7-.6-.5-1.1-.4-1.2-.1-2.2-.9-3.5-.9z"/><path fill-rule="evenodd" clip-rule="evenodd" fill="#9B8034" stroke="#685423" stroke-width=".75" stroke-miterlimit="10" d="M4.3 57.7c1.8-.2 2.8-.7 3.7-2.3l1.2-1.3c.5-.7.2-1.4 0-2.1-1.1-3.5-6.3-.9-8.5-2.5-1.1-.9-1.7-1.2-2.9-1.5-.6-.1-1.1-.3-1.6-.7-.5-.8.1-1.6-.1-2.1-.6-1.2.2-3.1.4-4.3 0-.4.6-.4.2-.8-.2-.2-.3-.8-.3-1 .1-1 1-1.7 1.7-2.3.6-.5 1-1.4 1.8-1.6.3-.1.8 0 1-.3.3-.4-.2-.5.4-.7 1-.3 1.8-1 2.7-1.4.9-.4 2.9.9 3.5-.2.4-.6.6-1.1 1.1-1.6.5-.5 1.5-1.4 1.4-2.1-.4-1.6-3.3-.6-4.2-.4-1.7.3-3.4.4-5 .9-1.4.5-3.3.8-4.4 1.9-1 1-1.6 2.6-2.4 3.7-1.6 2.1-3.5 1.8-5.8 1.8-.8 0-2.1-.1-2.6.6-.8 1.1.7 1.8.9 2.8-1.3.4-.8 1.9-.4 2.8.1.3.3.6.4 1 .1.3.1.6-.3.7l.1 1c.4 1.5.5 2.8.4 4.3 0 1.2-.8 3 .2 4 .9.9 2.3 1 3.5 1.2 1.8.2 3.1.6 4.7 1.3 2.8 1 6.1 1.5 9.2 1.2 1.3-.2-1 .1 0 0zM8.2 37.7c-.2-.7-2.6-1.7-3.2-1.4-.8.3-1.2 1-2.1 1.3-.8.2-1.5.3-2.2-.2-.2 1 1.9 1.1 2.5 1 .3-.2 1.2-.7 1.6-.6 1 .2 1.5 1.3 2.5 1.6 1 .1 1.1-1.1.9-1.7-.1-.2 0 .1 0 0z"/><path fill-rule="evenodd" clip-rule="evenodd" fill="#F9DD00" d="M-13.7 65h3.4c-.5-.4-.9-.9-1.2-1.4-.8-1.1-1.2-2.5-1.1-3.9.1-1.2.8-2.2-.7-3-2.8-1.4-2.2 4.1-1.8 5.4.3 1.1.8 2.1 1.4 2.9zM-3.8 64.9c.5-.9 1.9-2.9 1.3-3.9-.5-.8-1.9-.9-2.5-.1-.8 1-1.1 2.5-1.8 3.6-.1.1-.2.3-.3.5h3.2c.1 0 .1-.1.1-.1zM7.5 63.3c-.2-.7-1-1-1.7-.8-.9.3-1 1-1.4 1.8l-.6.7h3.3c.3-.6.5-1.2.4-1.7z"/><path fill-rule="evenodd" clip-rule="evenodd" fill="#F70000" d="M7.9 64c-.7-.4-1-.2-1.3.5.9.3 1 .5 1.3-.5zm-.9-.5l1-.2c0-.4-.2-.7-.4-.9l-.6.5c-.4.3-.1.2 0 .6zm-1-.6c.7-.2.6-.1 1-.8-.3-.2-.8-.1-1.2-.1l.2.9zm-.4.1l-.5-.8c-.3.2-.6.5-.8.8.8.3.7.4 1.3 0zm-2.6 2.1c.7.5.8.7 1.4-.1-.8-.4-.7-.5-1.4.1zm-6.3 0c.1-.2.2-.4.3-.7-.8-.3-.9-.5-1.3.3.3.2.6.3 1 .4zm-.2-2c-.1.2-.2.4-.3.7.9.3.9.5 1.3-.4l-1-.3zm1.2-.1l.3-.7c-.9-.2-1-.4-1.3.4l1 .3zm-1.2-3c-.1.4-.2.7 0 .9.6.1.6 0 1.1-.5-.4-.3-.8-.4-1.1-.4zm-.8 0c-.4.1-.7.2-1 .5.2.1.6.6.8.6.1-.1.5-.1.4-.3 0-.3-.1-.6-.2-.8zm1.3 1.2c.3.5-.1.4.4.5l.8.1c.1-.3 0-.7-.2-1-.4.2-.7.3-1 .4zm6.8 3c.8.3.9.5 1.3-.4-.9-.2-.9-.4-1.3.4zm-10.4.9c.1-.2.3-.4.4-.7-.8-.3-.9-.6-1.3.2.3.2.6.4.9.5zm-7.2.5l.9-.5c-.6-.7-.5-.6-1.4-.3.1.3.3.5.5.8zm4-.8c-.7-.6-.6-.5-1.4-.1.7.8.7.6 1.4.1zm-1.3-1.6l-.9.3c.6.8.5.7 1.4.3-.2-.2-.4-.4-.5-.6zm-.6-1.1l-1 .2c.3 1 .5.7 1.3.5-.1-.2-.2-.4-.3-.7zm-2.4 1.3c-.3.1-.6.2-1 .3.4.9.5.8 1.3.4 0-.3-.1-.5-.3-.7zm2.1-3.9c.1-.9 0-.7-.8-1.1-.4 1-.1.9.8 1.1zm-1.1.2c-.1 1 .2.8 1.1.9-.2-.9-.2-.7-1.1-.9zm0 1.3c.2 1 .3.8 1.2.7-.2-.8-.3-.7-1.2-.7zm7.1 3.1c.1-.2.2-.4.3-.7-.8-.3-.9-.5-1.3.3.4.1.7.2 1 .4zm-.4-1.4c.8.3.9.5 1.3-.3-.9-.3-1-.6-1.3.3zm1.5-.8c.1-.2.2-.4.3-.7-.9-.2-1-.4-1.4.4l1.1.3zm-9.8-.2c-.2-.9-.3-.8-1.2-.8.2 1 .3.9 1.2.8zm-.8.6c.3 1 .4.8 1.3.6-.4-.9-.4-.7-1.3-.6zm.6-3.7l-1-.4c-.2 1 .1.9 1 1.1v-.7zm-1.1.9c.1 1 .1.9 1.1 1-.1-.9-.2-.8-1.1-1zm1.6-2.3c.1-.1.3-.2.4-.2-.3-.7-.5-1.4-1.3-.6.3.4.6.6.9.8.1-.1-.3-.2 0 0zm-1.2-.2c-.3.9 0 .8.8 1.2.3-.9 0-.8-.8-1.2zm2.8 1.1c.4.1.7.2 1.1.2.1-1.1-.4-1-1.2-.7.1.2.1.3.1.5zm-.6-.9c.5.2.5-.1.9-.4-.3-.3-.7-.5-1.1-.6-.1.4-.2.8.2 1 .1 0-.1-.1 0 0z"/><path fill-rule="evenodd" clip-rule="evenodd" fill="#F9DD00" stroke="#CC9E29" stroke-width=".4" stroke-miterlimit="10" d="M.5 60.1c.5-1.2.9-2.3 1.3-3.5-1.9-.3-3.9-.7-5.8-1.2-.4-.1-1.2-.6-1.4-.2l-.6 1.5-.5 1.3c-.2.5.9 1.4 1.3 1.8.3.4.7.8 1 1.1.5.5.7.3 1.3.1 1.2-.3 2.3-.6 3.4-.9.5-1.3-1.3.4 0 0z"/><path fill-rule="evenodd" clip-rule="evenodd" fill="#FF1200" d="M-1.4 59.2c.2-.5.4-.9.5-1.4-.3-.1-2.8-.7-2.9-.6-.1.3-.6 1-.5 1.3.1.3.7.8.9 1 .4.4 1.6-.2 2-.3z"/><path fill-rule="evenodd" clip-rule="evenodd" fill="#BD9326" d="M-.2 59.8l1.1-2.7-2.9-.6c-.4-.1-2.2-.9-2.6-.7-.4.2-.8 2-1 2.5-.1.4 1.2 1.5 1.4 1.8.1.1.4.6.6.7 1.2-.3 2.3-.6 3.4-1zm-3.2.5c-.5-.5-1.9-1.5-1.6-2.2.1-.3.4-1.5.7-1.7 1.5.4 3 .7 4.4 1l-.7 1.8c-.2.7-2 .9-2.8 1.1z"/><path fill-rule="evenodd" clip-rule="evenodd" fill="#F9DD00" stroke="#CC9E29" stroke-width=".4" stroke-miterlimit="10" d="M2.7 62.8c1.1-.5 2.2-1 3.2-1.5.6-.3.5-.6.7-1.1.3-1 .7-2 1-2.9-.5 0-5.6-.7-5.7-.6-.3.9-.6 1.7-1 2.6-.2.7-.3.7.3 1.4l1.5 2.1z"/><path fill-rule="evenodd" clip-rule="evenodd" fill="#FF1200" d="M3.4 61.1c.4-.2 1.3-.4 1.5-.9l.5-1.3-2-.3c-.5-.1-.4.4-.6.8-.3.8 0 1 .6 1.7z"/><path fill-rule="evenodd" clip-rule="evenodd" fill="#BD9326" d="M2.9 62.3c1-.4 1.9-.9 2.9-1.4.4-1 .7-2 1-3-1.5-.1-2.9-.3-4.3-.5-.3 0-.7 1.6-.8 1.9-.2.6-.4.7 0 1.3.3.5.8 1.1 1.2 1.7zm-1-2.3l.7-1.9c.2-.6 2.9.1 3.6.2-.3.8-.4 2.1-1.3 2.5-.8.4-1.5 1.2-2.1.4l-.9-1.2z"/><path fill-rule="evenodd" clip-rule="evenodd" fill="#F9DD00" stroke="#CC9E29" stroke-width=".4" stroke-miterlimit="10" d="M-11.1 52.7c-.3.8-.6 1.6-1 2.5-.2.5-.4.6-.1 1.2l1.8 2.9c1.2-.3 3.4-.3 3.9-1.5l1.1-2.7c-1.9-.8-3.8-1.5-5.7-2.4z"/><path fill-rule="evenodd" clip-rule="evenodd" fill="#FF1200" d="M-9.7 57.6l1.4-.3c.2-.1.5-1.1.6-1.3l-2.3-.9c-.1.3-.5.9-.5 1.3 0 .3.6.9.8 1.2z"/><path fill-rule="evenodd" clip-rule="evenodd" fill="#BD9326" d="M-6.2 55.4c-1.5-.5-3.1-1.1-4.6-1.8l-.7 1.9c-.4 1.1.5 1.9 1.1 2.8.4.7 1.4.1 2.1-.1.7-.2 1-.1 1.2-.7.4-.7.6-1.4.9-2.1zm-1.4 2.2c-.2.1-2.2.7-2.3.5-.3-.5-.6-1-1-1.5-.5-.8.2-1.6.5-2.4 1.2.5 2.3 1 3.5 1.4-.2.6-.5 1.3-.7 2z"/><g fill-rule="evenodd" clip-rule="evenodd"><path fill="#F9DD00" stroke="#CC9E29" stroke-width=".4" stroke-miterlimit="10" d="M7.8 63.8l.9-.6c.5-.4.5-.7.5-1.3.1-.9.1-1.8.1-2.7 0-.2-.1-1.8-.3-1.9-.7-.1-1.1-.3-1.3.4-.3.9-1.4 2.8-.9 3.7.2.8.6 1.6 1 2.4z"/><path fill="#FF1200" d="M8.4 61.9c.5-.4.8-.5.9-1.1 0-.2.1-1.4-.1-1.5-.1 0-.7-.2-.8-.1-.3.2-.4 1.2-.5 1.5-.1.3.4 1 .5 1.2z"/><path fill="#BD9326" d="M6.9 61l1 2.2c.6-.4 1.4-.7 1.2-1.5l-1 .7c-.4-.9-.8-1.3-.5-2.3l.5-1.6c.1-.3.8-.1 1 0 .1-.8-1.2-.9-1.4-.2-.2.9-.5 1.8-.8 2.7z"/></g><g fill-rule="evenodd" clip-rule="evenodd"><path fill="#F9DD00" stroke="#CC9E29" stroke-width=".4" stroke-miterlimit="10" d="M-15.3 56.8c.9-.3 1.8-.6 2.6-.9.6-.2.9-1.7 1.1-2.3.1-.2.5-.8.4-1-.5-.3-1-.8-1.6-.5-.5.3-.9.6-1.3 1-.3.3-2 1.8-1.8 2.2l.6 1.5z"/><path fill="#FF1200" d="M-14.7 55.2c.3-.1.9-.1 1.1-.4.1-.1.6-1.1.5-1.3 0-.1-.6-.3-.7-.4-.4-.2-.5.1-.8.4-.6.8-.5.9-.1 1.7z"/><path fill="#BD9326" d="M-15.2 56.3l1.9-.6c.6-.2.6-.4.8-1 .1-.2.7-1.6.6-1.7-.5-.2-1.2-.9-1.6-.4.3.1 1.1.4.9.7l-.7 1.8c-.1.2-1.3.4-1.5.5-.4.1-.5-.8-.6-1.1-.6.5 0 1.3.2 1.8z"/></g><g fill-rule="evenodd" clip-rule="evenodd"><path fill="#00ADC9" d="M-11.1 53.3c-.4 0-.9-.2-1.1.2-.2.5-.1 1 .5 1.3.4.2 1 .1 1.1-.2.3-.7 0-.8-.5-1.3zM7.6 59.3c.1-.4.5-.8.1-1.1-.4-.3-1-.5-1.4 0-.3.3-.4.9-.1 1.1.6.5.7.3 1.4 0z"/><path fill="#FF1200" d="M-10.2 58.9c-.5 0-.9-.1-1.1.3-.2.5-.1 1 .5 1.2.4.1 1 0 1.1-.3.2-.7 0-.7-.5-1.2zM-5.8 58.7c-.3-.3-.5-.7-1-.6-.4 0-1.2.1-1.1.8.1.3.7.7 1 .6.9 0 .8 0 1.1-.8zM2.8 62.6c-.5.1-.9.1-1.1.5-.2.5-.2 1 .5 1.1.4.1 1-.2 1.1-.5.3-.7.1-.7-.5-1.1zM8.9 63.1c-.9.3-1.8.8-.9 1.6.5.5 1.2 0 1.4-.5.3-.6 0-.6-.5-1.1zM.7 59.9c-.5.1-.9.1-1.1.5-.2.5-.2 1 .5 1.1.4.1 1-.2 1.1-.5.3-.7.1-.7-.5-1.1zM-16 55.3c-.5-.1-.9-.3-1.1.2-.3.7 0 .8.4 1.4.2.3 1 .2 1.1-.2.3-.7 0-.8-.4-1.4zM-3.5 61c-.5.1-.9 0-1.1.4-.2.5-.1 1 .5 1.1.4.1 1-.1 1.1-.4.2-.7 0-.7-.5-1.1zM-12.1 55.8c-.5 0-.9-.2-1.1.2-.2.5-.1 1 .5 1.3.4.2 1 .1 1.1-.3.3-.6 0-.7-.5-1.2zM6.3 60.8c-.4.1-.9.1-1.1.5-.2.5-.3 1.1.5 1.2.3.1 1-.2 1.1-.5.2-.7.1-.7-.5-1.2z"/><path fill="#00ADC9" d="M-5.5 55.5c-.5 0-.9-.1-1.1.4-.2.5-.1 1 .5 1.2.4.1 1-.1 1.1-.4.3-.7 0-.7-.5-1.2zM1.8 57.2c-.5.1-.9.1-1.1.6-.2.4-.2 1 .5 1.1.4.1 1-.2 1.1-.6.2-.7 0-.7-.5-1.1z"/></g><g fill-rule="evenodd" clip-rule="evenodd" stroke-miterlimit="10"><g fill="#23783B" stroke="#34AD53" stroke-width=".5"><path d="M7.2 55.5c.9 1.8 4 1.1 5.5.8-.4-1.2-2-1.8-3.2-2-.7-.1-3.1-.2-2.3 1.2.4.8-.3-.5 0 0zM5.7 54.4c-1.2.1-.5 1.7 0 2.2 1.1.9 2.8 1.3 4.2 1.5.1-1.7-2.6-3.8-4.2-3.7zM2.1 54.8c-.1 2 2.9 3 4.3 3.5.6-2.1-4.1-5.7-4.3-3.5 0 .8.1-.6 0 0zM-.3 53.9c-.4 1.9 2.5 3.4 3.8 4.1.5-1.2-.4-2.7-1.2-3.6-.6-.5-2.3-2.1-2.6-.5-.2.9.1-.5 0 0zM-3 53.6c-.4 1.9 2.4 3.4 3.8 4.1.8-2-3.3-6.3-3.8-4.1-.2.8.1-.6 0 0zM-4.6 52.1c-1.3-.5-1.2 1.5-.8 2.2.6 1.2 1.9 2.2 3 3 .9-1.6-.6-4.6-2.2-5.2-.4-.2.4.1 0 0zM-8.2 52c-.7 1.9 2 3.7 3.2 4.6.6-1.1 0-2.7-.7-3.7-.4-.6-1.9-2.4-2.5-.9-.3.8.3-.5 0 0zM-10 50.9c-1 1.7 1.3 4 2.3 5.1.8-1 .4-2.7 0-3.7-.3-.8-1.5-2.9-2.3-1.4-.5.7.3-.5 0 0zM6.7 53.4c-1 1.4 2.1.8 2.6.7 1.1-.3 3.1-1.2 3.2-2.5-1.7.3-4.8.2-5.8 1.8-.4.4.2-.4 0 0zM4.3 53.5c-.4 1.3 1.9.6 2.4.4 1-.4 2.9-1.7 2.5-3-1.3.5-4.4 1-4.9 2.6-.1.5.1-.4 0 0zM1.3 53.6c-.3 1.5 2.3.5 2.8.2.9-.4 2.3-1.6 1.9-2.7-1.2.5-4.4 1-4.7 2.5-.1.5.1-.4 0 0zM-1.5 53.6c-.3 1.6 5.5.1 4.6-2.4-1.1.4-4.3.9-4.6 2.4zM-4.2 52.8c-.4 1.4 2.2.9 2.8.6.9-.3 2.4-1.2 2.2-2.4-1.3.3-4.6.3-5 1.8-.2.4.1-.4 0 0zM-3 51.9c.4-.4.9-.9.8-1.5-1.2.2-4.1.1-4.8 1.3-.6 1 .6 1.3 1.3 1.3 1 0 2-.4 2.7-1.1.6-.5-.5.5 0 0zM-9.7 50.7c-.7 1.5 5.1 1.7 5.1-.9-1.1 0-4.5-.5-5.1.9zM-11.9 49.8c-.5 1.9 5.1 1.4 5-1.1-1.1.1-4.6-.4-5 1.1-.1.5.1-.4 0 0z"/></g><path fill="#23783B" stroke="#34AD53" stroke-width=".5" d="M-15 54.3c.6-.6 2.9-4.4.6-4.1-2 .3-2.2 3.5-2.4 5 .7.1 1.4-.4 1.8-.9.5-.6-.6.6 0 0zM-12.8 50.2c-.9 1.7 1.4 3.9 2.5 5 .7-.9.4-2.4 0-3.3-.3-.8-1.7-3.3-2.5-1.7-.5.8.2-.5 0 0zM-12.7 50.6c1.6 1.1 4-1.1 5.2-2.1-1-.9-2.6-.6-3.7-.2-.8.3-2.8 1.4-1.5 2.3.7.5-.5-.3 0 0zM-12.9 49.1c1.7-1.1.6-4.1.1-5.6-1.2.5-1.6 2.2-1.6 3.4 0 .7.2 3.1 1.5 2.2.8-.5-.5.3 0 0zM-16.1 50.1c.6.1 1.5.2 2-.2.5-.5-.1-1.3-.4-1.6-1.2-1-3.5-.6-5-.5.3 1.4 2.2 2 3.4 2.3.8.1-.7-.2 0 0z"/><path fill="#D62A0D" stroke="#9B1C0B" stroke-width=".75" d="M-14.6 50.3c.3 1.4 2.5 1 2.2-.5-.3-1.4-2.5-1-2.2.5z"/></g><g fill-rule="evenodd" clip-rule="evenodd"><path fill="#B41022" stroke="#000" stroke-width=".5" stroke-miterlimit="10" d="M31.3 54.2c-.1-1.1-.7-3.5-2.2-3.3-1.5.1-1.6 2.6-1.5 3.7.1 1.1.7 3.4 2.2 3.3 1.5-.2 1.6-2.6 1.5-3.7zM29.1 37.6l-3.7-37.8c0-.1-2.1.1-2.4.2l3.8 37.9c0 .1 2.1-.2 2.3-.3z"/><path fill="#AB9800" stroke="#9C7C1E" stroke-width=".5" stroke-miterlimit="10" d="M27.7 32.1c2.1-.3 1.9-2.3 1.7-4-.1-1.6-.5-5.3-2.7-5.5.3 3.2.6 6.3 1 9.5z"/><path fill="#F9DD00" d="M30.5 64.6v-1c-.2.3-.1.6 0 1z"/><path fill="#AB9800" stroke="#9C7C1E" stroke-width=".5" stroke-miterlimit="10" d="M30.2 59.5c.1.6.2 1.3.4 1.9.3-1.7 1.5-2.9-.2-4.5-.5-.5-1-.4-1.4.2.3.9 1 1.5 1.2 2.4.2.9-.1-.7 0 0zM31.9 54.3c-1.1-1.3-1.4-4-1.7-5.6-.4-2.1-.6-4.2-.6-6.3 0-2 .3-4 .7-6-.2-.8-.1-1.3-.9-1.2l-1.3.1c.2 2 .7 4.2.5 6.2-.3 3.3.7 6.6.3 9.9.7-.8 1.2 1.1 1.3 1.5l.2 1.4.4 1.1c.5-.2 1.8-.3 1.1-1.1zM30.2 34l-.1-1.1-2 .2c-.6.1-.2.7-.2 1.2l2.3-.3zM26.8 23.7c1.1-.2 1.8-1 1.8-2.1 0-1.6-.6-1.4-1.8-1.1-.7.2-.1 2.6 0 3.2zM26.6 1.3c0-.5-.2-.9-.3-1.3h-1.6l.1 2.3c.9 0 1.8.3 1.8-.9v-.1z"/><path fill="#F9DD00" stroke="#000" stroke-width=".5" stroke-miterlimit="10" d="M30.6 61.4c-.2-.8-.2-1.6-.5-2.3l-1.1-1.9c-.9 1.1-.6 2.1.1 3.1.7 1.1 1 2.4 1.2 3.6.3-.7.2-1.7.3-2.5-.1-.4-.1.7 0 0zM27.1 54.1c.1.5-.8.9-.6 1.3.4 0 .9.1 1.3.2.6.1.5-.4.7-.9.3-.9-.3-2.1.1-3.1.8-1.8.2-4.2-.1-6.1-.3-1.9.1-3.6-.1-5.5l-.4-3.6c0-.2 0-1.1-.1-1.2-.2-.1-1.3.1-1.5.1-.4 0-.9-.1-1 .4-.1 1 .1 1.4.5 2.4 2.1 5 2.3 10.9 1.2 16 .1.2.7-3 0 0zM27.4 32.1c.6 0 0-2.5 0-3l-.6-5.5c0-.3.1-1-.3-.9-1.4.1-1.8 2.1-1.9 3.1-.3 2.1-.3 6.6 2.8 6.3zM25.1 34.6l2.2-.2c.9-.1.6-.3.5-1.2l-2.2.2c-.9.1-.6.3-.5 1.2zM26.6 23.8c.5-.1 0-2.6-.1-3.2-.7.1-2.4-.6-2.4.7-.1 1.5.9 2.6 2.5 2.5zM24.9 2.3l-.1-2.3h-2.4c-.3.8-.5 2.1.1 2.6.5.4 1.7-.4 2.4-.3z"/><path fill="#837718" stroke="#595210" stroke-width=".75" stroke-miterlimit="10" d="M30.2 44.2c-.2-1.5-3.5-1.1-3 .6.4 1.2 3.1.8 3-.6-.1-.4 0 .7 0 0z"/></g><path fill-rule="evenodd" clip-rule="evenodd" fill="#F2D8C0" stroke="#000" stroke-width=".5" stroke-miterlimit="10" d="M38.4 0h-9.4c-.2.3-.3.6-.6.8-.8.7-1.5 1.4-2.4 2-.7.5-1.4.9-2 1.5-.5.4-1 1-1.6 1.3-.6.2-1.6.2-1.9.9-.3.6 1 1.3.5 1.8-.5.4-.8 1.4-.3 1.9.7.7.5.8.3 1.7-.1.7.8 1.1 1 1.7.2.4.7 1.3 1.3.9-.7.4-.5 1 .2 1.4 1.5.6.4-.8.7-1.3.3-.3 1.8-.4 2.2-.5 1-.1.8.6.8 1.3.4-.5.9-.9 1-1.6.2-.6 1-.7 1.5-.8 1-.3 1.6-1.7 2-2.6.6-1.1.7-2.4 1.2-3.5s.8-2.3 1.6-3.3l.1-.1v-.1c.5-.5 1-1 1.6-1.5.8-.2 1.8-.9 2.1-1.6.1-.1.1-.2.1-.3z"/><path d="M30.7 11.4c-.7.1-.1 1-.9 1.4l-1.9.7c-.3.1-.6.5-1 .6l-2.1.2c-.6.1-1.2.2-1.7.1s-.7-.7-1.1-.1c1 1.2 3.6.5 5 .3.7-.1 1.4-.8 2.1-1 1-.4 2.2-.9 1.6-2.2zM27.4 11.2c-.5 0-.9.5-1.3.6l-1.6.6c-.8.3-1.3.4-2.1.2-.5-.1-1.3-.9-1.6-.2 1.3 1.1 2.9.9 4.3.2.5-.3 1.2-.3 1.7-.7.3-.2.8-.2 1-.5-.1-.1-.2-.2-.4-.2zM26.3 8.7c-.8.6-1.9 1.1-2.8 1.4-.6.2-2.4-.1-2.2.7 2 0 3.6-.6 5.3-1.7l-.3-.4zM24.9 6.4c-1.3 1.1-2.4 1.2-4 1.5-.1.8 1.3.3 1.9.2 1-.2 1.7-.7 2.5-1.3-.1-.2-.2-.4-.4-.4z"/></symbol><use xlink:href="#b" width="100" height="150" x="-50" y="-75" transform="matrix(1 0 0 -1 50 75)" overflow="visible"/><g><g><use xlink:href="#c" width="9.9" height="9.9" x="-4.9" y="-4.9" transform="matrix(-1 0 0 1 89 122)" overflow="visible"/><use xlink:href="#c" width="9.9" height="9.9" x="-4.9" y="-4.9" transform="matrix(-1 0 0 1 11 122)" overflow="visible"/><use xlink:href="#c" width="9.9" height="9.9" x="-4.9" y="-4.9" transform="matrix(1 0 0 -1 89 28)" overflow="visible"/><use xlink:href="#c" width="9.9" height="9.9" x="-4.9" y="-4.9" transform="matrix(1 0 0 -1 11 28)" overflow="visible"/><use xlink:href="#d" width="6.5" height="12.1" x="-3.2" y="-6" transform="matrix(-1 0 0 1 90 136)" overflow="visible"/><use xlink:href="#d" width="6.5" height="12.1" x="-3.2" y="-6" transform="matrix(-1 0 0 1 10 136)" overflow="visible"/><use xlink:href="#d" width="6.5" height="12.1" x="-3.2" y="-6" transform="matrix(1 0 0 -1 90 14)" overflow="visible"/><use xlink:href="#d" width="6.5" height="12.1" x="-3.2" y="-6" transform="matrix(1 0 0 -1 10 13.999)" overflow="visible"/><use xlink:href="#e" width="81" height="66.1" x="-40.5" y="-.5" transform="matrix(1 0 0 -1 50 75)" overflow="visible"/><use xlink:href="#e" width="81" height="66.1" x="-40.5" y="-.5" transform="matrix(-1 0 0 1 50 75)" overflow="visible"/><use xlink:href="#f" width="82" height="132" x="-41" y="-66" transform="matrix(1 0 0 -1 50 75)" overflow="visible"/><use xlink:href="#a" width="15.2" height="15.2" x="-7.6" y="-7.6" transform="matrix(-1 0 0 1 77 128)" overflow="visible"/><use xlink:href="#a" width="15.2" height="15.2" x="-7.6" y="-7.6" transform="matrix(1 0 0 -1 23 22)" overflow="visible"/></g></g></svg>
