<svg xmlns="http://www.w3.org/2000/svg" xmlns:xlink="http://www.w3.org/1999/xlink" viewBox="0 0 100 150" enable-background="new 0 0 100 150"><symbol id="a" viewBox="-7.3 -7.3 14.6 14.6"><path fill-rule="evenodd" clip-rule="evenodd" d="M1.7 2.6c-.7-.8-1-1.4-1.1-2 .6.1 1.3.4 2 1.1.7.6 1.4.9 2.1.9.7 0 1.3-.3 1.9-.8.5-.5.7-1.1.7-1.8s-.3-1.3-.8-1.9c-.5-.4-1.1-.7-1.8-.7s-1.4.3-2.1 1c-.8.7-1.4 1-2 1.1 0-1.4 0-2.5.1-3.3.2-1.5.6-2.5 1.1-3.2.1-.1.1-.1 0-.2 0-.1-.1-.1-.2-.1-.6.1-1.1.2-1.6.2s-1-.1-1.7-.2c-.1 0-.1 0-.2.1s-.1.1 0 .2c.6.7.9 1.7 1.1 3.1.1.9.2 2 .2 3.3-.5 0-1.2-.4-2-1-.7-.7-1.4-1-2.1-1-.7 0-1.3.3-1.9.8-.5.5-.7 1.1-.7 1.8s.3 1.3.8 1.8c.5.6 1.1.8 1.8.8s1.4-.3 2.1-.9c.8-.7 1.4-1 2-1.1-.1.6-.4 1.3-1.1 2-.6.8-.9 1.4-.9 2.1 0 .7.3 1.3.8 1.9.5.5 1.1.7 1.8.7s1.3-.3 1.9-.8c.4-.5.7-1.1.7-1.8s-.3-1.3-.9-2.1z"/></symbol><symbol id="c" viewBox="-4.8 -4.8 9.5 9.5"><use xlink:href="#a" width="14.6" height="14.6" x="-7.3" y="-7.3" transform="scale(.65)" overflow="visible"/></symbol><symbol id="e" viewBox="-40.2 -8.5 80.7 73.8"><path fill-rule="evenodd" clip-rule="evenodd" fill="#EFE4D5" d="M-6.6 56.5c3.4 1.7 8.1 1.2 11.6-.1 4.4-1.6 1.8-6.1 2.6-9.5l.9-5.2c.6-2 1-4.9.1-6.8-.7-1.5-1.1-3.2-2.6-4.2-1.6-1-3.3-2.3-5-3.1-1.3-.6-2.6-1.6-4.1-1.5-2.1.2-4.2.8-5.8 2.2-2.4 2.1-2.6 6.1-3.8 8.8-.4.8 0 3.1.2 4 .4 2.1.5 4.3.7 6.5.1 1.6.7 2.9.7 4.5.1 1.8 3.1 3.6 4.5 4.4 1.4.7-1.3-.7 0 0z"/><path fill="#0D9934" stroke="#3A8222" stroke-width=".5" stroke-miterlimit="10" d="M36.3 13.8c-1.1.9-2.5 1.4-3.4 2.4l-.3.3s0 .1-.1.1c-.9 1.1-1.7 2.2-2.5 3.2l-.7.9-.4.5-1.5 1.8s0 .1-.1.1l-.1.1c-.1.1-.1.2-.2.2l-.3.3c-.4.5-.8 1-1.1 1.5l-.6 1c-.2.4-.5.8-.7 1.1l-.2.3-.4.6c-.1.2-.2.3-.4.5-.2.3-.5.6-.8.8-.1 0-.1.1-.2.2-2 1.9-4.3 3.6-7 3.4-.5 0-.9-.1-1.4-.2-.2-.1-.4-.1-.5-.2-.4-.1-.8-.3-1.1-.5-.3-.1-.5-.2-.8-.4-.2-.1-.3-.2-.5-.2l-1.1-.6c-.4-.2-.8-.4-1.2-.7l-.5-.3-.3-.1-6.8-3.3c-1.7-.8-3.1-1.3-4.5-1.2-.9 0-1.8.3-2.8.7-.3.1-.7.3-1 .5-2.1 1.2-3.5 3.1-5.2 4.7-.3.3-.7.6-1.1.9-.2.2-.5.4-.7.5l-.8.5-.4.2c-2.6 1.1-5.2.5-7.6-.8-3.3-1.8-5.7-3.9-7.9-6.9l-.9-1.1-.9-.9-.8-.8c-.5-.4-.9-.9-1.3-1.3-.2-.2-.4-.4-.5-.7v-.1c-.6-.8-1.1-1.6-1.3-2.5v-.2c-.3-1.7-.3-3-1.2-4.4-.7-1.1-1.4-2.1-2-3.2v-10.5h80v10.1c-1.4 1.3-2.5 2.6-3.9 3.7z"/><path fill-rule="evenodd" clip-rule="evenodd" fill="#C51C20" stroke="#E2D600" stroke-miterlimit="10" d="M-17 29.6c1.6.7 1.6-1.4 1.2-2.4-.4-.9-.9-1.2-1.2-2.1-.3-1.1-.7-2.1-1.2-3.1-.7-1.5-1.6-2.9-2.7-4.1-.5-.6-1.1-1.3-1.8-1.8-.2-1-.9-2.1-1.9-2.5-1.6-.7-1.6 1.4-1.2 2.4.4.9.9 1.2 1.2 2.1.3 1.1.7 2.1 1.2 3.1.7 1.5 1.6 2.9 2.7 4.1.5.6 1.1 1.3 1.8 1.8.2 1 .9 2.1 1.9 2.5zM-15.3 22.2c1.7-.3 1.4-3.1.8-4.1.5-2 .4-4.2.1-6.2-.3-1.8-.7-3.6-1.4-5.2-.5-1-.2-4.7-2.3-4.4-1.7.2-1.3 3.1-.8 4.1-.5 2-.3 4.2-.1 6.2.3 1.8.7 3.6 1.4 5.2.5 1.1.1 4.8 2.3 4.4.4 0-.4.1 0 0zM-1.6 20.4c1.7 0 1.8-2.8 1.5-3.9.8-1.9 1-4.1 1-6.1 0-1.8-.1-3.6-.6-5.3-.3-1.1.6-4.7-1.6-4.7-1.7 0-1.8 2.9-1.5 3.9-.8 1.9-1 4.1-1 6.1 0 1.8.1 3.6.6 5.4.3 1-.6 4.6 1.6 4.6zM4.3 22c1.7.2 2.2-2.6 1.9-3.7 1-1.7 1.5-3.9 1.8-5.9.2-1.8.3-3.7 0-5.4-.2-1.2 1.1-4.5-1-4.9-1.8-.2-2.2 2.6-2 3.7-1 1.8-1.5 3.9-1.7 5.9-.2 1.8-.3 3.6 0 5.4.1 1.1-1.2 4.6 1 4.9.3 0-.4-.1 0 0zM9.1 24.6c1.4.4 2.1-2.2 2.1-3.1 1.1-1.5 1.8-3.3 2.3-5 .5-1.5.9-3.2.9-4.8 0-.9 1.7-3.9 0-4.4-1.4-.4-2.1 2.2-2.1 3.1-1.1 1.5-1.8 3.3-2.4 5-.5 1.5-.9 3.2-.9 4.8.1.9-1.6 3.9.1 4.4zM12.4 26.7c.2 1.7 1.9.5 2.5-.3.5-.7.5-1.4 1.1-2.1.7-.8 1.3-1.7 1.9-2.6.8-1.4 1.5-2.8 2-4.3.3-.8.5-1.6.6-2.4.7-.7 1.2-1.8 1.1-2.8-.2-1.7-1.9-.5-2.5.3-.5.7-.5 1.4-1.1 2.1-.7.8-1.3 1.7-1.9 2.6-.8 1.4-1.5 2.8-2.1 4.3-.3.8-.5 1.5-.6 2.3-.6.7-1.1 1.8-1 2.9.1.4 0-.5 0 0zM16.3 30.3c1.1.8 2.5-1.4 2.8-2.1 1.4-1 2.6-2.4 3.6-3.8s2-3 2.5-4.6c.7-.5 2.3-2.5 1.1-3.3-1.1-.8-2.5 1.4-2.8 2.1-1.4 1-2.6 2.4-3.6 3.8s-2 3-2.5 4.6c-.6.4-2.2 2.5-1.1 3.3.2.1-.2-.2 0 0z"/><g fill-rule="evenodd" clip-rule="evenodd"><path fill="#C32520" stroke="#7F0000" stroke-width=".75" stroke-miterlimit="10" d="M-3.3 25.8c0-.1 0-.3-.1-.5-.1-.3-.1-.8-.2-1.3-.1-.3-.2-.7-.2-1.1-.7-3.2-1.7-8.1-1.8-9-.4-1.9-.7-3.9-.9-5.9l-.1-1.5-.1-2c0-.8-.1-1.6-.1-2.5v-2.1h-6c-.1 2.7 0 5.4.3 8.1 0 .2 0 .5.1.8l.1 1.2.6 4.5v.2c0 .3.1.4.1.4v.2l.5 2.9c.4 2.1.9 4.2 1.3 6.2.2.9.4 1.7.6 2.5 1-.2 2-.5 3-.8 1 .1 2-.1 2.9-.3z"/><g fill="#EDEDED"><path d="M-7.3 22.6c1 0 1-1.4 0-1.4-1-.1-1 1.4 0 1.4zM-7.2 18.7c0-.9-1.5-.9-1.5 0s1.5.9 1.5 0zM-7.9 14.6c0-.9-1.5-.9-1.5 0s1.5.9 1.5 0zM-9.7 1.7c0-.9-1.5-.9-1.5 0s1.5.9 1.5 0z"/></g></g><g fill-rule="evenodd" clip-rule="evenodd"><path fill="#E2D600" d="M-4.1.8c-.3-.3-.6-.5-1-.8h-1.3c-.1-.1-.2-.2-.4-.3v.3h-.7l-.6.8c-.5.8-1 1.6-1.4 2.5-1 1.8-1.8 3.8-2.5 5.8-.1.3-.2.7-.4 1-.6 1.7-1.1 3.4-1.7 5l-.1.3c-.7 2.1-1.4 4.3-2.1 6.6-.3 1-.6 1.9-.8 2.9-.3 1.3-.6 2.7-.8 4-.2 1.3-.3 2.6-.4 3.9v.5h2.7c.9 0 1.2-.2 1.2-.6l.1-1.6c0-.2.1-.4.1-.5.7-4.1 1.8-8.2 3-12.2.1-.4.2-.8.4-1.2.7-2.2 1.4-4.4 2.2-6.6.5-1.4 1.1-2.8 1.8-4.2.2-.5.5-1 .8-1.6.2-.3.3-.6.5-1l.2-.3c.3-.2.6-.5.8-.8.1-.2.2-.4.3-.5.4-.5.5-1 .1-1.4z"/><path fill="#EDEDED" d="M-6.5 8c-.4 1-.8 1.9-1.3 2.9-.1 0-.3-.1-.7-.3-.8-.4-2.5-1.1-3.5-1.5-.2-.1-.4-.2-.5-.2-.2-.1-.3-.2-.3-.2.1-.2.2-.4.2-.6.8-1.7 1.5-3.4 2.2-5.1.1 0 .4.2.8.3.8.3 1.9.8 2.8 1.2l.9.4.6.3c-.4 1-.8 1.9-1.2 2.8zm-3.2-3.5c-.5 1.2-1 2.4-1.5 3.5.4.2 2.8 1.3 2.9 1.2.5-1.1 1-2.3 1.5-3.5-1-.3-2-.7-2.9-1.2z"/></g><path fill-rule="evenodd" clip-rule="evenodd" fill="#C51C20" stroke="#000" stroke-width=".5" stroke-miterlimit="10" d="M-14.6 34c-.2-.1-.5-.2-.8-.2-.5-.1-1-.2-1.4-.3-.2 0-.4-.1-.5-.1-.3-.1-.6-.2-1-.4-2.1-.9-4.2-2.3-5.8-3.9-2.7-2.7-4.7-6.7-6.8-9.8-1-1.5-2.2-3.4-2.7-5.2-.3-1.1-.4-2.1-.7-3-.2-1-.5-2-1.1-3.1-.5-.8-1-2-1.6-3.2-.7-1.8-1.7-3.5-3-4.6v12.5c1.1 1.9 2.2 4 3.3 6l.8 1.5 1 1.9.4.7c2 3.3 4.3 6.4 7.5 8.8l.1.1.1.1c.1.1.1.1.2.1 2.8 1.9 7.4 3.8 11 3.3.4-.1.8-.1 1.1-.2 1.2-.4.7-.7-.1-1z"/><path fill-rule="evenodd" clip-rule="evenodd" fill="#C51C20" d="M40 14.4c-.2.2-.3.3-.5.4h-.1s-.1 0-.1.1l-.2.1s-.1 0-.1.1l-.1.1-.1.1c-1.4 1-2.9 2.1-3.9 3.5-.9 1.3-1.8 3-3.1 4.1l-.2.2-.2.2c-.3.2-.7.4-1.1.5-.9.2-1.9-.1-3-.6l-.6-.3c-.8-.4-1.6-.9-2.3-1.2l-.3-.2-.6-.3c-.7-.3-1.3-.8-1.8-1.2-.1-.1-.2-.2-.3-.2-.6-.5-1.2-1.1-1.7-1.7l-1.2-1.2c-.2-.2-.7-.6-1.4-1.1-.7-.5-1.7-1.2-2.8-2-.3-.2-.6-.5-1-.7l-.8-.6c-.3-.2-.7-.5-1-.8-1-.8-2.1-1.6-3.2-2.4-1.3-.8-2.6-1.8-3.7-2.7-.1-.1-.3-.2-.4-.4 0 0-.1 0-.1-.1-.1 0-.3-.1-.4-.2-1.4-1.2-2.6-2.3-3.5-3.4-.8-.8-1.3-1.5-1.7-2.1-.1-.2-.1-.3-.2-.4h9c2 1.9 4 3.8 5.9 5.6l6.5 6.2c.6.5 1.2 1.1 1.7 1.6l-.3.6-.2.3c0 .1-.1.2-.2.2-.1.2-.2.3-.4.4-.1.8-.3 1.6-.6 2.4l-.2.6c.5.5 1 .9 1.4 1.4.2.2.4.4.7.5l.6-.6c.2-.2.4-.4.6-.5 0-.4-.1-.9-.2-1.3 0 .1.1.2.2.2 0 .1.1.2.2.2l.1.2.2.2c.2-.3.4-.8.8-1.2l.9.9.3-.5.2-.4c.1-.2.2-.5.2-.8v-.1l.2-.5.2-.6.2-.3.4-.6c.2-.3.4-.5.6-.7l.2-.1c.1 0 .2-.1.2-.1h.4-.7c1.1-3.1.1-6.7.2-9.8 0-1-.2-2.2-.3-3.3h12.7v14.1l.5-.4-.5.6z"/><path d="M14.3 13.9c-.3-.2-.6-.5-1-.7l-.8-.6c-.3-.2-.7-.5-1-.8-1-.8-2.1-1.6-3.2-2.4-1.3-.9-2.6-1.9-3.7-2.8-.1-.1-.3-.2-.4-.4l.5.3c.9.7 1.7 1.3 2.1 1.6l1.5 1 3.4 2.3 2.7 1.8c-.1.3-.1.5-.1.7zm0 0c-.3-.2-.6-.5-1-.7l-.8-.6c-.3-.2-.7-.5-1-.8-1-.8-2.1-1.6-3.2-2.4-1.3-.9-2.6-1.9-3.7-2.8-.1-.1-.3-.2-.4-.4l.5.3c.9.7 1.7 1.3 2.1 1.6l1.5 1 3.4 2.3 2.7 1.8c-.1.3-.1.5-.1.7zm0 0c-.3-.2-.6-.5-1-.7l-.8-.6c-.3-.2-.7-.5-1-.8-1-.8-2.1-1.6-3.2-2.4-1.3-.9-2.6-1.9-3.7-2.8-.1-.1-.3-.2-.4-.4l.5.3c.9.7 1.7 1.3 2.1 1.6l1.5 1 3.4 2.3 2.7 1.8c-.1.3-.1.5-.1.7zm0 0c-.3-.2-.6-.5-1-.7l-.8-.6c-.3-.2-.7-.5-1-.8-1-.8-2.1-1.6-3.2-2.4-1.3-.9-2.6-1.9-3.7-2.8-.1-.1-.3-.2-.4-.4l.5.3c.9.7 1.7 1.3 2.1 1.6l1.5 1 3.4 2.3 2.7 1.8c-.1.3-.1.5-.1.7zm0 0c-.3-.2-.6-.5-1-.7l-.8-.6c-.3-.2-.7-.5-1-.8-1-.8-2.1-1.6-3.2-2.4-1.3-.9-2.6-1.9-3.7-2.8-.1-.1-.3-.2-.4-.4l.5.3c.9.7 1.7 1.3 2.1 1.6l1.5 1 3.4 2.3 2.7 1.8c-.1.3-.1.5-.1.7zm0 0c-.3-.2-.6-.5-1-.7l-.8-.6c-.3-.2-.7-.5-1-.8-1-.8-2.1-1.6-3.2-2.4-1.3-.9-2.6-1.9-3.7-2.8-.1-.1-.3-.2-.4-.4l.5.3c.9.7 1.7 1.3 2.1 1.6l1.5 1 3.4 2.3 2.7 1.8c-.1.3-.1.5-.1.7zm0 0c-.3-.2-.6-.5-1-.7l-.8-.6c-.3-.2-.7-.5-1-.8-1-.8-2.1-1.6-3.2-2.4-1.3-.9-2.6-1.9-3.7-2.8-.1-.1-.3-.2-.4-.4l.5.3c.9.7 1.7 1.3 2.1 1.6l1.5 1 3.4 2.3 2.7 1.8c-.1.3-.1.5-.1.7zm0 0c-.3-.2-.6-.5-1-.7l-.8-.6c-.3-.2-.7-.5-1-.8-1-.8-2.1-1.6-3.2-2.4-1.3-.9-2.6-1.9-3.7-2.8-.1-.1-.3-.2-.4-.4l.5.3c.9.7 1.7 1.3 2.1 1.6l1.5 1 3.4 2.3 2.7 1.8c-.1.3-.1.5-.1.7zm0 0c-.3-.2-.6-.5-1-.7l-.8-.6c-.3-.2-.7-.5-1-.8-1-.8-2.1-1.6-3.2-2.4-1.3-.9-2.6-1.9-3.7-2.8-.1-.1-.3-.2-.4-.4l.5.3c.9.7 1.7 1.3 2.1 1.6l1.5 1 3.4 2.3 2.7 1.8c-.1.3-.1.5-.1.7zm0 0c-.3-.2-.6-.5-1-.7l-.8-.6c-.3-.2-.7-.5-1-.8-1-.8-2.1-1.6-3.2-2.4-1.3-.9-2.6-1.9-3.7-2.8-.1-.1-.3-.2-.4-.4l.5.3c.9.7 1.7 1.3 2.1 1.6l1.5 1 3.4 2.3 2.7 1.8c-.1.3-.1.5-.1.7zm0 0c-.3-.2-.6-.5-1-.7l-.8-.6c-.3-.2-.7-.5-1-.8-1-.8-2.1-1.6-3.2-2.4-1.3-.9-2.6-1.9-3.7-2.8-.1-.1-.3-.2-.4-.4l.5.3c.9.7 1.7 1.3 2.1 1.6l1.5 1 3.4 2.3 2.7 1.8c-.1.3-.1.5-.1.7zm0 0c-.3-.2-.6-.5-1-.7l-.8-.6c-.3-.2-.7-.5-1-.8-1-.8-2.1-1.6-3.2-2.4-1.3-.9-2.6-1.9-3.7-2.8-.1-.1-.3-.2-.4-.4l.5.3c.9.7 1.7 1.3 2.1 1.6l1.5 1 3.4 2.3 2.7 1.8c-.1.3-.1.5-.1.7zm0 0c-.3-.2-.6-.5-1-.7l-.8-.6c-.3-.2-.7-.5-1-.8-1-.8-2.1-1.6-3.2-2.4-1.3-.9-2.6-1.9-3.7-2.8-.1-.1-.3-.2-.4-.4l.5.3c.9.7 1.7 1.3 2.1 1.6l1.5 1 3.4 2.3 2.7 1.8c-.1.3-.1.5-.1.7zm0 0c-.3-.2-.6-.5-1-.7l-.8-.6c-.3-.2-.7-.5-1-.8-1-.8-2.1-1.6-3.2-2.4-1.3-.9-2.6-1.9-3.7-2.8-.1-.1-.3-.2-.4-.4l.5.3c.9.7 1.7 1.3 2.1 1.6l1.5 1 3.4 2.3 2.7 1.8c-.1.3-.1.5-.1.7zm0 0c-.3-.2-.6-.5-1-.7l-.8-.6c-.3-.2-.7-.5-1-.8-1-.8-2.1-1.6-3.2-2.4-1.3-.9-2.6-1.9-3.7-2.8-.1-.1-.3-.2-.4-.4l.5.3c.9.7 1.7 1.3 2.1 1.6l1.5 1 3.4 2.3 2.7 1.8c-.1.3-.1.5-.1.7zm0 0c-.3-.2-.6-.5-1-.7l-.8-.6c-.3-.2-.7-.5-1-.8-1-.8-2.1-1.6-3.2-2.4-1.3-.9-2.6-1.9-3.7-2.8-.1-.1-.3-.2-.4-.4l.5.3c.9.7 1.7 1.3 2.1 1.6l1.5 1 3.4 2.3 2.7 1.8c-.1.3-.1.5-.1.7zm0 0c-.3-.2-.6-.5-1-.7l-.8-.6c-.3-.2-.7-.5-1-.8-1-.8-2.1-1.6-3.2-2.4-1.3-.9-2.6-1.9-3.7-2.8-.1-.1-.3-.2-.4-.4l.5.3c.9.7 1.7 1.3 2.1 1.6l1.5 1 3.4 2.3 2.7 1.8c-.1.3-.1.5-.1.7zm0 0c-.3-.2-.6-.5-1-.7l-.8-.6c-.3-.2-.7-.5-1-.8-1-.8-2.1-1.6-3.2-2.4-1.3-.9-2.6-1.9-3.7-2.8-.1-.1-.3-.2-.4-.4l.5.3c.9.7 1.7 1.3 2.1 1.6l1.5 1 3.4 2.3 2.7 1.8c-.1.3-.1.5-.1.7zm0 0c-.3-.2-.6-.5-1-.7l-.8-.6c-.3-.2-.7-.5-1-.8-1-.8-2.1-1.6-3.2-2.4-1.3-.9-2.6-1.9-3.7-2.8-.1-.1-.3-.2-.4-.4l.5.3c.9.7 1.7 1.3 2.1 1.6l1.5 1 3.4 2.3 2.7 1.8c-.1.3-.1.5-.1.7zm0 0c-.3-.2-.6-.5-1-.7l-.8-.6c-.3-.2-.7-.5-1-.8-1-.8-2.1-1.6-3.2-2.4-1.3-.9-2.6-1.9-3.7-2.8-.1-.1-.3-.2-.4-.4l.5.3c.9.7 1.7 1.3 2.1 1.6l1.5 1 3.4 2.3 2.7 1.8c-.1.3-.1.5-.1.7zm0 0c-.3-.2-.6-.5-1-.7l-.8-.6c-.3-.2-.7-.5-1-.8-1-.8-2.1-1.6-3.2-2.4-1.3-.9-2.6-1.9-3.7-2.8-.1-.1-.3-.2-.4-.4l.5.3c.9.7 1.7 1.3 2.1 1.6l1.5 1 3.4 2.3 2.7 1.8c-.1.3-.1.5-.1.7zm0 0c-.3-.2-.6-.5-1-.7l-.8-.6c-.3-.2-.7-.5-1-.8-1-.8-2.1-1.6-3.2-2.4-1.3-.9-2.6-1.9-3.7-2.8-.1-.1-.3-.2-.4-.4l.5.3c.9.7 1.7 1.3 2.1 1.6l1.5 1 3.4 2.3 2.7 1.8c-.1.3-.1.5-.1.7zm0 0c-.3-.2-.6-.5-1-.7l-.8-.6c-.3-.2-.7-.5-1-.8-1-.8-2.1-1.6-3.2-2.4-1.3-.9-2.6-1.9-3.7-2.8-.1-.1-.3-.2-.4-.4l.5.3c.9.7 1.7 1.3 2.1 1.6l1.5 1 3.4 2.3 2.7 1.8c-.1.3-.1.5-.1.7zm0 0c-.3-.2-.6-.5-1-.7l-.8-.6c-.3-.2-.7-.5-1-.8-1-.8-2.1-1.6-3.2-2.4-1.3-.9-2.6-1.9-3.7-2.8-.1-.1-.3-.2-.4-.4l.5.3c.9.7 1.7 1.3 2.1 1.6l1.5 1 3.4 2.3 2.7 1.8c-.1.3-.1.5-.1.7zm0 0c-.3-.2-.6-.5-1-.7l-.8-.6c-.3-.2-.7-.5-1-.8-1-.8-2.1-1.6-3.2-2.4-1.3-.9-2.6-1.9-3.7-2.8-.1-.1-.3-.2-.4-.4l.5.3c.9.7 1.7 1.3 2.1 1.6l1.5 1 3.4 2.3 2.7 1.8c-.1.3-.1.5-.1.7zm25.7.5v.1c-.6.6-1.3 1.2-1.9 1.6-1.7 1.3-2.9 2.5-4 4.2-.6 1-1.4 2.1-2.4 2.9-.2.2-.5.4-.8.5-.6.3-1.3.5-2.1.3-.6-.1-1.2-.3-1.8-.6-.1 0-.2-.1-.4-.2l-2.5-1.3-.7-.4-.7-.3c-.5-.2-1-.6-1.4-.9-.6-.5-1.2-1.2-1.8-1.8-.6-.7-1.2-1.4-2-2l-.7-.5-2.7-2c-1-.7-1.9-1.4-2.9-2-1-.7-2.1-1.5-3.2-2.2l-2.9-2.1c-.1-.2-.3-.4-.7-.7-1.1-.8-2.8-2.2-4.2-3.6-.9-1-1.7-2-2.2-2.9-.1-.2-.2-.3-.2-.5h.5c0 .1.1.2.2.4.4.7 1 1.5 1.7 2.3 1.1 1.1 2.4 2.3 3.6 3.2 0 .1.2.2.3.3 0 0 .1 0 .1.1l.5.3c.9.7 1.7 1.3 2.1 1.6l1.5 1 3.4 2.3 2.7 1.8c1 .7 2 1.4 2.9 2.2.5.4.9.8 1.4 1.3l1.2 1.2c.5.5 1 .9 1.4 1.4.2.2.4.4.7.5.5.4 1 .8 1.5 1.1.3.2.7.4 1.1.6l.3.1c.5.2 1.1.6 1.8 1 .3.2.6.3.8.5.7.4 1.4.6 2 .6.6 0 1.1-.2 1.5-.4.2-.1.4-.2.6-.4.1-.1.2-.2.3-.2.2-.2.4-.4.5-.6.9-1.1 1.6-2.4 2.3-3.4 1.2-1.6 3-2.8 4.6-4l.7-.6.5-.4-.5.6z"/><g fill-rule="evenodd" clip-rule="evenodd"><path fill="#C2171E" d="M31.8 22.9l-.1.1-.1.1-.1.1-.5.5c-1.3 1.4-2.5 2.8-3.7 4.2l-.5.6c-.5.6-1 1.2-1.4 1.8l-.1.1-.9 1.2-1-.9-.9-.8-2.5-2.4-2.1-1.9-1.6-1.5c-.8-.7-1.6-1.5-2.3-2.2l-1.8-1.8-2.7-2.6-2.1-2c-1.4-1.3-2.7-2.6-4.1-3.8l-2.4-2.3c-1.4-1.4-2.8-2.7-4.1-4l-1.9-1.8c-.5-.5-1.1-1-1.7-1.6-.4-.4-.8-.8-1.3-1.2l-.1-.1-.8-.7h1.5s.9-.1 1 0l2.3 2.2c.5.3.8.7 1.2 1 1.2 1.2-3.5-3.1-3.6-3.2h15.6l11.9 11.3.8.7c.2.2.4.4.7.6l3.3 3.2.4.4.6.6c1.1 1.1 2.2 2.1 3.4 3.2.6.6 1.2 1.2 1.9 1.8l.4.4.1.1c-.3.2-.5.4-.7.6z"/><path fill="#FFF7E6" d="M25.5 30.2l-.9-.9-.9-.8-2.4-2.3-2.4-2.3c-.5-.5-.9-.9-1.4-1.3l-2.7-2.6c-.6-.5-1.2-1.1-1.8-1.7l-3-2.8-2.2-2.1c-1.4-1.3-2.8-2.6-4.1-3.9l-3-2.9c-1.3-1.1-2.5-2.2-3.7-3.4l-1.1-1.1c-.8-.6-2.3-2.1-2.3-2.1h-1l.6.6c.3.2.5.4.7.5.6.5 1.1 1 1.7 1.6l1.6 1.5c1.2 1.1 2.4 2.2 3.6 3.4.9.9 1.8 1.7 2.8 2.6s1.8 1.8 2.8 2.6l1.4 1.3 2.1 2 2.9 2.8c.6.5 1.2 1.1 1.8 1.7.9.8 1.7 1.6 2.6 2.5l1.5 1.4 2.3 2.2c.8.8 1.6 1.5 2.5 2.3l1.4 1.3.1.1.1.1.2.2.2-.3v-.1c-.1 0-.1-.1 0-.1zM31.7 23l-.1-.1-2.2-2.1-2.9-2.7-.5-.5-.2-.2-.8-.8c-.8-.7-1.5-1.4-2.3-2.2-.3-.3-.7-.6-1-1-.6-.5-1.2-1.1-1.7-1.6l-6.5-6.2c-2-1.9-4-3.8-5.9-5.6h-1.2c2.3 2.2 4.6 4.3 6.8 6.5.3.2.6.5.8.7l1.2 1.2 4.1 3.9 1.9 1.8 1.4 1.4 1.7 1.6.9.9.4.4.3.3.1.1c1 .9 1.9 1.8 2.8 2.7.3.3.6.6.9.8.3.3.8.9 1.2 1.1.1.1.2.1.3.1h.1l.1-.1c.2-.3.2-.3.3-.4z"/></g><g fill-rule="evenodd" clip-rule="evenodd"><path fill="#fff" stroke="#000" stroke-width=".5" stroke-linejoin="round" stroke-miterlimit="10" d="M14.4 32.5c0 .2-.2.4-.4.7-.7.8-1.3 1.3-2 1.6-.2.1-.5.2-.8.2-1 .1-2-.3-3-1.2l-.2-.1-1.2-.9c-2.6-2-5.8-3.5-8.8-4.5-2-.7-3.2-1.5-4.8.3-1.1 1.4-2.6 2.4-3.8 3.8-.2.2-.3.4-.5.7l-.3.5c-.2.5-.5 1-.8 1.5l-.3.4c-.1.1-.1.2-.2.2-.4.4-.9.7-1.5.7-.5 0-.9-.1-1.1-.4-.3-.2-.4-.5-.4-.8 0-.5.3-1 .9-1.2.3-.1.7-.1 1.2 0-.3-.3-.6-.6-.7-.9l-.2-.3c-.4-.9-.3-1.6.2-2.1.5-.4 1.2-.7 2.2-.7-2.6-1.3-.2-5.1 2.4-3.4-.7-.8-.7-1.5-.2-2 .9-1 3.3-1.2 4.1.6v.1c-.1-.5.3-1.9 1.6-2.5l.4-.2c1.7-.5 2.2.5 2.3 1.9 1.9-2.9 6.5 0 4.5 1.6 2.4-1.8 6.3.7 3.5 2.5 2.6-1.7 5.7 1.7 3.4 2.6-.1 0-.2.1-.2.1h.3c1.2-.1 4.8-.2 4.4 1.2z"/><path d="M-12.2 32c0-.9-1.5-.9-1.5 0-.1.9 1.5.9 1.5 0zM-10.3 28.1c0-.9-1.5-.9-1.5 0s1.5.9 1.5 0zM-7.1 25.7c0-.9-1.5-.9-1.5 0-.1.9 1.5.9 1.5 0zM-2.4 24.6c0-.9-1.5-.9-1.5 0s1.5.9 1.5 0zM1.9 25.2c0-.9-1.5-.9-1.5 0s1.5 1 1.5 0zM6 27.2c0-.9-1.5-.9-1.5 0s1.5.9 1.5 0zM9.6 30c0-.9-1.5-.9-1.5 0s1.5.9 1.5 0zM12.5 32.8c0-.9-1.5-.9-1.5 0-.1.9 1.5.9 1.5 0z"/></g><path fill-rule="evenodd" clip-rule="evenodd" fill="#93A2AA" stroke="#256B8E" stroke-width=".5" stroke-miterlimit="10" d="M25 51c.4-1.6 2.3-4.4 4.2-4.6-1.9.2-4.5-2.3-5.1-3.9-.4 2.9-.3 5.9.9 8.5.2-.8-1.1-2.3 0 0z"/><path fill-rule="evenodd" clip-rule="evenodd" fill="#C2D7E7" stroke="#256B8E" stroke-width=".5" stroke-miterlimit="10" d="M22.8 48.9c.8.7 2 1.6 2.1 2.8-.1-1.5-.8-2.9-1-4.5-.2-1.7.2-3.4 0-5 .2 1.8-2.5 5-4.3 5.2 1.3-.1 2.4.8 3.2 1.5 1.4 1.1-1.3-1.1 0 0zM33.8 53.4l-1.2-6.5-.2-8.2c.2 2.2-2.1 7.5-4.6 7.9 2.4-.2 5.8 4.6 6 6.8 0-.3-.1-1.2 0 0z"/><path fill-rule="evenodd" clip-rule="evenodd" fill="#93A2AA" stroke="#256B8E" stroke-width=".5" stroke-miterlimit="10" d="M34.6 51.9c0-2.8.8-5.2-.1-7.8-.6-2-1.4-4.3-1.3-6.4-1.4 1.1-2.4 1.3-2 3l1.2 5.7c.3 1.5-.1 3.5-.2 5-.1 1.8 1 2.1 2.5 3.2 0-1-.1-1.8-.1-2.7z"/><path fill-rule="evenodd" clip-rule="evenodd" fill="#C2D7E7" stroke="#256B8E" stroke-width=".5" stroke-miterlimit="10" d="M28.3 58.2c.5.4 1 .7 1.4 1.1-.8-7-1.7-14-2.8-20.9-1.8.4-1.2.9-1 2.5l.9 6.8c.6 3.4 1.1 7 1.5 10.5z"/><path fill-rule="evenodd" clip-rule="evenodd" fill="#93A2AA" stroke="#256B8E" stroke-width=".5" stroke-miterlimit="10" d="M29.8 59.3c2.6.4.6-8.1.4-9.2l-1.6-12c-1 .2-1.7-.1-1.5 1l.3 2.1.8 5.5 1.6 12.6z"/><path fill-rule="evenodd" clip-rule="evenodd" fill="#256B8E" d="M25.5 39c-.3 2 4.2 1.4 3.4-.5l-3.4.5z"/><path fill-rule="evenodd" clip-rule="evenodd" fill="#ff0" stroke="#848128" stroke-width=".5" stroke-miterlimit="10" d="M21.2 53.9c.7-1.9 2.3-3.6 2.5-5.7.2-2.2-.7-5.3-1.6-7.2-1.9-4-8.6-7.1-10.8-1.7-.8 2-.6 4.6.2 6.6.7 1.6.4 5.5 2 6.4.9.6 7.2 2.8 7.7 1.6.2-.4-.4.9 0 0z"/><path fill-rule="evenodd" clip-rule="evenodd" fill="#0D9934" stroke="#3A8222" stroke-width=".5" stroke-miterlimit="10" d="M3.9 65h-13c-.6-.7-1.3-1.3-2.2-1.7-3.3-1.4-6-2.8-6.6-6.8-.2-1.7.2-2.2 1-3.1.3-.3.6-.6.9-1 .8-1 0-2.1-.5-3.1 0-.1 0-.1-.1-.2-.8-2.2-.9-5.5 1.1-4.6.4.2 1 .6 1.6 1.2.9.9 1.2 2 1.3 3.1v.2c.1 2.1-.3 4.3 1.4 6.1 2.1 2.3 6.3 1.3 9.1 2.7 1.7 1 2 2 3.1 3.6.4.6 1 1.1 1.7 1.2.1-.5.8.7 1 1 0 0 0 .1.1.1.2.3.4.6.5.9l.1.2"/><path fill-rule="evenodd" clip-rule="evenodd" fill="#C1B225" stroke="#6B5C1F" stroke-width=".5" stroke-miterlimit="10" d="M6 54.6c1.8-.9 5.1-2.2 6.2-3.9.6-1 1-2.2 1.5-3.3.7-1.5-.1-3.8-.1-5.4 0-1.2-.3-3.7.7-4.6 1.2-.9 2.4-1.4 1.6-3-.6-1.3-1.3-2-2.7-2.2-.9-.1-3.7-.7-3.7 1-.8-.6-5.5-.7-4.6 1.1-.8-1.2-3.7-1.7-5-2.1-2-.6-5.2-2-7.3-1.4-1.6.4-2.7 1.5-3.5 2.9l-1.1 1.9c-.6.6-2 .3-2.8.5-2.1.6-.8 1.9-1.6 3.1-1.2 1.7-.8 2.7.1 4.6.4.9 1.4 1.4 2 2 .8.8.5 2 1.1 2.8.4.5 1 1 1.6 1.2.9.3.7 1.4 1.2 1.6 1 .3 0-4.8 0-5 .1-1.2 1.1-3.8.4-4.9.7.2 1.2.9 1.8 1.3.8.5 1.8.1 2.7 0 .3 0 3.2-4 3.8-2.4-.7-2.2-3.2-.5-4.3.1-.6.4-4.4.8-4.2-.3.1-1.9-.3-3.9 1.9-4.8 2.2-.9 4.9 0 7.1.6 1.8.5 3.8 1.2 5.1 2.6 1.4 1.6 1.2 3.7 1.9 5.5.6 1.6-1.2 3.4-1.5 5 0 1.7-1.2 6.8 1.7 5.5.1-.1-.6.2 0 0z"/><path fill="#6B5C1F" d="M-12 35c-1 1.6.3 3 1.9 3.2.3-1.1-.7-.7-1.3-1.5-.6-.6.4-1.4-.6-1.7zM-10.6 32.9c-1.2.2-.4 2.7.3 3 .5-.8 0-2.3-.3-3zM-9.7 32c-.6 1.3.2 3.9 1.9 3.6 0-.8-.3-.5-.8-.9-.8-.9 0-2.5-1.1-2.7zM-6.7 30.8c-.5 1.1-1.5 3.4.3 3.8.4-.9-.5-.8-.3-1.7.2-.8 1.2-1.9 0-2.1zM-3.8 32.9c-.8.6-1.1 3.5.5 3-.4-.9.2-2.2-.5-3zM4.6 33.9c-.9.9 1.2 2.5 1.7 3 1.1-.7-1-1.9 1-2.2 1.8-.2 2.9 2.4 1.7 3.7-1.3 1.4-5 3.5-3 5.5.9-.5-.5-1.3.9-2.3.9-.7 1.9-1.9 2.7-2.8 2.8-3.1-3-6.8-3.9-3.7-.5-.3-.7-.8-1.1-1.2zM1.9 32.8c-.7.8 0 .8.4 1.5.4.9-.2 2.9 1 2.8.2-1.4-.1-3.4-1.4-4.3zM7.4 36.1c-.9.2-.7 2.6-.4 3.4 1.2-.3.8-2.6.4-3.4zM9.3 32.7l-.4.6c1.2.8 2.8 1.5 3.1 3.1.5 2.1-1.1 3.1-2.5 4.4-1.2 1.1-2.3 2.4-1.6 4.1.7 1.6 0 2.4.2 4 1.2 0 1.2-2.3.9-3.3-.8-2-.7-2.8 1-4.3 1.6-1.5 3.3-2.6 2.7-5.1-.4-1.9-2-2.6-3.4-3.5zM-15.9 38.9c-.6 0-1.2.2-1.4.7.8.4 2 0 3 .3 1.8.4 4.7 1.5 3.2 3.9-.7-.8-1.3-1.6-2.3-2.1-1.5-.7-4.3.4-3 2.4 1-.4.1-.6.5-1.3.5-.9 1.8-.7 2.5-.3.7.4 1.7 2.2 2.4 2.1 2-.6.7-3.9-.5-4.6-1.2-.5-3-1.1-4.4-1.1zM10.9 40.1c-1.7.8.2 3.7.7 4.7 1.7 3.3-1.1 3.2-2.2 5.8 1.3.8 3.7-2.6 3.6-4-.1-1.3-.9-2.5-1.5-3.5-.5-1.1-.1-2.1-.6-3zM-15.4 37c-.7 0-1.2.4-1.2 1.1.6-.1.8-.4 1.3-.4.9.1 2.6 1.5 2.9.3-.9-.4-2-1-3-1z"/><path fill-rule="evenodd" clip-rule="evenodd" fill="#C2171E" stroke="#4C0A0F" stroke-width=".5" stroke-miterlimit="10" d="M13.9 57.8v-.2c-.7-2.8-3.1-3.6-6.1-3.5h-.8c-.8 0-1.6.1-2.4.2-3.8.6-7.6 1.7-9.6 1.3-3.2-.5-4.6-.8-5.1-4 0-.1 0-.2-.1-.3-.2-.7-.7-1.4-1.3-1.8-.3-.3-.7-.5-1.1-.6l-.3-.1c-1.3-.4-2.7-.4-3.7.4-.4.3-.7.8-.9 1.5-.2 1 0 2 .5 2.8 1.3 2.3 4.3 3.9 6.3 4.9 1.4.7 2.9 1.3 4.4 1.6 1.4.3 3.5-.5 4.8.2 1.2.5 1.7 2 2.5 2.9.7.7 1.7 1.3 2.8 1.6l.5.2.9.1c.4.1.9.1 1.3.1.3 0 .6 0 .9-.1 3.1-.6 7.2-3.7 6.5-7.2zM3.9 65v-1.1c0-1 .1-2 .4-3 .6-2.2 2.3-4.7 3.5-6.7 0-.1.1-.2.1-.2l.2-.3c1-1.4 2.4-2.3 4-2.8l.3-.1c.8-.2 1.6-.3 2.5-.3 2.3 0 5.5.3 6.8 2.4.2.3.3.6.5 1 0 2.1-.2 4.5-1 6.4-.8 2-2.5 3-3.7 4.7h-10.2c-.3.1-.6.1-.9.1-.4 0-.8 0-1.3-.1h-.7"/><path d="M-4.9 42.3c-.5 0-2.9.7-3.1 1-.9 1.1 1.4 3.5 1.9 4.4.6 1.2 1.3 2.6-.2 3.4-.9.5-3.2.4-3.3 1.3 1.4.1 3.8-.4 4.6-1.7.7-1.2-.7-3.2-1.3-4.3-.5-.8-2.4-3-.3-2.9.8 0 1.8-1.1 2.3-.3.3.4-.2.7-.1 1.2 1-.5.6-2.1-.5-2.1z"/><path fill-rule="evenodd" clip-rule="evenodd" fill="#20759E" stroke="#000" stroke-width=".5" stroke-miterlimit="10" d="M-1.4 47.9c.2 1.2 1.9 1 1.7-.3-.1-1.2-1.9-.9-1.7.3.1.3 0-.3 0 0zM-8.8 49.9c.4 1.2 1.7.4 1.3-.7-.4-1.2-1.7-.3-1.3.7 0 .3-.1-.3 0 0z"/><path d="M3.5 48.6c-.8.4-1.4 1.2-2.3 1.2-.8.1-2.7-.4-2.9.3 1 .3 6 .2 5.2-1.5zM-5.9 49.1c-.6.5-1.4 1.1-2.2 1-.7 0-1.6-1-1.9-.1 1.6 1 3 .6 4.3-.5 0-.1-.1-.2-.2-.4zM2.5 46.6c-.7 0-1.1 1.5-2.3 1.7-.6.1-1.5.5-1.8-.1-.3-.6-.3-1.1-1-1.2-.4 3.4 5.1 2 5.1-.4zM-6 38.8c-1 0-3.1.2-3.2 1.5.7-.1.8-.6 1.7-.8.8-.2 2.5.1 2.8-.4-.4-.1-.8-.3-1.3-.3z"/><path fill-rule="evenodd" clip-rule="evenodd" fill="#DBD872" stroke="#848128" stroke-width=".5" stroke-miterlimit="10" d="M20.2-3.4c1 0 2 0 2.9.1l-.1-1v-.4l-.4-3.4c-.7.1-2.9-.1-2.8.8.1.8.2 1.6.3 2.3v.4c0 .2 0 .3.1.5v.7zM27.6 30.3c0-.1 0-.3-.1-.4l-.2-1.5c0-.2 0-.3-.1-.5l-.3-2.3c0-.2 0-.3-.1-.5l-.2-1.4c0-.2 0-.3-.1-.5v-.8l-.5-3.9v-.1l-.1-1c0-.2 0-.4-.1-.6l-.1-.8v-.3c-.7-5.2-1.4-10.4-2.1-15.7h-2.9l1.2 9.1c.2 1.2.3 2.4.5 3.5.1.6.2 1.2.2 1.8l.1 1 .3 2 .2 1.3.3 2.2v.7c0 .4.1.8.2 1.3l.3 2.2.1.7.2 1.7c0 .1 0 .3.1.4l.2 1.3.1 1v.2h.2l.4-.1h2.3z"/><g fill-rule="evenodd" clip-rule="evenodd" stroke-width=".5" stroke-miterlimit="10"><path fill="#EFE4D5" stroke="#DDA783" stroke-linejoin="round" d="M32.7 17.2c.4-1.8-.4-1.8-1.6-3-.7-.7-1.5-1-2.4-1.1-1.2-.1-1.4.7-2.1 1.5-.7 1-.7 3-1.8 3.6-1.8.9-1.6-1.1-2.4-1.1-.9 0-1.8 1.3-1.3 2.1.7 1.1-.6 2.5.3 3.2 1 .8.5 1.7 2.1 2.5 1.2.6 3.1.4 4.4 0-.5.1-.9.5-1.1 1-.3.9-1.4.5-2.4.5-.5-1.4-1.9.3-.9 1.2.7.6 1.8.8 2.6 1 2.5.6 3.5-2.6 5.1-3.9.7-.6.5-1.9.6-2.8l.9-4.7c.1-.1-.4 2 0 0z"/><path fill="#0D9934" stroke="#3A8222" d="M27.7 0c.1 1.2.4 2.4.3 3.3-.1 3.1.9 6.8-.2 9.8h.7c1.1.1 2 .6 2.8 1.2l1.5 1.2.2.1c.7-.7 1.3-.7 1.7-1.7.4-1 .5-2.2.7-3.3.4-2.2 1.2-4.2 2.2-6.2.6-1.2 1-3.3 1.8-4.5h-11.7z"/></g><path fill-rule="evenodd" clip-rule="evenodd" fill="#D3C626" stroke="#7C6B23" stroke-width=".5" stroke-miterlimit="10" d="M25.8 38.9c1.7.5 3.4-.5 3.7-2.3.3-1.9-1.5-3.3-.3-5.3.5-.7 1.2-1.2-.2-1.4-.8-.1-1.6 0-2.3.2-1.4.3-2.8.4-4.1.7.6-.2 1.2 3.6 1.2 4 0 1.5.5 3.6 2 4.1.5.1-.7-.3 0 0z"/><path fill-rule="evenodd" clip-rule="evenodd" fill="#5E70AA" stroke="#2E417C" stroke-width=".75" stroke-miterlimit="10" d="M-30.9 24.6c-.2-.7-1.1-.9-1.7-1 .5-1.1 1.9-1.1 2-2.6 0-.7-.8-1.4-1.2-1.9-.7-.7-.8-1.1-1.8-1-1.3.1-.5.8-.9 1.2-.7-.5-2.1-.2-1.7-.2.6 1.9 1.3 4.3 3.7 4.5-1 1.9 1.8 1.7 1.6 1-.2-.5.1.3 0 0z"/><path fill-rule="evenodd" clip-rule="evenodd" fill="#F4ED00" stroke="#848128" stroke-width=".5" stroke-miterlimit="10" d="M-24.4 2.5c0-.9-.4-1.8-.9-2.5h-8.3c-.1-.1-.2-.1-.3-.1v.1c0 .4.1.9.3 1.3 0 .1.1.3.2.4.2.4.5.8.8 1.2.3.4.6.8.8 1.1 0 0 .1.1.1.2.6.9 1.1 1.8 1.9 2.5.2.2.7.4 1.2.7 1.3.5 3 .9 2.9-.5 0-.6-.3-1.2-.6-1.8-.1-.2-.2-.4-.4-.6-.3-.5-.6-1-.8-1.5-.1-.2-.2-.4-.2-.6-.1-.2-.1-.5-.1-.7 0-1.1 2.8 1.5 3.4 1.5v-.7z"/><path fill-rule="evenodd" clip-rule="evenodd" fill="#EFE4D5" stroke="#DDA783" stroke-width=".5" stroke-miterlimit="10" d="M-21.7 15.8c-.3-.8-.9-1.5-1.3-2.4-.3-.7.1-2.2.1-3-.2-2.8-.2-4.1-2-6.2-1.7-1.9-3.3-2.4-5.3-1-2.6 1.9-2.1-3.1-5-1.2-1.6 1.1-.3 5 .3 6.4 1 2 2.9 4.2 5 5 1 .4 2.5-.2 3.3.4.7.6 1.5.8 2.1 1.6.5.6.8 1.8 1.5 2.2 1.4.9 1.6-.8 1.3-1.8-.1-.3.2.5 0 0z"/><path fill-rule="evenodd" clip-rule="evenodd" fill="#F4ED00" stroke="#848128" stroke-width=".5" stroke-miterlimit="10" d="M-24.3 13.7c-.3.4-.7.7-1.1.9-.2.1-.4.2-.6.2-2.3.7-5.5-.5-7.1-2.4-.3-.4-.7-.9-1-1.4-1.2-1.8-2.3-4-2.7-6.3-.3-1.6-.2-3.3.5-4.7h2.1c-.3.2-.5.9-.6 1.7.2-.1.5-.2.8-.2h.30000000000000004l.8-.1c-.3-.6-.5-1-.8-1.2h1.9c.6 1 1.1 2.1 1.5 3.2.6 1.6 1.1 3 1.3 3.5.1.2.2.4.3.7.6 1.5 1.5 4 2.7 4.3.6.2.6-.5 1-.4l1.5.1c0 .8-.4 1.5-.8 2.1zm-8.4-10.8h-.3c-.7.1-1.5.3-2.1.7 0 1.5-.2 2.6 1.4 2.3h.1c.7-.1 1.3-.3 2.1-.3-.2-.4-.3-.9-.4-1.4-.1-.6-.3-1.2-.8-1.3zm1.7 4.4c-1.2 0-2.2.3-3.3.5.7 2 2.8 1.7 4.6 1.2-.3-.8-.5-1.8-1.3-1.7zm1.6 3.3c-.9.2-1.9.3-2.8.3 1.3 1.7 2.6 2.4 4.7 1.7-.5-.6-1.2-2.2-1.9-2z"/><path fill="#DDA783" d="M-28.9 2.2c-.5 0-1 .3-1.3.7.4.3 1.8-.2 2.6.1 1.1.4.6 1.4 1 2.2.9-1.4 1 1.4 1 2 .4-.3 1.7-.9 1.8 0 .1.9-1.4 1.2-1.2 2.2.1.3 1.2-.2 1.4-.1.5.2.1 1.1.1 1.5 1.5-.6.3-2.2-1-1.8.3-.6 1.2-1 1.1-1.8 0-.9-.9-1.2-1.7-.9.2-.7-.3-2.4-1.4-2 .1-1.4-.8-2.1-2.4-2.1z"/></symbol><symbol viewBox="-7 -7.5 14.1 14.9"><path fill-rule="evenodd" clip-rule="evenodd" fill="#008C00" d="M5.9-2.9c-.8-.7-1.7-1-2.8-1-.9 0-1.7.3-2.4.9h-.1c.1-1.9.5-3.2 1.2-4.1.1-.1.1-.1 0-.2 0-.1-.1-.1-.2-.1-.6.1-1.1.1-1.6.1s-1-.1-1.7-.2c-.1 0-.2 0-.2.1-.1.1-.1.1 0 .2.7.8 1.1 2.2 1.3 4.1h-.1c-.7-.6-1.5-.9-2.4-.9-1.1 0-2 .4-2.8 1.1-.7.7-1.1 1.5-1.1 2.5 0 1.3.8 2.6 2.5 4.1.9.8 2.4 2 4.3 3.6 0 .1.1.2.2.2s.2 0 .3-.1c.8-.8 2.2-2 4.3-3.6 1.6-1.5 2.4-2.9 2.4-4.2 0-1-.4-1.8-1.1-2.5z"/></symbol><symbol viewBox="-6.9 -6.4 13.9 12.9"><path fill-rule="evenodd" clip-rule="evenodd" fill="#D52222" d="M0 4.1c.2.7.5 1.2 1.1 1.7.6.5 1.3.7 2.1.7 1 0 1.9-.3 2.7-1 .7-.7 1.1-1.6 1.1-2.6 0-1.6-.8-3.2-2.4-5-.1-.2-1.6-1.6-4.4-4.2 0-.1-.1-.1-.2-.1s-.2 0-.2.1c-2.8 2.6-4.3 4-4.3 4.1-1.6 1.8-2.4 3.5-2.4 5 0 1 .4 1.8 1.1 2.6.7.7 1.6 1 2.7 1 .8 0 1.4-.2 2-.7.6-.4.9-1 1.1-1.6z"/></symbol><symbol id="b" viewBox="-50 -75 100 150"><path fill="#F0F7E6" d="M-43.9-75c-3.1 0-6.1 3-6.1 6.1v137.8c0 3.1 3 5.1 6.1 5.1h87.8c3.1 0 5.1-2 5.1-5.1v-137.8c0-3.1-2-6.1-5.1-6.1h-87.8z"/><path d="M43.9 74c2.8 0 5.1-2.3 5.1-5.1v-137.8c0-2.8-2.3-5.1-5.1-5.1h-87.8c-2.8 0-5.1 2.3-5.1 5.1v137.8c0 2.8 2.3 5.1 5.1 5.1h87.8m0 1h-87.8c-3.4 0-6.1-2.7-6.1-6.1v-137.8c0-3.4 2.7-6.1 6.1-6.1h87.8c3.4 0 6.1 2.7 6.1 6.1v137.8c0 3.4-2.7 6.1-6.1 6.1z"/></symbol><symbol id="f" viewBox="-41 -66 82 132"><g fill-rule="evenodd" clip-rule="evenodd" fill="#1A171B"><path d="M-40-41h-1v82h1zM41-41h-1v82h1zM34 66h-68v-1h68zM34-65h-68v-1h68z"/></g><path stroke="#1A171B" stroke-miterlimit="10" fill="none" d="M-40.5 0h81"/></symbol><symbol viewBox="-7.6 -7.6 15.2 15.2"><path fill-rule="evenodd" clip-rule="evenodd" fill="#FFA001" d="M7.4-.3c-1.4-.9-2.7-2-3.9-3.2-1.2-1.2-2.3-2.5-3.2-3.9 0-.1-.2-.2-.3-.2-.1 0-.2.1-.3.2-.9 1.4-2 2.7-3.2 3.9-1.2 1.2-2.5 2.3-3.9 3.2-.1.1-.2.2-.2.3 0 .1.1.3.2.3 1.4.9 2.7 2 3.9 3.2 1.2 1.2 2.3 2.5 3.2 3.9.1.1.2.2.3.2.1 0 .3-.1.3-.2.9-1.4 2-2.7 3.2-3.9 1.2-1.2 2.5-2.3 3.9-3.2.1 0 .2-.2.2-.3 0-.1-.1-.2-.2-.3z"/></symbol><symbol id="d" viewBox="-2.8 -6 5.6 12"><path fill-rule="evenodd" clip-rule="evenodd" d="M1.1-1.3c-.1.3-.2.5-.4.6-.2.1-.6.2-1 .2h-.7v-3.8h.7c.5 0 .8.1 1 .3.2.2.3.4.4.7 0 .3.1.6.1 1 0 .5-.1.8-.1 1zm-.3 5.3c-.2.3-.6.4-1.2.4h-.6v-3.3h.8c.6 0 .9.1 1.1.4.2.3.3.7.3 1.3 0 .5-.1.9-.4 1.2zm1.9-2.5c-.1-.3-.3-.5-.4-.7l-.7-.5c.4-.2.7-.5.9-.8.2-.4.3-.9.3-1.5v-.7c0-1-.2-1.9-.8-2.4-.5-.6-1.3-.9-2.4-.9h-2.3v12h2.5c.7 0 1.3-.1 1.8-.4.5-.3.8-.7 1-1.1.1-.5.2-1 .2-1.5v-.5c0-.4-.1-.7-.1-1z"/></symbol><use xlink:href="#b" width="100" height="150" x="-50" y="-75" transform="matrix(1 0 0 -1 50 75)" overflow="visible"/><g><g><use xlink:href="#c" width="9.5" height="9.5" x="-4.8" y="-4.8" transform="matrix(-1 0 0 1 89.5 122.5)" overflow="visible"/><use xlink:href="#c" width="9.5" height="9.5" x="-4.8" y="-4.8" transform="matrix(-1 0 0 1 10.5 122.5)" overflow="visible"/><use xlink:href="#c" width="9.5" height="9.5" x="-4.8" y="-4.8" transform="matrix(1 0 0 -1 89.5 27.5)" overflow="visible"/><use xlink:href="#c" width="9.5" height="9.5" x="-4.8" y="-4.8" transform="matrix(1 0 0 -1 10.5 27.5)" overflow="visible"/><use xlink:href="#d" width="5.6" height="12" x="-2.8" y="-6" transform="matrix(-1 0 0 1 90 136)" overflow="visible"/><use xlink:href="#d" width="5.6" height="12" x="-2.8" y="-6" transform="matrix(-1 0 0 1 10 136)" overflow="visible"/><use xlink:href="#d" width="5.6" height="12" x="-2.8" y="-6" transform="matrix(1 0 0 -1 90 14)" overflow="visible"/><use xlink:href="#d" width="5.6" height="12" x="-2.8" y="-6" transform="matrix(1 0 0 -1 10 14)" overflow="visible"/><use xlink:href="#e" width="80.7" height="73.8" x="-40.2" y="-8.5" transform="matrix(-1 0 0 1 50 75)" overflow="visible"/><use xlink:href="#e" width="80.7" height="73.8" x="-40.2" y="-8.5" transform="matrix(1 0 0 -1 50 75)" overflow="visible"/><use xlink:href="#f" width="82" height="132" x="-41" y="-66" transform="matrix(1 0 0 -1 50 75)" overflow="visible"/><use xlink:href="#a" width="14.6" height="14.6" x="-7.3" y="-7.3" transform="matrix(-1 0 0 1 77 128.5)" overflow="visible"/><use xlink:href="#a" width="14.6" height="14.6" x="-7.3" y="-7.3" transform="matrix(1 0 0 -1 23 21.5)" overflow="visible"/></g></g></svg>