<svg xmlns="http://www.w3.org/2000/svg" xmlns:xlink="http://www.w3.org/1999/xlink" viewBox="0 0 100 150" enable-background="new 0 0 100 150"><symbol viewBox="-7.3 -7.3 14.6 14.6"><path fill-rule="evenodd" clip-rule="evenodd" d="M1.7 2.6c-.7-.8-1-1.4-1.1-2 .6.1 1.3.4 2 1.1.7.6 1.4.9 2.1.9.7 0 1.3-.3 1.9-.8.5-.5.7-1.1.7-1.8s-.3-1.3-.8-1.9c-.5-.4-1.1-.7-1.8-.7s-1.4.3-2.1 1c-.8.7-1.4 1-2 1.1 0-1.4 0-2.5.1-3.3.2-1.5.6-2.5 1.1-3.2.1-.1.1-.1 0-.2 0-.1-.1-.1-.2-.1-.6.1-1.1.2-1.6.2s-1-.1-1.7-.2c-.1 0-.1 0-.2.1s-.1.1 0 .2c.6.7.9 1.7 1.1 3.1.1.9.2 2 .2 3.3-.5 0-1.2-.4-2-1-.7-.7-1.4-1-2.1-1-.7 0-1.3.3-1.9.8-.5.5-.7 1.1-.7 1.8s.3 1.3.8 1.8c.5.6 1.1.8 1.8.8s1.4-.3 2.1-.9c.8-.7 1.4-1 2-1.1-.1.6-.4 1.3-1.1 2-.6.8-.9 1.4-.9 2.1 0 .7.3 1.3.8 1.9.5.5 1.1.7 1.8.7s1.3-.3 1.9-.8c.4-.5.7-1.1.7-1.8s-.3-1.3-.9-2.1z"/></symbol><symbol viewBox="-7 -7.5 14.1 14.9"><path fill-rule="evenodd" clip-rule="evenodd" fill="#008C00" d="M5.9-2.9c-.8-.7-1.7-1-2.8-1-.9 0-1.7.3-2.4.9h-.1c.1-1.9.5-3.2 1.2-4.1.1-.1.1-.1 0-.2 0-.1-.1-.1-.2-.1-.6.1-1.1.1-1.6.1s-1-.1-1.7-.2c-.1 0-.2 0-.2.1-.1.1-.1.1 0 .2.7.8 1.1 2.2 1.3 4.1h-.1c-.7-.6-1.5-.9-2.4-.9-1.1 0-2 .4-2.8 1.1-.7.7-1.1 1.5-1.1 2.5 0 1.3.8 2.6 2.5 4.1.9.8 2.4 2 4.3 3.6 0 .1.1.2.2.2s.2 0 .3-.1c.8-.8 2.2-2 4.3-3.6 1.6-1.5 2.4-2.9 2.4-4.2 0-1-.4-1.8-1.1-2.5z"/></symbol><symbol id="a" viewBox="-6.9 -6.4 13.9 12.9"><path fill-rule="evenodd" clip-rule="evenodd" fill="#D52222" d="M0 4.1c.2.7.5 1.2 1.1 1.7.6.5 1.3.7 2.1.7 1 0 1.9-.3 2.7-1 .7-.7 1.1-1.6 1.1-2.6 0-1.6-.8-3.2-2.4-5-.1-.2-1.6-1.6-4.4-4.2 0-.1-.1-.1-.2-.1s-.2 0-.2.1c-2.8 2.6-4.3 4-4.3 4.1-1.6 1.8-2.4 3.5-2.4 5 0 1 .4 1.8 1.1 2.6.7.7 1.6 1 2.7 1 .8 0 1.4-.2 2-.7.6-.4.9-1 1.1-1.6z"/></symbol><symbol id="c" viewBox="-4.5 -4.2 9 8.4"><use xlink:href="#a" width="13.9" height="12.9" x="-6.9" y="-6.4" transform="scale(.65)" overflow="visible"/></symbol><symbol id="e" viewBox="-40.2 -0.2 80.5 65.5"><path fill-rule="evenodd" clip-rule="evenodd" fill="#B69425" stroke="#754C24" stroke-width=".5" stroke-miterlimit="10" d="M5.3 61.3c1.7.2 3-.5 3.6-2 .5-1.4 1.7-2.6 2.6-3.8.9-1.2.3-3.1-.1-4.3-.3-.8.6-1 .7-1.6.2-.6 0-1.4 0-2 0-.8 0-1.7-.2-2.5s-.5-1.2-.4-2c.2-1.2-1.3-2.9-1.9-3.8-.9-1.3-2.2-2.3-2.2-4 0-1.5.4-3 .3-4.6 0-.6-.1-1.4-.5-1.9-.2-.3-.5-.1-.8 0-1.1.2-2.3.4-3.4.5l-2.4.3c-.6 0-.5 1.4-.5 1.7-.1 2.7.3 5.1 1 7.7 1 4.4 2 8.7 2.9 13.1.4 2 .8 4.1 1.1 6.1.1.6.6 2.7.2 3.1.6.1.8-.8 0 0z"/><path fill="#754C24" d="M6.9 28.2c-1.1.6-2.2 1.1-3.2 1.8-1.4.8-1.1 2.3-1.2 3.6-.1 1.5-.4 2.8 1.5 3.1 1.3.4 2.6 2.3 3.4 3.4.9 1.2 1.7 2.5 1.7 4 0 .8 0 1.5.4 2.2.4.7.9 1.4 1 2.1.6 2.9-.8 6.9-3.8 7.9 1.4 1.7-.7 3.9-1.9 5.1 1.6.3 3.6 0 4.2-1.7l3-4.7c.2-.7.2-2 0-2.7-.2-.8-.8-1.3-.2-2 .8-.9.5-2.4.5-3.6 0-.6 0-1.3-.2-1.9-.1-.4-.4-.8-.4-1.2l.1-1.2c-.5-1.4-2-3.3-2.8-4.3-.6-.7-1.1-1.3-1.3-2.2-.2-1 .1-2 .2-3 0-1.4.2-3.8-1-4.7zm-3.9 3.8c.2-1.9 2.5-2.4 3.9-3.2.8 1 .6 3.3.4 4.6-.2 1.2-.4 2.3.2 3.5.5.9 1.2 1.6 1.8 2.4l1.5 2.2c.6 1 .1 1.7.5 2.7.5 1.3.5 2.6.5 4 0 .4.1 1.1-.1 1.5-.9 1-.6 1.4-.2 2.6.7 2.3-.8 3.8-2 5.5-.5.6-.9 1.3-1.2 2.2-.3.8-1.7 1-2.5 1.1 1-1 2.2-2.6 1.7-4.1-.2-.6.7-.9 1.2-1.3.7-.6 1.1-1.2 1.5-2 .7-1.4.9-2.8.9-4.4 0-1.6-1.2-2.5-1.4-3.9-.2-1.5 0-2.6-.8-4-.8-1.3-1.8-2.4-2.7-3.4-.5-.5-.9-1.1-1.5-1.5-.5-.3-1.1-.2-1.5-.5-.8-.5-.2-3.2-.2-4z"/><path fill-rule="evenodd" clip-rule="evenodd" fill="#C0001F" stroke="#000" stroke-width=".5" stroke-miterlimit="10" d="M-25.5 23.9c-.9-.6-1.7-1.2-2.5-2-.9-.9-2-1.4-3-2.1-2-1.3-4.4-3.5-5.8-5.5-1.2-1.8-2.3-3.7-3.2-5.7v6.8c.1 0 .2.1.3.2.8.4 1.5 1 2.1 1.5 1.7 1.3 3.5 2.5 5.3 3.8 0 0 .1 0 .1.1 0 0 .1 0 .1.1h.1c2 1.3 4.3 2.2 6.5 2.8z"/><path fill-rule="evenodd" clip-rule="evenodd" fill="#fff" d="M-10.4 15.6l-1.7 1.7c2.4-.2 4.9-.2 7.4-.1h4.8c1 0 2.3.3 3.2-.1l-1.6-1.3c-.8-.6-1.9-.4-2.9-.4-3-.1-6.1.1-9.2.2z"/><path d="M-2.3 15.1c-2.4 0-4.8.1-7.2.2-.8 0-1 0-1.5.5l-1.7 1.7c2.7-.2 5.3-.2 8-.2h5.5c1 0 2 .2 2.9-.3l-2-1.6c-.9-.6-2.8-.3-4-.3zm-8 .8c2.7-.1 5.3-.3 8-.3.7 0 3-.3 3.5.1s1 .8 1.6 1.2c-1 .1-2.2 0-3.3 0h-4.2l-6.8.1c.5-.3.9-.7 1.2-1.1z"/><path fill-rule="evenodd" clip-rule="evenodd" fill="#F9E7D7" stroke="#000" stroke-width=".5" stroke-miterlimit="10" d="M5.7 55.7c.7.2 1.2 1 1.8.6 1-.6 1.8-1.4 2.3-2.4.8-1.6 1.4-4 .8-5.7-.3-.8-.8-1.4-1.1-2.1-.4-.9-.1-1.8-.3-2.7-.4-2.1-1.9-3.6-3.3-5.1-.6-.6-1.2-1.5-2-1.7-1.1-.1-1.5-.7-1.4-1.9.2-1.9-.2-3.5 1.6-4.7l4.9-2.9c1.9-1.2 3.9-1.9 5.9-2.8-3.5-1.2-6.7-3.4-9.6-5.6-.7-.5-1.4-1-2.1-1.6-.1 0-1.2.2-1.4.2-1-.1-2-.1-3-.1-1.8 0-3.5 0-5.3-.1-1.7 0-3.4.2-5 .2-1 0-1.5.7-2.2 1.3-.7.6-1.5 1.2-2.3 1.7-.6.4-1.2.7-1.9 1.1l-2.3 1.5c.9.7 1.8 1.5 2.7 2.3 1.4 1.1 2.9 1.6 4.5 2.4 3.4 1.7 5.3 4.1 4.7 8.1.9-.7 2.6-.3 3.4.5 1 1.1.1 2.1-.2 3.3.9.2 2 .8 2.4 1.7.3.8.1 1.8.1 2.6.1 1.9-.4 4 .1 5.8.2.8.7 1.4 1.5 1.8.8.5 1.4 1.2 2 1.9 1.4 1.4 3 2 4.7 2.4.4.1-.5-.1 0 0z"/><path fill-rule="evenodd" clip-rule="evenodd" fill="#FFB8B8" d="M1.3 44.6c-.4-2-4.3-1.3-3.9.7.4 2 4.3 1.3 3.9-.7-.1-.5.1.4 0 0z"/><path fill-rule="evenodd" clip-rule="evenodd" fill="#B69425" stroke="#754C24" stroke-width=".5" stroke-miterlimit="10" d="M5.3 61.3c1.7-1.7 3.5-5 0-5.7-1-.2-2-.5-2.9-1.1-1-.6-1.6-1.7-2.5-2.5-.7-.7-1.6-.9-2.1-2-.5-1.3-.2-2.7-.1-4.1v-3.5c.1-1.6-.9-2.6-2.5-3 .2-.9.7-1.3.6-2.4-.2-1-1.2-1.6-2.1-1.7-2.4-.4-1.7 2.6-3.8 2.2-2.1-.5-2 3.8-2 4.9-.1 2.1-.6 4.1-.2 6.2.7 4 1.8 8.3 5.2 10.9 3.2 2.8 8.7 5.4 12.4 1.8z"/><path fill-rule="evenodd" clip-rule="evenodd" fill="#00694A" stroke="#000" stroke-width=".5" stroke-miterlimit="10" d="M28.3 16.2c-3.3.6-6.9.4-9.8-1.5-1.5-.9-2.4-2.1-3.6-3.4-1-1.1-2.5-1.3-3.8-1.9-3.3-1.7-5.9-4.3-8.6-6.7-.8-.8-1.8-2-2.9-2.7h-9c.1.2.3.5.5.7 1.3 1.5 3 2.8 4.5 4l4.9 3.6c1.5 1.2 3.4 1.9 4.8 3.2 3.5 3.1 7.7 6 12 8 1.2.5 2.4 1 3.6 1.4.8.2 1 .2 1.8-.2.6-.4 1.1-.8 1.6-1.2 1.4-1.1 2.5-2.3 4-3.3z"/><path fill-rule="evenodd" clip-rule="evenodd" fill="#C0001F" stroke="#000" stroke-width=".5" stroke-miterlimit="10" d="M40 7.6v-7.6h-40.5c.5.5 1.1 1 1.5 1.3 2.7 2.3 5.1 5 8.1 7 1.3.9 2.6 1.5 4 2 1.6.6 2.2 2 3.4 3.1 2.8 2.5 6.2 3.4 9.9 3.1 1.8-.1 3.4-.4 4.9-1.5 1.3-.9 2.6-1.7 3.9-2.5 0 0 .1-.1.2-.1.1-.1.2-.1.2-.2 2.1-1.3 3.5-2.8 4.4-4.6z"/><path fill-rule="evenodd" clip-rule="evenodd" fill="#fff" stroke="#000" stroke-width=".5" stroke-miterlimit="10" d="M-21.2 22.1c.7.4 1.1 1 1.8.5.8-.6 1.6-1.1 2.5-1.6 1.8-1 3.4-2.3 4.8-3.7 1.2-1.2 2.4-2.4 3.6-3.5.7-.7 1.5-1.4 2.1-2.2.3-.4.6-.8.9-1.1.2-.3-.2-.7-.4-1l-4 3.8c-1.4 1.4-2.9 2.7-4.5 3.9-2.2 1.6-4.5 3.3-6.8 4.9z"/><path fill-rule="evenodd" clip-rule="evenodd" fill="#00694A" stroke="#000" stroke-width=".5" stroke-miterlimit="10" d="M-8.5 6.9l-5.2-4.4c-1-.7-2.2-1.3-3.1-2.3-.1-.1-.1-.2-.2-.2h-15.7c0 .3 0 .7.1 1 0 2 .2 4 .6 6 .3 1.7.8 3.3 1.7 4.8.8 1.5 1.9 2.5 2.5 4.1.4 1.1.8 2.3 1.5 3.2.6.8.9.5 1.6 0 .6-.5 1.3-1 2-1.5 1.4-1 2.5-2.3 4-3.1 1.5-.8 3-1.5 4.4-2.5l.1-.1.1-.1s.1 0 .1-.1c2-1.5 3.8-3.2 5.5-4.8z"/><path fill-rule="evenodd" clip-rule="evenodd" fill="#fff" stroke="#000" stroke-width=".5" stroke-miterlimit="10" d="M22 24.6c-4.7-.3-9.2-2.1-12.8-5.2-3.1-2.5-6.5-4.7-9.8-7-1.7-1.2-3.4-2.6-5-4-1.6-1.6-2.9-3.4-4.4-5.1l-5.4-3.3h-1.5c.6.8 1.5 1.4 2.3 1.9 1.5 1 2.8 2.4 4.2 3.6l3.2 2.5c.6.6 1.1 1.3 1.6 2s1.3 1.3 2 1.9c.7.6 1.4 1.2 2.2 1.6 1 .5 1.8 1.4 2.7 2.1.8.7 1.7 1.3 2.6 2 3.4 2.6 7 5.3 11.1 6.8.1 0 .2.1.2.1l.3.1c2.1.5 4.5.9 6.5 0z"/><g fill-rule="evenodd" clip-rule="evenodd" fill="#E6D100" stroke="#F7931E" stroke-width=".5" stroke-miterlimit="10"><path d="M-6.1 11.3c-1.2 1.6-2.8 2.9-4.3 4.3 3.9-.1 7.8-.4 11.7-.1-2.1-1.8-4.8-3.1-6.7-5.3-.2.4-.4.8-.7 1.1-.5.7.4-.5 0 0zM-25.1 20c1 .5 2 1.1 3 1.7.9.5.9.5 1.7-.1l1.9-1.4 3.9-2.8c1.8-1.3 3.5-2.8 5-4.4.8-.8 1.5-1.7 2.5-2.5l1.2-1c-.3-.5-.6-1-1.1-1.3l-1.2-.9c-.5-.6-1.2.3-1.5.7-.6.8-1.4 1.2-2 1.8-.7.7-1.5 1.3-2.3 2-1.9 1.5-4.4 2.1-6.2 3.8-1 .9-1.9 1.7-3 2.4-.7.5-1.5 1.4-2.3 1.6.1.2.2.3.4.4.9.4-.1-.1 0 0zM25.6 18.4c-.7.7-1.3 1.2-2.1 1.8l-1.2.8c-.6.4-1.2 0-1.9-.2-1.9-.6-3.7-1.5-5.4-2.5-3.7-2.2-7.1-4.8-10.5-7.5-1.2-1-2.8-1.5-4.1-2.6-1.4-1.1-2.9-2.2-4.4-3.3-1.3-.9-2.5-2.1-3.7-3.1-.6-.5-1.3-1.1-1.7-1.8h-6c.7.6 1.7 1.1 2.5 1.5.5.3 1.1.5 1.7.9 1.1.7 1.8 1.8 2.7 2.8 1.9 2.3 4.2 4.2 6.6 6.1 3.6 2.7 7.5 5.1 11 7.9 2.2 1.8 4.3 3.3 7 4.2 1.2.5 2.5.8 3.8 1 .8.1 1.5.2 2.3.2.6-.3 1.2-.6 1.7-1l.1-.1c1-1.2 1.8-3.4 1.6-5.1z"/></g><path fill-rule="evenodd" clip-rule="evenodd" fill="#FFF6C2" stroke="#D1C161" stroke-width=".5" stroke-miterlimit="10" d="M-8.5 31.2c-.8-2-3.5-3.2-5.4-4-2.3-1-4.1-2.5-6.1-4.2-1.3-1.1-2.9-1.8-4.4-2.6-1.5-.8-2.3-1.7-3-3.3-.5-1.2-.8-2.6-1.7-3.6-1.2-1.3-2-2.8-2.5-4.5-.5-1.6-.8-3.3-.9-5-.1-1.1.1-2.7-.1-4h-7.4v8.6l2.4 4.3c.9 1.8 2.2 3 3.6 4.4 1.2 1.1 2.3 2.3 3.8 3h-.1s.1.1.2.1h.1c1.4.7 2.4 2 3.7 2.9 1 .7 2 1.5 2.9 2.4 2.7 2.5 5.5 4.4 8.8 5.9 1.2.5 2.6.9 3.9 1.1.7.1 1.3 0 2 0 .9-.1.5-.8.2-1.5z"/><g fill-rule="evenodd" clip-rule="evenodd"><path d="M-38.8 3.5c.1.5.8.3.7-.2-.2-.6-.2-1.2-.2-1.8 0-.5-.7-.5-.7 0 0 .7.1 1.3.2 2 .1.2-.1-.5 0 0zM-18.9 26.8c-.3-.3-.9.2-.5.5.4.4 1 .8 1.5 1 .4.2.8-.4.4-.6-.5-.2-1-.5-1.4-.9-.2-.1.4.4 0 0zM-30.4 17.3c-.3-.5-.9.1-.4.6.3.4.7.6 1.1.8.2.2.4.3.7.3.3-.1.4-.5.1-.7-.5-.3-1.2-.5-1.5-1-.1-.2.2.2 0 0zM-36.5 10.3c.1.5.8.2.7-.2-.1-.6-.4-1.2-.9-1.5-.5-.4-1.2.2-.7.4s.8.8.9 1.3c0 .2-.1-.6 0 0zM-31.6 14.3c.2.1.4 0 .4-.2.1-.4-.3-.4-.5-.6-.7-.4-.3-1-.6-1.6-.4-.8-.8.5-.7.8.1.7.7 1.4 1.4 1.6.2.1-.5-.2 0 0zM-23.7 21.9c-.2-.1-.4-.1-.5.1-.2.4.2.6.5.8.5.4 1.1.7 1.4 1.3.4.6.8-.2.4-.7-.5-.6-1.1-1.1-1.8-1.5-.2-.1.6.4 0 0zM-11.1 31.6c.5.2 1.1.4 1.6.5.2.1.5.1.7.1.3-.2.2-.6-.1-.7-.6-.1-1.2-.3-1.8-.5-.4-.2-1 .3-.4.6.3.1-.2-.1 0 0zM-34.5 5.4c-.2.4.4.8.6.4.3-.5.1-1.2-.2-1.6-.1-.2-.7-.8-.9-.2-.1.4.8.8.5 1.4-.1.2.1-.3 0 0zM-13.7 28c-.3-.1-.6.3-.4.6.2.3 1 .3 1.3.5.3.1.6-.1.5-.4-.1-.5-1-.7-1.4-.7-.2-.1.4 0 0 0z"/></g><path fill-rule="evenodd" clip-rule="evenodd" fill="#C51C1E" stroke="#781112" stroke-width=".5" stroke-miterlimit="10" d="M-16.7 13.7c-.7-.5-1.8-.3-2.7-.7-.4-.2-.8-.5-1.2-.8-.7-.7-.3-.7.2-1.4l.9-1.2c-.2-.6-.5-1.2-.7-1.7-.4-.9-.8-1.8-1.4-2.6-.4 1-.8 2.4-1.6 3.1-.7-.8-1.6-1.5-2.6-2.1-1.2-.7-2.8 1.8-3.4 2.7.9-.2 5.1-.2 4.5 1.5-.7 2-.5 4.5 1 6.2 1.3 1.5 3.4 1.8 5.3 1.4 1.3-.3 3.2-3.4 1.7-4.4-.2-.1.3.2 0 0zm-3.6 2.4c-1.2.2-2.6-1.5-2.2-2.7.4.6 2.2 1.9 2.2 2.7z"/><path fill="#E6D100" stroke="#F7931E" stroke-width=".5" stroke-miterlimit="10" d="M-5 7.6c-1.6 0-3.9.7-3.9 2.7 0 1.9 2.3 2.7 3.9 2.7s3.9-.8 3.9-2.7c0-1.9-2.3-2.7-3.9-2.7z"/><path fill-rule="evenodd" clip-rule="evenodd" fill="#0571A3" stroke="#022A3D" stroke-width=".5" stroke-miterlimit="10" d="M-6.7 11.2c1 .6 2.5.6 3.5 0 .9-.5.9-1.4 0-1.9-1-.6-2.5-.6-3.5 0-.9.5-.9 1.5 0 1.9.5.3-.5-.2 0 0z"/><path d="M4.5 42.1c-.7 0-1.5.2-2 .7.4.6 1.8-.4 2.6-.2.4.1.1 2 .2 2.4.2 1.2.2 2.2 1.2 3 1.1.8 2.8.9 3.9.3-.2-.7-1.7 0-2.4-.2-.9-.1-1.8-.6-2-1.5-.2-.8-.4-2-.2-2.8.1-1.2-.1-1.7-1.3-1.7z"/><path fill-rule="evenodd" clip-rule="evenodd" fill="#20759E" stroke="#000" stroke-width=".5" stroke-miterlimit="10" d="M3.7 47.5c-.3-1.1-1.8-.7-1.5.4.4 1.2 1.9.7 1.5-.4 0-.2.1.2 0 0zM9.2 46c-.3-1.1-1.6-.7-1.3.4.4 1.1 1.7.7 1.3-.4 0-.3.1.2 0 0z"/><path d="M4.7 48.8c-.7.7-1.6 1.2-2.5 1.5-.6.2-2 0-1.8.8 1.7 0 3.4-.8 4.7-1.9-.2-.1-.3-.3-.4-.4zM9.6 46.3c.2.1-.4-.1-.4.1-.4.3-1 .4-1.5.5-.5 0-1-.3-1 .4 1.1.3 2.4-.1 3.2-.9l-.3-.1zM3.9 47.8c-.6 1.3-3.5 0-3.6 1 1 .4 3.6.4 4.1-.8-.2-.1-.4-.2-.5-.2z"/><path fill-rule="evenodd" clip-rule="evenodd" fill="#AB111E" d="M4 39c-.9-.3-1.6.3-2 1-.3.6-.9.6-1.5.9.8.6 2.9.1 3.7-.2.1-.1 2.2-.2.9-.8-.3-.2-.7-.8-1.1-.9-.2-.1.1 0 0 0z"/><path d="M2.2 36c-1.3 0-3 .4-3.8 1.6.4.5.6 0 .9-.2.6-.4 1.2-.7 1.9-.8.7-.1 1.5-.1 2.2 0 .4.1.8.3.8-.3-.6-.2-1.3-.3-2-.3-1.1.1.8 0 0 0z"/><path fill="#754C24" d="M-8.2 35.8c-.9 1.1-1.4 2.2-1.5 3.6-.1 1.6 0 3.3-.2 5-.3 3.1.4 6.4 2.6 8.7.7-.4-.1-.9-.4-1.3-.4-.7-.7-1.4-1-2-.8-1.5-.8-3.2-.7-4.9l.3-2.8-.1-2.5c0-.6.2-1.4.5-1.9.2-.7 1.3-1.6.5-1.9zM-5.1 39.2c-1.3 2.6-1.5 5.3-1.6 8.1-.1 3.9 2.4 7.3 5.1 9.9.8-.4-.7-1.4-1-1.8-.7-.8-1.4-1.7-1.9-2.6-1-1.8-1.7-3.5-1.7-5.5 0-1.4.1-2.6.3-4 .2-.8.4-1.6.7-2.4.2-.4.9-1.6.1-1.7zM-4.2 40.3c-.8 0-1.5.5-1.3 1.3.3 1 1.4 1 2.2.9.6 0 .6 0 .6.6 0 .7-.9.4-1.4.4-.7 0-1.7-.5-2.2.3-.6 1.1.9 1.6 1.7 1.5.4 0 1.9-.5 2 .1.3 1.8-3.4.3-4.1.2-.1 1.3-.4 3.3 1.3 3.3.3 0 2.1-.4 2.4-.1.3.3.2 1 .4 1.4.3.5.5 1-.1 1.4-.6.4-2 .6-1.3 1.6.5.7 1.3 1.4 1.9 1.9.8.6 1.4 1.4 2.1 2.1.7-.4-.2-.9-.5-1.3l-1.9-1.7c-.4-.2-1.1-.7-1.3-1.2-.1-.4 1.6-.9 1.8-1.5.2-.6-.2-1-.4-1.6-.2-.9-.3-1.7-1.4-1.5-.7.1-1.7.3-2.4 0-.4-.2-.2-1.7-.2-2.1 1.1.5 2.3.6 3.4.3.1 0 .7-.2.7-.4 0-.5.1-1.3-.6-1.5-.8-.3-3 .8-3.3-.4-.2-.8 2.1-.3 2.5-.3.2 0 1.2.1 1.2-.2 0-.5 0-1.1-.1-1.6-.1-.4-2.2 0-2.6-.5-.7-.9 1.2-1.5 1.2-.4 0 .2.4.2.5 0 .3-.5-.1-1-.8-1zM-7.1 36c-.2 0-.1.1-.1.4 0 .3.6.1.8.2.4.1 1.2.5 1.1 1.1-.5-.3-3.6-1.2-3.8-.4-.1.7 1.3 1.4 1.9 1.6.8.3 1.6.2 2.4 0 .1.2-.4.8-.4 1-.2.8-.2 1.1-1.1 1-1-.1-2.8-1.2-3.2.2l-.1 1.6c-.1.7-.3 1.8-.1 2.5.4.9 2.4.3 3.2.3l-.3 1.2c0 .3.2 1-.1 1.3-.7.6-2.1.4-2.7-.1.3 1.6.4 2.9 2.3 2.7.4 0 .7-.1 1.1-.2.1.3.4.6.6.9.3.7.6 1.8 1.2 2.3.9-.6-1.5-3-1.4-4-.5.5-1.2.6-1.9.6-1 0-1.1-.6-1.2-1.4.7.1 2.3.1 2.7-.7.1-.3.3-2.9.1-3-.6-.4-2.1.3-2.9.1-.6-.2 0-2.6.1-3 .1-1.4.1-1.3 1.4-1 1.4.3 2.4.5 2.8-1.1.2-.7 1-1.5-.2-1.6-.5.2-1.1.2-1.7.1-.5-.1-1.8-.6-1.9-1.1.3.2 1.2.2 1.5.3.5.2.9.4 1.4.4.7.1 1.1-.3.8-.9-.6-1-1.4-1.3-2.3-1.3z"/><path fill-rule="evenodd" clip-rule="evenodd" fill="#F9E7D7" stroke="#000" stroke-width=".5" stroke-miterlimit="10" d="M13.9 32.1c2.7.2 5.8-1.4 7.9-2.9-1 1.2-2.7 2-4.1 2.5-.3.1-3.8.9-3 1.2.5.2 1.5-.1 2-.1.9-.1 1.7-.2 2.6-.6 1-.4 2.1-1.1 3.2-1.2 0 1.5-.9 3.2-1.4 4.6-.1.4-.7 1.6-.3 1.9.6.4 1.2-.8 1.4-1.2.8-1.5 1.3-3.1 1.9-4.7.3-.6.5-1.3.7-1.9l.4-1.2c.3-1 .3-1-.7-1.4-1.6-.6-3.2-1.3-4.7-2-.4-.2-.8.7-1.1 1-.7.8-1.6 1.3-2.5 1.7-.8.3-1.7.3-2.4.7-1 .6 0 .7.6.8 1 0 2-.1 3-.4.4-.1 1.8-.9 2.1-.6-.3.8-1.5 1.4-2.2 1.7-1.4.7-3 1-4.3 1.8.2.2.6.3.9.3z"/><path fill-rule="evenodd" clip-rule="evenodd" fill="#E6D100" stroke="#F7931E" stroke-width=".5" stroke-miterlimit="10" d="M21.6 21.3l-1.5 2.8c1.9.7 3.8 1.6 5.7 2.4 1.1-3.8 2.3-7.3 2.2-11.3l-.4-6.3-.1-2.7-.1-1.8c-.1-.7.2-1.1-.6-1.1-2.3 0-4.7.3-6.6 1.6-.4.3-.7.3-.5.8l.6 1.5c.4 1 .7 2 1.1 2.9.7 1.8 1.6 3.6 1.9 5.5.4 2-.7 3.9-1.7 5.7-.6 1.2.9-1.7 0 0z"/><path fill-rule="evenodd" clip-rule="evenodd" fill="#F9E7D7" stroke="#000" stroke-width=".5" stroke-miterlimit="10" d="M27.1 1.8c-.1-.6-.2-1.2-.4-1.8h-9.7c0 .3.1.5.2.9.5 1.2 1.3 2.3 1.8 3.4 2.4-1.6 5.2-2.6 8.1-2.5z"/><path fill-rule="evenodd" clip-rule="evenodd" fill="#fff" stroke="#000" stroke-width=".5" stroke-miterlimit="10" d="M22.9 2.4c-1 .3-2.1.8-3 1.4-.9.6-.8.6-.4 1.5 2.1-1.8 5.1-2.1 7.8-2.1l-.1-1c-.2-.7-.5-.5-1.2-.4-1 0-2.1.2-3.1.6-1.4.4 1.4-.5 0 0zM23 25.3l-2.2-.9c-.8-.3-.7-.2-1.2.6 2 .9 4 1.7 6 2.5.1-.3.4-.9.1-1.1-.9-.4-1.8-.8-2.7-1.1-1.2-.5 1.4.6 0 0z"/><g fill-rule="evenodd" clip-rule="evenodd" fill="#007F3F" stroke="#00361A" stroke-width=".5" stroke-miterlimit="10"><path d="M-16.5 47.4c.4.6.8 1.4 1.6 1.7.6.2 1.9.9 2.6.7.5-.1-1.3-2.3-1.4-2.4-1-.9-2.5-1.7-3.9-1.4l1.1 1.4c.5.7-.5-.6 0 0zM-13.6 51.8c-.9-.2-2-.3-2.9.2.9.5 1.6 1.2 2.4 1.8.7.5 1.4.5 2.3.5.8 0 1.9.2 1.1-.8-.7-.9-1.9-1.4-2.9-1.7-.6-.1.7.2 0 0zM-7.2 60.6c.3-.9.4-2 0-2.9-.5.8-1.3 1.5-1.9 2.3-.6.6-.6 1.4-.6 2.2-.1.8-.4 1.9.7 1.2.8-.6 1.4-1.7 1.8-2.8.1-.5-.3.8 0 0zM-11.8 57.6c-.9.4-1.8 1-2.2 1.8 1-.2 2 0 3 0 .9 0 1.4-.5 2.1-1 .7-.5 1.7-1 .4-1.3-1.1-.2-2.3.1-3.3.5-.5.2.7-.3 0 0zM-10.6 49.9c-.5-.8-1.3-1.6-2.2-1.8.3.9.4 2 .6 2.9.2.8.7 1.3 1.3 1.9.6.6 1.2 1.5 1.3.2.1-1.1-.4-2.3-1-3.2-.3-.5.4.6 0 0zM-13.2 55.5c-.9 0-2 .1-2.8.8 1 .3 1.8.8 2.7 1.2.8.4 1.5.2 2.3 0 .8-.2 1.9-.2.9-1-.8-.7-2-1-3.1-1zM-12.4 60.4c-.3.9-.4 2 .1 2.9.5-.9 1.2-1.6 1.9-2.3.5-.7.5-1.4.6-2.2 0-.8.3-1.9-.7-1.1-1 .6-1.6 1.7-1.9 2.7-.1.6.2-.7 0 0zM-3.7 65c-.1-.3-.2-.7-.2-1l-.2-.9c-.2-.7-.7-1.1-1.2-1.6l-.1-.1-.1-.1-.1-.1h-.1c-.3-.3-.7-.6-1-.7-.3 0 0 1.8.1 2 .3.8.8 1.8 1.5 2.5h1.4zM-.7 64.4c-.5-1-1.4-1.8-2.3-2.3l-.2-.1c-.7-.3-1.4-.6-2.2-.5-.2 0-.3 0-.5.1.7.7 1.3 1.5 1.9 2.3l.1.1c.5.5 1.2.7 1.9.9.1 0 .3.1.5.1h.9c0-.1 0-.3-.1-.6z"/></g><path fill-rule="evenodd" clip-rule="evenodd" fill="#E6D100" stroke="#000" stroke-width=".5" stroke-miterlimit="10" d="M-11.4 56.4c.3.2.3.6.7.8.4.3.9.2 1.3.2.9-.2 1.8-.7 1.8-1.8 0-3.2-4.7-2-3.8.8-.9-2.7 3.7-4 3.8-.8 0 .9-.7 1.5-1.5 1.7-.4.1-.9.2-1.3 0-.5-.1-.6-.7-1-.9.3.9 1 .8 1.7 1.2.7.3 1 .8 1.7.3 1.5-.9 1.7-2.5 1.1-4-.6-1.6-2.5-2-4-1.5-1.7.5-2.2 2.9-.5 4 .1 0-.2-.1 0 0zm.8.3c-1.6-.3 0-2.7 1.4-1.7 1.4 1-.3 1.9-1.4 1.7 1.1.2 2.8-.7 1.4-1.7-1.4-1.1-3 1.4-1.4 1.7z"/><path fill-rule="evenodd" clip-rule="evenodd" fill="#C0001F" stroke="#000" stroke-width=".5" stroke-miterlimit="10" d="M-5.5 60.9l1-.1c.3-.1.6-.5.8-.8.5-.9.6-2.1-.4-2.8-2.7-1.6-4.3 3.1-1.4 3.7-2.8-.6-1.3-5.3 1.4-3.6.9.6.9 1.6.5 2.5-.1.3-.4.7-.6.9-.5.3-1 .1-1.3.2.9.2 1.3-.4 1.9-.8.6-.4 1.2-.4 1.2-1.3.1-1.9-1.5-3.1-3.2-3.2-1.5-.1-2.7 1.2-3 2.6-.5 1.9 1.2 3.6 3.1 2.7zm0 0c-1.4-.5-1.1-2.9.5-2.6 1.6.3.3 2.2-.5 2.6.8-.4 2.1-2.3.5-2.6-1.6-.3-1.9 2.1-.5 2.6z"/><path fill-rule="evenodd" clip-rule="evenodd" fill="#E6D100" stroke="#F7931E" stroke-width=".5" stroke-miterlimit="10" d="M2.3 30c-.2 1.7 2.8.6 3.4.3 1.8-1.1-.6-2.6-1.8-2.1.4-.3-2.6-1.8-2.8-.5-.1-1.3-1.3-1.1-1.9-.4-.8-1.3-4.5-1.6-4 .4-.7-.3-.8-.9-1.6-.7-.7.1-.5.5-.5 1-.5-.2-.8-.6-1.4-.4-1 .2-.6.4-.6 1.2-.4-.6-2-.7-2 .2 0 .7 1.2 2 2 2h-.2c.7.7 2.1.7 1.4-.5.5-.2.9.4 1.4.3.8 0 .6-1.2.3-1.6 1.1.5 2 1 2.2-.6.4.5.4 1.4 1.3 1.5.6.1 1.3-1 1.4-1.5-.1 1 1.7 1.5 1.9.4-.2 1.1 1 1.4 1.5 1 0 .1-.1.1 0 0z"/><path fill-rule="evenodd" clip-rule="evenodd" fill="#0571A3" stroke="#034A6B" stroke-width=".5" stroke-miterlimit="10" d="M-9.6 28.5c-.2-.6-2.3-5.1-3.2-4.5-1 .7 2.8 3.7 3.2 4.5-.2-.4-.2-.3 0 0zM-3.7 21c-.1 1.6.9 3.2.5 4.8.3-1.2.4-2.4.6-3.6.1-.6.6-1.8-.1-2.3-.6-.3-1 .7-1 1.1zM7.5 23.1c-1.4-.7-2.7 3.2-3.5 3.8.4-.2 4.5-3.2 3.5-3.8-.1 0 .1.1 0 0z"/><path fill-rule="evenodd" clip-rule="evenodd" fill="#C0001F" stroke="#000" stroke-width=".5" stroke-miterlimit="10" d="M28.5 42.8c.8-.9.8-1.8 0-2.7.6-.9.6-2 0-2.8.6.8.6 1.7.2 2.5-.3.5.4.9.5 1.5 0 .7-.3 1.1-.7 1.5 2.2-.3 3.2-2.7 1.6-4.5-.4-.4-.8-.7-1.3-.9-.5-.3-.9-.7-1.5-1-1.2-.6-2.8-.5-3.7.6-.4.4-.6.9-.8 1.4-.4.3-.7.8-.8 1.3-.2 1.1.2 2.3.8 3.1 1.4 2.1 4.1 1.6 5.7 0-1.1.1-2.3 0-3.2-.5.6-.1 1.2-.4 1.6-.8.5-.5 1.2-.8 1.6-1.4-.3-.4-.8-.7-1.2-.9-.3-.6-.9-1-1.5-1.2.7-.7 1.8-1 2.7-.7-1-.3-2 .1-2.7.7.5.2 1 .4 1.3.9l1.4 1.2c-.3.5-.8.9-1.3 1.1-.5.6-1.2 1-1.9 1.1.9.6 2.1.7 3.2.5.1-.1-.3.1 0 0zm-1.4-1.6c-1.2.5-3.5-.9-1.8-1.8.5-.3 1.8-.7 2 0 .3.7.3 1.3-.2 1.8.3-.4.5-.9.3-1.5-.2-.9-1-.8-1.7-.5-2 .9-.1 2.7 1.4 2zm-1.9 1.1c-.7-.4-1.1-1.1-.8-1.9.3-.9.6-1.8 1.3-2.5-.6-.2-1.3-.2-2-.1-.9.3-1.1.8-1.1 1.7 0 1.6 1.1 3.1 2.6 2.8-1.4.2-2.5-1-2.6-2.3-.1-.8 0-1.6.8-2 .7-.3 1.6-.3 2.3-.1-.7.7-.7 1.4-1.2 2.2-.4.9-.1 1.8.7 2.2z"/><path fill-rule="evenodd" clip-rule="evenodd" fill="#007F3F" stroke="#00361A" stroke-width=".5" stroke-miterlimit="10" d="M28.9 32.6c1.1-1.1 2.1-3.1 1.6-4.6-.8 1-2.4 1.7-2.8 2.9-.2.8-.5 1.7-.5 2.5-.1.5 1.5-.7 1.7-.8.5-.5-.6.5 0 0zM27.2 32.7c.3-1.5.1-3.7-1.2-4.7-.1 1.3-1.1 2.7-.7 4 .2.8.5 1.7 1 2.4.2.4.9-1.5.9-1.7zM12.7 36.6c1.3-.2 2.7.2 4 .2.9 0 2.2-1.4 2.6-2.1.3-.7-3.1-.8-3.4-.7-1.4.2-3.1 1.1-3.2 2.6.5 0 0-.4 0 0zM34.5 35.7c-1.8-.9-3.1-3.2-5.3-1.5-.5.4 1.7 1.9 2 2.1 1.1.5 2.8.7 3.3-.6-.3-.2-.1.3 0 0zM35 32.8c-1.1.1-2.2-.1-3.3-.2-.9 0-1.9 1-2.4 1.6-.7.7 2 .8 2.3.8 1.3-.1 3-.8 3.4-2.2-.4.1-.1.4 0 0z"/><path fill-rule="evenodd" clip-rule="evenodd" fill="#C0001F" stroke="#000" stroke-width=".5" stroke-miterlimit="10" d="M18.4 44.8c1.1-.5 1.3-2 1.2-3 0-.3-.9-3.3-1.4-2.7-.5.6-1.2 1.9-.9 2.7.3 1 .9 1.9 1.1 3 .3-.1-.1-.4 0 0z"/><path fill-rule="evenodd" clip-rule="evenodd" fill="#007F3F" stroke="#00361A" stroke-width=".5" stroke-miterlimit="10" d="M16.9 40.6c.1.8.4 1.7 1.1 2.1.3-1.5 1.6-2.8 1.1-4.4-.2-.5-.5-1.9-1.1-1.2-.8 1-1.2 2.3-1.1 3.5.1.5 0-.7 0 0zM20 38.8c-.2-.7-.8-1.5-1.6-1.7.1 1.5-.9 3.1.1 4.5.3.5 1 1.7 1.4.8.5-1.1.6-2.5.1-3.6-.1-.5.3.6 0 0z"/><path fill="#00361A" d="M20.7 31.8c-.7.2 0 .7-.2 1.3-.2.6-1 1.1-1.4 1.7-.3.5-1.3 2.4-.4 2.5.4-.8.4-1.7 1-2.4.7-.9 1.9-1.7 1-3.1zM20.6 32.1l-.4.3c.8 1.1 1.8 1.5 3 2 1.5.6 2.2.5 3.5-.2-.1-.6-.4-.3-.8-.1-.9.4-1.4.3-2.2 0-1.2-.5-2.3-.9-3.1-2zM21 32.6c-.5.6.6.8.9 1.4.4.8.7 1.3 1.6 1.6 2.1.7 4.1-.2 6.1-.5.1-.8-1.1-.3-1.6-.2-1.1.2-1.8.7-3 .6-.8-.1-2-.2-2.4-.9-.5-.9-.6-1.5-1.6-2z"/></symbol><symbol id="b" viewBox="-50 -75 100 150"><path fill="#F0F7E6" d="M-43.9-75c-3.1 0-6.1 3-6.1 6.1v137.8c0 3.1 3 5.1 6.1 5.1h87.8c3.1 0 5.1-2 5.1-5.1v-137.8c0-3.1-2-6.1-5.1-6.1h-87.8z"/><path d="M43.9 74c2.8 0 5.1-2.3 5.1-5.1v-137.8c0-2.8-2.3-5.1-5.1-5.1h-87.8c-2.8 0-5.1 2.3-5.1 5.1v137.8c0 2.8 2.3 5.1 5.1 5.1h87.8m0 1h-87.8c-3.4 0-6.1-2.7-6.1-6.1v-137.8c0-3.4 2.7-6.1 6.1-6.1h87.8c3.4 0 6.1 2.7 6.1 6.1v137.8c0 3.4-2.7 6.1-6.1 6.1z"/></symbol><symbol id="d" viewBox="-2.8 -6 5.6 12"><path fill-rule="evenodd" clip-rule="evenodd" fill="#D52222" d="M-.3 4.4h-.7v-8.8h.8c.5 0 .8.1 1.1.4.1.2.2.6.2 1.1v5.8c0 .5-.1.9-.3 1.1-.2.3-.6.4-1.1.4zm2.3.8c.5-.6.8-1.3.8-2.3v-5.7c0-1.1-.3-1.9-.8-2.5-.6-.4-1.4-.7-2.4-.7h-2.4v12h2.6c1 0 1.7-.3 2.2-.8z"/></symbol><symbol id="f" viewBox="-41 -66 82 132"><g fill-rule="evenodd" clip-rule="evenodd" fill="#1A171B"><path d="M-40-41h-1v82h1zM41-41h-1v82h1zM34 66h-68v-1h68zM34-65h-68v-1h68z"/></g><path stroke="#1A171B" stroke-miterlimit="10" fill="none" d="M-40.5 0h81"/></symbol><symbol viewBox="-7.6 -7.6 15.2 15.2"><path fill-rule="evenodd" clip-rule="evenodd" fill="#FFA001" d="M7.4-.3c-1.4-.9-2.7-2-3.9-3.2-1.2-1.2-2.3-2.5-3.2-3.9 0-.1-.2-.2-.3-.2-.1 0-.2.1-.3.2-.9 1.4-2 2.7-3.2 3.9-1.2 1.2-2.5 2.3-3.9 3.2-.1.1-.2.2-.2.3 0 .1.1.3.2.3 1.4.9 2.7 2 3.9 3.2 1.2 1.2 2.3 2.5 3.2 3.9.1.1.2.2.3.2.1 0 .3-.1.3-.2.9-1.4 2-2.7 3.2-3.9 1.2-1.2 2.5-2.3 3.9-3.2.1 0 .2-.2.2-.3 0-.1-.1-.2-.2-.3z"/></symbol><use xlink:href="#b" width="100" height="150" x="-50" y="-75" transform="matrix(1 0 0 -1 50 75)" overflow="visible"/><g><g><use xlink:href="#c" width="9" height="8.4" x="-4.5" y="-4.2" transform="matrix(-1 0 0 1 89.5 123)" overflow="visible"/><use xlink:href="#c" width="9" height="8.4" x="-4.5" y="-4.2" transform="matrix(-1 0 0 1 10.5 123)" overflow="visible"/><use xlink:href="#c" width="9" height="8.4" x="-4.5" y="-4.2" transform="matrix(1 0 0 -1 89.5 27)" overflow="visible"/><use xlink:href="#c" width="9" height="8.4" x="-4.5" y="-4.2" transform="matrix(1 0 0 -1 10.5 27)" overflow="visible"/><use xlink:href="#d" width="5.6" height="12" x="-2.8" y="-6" transform="matrix(-1 0 0 1 90 136)" overflow="visible"/><use xlink:href="#d" width="5.6" height="12" x="-2.8" y="-6" transform="matrix(-1 0 0 1 10 136)" overflow="visible"/><use xlink:href="#d" width="5.6" height="12" x="-2.8" y="-6" transform="matrix(1 0 0 -1 90 14)" overflow="visible"/><use xlink:href="#d" width="5.6" height="12" x="-2.8" y="-6" transform="matrix(1 0 0 -1 10 14)" overflow="visible"/><use xlink:href="#e" width="80.5" height="65.5" x="-40.2" y="-.2" transform="matrix(-1 0 0 1 50 75)" overflow="visible"/><use xlink:href="#e" width="80.5" height="65.5" x="-40.2" y="-.2" transform="matrix(1 0 0 -1 50 75)" overflow="visible"/><use xlink:href="#f" width="82" height="132" x="-41" y="-66" transform="matrix(1 0 0 -1 50 75)" overflow="visible"/><use xlink:href="#a" width="13.9" height="12.9" x="-6.9" y="-6.4" transform="matrix(-1 0 0 1 77.5 129.5)" overflow="visible"/><use xlink:href="#a" width="13.9" height="12.9" x="-6.9" y="-6.4" transform="matrix(1 0 0 -1 22.5 20.5)" overflow="visible"/></g></g></svg>