<svg xmlns="http://www.w3.org/2000/svg" xmlns:xlink="http://www.w3.org/1999/xlink" viewBox="0 0 100 150" enable-background="new 0 0 100 150"><symbol viewBox="-7.3 -7.3 14.6 14.6"><path fill-rule="evenodd" clip-rule="evenodd" d="M1.7 2.6c-.7-.8-1-1.4-1.1-2 .6.1 1.3.4 2 1.1.7.6 1.4.9 2.1.9.7 0 1.3-.3 1.9-.8.5-.5.7-1.1.7-1.8s-.3-1.3-.8-1.9c-.5-.4-1.1-.7-1.8-.7s-1.4.3-2.1 1c-.8.7-1.4 1-2 1.1 0-1.4 0-2.5.1-3.3.2-1.5.6-2.5 1.1-3.2.1-.1.1-.1 0-.2 0-.1-.1-.1-.2-.1-.6.1-1.1.2-1.6.2s-1-.1-1.7-.2c-.1 0-.1 0-.2.1s-.1.1 0 .2c.6.7.9 1.7 1.1 3.1.1.9.2 2 .2 3.3-.5 0-1.2-.4-2-1-.7-.7-1.4-1-2.1-1-.7 0-1.3.3-1.9.8-.5.5-.7 1.1-.7 1.8s.3 1.3.8 1.8c.5.6 1.1.8 1.8.8s1.4-.3 2.1-.9c.8-.7 1.4-1 2-1.1-.1.6-.4 1.3-1.1 2-.6.8-.9 1.4-.9 2.1 0 .7.3 1.3.8 1.9.5.5 1.1.7 1.8.7s1.3-.3 1.9-.8c.4-.5.7-1.1.7-1.8s-.3-1.3-.9-2.1z"/></symbol><symbol viewBox="-7 -7.5 14.1 14.9"><path fill-rule="evenodd" clip-rule="evenodd" fill="#008C00" d="M5.9-2.9c-.8-.7-1.7-1-2.8-1-.9 0-1.7.3-2.4.9h-.1c.1-1.9.5-3.2 1.2-4.1.1-.1.1-.1 0-.2 0-.1-.1-.1-.2-.1-.6.1-1.1.1-1.6.1s-1-.1-1.7-.2c-.1 0-.2 0-.2.1-.1.1-.1.1 0 .2.7.8 1.1 2.2 1.3 4.1h-.1c-.7-.6-1.5-.9-2.4-.9-1.1 0-2 .4-2.8 1.1-.7.7-1.1 1.5-1.1 2.5 0 1.3.8 2.6 2.5 4.1.9.8 2.4 2 4.3 3.6 0 .1.1.2.2.2s.2 0 .3-.1c.8-.8 2.2-2 4.3-3.6 1.6-1.5 2.4-2.9 2.4-4.2 0-1-.4-1.8-1.1-2.5z"/></symbol><symbol id="a" viewBox="-6.9 -6.4 13.9 12.9"><path fill-rule="evenodd" clip-rule="evenodd" fill="#D52222" d="M0 4.1c.2.7.5 1.2 1.1 1.7.6.5 1.3.7 2.1.7 1 0 1.9-.3 2.7-1 .7-.7 1.1-1.6 1.1-2.6 0-1.6-.8-3.2-2.4-5-.1-.2-1.6-1.6-4.4-4.2 0-.1-.1-.1-.2-.1s-.2 0-.2.1c-2.8 2.6-4.3 4-4.3 4.1-1.6 1.8-2.4 3.5-2.4 5 0 1 .4 1.8 1.1 2.6.7.7 1.6 1 2.7 1 .8 0 1.4-.2 2-.7.6-.4.9-1 1.1-1.6z"/></symbol><symbol id="c" viewBox="-4.5 -4.2 9 8.4"><use xlink:href="#a" width="13.9" height="12.9" x="-6.9" y="-6.4" transform="scale(.65)" overflow="visible"/></symbol><symbol id="e" viewBox="-40.4 -0.4 80.8 65.8"><g><path fill-rule="evenodd" clip-rule="evenodd" fill="#229BC6" d="M18 4.2l-.4-4.2h-53.9c-.1 1.4.5 3 .8 4.5l.6 4.6c.3 1.9 1.3 3.5 2.4 5 1.6 2.4 2.7 4.9 4.1 7.4 1.6 2.9 4 5.3 6.7 7.3 2.8 2.1 5.9 2.9 9.3 3.2 3.2.3 6.3.7 9.5.4h.30000000000000004c3.6-.3 7 1 10.4-.9 1.5-.9 3.2-1.8 4.4-3.1 1.2-1.3 2-2.8 2.9-4.4.8-1.5 1.7-3 2-4.8.4-1.7.5-3.5.6-5.3.2-3.3.6-6.4.3-9.7z"/><g fill-rule="evenodd" clip-rule="evenodd" stroke-width=".75" stroke-miterlimit="10"><path fill="#C42A1F" stroke="#871818" d="M-.5 65h-11.2c-.8-.7-1.3-1.7-1.3-2.8 0-1.1.4-1.3 1.1-2l.1-.1.1-.1c-.1.1-.1.2-.2.2-.3.2-.6.5-.9.6-1.6 1-3.7.9-5.1-.8-2.5-2.8.9-6.4 3.8-6.8-1.4 0-3.9.3-4.4-1.3-.7-2.1 1.9-3.6 3.6-3.8-3.5.4-1.7-4.6-1.1-6.2.3-.9.8-2 .8-3 0-.4-.2-2.7.7-2.4 1 .4 1 2.5 1.4 3.4.5 1.3.7 2.7 1.1 4 .5 1.7.9 3.3.7 5.1-.1.6-.2 1.1-.7 1.4-.1.1-.3.1-.6.1 0 0 .1 0 .1.1 1.2.5 1.9 1.8 1.8 3.2 0 .7 0 .8-.7 1.1.2-.1.3-.1.5-.1 1.6-.3 2.7.6 4.1 1 1.4.4 3.2.3 3.4 2.1.2 1.6.2 2.7 1.2 4 .8.9 1.9 1.9 1.7 3.1zm-12.4-9.3c-.1.2-.2.4-.4.6.2-.2.3-.5.4-.6z"/><path fill="#FCF73D" stroke="#E0CF00" d="M-15.5 35.9c.1.9.2.6 1 .9.2-.9.4-2.6 0-3.5.1.2-.5.8-.5.9-.4.5-.6 1.1-.5 1.7 0 .4-.1-.3 0 0z"/></g><g fill-rule="evenodd" clip-rule="evenodd" fill="#FDE826" stroke="#9E9600" stroke-width=".75" stroke-miterlimit="10"><path d="M-7.7 7.8c-.2-.9-.2-1.9-.2-2.8 0-1 .2-1.9.7-2.7.3-.5 1-1.5 1-2.2h-3.6c-.9.5-1.7 1-1.9 1.3l-1.8 2.5c-.6.7-1.4 1.1-2.2 1.6-.8.5-1.4 1.2-2.1 1.8l-2.8 1.7c-1.2.8-1.2 1.3-1.2 2.7-.1 1.2-.2 2.5-.4 3.7-.5 2.2-1.3 4.1-2.9 5.7l-.2.2c-.8.8-2.7 1.2-2.8 2.5-.1 1.3 1.5 2.6 2.4 3.3 1.4 1.1 3 1.8 4.6 2.5 1.6.7 2.9.7 4.6.3-.6 1 1.3 1.2 1.9.9.9-.4-.4-1.4-.9-1.4.2-.5.3-.8.7-1.1.6-.6.4-.2.8.1.4.3 1.5.4 1.5-.3 0-.4-.7-1.3-1.1-.8.2-.4.5-.9.9-1.2 0 .6 1.1 1.1 1.6.7.2-.2.4-.6.3-1-.3-.7-.8-.5-1.3-.5-.2 0 1-1.3 1-1.3-.1.7 1.5 1 1.8.4.2-.6-.5-1.7-1.2-1.4.1-.8.7-1.2 1.1-1.8 0 .9 1.6.7 1.9.1.6-.9-.7-1.3-1.3-1.1 0-.2.2-2.5.4-2.5 1.9 2.1 2.1-2.5.2-1.2-.4-.9.3-2 .3-2.8 0 .9 1.5 1 1.7.1.1-.5-.1-1-.5-1.3-.5-.3-.6 0-1 .1-.2-.6 0-1.7.1-2.3.2.7 1.3.9 1.8.4.8-1 .1-2.2-.8-2.2-.7 0-.9.2-1.1-.7zM17.3 19.8c-.1-1.7-1.3-2.8-1.3-4.5 0-1.7-.4-3.3-.5-4.9l.2-5.5c-.2-1.6-.6-3.3-1.2-4.8v-.1h-5c0 1.3 1.9.7 2.5.2.1.6.1 1.3.1 2-.1-.3-1.1 0-1.4.4-.7.9 1 1.6 1.4.7-.4.7.1 1.7-.2 2.4-.2-.6-1.3.2-1.4.6 0 .3.1.7.4.8.5.3.6-.1.9-.4.3.3-.1 2.3-.2 2.7-.5-.6-1.4.6-1.3 1.1.1.5 1.2 1.1 1.4.3v1.7c-.1.8-.5.4-1.1.6-1.3.4 0 2.3 1.2 1.4 0 .5 0 .9-.2 1.3-.2.6-.8-.1-1.3.2-1.5.9.8 2 .8 1.2 0 .5-.1 1-.2 1.5-.1.7-.2.3-.7.3-.7-.1-1.1.6-1 1.3.2.7 1.3.3 1.6-.2.2.5 0 1.5 0 2-.6-.2-2 0-1.9.9.1 1.1 1.4.4 2 .1 0 .5-.3.9-.5 1.3s-1 .4-1.3 1c-.5 1.1 1.7 1.3 1.8 0 1.1.8-.1 3.2 2.1 2 1.3-.7 2.1-1.8 2.8-3 .9-1.4 1.7-2.8 1.5-4.6z"/></g><path fill="#9E9600" d="M-17 4.6c-.2.1-1 .3-1.1.5.5 1.1.8 2.3 1 3.5.4 2.6-.1 5.2-.9 7.7-.8 2.2-1.9 4.4-3.2 6.3-.8 1.1-1.6 2.2-2.5 3.3-.5.6 0 .7.5 1.2 5.2-5.9 9.6-14.6 6.2-22.5zM-12 4.7c-.6.2-1.2.1-1 .8.4 1.3.6 2.6.7 4 .1 2.8-.6 5.7-1.7 8.3-1 2.5-2.3 4.8-3.9 6.9-.9 1.2-1.8 2.3-2.8 3.4-.3.3-.9.5-.5.9l.7.7c6.1-6.3 11.7-16.1 8.5-25zM-8.3 9.2h-.6c-.2 0-.1 1.3-.1 1.5 0 1.3-.2 2.6-.4 3.9-.4 2.4-1.2 4.7-2.3 6.9-1 2-2.3 3.8-3.8 5.4-.8.8-1.7 1.6-2.6 2.3-.5.4-.9.7-1.4 1 0 .1.3.5.4.6 7.1-4.7 11-13.2 10.8-21.6zM-20.9 11.5c-.3.2-.7.2-.5.6.2.5.2 1.1.2 1.7-.1 1.8-.8 3.5-1.6 5.1-1.2 2.4-3.1 3.8-5.1 5.5.6.7.6.5 1.3-.1 1.3-1 2.4-2 3.4-3.4 1.5-2.2 3.8-6.8 2.3-9.4zM-20.7 24.5c-1.8 0-1.9 3.3-.1 3.3 1.9.2 2.1-3.3.1-3.3zm0 2.8c-1.2 0-1.2-2.3 0-2.3 1.3 0 1.2 2.3 0 2.3zM-19 22.5c-2 0-2.2 3.1-.2 3.2 2.1.1 2.3-3.2.2-3.2zm-.1 2.7c-1.2 0-1.3-1.9-.2-2.1 1.6-.4 1.7 2.1.2 2.1zM-17.6 20.1c-2.1 0-2.2 3.3-.1 3.3s2.3-3.3.1-3.3zm-.1 2.8c-1.2 0-1.5-1.8-.3-2.2 1.7-.5 2 2.2.3 2.2zM-16.3 17.7c-2 0-2.4 2.9-.4 3.3 2.4.5 2.9-3.3.4-3.3zm0 2.7c-1.2 0-1.6-1.8-.4-2.2 1.8-.6 2.1 2.2.4 2.2zM-15.2 15.1c-2 0-2.9 2.9-.6 3.2 2.4.4 3.2-3.2.6-3.2zm-.3 2.7c-1.6 0-1.4-2 .1-2.2 1.9-.2 1.6 2.2-.1 2.2zM-14.4 12.3c-2.3 0-2.9 3.3-.4 3.3 2.3 0 2.9-3.3.4-3.3zm-.4 2.8c-1.7 0-1.4-2 .1-2.2 1.9-.3 1.8 2.2-.1 2.2z"/><path fill-rule="evenodd" clip-rule="evenodd" fill="#C42A1F" stroke="#871818" stroke-width=".75" stroke-miterlimit="10" d="M-5.4 0h-5.4l-.4.5c-1.4 1.7-6.2 3.5-8.2 2.3-1.2-.7-2.2-1.9-3.4-2.8l-.1-.1h-17.1v11.7c.4.9.8 1.8 1.3 2.8.8 1.4 1 3.1 2.4 4.1 1.1.8 2.6 1.1 3.5 2.2l.1.1s0 .1.1.1c1 1.4 1.5 3 2.6 4.3 1.2 1.6 2.8 2.9 4.6 3.9 1.4.7 2.7 1.3 4 2.2 1.4 1 2.9 2 4.6 2.5.9.3 2.2.5 2.8-.5-1-1.2-1.6-2.7-2.9-3.5-1.4-.8-2.4-1.2-3.5-2.3-1.3-1.3-3.1-1.7-4.5-2.9-1.4-1.3-.6-2.5-1-4.1-.2-.6 0-1.1.1-1.7.1-.9-.1-1.8.3-2.6 1.4-3.3 5.9-2.4 8.8-2.9 3.7-.7 7.5-2 9.7-5.3.8-1.2 1.3-2.6 1.5-4 0-1.3.4-2.7.1-4zM35.7 0h-23.3c-.1 2 .3 4.3.4 6.2.4 5.8-.5 11.5-1 17.3-.1 1-.1 2.1-.3 3.2-.2 1.4-1 2.2-1.7 3.4-.7 1.1-1.7 1.8-2.4 2.8-1 1.5.9 1 1.7.5h.1l.1-.1c1.3-1 2.5-2.1 3.7-3.2 1.5-1.2 3.3-2.1 5-2.9 3.5-1.7 6.7-3.8 8.7-7.2.7-1.2 1.9-2.1 2.8-3.2 1.1-1.3 2.2-2.6 3-4 1.7-2.9 2.5-6.7 3.3-9.9.1-1.2.1-2.1-.1-2.9z"/><path fill="#871818" d="M21.6-.4c-2.9 4.8-2.2 10.6-3.2 15.9-.5 3-1.3 6-2.6 8.8-.6 1.4-1.4 2.7-2.3 4-.4.6-.9 1.1-1.4 1.6-.4.4-.2.4.2.8 4.2-4.1 6-10.1 7-15.7.5-2.8.5-5.7.9-8.5.2-1.5.6-3 1.1-4.4.2-.6.5-1.2.8-1.8.2-.5-.1-.4-.5-.7zM17.1 0h-.8c-.8 4-1.5 8-1.3 12.1.7 0 .7 0 .7-.7 0-.9 0-1.8.1-2.6.1-2 .4-4 .8-6 .1-1 .3-1.9.5-2.8zM-30 3.1c-3.4 0-5.9 2.6-7.4 5.4.1.1.5.4.6.3.3-.6.6-1.1 1-1.6.7-.9 1.5-1.8 2.4-2.4 2.2-1.4 4.6-1.1 6.9-.2 2.2.9 4.2 2.1 6.6 2.7 2.6.7 4.8.3 7.4-.4-.2-.6 0-.7-.7-.6-.8.2-1.6.5-2.4.6-1.8.3-3.6-.1-5.3-.7-3.1-1-5.8-3.1-9.1-3.1zM-30.3 3.3c-2.3 2.9-3.7 6.5-4 10.2-.1 1.6-.1 3.4.4 4.9.2.7.6 1.4.9 2 .3.7.2.6.9.4-.4-1.4-1.1-2.5-1.3-3.9-.2-1.8-.2-3.7.1-5.5.3-1.6.9-3.3 1.6-4.7.4-.8.9-1.6 1.4-2.3.5-.6.6-.5 0-1.1z"/><path fill-rule="evenodd" clip-rule="evenodd" fill="#FDE826" stroke="#9E9600" stroke-width=".75" stroke-miterlimit="10" d="M1.3 25.7c1.2.4 2.4.9 3.7 1.3 1.1.4 2.6-2 3.4-2.8-.2.2-.8-3.3-.7-3.3-.2-.1-1.4-.4-1.5-.6l-.1-1.9-1.6.5c-.1-.6-.3-1.2-.4-1.7 0-.1-1.5.2-1.7.3-.3.1-1.9-2.4-2.2-2.8l-1.4 1.4c-.2.2-1.2 1.5-1.5 1.4-.4-.1-1.9-.5-2.2-.3-.4.3-.1 1.7-.5 2.1-.6.7-1-.1-1 1.1 0 1.1-.2 1.1-1.1 1.7-.6.4 0 1.4.1 2 .2.9 0 .9-.7 1.6.5.3 1.2 1 1.7.8l2.9-.7c1.4-.5 3.3-.1 4.8-.1z"/><path fill="#9E9600" d="M-.4 14.9l-.7 9.8c.9.1 1.2.4 1.2-.5.1-1.1.2-2.2.2-3.3l.4-5.9c-.3-.1-.7-.1-1.1-.1zM-3.4 17.5c-.4.1-.8.2-1.2.2l.9 4.2.5 2.3c.1.6.7.2 1.2.1-.4-2.3-.9-4.5-1.4-6.8zM-5.7 19.8l-1.1.5c.4 1 .9 2 1.3 3.1l.6 1.5c.1.2 1-.3 1.1-.4l-1.9-4.7zM2.6 17.3c-.3 1.4-.6 2.8-.9 4.3l-.6 2.6c-.1.6-.4.8.3 1 .7.2.7.3.8-.4.2-.9.4-1.8.6-2.6l1-4.5c-.4-.2-.8-.3-1.2-.4zM5.3 18.7c-1 2.2-2 4.4-2.9 6.6.6.3 1 .8 1.3.1.4-.9.8-1.8 1.2-2.8.4-1 .8-1.9 1.3-2.9.4-.8 0-.7-.9-1zM6.9 20.8c-1 1.6-2 3.2-3.1 4.8.2.1 1 .7 1.1.6.3-.5.7-1 1-1.6.7-1.1 1.4-2.2 2-3.2-.3-.1-.6-.3-1-.6z"/><g fill-rule="evenodd" clip-rule="evenodd"><path fill="#fff" stroke="#0095D1" stroke-width=".5" stroke-miterlimit="10" d="M7.5 35.7c1.8-2.1.5-5.8-.9-7.7-2-2.5-5.5-3.5-8.5-3.5-2.5 0-5.5.7-7.6 1.9-1.3.7-2.5 1.7-3.4 2.9-1 1.3-1 2.6-.8 4.2.1 1.3.4 2.6 1.7 3.2.9.4 2.6.8 2.7-.5.1-1.4-.6-2.5.1-3.8.7-1.3 2.2-2.2 3.6-2.7 2.6-.9 6.2-1.1 8.6.7 1.2.9 1 2.4 1.4 3.7.3 1 2.1 2.9 3.1 1.6z"/><path fill="#0095D1" d="M7.8 32.9c.2-.7.5-1.5.3-2.2-.2-.6-.6-1.1-.9-1.6-.8-1.3-1.4-1.9-2.7-2.8-2.9-2-7.2-2.4-10.5-1.3-2.9 1-5.5 2-7.3 4.6-.8 1.2-.9 3.1-.4 4.4.3.8.7-.1.7-.5 0-.9 0-1.8.1-2.8 0-.4-.1-1.5.2-1.7.7-.4.6 1.2.5 1.4 0 .1-.2 1.6.3 1.2.6-.4.4-1.6.4-2.2 0-.6-.1-1.9.5-2.3.6-.4.6 1.3.7 1.7.1.4.4 1.5 1 .9s.2-1.8.2-2.5c0-.3.3-1.9.9-1.1.3.4.2 1.2.3 1.7 0 .5.2 1.4.9 1 .7-.4.3-1.7.3-2.3 0-.2 0-1.6.6-1.2.5.4.5 1.2.6 1.8.1.6.9 1.1 1.1.3.2-.7-.2-1.4 0-2.2.1-.3.4-.9.8-.5.4.3.2 1 .2 1.4 0 .7.9 2.4 1.5 1.2.4-.8-.1-2.1.6-2.7.8-.5.5 2.1.6 2.5.5 1.4.9-1.3 1-1.4.3-1.3 1.4-.2 1.4.7 0 .3 0 2.8.8 1.7.3-.4.2-2.8 1.2-2.2.8.3.2 2.1.3 2.8 0 .4.5 1.4 1 .8.3-.4 0-2.3.7-2.3.8.6.2 2 .1 2.9-.1.4.3 2.2.7 1 0-.1.5-2.5.7-1.6.2 1-.3 2.1-.2 3 0 .7.4 1.7.8.4.1-.5-.2.4 0 0z"/></g><path fill-rule="evenodd" clip-rule="evenodd" fill="#ACA132" stroke="#50370E" stroke-width=".5" stroke-miterlimit="10" d="M7.9 44.7c.2 1.9 0 3.7 0 5.6 0 .4.1 2.1 1 1.6.7-.4.7-1.8.8-2.4.2-1.9.5-4.8-.4-6.5-.3-.5-1.2-2-1.7-1.2s.2 2.1.3 2.9c.1 1.1-.1-.2 0 0z"/><path fill-rule="evenodd" clip-rule="evenodd" fill="#F7EDEA" stroke="#C4B76C" stroke-width=".5" stroke-miterlimit="10" d="M-1 53.7c2.4.1 7.9.3 8.6-2.8.6-2.6-.1-5.3-.1-8 0-1.3-.4-2.7-.7-4-.3-1.8-.7-3.3-1.8-4.8-.7-.9-.8-2.2-1.6-3.1-1.2-1.4-3.3-1.7-5.1-1.8-3.1-.1-7.6 1.2-7.8 4.9-.1 1.2.6 2.3.7 3.5.1 1.4-.7 2.5-.8 3.8-.1 1.5-.3 2.8-1 4.2-.7 1.5-.7 3.1.4 4.5 2.2 2.7 6 3.4 9.2 3.6.9 0-.6-.1 0 0z"/><path d="M3.6 40.3c-.5 0-.9.2-1.4.3-.4 0-.7-.3-1.2-.2-.8.2-1.1 1.9-.1 2 .2-.5-.3-.6 0-1.2.3-.7.7-.2 1.2-.2.5.1 1.5-.6 1.9-.1.4.4-.2 1.8-.3 2.3-.2 1.5-.9 3-.4 4.5.6 1.9 2.9 2.1 4.5 1.9.1-.5-.1-.5-.6-.4-.7 0-1.5 0-2.2-.3-1.2-.5-1.5-1.6-1.4-2.8.1-1.2 1.9-5.8 0-5.8z"/><path fill-rule="evenodd" clip-rule="evenodd" fill="#20759E" stroke="#000" stroke-width=".5" stroke-miterlimit="10" d="M-.7 46.9c0-1.3-1.8-1.2-1.7.1.1 1.3 1.8 1.2 1.7-.1 0-.3.1.3 0 0zM6.1 47.6c1 .2.9-1.8 0-1.9-1-.2-.9 1.8 0 1.9z"/><path d="M.7 48.6c-.7.7-1.9.7-2.8.8-.6 0-2.2-.4-2.1.4 1.6.1 3.9.4 5.2-.8-.1-.2-.2-.4-.3-.4zM4.2 46.2l-.4.2c.5.9 1.1 1.4 2.2 1.4.6 0 1.7.1 1.8-.8-.5-.2-.6.3-1.1.3-1.2 0-2-.1-2.5-1.1zM.4 45.8c-.6 0-.4.4-.4.9-.1.8-.7 1-1.4 1.1-.7.1-1.7-.1-2.3-.6-.4-.3-.4-1.1-1-.8.5 2.6 6.1 2.4 5.1-.6zM2.3 36.5c-.5 0-1.2.1-.9.7.6-.2 1.2-.2 1.8 0 .5.2.8.9 1.3.4-.4-.7-1.3-1.1-2.2-1.1z"/><g fill-rule="evenodd" clip-rule="evenodd" fill="#ACA132" stroke="#50370E" stroke-width=".5" stroke-miterlimit="10"><path d="M-3.2 33.6c.7-.5 1.7-.2 2.4-.2.9 0 1.9-.1 2.6.7.5.5 1.2 1.7 2.1 1.1.4-.2.2-.7.5-1 .3-.3.9.1 1.1.3 0-.8-.6-1.1-1-1.6s-.7-1.2-1.2-1.6c-.1-.1-1.3-1.4-1.4-1.3-.4.1-.9 1.2-1.3 1.5-.4.3-.7.9-1.3.8-.7-.1-1.5-.1-2.2.3-.6.3-1.1.8-1.5 1.3-.3.5 1.1-.1 1.2-.3.2-.1-.1.2 0 0zM7.2 38.4c-.4-1.3-1.4-.5-2.3-.1-.5.2-1 0-1.5 0-.8 0-1.6.1-2.3 0-1.7-.2-4.9-2.8-5 .5 0-.9.7-1.3 1.4-1 1.2.7 1.8 2.1 3.3 2.4.4.1 1.5.2 1.8-.2.3-.4 1.3.5 1.8.3 1-.3 2.1-2.1 2.8-1.9-.1-.4-.3-.1 0 0zM-13.2 46.2c.3.6 1.1.9 1.3 1.5.3.7-.1 1.5.3 2.2.7 1.3 3.1 2.8 4.6 2.2 1.6-.6 1.8-3.6.6-4.6-.5-.4-1.3-1-1.3-1.8.1-1 1.1-1.5 1.6-2.3.9-1.4.2-3.7-.6-5-1.1-1.7-2.3-1.1-3.5 0-.7.5-1.1 1.1-1.2 1.9-.1.5.1.7-.4.9-.4.2-.8.5-1.1.8-1.2 1.4-1 2.7-.3 4.2z"/></g><path fill-rule="evenodd" clip-rule="evenodd" fill="#93A2AA" stroke="#256B8E" stroke-width=".5" stroke-miterlimit="10" d="M33.5 55.6c.7-3.2-.3-6.6-.9-9.7.4.2.9-.3 1.2-.5-.3-.3-.8-.5-1.2-.5v-1.8c0-1.1-.1-2.1-.3-3.1-.3-1.2-.8-2.3-.5-3.6.2-1 .9-1.9 1.7-2.6-3.3-.2-4.3 3.1-4.4 5.8v1.2c0 .7-.5 1-1.1 1.4-1.6 1.1-3.6 1.3-5.3.4-.2 1.8 0 3.7 1.1 5.2 2-2.2 6.6-1.4 7.1 1.8.2 1.4-.2 2.9-.4 4.2.3.8 2.2 1.6 3 1.8.3-1.4-.8-.3 0 0z"/><path fill-rule="evenodd" clip-rule="evenodd" fill="#C2D7E7" stroke="#256B8E" stroke-width=".5" stroke-miterlimit="10" d="M34.5 55.7c.8-1.8.2-4.4-.1-6.3-.1-.7-.8-2.4-.3-2.9.4-.4.8-.8 1.2-1.3l-1.5-1c-.2-.2 0-2.3 0-2.8-.3-2.5-1.1-5.4-.1-7.8-2.4.8-1.9 4-1.4 5.7.3 1.1.4 2.1.4 3.2v1.7c0 .8.7.4 1.2 1-.3.2-.8.7-1.2.5.3 1.6.6 3.2.9 4.9.1 1 .2 1.9.2 2.9 0 .4 0 .8-.1 1.2-.2 1-.1.9.8 1 .4-.9-.3 0 0 0zM21.2 47.4c.4.7 1 1.4 1.8 1.8.2-.6.9-1.2.5-1.7-.4-.6-.6-1.2-.8-1.8-.2-.7-.2-1.4-.2-2.1 0-.6.3-.8-.3-1.1-.4-.2-.7-.5-1-.8-.8 1.7-1 3.9 0 5.7.5.8-.9-1.7 0 0zM26.3 57.9c.5.5 1 .9 1.6 1.4-.9-8.7-1.9-17.3-3-26-.9.2-1.4.1-1.3 1 .1.8.2 1.6.3 2.5.3 2.8.6 5.6 1 8.4.4 4.2.9 8.5 1.4 12.7z"/><path fill-rule="evenodd" clip-rule="evenodd" fill="#93A2AA" stroke="#256B8E" stroke-width=".5" stroke-miterlimit="10" d="M27.8 59.3l.3.2c.3-.5 1.3-1.6 1.3-2.2l-.2-1.7c-.3-2.8-.6-5.6-1-8.4l-1.6-14.3-1.5.3c-.4.1-.1.7-.1 1.1.1.9.2 1.9.4 2.8l.8 6.4c.5 5.3 1.1 10.6 1.6 15.8z"/><path fill-rule="evenodd" clip-rule="evenodd" fill="#256B8E" d="M26.9 33.5l-2.9.5c-.1 0-.8 0-.8.2l.2 1.4 2.9-.4c.1 0 .8-.1.8-.2-.1-.5-.2-1-.2-1.5z"/><path fill-rule="evenodd" clip-rule="evenodd" fill="#DBD872" stroke="#848128" stroke-width=".5" stroke-miterlimit="10" d="M25.9 29.3l-3.9-29.3h-2.9l.6 4.8 3 23.2.2 1.4c1-.2 2-.1 3-.1z"/><path fill-rule="evenodd" clip-rule="evenodd" fill="#D3C626" stroke="#7C6B23" stroke-width=".5" stroke-miterlimit="10" d="M26.2 33.9c1-.8.4-1.6.1-2.5-.2-.5 0-1.1.3-1.5.2-.2.9-.6.3-.8-.9-.2-1.9 0-2.8 0-.5 0-.7.3-1.1.4-.5.1-1 0-1.4 0 .1 0 .8 1.4.8 1.6.1.6.1 1.1.3 1.7.5 1.7 2.1 2.2 3.5 1.1.2-.1-.3.3 0 0z"/><path fill-rule="evenodd" clip-rule="evenodd" fill="#C42A1F" stroke="#871818" stroke-width=".75" stroke-miterlimit="10" d="M-13 0h-11.6c.9.6 1.7 1.2 2.5 1.9l.1.1s.1 0 .1.1c.1 0 .1.1.1.1 1.3 1.1 2.3 1.8 4.1 1.7 1.4-.1 4 .3 5-.9.8-1 .4-2-.3-3z"/><path fill-rule="evenodd" clip-rule="evenodd" fill="#fff" stroke="#000" stroke-width=".75" stroke-miterlimit="10" d="M-15.9 4.3c-.3-1.4-.3-2.9 0-4.3h-2.3c-.3 2.1-.3 5.3 2.3 4.4v-.1z"/><path fill-rule="evenodd" clip-rule="evenodd" fill="#D6C72F" stroke="#968823" stroke-width=".5" stroke-miterlimit="10" d="M9.4 11.8c-1.3-.1-3.4.6-4.6-.2 1-.3 3.2-1.5 3.4-2.6.1-.8 0-1.6.2-2.3.1-.7.6-2.1-.6-2.3.2 0 1.1-2.6-.2-2.6-.3.1-.7.2-.9.5-.3 0-.9-.1-1.2.1-.3.6-.7 1.3-1.2 1.9-.9 1.2-2.5 2.1-3.9 1-1.3-1.1-2.6-2.6-4.2-3.2-1.4-.5-2.7-.1-3.8-1.4l-.6-.7h-7.8v.30000000000000004c-.2 1.4-.2 2.8.1 4.2 1.9-.7 3.8.7 5.4 1.6 1.7.9 3.4 1.7 4.9 2.9 1.5 1.1 2.9 2.3 4.4 3.5 1.3 1.1 3.1 1.1 4.8 1.2h3.1c.8 0 1.5-.2 2.4-.1.5 0 2 .4 2.2-.3.2-1-1.2-1.4-1.9-1.5z"/><path fill="#968823" d="M6.7 2.1c-.5.6-.8 2.5-1.1 3.3-.5 1.5-2.2 2-3.4 2.9.3.8 1.1-.1 1.5-.4.7-.4 1.6-.9 2-1.7.5-.6 1.8-3.7 1-4.1zM7.7 3.9c0 .6-.4 1.3-.5 1.9-.3.8-.5 1.6-1.1 2.3-1 1-2.3 1.5-3.4 2.4.3.7 1-.1 1.4-.3.6-.3 1.1-.6 1.6-1.1.8-.7 1.5-1.4 1.7-2.5.3-.8.7-1.8.8-2.6-.1 0-.3-.1-.5-.1z"/><path fill-rule="evenodd" clip-rule="evenodd" fill="#C42A1F" stroke="#871818" stroke-width=".75" stroke-miterlimit="10" d="M40 .1v-.1h-13.8c-.1 1.5.3 3 .8 4.5.5 1.8.2 4.5 2 5.6 1.7 1.1 3.5-.4 4.6-1.6 1.4-1.5 2.8-3 4-4.6.2-.2.3-.4.4-.5 0 0 0-.1.1-.1l.1-.1c.1-.2.2-.2.2-.2.7-.8 1.3-1.8 1.6-2.9z"/><g fill-rule="evenodd" clip-rule="evenodd" fill="#fff" stroke="#000" stroke-width=".75" stroke-miterlimit="10"><path d="M25.9 3.7c-.5.5.3 1.6.5 2.2.7-.4 1.5-.7 2.3-.8.7-.1.5-.9.2-1.5-.4-.8-2.5-.4-3 .1zM37.5 6.9c.4-1.6-2.1-3-3.2-3.4-.7-.3-2.5-1.3-3.1-.5-.3.4-.2 1-.2 1.5 0 .8.6.5 1.3.8 1.6.5 3.1 1.5 4 2.9.4-.3 1.1-.8 1.2-1.3.1-.3 0 .1 0 0z"/></g><path fill-rule="evenodd" clip-rule="evenodd" fill="#D6C72F" stroke="#968823" stroke-width=".5" stroke-miterlimit="10" d="M36.2 8.3c.3-.5-1.1-1.6-1.5-1.9-1.1-.8-2.4-1.3-3.7-1.4 0 1.7 0 3.4-.9 4.9-.5-1.6-.9-3.2-1-4.9-.6.1-1.3.2-1.9.5-1 .4-.9.4-.6 1.4.3 1.2.5 2.5.4 3.8 0 1.1-.2 2.2-.8 3.1-.7.8-1.5 1.6-1.6 2.7-.1 1-.3 1.8-1 2.5-.8.7-2.1.5-2.3-.6-.1-.7-.2-1.9-1.1-.9-.7.8-.6 2.4.1 3.1-1.2-.2-1 1.2-.3 1.7-.9.4-.3 2 .3 2.4-.4-.3-.5.9-.4 1.1.1.6.5.8 1 1.1.5.3 1.1.7 1.7 1 .6.4 1.3 1.1 2 1.2.9.1 2-1.2 2.7-1.7 1.5-1 2.4-1.5 2.8-3.3.4-1.6.7-3.3 1-4.9.2-1.5.3-3 .9-4.4l2.3-3.8c.6-.8 1.1-1.8 1.9-2.7z"/><path fill-rule="evenodd" clip-rule="evenodd" fill="#fff" stroke="#968823" stroke-width=".6" stroke-miterlimit="10" d="M28.7 9.1c.2.2.4.4.6.7.2-.5.5-.9.9-1.3.4.4.8.7 1.1 1.2.1-.2.3-.4.4-.5.3-.4-.6-1-.9-1.3.5-.5 1-.9 1.5-1.2-.4-.4-.4-.8-1-.4-.5.3-1.1 1.2-1.6.9-.5-.3-1.3-1.1-1.6-.5-.4.6.8 1 1.3 1.4-.3.1-.5.5-.7 1 .2.1.1-.4 0 0z"/><path fill="#968823" d="M20.3 20.2l-.4.3c.9 1.1 3.5 2.9 4.9 1.5-.3-.6-1.2 0-1.8 0-1.1-.1-2.1-1-2.7-1.8zM20.2 22.2c-.1 0-.3 0-.5.1.1.7 1.5 1.9 2.1 2.3 1 .6 3-.3 4-.7-.1-.7-.6-.3-1.1-.1-.7.2-1.7.6-2.4.5-.4-.2-2-1.6-2.1-2.1zM20.1 24c-1 .5 1.9 2.5 2.7 2.5.9-.1 1.7-.3 2.6-.3.2 0 1.3.1 1.4 0 .7-.7-2.4-.4-2.6-.4-.7.1-1.7.4-2.3 0-.7-.4-1.2-1.2-1.8-1.8z"/><path fill="#fff" stroke="#9E9600" stroke-width=".5" stroke-miterlimit="10" d="M-10.4 50.6c-.1 0 0 .8 0 .9-.1.8-.4 1.5.3 2 1.7 1.2 3.8 1.9 5.9 2.3 2.2.4 4.6.5 6.8.2 1.1-.1 2.1-.4 3.1-.8.5-.2 2.1-.7 2.2-1.4.1-.7-.3-1.4-.2-2-.2-.3.2-.5-.5-.1-1.7 1.1-3.6 1.6-5.6 1.8-4.1.3-8.4-.6-12-2.9z"/><path fill-rule="evenodd" clip-rule="evenodd" fill="#FCF73D" stroke="#E0CF00" stroke-width=".75" stroke-miterlimit="10" d="M21.4 54.3c-.3-.5-.8-.9-.8-1.5s.3-1.3.1-2c-.2-.6-.8-1.1-1.1-1.6-.3-.5-.4-1.2-.5-1.7-.2-1.3-.2-2.8-.9-4-.6-1-1.9-1.7-2.9-.8-1.1 1-1.3 2.9-1.6 4.3-.3 1.3-.4 2.6 0 3.9.5 1.3-.3 2.5-.6 3.8-.5 2.7-.4 5.2-2.8 7-.7.6-2.4 1.9-3 3.2h9l.6-.6c2.1-2.1 4-4.1 4-7.2 0 1.4.6-.1 0-.1 1.4 0 .9-1.9.5-2.7z"/><path fill="#E0CF00" d="M17 49.6c-.1-.8-.3-2 0-2.8.2-.5.3-.3 0-1-1.6.6-.8 3.7-.5 4.8.4 1.8.6 3.5.7 5.4.1 2.4-.5 4.6-1.7 6.7-.5.8-1 1.6-1.7 2.3h1.2c2.3-2.4 3.1-6.6 2.9-9.6-.1-2-.4-3.9-.9-5.8zM14.6 52.1c-1.2 1.5-.7 3.6-.1 5.2.3.9.7 1.8.9 2.8.2.9-.2 1.2.8 1.3.1-1.9-.9-3.5-1.4-5.3-.3-.9-.4-1.8-.1-2.7.3-.8.7-.8-.1-1.3z"/><g fill-rule="evenodd" clip-rule="evenodd" stroke-width=".75" stroke-miterlimit="10"><path fill="#C42A1F" stroke="#871818" d="M9.4 50.4c.5-.4 1.1-.4 1.7-.4-.6 0-1.1.3-1.7.4zm-1.5 8.1c1 .6 1.7 1.5 1.9 2.6-.9-.7-1.6-1.6-1.9-2.6zm.3-3.9c.6.2 1.3.5 1.6 1 .2.2.5 1.2.8 1.2-1.2 0-2.1-1-2.4-2.2zm2.8-1.5c2.5.5 4.5 3 4.1 5.5-.4 2.3-3.3 4-5.3 2.5.3 1.4.1 2.8-.8 3.9h-12.1c-.4-.5-.9-.9-1.4-1.4-1.2-1.2-2.1-2-2.3-3.8-.2-1.5.6-3.5 2.3-3.6 1.5-.1 3 .4 4.5.5 1.5.1 3-.6 4.4-1 1.3-.4 2.4-1.4 3.8-1-.4-1.4-.2-3.4 1.2-4.3l-.6-5c-.2-2.9.8-5.6 1.1-8.4.2-1.7 2-1.7 1.8.1-.1 1.3.2 2.4.8 3.6.7 1.4 1.5 2.8 1.6 4.3.1 1.4-.6 3-2.2 2.8 1.8.3 4.1 2.2 3.1 4.3-.8 1.2-2.8.9-4 1z"/><path fill="#FCF73D" stroke="#E0CF00" d="M10.3 35.6c.1.9.1.6.8.9.2-1 .3-2.5 0-3.4.1.3-.5 1-.6 1.2-.2.4-.2.8-.2 1.3z"/></g><path fill-rule="evenodd" clip-rule="evenodd" fill="#25A7E0" stroke="#0571A3" stroke-width=".75" stroke-miterlimit="10" d="M1.8 58.5c-.1-1.7-3-3-4.3-1.6-.3.3-2.4-.6-2.9-.7-.7-.2-1.7-.6-2.4-.5-.3 0-.4.2-.4.4-.7-.8-1.3-1.5-1.9-2.3-.8-1.1-.2-2.8-1.2-3.7-.4-.4-2.9-1.9-3.3-1.2l.2-.6-1.5.2c-.3 0-.5-.5-.8-.4-.1 0-.6.6-.7.7-.4.3-.6.3-1 .1-1.9-.8-1.5 4.6-1.4 5.4.2 1.9.5 4 2.3 5-.4-.1-1.4-.4-1.4-.3-.8.4 1.9 2.6 2.4 2.9.9.6 2.1 1.3 3.3 1.8-.6-.1-1.2-.1-1.7.2.8.9 2.2.8 3.3 1.2h11.5l.3-.4v.1l.1-.1c.1-.1.1-.2.1-.2.4-.8.6-1.7 1-2.6.1-1.2.5-2.3.4-3.4z"/><path d="M1.7 36.7c-.5.1-1.2.1-.9.8.4-.1.7-.2 1-.3 0-.2-.1-.4-.1-.5z"/></g></symbol><symbol id="b" viewBox="-50 -75 100 150"><path fill="#F0F7E6" d="M-43.9-75c-3.1 0-6.1 3-6.1 6.1v137.8c0 3.1 3 5.1 6.1 5.1h87.8c3.1 0 5.1-2 5.1-5.1v-137.8c0-3.1-2-6.1-5.1-6.1h-87.8z"/><path d="M43.9 74c2.8 0 5.1-2.3 5.1-5.1v-137.8c0-2.8-2.3-5.1-5.1-5.1h-87.8c-2.8 0-5.1 2.3-5.1 5.1v137.8c0 2.8 2.3 5.1 5.1 5.1h87.8m0 1h-87.8c-3.4 0-6.1-2.7-6.1-6.1v-137.8c0-3.4 2.7-6.1 6.1-6.1h87.8c3.4 0 6.1 2.7 6.1 6.1v137.8c0 3.4-2.7 6.1-6.1 6.1z"/></symbol><symbol id="f" viewBox="-41 -66 82 132"><g fill-rule="evenodd" clip-rule="evenodd" fill="#1A171B"><path d="M-40-41h-1v82h1zM41-41h-1v82h1zM34 66h-68v-1h68zM34-65h-68v-1h68z"/></g><path stroke="#1A171B" stroke-miterlimit="10" fill="none" d="M-40.5 0h81"/></symbol><symbol viewBox="-7.6 -7.6 15.2 15.2"><path fill-rule="evenodd" clip-rule="evenodd" fill="#FFA001" d="M7.4-.3c-1.4-.9-2.7-2-3.9-3.2-1.2-1.2-2.3-2.5-3.2-3.9 0-.1-.2-.2-.3-.2-.1 0-.2.1-.3.2-.9 1.4-2 2.7-3.2 3.9-1.2 1.2-2.5 2.3-3.9 3.2-.1.1-.2.2-.2.3 0 .1.1.3.2.3 1.4.9 2.7 2 3.9 3.2 1.2 1.2 2.3 2.5 3.2 3.9.1.1.2.2.3.2.1 0 .3-.1.3-.2.9-1.4 2-2.7 3.2-3.9 1.2-1.2 2.5-2.3 3.9-3.2.1 0 .2-.2.2-.3 0-.1-.1-.2-.2-.3z"/></symbol><symbol id="d" viewBox="-2.8 -6 5.6 12"><path fill-rule="evenodd" clip-rule="evenodd" fill="#D52222" d="M1.1-1.3c-.1.3-.2.5-.4.6-.2.1-.6.2-1 .2h-.7v-3.8h.7c.5 0 .8.1 1 .3.2.2.3.4.4.7 0 .3.1.6.1 1 0 .5-.1.8-.1 1zm-.3 5.3c-.2.3-.6.4-1.2.4h-.6v-3.3h.8c.6 0 .9.1 1.1.4.2.3.3.7.3 1.3 0 .5-.1.9-.4 1.2zm1.9-2.5c-.1-.3-.3-.5-.4-.7l-.7-.5c.4-.2.7-.5.9-.8.2-.4.3-.9.3-1.5v-.7c0-1-.2-1.9-.8-2.4-.5-.6-1.3-.9-2.4-.9h-2.3v12h2.5c.7 0 1.3-.1 1.8-.4.5-.3.8-.7 1-1.1.1-.5.2-1 .2-1.5v-.5c0-.4-.1-.7-.1-1z"/></symbol><use xlink:href="#b" width="100" height="150" x="-50" y="-75" transform="matrix(1 0 0 -1 50 75)" overflow="visible"/><g><g><use xlink:href="#c" width="9" height="8.4" x="-4.5" y="-4.2" transform="matrix(-1 0 0 1 89.5 123)" overflow="visible"/><use xlink:href="#c" width="9" height="8.4" x="-4.5" y="-4.2" transform="matrix(-1 0 0 1 10.5 123)" overflow="visible"/><use xlink:href="#c" width="9" height="8.4" x="-4.5" y="-4.2" transform="matrix(1 0 0 -1 89.5 27)" overflow="visible"/><use xlink:href="#c" width="9" height="8.4" x="-4.5" y="-4.2" transform="matrix(1 0 0 -1 10.5 27)" overflow="visible"/><use xlink:href="#d" width="5.6" height="12" x="-2.8" y="-6" transform="matrix(-1 0 0 1 90 136)" overflow="visible"/><use xlink:href="#d" width="5.6" height="12" x="-2.8" y="-6" transform="matrix(-1 0 0 1 10 136)" overflow="visible"/><use xlink:href="#d" width="5.6" height="12" x="-2.8" y="-6" transform="matrix(1 0 0 -1 90 14)" overflow="visible"/><use xlink:href="#d" width="5.6" height="12" x="-2.8" y="-6" transform="matrix(1 0 0 -1 10 14)" overflow="visible"/><use xlink:href="#e" width="80.8" height="65.8" x="-40.4" y="-.4" transform="matrix(-1 0 0 1 50 75)" overflow="visible"/><use xlink:href="#e" width="80.8" height="65.8" x="-40.4" y="-.4" transform="matrix(1 0 0 -1 50 75)" overflow="visible"/><use xlink:href="#f" width="82" height="132" x="-41" y="-66" transform="matrix(1 0 0 -1 50 75)" overflow="visible"/><use xlink:href="#a" width="13.9" height="12.9" x="-6.9" y="-6.4" transform="matrix(-1 0 0 1 77.5 129.5)" overflow="visible"/><use xlink:href="#a" width="13.9" height="12.9" x="-6.9" y="-6.4" transform="matrix(1 0 0 -1 22.5 20.5)" overflow="visible"/></g></g></svg>