<svg xmlns="http://www.w3.org/2000/svg" xmlns:xlink="http://www.w3.org/1999/xlink" viewBox="0 0 100 150" enable-background="new 0 0 100 150"><symbol viewBox="-7.3 -7.3 14.6 14.6"><path fill-rule="evenodd" clip-rule="evenodd" d="M1.7 2.6c-.7-.8-1-1.4-1.1-2 .6.1 1.3.4 2 1.1.7.6 1.4.9 2.1.9.7 0 1.3-.3 1.9-.8.5-.5.7-1.1.7-1.8s-.3-1.3-.8-1.9c-.5-.4-1.1-.7-1.8-.7s-1.4.3-2.1 1c-.8.7-1.4 1-2 1.1 0-1.4 0-2.5.1-3.3.2-1.5.6-2.5 1.1-3.2.1-.1.1-.1 0-.2 0-.1-.1-.1-.2-.1-.6.1-1.1.2-1.6.2s-1-.1-1.7-.2c-.1 0-.1 0-.2.1s-.1.1 0 .2c.6.7.9 1.7 1.1 3.1.1.9.2 2 .2 3.3-.5 0-1.2-.4-2-1-.7-.7-1.4-1-2.1-1-.7 0-1.3.3-1.9.8-.5.5-.7 1.1-.7 1.8s.3 1.3.8 1.8c.5.6 1.1.8 1.8.8s1.4-.3 2.1-.9c.8-.7 1.4-1 2-1.1-.1.6-.4 1.3-1.1 2-.6.8-.9 1.4-.9 2.1 0 .7.3 1.3.8 1.9.5.5 1.1.7 1.8.7s1.3-.3 1.9-.8c.4-.5.7-1.1.7-1.8s-.3-1.3-.9-2.1z"/></symbol><symbol viewBox="-7 -7.5 14.1 14.9"><path fill-rule="evenodd" clip-rule="evenodd" fill="#008C00" d="M5.9-2.9c-.8-.7-1.7-1-2.8-1-.9 0-1.7.3-2.4.9h-.1c.1-1.9.5-3.2 1.2-4.1.1-.1.1-.1 0-.2 0-.1-.1-.1-.2-.1-.6.1-1.1.1-1.6.1s-1-.1-1.7-.2c-.1 0-.2 0-.2.1-.1.1-.1.1 0 .2.7.8 1.1 2.2 1.3 4.1h-.1c-.7-.6-1.5-.9-2.4-.9-1.1 0-2 .4-2.8 1.1-.7.7-1.1 1.5-1.1 2.5 0 1.3.8 2.6 2.5 4.1.9.8 2.4 2 4.3 3.6 0 .1.1.2.2.2s.2 0 .3-.1c.8-.8 2.2-2 4.3-3.6 1.6-1.5 2.4-2.9 2.4-4.2 0-1-.4-1.8-1.1-2.5z"/></symbol><symbol viewBox="-6.9 -6.4 13.9 12.9"><path fill-rule="evenodd" clip-rule="evenodd" fill="#D52222" d="M0 4.1c.2.7.5 1.2 1.1 1.7.6.5 1.3.7 2.1.7 1 0 1.9-.3 2.7-1 .7-.7 1.1-1.6 1.1-2.6 0-1.6-.8-3.2-2.4-5-.1-.2-1.6-1.6-4.4-4.2 0-.1-.1-.1-.2-.1s-.2 0-.2.1c-2.8 2.6-4.3 4-4.3 4.1-1.6 1.8-2.4 3.5-2.4 5 0 1 .4 1.8 1.1 2.6.7.7 1.6 1 2.7 1 .8 0 1.4-.2 2-.7.6-.4.9-1 1.1-1.6z"/></symbol><symbol id="b" viewBox="-50 -75 100 150"><path fill="#F0F7E6" d="M-43.9-75c-3.1 0-6.1 3-6.1 6.1v137.8c0 3.1 3 5.1 6.1 5.1h87.8c3.1 0 5.1-2 5.1-5.1v-137.8c0-3.1-2-6.1-5.1-6.1h-87.8z"/><path d="M43.9 74c2.8 0 5.1-2.3 5.1-5.1v-137.8c0-2.8-2.3-5.1-5.1-5.1h-87.8c-2.8 0-5.1 2.3-5.1 5.1v137.8c0 2.8 2.3 5.1 5.1 5.1h87.8m0 1h-87.8c-3.4 0-6.1-2.7-6.1-6.1v-137.8c0-3.4 2.7-6.1 6.1-6.1h87.8c3.4 0 6.1 2.7 6.1 6.1v137.8c0 3.4-2.7 6.1-6.1 6.1z"/></symbol><symbol id="d" viewBox="-2.8 -6 5.6 12"><path fill-rule="evenodd" clip-rule="evenodd" fill="#FFA001" d="M-.3 4.4h-.7v-8.8h.8c.5 0 .8.1 1.1.4.1.2.2.6.2 1.1v5.8c0 .5-.1.9-.3 1.1-.2.3-.6.4-1.1.4zm2.3.8c.5-.6.8-1.3.8-2.3v-5.7c0-1.1-.3-1.9-.8-2.5-.6-.4-1.4-.7-2.4-.7h-2.4v12h2.6c1 0 1.7-.3 2.2-.8z"/></symbol><symbol id="f" viewBox="-41 -66 82 132"><g fill-rule="evenodd" clip-rule="evenodd" fill="#1A171B"><path d="M-40-41h-1v82h1zM41-41h-1v82h1zM34 66h-68v-1h68zM34-65h-68v-1h68z"/></g><path stroke="#1A171B" stroke-miterlimit="10" fill="none" d="M-40.5 0h81"/></symbol><symbol id="a" viewBox="-7.6 -7.6 15.2 15.2"><path fill-rule="evenodd" clip-rule="evenodd" fill="#FFA001" d="M7.4-.3c-1.4-.9-2.7-2-3.9-3.2-1.2-1.2-2.3-2.5-3.2-3.9 0-.1-.2-.2-.3-.2-.1 0-.2.1-.3.2-.9 1.4-2 2.7-3.2 3.9-1.2 1.2-2.5 2.3-3.9 3.2-.1.1-.2.2-.2.3 0 .1.1.3.2.3 1.4.9 2.7 2 3.9 3.2 1.2 1.2 2.3 2.5 3.2 3.9.1.1.2.2.3.2.1 0 .3-.1.3-.2.9-1.4 2-2.7 3.2-3.9 1.2-1.2 2.5-2.3 3.9-3.2.1 0 .2-.2.2-.3 0-.1-.1-.2-.2-.3z"/></symbol><symbol id="c" viewBox="-4.9 -4.9 9.9 9.9"><use xlink:href="#a" width="15.2" height="15.2" x="-7.6" y="-7.6" transform="scale(.65)" overflow="visible"/></symbol><symbol id="e" viewBox="-40.5 -0.7 81 65.6"><path fill-rule="evenodd" clip-rule="evenodd" d="M29.3 16.4v-16.4h-62.5v22h62.4c.2 0 .1-5.2.1-5.6z"/><path fill-rule="evenodd" clip-rule="evenodd" fill="#fff" stroke="#999" stroke-width=".75" stroke-miterlimit="10" d="M4.4 44.7c0 1.6.4 9.4 3.5 7.9 1-.4 1.2-2.3 1.4-3.1.3-1.3.5-2.7.7-4 .5-2.8 1-5.6 1.3-8.5.3-2.7.7-5.6 2-8 .4-.7 1.7-2.6.5-3.2-.8-.5-2.4-.2-3.3 0-1.7.3-3.3.7-4.9 1.2-1.3.5-3.1 1.1-3.5 2.6-.6 2.4 1 5.3 1.7 7.5.7 2.3.7 5.1.6 7.6z"/><path fill-rule="evenodd" clip-rule="evenodd" fill="#0088A8" stroke="#999" stroke-width=".5" stroke-miterlimit="10" d="M9.7 35.7l1.5-3.6c.6-1.3 1.3-2.7 1.2-4.2 0 .6-.2 1.1-.8 1.2-1.1.2-1.2.3-1.7 1.2-.3.6-1.4-.1-1.5.5-.2.6 1.1.9 1 1.5-.2.6-1.5.7-1.1 1.5.1.3 1.4 1.3 1 1.5-.6.4-1.8.1-.9 1.2.5.9 1 0 1.3-.8 0-.1-.1.2 0 0z"/><path fill="#999" d="M7.6 35.6c-.8.1-.2 2.4-.1 3 0 1.2-.1 2.4-.2 3.6-.1 1.7-.3 3.2-.4 4.8-.1.5-.1 1-.3 1.5-.1.5-.7 1.3.1 1.4.9-2.1.9-4.7 1.1-6.9.2-2 .3-4.1.1-6.1.7.8 1.8.3 2 1.6.2 1.3 0 2.7-.2 3.9-.4 2.6-1.1 5.2-1.4 7.9.6.2.5-.2.6-.6l.3-1.9c.4-2 .8-4 1.1-6 .1-1.2.4-3-.1-4.1-.3-.7-1-.7-1.6-.9-.5-.2-.6-.8-1-1.2z"/><path fill-rule="evenodd" clip-rule="evenodd" fill="#fff" stroke="#999" stroke-width=".75" stroke-miterlimit="10" d="M-13.2 47.1c.8-.5.9-2 1-2.8.2-1.3.5-2.6.6-3.9l.2-5c.1-1.4-.1-2.7-.3-4.1 0-.3 0-.7-.3-.8h-1.9c-2.4-.1-5 .4-7.3 1.1.8 2.6 2 5.1 3.4 7.4.8 1.2 3 9 4.6 8.1.1-.1-.2.1 0 0z"/><path fill="#999" d="M-17.9 31.6c-.9.4 1.2 1.4-.4 2.2-2.2.9 1.1 2 1.3 2.5.2.7-.8 1-1 1.6-.3.9.4 1.7.8 2.4.5.8 1 1.6 1.6 2.4.3.4.5 1.2 1.1.7-.6-1.3-1.7-2.4-2.4-3.6-.3-.4-.9-1.4-.5-1.9s.9-.7.9-1.4c0-.8-2.4-1.5-1.9-2 .3-.4 1.1-.4 1.3-.9.3-.9-.3-1.5-.8-2z"/><path fill-rule="evenodd" clip-rule="evenodd" fill="#fff" stroke="#3E515B" stroke-miterlimit="10" d="M-9.2 29.4c-1.3-.8-2.8-1.2-4.2-1.7-1.6-.5-3.2-1.3-4.7-2-3.3-1.6-6.3-3.7-9.2-6-2.4-1.9-4.7-4.2-5.6-7.2-1-3.3-.8-7-2.4-10.2-.5-.7-1-1.6-1.7-2.3h-3v22c2 2.2 4.5 3.9 7 5.5l-.4-.2c.2.1.5.3.6.4.1 0 .2.1.3.2 0 0 .1 0 .1.1h.1c1.4.8 2.8 1.6 4.3 2.2 2 .8 4.1.9 6.2 1.1 2.8.3 5.5.4 8.3.4 1.4 0 2.8 0 4.1-.2 1.9-.4 1.4-1.3.2-2.1z"/><path fill="#3E515B" d="M-23.3 28.2c.1.6.4 1.1.8 1.4.7.5.6.6 1.2 0-.2-.2-.5-.4-.8-.6.5 0 1 .1 1.5.2.6.1.4-.1.6-.6-1-.3-2.1-.3-3.3-.4zM-29.6 25c.2 1.1 1 2.1 2.2 2.3 0-.2.2-.6.1-.7-.5-.1-.9-.4-1.2-.8l1.6.3c.6.1.5-.1.6-.6-1.1-.3-2.2-.5-3.3-.5zM-37.6 19.3c.8.8 1.4 1.8 2.3 2.6.7-.7.2-.8-.4-1.6.8.3.7.5 1.1-.2-1-.6-1.9-.8-3-.8zM-37.1 23.1c0 1.1.5 1.9 1.4 2.7.1-.1.5-.4.5-.5-.4-.3-.7-.7-.9-1.1l1.2.5c.6.3.5.1.7-.4-.9-.6-1.8-1-2.9-1.2zM-38.6 16.3c-.5-.2-1-.4-1.4-.6v.8h.1c.8.4.9.7 1.3-.2z"/><path fill-rule="evenodd" clip-rule="evenodd" fill="#fff" stroke="#3E515B" stroke-miterlimit="10" d="M37.9 12c.8-.8 1.6-1.6 2.1-2.5v-9.5h-12.6l-.1.2c-1.5 3.1-.1 6.8-1.8 9.9-1.5 2.8-4.1 4.7-6.5 6.6-3 2.4-6.1 4.5-9.5 6.3-2.8 1.5-5.9 2.6-8.5 4.2-.2.2-2.2 1.4-1.1 1.7 1.2.3 2.7-.1 3.9-.4 2.4-.5 4.9-1.1 7.3-1.7 4.2-1 8.7-2.1 12.6-4.1 3.4-1.8 6.6-4 9.6-6.5 1.5-1.3 3-2.7 4.6-4.2z"/><path fill="#3E515B" d="M32.7 11.3c-1 .1-2.4.4-2.7 1.5l.7.2c.1-.5.7-.7 1.1-.8-.1.4-.1.9-.3 1.3-.2.4.1.4.4.7.7-.8.7-2 .8-2.9zM34.9 8.2c-.4.8-1.4 2.3-.6 3.1.1-.1.2-.2.2-.3l.3.6c.1-.1.5-.3.6-.5-.3-.3-.3-.9-.4-1.3 0-.5 0-1.1-.1-1.6zM38.3 3.8c-.9.6-1.8 1.6-1.9 2.8.1 0 .6.1.7 0 0-.6.4-1.1.7-1.6.1.7-.1 1.5.1 2.2.9-.2.6-.2.6-1.1.1-.7.1-1.5-.2-2.3zM33.7 2l-.9.9c-.5.6-.5.5.1 1 .2-.2.3-.4.5-.5v1c.6 0 .7.1.7-.5 0-.8 0-1.3-.4-1.9zM40 8.7v-1.2c-.2.3-.5.6-.8.9-.6.5-.6.2-.6 1 .5 0 1-.3 1.4-.7z"/><path fill-rule="evenodd" clip-rule="evenodd" fill="#756026" stroke="#D8B444" stroke-width=".75" stroke-miterlimit="10" d="M-8.8 51.3c1.3-1.8.9-4.3.9-6.4 0-1.3.3-2.5.2-3.7-.1-1-.2-2-.2-3 .1-1.9.4-4.9-.9-6.4-.3-.4-.8-.2-1.3-.1s-.6-.2-1-.3c-1.1-.3-2.5-.1-3.4.5-.9.6-.9 1.6-.8 2.6.1 1.1.1 2.2 0 3.3-.2 2.6-.5 5.1-.3 7.7.1 2 .1 4.3 1.1 6.1 1.2 2 4.4 1.6 5.7-.3.7-1-.3.5 0 0z"/><path fill-rule="evenodd" clip-rule="evenodd" fill="#F8E8C1" stroke="#000" stroke-width=".75" stroke-miterlimit="10" d="M-6.5 56.7h-.2.2zM26.4 0h-7.2c-.7.9-1.4 1.8-1.8 2.6-.8 1.4-1.5 3.6-3.2 4.2-2.5.9-1.7-2.4-1.5-3.6.3-1 .4-2.1.4-3.2h-28.1c-.7.8-1.4 1.6-1.9 2.5-.7 1.5-.4 3.3-1.2 4.7-1 1.7-2.3 0-2.8-1.1-.8-2-1.1-4.1-1.7-6.1h-11.4c0 1.6.3 3.2.5 4.8.5 3.4 1.1 6.7 1.8 10 .8 3.6 2.2 6.7 5.3 8.9 2.7 1.9 6.1 2.9 9.1 4.1 1.2.5 2.3 1 3.4 1.5.7.3 1.3.7 1.9 1 .7.3 1.8.5 2.1 1.3.4 1.1-.1 2.6-.1 3.8 0 .5-1.2.4-1.7.8-.6.5-1 1.5-1.3 2.3-.6 1.6-.9 3.3-1 5-.1 1.6.1 3.3-.2 4.9-.3 2-.2 4.8 1.7 6.1 1.6 1.2 3.6 1.7 5.5 2.1h.30000000000000004c1.7.3 3-.3 4.5-.9 1.7-.7 3.4-1.5 4.6-2.9 2.4-2.7 2.1-6.3 2.1-9.7 0-1.4-1.2-2.8-2-3.9-1-1.2-2.7-1.3-3.2-3-.4-1.4 0-2.9 1.2-3.7 1.5-1 2.9-2 4.4-2.9 3-1.8 6.7-2.4 9.6-4.3 1.4-.9 2.5-2.3 3.1-3.9.7-1.7.6-3.5 1.1-5.3.9-3.3 3.4-5.9 5-8.8 1.4-1.7 3.4-4.9 2.7-7.3z"/><path fill-rule="evenodd" clip-rule="evenodd" fill="#F4ED00" stroke="#000" stroke-width=".5" stroke-miterlimit="10" d="M3.2 31.7c1.3-1-1.1-2.3-1.8-2.5-1.7-.8-3.4-1.2-5.2-1.3-3.4-.2-6.3.4-9.3 1.9-.6.3-.1 1.1.5.8.6-.3 1.2-.7 1.8-.9 1.3-.4 2.5-.7 3.9-.8 1.7-.1 3.5-.1 5.2.2 1.3.3 3.1.8 4.1 1.7-1.2-.3-2.3-1-3.5-1.4-1.4-.4-2.9-.6-4.4-.6-1.5 0-3 .2-4.5.6-.6.2-1.2.5-1.7.8-.7.4-.4 1.5.2 1 2.3-1.6 5.5-1.7 8.2-1.3 1.1.2 2.4.4 3.4.9.8.4 2.3 1.5 3.1.9zM-4.9 23.8c-2.4.1-4.9.6-7 1.9-.9.5-1.8 1.2-2.5 2.1-.3.4-.6.8-.9 1.3-.3.5.5 1 .8.5 2.3-4.1 7.7-5 11.9-4.6 2 .2 4 .7 5.6 1.8.7.5 1.4 1.1 1.9 1.7.3.3.5.7.8 1.1.5.4 1.3-.1 1-.6-2.4-4.1-7.1-5.2-11.6-5.2z"/><path d="M-11 42.1c-.7 0-2.2.1-1.8 1.2.3.8.6 1.4.8 2.2.2 1 .3 2.4-.5 3.2-.5.5-2.1.3-1.9 1.1 2.8 0 3.3-2.5 2.7-4.8-.1-.3-.9-2-.7-2.2.5-.6 1.8 1 1.9-.1.6.1-.1.8.7.8.4-1.1-.3-1.4-1.2-1.4z"/><path fill-rule="evenodd" clip-rule="evenodd" fill="#338BD3" stroke="#000" stroke-width=".5" stroke-miterlimit="10" d="M-8.2 47.4c0-1.1-1.1-1.1-1.1 0s1.1 1.1 1.1 0zM-12.8 47.2c.1-1.2-.9-1.2-.9 0-.1 1.1.8 1.2.9 0z"/><path d="M-9.7 46.4c-.6.7 0 1.8.9 1.9.8.1 1.5-.4 2.1-.9.3-.3.6 0 .8-.5-.8-.6-1.6.8-2.4 1-1.4.2-.7-1.1-1.4-1.5zM-10.1 48.7l-.3.4c1.4 1 3.9.9 5.5.2-.1-.8-1.3-.2-1.9-.1-1 .1-2.3.2-3.3-.5zM-11.9 47.4c-.5 0-1 .2-1.6.2-.4 0-.8-.3-.9.3.5.3 1.3.2 1.9.1l.6-.2c.1 0 .1-.4 0-.4zM-10.1 35.6h-.2c-.2.8 1.7.5 2.3.6.5 0 2.1.5 2-.3-1.3-.3-2.8-.3-4.1-.3z"/><path fill-rule="evenodd" clip-rule="evenodd" fill="#DB1D1D" d="M-10.9 40.1c.5 0 1.2.1 1.6 0 .7-.2-.9-1.1-1.1-1.2-.7-.2-1.3 0-1.6.6-.4.6.7.6 1.1.6z"/><path fill-rule="evenodd" clip-rule="evenodd" fill="#961515" d="M-10.7 40.8c.4.1 2.7-.3 1.5-.9-.4-.2-.9-.2-1.3-.1-.3.1-.6-.1-.8-.1-.3-.1-1.5.2-1.2.6.3.4.5.6.9.2.5-.6.4.2.9.3z"/><g fill-rule="evenodd" clip-rule="evenodd"><path fill="#F4ED00" stroke="#000" stroke-width=".5" stroke-miterlimit="10" d="M-21.6 1.8c-3.1.3-6.2.6-9.3 1l-2.1.3c-.9.1-.7 1.2-.7 2 0 1.7.5 3.4 1.2 4.9 3.2.3 6.4.1 9.5-.7l2-.6c.2-.8.3-1.6.3-2.4 0-1.7-.3-3.2-.9-4.5-3.9.3.9 2 0 0z"/><path fill="#F91515" d="M-28.4 6.3c-.1-.5-.4-1.7-1.1-1.6-.7.1-.8 1.3-.7 1.8.1.5.4 1.7 1.1 1.6.7-.1.7-1.3.7-1.8-.1-.5 0 .4 0 0zM-23.4 5.7c-.1-.6-.4-1.7-1.1-1.7-.8.1-.8 1.3-.7 1.8.1.5.4 1.7 1.1 1.6.7 0 .8-1.2.7-1.7zM-26.2 5.9c-.1-1-1.6-.9-1.4.2.1 1 1.5.8 1.4-.2zM-30.9 6.4c-.1-1-1.5-.9-1.4.2.1 1 1.5.8 1.4-.2zM-21.2 5.3c-.1-1-1.5-.9-1.4.2.1 1 1.5.9 1.4-.2-.1-.2 0 .3 0 0z"/></g><g fill-rule="evenodd" clip-rule="evenodd"><path fill="#F4ED00" stroke="#000" stroke-width=".5" stroke-miterlimit="10" d="M26.7 7.5c-2.7-1.3-5.5-2.6-8.3-3.9-.6-.3-1.2-.9-1.7-.4-.4.5-.8 1.1-1.1 1.7-.6 1.1-.9 2.4-1 3.6 2.2 1.7 4.8 3 7.5 3.9.6.2 1.2.4 1.8.5.5-.5 1-1.1 1.5-1.8.7-1.1 1.2-2.3 1.3-3.6-3.3-1.6-.2 2 0 0z"/><path fill="#F91515" d="M19.5 7.8c.8-1.7-.7-2.4-1.5-.7s.7 2.4 1.5.7zM23.6 9.7c.8-1.7-.7-2.4-1.6-.7-.7 1.7.8 2.3 1.6.7.1-.4-.2.4 0 0zM21.3 8.5c.4-.8-.8-1.4-1.2-.6-.3.9.9 1.5 1.2.6.1-.2 0 .2 0 0zM17.5 6.7c.3-.7-.4-1.3-1-.8-.7.8.6 1.8 1 .8.1-.1 0 .2 0 0zM25.4 10.4c.4-.8-.7-1.4-1.2-.5-.4.8.8 1.4 1.2.5 0-.1-.1.2 0 0z"/></g><path fill-rule="evenodd" clip-rule="evenodd" fill="#00A5E8" stroke="#005F7C" stroke-miterlimit="10" d="M26.5 10.8c-.4-.9-.9-3.4-1.8-3.9-.6 1.2-1.1 2.8-2.1 3.7-.7.7-1.7 1.2-2.5 1.8-.5.3-1.1 1.1-1.8 1.1-.1-1.7 0-3.9-.8-5.4-.9-2.1-1.3-4.2.1-6.2.2-.3.9-1.2 1.2-1.9h-7.5c-.4 1.2-.2 2.5-.5 3.7-.2-1.9-1.8-3.1-3.5-3.7h-23.2c-1.1.5-2 1.4-2.3 2.7 0-.7-2.3-2.2-3.2-2.7-.1 0-.2-.1-.2-.1-.2-.1-.3 0-.4.1-.3.7.7 3.5.8 3.7.6 1.8.5 2.7-1.2 3.7s-2.7 2.5-3.4 4.3c-.2.6-.4 1.3-.7 1.9-.4 1-1.3.1-1.5-.5-.5-1.6-1-3.1-2.1-4.4-.5-.7-.9-1.5-1.6-1.8-.5-.3-1.5-.5-1.8-1.1-.2-.4-.1-1.1-.2-1.5-.2-.8-.4-1.7-.6-2.6l-.1-1.7h-4.2c-.2.4-.3.9-.3 1.2 0 .6.2 1.2 0 1.8-.3.8-.6 1.5-.8 2.3-.2 1.3.2 3.5 1.6 4.2-.7 1.3-1.3 2.2-1.1 3.8.2 1.8 1.2 3.5 2.7 4.5 1.5 1 3.2 1.7 4.9 1.8.8.1 1.7.1 2.5.1s1.5-.4 2.2-.5c4.4-.6 8.4-2.6 12.8-3 4.2-.3 8.3 0 12.5.1 3.5.1 6.8.6 10.2 1.5 2 .5 3.9 1.3 5.9 1.6 1.9.3 3.8.3 5.7.5h.4c1.4.1 2.6 0 3.8-.8 1.5-1 2.5-2.6 2.8-4.4.4-1.5-.2-2.4-.7-3.9z"/><path fill="#005F7C" d="M-35.3 13l-1.2.2c.5 2.7 2.6 3.3 4.9 4 .6.2 1.2.4 1.7.8.3.2.4.6.7.4l.8-.6c-1.9-2.3-6.4-1.4-6.9-4.8zM11.1 2.8l-.7.3c.4 1.1.8 2.2 1.7 3.1.5.4 1 .8 1.4 1.3.5.6.3.7 1.1.4-.4-.9-1.3-1.6-2-2.2-.7-.9-1.1-1.9-1.5-2.9zM15.4-.6c-3.3.1-3.1 4.3-2.5 6.5.8 3.2 1.9 6.2 3.7 9l.9-.6c.1 0-1-1.9-1.2-2.1-.9-1.7-1.5-3.4-2-5.2-.5-1.8-1.3-3.7-.2-5.4.3-.5.7-.8 1.3-.8.1-.4 0-1.1 0-1.4zM-18.6 1.8l-.6.5c.8 1.1 1.8 1.4 1.9 2.9 0 1.3-.6 2.5-1.2 3.7-.9 1.7-2.8 3.4-2.8 5.4.4 0 .7.2.7-.2.1-.7.5-1.4.9-2 .5-.8 1.1-1.5 1.5-2.4.7-1.1 1.3-2.5 1.4-3.8.1-.9 0-1.8-.5-2.6-.3-.6-.9-.9-1.3-1.5zM-22.1 10.1c-.5 1.4-2.1 2-2.8 3.3-.4.8-.2 1.8-.7 2.6-.2.3.3.8.6 1.1 1.1-.8.5-2.3 1.3-3.3.9-1.1 2.3-1.9 2.8-3.3-.5-.2-.9-.3-1.2-.4zM-36 1.3c-2.9 2.1.8 4.9 3 5.4.2-.8.1-.6-.7-1-.8-.3-1.5-.8-2.1-1.4-.5-.5-.9-1.2-.4-1.9s.7-.4.2-1.1z"/><path fill-rule="evenodd" clip-rule="evenodd" fill="#CB041B" stroke="#000" stroke-width=".5" stroke-miterlimit="10" d="M1.2 8.7c-.2 0-.3-2.8-.3-3.2-.1-1.8-.4-3.7-.6-5.5h1.2c.5 2.9.8 5.9 1 8.9l-1.3-.2zm-3.7-.1c0-2.8-.2-5.7-.3-8.6h1.2l.1 1.8c.2 2.2.3 4.5.4 6.8h-1.4zm-2.2.1l-1.3.1c0-2.3 0-4.7.1-7v-1.8h1.2v5.6c0 .3.1 3.1 0 3.1zm9.5.4c-.2-3.1-.7-6.1-1.5-9.1h1.1c.3.9.6 1.8.8 2.7.5 2.2.9 4.4 1 6.6-.5 0-1-.1-1.4-.2zm3.7.7c-.2-3.4-1-6.7-2.3-9.8h1v.1c.6 1.1 1 2.2 1.4 3.3.8 2.1 1.2 4.4 1.3 6.6-.5 0-.9-.1-1.4-.2zm-16.7-3.5c0 .6.2 2.7-.3 2.8l-1.2.2c0-2.3.2-4.6.4-7 .1-.7.2-1.5.3-2.3h1.2c-.2 2.1-.3 4.2-.4 6.3zm-3.4-.8c-.1 1.1-.2 2.1-.2 3.2 0 .6.2 1-.5 1.2-.3.1-.6.1-1 .2 0-.7 0-1.2.1-1.5v-.1c.1-1.9.3-3.8.7-5.7.2-.9.4-1.9.7-2.8h1.1c-.5 1.8-.7 3.6-.9 5.5zm-3.7 1.2c-.2 1.3-.3 2.7-.3 4-.2.2-1.1.3-1.4.4-.1-2.6.3-5.2 1.1-7.6.4-1.2.8-2.4 1.4-3.5h.9c-.7 2.2-1.4 4.4-1.7 6.7z"/><path fill-rule="evenodd" clip-rule="evenodd" fill="#F4ED00" stroke="#000" stroke-width=".5" stroke-miterlimit="10" d="M-25.3 17.5c1.3-2.2-1.6-6.2-3.3-3.5-1.4 2.2 1.5 6.3 3.3 3.5.2-.4-.4.5 0 0z"/><path fill-rule="evenodd" clip-rule="evenodd" fill="#F91515" d="M-26 15.6c-.2-1.7-2.2-1.4-2 .3.3 1.8 2.3 1.5 2-.3 0-.4.1.4 0 0z"/><path fill-rule="evenodd" clip-rule="evenodd" fill="#F4ED00" stroke="#000" stroke-width=".5" stroke-miterlimit="10" d="M19.8 13.9c-.2-1.2-1.5-1.9-2.6-1.3-1.1.6-1.7 2.1-1.5 3.3.3 1.2 1.5 1.9 2.6 1.3 1.1-.6 1.7-2 1.5-3.3-.2-.6.1.5 0 0z"/><path fill-rule="evenodd" clip-rule="evenodd" fill="#F91515" d="M18.7 15.3c.6-1.7-1.3-2.3-1.9-.7-.6 1.7 1.2 2.3 1.9.7.1-.4-.2.4 0 0z"/><g fill-rule="evenodd" clip-rule="evenodd"><path fill="#fff" stroke="#009" stroke-width=".75" stroke-miterlimit="10" d="M-6.7 21.4c.4 0 .9.1.7-.5 1.7 0 3.4 0 5.1.2-.2.7.1.6.7.7l.1-.6c.6.1 1.3.2 1.9.2-.3.7 0 .7.6.8 0-.1 0-.6.1-.7l1.9.3c.4.7-.6.6.6.8l.1-.7c.6.1 2 .1 1.8.8-.1.5.1.4.6.5.1-.2.1-.4.2-.7l1.8.6-.2.6c.1.3.4.3.6.4l.2-.6c.6.2 1.2.5 1.8.8-.5.5-.2.6.3.9.1-.2.3-.3.3-.5.8.5 1.5 1.1 2.6 1 1.5-.1 2.9-.9 4.2-1.5 1.1-.4 3.4-.8 3.9-2 .6-1.3-1.2-2.5-2.3-2 .5-1.4-1.1-2.8-2.4-2.1.4-1.4-1.4-2.7-2.6-1.9.3-1.4-1.6-2.6-2.7-1.6.1-1.5-1.8-2.4-2.9-1.4 0-1.5-2.1-2.2-3-1-.2-1.4-2.3-2-3.1-.7-.3-1.5-2.5-1.8-3.2-.5-.4-1.4-2.6-1.5-3.2-.1-.5-1.3-2.8-1.3-3.2.1-.7-1.3-2.8-1-3.2.4-.8-1.3-2.9-.8-3.1.6-.9-1.2-2.9-.6-3.1.8-.9-1.1-2.9-.4-3 1-1-1.1-2.9-.3-2.9 1.2-1-1-3-.1-2.9 1.3-1.1-.9-3 0-2.8 1.4-1.1-.9-2.9.1-2.8 1.5-.1-.7-2.3-.3-2.2.6.1 1 1.8 2 2.5 2.6 1.4 1.1 5.3 4.4 7.1 2.9l.2.3c.4-.3.7-.3.4-.7-.2-.3 1.3-1 1.6-1.1 0 .2.2.3.2.4.5-.2.7-.2.5-.7-.1-.3 1.4-.8 1.7-.9l.2.5.6-.2c.3-.1-.2-.4-.1-.6.3-.1 1.8-.7 1.9-.5.1.4.3.7.8.3l-.1-.6c.6-.2 1.3-.3 1.9-.4l.1.6c.4-.1.7 0 .7-.4-.1-.6 1.4-.5 1.9-.5l.1.6c.5-.1.9 0 .7-.7.4.2 2-.2 1.8.7z"/><path fill="#F2EB00" stroke="#000" stroke-width=".5" stroke-miterlimit="10" d="M-6.5 19.9c.3.3 1.3 1.6 1.6 1.6h3.3c.8 0 1.4-1 1.9-1.5.3-.3.3-2 .1-2.4 0-.2-1.3-1.6-1.6-1.6h-3.3c-.8 0-1.4 1-1.9 1.5-.4.4-.1 1.9-.1 2.4z"/><path fill="#007DA3" d="M-1.6 20.3c.9-.9 1.4-1.7.4-2.7-.5-.5-2.4-.6-3.1-.4-1.3.5-1.1 2-.4 2.7.7.8 2.1.4 3.1.4zm-.6-1.5c-.1.2-1.5.3-1.7.1 0-.2 1.5-.2 1.7-.1z"/></g><path fill-rule="evenodd" clip-rule="evenodd" fill="#D8B444" stroke="#756026" stroke-width=".75" stroke-miterlimit="10" d="M6.1 62.1c1.4-.7 2.8-1.5 3.1-3.2.1-.6.1-1.3.4-1.9.4-.7.9-1.1 1-2 .2-1.9-.5-3.6-1.8-4.9-.9-.7-2.5-2.1-3.8-2.1.8 0 .9-4.7.9-5.2l-.1-5.3v-3c0-1 .2-2.1-.3-3.1-1.2-2.1-3.4-.9-4.6.3-.7-1.5-1.5-1.9-3.1-1.3-1.5.6-1.8 2.4-1.8 3.9.1 3.1.7 6.3.4 9.4-.1 1.2 0 2.6.3 3.8.2.7.4 1.5-.2 2.1-.6.5-1 1-1.5 1.6-1 1.3-2.4 2.4-3.9 3-.8.3-1.7.4-2.6.4-.6 0-1.3-.5-1.9-.3 0 1 .7 1.9 1.4 2.5.8.7 2.1 1 2.8 1.8-2.1 2.1 2.2 4.4 4 3.6-.2 2.8 3.3 2.5 5.1 2.3 1-.1 2.1-.3 3.1-.5.7-.1 1.3-.3 1.9-.7.5-.4.6-.9 1.2-1.2.1-.1-.3.1 0 0z"/><path fill="#756026" d="M4.6 47.9c-.3.4-.1.4.2.6.5.2 1 .7 1.2 1.2.5 1.1.1 2.4-.3 3.5-.5 1.4-1.4 2.4-2.3 3.5-.7 1-2 1.8-2.9 2.6-.9.7-1.8 1.2-2.9 1.7-.6.3-1.2.5-1.8.6-.4.1-.9 0-.7.6 2.1-.1 4.4-1.4 5.9-2.8 1.1-1 2.3-1.8 3.2-3 .8-1.1 1.5-1.8 2-3.1.7-2 .9-4.7-1.6-5.4zM-3 48.8l-.4.3c.5.7 1.5.8 2.3.8.6 0 2.1-.5 2.1.2 0 1.2-.2 3.1-.9 4.1-1.1 1.6-3.4 2.7-5.2 3.4-1 .4-2 .7-3.1.7-.7 0-1.9-1-2.2-.3 1.7 1.3 3.8.8 5.6.1 1.8-.7 3.9-1.7 5.1-3.3.5-.7.7-1.5.8-2.4.1-.8.4-1.7.3-2.5-.1-1.3-3.5.1-4.4-1.1zM.8 31.8c-.3 1.6.1 3.1 0 4.8-.2 2.2-.5 4.3-.2 6.5l.8 3c.1.7 0 1.8.7 2.2.4.2 1.5.4 1.7.1l.2.2c.8-.9.6-2.4.6-3.5 0-1.8 0-3.5-.2-5.3-.4-3.2-1.1-6-3.6-8zm1 13.7c-.6-2-1-3.6-.9-5.7l.4-3.5-.2-3.6c2.9 2.7 3 7.4 3 11 0 .8.3 4.2-.7 4.2-1.9.1-1.2-1.2-1.6-2.4zM-1.4 31.1c-.5 0-1.5.4-1.4 1.1.1.8 1.8.5 1.4-.1l-.4.2v-.2s-.6.1-.6-.1c.2-1.2 3.8 0 1.2 1.2-.9.4-2.1.1-3.1.1 1.2 1.1 2.3 1.2 3.9.8-.5.5-1.5.6-2.1.6-.5 0-1-.6-1.3 0 1.3 1 3.8.5 4.3-1.2-1 0-1.9.5-2.9.3 1 0 2.1-.2 2.6-1.1.5-.9-.7-1.6-1.6-1.6zM3.4 29.9c-1.8 0-2.9 2.4-.7 2.9.8.2 2-.3 1.7-1.3-.2-.7-2-.9-1.7 0 1.3-.6 1.8 1.2.2.9-.9-.2-1.2-.6-.6-1.4.4-.5 1.5-.3 1.3-1 0-.1-.1-.1-.2-.1zM-.9 49.2c-.9.4-1.4 1.4-2.2 2l-1.6 1.2c-.4.3-1.4.7-.9 1.2 1.5-.7 2.9-1.6 3.9-3 .3-.4.4-.9 1-.9.5 0 .4.5.3.8-.5 1.5-2 2.4-3.2 3.2-.6.4-1.2.8-1.9 1.1-.4.2-.7.1-.4.6 2.3-.6 4.7-2.2 6-4.1-.2.6-.5 1.4-1 1.8-.3.3-.8.3-.6.8 1.7-.2 2.9-3.5 2.1-4.8-.2.1-.4.3-.5.5 0-.4-.9-.1-1-.4z"/><path fill-rule="evenodd" clip-rule="evenodd" fill="#fff" stroke="#000" stroke-width=".5" stroke-miterlimit="10" d="M0 50.7c-2.5 1.2-5.3 2-7.9 2.9-1.3.4-2.8.8-4.2.6-.6-.1-1.2-.3-1.7-.7-.6-.5-.9.6-.2 1 2.4 1.4 5.4.4 7.8-.4 1.4-.5 2.9-.9 4.3-1.5l2-.8c.7-.4.7-1.5-.1-1.1-1 .5.1-.1 0 0zM4 51.1l.3.3c.2-.2.3-.6.4-.9.8.9 2.1.5.8-.5.3 0 1.3-.2 1.2-.7-.1-.4-1-.2-1.3-.2.3-1.1-1.4-1.9-1.4-.4-.3-.2-1.4-1-1.8-.7-.4.3 1.3 1.3 1.5 1.4-.2.1-1.4.5-1.3.8.1.3 1.4 0 1.6-.1-.3.4-.2.7 0 1z"/><g fill-rule="evenodd" clip-rule="evenodd" stroke="#000" stroke-width=".5" stroke-miterlimit="10"><path fill="#fff" d="M1.7 52c-.2 1.4 1 .3 1.3-.3.1.4.9 1.5 1.4.9.3-.3-.1-1.1-.2-1.5 1.5-.2 2.1-2.3.1-1.7.2-.3.8-1.9.3-2.2-.6-.2-1.3 1.9-1.4 2.3-.4-.4-.8-1-1.4-1.1-.6-.2.4 1.5.5 1.7-.6 0-1.2.5-1.4 1 .3.2.9 0 1.3 0-.3.3-.4.6-.5.9 0 .4.1-.3 0 0z"/><path fill="#FFFF4A" d="M3.2 50c-.6.1-.6 1.1.1 1 .5 0 .5-1.1-.1-1z"/></g><g fill-rule="evenodd" clip-rule="evenodd" stroke="#000" stroke-width=".5" stroke-miterlimit="10"><path fill="#fff" d="M-.1 52.5c.5.9 1.1-.6 1.2-.9 1.2.9 3.1-.1 1.3-1.1.4-.1 1.9-.8 1.7-1.4-.1-.7-2.3.4-2.5.5 0-.4 0-.9-.1-1.3-.2-1.4-.9.7-1 1.1-.4-.4-1.2-.5-1.7-.3.1.3.6.6.9.9-1.6.3-1.6 1.7.2 1.1-.2.5-.2 1 0 1.4.2.3-.1-.2 0 0z"/><path fill="#FFFF4A" d="M1.4 50.2c-.4-.3-1 .1-.8.6.3.6 1.3-.2.8-.6z"/></g><path fill-rule="evenodd" clip-rule="evenodd" fill="#fff" stroke="#000" stroke-width=".5" stroke-miterlimit="10" d="M5.8 63.2c1.5 0-.5-3.5-.8-3.9-.5-.6-1-1.1-1.7-1.5-.2 0-.7.6-.8.6 1 .5 1.7 1.4 2.3 2.3.3.5.5 2.5 1 2.5zM5.2 55.5c1-.2 2.4.8 3.2 1.4.6.4.8.6 1 1.2.4.7 1.1-.2.8-.8-.6-1.1-2.1-1.7-3.1-2.3-.5-.2-1.2-.7-1.5-.1l-.4.6z"/><path fill-rule="evenodd" clip-rule="evenodd" fill="#F8E8C1" stroke="#000" stroke-width=".75" stroke-miterlimit="10" d="M29.3 7.8c1-2.5 2.1-5.1 2.8-7.8h-9v1.8c.2 2.7 0 5.5-.2 8.2-.1 2.6-1.3 5-1.6 7.6-.4 2.8 1.1 5.6 1.4 8.3l.2 2.2c.2 1.1 2.1-.8 2.1-1.7v-.1c.1.4.3 1.8 1.4 1.8 1.2 0 .5-1.8.3-2.5.6.6 1.2-.1 1.2-.8 0 .6 2.5 1 2-.4.4.8 1 3.4 2.1 3.6.6.1-.7-4-.8-4.4l-1.4-4.4c-.3-1-.5-4.2-2-4.3.2 0-.1-1-.1-1-.2-.7-.2-1.3-.1-2.1.3-1.3 1.2-2.6 1.7-4z"/><path fill-rule="evenodd" clip-rule="evenodd" fill="#1A7C26" d="M35.8 26.1c.3-.6.3-1.5.5-2.1-1.2.3-1.4 1.4-2.1 2.2-.8.9-1.6 1.5-2.6 2.2-1.9 1.2-3.5 1.2-5.3-.2-.8-.6-.9-2.3-1.2-3.2-.3-1-.4-2.1-.4-3.1-.1-1.2-.1-2.3-.1-3.5-.1-1 0-2.4-.3-3.4-.3.1-.6.2-.8.3-.1 0 .1 1.3.1 1.5.1 1.3.2 2.6.2 3.9 0 1.3.1 2.7.4 4l.3 1.2.3 1.2c-.3.1-.5.4-.6.7-.7 1-1.9 1.1-2.7 2-.9 1.1-1.3 2.7-1.4 4.1-.3 2.7-.1 6 .8 8.6l.7-2.3c.1-.5.1-1.3.4-1.7.1.2.2.3.4.4.1-1.1-.6-2.9.1-3.8 0 .3.1.4.4.4.3-1.1.2-2.3.3-3.4l.3.2c.4-.8.3-1.8.4-2.7.1-.9.3-1.3 1.1-1.8.4 1.6.4 3.1.6 4.8.1 1.4 0 2.5 1.4 3.4 2 1.2 3.4-1.4 2-2.9-1-1.1-2.4-2.7-2.7-4.1 1.8 1.3 3.7 2.1 5.9 1.2 1.6-.8 2.8-2.3 3.6-4.1 0-.1-.3.7 0 0z"/><path fill-rule="evenodd" clip-rule="evenodd" fill="#C51C1E" stroke="#000" stroke-width=".5" stroke-miterlimit="10" d="M33.1 38c.3-.5.5-.9.7-1.4-.2-.3-.1-.5.1-.7-.4-.2-.3-.5 0-.7-.5-.1-.5-.3-.2-.6-.5 0-.6-.2-.3-.6-.4 0-.8 0-.6-.5-.3.1-.8.1-.7-.4-.2.1-.8.5-.7-.1-.3.2-.6.3-.5-.2-.2.2-.8.9-.9.2-.4.4-.6.4-.7-.2-.2.3-.6 1.1-1 .5-.2.7-.6.3-.9 0 0 .5-.1 1-.8.7.1.7-.7.4-1 .2.3.5.1.8-.4.7.3.5-.7.4-.9.4.4.3.3.5-.2.6.4.3-.5.5-.6.5.4.3.3.6-.1.8.5.2 0 .6-.3.8.4.1.7.3.3.7.5 0 .5.3.2.7.3 0 .6.1.6.5.3 0 .5.1.6.4.4 0 .8.2 1.1.3.6.1 1.2.2 1.8.1 2.1-.1 4.1-1.3 5.4-2.7.2-.3-.4.5 0 0z"/><path d="M30 36.3c-.3.9-.7 1.2-1.6 1.5-.9.2-.9-.1-1.4.7 1.4.9 3.3-.7 3.7-1.9-.3-.2-.5-.3-.7-.3zM32.1 36c-.3.4-.6.8-1 1-.7.3-1.6.2-2.2.6l-.9 1.1c-.5.4-1.1.6-1.6.8.4.9.5.6 1.4.2.5-.2.9-.6 1.2-1 .2-.2.2-.5.5-.6.8-.3 1.6-.2 2.3-.7.3-.2.6-.5.8-.9.2-.2-.3-.4-.5-.5zM28.7 38.1c-.5.8-.1 1.6-.1 2.5 0 1.4-.5 2.7-1 3.9.6.3.4.3.8 0 .5-1.1.8-2.2.9-3.3.1-.7.1-1.6-.1-2.3.1-.6 0-.5-.5-.8zM30.7 37.2c-.6 2.4.9 3.7 2.9 4.7.1-.1.3-.5.3-.7-.1-.2-1.3-.7-1.5-.9-1-.8-1.3-1.8-1-3l-.7-.1zM29.8 37.8l-.6.4c1.2 1.9 1.2 3.9.6 5.9l.7.2c.6-2.3.6-4.5-.7-6.5z"/><g fill-rule="evenodd" clip-rule="evenodd" fill="#F8E8C1" stroke="#000" stroke-width=".5" stroke-miterlimit="10"><path d="M27.1 26.6c-.2-.6-.4-1-.7-1.5-.2-.5-.2-1.2-.5-1.6-.2-.3-.8-.6-1.1-.2-.2.4-.1 1.1-.1 1.6-.1 1 .5 1.8 1.1 2.6.9 1.3 1.7.5 1.3-.9 0-.1.1.4 0 0zM27.7 26c.9-.5 0-2.3-.3-3-.1-.3-.6-3.3-1.4-2.1-.3.6-.5 2-.3 2.6.3.7 1.2 3 2 2.5.2-.1-.2.2 0 0zM29.6 23.9c-.3-.7-.3-1.8-.9-2.4-1.1-1.2-1 1.2-.9 1.7.1.5.5 2.6 1.3 2.5 1.2-.2.8-1 .5-1.8z"/></g><path fill-rule="evenodd" clip-rule="evenodd" fill="#F4ED00" stroke="#000" stroke-width=".5" stroke-miterlimit="10" d="M26.6 8.7v-.2c.1.3-.1.7.1 1 .4.7 1.2-.2 1.3-.7 0 .3.1 1.4.7 1.1.3-.2.5-1 .7-1.4.1-.1.6-1 .3-1.1-.5-.2-1.2 0-1.7 0-1.4.1-2.8-.2-4.2 0-.8.1-1-.1-1 .8 0 .2-.4 1.5-.2 1.7.3.2.7-.6.7-.8l.1-.3c-.1-.9 0 .6.3.9.8.8 1.4-.5 1.5-1.2-.2 1.5 1 1.4 1.4.2z"/></symbol><use xlink:href="#b" width="100" height="150" x="-50" y="-75" transform="matrix(1 0 0 -1 50 75)" overflow="visible"/><g><g><use xlink:href="#c" width="9.9" height="9.9" x="-4.9" y="-4.9" transform="matrix(-1 0 0 1 89 122)" overflow="visible"/><use xlink:href="#c" width="9.9" height="9.9" x="-4.9" y="-4.9" transform="matrix(-1 0 0 1 11 122)" overflow="visible"/><use xlink:href="#c" width="9.9" height="9.9" x="-4.9" y="-4.9" transform="matrix(1 0 0 -1 89 28)" overflow="visible"/><use xlink:href="#c" width="9.9" height="9.9" x="-4.9" y="-4.9" transform="matrix(1 0 0 -1 11 28)" overflow="visible"/><use xlink:href="#d" width="5.6" height="12" x="-2.8" y="-6" transform="matrix(-1 0 0 1 90 136)" overflow="visible"/><use xlink:href="#d" width="5.6" height="12" x="-2.8" y="-6" transform="matrix(-1 0 0 1 10 136)" overflow="visible"/><use xlink:href="#d" width="5.6" height="12" x="-2.8" y="-6" transform="matrix(1 0 0 -1 90 14)" overflow="visible"/><use xlink:href="#d" width="5.6" height="12" x="-2.8" y="-6" transform="matrix(1 0 0 -1 10 14)" overflow="visible"/><use xlink:href="#e" width="81" height="65.6" x="-40.5" y="-.7" transform="matrix(-1 0 0 1 50 75)" overflow="visible"/><use xlink:href="#e" width="81" height="65.6" x="-40.5" y="-.7" transform="matrix(1 0 0 -1 50 75)" overflow="visible"/><use xlink:href="#f" width="82" height="132" x="-41" y="-66" transform="matrix(1 0 0 -1 50 75)" overflow="visible"/><use xlink:href="#a" width="15.2" height="15.2" x="-7.6" y="-7.6" transform="matrix(-1 0 0 1 77 128)" overflow="visible"/><use xlink:href="#a" width="15.2" height="15.2" x="-7.6" y="-7.6" transform="matrix(1 0 0 -1 23 22)" overflow="visible"/></g></g></svg>