<svg xmlns="http://www.w3.org/2000/svg" xmlns:xlink="http://www.w3.org/1999/xlink" viewBox="0 0 100 150" enable-background="new 0 0 100 150"><symbol id="e" viewBox="-2.6 -6.1 5.1 12.2"><path fill-rule="evenodd" clip-rule="evenodd" d="M.6-.6c-.2.2-.4.3-.6.3-.2 0-.4-.1-.6-.3-.2-.2-.3-.4-.3-.6v-2.4c0-.2.1-.4.3-.6.2-.1.4-.2.6-.2s.4.1.6.3c.2.1.3.3.3.6v2.4c0 .2-.1.4-.3.5zm.3 4.1c0 .3-.1.5-.3.6-.2.2-.4.3-.6.3s-.4-.1-.6-.3c-.2-.1-.3-.3-.3-.6v-1.7c0-.3.1-.5.3-.6.2-.2.4-.2.6-.2s.4 0 .6.2c.2.1.3.3.3.6v1.7zm1.7-.6v-1.1c0-.3-.1-.6-.2-.8-.2-.3-.4-.5-.7-.7.3-.2.5-.4.6-.6.1-.2.2-.5.2-.9.1-.4.1-.9 0-1.4v-1.1c0-.3-.1-.5-.1-.7-.1-.3-.2-.5-.3-.6-.2-.3-.5-.6-.8-.8-.4-.2-.8-.3-1.3-.3s-.9.1-1.3.3c-.3.2-.6.5-.8.8l-.3.5c-.1.2-.1.4-.1.7v2.5c0 .4.1.7.2.9.1.3.3.5.6.7-.3.2-.5.4-.6.7-.1.2-.2.5-.2.8-.1.3-.1.7 0 1.1v1.1c.1.3.1.5.2.7.1.1.2.3.3.5.3.3.5.6.8.7.4.1.8.2 1.2.2.4 0 .8-.1 1.1-.2.3-.2.6-.4.9-.7l.3-.6c.1-.2.2-.4.2-.7 0-.3.1-.6.1-1z"/></symbol><symbol id="a" viewBox="-4.9 -10.1 9.8 20.2"><path fill-rule="evenodd" clip-rule="evenodd" fill="#009C22" d="M0-1.3c3.1 0 4.7-1.6 4.7-3 0-2.6-2.6-3.9-3.5-4.2-1.1-.4-1.2-1.4-1.2-1.4s-.1 1-1.3 1.5c-.9.3-3.5 1.6-3.5 4.2.1 1.3 1.7 2.9 4.8 2.9z"/><path fill-rule="evenodd" clip-rule="evenodd" fill="#006F20" d="M0-1.3v-8.6s-.1 1-1.3 1.5c-.9.3-3.5 1.6-3.5 4.2.1 1.3 1.7 2.9 4.8 2.9z"/><path fill-rule="evenodd" clip-rule="evenodd" fill="#F40D1D" d="M3.5-2.2h-7v8.7l3.5 3.4 3.5-3.4z"/><path fill-rule="evenodd" clip-rule="evenodd" fill="#AC0019" d="M0-2.2h-3.5v8.7l3.5 3.4z"/><path stroke="#000" stroke-width=".35" stroke-linecap="round" stroke-linejoin="round" stroke-miterlimit="10" fill="none" d="M0-9.9v6.9M0 9.9v-11.8"/><path fill-rule="evenodd" clip-rule="evenodd" fill="#fe0" d="M3.5-1.2v-1.1c-.8-.4-2.1-.7-3.5-.7s-2.7.3-3.5.7v1.1c.8-.4 2-.7 3.5-.7s2.7.3 3.5.7z"/><path clip-rule="evenodd" stroke="#000" stroke-width=".35" stroke-linecap="round" stroke-linejoin="round" stroke-miterlimit="10" d="M-3.5-2.2v8.7l3.5 3.4 3.5-3.5v-8.7c.8-.6 1.3-1.3 1.3-2 0-2.6-2.6-3.9-3.5-4.2-1.2-.4-1.3-1.4-1.3-1.4s-.1 1-1.3 1.5c-.9.3-3.5 1.6-3.5 4.2.1.6.5 1.4 1.3 2z" fill="none"/><path clip-rule="evenodd" stroke="#000" stroke-width=".25" stroke-linecap="round" stroke-miterlimit="10" d="M3.5-2.3c-.8-.4-2.1-.7-3.5-.7s-2.7.3-3.5.7" fill="none"/></symbol><symbol id="d" viewBox="-3.2 -6.6 6.5 13.1"><path fill-rule="evenodd" clip-rule="evenodd" fill="#F40D1D" d="M-2.2-3h4.4v7.2l-2.2 2.2-2.2-2.2z"/><path fill-rule="evenodd" clip-rule="evenodd" fill="#009C22" d="M0-.8c-2 0-3.1-1-3.1-1.9 0-1.7 1.7-2.5 2.2-2.7.7-.3.8-1 .8-1s.1.7.8 1c.6.2 2.2 1 2.2 2.7.2.8-.9 1.9-2.9 1.9z"/><path fill-rule="evenodd" clip-rule="evenodd" fill="#fe0" d="M-2.2 0v-1.4c.6-.3 1.3-.5 2.2-.5s1.6.2 2.2.4v1.5c-.6-.3-1.3-.5-2.2-.5s-1.6.2-2.2.5z"/><path clip-rule="evenodd" stroke="#000" stroke-width=".35" stroke-linecap="round" stroke-linejoin="round" stroke-miterlimit="10" d="M2.2-1.4v5.6l-2.2 2.2-2.2-2.2v-5.6c-.5-.4-.8-.9-.8-1.3 0-1.7 1.7-2.5 2.2-2.7.7-.3.8-1 .8-1s.1.7.8 1c.6.2 2.2 1 2.2 2.7.1.4-.2.9-.8 1.3z" fill="none"/></symbol><symbol id="f" viewBox="-33.1 3 66.2 56.8"><g clip-rule="evenodd"><path fill-rule="evenodd" fill="#06f" d="M-2 57.4v1.6l1.9.6v-17l-1.3 4.8.6 1.3h-1.2l-.3 2.8.9 1.9h-1.1l-.4 3.4z"/><path stroke="#000" stroke-width=".35" stroke-linecap="round" stroke-linejoin="round" stroke-miterlimit="3" fill="none" d="M-2 57.4v1.6l1.9.6v-17l-1.3 4.8.6 1.3h-1.2l-.3 2.8.9 1.9h-1.1l-.4 3.4z"/></g><g clip-rule="evenodd"><path fill-rule="evenodd" fill="#0041A2" d="M1.9 59v-1.6l.8-.6-.3-3.4h-1.2l1-1.9-.3-2.8h-1.2l.6-1.3-1.4-4.8v17z"/><path stroke="#000" stroke-width=".35" stroke-linecap="round" stroke-linejoin="round" stroke-miterlimit="3" fill="none" d="M1.9 59l-2 .6v-17l1.4 4.8-.6 1.3h1.2l.3 2.8-1 1.9h1.2l.3 3.4-.8.6z"/></g><path fill-rule="evenodd" clip-rule="evenodd" fill="#f00" d="M0 40.5v-.3.3c.4 1.2 1.4 2.1 3 2.7 1.8.7 4.4 1 7.9 1 .1 0 .1-.2 0-.8-3.9 0-6.6-.4-8-1.1-.9-.5-1.6-1.1-2.2-2-.3-.4-.5-.8-.6-1.1 0 .5-.1.8-.1 1 0-.2 0-.5-.1-1-.1.3-.3.7-.6 1.1-.6.9-1.3 1.5-2.2 2-1.4.7-4.1 1.1-8 1.1-.1.6-.1.8 0 .8 3.5 0 6.1-.3 7.9-1 1.6-.6 2.6-1.5 3-2.7zm-1.6-6.3c.8-.5 1.4-1.2 1.6-2 .4 1.2 1.4 2.1 3 2.7 1.8.7 4.4 1 7.9 1 .1 0 .1-.2 0-.8-3.9 0-6.6-.4-8-1.1-.9-.5-1.6-1.1-2.2-2-.3-.4-.5-.8-.6-1.1 0 .5-.1.8-.1 1 0-.2 0-.5-.1-1-.1.3-.3.7-.6 1.1-.3.4-.6.8-.9 1.1l-1.2.9c-.2 0-.3.1-.4.1-1.5.6-4.1.9-7.6.9-.1.6-.1.8 0 .8 3.3 0 5.9-.3 7.6-.9.1 0 .2-.1.2-.1.5-.1 1-.3 1.4-.6zm1.6-2v-.3.3zm-10.9-12.9c3.5 0 6.1-.3 7.9-1 1.6-.6 2.6-1.5 3-2.7.4 1.2 1.4 2.1 3 2.7 1.8.7 4.4 1 7.9 1 .1 0 .1-.2 0-.8-3.9 0-6.6-.4-8-1.1-.9-.5-1.6-1.1-2.2-2-.3-.4-.5-.8-.6-1.1 0 .5-.1.8-.1 1 0-.2 0-.5-.1-1-.1.3-.3.7-.6 1.1-.6.9-1.3 1.5-2.2 2-1.4.7-4.1 1.1-8 1.1v.8zm0 8.3c3.5 0 6.1-.3 7.9-1 1.6-.6 2.6-1.5 3-2.7.4 1.2 1.4 2.1 3 2.7 1.8.7 4.4 1 7.9 1 .1 0 .1-.2 0-.8-3.9 0-6.6-.4-8-1.1-.9-.5-1.6-1.1-2.2-2-.3-.4-.5-.8-.6-1.1 0 .5-.1.8-.1 1 0-.2 0-.5-.1-1-.1.3-.3.7-.6 1.1-.6.9-1.3 1.5-2.2 2-1.4.7-4.1 1.1-8 1.1v.8zm10.9-3.6v-.3.3zm0-8.3v-.3.3z"/><path clip-rule="evenodd" stroke="#000" stroke-width=".35" stroke-linecap="round" stroke-linejoin="round" stroke-miterlimit="3" d="M0 40.5v-.3c0-.2.1-.5.1-1 .1.3.3.7.6 1.1.6.9 1.3 1.5 2.2 2 1.4.7 4.1 1.1 8 1.1.1.6.1.8 0 .8-3.5 0-6.1-.3-7.9-1-1.6-.6-2.6-1.5-3-2.7zm0-.4c0-.2 0-.5-.1-1-.1.3-.3.7-.6 1.1-.6.9-1.3 1.5-2.2 2-1.4.7-4.1 1.1-8 1.1-.1.6-.1.8 0 .8 3.5 0 6.1-.3 7.9-1 1.6-.6 2.6-1.5 3-2.7m-1.6-6.2c.8-.5 1.4-1.2 1.6-2 .4 1.2 1.4 2.1 3 2.7 1.8.7 4.4 1 7.9 1 .1 0 .1-.2 0-.8-3.9 0-6.6-.4-8-1.1-.9-.5-1.6-1.1-2.2-2-.3-.4-.5-.8-.6-1.1 0 .5-.1.8-.1 1 0-.2 0-.5-.1-1-.1.3-.3.7-.6 1.1-.3.4-.6.8-.9 1.1l-1.2.9c-.2 0-.3.1-.4.1-1.5.6-4.1.9-7.6.9-.1.6-.1.8 0 .8 3.3 0 5.9-.3 7.6-.9.1 0 .2-.1.2-.1.5-.1 1-.3 1.4-.6zm1.6-2v-.3m-10.9-12.6c3.5 0 6.1-.3 7.9-1 1.6-.6 2.6-1.5 3-2.7.4 1.2 1.4 2.1 3 2.7 1.8.7 4.4 1 7.9 1 .1 0 .1-.2 0-.8-3.9 0-6.6-.4-8-1.1-.9-.5-1.6-1.1-2.2-2-.3-.4-.5-.8-.6-1.1 0 .5-.1.8-.1 1 0-.2 0-.5-.1-1-.1.3-.3.7-.6 1.1-.6.9-1.3 1.5-2.2 2-1.4.7-4.1 1.1-8 1.1v.8zm0 8.3c3.5 0 6.1-.3 7.9-1 1.6-.6 2.6-1.5 3-2.7.4 1.2 1.4 2.1 3 2.7 1.8.7 4.4 1 7.9 1 .1 0 .1-.2 0-.8-3.9 0-6.6-.4-8-1.1-.9-.5-1.6-1.1-2.2-2-.3-.4-.5-.8-.6-1.1 0 .5-.1.8-.1 1 0-.2 0-.5-.1-1-.1.3-.3.7-.6 1.1-.6.9-1.3 1.5-2.2 2-1.4.7-4.1 1.1-8 1.1v.8zm10.9-3.6v-.3m0-8v-.3" fill="none"/><path fill-rule="evenodd" clip-rule="evenodd" fill="#F40D1D" d="M.9 4.3h-1.8v35.2l.9 4.5.9-4.5v-35.2zm-.9 39.7v-39.7 39.7z"/><path stroke="#000" stroke-width=".15" stroke-miterlimit="10" d="M0 4.2h-.9s-.1 0-.1.1v35.2l.8 4.6h.2l.9-4.5v-35.2s0-.1-.1-.1h-.8v-.1zm.1.1h.7v35.1l-.8 3.7.1-38.8zm-.9 0h.7v38.7l-.6-3.6-.1-35.1z"/><path fill-rule="evenodd" clip-rule="evenodd" fill="#06f" d="M-3.1 29.1l2-4-2.8 2.4-1.5 2.7.9.8v.8l1.4.4z"/><path d="M-3.1 32.2v-3.1l2-4-2.8 2.4-1.4 2.7.8.8v.8l1.4.4m0 .4l-1.5-.4c-.1 0-.3-.2-.3-.3v-.6l-.7-.7c-.1-.1-.1-.3-.1-.4l1.4-2.7s0-.1.1-.1l2.8-2.4c.1-.1.1-.1.2-.1s.1 0 .2.1.2.3.1.4l-1.9 4v3l-.1.3c-.1-.1-.1-.1-.2-.1z"/><path fill-rule="evenodd" clip-rule="evenodd" fill="#06f" d="M1.2 25.1l1.9 4v3.1l1.5-.4v-.8l.8-.8-1.4-2.7z"/><path d="M3.1 32.2l1.4-.4v-.8l.8-.8-1.3-2.7-2.8-2.4 2 4v3.1m-.1.4c-.1 0-.1 0-.2-.1s-.1-.2-.1-.3v-3l-1.9-4c-.1-.1 0-.3.1-.4l.2-.1c.1 0 .2 0 .2.1l2.8 2.4.1.1 1.4 2.7c.1.1 0 .3-.1.4l-.7.7v.6c0 .2-.1.3-.3.3l-1.5.6z"/><path fill-rule="evenodd" clip-rule="evenodd" fill="#06f" d="M-1.9 5.2l.7 2 1.1 1.5 1.3-1.5.7-2-1.9.6-1.6-.5z"/><path fill-rule="evenodd" clip-rule="evenodd" fill="#9f0" d="M1.9 5.2l-1.9-2-1.9 2 .3.1 1.6.5z"/><path clip-rule="evenodd" stroke="#000" stroke-width=".35" stroke-linecap="round" stroke-linejoin="round" stroke-miterlimit="3" d="M1.9 5.2l-.7 2-1.3 1.5-1.1-1.5-.7-2m3.8 0l-2-2-1.9 2" fill="none"/><path fill-rule="evenodd" clip-rule="evenodd" fill="#9f0" d="M5.7 25.5l.2-.9.3-.3-.1-1.3-1.7 1.3-2.7.3 2.1 1.1z"/><path d="M3.8 25.7l1.9-.1.2-1 .4-.3-.2-1.3-1.7 1.3-2.8.3 2.2 1.1m0 .3h-.2l-2.2-1c-.1-.1-.2-.2-.2-.4s.2-.3.3-.3l2.8-.3 1.6-1.3c.1-.1.1-.1.2-.1h.1c.1 0 .2.2.2.3l.2 1.3c0 .1 0 .2-.1.3l-.3.2-.2.9c0 .2-.2.3-.3.3l-1.9.1z"/><path fill-rule="evenodd" clip-rule="evenodd" fill="#9f0" d="M-5.7 25.6l2 .1 2.1-1-2.7-.4-1.7-1.3-.2 1.3.4.4z"/><path d="M-3.7 25.7l2.2-1-2.8-.4-1.7-1.3-.2 1.3.4.4.2.9 1.9.1m0 .4l-2-.1c-.2 0-.3-.1-.3-.3l-.1-.8-.3-.3c-.1-.1-.1-.2-.1-.3l.2-1.3c0-.1.1-.2.2-.3h.1c.1 0 .2 0 .2.1l1.6 1.3 2.7.4c.2 0 .3.1.3.3 0 .2-.1.3-.2.4l-2.2 1c0-.1-.1-.1-.1-.1z"/><path fill-rule="evenodd" clip-rule="evenodd" fill="#9f0" d="M4 14.7l-2.3 1.3 2.1 1.2 1.9-.1.2-1.1.4-.4-.3-3.9z"/><path d="M3.8 17.2l1.9-.1.2-1.1.4-.4-.3-3.9-2 3-2.3 1.3 2.1 1.2m0 .3h-.2l-2.1-1.2c-.1-.1-.2-.2-.2-.3 0-.1.1-.2.2-.3l2.3-1.3 2-2.9c.1-.1.2-.2.3-.2h.1c.1 0 .2.2.3.3l.3 3.9c0 .1 0 .2-.1.3l-.3.3-.2 1c0 .2-.2.3-.3.3l-2.1.1z"/><path fill-rule="evenodd" clip-rule="evenodd" fill="#9f0" d="M-4 14.7l-2-3-.2 4 .4.4.2 1.1 1.9.1 2.1-1.2z"/><path d="M-3.7 17.3l2.1-1.2-2.4-1.4-2-3-.2 4 .4.4.2 1.1 1.9.1m0 .3l-1.9-.1c-.2 0-.3-.1-.3-.3l-.2-1-.3-.3c-.1-.1-.1-.2-.1-.3l.2-4c0-.2.1-.3.3-.3h.1c.1 0 .2.1.3.2l2 2.9 2.3 1.3c.1.1.2.2.2.3 0 .1-.1.2-.2.3l-2.1 1.2c-.2.1-.3.1-.3.1z"/><path fill-rule="evenodd" clip-rule="evenodd" fill="#9f0" d="M4.4 40.9l-2.7.3 2.1 1 1.9-.1.2-.9.4-.4-.2-1.3z"/><path d="M3.8 42.2l1.9-.1.2-1 .4-.3-.2-1.3-1.7 1.4-2.8.3 2.2 1m0 .4h-.2l-2.1-1c-.1-.1-.2-.2-.2-.4s.2-.3.3-.3l2.6-.3 1.6-1.3c.1-.1.1-.1.2-.1h.1c.1 0 .2.1.2.3l.2 1.3c0 .1 0 .2-.1.3l-.3.3-.1.8c0 .2-.2.3-.3.3l-1.9.1z"/><path fill-rule="evenodd" clip-rule="evenodd" fill="#9f0" d="M-4.3 40.9l-1.7-1.4-.2 1.4.4.4.1.9 2 .1 2.1-1z"/><path d="M-3.7 42.3l2.2-1-2.8-.4-1.7-1.4-.2 1.3.4.4.2.9 1.9.2m0 .3l-1.9-.1c-.2 0-.3-.1-.3-.3l-.1-.8-.3-.3c-.1-.1-.1-.2-.1-.3l.2-1.3c0-.1.1-.2.2-.3h.1c.1 0 .2 0 .2.1l1.6 1.3 2.7.4c.2 0 .3.1.3.3 0 .2-.1.3-.2.4l-2.2 1c-.1-.1-.2-.1-.2-.1z"/><path fill-rule="evenodd" clip-rule="evenodd" fill="#9f0" d="M-1 38.2v.2l1 5.7 1.1-5.9-1.1-.8z"/><path d="M0 44.1l1.1-6-1-.8-1.1.9v.2l1 5.7m0 .4c-.2 0-.3-.1-.3-.3l-1-5.8v-.2c0-.1 0-.3.1-.3l1.1-.8.2-.1c.1 0 .1 0 .2.1l1 .8c.1.1.2.2.1.3l-1.1 6c0 .2-.2.3-.3.3z"/><path fill-rule="evenodd" clip-rule="evenodd" fill="#06f" d="M1.4 20.6l-1.4.8-1.1-.6h-.1l-.2-.2.5 2.7.9 2 .9-2z"/><path fill-rule="evenodd" clip-rule="evenodd" fill="#9f0" d="M1.4 20.6l-1.4-2.7-1.4 2.7.2.2h.1l1.1.6z"/><path clip-rule="evenodd" stroke="#000" stroke-width=".35" stroke-linecap="round" stroke-linejoin="round" stroke-miterlimit="3" d="M1.4 20.6l-.5 2.7-1 2-.9-2-.5-2.7m2.9 0l-1.4-2.7-1.4 2.7" fill="none"/><use xlink:href="#a" width="9.8" height="20.2" x="-4.9" y="-10.1" transform="matrix(0 1.15 1.15 0 21.5 18.674)" overflow="visible"/><use xlink:href="#a" width="9.8" height="20.2" x="-4.9" y="-10.1" transform="matrix(0 1.15 1.15 0 21.5 26.924)" overflow="visible"/><use xlink:href="#a" width="9.8" height="20.2" x="-4.9" y="-10.1" transform="matrix(0 1.15 1.15 0 21.5 35.174)" overflow="visible"/><use xlink:href="#a" width="9.8" height="20.2" x="-4.9" y="-10.1" transform="matrix(0 1.15 1.15 0 21.5 43.424)" overflow="visible"/><use xlink:href="#a" width="9.8" height="20.2" x="-4.9" y="-10.1" transform="matrix(0 1.15 -1.15 0 -21.5 18.674)" overflow="visible"/><use xlink:href="#a" width="9.8" height="20.2" x="-4.9" y="-10.1" transform="matrix(0 1.15 -1.15 0 -21.5 26.924)" overflow="visible"/><use xlink:href="#a" width="9.8" height="20.2" x="-4.9" y="-10.1" transform="matrix(0 1.15 -1.15 0 -21.5 35.174)" overflow="visible"/><use xlink:href="#a" width="9.8" height="20.2" x="-4.9" y="-10.1" transform="matrix(0 1.15 -1.15 0 -21.5 43.424)" overflow="visible"/></symbol><symbol viewBox="-6.7 -8.5 13.4 17"><path fill-rule="evenodd" clip-rule="evenodd" fill="#009915" d="M0 8.3c1.5-1.4 2.4-2.2 2.5-2.5.4-.8.5-1.8.3-3l1.2 1.7.8-1.1c.5-.8.8-1.4.9-1.8.2-.9-.1-2-.9-3.3l1.6.9c.1-2.4-.1-4-.4-4.7-.3-.6-1.1-1-2.3-1.2l1.8-.6c-.8-.7-1.8-1-2.8-1-.1 0-.4.3-1 .8-.4.4-.8.3-1.2-.3h-1c-.4.6-.8.6-1.2.2-.6-.6-.9-.8-1-.8-1 0-2 .4-2.9 1.1l1.8.6c-1.2.2-2 .6-2.3 1.3-.2.5-.4 1.4-.4 2.8v2l1.6-.9c-.8 1.3-1 2.4-.9 3.3.1.4.4 1 .9 1.8.3.4.6.7.8 1.1l1.2-1.7c-.1 1 0 2 .4 2.8.1.3 1 1.1 2.5 2.5z"/><path fill-rule="evenodd" clip-rule="evenodd" fill-opacity=".298" d="M-4.9 3.5c.3.4.6.7.8 1.1l1.2-1.7c-.1 1.1 0 2.1.4 2.9.2.3 1 1.2 2.6 2.5v-16h-.5c-.4.5-.8.6-1.2.2-.6-.5-.9-.8-1-.8-1 0-2 .4-2.9 1.1l1.8.6c-1.2.2-2 .6-2.3 1.3-.3.4-.5 1.3-.5 2.7v2l1.6-.9c-.8 1.3-1 2.4-.9 3.3.1.3.4.9.9 1.7z"/><path clip-rule="evenodd" stroke="#000" stroke-width=".031" stroke-linecap="round" stroke-linejoin="round" stroke-miterlimit="3" d="M-4.9 3.5c-.5-.8-.8-1.4-.9-1.8-.2-.9.1-2 .9-3.3l-1.6.9v-2c0-1.3.2-2.2.4-2.7.4-.7 1.1-1.2 2.3-1.3l-1.8-.6c.9-.7 1.9-1 2.9-1 .1 0 .4.3 1 .8.4.4.8.3 1.2-.2h.5v16c-1.5-1.4-2.4-2.2-2.6-2.5-.3-.8-.4-1.8-.3-3l-1.2 1.7c-.2-.3-.5-.7-.8-1z" fill="none"/><path clip-rule="evenodd" stroke="#151215" stroke-width=".35" d="M0 8.3c-1.5-1.4-2.4-2.2-2.6-2.5-.3-.8-.4-1.8-.3-3l-1.2 1.7c-.2-.3-.5-.7-.8-1.1-.5-.8-.8-1.4-.9-1.8-.2-.9.1-2 .9-3.3l-1.6.9v-2c0-1.2.2-2.1.4-2.6.4-.7 1.1-1.2 2.3-1.3l-1.8-.6c.9-.7 1.9-1 2.9-1 .1 0 .4.3 1 .8.4.4.8.3 1.2-.2h1c.4.6.8.6 1.2.2.6-.6.9-.8 1-.8 1 0 2 .4 2.9 1.1l-1.9.5c1.2.2 2 .6 2.3 1.3.4.7.5 2.3.4 4.7l-1.5-.9c.8 1.3 1 2.4.9 3.3-.1.4-.4 1-.9 1.8l-.8 1-1.3-1.7c.2 1.2.1 2.2-.3 3-.1.3-1 1.1-2.5 2.5z" fill="none"/></symbol><symbol viewBox="-8.2 -7.9 16.3 15.8"><path fill-rule="evenodd" clip-rule="evenodd" fill="#E61616" d="M6.5 6.8c1.1-.8 1.6-2 1.5-3.6-.1-1.6-.7-3-2-4.4-1.2-1.4-3.2-3.5-6-6.4-2.8 2.9-4.8 5.1-6 6.4-1.2 1.4-1.9 2.9-2 4.4-.1 1.6.4 2.8 1.5 3.6 1 .8 2.1 1.1 3.3.8 1.2-.1 2.3-.8 3.2-1.8 1 1 2 1.7 3.2 1.8 1.2.3 2.3 0 3.3-.8z"/><path fill-rule="evenodd" clip-rule="evenodd" fill-opacity=".298" d="M0-7.6v13.4c1 1 2 1.6 3.2 1.8 1.2.2 2.3-.1 3.3-.8 1.1-.8 1.6-2 1.5-3.6-.1-1.6-.7-3-2-4.4-1.2-1.4-3.2-3.5-6-6.4z"/><path clip-rule="evenodd" stroke="#151215" stroke-width=".1" stroke-linecap="round" stroke-linejoin="round" stroke-miterlimit="3" d="M0-7.6c2.8 2.9 4.8 5.1 6 6.4 1.2 1.4 1.9 2.9 2 4.4.1 1.6-.4 2.8-1.5 3.6-1 .8-2.1 1.1-3.3.8-1.2-.2-2.2-.8-3.2-1.8v-13.4z" fill="none"/><path clip-rule="evenodd" stroke="#151215" stroke-width=".35" d="M6.5 6.8c-1 .8-2.1 1.1-3.3.8-1.2-.1-2.2-.8-3.2-1.8-.9 1.1-2 1.7-3.2 1.9-1.2.2-2.3-.1-3.3-.8-1.1-.9-1.6-2.1-1.5-3.7.1-1.6.8-3 2-4.4 1.2-1.4 3.2-3.5 6-6.4 2.8 2.9 4.8 5.1 6 6.4 1.2 1.4 1.9 2.9 2 4.4.1 1.6-.4 2.8-1.5 3.6z" fill="none"/></symbol><symbol id="c" viewBox="-49 -74 98 148"><path fill="#F0F7E6" d="M48-68.5c0-3-2.5-5.5-5.5-5.5h-86c-3 0-5.5 2.5-5.5 5.5v136c0 3 2.5 5.5 5.5 5.5h86c3 0 5.5-2.5 5.5-5.5v-136z"/><path fill="#000" d="M43 73c2.8 0 5-2.2 5-5v-136c0-2.8-2.2-5-5-5h-86c-2.8 0-5 2.2-5 5v136c0 2.8 2.2 5 5 5h86m0 1h-86c-3.3 0-6-2.7-6-6v-136c0-3.3 2.7-6 6-6h86c3.3 0 6 2.7 6 6v136c0 3.3-2.7 6-6 6z"/></symbol><symbol id="g" viewBox="-41 -66 82 132"><g><g fill-rule="evenodd" clip-rule="evenodd"><path d="M33 66h-66v-1h66zM33-65h-66v-1h66zM-41 37h1v-88h-1zM41-37h-1v88h1zM40-.5h-80v1h80z"/></g></g></symbol><symbol viewBox="-7.7 -10.4 15.4 20.8"><g clip-rule="evenodd"><path fill-rule="evenodd" fill="#fe0" d="M0-5.9l-.4.2-.6-2.1 1-.9 1 .8-.6 2.1-.4-.1zm3-.3l-1.5.2.9-2.1-1.5-1-.9-1-.9 1-1.5 1 .9 2.1-1.5-.2 3 2.2 3-2.2z"/><path stroke="#222123" stroke-width=".35" d="M3-6.2l-3 2.2-3-2.2 1.5.2-.9-2.1 1.5-1 .9-1 .9 1 1.5 1-.9 2.1 1.5-.2zm-3 .3l.4.2.6-2.2-1-.8-1.1.8.6 2.1.5-.1z" fill="none"/></g><use xlink:href="#b" width="15.4" height="15.4" x="-7.7" y="-7.7" transform="translate(0 2.703)" overflow="visible"/></symbol><symbol id="b" viewBox="-7.7 -7.7 15.4 15.4"><path fill-rule="evenodd" clip-rule="evenodd" fill="#F40D1D" d="M6.8 3.3c.5-1 .7-2.1.7-3.3 0-1.2-.2-2.3-.7-3.3-.4-.8-.9-1.5-1.5-2-1.5-1.5-3.2-2.2-5.3-2.2-2 0-3.8.7-5.3 2.1-.7.8-1.2 1.5-1.5 2.1-.5 1-.8 2.1-.8 3.3 0 1.2.3 2.2.8 3.3.4.8.9 1.5 1.5 2.1 1.5 1.4 3.3 2.1 5.3 2.1s3.8-.7 5.3-2.1c.5-.5 1-1.2 1.5-2.1z"/><g clip-rule="evenodd"><path fill-rule="evenodd" fill="#00AFE7" d="M6.8 3.3c-2.4-.5-4.6-.7-6.8-.7s-4.4.2-6.8.7c.4.8.9 1.5 1.5 2.1 1.9-.7 3.7-1.1 5.3-1.1 1.7 0 3.4.4 5.3 1.1.5-.6 1-1.3 1.5-2.1z"/><path stroke="#222123" stroke-width=".35" d="M6.8 3.3c-.5.8-1 1.5-1.5 2.1-1.9-.7-3.6-1.1-5.3-1.1-1.7 0-3.4.4-5.3 1.1-.6-.6-1.1-1.3-1.5-2.1 2.4-.5 4.7-.7 6.8-.7 2.2 0 4.4.2 6.8.7z" fill="none"/><path fill-rule="evenodd" fill="#00AFE7" d="M6.8-3.3c-.4-.8-.9-1.5-1.5-2-1.9.7-3.6 1-5.2 1-1.8 0-3.5-.4-5.3-1.1-.8.8-1.3 1.5-1.6 2.1 2.4.5 4.6.7 6.8.7s4.4-.2 6.8-.7z"/><path stroke="#222123" stroke-width=".35" d="M6.8-3.3c-2.4.5-4.6.7-6.7.7-2.2 0-4.5-.2-6.8-.7.2-.6.7-1.3 1.4-2.1 1.8.8 3.6 1.1 5.3 1.1 1.6 0 3.4-.4 5.2-1.1.7.6 1.2 1.3 1.6 2.1z" fill="none"/></g><g fill-rule="evenodd" clip-rule="evenodd" fill="#fe0"><path d="M7.2 0l-1 1.3-2-.5 1.1.5-.6 1.3-.8-.5.2-.5-1.9-.4-.5-.7-1.7 1.8-1.9-1.8-.5.6-2 .4.4.6-.8.5-.6-1.2 1.2-.5-2 .5-1-1.3 1-1.2 2 .5-1.2-.5.6-1.3.8.4-.3.5 2 .4.5.6 1.8-1.8 1.8 1.8.5-.6 1.9-.4-.3-.5.8-.5.6 1.3-1.2.4 2-.5 1.1 1.3zM1.6-6.8v1.1l-1.6 1.1-1.6-1 .1-1.1-1.4 1.1-1.5-.5c1.4-1 2.8-1.4 4.4-1.4 1.6 0 3 .5 4.4 1.4l-1.5.5-1.3-1.2zM-1.5 6.6l-.1-1.1 1.6-1 1.6 1v1.1l1.4-1.1 1.5.5c-1.3 1-2.8 1.5-4.5 1.5-1.6 0-3.1-.5-4.5-1.5l1.6-.6 1.4 1.2z"/></g><path clip-rule="evenodd" stroke="#1A1A1A" stroke-width=".35" fill="none" d="M0-7.5v15"/><path fill-rule="evenodd" clip-rule="evenodd" fill-opacity=".149" d="M0 7.5v-15h.1c2 0 3.8.7 5.3 2.1.6.8 1.1 1.5 1.4 2.1.5 1 .8 2.1.8 3.3 0 1.2-.3 2.2-.8 3.3-.4.8-.9 1.5-1.5 2.1-1.5 1.4-3.2 2.1-5.3 2.1z"/><path clip-rule="evenodd" stroke="#222123" stroke-width=".35" d="M6.8 3.3c-.5.8-1 1.5-1.5 2.1-1.5 1.4-3.2 2.1-5.3 2.1-2 0-3.8-.7-5.3-2.1-.6-.6-1.1-1.3-1.5-2.1-.5-1-.8-2.1-.8-3.3 0-1.2.3-2.3.8-3.3.3-.6.8-1.3 1.5-2.1 1.5-1.4 3.3-2.1 5.3-2.1 2.1 0 3.8.7 5.3 2.2.6.6 1.1 1.3 1.5 2 .5 1.1.7 2.2.7 3.3 0 1.1-.2 2.2-.7 3.3z" fill="none"/></symbol><use xlink:href="#c" width="98" height="148" x="-49" y="-74" transform="matrix(1 0 0 -1 50 75)" overflow="visible"/><g><g><use xlink:href="#d" width="6.5" height="13.1" x="-3.2" y="-6.6" transform="matrix(-1 0 0 1 90 121.5)" overflow="visible"/><use xlink:href="#d" width="6.5" height="13.1" x="-3.2" y="-6.6" transform="matrix(1 0 0 -1 10 28.5)" overflow="visible"/><use xlink:href="#e" width="5.1" height="12.2" x="-2.6" y="-6.1" transform="matrix(-1 0 0 1 90 136)" overflow="visible"/><use xlink:href="#e" width="5.1" height="12.2" x="-2.6" y="-6.1" transform="matrix(-1 0 0 1 10 136)" overflow="visible"/><use xlink:href="#e" width="5.1" height="12.2" x="-2.6" y="-6.1" transform="matrix(1 0 0 -1 90 14)" overflow="visible"/><use xlink:href="#e" width="5.1" height="12.2" x="-2.6" y="-6.1" transform="matrix(1 0 0 -1 10 14)" overflow="visible"/><use xlink:href="#f" width="66.2" height="56.8" x="-33.1" y="3" transform="matrix(-1 0 0 1 50 75)" overflow="visible"/><use xlink:href="#f" width="66.2" height="56.8" x="-33.1" y="3" transform="matrix(1 0 0 -1 50 75)" overflow="visible"/><use xlink:href="#g" width="82" height="132" x="-41" y="-66" transform="matrix(1 0 0 -1 50 75)" overflow="visible"/></g></g></svg>
