<svg xmlns="http://www.w3.org/2000/svg" xmlns:xlink="http://www.w3.org/1999/xlink" viewBox="0 0 100 150" enable-background="new 0 0 100 150"><symbol id="h" viewBox="-7 -13.7 13.9 27.3"><g clip-rule="evenodd"><path fill-rule="evenodd" fill="#009C22" d="M1.9-12.4l.1.9-1.5 1-2.9-1.5-.4.5-2-1.1-.6.5-.8-.5-.6.3.3 2.8 1.2.4.7.9 1.6-.4.7.7 1.2-.3 1.4-1.4 1.5-.7-.3 1.6-1.2 1.5-3 .5.9.5 2.1-.2 1.9-1.9 1.2-3.5z"/><path stroke="#000" stroke-width=".35" stroke-linecap="round" stroke-linejoin="round" fill="none" d="M1.9-12.4l.1.9-1.5 1-2.9-1.5-.4.5-2-1.1-.6.5-.8-.5-.6.3.3 2.8 1.2.4.7.9 1.6-.4.7.7 1.2-.3 1.4-1.4 1.5-.7-.3 1.6-1.2 1.5-3 .5.9.5 2.1-.2 1.9-1.9 1.2-3.5z"/><path fill-rule="evenodd" fill="#F40D1D" d="M5.2-7l-.2-.9-2.3-1.5-.4.8v2.4l1.1 1.4.6-.4.8 1h.8l1.1-1 .1-1.3z"/><path stroke="#000" stroke-width=".35" stroke-linecap="round" stroke-linejoin="round" fill="none" d="M5.2-7l1.6.5-.1 1.3-1.1 1h-.8l-.8-1-.6.4-1.1-1.4v-2.4l.4-.8 2.3 1.5z"/><path fill-rule="evenodd" fill="#fe0" d="M3.4-11.8l1.5-1.7-3 1.1z"/><path stroke="#000" stroke-width=".35" stroke-linecap="square" stroke-linejoin="round" fill="none" d="M3.4-11.8l1.5-1.7-3 1.1z"/></g><use xlink:href="#a" width="9.8" height="20.2" x="-4.9" y="-10.1" transform="translate(.27 3.573)" overflow="visible"/></symbol><symbol id="a" viewBox="-4.9 -10.1 9.8 20.2"><path fill-rule="evenodd" clip-rule="evenodd" fill="#009C22" d="M0-1.3c3.1 0 4.7-1.6 4.7-3 0-2.6-2.6-3.9-3.5-4.2-1.1-.4-1.2-1.4-1.2-1.4s-.1 1-1.3 1.5c-.9.3-3.5 1.6-3.5 4.2.1 1.3 1.7 2.9 4.8 2.9z"/><path fill-rule="evenodd" clip-rule="evenodd" fill="#006F20" d="M0-1.3v-8.6s-.1 1-1.3 1.5c-.9.3-3.5 1.6-3.5 4.2.1 1.3 1.7 2.9 4.8 2.9z"/><path fill-rule="evenodd" clip-rule="evenodd" fill="#F40D1D" d="M3.5-2.2h-7v8.7l3.5 3.4 3.5-3.4z"/><path fill-rule="evenodd" clip-rule="evenodd" fill="#AC0019" d="M0-2.2h-3.5v8.7l3.5 3.4z"/><path stroke="#000" stroke-width=".35" stroke-linecap="round" stroke-linejoin="round" stroke-miterlimit="10" fill="none" d="M0-9.9v6.9M0 9.9v-11.8"/><path fill-rule="evenodd" clip-rule="evenodd" fill="#fe0" d="M3.5-1.2v-1.1c-.8-.4-2.1-.7-3.5-.7s-2.7.3-3.5.7v1.1c.8-.4 2-.7 3.5-.7s2.7.3 3.5.7z"/><path clip-rule="evenodd" stroke="#000" stroke-width=".35" stroke-linecap="round" stroke-linejoin="round" stroke-miterlimit="10" d="M-3.5-2.2v8.7l3.5 3.4 3.5-3.5v-8.7c.8-.6 1.3-1.3 1.3-2 0-2.6-2.6-3.9-3.5-4.2-1.2-.4-1.3-1.4-1.3-1.4s-.1 1-1.3 1.5c-.9.3-3.5 1.6-3.5 4.2.1.6.5 1.4 1.3 2z" fill="none"/><path clip-rule="evenodd" stroke="#000" stroke-width=".25" stroke-linecap="round" stroke-miterlimit="10" d="M3.5-2.3c-.8-.4-2.1-.7-3.5-.7s-2.7.3-3.5.7" fill="none"/></symbol><symbol id="d" viewBox="-3.2 -6.6 6.5 13.1"><path fill-rule="evenodd" clip-rule="evenodd" fill="#F40D1D" d="M-2.2-3h4.4v7.2l-2.2 2.2-2.2-2.2z"/><path fill-rule="evenodd" clip-rule="evenodd" fill="#009C22" d="M0-.8c-2 0-3.1-1-3.1-1.9 0-1.7 1.7-2.5 2.2-2.7.7-.3.8-1 .8-1s.1.7.8 1c.6.2 2.2 1 2.2 2.7.2.8-.9 1.9-2.9 1.9z"/><path fill-rule="evenodd" clip-rule="evenodd" fill="#fe0" d="M-2.2 0v-1.4c.6-.3 1.3-.5 2.2-.5s1.6.2 2.2.4v1.5c-.6-.3-1.3-.5-2.2-.5s-1.6.2-2.2.5z"/><path clip-rule="evenodd" stroke="#000" stroke-width=".35" stroke-linecap="round" stroke-linejoin="round" stroke-miterlimit="10" d="M2.2-1.4v5.6l-2.2 2.2-2.2-2.2v-5.6c-.5-.4-.8-.9-.8-1.3 0-1.7 1.7-2.5 2.2-2.7.7-.3.8-1 .8-1s.1.7.8 1c.6.2 2.2 1 2.2 2.7.1.4-.2.9-.8 1.3z" fill="none"/></symbol><symbol id="f" viewBox="-37.9 0 74.5 63.6"><g clip-rule="evenodd"><path fill-rule="evenodd" fill="#DDC67B" d="M8.8 44.3c0-1.7-.1-3.4-.1-5l1.1-2.6 5.4-2.5-2.9-3.4-4.6-3.2h-13.6c-.1 0-.8 1.4-2 4.1l.5 1.9 4.6 1.3v3.4l-1.3.3h-1.6l-1.4.9.6 1.9-.6 1.3.6 1.6h-.5l-.3 1.4.5 2.3.5.5-1.7 1.5 4.5 6.5 5.5 4.9 1.4.8 4.4-5.5c.6-4.6.9-7 1-7.2 0-.1.1-1.8 0-5.2z"/><path stroke="#151215" stroke-width=".425" d="M8.8 44.3c0-1.7-.1-3.4-.1-5l1.1-2.6 5.4-2.5-2.9-3.4-4.6-3.2h-13.6c-.1 0-.8 1.4-2 4.1l.5 1.9 4.6 1.3v3.4l-1.3.3h-1.6l-1.4.9.6 1.9-.6 1.3.6 1.6h-.5l-.3 1.4.5 2.3.5.5-1.7 1.5 4.5 6.5 5.5 4.9 1.4.8 4.4-5.5c.6-4.6.9-7 1-7.2 0-.1.1-1.8 0-5.2z" fill="none"/><path fill-rule="evenodd" fill="#3B2714" d="M2.9 44.9l.7 4.1-1.4 2.7 5 .5 2.5-3.2 1.9-4.3.7-3.6-1.8-1.6-1.8-1.1-1-.2-2.7.5h-1.9l-.9 2 .7 1.9z"/><path stroke="#151215" stroke-width=".425" fill="none" d="M2.9 44.9v-2.3l-.7-1.9.9-2h1.9l2.7-.5 1 .2 1.8 1.1 1.8 1.6-.7 3.6-1.9 4.3-2.5 3.2-5-.5 1.4-2.7z"/><path fill-rule="evenodd" fill="#FFED00" d="M1.7 53.2l-8.2.4 4.2 6.1 2.2 2 3.9 1.6 2.8-3.2 2.1-3.3 1-5.1z"/><path stroke="#151215" stroke-width=".425" fill="none" d="M1.7 53.2l-8.2.4 4.2 6.1 2.2 2 3.9 1.6 2.8-3.2 2.1-3.3 1-5.1z"/><path fill-rule="evenodd" fill="#0075BD" d="M17.9 50.8l-2.1-.3-2.3.9 3.9-2.7-2.2-1.2-1.3.5-2.3 1.5 3.6-3.3-1.5-.5-2.1.7-1.1.8 2.1-2.9h-2.1l-1.8 1.4-1.6 3.3-.3 1 3.2 1.7v4.8l.5 2.2 4.1.6 2.4.8 1.1.7v-2.1l-.5-1.2-5-.8 6.2-.4-.6-1.8-1.8-.7-3.8.8 6.2-2.4z"/><path stroke="#151215" stroke-width=".425" fill="none" d="M17.9 50.8l-2.1-.3-2.3.9 3.9-2.7-2.2-1.2-1.3.5-2.3 1.5 3.6-3.3-1.5-.5-2.1.7-1.1.8 2.1-2.9h-2.1l-1.8 1.4-1.6 3.3-.3 1 3.2 1.7v4.8l.5 2.2 4.1.6 2.4.8 1.1.7v-2.1l-.5-1.2-5-.8 6.2-.4-.6-1.8-1.8-.7-3.8.8 6.2-2.4z"/><path fill-rule="evenodd" fill="#00C6E6" d="M11.6 53.6l-1-3.2-1.4-.8-1.9.2-.5.2.3-1-6.1 1.9-3.1.3-4.4-.2-1.9-.3 1.9 3.9h6.1l2 .3 1.1.9.9 3-2 .9h1.4l-1 .9-.8-.7.5 1.3 1.5.4 3-1.7 1-6.6 1.5-.1v1.5l-1.1 1.2 1.1 2 2.2 1 .4.1-.8-2.6z"/><path stroke="#151215" stroke-width=".425" fill="none" d="M11.6 53.6l-1-3.2-1.4-.8-1.9.2-.5.2.3-1-6.1 1.9-3.1.3-4.4-.2-1.9-.3 1.9 3.9h6.1l2 .3 1.1.9.9 3-2 .9h1.4l-1 .9-.8-.7.5 1.3 1.5.4 3-1.7 1-6.6 1.5-.1v1.5l-1.1 1.2 1.1 2 2.2 1 .4.1-.8-2.6z"/></g><path fill-rule="evenodd" clip-rule="evenodd" fill="#00C6E6" d="M4.7 22.9l-12.7.9-2.7 5.3 2.7 4.3 2.1-5.9h13.6l4.6 3.3 2.9 3.4 3.1-.9.8-2.9-4.2-3z"/><path clip-rule="evenodd" stroke="#151215" stroke-width=".425" fill="none" d="M4.7 22.9l-12.7.9-2.7 5.3 2.7 4.3 2.1-5.9h13.6l4.6 3.3 2.9 3.4 3.1-.9.8-2.9-4.2-3z"/><path fill-rule="evenodd" clip-rule="evenodd" fill="#004427" d="M-.6 19.8l-8.5-.2-2.9 7.3 1.3 3.4 4-5.9 11.5-.5 9.5 4.2 4.1 4.8.7-4-7.3-6.4z"/><path clip-rule="evenodd" stroke="#151215" stroke-width=".425" fill="none" d="M-.6 19.8l-8.5-.2-2.9 7.3 1.3 3.4 4-5.9 11.5-.5 9.5 4.2 4.1 4.8.7-4-7.3-6.4z"/><path fill-rule="evenodd" clip-rule="evenodd" fill="#F3000B" d="M1.3 26.5h-7.3l-2.6 5.4 1.4 1.9 2.2-5 12.8-.3 5.4 3.6 1.4 2.4 1.2-.5-1.6-3-6.3-4z"/><path fill-rule="evenodd" clip-rule="evenodd" fill="#0075BD" d="M36.3 8v-7.8h-72.4l.3 5.1-1.2 8.6 4.5 1.3.9 2.1 1.5-.5 3 2.6-1.2 2.4 3.8 4.3 1-.6 4.3 4.7 10.1 3.2 1.8 2.6 4.2-.7-.4-.6-4-1.1-2.4-3.8.7-5.5 1.4-3.6 4.5-.3 3 .3 17.8 7.8-.1 5-1.1.7 1.6.4 1.4-1.7 2.4-1.4h5.4l1.2-3 2.2-2.6-.9-4.3z"/><path clip-rule="evenodd" stroke="#151215" stroke-width=".425" fill="none" d="M36.3 8l-6.7 13.6.9 4.3-2.2 2.6-1.2 3h-5.4l-2.4 1.4-1.4 1.7-1.6-.4 1.1-.7.1-5-17.8-7.8-3-.3-4.5.3-1.4 3.6-.7 5.5 2.4 3.8 4 1.1.4.6-4.2.7-1.8-2.6-10.1-3.2-4.3-4.7-1 .6-3.8-4.3 1.2-2.4-3-2.6-1.5.5-.9-2.1-4.5-1.3 1.2-8.6-.3-5.1h72.4z"/><path fill-rule="evenodd" clip-rule="evenodd" d="M-18.2 21.4l4.9-1.9c4-9.5 6.1-14.3 6.3-14.3.2 0-1.4-1.7-4.7-5h-17.6l11.1 21.2z" opacity=".5" enable-background="new"/><g clip-rule="evenodd"><path fill-rule="evenodd" fill="#FFED00" d="M-19.9 23.4v2l1.1.2.9-1.1 2.1.3.8.6.3 2.1 1 .4 1.1-1.9-1-2.6-1.4-.5.3-.9-.9-.2-.9-2.2-2.8 1.1.6 1.8-.4.4z"/><path stroke="#151215" stroke-width=".425" fill="none" d="M-19.9 23.4l.8-.5.4-.4-.6-1.8 2.8-1.1.9 2.2.9.2-.3.9 1.4.5 1 2.6-1.1 1.9-1-.4-.3-2.1-.8-.6-2.1-.3-.9 1.1-1.1-.2z"/><path fill-rule="evenodd" fill="#DDC67B" d="M-16.1 20.5l1.1-2.2v-1.8l-.6-2.2-7-5.9-1.5-1-2.2.2-.8 4.7 1.1 2 2.2.6-.7 2.2 1 1 .4 1.2 3.2 2.5z"/><path stroke="#151215" stroke-width=".425" fill="none" d="M-16.1 20.5l1.1-2.2v-1.8l-.6-2.2-7-5.9-1.5-1-2.2.2-.8 4.7 1.1 2 2.2.6-.7 2.2 1 1 .4 1.2 3.2 2.5z"/><path fill-rule="evenodd" fill="#004427" d="M-36.4 9.8l3 3.6h1l3.1.6-1.1-6.6 3.3-5.6-2.3-1.6h-2.3l-4.8 2.3-1.2 1.4z"/><path stroke="#151215" stroke-width=".425" fill="none" d="M-36.4 9.8l-1.3-5.9 1.2-1.4 4.8-2.3h2.3l2.3 1.6-3.3 5.6 1.1 6.6-3.1-.6h-1z"/><path fill-rule="evenodd" fill="#004427" d="M16.6 19.5l.5 1.2 3.5 6.9 1.5 1.9 3.7-1.7 2.5-2.6.3-2.5-.8-7.3.9-1.7 4.2-3.8.8-5.3-1.1-1.2.2-1.3 2-1.9h-6.2l-13.6 4.2-2.4 7.7 4.4-.1z"/><path stroke="#151215" stroke-width=".425" fill="none" d="M16.6 19.5l.4-7.5-4.4.1 2.4-7.7 13.6-4.2h6.2l-2 1.9-.2 1.3 1.1 1.2-.8 5.3-4.2 3.8-.9 1.7.8 7.3-.3 2.5-2.5 2.6-3.7 1.7-1.5-1.9-3.5-6.9z"/><path fill-rule="evenodd" fill="#0075BD" d="M18.8 22.4l2.7 1.3 2.2.3 4.8-.6-.1-2.4-3 .6-2.3-.3-2.4-1-4-2.6v2.1l.8 1.6z"/><path stroke="#151215" stroke-width=".425" fill="none" d="M18.8 22.4l-1.3-1-.8-1.6v-2.1l4 2.6 2.4 1 2.3.3 3-.6.1 2.4-4.8.6-2.2-.3z"/><path fill-rule="evenodd" fill="#FFED00" d="M16.1 28l1 2 2.9 1.5h2.2l.9-1.3-1-2.2-4-1z"/><path stroke="#151215" stroke-width=".425" fill="none" d="M16.1 28l1 2 2.9 1.5h2.2l.9-1.3-1-2.2-4-1z"/><path fill-rule="evenodd" fill="#fff" d="M-24.9 14.9l-1.1-2.2.3-4 1-.9 2.1.6-2.1-3.7-2.4-2.8-2.1 1-1.9 3v4.4l1 3.6z"/><path stroke="#151215" stroke-width=".425" fill="none" d="M-24.9 14.9l-5.2-1-1-3.6v-4.4l1.9-3 2.1-1 2.4 2.8 2.1 3.7-2.1-.6-1 .9-.3 4z"/><path fill-rule="evenodd" fill="#FFED00" d="M-31.1 10.2l1 3.7 2.5.4-1.5-3.1.3-3.8 2-1.9 2.7.1-3-3.8-2.1 1-1.9 3z"/><path fill-rule="evenodd" fill="#F3000B" d="M-28.8 7.4l1.9-1.9-3.9-.7 2 2.6zm2-1.9l2.7.1-4.4-3.2 1.7 3.1zm-2.2 5.9l-1.5 1.3 2.9 1.6-1.4-2.9zm0 0l-.1-.2.3-3.8-2.3 1.8 2.1 2.2z"/><path stroke="#151215" stroke-width=".425" fill="none" d="M-24.9 14.9l-5.2-1-1-3.7v-4.4l1.9-3 2.1-1 2.4 2.8 2.1 3.8-2.1-.7-1 .9-.3 4z"/><path fill-rule="evenodd" fill="#009052" d="M-12.6 11.4l-1.9.8.4.8-3.8-2.9-7.5-2.7-.5-.7-.1-.9.3-1.3-2.8.7.6 2.7.6 1 6 3.9 1.8.7 3.9 1.1 2.9 1.2 1.7-1.5-.8-1.8z"/><path stroke="#151215" stroke-width=".425" fill="none" d="M-12.6 11.4l-1.9.8.4.8-3.8-2.9-7.5-2.7-.5-.7-.1-.9.3-1.3-2.8.7.6 2.7.6 1 6 3.9 1.8.7 3.9 1.1 2.9 1.2 1.7-1.5-.8-1.8z"/><path fill-rule="evenodd" fill="#0075BD" d="M-16.7 12.8l-4.4-12.6h-2.3l3.5 11.5z"/><path stroke="#151215" stroke-width=".425" fill="none" d="M-23.4.2h2.3l4.4 12.6-3.2-1.1"/><path fill-rule="evenodd" fill="#A5DDF6" d="M-25.4.2l2.8 9.7 2.7 1.8-3.5-11.5z"/><path stroke="#151215" stroke-width=".425" fill="none" d="M-19.9 11.7l-2.7-1.8-2.8-9.7h2"/><path fill-rule="evenodd" fill="#fff" d="M14.3 12.2l1.3-1.4 1.1-6.9-12.4 2.4-.6 3-1.2 3.7-.8.4 1.1.3z"/><path stroke="#151215" stroke-width=".425" fill="none" d="M14.3 12.2l-11.5 1.5-1.1-.3.8-.4 1.2-3.7.6-3 12.4-2.4-1.1 6.9z"/><path fill-rule="evenodd" fill="#FFED00" d="M15.6 10.8l1.1-6.9-6.2 1.1-.1 2.4-.8 3.3-.9 2.1 5.6-.6z"/><path fill-rule="evenodd" fill="#F3000B" d="M9.6 10.7l-.9 2.1 5.6-.6-2.6-1.1 4.2-1.9-3.6-1.1 4.1-1.9-5.9-1.2-.1 2.4z"/><path stroke="#151215" stroke-width=".425" fill="none" d="M14.3 12.2l-11.5 1.5-1.1-.3.8-.4 1.2-3.7.6-3 12.4-2.4-1.1 6.9z"/><path fill-rule="evenodd" fill="#DBDBDB" d="M-2.1 10.7l5.7-1.9 14.7-3.8 11.1-1.1 1.1-1.2-.9-2.5h-44.1l3.4 12 .4.6z"/><path stroke="#151215" stroke-width=".425" fill="none" d="M-2.1 10.7l5.7-1.9 14.7-3.8 11.1-1.1 1.1-1.2-.9-2.5h-44.1l3.4 12 .4.6z"/><g fill-rule="evenodd" fill="#F3000B"><path d="M-5.3 3.7l1 .7 1.8-.3.5-.5-.5-3.4h-2l.8 2.5-.3.6-1.3.4zm-1.9-2l-1.3.2 1.3 1.1 1.9.3.5-1v-2.1h-1.2l-.2 1-1 .5zm-1.9-1.5l.7 1 .6.2 1.2-1.3h-2.5zM6.8 3.2l-1.1.7.3-1.3.8.6zm-1.7 2.1l.4.2 8.6-2.5 1.8.2-1-1.6-.9-.5-1.4.1-3.1 1.3-1.1.3.1-.3 4-1.7 1.2-.1.9.3-.8-.8h-10.5l-.9 1.1v.8l2.8-1.5-1 .9-1.2.6-1.9.2-1 .4-.8.9.4.3 1.3-1.2h1.3l1.4-.3 1.1-.7.6-.9-.5 1.3-1.1.9-.8.6h-.3l-.7-.7-.3 1.2.2.9.8.6h1.4l1-.3zM18 .2l1 1.3 2.7-1.3z"/></g><path fill-rule="evenodd" fill="#DDC67B" d="M-10.6 12.7l-.5-.5-.5-1.9-.9.5-.1 1.4.9.5h1.1zm8.5-2l-1.2-1.5-1.4-3h-.8l-.7-.5-1.2.8h-1l-.8 3.1h-1l-.5 2.4.1.7.3 2.2 3.4 2h1.1l2.9-1.4 2.1-1.6 2.5-.6.8-.3 1.3-4.1-5.9 1.8z"/><path stroke="#151215" stroke-width=".425" d="M-2.1 10.7l5.9-1.8-1.3 4.1-.8.4-2.5.6-2.1 1.6-2.9 1.4h-1.1l-3.4-2-.3-2.2-.1-.7.5-2.4h1l.8-3.1h1l1.2-.8.7.5h.8l1.4 3 1.2 1.4zm-8.5 2h-1.2l-.9-.5.1-1.4.9-.5.5 1.9.6.5z" fill="none"/></g><g clip-rule="evenodd" stroke="#151215" stroke-width=".425" fill="none"><path d="M17.5 27.4l-6-4.5-8.5-4.1-4.8-1.5M18.5 27l-11.4-14M-7.7 20.7l-7 1.3M-19.8 23.4l-3.5 2.1M-27 21.5h2.1l2.8-1.5M17.1 12c3.8-.1 5.7-.1 5.6-.2l2.3-1.3 3.6-3.6M-22.4 18.1l3.6 1.5 3-1.5.8-2.1-.3-.7-.6.8-2.5 1.4-3.2-.5M-20.9 14.9l2.6.4 2.2-.7M-23.6 14.9l1.5-2.1M-6.9 14.9l-2.1-2.1-.1-3.2M-5.4 14l-1.5-2.6v-4.9M-5.4 6.5l.3 4.3 1.3 2.2M-2 10.7l.5 1.6M-2.7 34.9v-2.3M8.1 38.3l.8-4.1M-.1 38.2l-2.6.1M-2.2 38.3l.4-2.1 1.2-2.4"/></g><g fill-rule="evenodd" clip-rule="evenodd" opacity=".5" enable-background="new"><path d="M-1 38.2l-3.1.6 2.3.6 4.5.5.8-1.2-.2-2.2-1.6-3h-1.2l.7 2.9-.1 1.8zM14.2 28.5l-5.1 6.5.1-.8c.1-.5.1-.8.2-.8l-.5-3.6-1.9-1v4.1l-1.2-4.1h-1l1.6 6.8-.5 2.9 2.1-.4 1.4.5.5-2 2.4-2.6 4.8-2.4-2.9-3.1zM36.4 6.5l-2.6-1.9-.7 5.5-4.3 3.6-1.5 2.8-1.5 5.2-2 4.6-1.5 1.7.7 1.8-.1 1.1 3.9-1 1.3-2 .5-2.4.1-2.8-.4-3.5 6.4-9.9 1.9-1.4zM-30.6 6l1.6-3.1 2-1.1-2.2-1.6h-2.1l-4.7 2.1-1.6 1.6.5 2.1 6.1 2.3zM30.6 2.7l-1.1 1.2-11 1.1-1.9.6-.4 3.2 10.9-2 3.8-2.4 1.1 1.4 1.2-1.9-.5-.5.2-.9 2.2-2.3h-5.4zM5.1 57l-.4 2.6-1.2.7.3.5 1.4-.9 1.2-5.8-.6-4.2-5.2 1 1.1 3.3 2.1 1.1z"/></g><g fill-rule="evenodd" clip-rule="evenodd"><path d="M-7.6 49.8l1.9.7-.5-1.8zM-1.3 50.9l2.3-1.3-.2-.4-2.1 1-1.9-.2 1.9-.2 1.7-1-.4-.4-2.2.6v-.9h-1.1v.9h-.9l-.9 1.4zM-7.1 44.6l.6.6 2.1-.3.3-.3zM-6.7 42.2h1.5l.6-1h-1.8zM-4.1 43.1l1.4-.8-4.4.5.4.4z"/></g></symbol><symbol viewBox="-6.7 -8.5 13.4 17"><path fill-rule="evenodd" clip-rule="evenodd" fill="#009915" d="M0 8.3c1.5-1.4 2.4-2.2 2.5-2.5.4-.8.5-1.8.3-3l1.2 1.7.8-1.1c.5-.8.8-1.4.9-1.8.2-.9-.1-2-.9-3.3l1.6.9c.1-2.4-.1-4-.4-4.7-.3-.6-1.1-1-2.3-1.2l1.8-.6c-.8-.7-1.8-1-2.8-1-.1 0-.4.3-1 .8-.4.4-.8.3-1.2-.3h-1c-.4.6-.8.6-1.2.2-.6-.6-.9-.8-1-.8-1 0-2 .4-2.9 1.1l1.8.6c-1.2.2-2 .6-2.3 1.3-.2.5-.4 1.4-.4 2.8v2l1.6-.9c-.8 1.3-1 2.4-.9 3.3.1.4.4 1 .9 1.8.3.4.6.7.8 1.1l1.2-1.7c-.1 1 0 2 .4 2.8.1.3 1 1.1 2.5 2.5z"/><path fill-rule="evenodd" clip-rule="evenodd" fill-opacity=".298" d="M-4.9 3.5c.3.4.6.7.8 1.1l1.2-1.7c-.1 1.1 0 2.1.4 2.9.2.3 1 1.2 2.6 2.5v-16h-.5c-.4.5-.8.6-1.2.2-.6-.5-.9-.8-1-.8-1 0-2 .4-2.9 1.1l1.8.6c-1.2.2-2 .6-2.3 1.3-.3.4-.5 1.3-.5 2.7v2l1.6-.9c-.8 1.3-1 2.4-.9 3.3.1.3.4.9.9 1.7z"/><path clip-rule="evenodd" stroke="#000" stroke-width=".031" stroke-linecap="round" stroke-linejoin="round" stroke-miterlimit="3" d="M-4.9 3.5c-.5-.8-.8-1.4-.9-1.8-.2-.9.1-2 .9-3.3l-1.6.9v-2c0-1.3.2-2.2.4-2.7.4-.7 1.1-1.2 2.3-1.3l-1.8-.6c.9-.7 1.9-1 2.9-1 .1 0 .4.3 1 .8.4.4.8.3 1.2-.2h.5v16c-1.5-1.4-2.4-2.2-2.6-2.5-.3-.8-.4-1.8-.3-3l-1.2 1.7c-.2-.3-.5-.7-.8-1z" fill="none"/><path clip-rule="evenodd" stroke="#151215" stroke-width=".35" d="M0 8.3c-1.5-1.4-2.4-2.2-2.6-2.5-.3-.8-.4-1.8-.3-3l-1.2 1.7c-.2-.3-.5-.7-.8-1.1-.5-.8-.8-1.4-.9-1.8-.2-.9.1-2 .9-3.3l-1.6.9v-2c0-1.2.2-2.1.4-2.6.4-.7 1.1-1.2 2.3-1.3l-1.8-.6c.9-.7 1.9-1 2.9-1 .1 0 .4.3 1 .8.4.4.8.3 1.2-.2h1c.4.6.8.6 1.2.2.6-.6.9-.8 1-.8 1 0 2 .4 2.9 1.1l-1.9.5c1.2.2 2 .6 2.3 1.3.4.7.5 2.3.4 4.7l-1.5-.9c.8 1.3 1 2.4.9 3.3-.1.4-.4 1-.9 1.8l-.8 1-1.3-1.7c.2 1.2.1 2.2-.3 3-.1.3-1 1.1-2.5 2.5z" fill="none"/></symbol><symbol viewBox="-8.2 -7.9 16.3 15.8"><path fill-rule="evenodd" clip-rule="evenodd" fill="#E61616" d="M6.5 6.8c1.1-.8 1.6-2 1.5-3.6-.1-1.6-.7-3-2-4.4-1.2-1.4-3.2-3.5-6-6.4-2.8 2.9-4.8 5.1-6 6.4-1.2 1.4-1.9 2.9-2 4.4-.1 1.6.4 2.8 1.5 3.6 1 .8 2.1 1.1 3.3.8 1.2-.1 2.3-.8 3.2-1.8 1 1 2 1.7 3.2 1.8 1.2.3 2.3 0 3.3-.8z"/><path fill-rule="evenodd" clip-rule="evenodd" fill-opacity=".298" d="M0-7.6v13.4c1 1 2 1.6 3.2 1.8 1.2.2 2.3-.1 3.3-.8 1.1-.8 1.6-2 1.5-3.6-.1-1.6-.7-3-2-4.4-1.2-1.4-3.2-3.5-6-6.4z"/><path clip-rule="evenodd" stroke="#151215" stroke-width=".1" stroke-linecap="round" stroke-linejoin="round" stroke-miterlimit="3" d="M0-7.6c2.8 2.9 4.8 5.1 6 6.4 1.2 1.4 1.9 2.9 2 4.4.1 1.6-.4 2.8-1.5 3.6-1 .8-2.1 1.1-3.3.8-1.2-.2-2.2-.8-3.2-1.8v-13.4z" fill="none"/><path clip-rule="evenodd" stroke="#151215" stroke-width=".35" d="M6.5 6.8c-1 .8-2.1 1.1-3.3.8-1.2-.1-2.2-.8-3.2-1.8-.9 1.1-2 1.7-3.2 1.9-1.2.2-2.3-.1-3.3-.8-1.1-.9-1.6-2.1-1.5-3.7.1-1.6.8-3 2-4.4 1.2-1.4 3.2-3.5 6-6.4 2.8 2.9 4.8 5.1 6 6.4 1.2 1.4 1.9 2.9 2 4.4.1 1.6-.4 2.8-1.5 3.6z" fill="none"/></symbol><symbol id="c" viewBox="-49 -74 98 148"><path fill="#F0F7E6" d="M48-68.5c0-3-2.5-5.5-5.5-5.5h-86c-3 0-5.5 2.5-5.5 5.5v136c0 3 2.5 5.5 5.5 5.5h86c3 0 5.5-2.5 5.5-5.5v-136z"/><path fill="#000" d="M43 73c2.8 0 5-2.2 5-5v-136c0-2.8-2.2-5-5-5h-86c-2.8 0-5 2.2-5 5v136c0 2.8 2.2 5 5 5h86m0 1h-86c-3.3 0-6-2.7-6-6v-136c0-3.3 2.7-6 6-6h86c3.3 0 6 2.7 6 6v136c0 3.3-2.7 6-6 6z"/></symbol><symbol id="e" viewBox="-3.1 -6.1 6.1 12.2"><path fill-rule="evenodd" clip-rule="evenodd" d="M2.9 3.8c-.1.7-.4 1.2-.9 1.6-.5.5-1.2.7-2.1.7-.9 0-1.5-.2-2-.7-.5-.4-.7-.9-.8-1.6-.1-.7-.2-1.9-.2-3.8s0-3.2.1-3.8c.2-.7.4-1.2.9-1.6.5-.5 1.2-.7 2-.7.9 0 1.6.2 2.1.7.5.4.8.9.9 1.6.1.7.2 1.9.2 3.8s-.1 3.1-.2 3.8zm-1.7-3.7v-2.1c-.1-.9-.3-1.5-.5-1.8-.1-.3-.4-.4-.8-.4-.3 0-.5.1-.7.4-.2.3-.3.9-.3 1.9v4.300000000000001c0 .9.2 1.5.4 1.8.2.3.4.4.7.4.4 0 .6-.1.8-.4.2-.3.4-.9.5-1.8-.1-.3-.1-1-.1-2.3z"/></symbol><symbol id="g" viewBox="-41 -66 82 132"><g><g fill-rule="evenodd" clip-rule="evenodd"><path d="M33 66h-66v-1h66zM33-65h-66v-1h66zM-41 37h1v-88h-1zM41-37h-1v88h1zM40-.5h-80v1h80z"/></g></g></symbol><symbol viewBox="-7.7 -10.4 15.4 20.8"><g clip-rule="evenodd"><path fill-rule="evenodd" fill="#fe0" d="M0-5.9l-.4.2-.6-2.1 1-.9 1 .8-.6 2.1-.4-.1zm3-.3l-1.5.2.9-2.1-1.5-1-.9-1-.9 1-1.5 1 .9 2.1-1.5-.2 3 2.2 3-2.2z"/><path stroke="#222123" stroke-width=".35" d="M3-6.2l-3 2.2-3-2.2 1.5.2-.9-2.1 1.5-1 .9-1 .9 1 1.5 1-.9 2.1 1.5-.2zm-3 .3l.4.2.6-2.2-1-.8-1.1.8.6 2.1.5-.1z" fill="none"/></g><use xlink:href="#b" width="15.4" height="15.4" x="-7.7" y="-7.7" transform="translate(0 2.703)" overflow="visible"/></symbol><symbol id="b" viewBox="-7.7 -7.7 15.4 15.4"><path fill-rule="evenodd" clip-rule="evenodd" fill="#F40D1D" d="M6.8 3.3c.5-1 .7-2.1.7-3.3 0-1.2-.2-2.3-.7-3.3-.4-.8-.9-1.5-1.5-2-1.5-1.5-3.2-2.2-5.3-2.2-2 0-3.8.7-5.3 2.1-.7.8-1.2 1.5-1.5 2.1-.5 1-.8 2.1-.8 3.3 0 1.2.3 2.2.8 3.3.4.8.9 1.5 1.5 2.1 1.5 1.4 3.3 2.1 5.3 2.1s3.8-.7 5.3-2.1c.5-.5 1-1.2 1.5-2.1z"/><g clip-rule="evenodd"><path fill-rule="evenodd" fill="#00AFE7" d="M6.8 3.3c-2.4-.5-4.6-.7-6.8-.7s-4.4.2-6.8.7c.4.8.9 1.5 1.5 2.1 1.9-.7 3.7-1.1 5.3-1.1 1.7 0 3.4.4 5.3 1.1.5-.6 1-1.3 1.5-2.1z"/><path stroke="#222123" stroke-width=".35" d="M6.8 3.3c-.5.8-1 1.5-1.5 2.1-1.9-.7-3.6-1.1-5.3-1.1-1.7 0-3.4.4-5.3 1.1-.6-.6-1.1-1.3-1.5-2.1 2.4-.5 4.7-.7 6.8-.7 2.2 0 4.4.2 6.8.7z" fill="none"/><path fill-rule="evenodd" fill="#00AFE7" d="M6.8-3.3c-.4-.8-.9-1.5-1.5-2-1.9.7-3.6 1-5.2 1-1.8 0-3.5-.4-5.3-1.1-.8.8-1.3 1.5-1.6 2.1 2.4.5 4.6.7 6.8.7s4.4-.2 6.8-.7z"/><path stroke="#222123" stroke-width=".35" d="M6.8-3.3c-2.4.5-4.6.7-6.7.7-2.2 0-4.5-.2-6.8-.7.2-.6.7-1.3 1.4-2.1 1.8.8 3.6 1.1 5.3 1.1 1.6 0 3.4-.4 5.2-1.1.7.6 1.2 1.3 1.6 2.1z" fill="none"/></g><g fill-rule="evenodd" clip-rule="evenodd" fill="#fe0"><path d="M7.2 0l-1 1.3-2-.5 1.1.5-.6 1.3-.8-.5.2-.5-1.9-.4-.5-.7-1.7 1.8-1.9-1.8-.5.6-2 .4.4.6-.8.5-.6-1.2 1.2-.5-2 .5-1-1.3 1-1.2 2 .5-1.2-.5.6-1.3.8.4-.3.5 2 .4.5.6 1.8-1.8 1.8 1.8.5-.6 1.9-.4-.3-.5.8-.5.6 1.3-1.2.4 2-.5 1.1 1.3zM1.6-6.8v1.1l-1.6 1.1-1.6-1 .1-1.1-1.4 1.1-1.5-.5c1.4-1 2.8-1.4 4.4-1.4 1.6 0 3 .5 4.4 1.4l-1.5.5-1.3-1.2zM-1.5 6.6l-.1-1.1 1.6-1 1.6 1v1.1l1.4-1.1 1.5.5c-1.3 1-2.8 1.5-4.5 1.5-1.6 0-3.1-.5-4.5-1.5l1.6-.6 1.4 1.2z"/></g><path clip-rule="evenodd" stroke="#1A1A1A" stroke-width=".35" fill="none" d="M0-7.5v15"/><path fill-rule="evenodd" clip-rule="evenodd" fill-opacity=".149" d="M0 7.5v-15h.1c2 0 3.8.7 5.3 2.1.6.8 1.1 1.5 1.4 2.1.5 1 .8 2.1.8 3.3 0 1.2-.3 2.2-.8 3.3-.4.8-.9 1.5-1.5 2.1-1.5 1.4-3.2 2.1-5.3 2.1z"/><path clip-rule="evenodd" stroke="#222123" stroke-width=".35" d="M6.8 3.3c-.5.8-1 1.5-1.5 2.1-1.5 1.4-3.2 2.1-5.3 2.1-2 0-3.8-.7-5.3-2.1-.6-.6-1.1-1.3-1.5-2.1-.5-1-.8-2.1-.8-3.3 0-1.2.3-2.3.8-3.3.3-.6.8-1.3 1.5-2.1 1.5-1.4 3.3-2.1 5.3-2.1 2.1 0 3.8.7 5.3 2.2.6.6 1.1 1.3 1.5 2 .5 1.1.7 2.2.7 3.3 0 1.1-.2 2.2-.7 3.3z" fill="none"/></symbol><use xlink:href="#c" width="98" height="148" x="-49" y="-74" transform="matrix(1 0 0 -1 50 75)" overflow="visible"/><g><g><use xlink:href="#d" width="6.5" height="13.1" x="-3.2" y="-6.6" transform="matrix(-1 0 0 1 90 121.5)" overflow="visible"/><use xlink:href="#d" width="6.5" height="13.1" x="-3.2" y="-6.6" transform="matrix(1 0 0 -1 10 28.5)" overflow="visible"/><use xlink:href="#e" width="6.1" height="12.2" x="-3.1" y="-6.1" transform="matrix(-1 0 0 1 90 136)" overflow="visible"/><use xlink:href="#e" width="6.1" height="12.2" x="-3.1" y="-6.1" transform="matrix(-1 0 0 1 10 136)" overflow="visible"/><use xlink:href="#e" width="6.1" height="12.2" x="-3.1" y="-6.1" transform="matrix(1 0 0 -1 90 14)" overflow="visible"/><use xlink:href="#e" width="6.1" height="12.2" x="-3.1" y="-6.1" transform="matrix(1 0 0 -1 10 14)" overflow="visible"/><use xlink:href="#f" width="74.5" height="63.6" x="-37.9" transform="matrix(-1 0 0 1 50 75)" overflow="visible"/><use xlink:href="#f" width="74.5" height="63.6" x="-37.9" transform="matrix(1 0 0 -1 50 75)" overflow="visible"/><use xlink:href="#g" width="82" height="132" x="-41" y="-66" transform="matrix(1 0 0 -1 50 75)" overflow="visible"/><use xlink:href="#h" width="13.9" height="27.3" x="-7" y="-13.7" transform="matrix(-1 0 0 1 74.5 124.5)" overflow="visible"/><use xlink:href="#h" width="13.9" height="27.3" x="-7" y="-13.7" transform="matrix(1 0 0 -1 25.5 25.5)" overflow="visible"/></g></g></svg>
