<svg xmlns="http://www.w3.org/2000/svg" xmlns:xlink="http://www.w3.org/1999/xlink" viewBox="0 0 100 150" enable-background="new 0 0 100 150"><symbol id="h" viewBox="-7 -13.7 13.9 27.3"><g clip-rule="evenodd"><path fill-rule="evenodd" fill="#009C22" d="M1.9-12.4l.1.9-1.5 1-2.9-1.5-.4.5-2-1.1-.6.5-.8-.5-.6.3.3 2.8 1.2.4.7.9 1.6-.4.7.7 1.2-.3 1.4-1.4 1.5-.7-.3 1.6-1.2 1.5-3 .5.9.5 2.1-.2 1.9-1.9 1.2-3.5z"/><path stroke="#000" stroke-width=".35" stroke-linecap="round" stroke-linejoin="round" fill="none" d="M1.9-12.4l.1.9-1.5 1-2.9-1.5-.4.5-2-1.1-.6.5-.8-.5-.6.3.3 2.8 1.2.4.7.9 1.6-.4.7.7 1.2-.3 1.4-1.4 1.5-.7-.3 1.6-1.2 1.5-3 .5.9.5 2.1-.2 1.9-1.9 1.2-3.5z"/><path fill-rule="evenodd" fill="#F40D1D" d="M5.2-7l-.2-.9-2.3-1.5-.4.8v2.4l1.1 1.4.6-.4.8 1h.8l1.1-1 .1-1.3z"/><path stroke="#000" stroke-width=".35" stroke-linecap="round" stroke-linejoin="round" fill="none" d="M5.2-7l1.6.5-.1 1.3-1.1 1h-.8l-.8-1-.6.4-1.1-1.4v-2.4l.4-.8 2.3 1.5z"/><path fill-rule="evenodd" fill="#fe0" d="M3.4-11.8l1.5-1.7-3 1.1z"/><path stroke="#000" stroke-width=".35" stroke-linecap="square" stroke-linejoin="round" fill="none" d="M3.4-11.8l1.5-1.7-3 1.1z"/></g><use xlink:href="#a" width="9.8" height="20.2" x="-4.9" y="-10.1" transform="translate(.27 3.573)" overflow="visible"/></symbol><symbol id="a" viewBox="-4.9 -10.1 9.8 20.2"><path fill-rule="evenodd" clip-rule="evenodd" fill="#009C22" d="M0-1.3c3.1 0 4.7-1.6 4.7-3 0-2.6-2.6-3.9-3.5-4.2-1.1-.4-1.2-1.4-1.2-1.4s-.1 1-1.3 1.5c-.9.3-3.5 1.6-3.5 4.2.1 1.3 1.7 2.9 4.8 2.9z"/><path fill-rule="evenodd" clip-rule="evenodd" fill="#006F20" d="M0-1.3v-8.6s-.1 1-1.3 1.5c-.9.3-3.5 1.6-3.5 4.2.1 1.3 1.7 2.9 4.8 2.9z"/><path fill-rule="evenodd" clip-rule="evenodd" fill="#F40D1D" d="M3.5-2.2h-7v8.7l3.5 3.4 3.5-3.4z"/><path fill-rule="evenodd" clip-rule="evenodd" fill="#AC0019" d="M0-2.2h-3.5v8.7l3.5 3.4z"/><path stroke="#000" stroke-width=".35" stroke-linecap="round" stroke-linejoin="round" stroke-miterlimit="10" fill="none" d="M0-9.9v6.9M0 9.9v-11.8"/><path fill-rule="evenodd" clip-rule="evenodd" fill="#fe0" d="M3.5-1.2v-1.1c-.8-.4-2.1-.7-3.5-.7s-2.7.3-3.5.7v1.1c.8-.4 2-.7 3.5-.7s2.7.3 3.5.7z"/><path clip-rule="evenodd" stroke="#000" stroke-width=".35" stroke-linecap="round" stroke-linejoin="round" stroke-miterlimit="10" d="M-3.5-2.2v8.7l3.5 3.4 3.5-3.5v-8.7c.8-.6 1.3-1.3 1.3-2 0-2.6-2.6-3.9-3.5-4.2-1.2-.4-1.3-1.4-1.3-1.4s-.1 1-1.3 1.5c-.9.3-3.5 1.6-3.5 4.2.1.6.5 1.4 1.3 2z" fill="none"/><path clip-rule="evenodd" stroke="#000" stroke-width=".25" stroke-linecap="round" stroke-miterlimit="10" d="M3.5-2.3c-.8-.4-2.1-.7-3.5-.7s-2.7.3-3.5.7" fill="none"/></symbol><symbol id="d" viewBox="-3.2 -6.6 6.5 13.1"><path fill-rule="evenodd" clip-rule="evenodd" fill="#F40D1D" d="M-2.2-3h4.4v7.2l-2.2 2.2-2.2-2.2z"/><path fill-rule="evenodd" clip-rule="evenodd" fill="#009C22" d="M0-.8c-2 0-3.1-1-3.1-1.9 0-1.7 1.7-2.5 2.2-2.7.7-.3.8-1 .8-1s.1.7.8 1c.6.2 2.2 1 2.2 2.7.2.8-.9 1.9-2.9 1.9z"/><path fill-rule="evenodd" clip-rule="evenodd" fill="#fe0" d="M-2.2 0v-1.4c.6-.3 1.3-.5 2.2-.5s1.6.2 2.2.4v1.5c-.6-.3-1.3-.5-2.2-.5s-1.6.2-2.2.5z"/><path clip-rule="evenodd" stroke="#000" stroke-width=".35" stroke-linecap="round" stroke-linejoin="round" stroke-miterlimit="10" d="M2.2-1.4v5.6l-2.2 2.2-2.2-2.2v-5.6c-.5-.4-.8-.9-.8-1.3 0-1.7 1.7-2.5 2.2-2.7.7-.3.8-1 .8-1s.1.7.8 1c.6.2 2.2 1 2.2 2.7.1.4-.2.9-.8 1.3z" fill="none"/></symbol><symbol id="f" viewBox="-28 0 64 64.8"><g><path fill-rule="evenodd" clip-rule="evenodd" fill="#FFED00" d="M24.3 31l4-3.7 2.3-3.8 5.1-10.5-12.1 1-21.1.5-13.4-13.8-9.1-.5-2.9 10.2-2.3 2.4 1.2 10.8z"/><path clip-rule="evenodd" stroke="#151215" stroke-width=".425" fill="none" d="M24.3 31l-48.3-7.4-1.2-10.8 2.3-2.4 2.9-10.2 9.1.5 13.4 13.8 21.1-.5 12.1-1-5.1 10.5-2.3 3.8z"/><path fill-rule="evenodd" clip-rule="evenodd" fill="#FFED00" d="M-10.6 51.6l.1-2.8-2.6-3.2-.2-2.9 1.6-1.9 2.9-1.1h-2.2l-2.1.8-1.8 2.8-.1 4.6 1.7 2.7z"/><path clip-rule="evenodd" stroke="#151215" stroke-width=".425" fill="none" d="M-10.6 51.6l-2.7-1-1.7-2.7.1-4.6 1.8-2.8 2.1-.8h2.2l-2.9 1.1-1.6 1.9.2 2.9 2.6 3.2z"/><path fill-rule="evenodd" clip-rule="evenodd" fill="#009915" d="M-10.6 44.6l-.8 2.7-.1-3.6-2.3-1.7-1.4-2.9-.1-4.4-.7 2.3v3.6l1 4.2 2.1 3.8 3.3 2.8.8-5.8z"/><path clip-rule="evenodd" stroke="#151215" stroke-width=".425" fill="none" d="M-10.6 44.6l1.8 1-.8 5.8-3.3-2.8-2.1-3.8-1-4.2v-3.6l.7-2.3.1 4.4 1.4 2.9 2.3 1.7.1 3.6z"/><path fill-rule="evenodd" clip-rule="evenodd" fill="#9C7600" d="M11.7 45.7l-3.7-1.8-2.2.4 2.8 13.8 1.7-8.2 1.4-1.2z"/><path clip-rule="evenodd" stroke="#151215" stroke-width=".425" fill="none" d="M11.7 45.7l-3.7-1.8-2.2.4 2.8 13.8 1.7-8.2 1.4-1.2z"/><path fill-rule="evenodd" clip-rule="evenodd" fill="#E8D1A7" d="M11.7 34.5l-5.6-4-6.9-1.7-5.4 1.6-4.9 2.5 4.3 4.1 2.1 3 .4 6.3-3.2 2.6-.8 5.6 4.7 3.9 10.6 1.7 2.1-.6.4-3.1-.2-3.2.2-1.6-.4-.9v-3.3l-1.1-3.4-1.4-.6.3-3.8 5.3-1.9z"/><path clip-rule="evenodd" stroke="#151215" stroke-width=".425" fill="none" d="M11.7 34.5l-5.6-4-6.9-1.7-5.4 1.6-4.9 2.5 4.3 4.1 2.1 3 .4 6.3-3.2 2.6-.8 5.6 4.7 3.9 10.6 1.7 2.1-.6.4-3.1-.2-3.2.2-1.6-.4-.9v-3.3l-1.1-3.4-1.4-.6.3-3.8 5.3-1.9z"/><path fill-rule="evenodd" clip-rule="evenodd" fill="#9C7600" d="M-2.2 47.2l.6-3.8h-2.5l-3.8-1-1.6.6-1.1 6.7 4.5 7.3 4.4 1.1z"/><path clip-rule="evenodd" stroke="#151215" stroke-width=".425" fill="none" d="M-2.2 47.2l.6-3.8h-2.5l-3.8-1-1.6.6-1.1 6.7 4.5 7.3 4.4 1.1z"/><path fill-rule="evenodd" clip-rule="evenodd" fill="#0075BD" d="M-.3 64.6l6.6-3.9 2 1.7v-2l3.4-1.8h-11.9l-6.8-2.7-2.7-2.6-2.3 5.3z"/><path clip-rule="evenodd" stroke="#151215" stroke-width=".425" fill="none" d="M-.3 64.6l6.6-3.9 2 1.7v-2l3.4-1.8h-11.9l-6.8-2.7-2.7-2.6-2.3 5.3z"/><path fill-rule="evenodd" clip-rule="evenodd" fill="#FFED00" d="M-8.4 51l-.8-3.8h-2.3v5l3.5 5.5 4.3 5.6.8-2.4 2.6-2 4.4-.4-4.3-1-5.9-2.9z"/><path clip-rule="evenodd" stroke="#151215" stroke-width=".425" fill="none" d="M-8.4 51l-.8-3.8h-2.3v5l3.5 5.5 4.3 5.6.8-2.4 2.6-2 4.4-.4-4.3-1-5.9-2.9z"/><path fill-rule="evenodd" clip-rule="evenodd" d="M9.2 56.9l.2-.7-.9-.2-.7-.4 1.6-.1v-.8l-.2.1-.5-1.3-.7.1.1 1.3-.4-.2.5-4.1-.4-.5-2.5.1-.4 1.1 1.3-.3 1.4.2-.8 4.5.8 1zM0 56l2 1.2h2.4l1.2-1-.5-.6-1 .7-2 .3zM.2 54.1h.1l1.7 1.4 3-.1.3-1.7-.8.1-.3.9-.2-.9h-1.4l-.1.9-.7-.3-1.2-.5zM8.2 48.5l-.1-.8-3.6.1-.2.2 1.8.6 2.1-.1zm-.1-1l-.3-1.3h-2.1l-.1.5h1.9l.6 1v-.2z"/><path clip-rule="evenodd" stroke="#151215" stroke-width=".425" fill="none" d="M6.6 43.4l-2.5-.1-4.9 1.8"/><path fill-rule="evenodd" clip-rule="evenodd" fill="#0075BD" d="M16.1 27.6l8.7 4.4 8.8-10.8-2.1-1.1-2.6 3.4v2.5l-1.7 1.3-2.8 3 1.7-3.2-.3-2.6 2.3-1.4v-2.9l-8.8-8.4 1.3-11.5h-33.1l-.3 10.1-7.8 4.8-4 5.1-1.8 4.4 2.8 2.5-3.2-1.7-.4 1.5 4.6 2.3 2.6 2.7h2.3l9.6-13.1 8-6.4 5.2 2z"/><path clip-rule="evenodd" stroke="#151215" stroke-width=".425" fill="none" d="M16.1 27.6l-11-13.1-5.2-2-8 6.4-9.6 13.1h-2.3l-2.6-2.7-4.6-2.3.4-1.5 3.2 1.7-2.8-2.5 1.8-4.4 4-5.1 7.8-4.8.3-10.1h33.1l-1.3 11.5 8.8 8.4v2.9l-2.3 1.4.3 2.6-1.7 3.2 2.8-3 1.7-1.3v-2.5l2.6-3.4 2.1 1.1-8.8 10.8z"/><path fill-rule="evenodd" clip-rule="evenodd" fill="#fff" d="M-18.1 31.9l-.3-.2-5.8-7.7 1.1-2.8 3.6-4.7 8-4.8-1.4-1.3-7.8 4.7-4 5.2-1.7 4.4 2.9 2.5-3.4-1.6-.8 1.7 1.6.3 3.5 1.7 2.6 2.6z"/><path clip-rule="evenodd" stroke="#151215" stroke-width=".425" fill="none" d="M-18.1 31.9h-1.9l-2.6-2.6-3.5-1.7-1.6-.3.8-1.7 3.4 1.6-2.9-2.5 1.7-4.4 4-5.2 7.8-4.7 1.4 1.3-8 4.8-3.6 4.7-1.1 2.8 5.8 7.7z"/><path fill-rule="evenodd" clip-rule="evenodd" fill="#fff" d="M24.1 26.7l-2.1 3.9 2.7 1.3 5.4-6.4-.1-1.8 1.3-1.8 1.9.6 1.1-1.3-2.9-1.2-2.6 3.5v2.5l-1.7 1.2-2.8 3 1.8-3.2.1-2.3 1.9-1.7v-2.9l-8.6-8.2-1.5 1.1 8.2 8 .1 1-.1.1-1.9 1.2z"/><path clip-rule="evenodd" stroke="#151215" stroke-width=".425" fill="none" d="M24.1 26.7l.2-3.4 1.9-1.2.1-.1-.1-1-8.2-8 1.5-1.1 8.6 8.2v2.9l-1.9 1.7-.1 2.3-1.8 3.2 2.8-3 1.7-1.2v-2.5l2.6-3.5 2.9 1.2-1.1 1.3-1.9-.6-1.3 1.8.1 1.8-5.4 6.4-2.7-1.3z"/><path fill-rule="evenodd" clip-rule="evenodd" fill="#00C6E6" d="M25.6 34.8v-4.4l-1.8-5.4-4.6-6-10.2-4.1-9.1-4.5-6 3.9-7.8 2.9-4.3 3.7-2.5 4.3.3 3-.3 4.9 3.7.3 13.4-1.5 2-1.5 4.2-.3z"/><path clip-rule="evenodd" stroke="#151215" stroke-width=".425" fill="none" d="M25.6 34.8l-23-4.7-4.2.3-2 1.5-13.4 1.5-3.7-.3.3-4.9-.3-3 2.5-4.3 4.3-3.7 7.8-2.9 6-3.9 9.1 4.5 10.2 4.1 4.6 6 1.8 5.4z"/><path fill-rule="evenodd" clip-rule="evenodd" fill="#004427" d="M13.5 23l6.2 5.3 1.8 7 2.4-.9.4-3.4-1.6-5.5-3.7-5.6-14.8-5.9-4.4-2.3-2.6 2.1-6.3 3.3-8.2 6.2-1.3 2.2-.5 7.8 3 1.1 2.4-7.1 6.7-6.5 7.5-6.2 2.7 2.3z"/><path clip-rule="evenodd" stroke="#151215" stroke-width=".425" fill="none" d="M13.5 23l-10.3-6.1-2.7-2.3-7.5 6.2-6.7 6.5-2.4 7.1-3-1.1.5-7.8 1.3-2.2 8.2-6.2 6.3-3.3 2.6-2.1 4.4 2.3 14.8 5.9 3.7 5.6 1.6 5.5-.4 3.4-2.4.9-1.8-7z"/><path fill-rule="evenodd" clip-rule="evenodd" fill="#009052" d="M-11.5 36.4l.9-.3 2.8 1.4v-2.8l2.4-7.8 1.8-3.2v-.7l3.4-4.1.4-5-10.2 5.9-4.7 5.7-1.6 8.8 3.2 1.1z"/><path clip-rule="evenodd" stroke="#151215" stroke-width=".425" fill="none" d="M-11.5 36.4l-1.6-1-3.2-1.1 1.6-8.8 4.7-5.7 10.2-5.9-.4 5-3.4 4.1v.7l-1.8 3.2-2.4 7.8v2.8l-2.8-1.4z"/><path fill-rule="evenodd" clip-rule="evenodd" fill="#009052" d="M12.3 37.9l9.2-2.6v-7.2l-2.4-3.8-4.9-3.6-4.9-2.3-2.8-.6-3.5-1.6-2.6-2.2.7 3.4-.6 1.5 2 4.8.4 1.8 7.4 4.9 2.2 4.9z"/><path clip-rule="evenodd" stroke="#151215" stroke-width=".425" fill="none" d="M12.3 37.9l9.2-2.6v-7.2l-2.4-3.8-4.9-3.6-4.9-2.3-2.8-.6-3.5-1.6-2.6-2.2.7 3.4-.6 1.5 2 4.8.4 1.8 7.4 4.9 2.2 4.9z"/><path fill-rule="evenodd" clip-rule="evenodd" fill="#0075BD" d="M-4.7 41.6l-.2-1.9-2-2.7 1.2-3.7 4.6-5.2-5.1-5.1-1.3 5.8-2.3 3.5 1.9 4.1v2.5z"/><path clip-rule="evenodd" stroke="#151215" stroke-width=".425" fill="none" d="M-4.7 41.6l-3.2-2.7v-2.5l-1.9-4.1 2.3-3.5 1.3-5.8 5.1 5.1-4.6 5.2-1.2 3.7 2 2.7z"/><path fill-rule="evenodd" clip-rule="evenodd" fill="#0075BD" d="M10.4 38.4l-2.5.8-.9.5-.2 2.9 5.5-1.8.7-3.1 1.8-2.2-2.2-4.8-3.9-4.1-4-1.1h-2l-.7 5.5 3.9 1.2 1.7.8 3 2.7.8 2.1z"/><path clip-rule="evenodd" stroke="#151215" stroke-width=".425" fill="none" d="M10.4 38.4l-2.5.8-.9.5-.2 2.9 5.5-1.8.7-3.1 1.8-2.2-2.2-4.8-3.9-4.1-4-1.1h-2l-.7 5.5 3.9 1.2 1.7.8 3 2.7.8 2.1z"/><path fill-rule="evenodd" clip-rule="evenodd" fill="#0075BD" d="M27 13.5l-.5-2.8-1.7 1.5-.2-3 1.6.4-.2-2.3-.9-1.3-1 1.3-.5-1.9 1.5-.1-1.3-2.8-1.9 1.3 1.2-2.2-1.9-.9-.5 3.8 2.1 4 .7 5.5z"/><path clip-rule="evenodd" stroke="#151215" stroke-width=".425" fill="none" d="M27 13.5l-3.5.5-.7-5.5-2.1-4 .5-3.8 1.9.9-1.2 2.2 1.9-1.3 1.3 2.8-1.5.1.5 1.9 1-1.3.9 1.3.2 2.3-1.6-.4.2 3 1.7-1.5z"/><path fill-rule="evenodd" clip-rule="evenodd" fill="#F7C200" d="M7.5 8.7h-1.2l-.7 1.2.2.8-.5.4-.7 1.5.4.6-1 .9.5 1.5 4.7 1.3 14.4-2.8v-5.3l-2.1-4.5-3.5 2.9-2 1.3-.6-.5-3.8-.2-2.7-.6-1.4.6z"/><path clip-rule="evenodd" stroke="#151215" stroke-width=".425" fill="none" d="M7.5 8.7v-.9l1.4-.6 2.7.6 3.8.2.6.5 2-1.3 3.5-2.9 2.1 4.5v5.3l-14.4 2.8-4.7-1.3-.5-1.5 1-.9-.4-.6.7-1.5.5-.4-.2-.8.7-1.2z"/><path fill-rule="evenodd" clip-rule="evenodd" fill="#FFED00" d="M21 4.6l-.8.5 2.2 4.2-.2 4.9 1.2-.1v-5z"/><path fill-rule="evenodd" clip-rule="evenodd" fill="#e00" d="M20.2 5.3l-.8.5 2.2 3.7-.3 4.9 1-.3.4-4.7z"/><path fill-rule="evenodd" clip-rule="evenodd" fill="#009052" d="M-15.1 10.8l-1.2-8.3-4.7.6-3.2 7.7 4 5.9 2.4-3 3-.9.6.9v-1.6z"/><path clip-rule="evenodd" stroke="#151215" stroke-width=".425" fill="none" d="M-15.1 10.8l-1.2-8.3-4.7.6-3.2 7.7 4 5.9 2.4-3 3-.9.6.9v-1.6z"/><path fill-rule="evenodd" clip-rule="evenodd" fill="#F5F0CB" d="M13.7 33.7l-2.5-.6.6-2.7 1.2-.9 3.5-.5 4.3-2.3 1.8-1.5 5.7-2.1v-1.6l-8 1.3 4.8-8.6h-2.1l-4.5 4.6-1.4 1.8-.9-5-1.9-.5v3.7l-1.3 1.3v-3.4l-2.8-1-.5 1.5 1 1.6-2.4 5.3-2 1.1.4 5.7 1.7 3.6 1.3 1.4 3.5-.9z"/><path clip-rule="evenodd" stroke="#151215" stroke-width=".425" fill="none" d="M13.7 33.7l-2.5-.6.6-2.7 1.2-.9 3.5-.5 4.3-2.3 1.8-1.5 5.7-2.1v-1.6l-8 1.3 4.8-8.6h-2.1l-4.5 4.6-1.4 1.8-.9-5-1.9-.5v3.7l-1.3 1.3v-3.4l-2.8-1-.5 1.5 1 1.6-2.4 5.3-2 1.1.4 5.7 1.7 3.6 1.3 1.4 3.5-.9zM17.1 20.6l-.3 1.9M20.3 22.8l-6.2 1.5-1.1 1.9-.4 1.5"/><path clip-rule="evenodd" stroke="#000" stroke-width=".85" fill="none" d="M10.3 35.7v-1.2"/><path fill-rule="evenodd" clip-rule="evenodd" fill="#564A16" d="M-10.6 36.1l2.7 1.4v-1.1l-4-9.5.2-5 3.2-9.2 4.4-5.9 4.6-3.2 6.9-3.4h-6.1l-5.6 3.1-3.7 4-1.8 3.6-3.2 8.3-1 7.9 2.5 8z"/><path clip-rule="evenodd" stroke="#151215" stroke-width=".425" fill="none" d="M-10.6 36.1l-.9-1-2.5-8 1-7.9 3.2-8.3 1.8-3.6 3.7-4 5.6-3.1h6.1l-6.9 3.4-4.6 3.2-4.4 5.9-3.2 9.2-.2 5 4 9.5v1.1z"/><path fill-rule="evenodd" clip-rule="evenodd" fill="#E8D1A7" d="M-11.1 27.8l.3 1h.7l.5-1.1-.8-1.5.8-1.2-.2-.7v-1.3l.2-.5-.8-.7-.2-.6-.4-.2-1.4.6-.4-1-1.2-.7.7-1-1.3-5.8-.9-1.2-3.6 1.1-1.4 2.1 1.1 1 1.3 2.8-1 5.5 2.8 3.7 3.1.4 1.8-1.2z"/><path clip-rule="evenodd" stroke="#151215" stroke-width=".425" fill="none" d="M-11.1 27.8l.3 1h.7l.5-1.1-.8-1.5.8-1.2-.2-.7v-1.3l.2-.5-.8-.7-.2-.6-.4-.2-1.4.6-.4-1-1.2-.7.7-1-1.3-5.8-.9-1.2-3.6 1.1-1.4 2.1 1.1 1 1.3 2.8-1 5.5 2.8 3.7 3.1.4 1.8-1.2z"/><path fill-rule="evenodd" clip-rule="evenodd" fill="#FFED00" d="M-19.6 20.6h1.1l.3-1.7 2.1-1.1 2.7 1.1v-1.3l-1.7-.9h-1.9l-3.6 1.8 1 2.1zm3.2 7.3l-.6-.9 2-5.5 1.6-1.2.1-1.5-3 1.3-.2 2.7-2.3 4 1.1 1.3 1.3-.2z"/><path clip-rule="evenodd" stroke="#151215" stroke-width=".425" d="M-16.4 27.9l-1.1.3-1.1-1.3 2.3-4 .2-2.7 3-1.3-.1 1.5-1.6 1.2-2 5.5.4.8zm-3.2-7.3l-.9-2.1 3.6-1.8h1.9l1.7.9v1.3l-2.7-1.1-2.1 1.1-.3 1.7h-1.2z" fill="none"/><path fill-rule="evenodd" clip-rule="evenodd" fill="#FFED00" d="M-12 21.4v-7.7l1.8-6.4 2-4.8 2.4-1.8 9.9 2.2 5.5-2.2.7 1.5-.9-.2-1.1 1.2 1.2 4.1-.8 2.5 1.6 4.7 1 2.2 1.7-.4-1.3-4.6.5-3.6-1.2-.5.4-.8.9 1 1.5.1-2.1-2.2-1.4-.1-.4-1.9 2-1.2-.9-1.8-3.9-.3-2.6 1.2-6.3-1.2h-5.2l-2.6 1.1-1.9 4.3-1.8 8.8.1 5.8.6.8z"/><path clip-rule="evenodd" stroke="#151215" stroke-width=".425" fill="none" d="M-12 21.4v-7.7l1.8-6.4 2-4.8 2.4-1.8 9.9 2.2 5.5-2.2.7 1.5-.9-.2-1.1 1.2 1.2 4.1-.8 2.5 1.6 4.7 1 2.2 1.7-.4-1.3-4.6.5-3.6-1.2-.5.4-.8.9 1 1.5.1-2.1-2.2-1.4-.1-.4-1.9 2-1.2-.9-1.8-3.9-.3-2.6 1.2-6.3-1.2h-5.2l-2.6 1.1-1.9 4.3-1.8 8.8.1 5.8.6.8zM-18.1 18.9l-1.5 1.7M-17 27l-.4 1.1M9.5 7.3l.8-1.7M12.1 16.5l-1-2.4-.8-3.3.5-3 .9-2.1M9.9 3.7l.4-1.5"/><path fill-rule="evenodd" clip-rule="evenodd" fill="#C3C3C3" d="M-6.6 5.2l1.6-1.3 1.3 2.3-1.9 2.3-1-.8.7-1.7-1.1 1-.2-.6.6-1.2zm4.3 1.6l-.5-2.7-2-1.8-2.2 1.9-1.1 1.6.4 2.2 1.9 1.8 3.5-3z"/><path clip-rule="evenodd" stroke="#151215" stroke-width=".425" d="M-2.3 6.8l-3.4 3-2-1.8-.5-2.2 1.2-1.6 2.2-1.9 2 1.8.5 2.7zm-4.3-1.6l-.6 1.1.2.7 1.1-1-.7 1.7 1 .8 1.9-2.3-1.3-2.3-1.6 1.3zM-6.2 23l2.6.3" fill="none"/><g fill-rule="evenodd" clip-rule="evenodd" opacity=".5" enable-background="new"><path d="M-4.1 62.8l-5.9-8.3-2 4.2zM-3.3 62.8l2.7-.8-.9-2.2-1.5 1zM-6 54.5l-2.5-3.5-.7-3.9h-2.3l.9 4.5 3.1 4.3zM-1.6 53.6l1.8-3.6v-3l-1.3.7-.8 4.3zM-1.5 43.3l-.5 2.6 2.5-1.5c3.5-.7 5.2-1.1 5.1-1.1l-3.9-.3-.8-.7.8-2.7v-3l-.8-.6-.4 2.9-1.3 2.4-.8 2h-.1l-.7-.7.2-4.2-1.1-4.4-.4.2.4 4.8-.4 2.6v-3l-2.4-3.9-1.1 3.8 2.6 2.2.1 2.5.8.2h2.2zM6.8 42.3l4.6-1.6.2-1.6-.7-2.5-4.1 1.3zM-7.9 37.1l1.1-4.2-.9-3.9-1.9 2.7-3.5-1.6-.3-1.7-4.3-.1-1.2-1.4.6-1.2-.8-1.2.2-2-4.1-1.5-1.2 3.1 3.8 4.5-.3 4.5 7.6 2.2.4-1.7.9-.1 3.4 1.6.3 1zM-12.7 10.3l1.2-4.5 2.1-4.3 2.7-1.3-5.8.2zM-1.6 1.7l-4.1-1-2.5 1.8-2.1 4.7-1.6 6.7.1 2 4-8.7-.3-1.4 1.1-1.6 2.2-1.9.8.7zM-9.4 15.5l3.3-1.2 4.1-2.6-6.8 1.6zM1.4 11.2l1.9.8 3.2-8.5-3.6 4.2-.5-3.2zM4.9 13.3l2.4.9.5-2.5.7.2.5-.9-.4-1.1.6-2.3-.3-.4-1.5.5v1h-1.2l-.7 1.2.2.8-.4.5-.7 1.3zM12 9.9l3.6.1.5 1.1.2-1.1 1.7 2.6-.4-3.2 3.3-1.2-1.4-2.1-3.5 2.5-.6-.6-3.1-.2zM12.9 20.6l-.2-.8.2-3.1-2.7-1-2.1.8-1.4-.4 1.1 3.7-2.4 7.9 3.1 6.8.9-6.7 1.3-2.3 2.8-.4.4-1 6.8-1.4-1.9-.3 4.8-8.2h-.6l-4.6 4.5-1.4 2-.2 1.3-2-.3.7-2.1v-4.1l-1.2-.4.1 3.5z"/></g></g></symbol><symbol viewBox="-6.7 -8.5 13.4 17"><path fill-rule="evenodd" clip-rule="evenodd" fill="#009915" d="M0 8.3c1.5-1.4 2.4-2.2 2.5-2.5.4-.8.5-1.8.3-3l1.2 1.7.8-1.1c.5-.8.8-1.4.9-1.8.2-.9-.1-2-.9-3.3l1.6.9c.1-2.4-.1-4-.4-4.7-.3-.6-1.1-1-2.3-1.2l1.8-.6c-.8-.7-1.8-1-2.8-1-.1 0-.4.3-1 .8-.4.4-.8.3-1.2-.3h-1c-.4.6-.8.6-1.2.2-.6-.6-.9-.8-1-.8-1 0-2 .4-2.9 1.1l1.8.6c-1.2.2-2 .6-2.3 1.3-.2.5-.4 1.4-.4 2.8v2l1.6-.9c-.8 1.3-1 2.4-.9 3.3.1.4.4 1 .9 1.8.3.4.6.7.8 1.1l1.2-1.7c-.1 1 0 2 .4 2.8.1.3 1 1.1 2.5 2.5z"/><path fill-rule="evenodd" clip-rule="evenodd" fill-opacity=".298" d="M-4.9 3.5c.3.4.6.7.8 1.1l1.2-1.7c-.1 1.1 0 2.1.4 2.9.2.3 1 1.2 2.6 2.5v-16h-.5c-.4.5-.8.6-1.2.2-.6-.5-.9-.8-1-.8-1 0-2 .4-2.9 1.1l1.8.6c-1.2.2-2 .6-2.3 1.3-.3.4-.5 1.3-.5 2.7v2l1.6-.9c-.8 1.3-1 2.4-.9 3.3.1.3.4.9.9 1.7z"/><path clip-rule="evenodd" stroke="#000" stroke-width=".031" stroke-linecap="round" stroke-linejoin="round" stroke-miterlimit="3" d="M-4.9 3.5c-.5-.8-.8-1.4-.9-1.8-.2-.9.1-2 .9-3.3l-1.6.9v-2c0-1.3.2-2.2.4-2.7.4-.7 1.1-1.2 2.3-1.3l-1.8-.6c.9-.7 1.9-1 2.9-1 .1 0 .4.3 1 .8.4.4.8.3 1.2-.2h.5v16c-1.5-1.4-2.4-2.2-2.6-2.5-.3-.8-.4-1.8-.3-3l-1.2 1.7c-.2-.3-.5-.7-.8-1z" fill="none"/><path clip-rule="evenodd" stroke="#151215" stroke-width=".35" d="M0 8.3c-1.5-1.4-2.4-2.2-2.6-2.5-.3-.8-.4-1.8-.3-3l-1.2 1.7c-.2-.3-.5-.7-.8-1.1-.5-.8-.8-1.4-.9-1.8-.2-.9.1-2 .9-3.3l-1.6.9v-2c0-1.2.2-2.1.4-2.6.4-.7 1.1-1.2 2.3-1.3l-1.8-.6c.9-.7 1.9-1 2.9-1 .1 0 .4.3 1 .8.4.4.8.3 1.2-.2h1c.4.6.8.6 1.2.2.6-.6.9-.8 1-.8 1 0 2 .4 2.9 1.1l-1.9.5c1.2.2 2 .6 2.3 1.3.4.7.5 2.3.4 4.7l-1.5-.9c.8 1.3 1 2.4.9 3.3-.1.4-.4 1-.9 1.8l-.8 1-1.3-1.7c.2 1.2.1 2.2-.3 3-.1.3-1 1.1-2.5 2.5z" fill="none"/></symbol><symbol viewBox="-8.2 -7.9 16.3 15.8"><path fill-rule="evenodd" clip-rule="evenodd" fill="#E61616" d="M6.5 6.8c1.1-.8 1.6-2 1.5-3.6-.1-1.6-.7-3-2-4.4-1.2-1.4-3.2-3.5-6-6.4-2.8 2.9-4.8 5.1-6 6.4-1.2 1.4-1.9 2.9-2 4.4-.1 1.6.4 2.8 1.5 3.6 1 .8 2.1 1.1 3.3.8 1.2-.1 2.3-.8 3.2-1.8 1 1 2 1.7 3.2 1.8 1.2.3 2.3 0 3.3-.8z"/><path fill-rule="evenodd" clip-rule="evenodd" fill-opacity=".298" d="M0-7.6v13.4c1 1 2 1.6 3.2 1.8 1.2.2 2.3-.1 3.3-.8 1.1-.8 1.6-2 1.5-3.6-.1-1.6-.7-3-2-4.4-1.2-1.4-3.2-3.5-6-6.4z"/><path clip-rule="evenodd" stroke="#151215" stroke-width=".1" stroke-linecap="round" stroke-linejoin="round" stroke-miterlimit="3" d="M0-7.6c2.8 2.9 4.8 5.1 6 6.4 1.2 1.4 1.9 2.9 2 4.4.1 1.6-.4 2.8-1.5 3.6-1 .8-2.1 1.1-3.3.8-1.2-.2-2.2-.8-3.2-1.8v-13.4z" fill="none"/><path clip-rule="evenodd" stroke="#151215" stroke-width=".35" d="M6.5 6.8c-1 .8-2.1 1.1-3.3.8-1.2-.1-2.2-.8-3.2-1.8-.9 1.1-2 1.7-3.2 1.9-1.2.2-2.3-.1-3.3-.8-1.1-.9-1.6-2.1-1.5-3.7.1-1.6.8-3 2-4.4 1.2-1.4 3.2-3.5 6-6.4 2.8 2.9 4.8 5.1 6 6.4 1.2 1.4 1.9 2.9 2 4.4.1 1.6-.4 2.8-1.5 3.6z" fill="none"/></symbol><symbol id="c" viewBox="-49 -74 98 148"><path fill="#F0F7E6" d="M48-68.5c0-3-2.5-5.5-5.5-5.5h-86c-3 0-5.5 2.5-5.5 5.5v136c0 3 2.5 5.5 5.5 5.5h86c3 0 5.5-2.5 5.5-5.5v-136z"/><path fill="#000" d="M43 73c2.8 0 5-2.2 5-5v-136c0-2.8-2.2-5-5-5h-86c-2.8 0-5 2.2-5 5v136c0 2.8 2.2 5 5 5h86m0 1h-86c-3.3 0-6-2.7-6-6v-136c0-3.3 2.7-6 6-6h86c3.3 0 6 2.7 6 6v136c0 3.3-2.7 6-6 6z"/></symbol><symbol id="g" viewBox="-41 -66 82 132"><g><g fill-rule="evenodd" clip-rule="evenodd"><path d="M33 66h-66v-1h66zM33-65h-66v-1h66zM-41 37h1v-88h-1zM41-37h-1v88h1zM40-.5h-80v1h80z"/></g></g></symbol><symbol viewBox="-7.7 -10.4 15.4 20.8"><g clip-rule="evenodd"><path fill-rule="evenodd" fill="#fe0" d="M0-5.9l-.4.2-.6-2.1 1-.9 1 .8-.6 2.1-.4-.1zm3-.3l-1.5.2.9-2.1-1.5-1-.9-1-.9 1-1.5 1 .9 2.1-1.5-.2 3 2.2 3-2.2z"/><path stroke="#222123" stroke-width=".35" d="M3-6.2l-3 2.2-3-2.2 1.5.2-.9-2.1 1.5-1 .9-1 .9 1 1.5 1-.9 2.1 1.5-.2zm-3 .3l.4.2.6-2.2-1-.8-1.1.8.6 2.1.5-.1z" fill="none"/></g><use xlink:href="#b" width="15.4" height="15.4" x="-7.7" y="-7.7" transform="translate(0 2.703)" overflow="visible"/></symbol><symbol id="b" viewBox="-7.7 -7.7 15.4 15.4"><path fill-rule="evenodd" clip-rule="evenodd" fill="#F40D1D" d="M6.8 3.3c.5-1 .7-2.1.7-3.3 0-1.2-.2-2.3-.7-3.3-.4-.8-.9-1.5-1.5-2-1.5-1.5-3.2-2.2-5.3-2.2-2 0-3.8.7-5.3 2.1-.7.8-1.2 1.5-1.5 2.1-.5 1-.8 2.1-.8 3.3 0 1.2.3 2.2.8 3.3.4.8.9 1.5 1.5 2.1 1.5 1.4 3.3 2.1 5.3 2.1s3.8-.7 5.3-2.1c.5-.5 1-1.2 1.5-2.1z"/><g clip-rule="evenodd"><path fill-rule="evenodd" fill="#00AFE7" d="M6.8 3.3c-2.4-.5-4.6-.7-6.8-.7s-4.4.2-6.8.7c.4.8.9 1.5 1.5 2.1 1.9-.7 3.7-1.1 5.3-1.1 1.7 0 3.4.4 5.3 1.1.5-.6 1-1.3 1.5-2.1z"/><path stroke="#222123" stroke-width=".35" d="M6.8 3.3c-.5.8-1 1.5-1.5 2.1-1.9-.7-3.6-1.1-5.3-1.1-1.7 0-3.4.4-5.3 1.1-.6-.6-1.1-1.3-1.5-2.1 2.4-.5 4.7-.7 6.8-.7 2.2 0 4.4.2 6.8.7z" fill="none"/><path fill-rule="evenodd" fill="#00AFE7" d="M6.8-3.3c-.4-.8-.9-1.5-1.5-2-1.9.7-3.6 1-5.2 1-1.8 0-3.5-.4-5.3-1.1-.8.8-1.3 1.5-1.6 2.1 2.4.5 4.6.7 6.8.7s4.4-.2 6.8-.7z"/><path stroke="#222123" stroke-width=".35" d="M6.8-3.3c-2.4.5-4.6.7-6.7.7-2.2 0-4.5-.2-6.8-.7.2-.6.7-1.3 1.4-2.1 1.8.8 3.6 1.1 5.3 1.1 1.6 0 3.4-.4 5.2-1.1.7.6 1.2 1.3 1.6 2.1z" fill="none"/></g><g fill-rule="evenodd" clip-rule="evenodd" fill="#fe0"><path d="M7.2 0l-1 1.3-2-.5 1.1.5-.6 1.3-.8-.5.2-.5-1.9-.4-.5-.7-1.7 1.8-1.9-1.8-.5.6-2 .4.4.6-.8.5-.6-1.2 1.2-.5-2 .5-1-1.3 1-1.2 2 .5-1.2-.5.6-1.3.8.4-.3.5 2 .4.5.6 1.8-1.8 1.8 1.8.5-.6 1.9-.4-.3-.5.8-.5.6 1.3-1.2.4 2-.5 1.1 1.3zM1.6-6.8v1.1l-1.6 1.1-1.6-1 .1-1.1-1.4 1.1-1.5-.5c1.4-1 2.8-1.4 4.4-1.4 1.6 0 3 .5 4.4 1.4l-1.5.5-1.3-1.2zM-1.5 6.6l-.1-1.1 1.6-1 1.6 1v1.1l1.4-1.1 1.5.5c-1.3 1-2.8 1.5-4.5 1.5-1.6 0-3.1-.5-4.5-1.5l1.6-.6 1.4 1.2z"/></g><path clip-rule="evenodd" stroke="#1A1A1A" stroke-width=".35" fill="none" d="M0-7.5v15"/><path fill-rule="evenodd" clip-rule="evenodd" fill-opacity=".149" d="M0 7.5v-15h.1c2 0 3.8.7 5.3 2.1.6.8 1.1 1.5 1.4 2.1.5 1 .8 2.1.8 3.3 0 1.2-.3 2.2-.8 3.3-.4.8-.9 1.5-1.5 2.1-1.5 1.4-3.2 2.1-5.3 2.1z"/><path clip-rule="evenodd" stroke="#222123" stroke-width=".35" d="M6.8 3.3c-.5.8-1 1.5-1.5 2.1-1.5 1.4-3.2 2.1-5.3 2.1-2 0-3.8-.7-5.3-2.1-.6-.6-1.1-1.3-1.5-2.1-.5-1-.8-2.1-.8-3.3 0-1.2.3-2.3.8-3.3.3-.6.8-1.3 1.5-2.1 1.5-1.4 3.3-2.1 5.3-2.1 2.1 0 3.8.7 5.3 2.2.6.6 1.1 1.3 1.5 2 .5 1.1.7 2.2.7 3.3 0 1.1-.2 2.2-.7 3.3z" fill="none"/></symbol><symbol id="e" viewBox="-3.5 -6 7 12"><path d="M-1.3-2.5c0-.3 0-.5.1-.8 0-.2.1-.4.2-.6.1-.1.2-.3.4-.4.1-.1.3-.1.6-.1s.5 0 .6.1c.2.1.3.3.4.4.1.2.2.4.2.6 0 .2.1.5.1.8v8.5h2.2v-8.5c0-.7-.1-1.3-.3-1.7-.2-.5-.5-.9-.8-1.1-.3-.3-.7-.5-1.1-.6-.4-.1-.9-.1-1.3-.1s-.9 0-1.3.1-.8.2-1.1.5c-.3.3-.6.6-.8 1.1-.2.5-.3 1.1-.3 1.8v8.5h2.2v-8.5z"/></symbol><use xlink:href="#c" width="98" height="148" x="-49" y="-74" transform="matrix(1 0 0 -1 50 75)" overflow="visible"/><g><g><use xlink:href="#d" width="6.5" height="13.1" x="-3.2" y="-6.6" transform="matrix(-1 0 0 1 90 121.5)" overflow="visible"/><use xlink:href="#d" width="6.5" height="13.1" x="-3.2" y="-6.6" transform="matrix(1 0 0 -1 10 28.5)" overflow="visible"/><use xlink:href="#e" width="7" height="12" x="-3.5" y="-6" transform="matrix(-1 0 0 1 90 136)" overflow="visible"/><use xlink:href="#e" width="7" height="12" x="-3.5" y="-6" transform="matrix(-1 0 0 1 10 136)" overflow="visible"/><use xlink:href="#e" width="7" height="12" x="-3.5" y="-6" transform="matrix(1 0 0 -1 90 14)" overflow="visible"/><use xlink:href="#e" width="7" height="12" x="-3.5" y="-6" transform="matrix(1 0 0 -1 10 14)" overflow="visible"/><use xlink:href="#f" width="64" height="64.8" x="-28" transform="matrix(-1 0 0 1 50 75)" overflow="visible"/><use xlink:href="#f" width="64" height="64.8" x="-28" transform="matrix(1 0 0 -1 50 75)" overflow="visible"/><use xlink:href="#g" width="82" height="132" x="-41" y="-66" transform="matrix(1 0 0 -1 50 75)" overflow="visible"/><use xlink:href="#h" width="13.9" height="27.3" x="-7" y="-13.7" transform="matrix(-1 0 0 1 82 81.5)" overflow="visible"/><use xlink:href="#h" width="13.9" height="27.3" x="-7" y="-13.7" transform="matrix(1 0 0 -1 18 68.5)" overflow="visible"/></g></g></svg>
