<svg xmlns="http://www.w3.org/2000/svg" xmlns:xlink="http://www.w3.org/1999/xlink" viewBox="0 0 100 150" enable-background="new 0 0 100 150"><symbol id="e" viewBox="-2.6 -6.1 5.1 12.2"><path fill-rule="evenodd" clip-rule="evenodd" d="M2.2 4.9c-.2.4-.5.7-.9.9-.4.2-.8.3-1.3.3s-.9-.1-1.3-.3c-.4-.2-.7-.5-.9-.9-.2-.4-.3-.9-.3-1.4v-4.3l.3-.7.6-.6c.3-.1.6-.2.9-.2.3 0 .6 0 .8.1.2.1.5.2.8.3v-1.7c0-.2-.1-.4-.3-.6-.1-.1-.3-.2-.6-.2s-.5.1-.6.3c-.2.1-.2.3-.2.6h-1.7c0-.5.1-1 .3-1.4.2-.4.5-.7.9-.9.4-.2.9-.3 1.3-.3s.9.1 1.3.3c.4.2.7.5.9.9.2.4.3.9.3 1.4v7.1c.1.5-.1.9-.3 1.3zm-1.3-4.8c0-.3-.1-.5-.3-.6-.2-.2-.4-.3-.6-.3-.2 0-.4.1-.6.3-.2.1-.3.3-.3.6v3.5c0 .3.1.5.3.6.2.1.4.2.6.2.2 0 .4-.1.6-.3.2-.1.3-.3.3-.6v-3.4z"/></symbol><symbol viewBox="-4.9 -10.1 9.8 20.2"><path fill-rule="evenodd" clip-rule="evenodd" fill="#009C22" d="M0-1.3c3.1 0 4.7-1.6 4.7-3 0-2.6-2.6-3.9-3.5-4.2-1.1-.4-1.2-1.4-1.2-1.4s-.1 1-1.3 1.5c-.9.3-3.5 1.6-3.5 4.2.1 1.3 1.7 2.9 4.8 2.9z"/><path fill-rule="evenodd" clip-rule="evenodd" fill="#006F20" d="M0-1.3v-8.6s-.1 1-1.3 1.5c-.9.3-3.5 1.6-3.5 4.2.1 1.3 1.7 2.9 4.8 2.9z"/><path fill-rule="evenodd" clip-rule="evenodd" fill="#F40D1D" d="M3.5-2.2h-7v8.7l3.5 3.4 3.5-3.4z"/><path fill-rule="evenodd" clip-rule="evenodd" fill="#AC0019" d="M0-2.2h-3.5v8.7l3.5 3.4z"/><path stroke="#000" stroke-width=".35" stroke-linecap="round" stroke-linejoin="round" stroke-miterlimit="10" fill="none" d="M0-9.9v6.9M0 9.9v-11.8"/><path fill-rule="evenodd" clip-rule="evenodd" fill="#fe0" d="M3.5-1.2v-1.1c-.8-.4-2.1-.7-3.5-.7s-2.7.3-3.5.7v1.1c.8-.4 2-.7 3.5-.7s2.7.3 3.5.7z"/><path clip-rule="evenodd" stroke="#000" stroke-width=".35" stroke-linecap="round" stroke-linejoin="round" stroke-miterlimit="10" d="M-3.5-2.2v8.7l3.5 3.4 3.5-3.5v-8.7c.8-.6 1.3-1.3 1.3-2 0-2.6-2.6-3.9-3.5-4.2-1.2-.4-1.3-1.4-1.3-1.4s-.1 1-1.3 1.5c-.9.3-3.5 1.6-3.5 4.2.1.6.5 1.4 1.3 2z" fill="none"/><path clip-rule="evenodd" stroke="#000" stroke-width=".25" stroke-linecap="round" stroke-miterlimit="10" d="M3.5-2.3c-.8-.4-2.1-.7-3.5-.7s-2.7.3-3.5.7" fill="none"/></symbol><symbol id="a" viewBox="-6.7 -8.5 13.4 17"><path fill-rule="evenodd" clip-rule="evenodd" fill="#009915" d="M0 8.3c1.5-1.4 2.4-2.2 2.5-2.5.4-.8.5-1.8.3-3l1.2 1.7.8-1.1c.5-.8.8-1.4.9-1.8.2-.9-.1-2-.9-3.3l1.6.9c.1-2.4-.1-4-.4-4.7-.3-.6-1.1-1-2.3-1.2l1.8-.6c-.8-.7-1.8-1-2.8-1-.1 0-.4.3-1 .8-.4.4-.8.3-1.2-.3h-1c-.4.6-.8.6-1.2.2-.6-.6-.9-.8-1-.8-1 0-2 .4-2.9 1.1l1.8.6c-1.2.2-2 .6-2.3 1.3-.2.5-.4 1.4-.4 2.8v2l1.6-.9c-.8 1.3-1 2.4-.9 3.3.1.4.4 1 .9 1.8.3.4.6.7.8 1.1l1.2-1.7c-.1 1 0 2 .4 2.8.1.3 1 1.1 2.5 2.5z"/><path fill-rule="evenodd" clip-rule="evenodd" fill-opacity=".298" d="M-4.9 3.5c.3.4.6.7.8 1.1l1.2-1.7c-.1 1.1 0 2.1.4 2.9.2.3 1 1.2 2.6 2.5v-16h-.5c-.4.5-.8.6-1.2.2-.6-.5-.9-.8-1-.8-1 0-2 .4-2.9 1.1l1.8.6c-1.2.2-2 .6-2.3 1.3-.3.4-.5 1.3-.5 2.7v2l1.6-.9c-.8 1.3-1 2.4-.9 3.3.1.3.4.9.9 1.7z"/><path clip-rule="evenodd" stroke="#000" stroke-width=".031" stroke-linecap="round" stroke-linejoin="round" stroke-miterlimit="3" d="M-4.9 3.5c-.5-.8-.8-1.4-.9-1.8-.2-.9.1-2 .9-3.3l-1.6.9v-2c0-1.3.2-2.2.4-2.7.4-.7 1.1-1.2 2.3-1.3l-1.8-.6c.9-.7 1.9-1 2.9-1 .1 0 .4.3 1 .8.4.4.8.3 1.2-.2h.5v16c-1.5-1.4-2.4-2.2-2.6-2.5-.3-.8-.4-1.8-.3-3l-1.2 1.7c-.2-.3-.5-.7-.8-1z" fill="none"/><path clip-rule="evenodd" stroke="#151215" stroke-width=".35" d="M0 8.3c-1.5-1.4-2.4-2.2-2.6-2.5-.3-.8-.4-1.8-.3-3l-1.2 1.7c-.2-.3-.5-.7-.8-1.1-.5-.8-.8-1.4-.9-1.8-.2-.9.1-2 .9-3.3l-1.6.9v-2c0-1.2.2-2.1.4-2.6.4-.7 1.1-1.2 2.3-1.3l-1.8-.6c.9-.7 1.9-1 2.9-1 .1 0 .4.3 1 .8.4.4.8.3 1.2-.2h1c.4.6.8.6 1.2.2.6-.6.9-.8 1-.8 1 0 2 .4 2.9 1.1l-1.9.5c1.2.2 2 .6 2.3 1.3.4.7.5 2.3.4 4.7l-1.5-.9c.8 1.3 1 2.4.9 3.3-.1.4-.4 1-.9 1.8l-.8 1-1.3-1.7c.2 1.2.1 2.2-.3 3-.1.3-1 1.1-2.5 2.5z" fill="none"/></symbol><symbol id="d" viewBox="-4.3 -5.5 8.6 10.9"><path fill-rule="evenodd" clip-rule="evenodd" fill="#009915" d="M0 5.2c1-.9 1.5-1.4 1.6-1.6.2-.5.3-1.1.2-1.9l.8 1.1.5-.7c.3-.5.5-.9.6-1.1 0-.5-.1-1.2-.6-2l1 .6c0-1.5 0-2.5-.3-3-.2-.4-.7-.7-1.4-.8l1.1-.4c-.6-.5-1.2-.7-1.8-.7-.1 0-.3.2-.7.5-.2.3-.4.2-.7-.1h-.6c-.2.3-.5.4-.7.1-.4-.3-.6-.5-.6-.5-.6 0-1.2.2-1.8.7l1.1.4c-.7.1-1.2.4-1.5.8-.2.3-.3.9-.3 1.7v1.2l1-.6c-.5.8-.7 1.5-.5 2.1 0 .2.2.6.6 1.1l.5.7.8-1.1c-.1.7 0 1.4.2 1.9 0 .2.5.8 1.5 1.6z"/><path fill-rule="evenodd" clip-rule="evenodd" fill-opacity=".298" d="M-3.1 2.2c.2.2.4.5.5.7l.8-1.1c-.1.8-.1 1.4.2 1.9.1.1.6.6 1.6 1.5v-10.1h-.3c-.3.3-.5.4-.7.1-.4-.3-.6-.5-.7-.5-.6 0-1.2.2-1.8.7l1.1.4c-.7.1-1.2.4-1.4.8-.2.3-.3.9-.4 1.7v1.3l1-.6c-.5.8-.7 1.5-.6 2 .2.3.4.7.7 1.2z"/><path clip-rule="evenodd" stroke="#151215" stroke-width=".35" d="M0 5.2c-1-.9-1.5-1.4-1.6-1.6-.2-.5-.3-1.1-.2-1.9l-.8 1.1c-.1-.2-.3-.4-.5-.7-.3-.5-.5-.9-.6-1.1-.1-.5.1-1.2.6-2l-1 .6v-1.2c0-.9.1-1.5.3-1.7.2-.4.7-.7 1.5-.8l-1.1-.4c.4-.6 1-.8 1.7-.8.1 0 .3.2.6.5.2.2.5.2.7-.1h.6c.4.3.6.4.8.1.4-.3.6-.5.6-.5.6 0 1.2.2 1.8.7l-1 .4c.7.1 1.2.4 1.5.8.2.4.3 1.4.3 3l-1.1-.6c.5.8.7 1.5.5 2.1 0 .2-.2.6-.6 1.1l-.4.6-.8-1.1c.1.7 0 1.4-.2 1.9-.1.2-.6.8-1.6 1.6z" fill="none"/></symbol><symbol id="f" viewBox="-31.4 3 62.7 60.1"><g clip-rule="evenodd"><path fill-rule="evenodd" fill="#090" d="M-.1 40.3v-.3.3c.5 1.2 1.7 2.1 3.8 2.7 2.2.7 5.5 1 9.9 1 .1 0 .1-.2 0-.8-4.9 0-8.3-.4-10.1-1.1-1.1-.5-2-1.1-2.7-2-.4-.4-.6-.8-.8-1.1 0 .5-.1.8-.1 1 0-.2 0-.5-.1-1-.1.3-.4.7-.8 1.1-.7.9-1.6 1.5-2.7 2-1.8.7-5.1 1.1-10.1 1.1-.1.6-.1.8 0 .8 4.4 0 7.6-.3 9.9-1 2.1-.6 3.4-1.5 3.8-2.7zm.9-9.1c-.4-.4-.6-.8-.8-1.1 0 .5-.1.8-.1 1 0-.2 0-.5-.1-1-.1.3-.4.7-.8 1.1-.7.9-1.6 1.5-2.7 2-1.8.7-5.1 1.1-10.1 1.1-.1.6-.1.8 0 .8 4.4 0 7.6-.3 9.9-1 2.1-.6 3.3-1.5 3.8-2.7.5 1.2 1.7 2.1 3.8 2.7 2.2.7 5.5 1 9.9 1 .1 0 .1-.2 0-.8-4.9 0-8.3-.4-10.1-1.1-1.1-.5-2-1.2-2.7-2zm-.9.2v-.3.3zm-2-6.9c1-.5 1.7-1.2 2-2 .5 1.2 1.7 2.1 3.8 2.7 2.2.7 5.5 1 9.9 1 .1 0 .1-.2 0-.8-4.9 0-8.3-.4-10.1-1.1-1.1-.5-2-1.1-2.7-2-.4-.4-.6-.8-.8-1.1 0 .5-.1.8-.1 1 0-.2 0-.5-.1-1-.1.3-.4.7-.8 1.1-.3.4-.7.8-1.1 1.1-.5.4-1 .7-1.6.9-.1.1-.3.1-.5.2-1.9.6-5.1.9-9.6.9-.1.6-.1.8 0 .8 4.2 0 7.4-.3 9.6-.9l.3-.1c.7-.2 1.3-.5 1.8-.7zm2-2v-.3.3zm-13.6-5.3c4.4 0 7.6-.3 9.9-1 2.1-.6 3.3-1.5 3.8-2.7.5 1.2 1.7 2.1 3.8 2.7 2.2.7 5.5 1 9.9 1 .1 0 .1-.2 0-.8-4.9 0-8.3-.4-10.1-1.1-1.1-.5-2-1.1-2.7-2-.4-.4-.6-.8-.8-1.1 0 .5-.1.8-.1 1 0-.2 0-.5-.1-1-.1.3-.4.7-.8 1.1-.7.9-1.6 1.5-2.7 2-1.8.7-5.1 1.1-10.1 1.1-.1.6-.1.8 0 .8zm13.6-3.7v-.3.3z"/><path stroke="#000" stroke-width=".35" stroke-linecap="round" stroke-linejoin="round" stroke-miterlimit="3" d="M-.1 40c.1-.2.1-.5.1-1 .1.3.4.7.8 1.1.7.9 1.6 1.5 2.7 2 1.8.7 5.1 1.1 10.1 1.1.1.6.1.8 0 .8-4.4 0-7.6-.3-9.9-1-2.1-.6-3.3-1.5-3.8-2.7v-.3c0-.2 0-.5-.1-1-.1.3-.4.7-.8 1.1-.7.9-1.6 1.5-2.7 2-1.8.7-5.1 1.1-10.1 1.1-.1.6-.1.8 0 .8 4.4 0 7.6-.3 9.9-1 2.1-.6 3.3-1.5 3.8-2.7m.9-9.1c-.4-.4-.6-.8-.8-1.1 0 .5-.1.8-.1 1 0-.2 0-.5-.1-1-.1.3-.4.7-.8 1.1-.7.9-1.6 1.5-2.7 2-1.8.7-5.1 1.1-10.1 1.1-.1.6-.1.8 0 .8 4.4 0 7.6-.3 9.9-1 2.1-.6 3.3-1.5 3.8-2.7.5 1.2 1.7 2.1 3.8 2.7 2.2.7 5.5 1 9.9 1 .1 0 .1-.2 0-.8-4.9 0-8.3-.4-10.1-1.1-1.1-.5-2-1.2-2.7-2zm-.9.2v-.3m-2-6.6c1-.5 1.7-1.2 2-2 .5 1.2 1.7 2.1 3.8 2.7 2.2.7 5.5 1 9.9 1 .1 0 .1-.2 0-.8-4.9 0-8.3-.4-10.1-1.1-1.1-.5-2-1.1-2.7-2-.4-.4-.6-.8-.8-1.1 0 .5-.1.8-.1 1 0-.2 0-.5-.1-1-.1.3-.4.7-.8 1.1-.3.4-.7.8-1.1 1.1-.5.4-1 .7-1.6.9-.1.1-.3.1-.5.2-1.9.6-5.1.9-9.6.9-.1.6-.1.8 0 .8 4.2 0 7.4-.3 9.6-.9l.3-.1c.7-.2 1.3-.5 1.8-.7zm2-2v-.3m-13.6-5c4.4 0 7.6-.3 9.9-1 2.1-.6 3.3-1.5 3.8-2.7.5 1.2 1.7 2.1 3.8 2.7 2.2.7 5.5 1 9.9 1 .1 0 .1-.2 0-.8-4.9 0-8.3-.4-10.1-1.1-1.1-.5-2-1.1-2.7-2-.4-.4-.6-.8-.8-1.1 0 .5-.1.8-.1 1 0-.2 0-.5-.1-1-.1.3-.4.7-.8 1.1-.7.9-1.6 1.5-2.7 2-1.8.7-5.1 1.1-10.1 1.1-.1.6-.1.8 0 .8zm13.6-3.7v-.3" fill="none"/></g><g clip-rule="evenodd"><path fill-rule="evenodd" fill="#F40D1D" d="M.9 5.2h-1.8v36.7l.9 5.6.9-5.5v-36.8zm-.9 42.3v-42.3 42.3z"/><path stroke="#000" stroke-width=".35" stroke-linecap="round" stroke-linejoin="round" stroke-miterlimit="3" d="M.9 5.2h-1.8v36.7l.9 5.6.9-5.5v-36.8zm-.9 42.3v-42.3" fill="none"/></g><path fill-rule="evenodd" clip-rule="evenodd" fill="#9f0" d="M-9.5 46.6l1.6-2.4 1.8-1.2-2.3.9-1.9 2.1-.8 3.2-3.5 3.8 4.5-1.4v-1.3l.5.6 1.1-3z"/><path d="M-14.6 53l4.4-1.4v-1.4l.6.6 1.1-2.9-1.1-1.3 1.7-2.4 1.8-1.2-2.3.9-1.9 2.1-.8 3.2-3.5 3.8m0 .4c-.1 0-.2-.1-.3-.2-.1-.1-.1-.3 0-.4l3.4-3.8.8-3.1c0-.1 0-.1.1-.1l1.9-2.1.1-.1 2.3-.9h.1c.1 0 .3.1.3.2.1.2 0 .4-.1.4l-1.7 1.2-1.5 2.1.9 1.1c.1.1.1.2.1.3l-1.1 3c0 .1-.1.2-.3.2h-.1c-.1 0-.1 0-.2-.1v.5c0 .2-.1.3-.2.3l-4.4 1.4c0 .1 0 .1-.1.1z"/><path fill-rule="evenodd" clip-rule="evenodd" fill="#9f0" d="M-6.1 40.6l.2.2 1.6 1.4h.9l-1.3-1.9 1.1-.9v-1.4h-1.7l-.8-2.2-.5 3.2z"/><path d="M-3.4 42.2m0 0l-1.4-1.9 1.1-.9v-1.4h-1.7l-.8-2.2-.4 3.2.5 1.6.2.2 1.6 1.4h.9m0 .3h-.9c-.1 0-.2 0-.2-.1l-1.6-1.4-.2-.2s-.1-.1-.1-.2l-.5-1.6v-.1l.5-3.2c0-.2.2-.3.3-.3.1 0 .3.1.3.2l.7 2h1.5c.2 0 .4.2.4.4v1.4l-.1.3-.9.6 1.1 1.6.1.3c0 .2-.2.3-.4.3z"/><path fill-rule="evenodd" clip-rule="evenodd" fill="#f00" d="M-.7 21.3l-2.3 2.7h-3.2l.7 1.2 2.7.6 2.1-1.8z"/><path d="M-2.8 25.8l2.1-1.9v-2.6l-2.3 2.7h-3.2l.7 1.2 2.7.6m0 .4l-2.8-.6c-.1 0-.2-.1-.2-.2l-.7-1.2c-.1-.1-.1-.2 0-.3.1-.1.2-.2.3-.2h3.1l2.2-2.6c0-.1.1-.1.2-.1h.1c.1.1.2.2.2.3v2.7c0 .1 0 .2-.1.3l-2.1 1.9h-.2z"/><path fill-rule="evenodd" clip-rule="evenodd" fill="#9f0" d="M-5.6 23.5l3 2.4-3.8-1-2.1-1.6.9-.9-.1-.5 1.7-.8z"/><path d="M-2.6 25.9m0 0l-3-2.5-.4-2.3-1.8.8.1.6-.9.8 2.1 1.6 3.9 1m0 .4h-.1l-3.8-1s-.1 0-.1-.1l-2.1-1.6c-.1-.1-.1-.2-.1-.3 0-.1 0-.2.1-.3l.7-.7-.1-.4c0-.2.1-.3.2-.4l1.8-.8h.30000000000000004c.1.1.2.1.2.3l.4 2.2 2.9 2.4c.1.1.1.2.1.3 0 .2-.2.4-.4.4z"/><path fill-rule="evenodd" clip-rule="evenodd" fill="#f00" d="M.5 21.3l2.2 2.7h3.1l-.7 1.2-2.6.6-2-1.8z"/><path d="M2.5 25.8l2.6-.6.7-1.2h-3.1l-2.2-2.7v2.7l2 1.8m0 .4c-.1 0-.2 0-.2-.1l-2-1.9c-.1-.1-.1-.2-.1-.3v-2.6c0-.1.1-.3.2-.3h.1c.1 0 .2 0 .3.1l2.1 2.6h2.9c.1 0 .2.1.3.2.1.1.1.2 0 .3l-.6 1.2c0 .1-.1.2-.2.2l-2.8.6z"/><path fill-rule="evenodd" clip-rule="evenodd" fill="#9f0" d="M5.4 23.4l-2.9 2.5 3.6-1 2-1.6-.8-.9.1-.6-1.7-.7z"/><path d="M2.5 25.9l3.6-1 2-1.6-.9-.8.1-.6-1.7-.7-.4 2.3-2.7 2.4m0 .4c-.1 0-.2-.1-.3-.2-.1-.1 0-.3.1-.4l2.7-2.4.4-2.3c0-.1.1-.2.2-.3h.30000000000000004l1.7.7c.1.1.2.2.2.4l-.1.4.7.8c.1.1.1.2.1.3l-.1.3-2 1.6-.1.1-3.8 1z"/><path fill-rule="evenodd" clip-rule="evenodd" fill="#f00" d="M-8.6 11.3l2.8-1.9v2.3l1.3 1.2.3.1 1 .3-1.3-2.5.3-1.8 1.9-2.1h-2.2l-5 3.7z"/><path d="M-3.2 13.3m0 0l-1.3-2.5.3-1.8 2-2.1h-2.3l-4.9 3.7.9.7 2.8-1.9v2.3l1.3 1.2.3.1.9.3m0 .3h-.1l-1-.3-.3-.1c-.1 0-.1 0-.1-.1l-1.3-1.1c-.1-.1-.1-.2-.1-.3v-1.6l-2.3 1.5-.2.1c-.1 0-.2 0-.2-.1l-.9-.7c-.1-.1-.1-.2-.1-.3l.1-.3 4.9-3.7.2-.1h2.3c.2.1.3.2.3.3.1.1 0 .3-.1.4l-1.9 2-.2 1.6 1.2 2.3.1.2c0 .2-.1.3-.3.3z"/><path fill-rule="evenodd" clip-rule="evenodd" fill="#9f0" d="M-12.1 7l1.8 3.5 1.4.7h.3l-.9-4.4.9-3.3-1.9 1-4.4-1.1z"/><path d="M-8.6 11.2m0 0l-.9-4.4.9-3.3-1.8 1-4.5-1.2 2.8 3.6 1.8 3.6 1.4.6h.3m0 .4h-.4l-1.4-.6c-.1 0-.1-.1-.2-.2l-1.8-3.5-2.8-3.6c-.1-.1-.1-.3 0-.4.1-.1.2-.2.3-.2h.1l4.3 1.2 1.7-1h.2c.1 0 .2 0 .2.1.1.1.2.2.1.4l-.8 3.2.8 4.3v.1c0 .1-.2.2-.3.2z"/><path fill-rule="evenodd" clip-rule="evenodd" fill="#f00" d="M8.6 11.3l-2.8-1.9v2.3l-1.3 1.2-.3.1-1 .3 1.3-2.5-.3-1.8-1.9-2.1h2.2l5 3.7z"/><path d="M3.2 13.3l1-.3.3-.1 1.3-1.2v-2.3l2.8 1.9.9-.7-5-3.7h-2.2l2 2.1.3 1.8-1.4 2.5m0 .3c-.1 0-.2 0-.3-.1-.1-.1-.1-.3 0-.4l1.2-2.4-.2-1.5-1.9-2c-.1-.1-.1-.3 0-.4 0-.1.1-.2.3-.2h2.3c.1 0 .1 0 .2.1l4.9 3.7c.1.1.1.2.1.3 0 .1 0 .2-.1.3l-.9.7c-.1.1-.1.1-.2.1s-.1 0-.2-.1l-2.3-1.5v1.6c0 .1 0 .2-.1.3l-1.3 1.2-.1.1-.3.1-1 .3c0-.2-.1-.2-.1-.2z"/><path fill-rule="evenodd" clip-rule="evenodd" fill="#9f0" d="M12.1 7l-1.8 3.5-1.4.7h-.3l.9-4.4-.9-3.3 1.9 1 4.4-1.1z"/><path d="M8.9 11.2l1.4-.6 1.8-3.6 2.8-3.6-4.5 1.2-1.8-1 .9 3.3-.9 4.4h.3m0 .2h-.3c-.1 0-.2 0-.3-.1-.1-.1-.1-.2-.1-.3l.8-4.3-.7-3.2c0-.1 0-.3.1-.4l.2-.1h.2l1.7 1 4.3-1.1h.1c.1 0 .2.1.3.2.1.1.1.3 0 .4l-2.8 3.6-1.8 3.5c0 .1-.1.1-.2.2l-1.4.6h-.1z"/><path fill-rule="evenodd" clip-rule="evenodd" fill="#9f0" d="M-2.3 15.4l.7-3.8 1 3.8-.4 2.6-1.1-.3-.5.4-1.5-1.2z"/><path d="M-2.6 18.1l.5-.4 1.1.3.3-2.6-1-3.8-.7 3.8-1.9 1.5 1.7 1.2m0 .3c-.1 0-.1 0-.2-.1l-1.5-1.1c-.1-.1-.1-.2-.1-.3 0-.1 0-.2.1-.3l1.8-1.4.6-3.7c0-.2.2-.3.3-.3.2 0 .3.1.3.3l1 3.8v.1l-.3 2.6c0 .1-.1.2-.2.2l-.2.1h-.1l-1-.3-.3.3c0 .1-.1.1-.2.1z"/><path fill-rule="evenodd" clip-rule="evenodd" fill="#9f0" d="M2.2 15.3l-.7-3.8-.9 3.8.3 2.6 1.2-.3.4.4 1.5-1.2z"/><path d="M2.5 18l1.5-1.2-1.9-1.5-.7-3.8-1 3.8.3 2.6 1.2-.3.6.4m0 .3c-.1 0-.2 0-.2-.1l-.3-.2-1 .3h-.1c-.1 0-.1 0-.2-.1l-.2-.2-.3-2.6v-.1l1-3.8c0-.2.2-.3.3-.3.2 0 .3.1.3.3l.6 3.7 1.8 1.4c.1.1.1.2.1.3l-.1.3-1.5 1.1h-.2z"/><path fill-rule="evenodd" clip-rule="evenodd" fill="#9f0" d="M5.7 40.6l-.2.2-1.6 1.4h-.9l1.4-1.9-1.2-.9v-1.4h1.7l.8-2.2.5 3.2z"/><path d="M3.9 42.2l1.6-1.4.2-.2.5-1.6-.5-3.2-.8 2.2h-1.7v1.4l1.1.9-1.3 1.9h.9m0 .3h-.9c-.1 0-.3-.1-.3-.2-.1-.1-.1-.3 0-.4l1.2-1.6-.9-.6c-.1-.1-.1-.2-.1-.3v-1.4c0-.2.2-.4.4-.4h1.5l.7-2c.1-.1.2-.2.3-.2.2 0 .3.1.3.3l.4 3.3v.1l-.5 1.6c0 .1 0 .1-.1.2l-.1.1-1.6 1.4c-.1.1-.2.1-.3.1z"/><path fill-rule="evenodd" clip-rule="evenodd" fill="#9f0" d="M10.7 49.2l3.5 3.8-4.4-1.4v-1.3l-.6.6-1.1-3 1.1-1.3-1.7-2.4-1.8-1.2 2.4.9 1.8 2.1z"/><path d="M14.2 53m0 0l-3.4-3.8-.9-3.2-1.9-2.1-2.3-.9 1.8 1.2 1.7 2.4-1.1 1.3 1.1 2.9.6-.6v1.4l4.4 1.4m0 .4h-.1l-4.5-1.4c-.1 0-.2-.2-.2-.3v-.5l-.2.1h-.1c-.1 0-.2-.1-.3-.2l-1.1-2.9c0-.1 0-.2.1-.3l.9-1.1-1.5-2.1-1.7-1.2c-.1-.1-.2-.3-.1-.4.1-.1.2-.2.3-.2h.1l2.3.9c.1 0 .1.1.1.1l1.9 2.1.1.1.8 2.9 3.4 3.7c.1.1.1.2.1.3 0 .2-.1.4-.3.4z"/><path fill-rule="evenodd" clip-rule="evenodd" fill="#ff0" d="M-2.6 31.7l2.6 3.9 2.6-3.9-1-1.9h-3.3l-.9 1.9zm.9-.6l.7-1.2h2.1l.6 1.2-1.7 2.6-1.7-2.6z"/><path fill-rule="evenodd" clip-rule="evenodd" fill="#090" d="M-1.7 31.1l1.7 2.6 1.7-2.6-.6-1.2h-2.2z"/><path d="M0 35.6l2.6-3.9-1-1.9h-3.3l-1 1.9 2.7 3.9m0 .4c-.1 0-.2-.1-.3-.2l-2.6-3.9c-.1-.1-.1-.2 0-.4l1-1.9c.1-.1.2-.2.3-.2h3.3c.1 0 .2.1.3.2l1 1.9c.1.1.1.2 0 .4l-2.6 3.9c-.2.1-.3.2-.4.2z"/><path fill-rule="evenodd" clip-rule="evenodd" fill="#ff0" d="M-2 5.7l2 3.9 1.9-3.9-.7-1.8h-2.4l-.8 1.8zm.7-.6l.5-1.2h1.6l.5 1.2-1.3 2.5-1.3-2.5z"/><path fill-rule="evenodd" clip-rule="evenodd" fill="#090" d="M-1.3 5.1l1.3 2.5 1.3-2.5-.5-1.2h-1.6z"/><path d="M0 9.6l1.9-3.9-.7-1.8h-2.4l-.8 1.8 2 3.9m0 .4c-.1 0-.3-.1-.3-.2l-2-3.9c0-.1-.1-.2 0-.3l.8-1.9c.1-.1.2-.2.3-.2h2.4c.1 0 .3.1.3.2l.7 1.9v.3l-1.9 3.9c0 .1-.1.2-.3.2z"/><path fill-rule="evenodd" clip-rule="evenodd" fill="#ff0" d="M2.4 9l-2.4 4.3-2.4-4.3.9-2h3l.9 2zm1.3 1l-1.4-3.1h-4.6l-1.4 3.1 3.7 6.6 3.7-6.6z"/><path fill-rule="evenodd" clip-rule="evenodd" fill="#090" d="M2.4 9l-.9-2h-3l-.9 2 2.4 4.3z"/><path d="M0 16.6l3.7-6.6-1.4-3.1h-4.6l-1.4 3.1 3.7 6.6m0 .4c-.1 0-.2-.1-.3-.2l-3.7-6.6c-.1-.1-.1-.2 0-.3l1.4-3.1c.1-.1.2-.2.3-.2h4.6c.1 0 .3.1.3.2l1.4 3.1v.3l-3.7 6.6c0 .1-.2.2-.3.2z"/><use xlink:href="#a" width="13.4" height="17" x="-6.7" y="-8.5" transform="matrix(0 1.1 -1.1 0 -22 16.875)" overflow="visible"/><use xlink:href="#a" width="13.4" height="17" x="-6.7" y="-8.5" transform="matrix(0 1.1 -1.1 0 -22 25.7)" overflow="visible"/><use xlink:href="#a" width="13.4" height="17" x="-6.7" y="-8.5" transform="matrix(0 1.1 -1.1 0 -22 34.575)" overflow="visible"/><use xlink:href="#a" width="13.4" height="17" x="-6.7" y="-8.5" transform="matrix(0 1.1 -1.1 0 -22 43.45)" overflow="visible"/><use xlink:href="#a" width="13.4" height="17" x="-6.7" y="-8.5" transform="matrix(0 1.1 1.1 0 22 16.875)" overflow="visible"/><use xlink:href="#a" width="13.4" height="17" x="-6.7" y="-8.5" transform="matrix(0 1.1 1.1 0 22 25.7)" overflow="visible"/><use xlink:href="#a" width="13.4" height="17" x="-6.7" y="-8.5" transform="matrix(0 1.1 1.1 0 22 34.575)" overflow="visible"/><use xlink:href="#a" width="13.4" height="17" x="-6.7" y="-8.5" transform="matrix(0 1.1 1.1 0 22 43.45)" overflow="visible"/><use xlink:href="#a" width="13.4" height="17" x="-6.7" y="-8.5" transform="matrix(1.1 0 0 1.1 0 53.7)" overflow="visible"/></symbol><symbol viewBox="-8.2 -7.9 16.3 15.8"><path fill-rule="evenodd" clip-rule="evenodd" fill="#E61616" d="M6.5 6.8c1.1-.8 1.6-2 1.5-3.6-.1-1.6-.7-3-2-4.4-1.2-1.4-3.2-3.5-6-6.4-2.8 2.9-4.8 5.1-6 6.4-1.2 1.4-1.9 2.9-2 4.4-.1 1.6.4 2.8 1.5 3.6 1 .8 2.1 1.1 3.3.8 1.2-.1 2.3-.8 3.2-1.8 1 1 2 1.7 3.2 1.8 1.2.3 2.3 0 3.3-.8z"/><path fill-rule="evenodd" clip-rule="evenodd" fill-opacity=".298" d="M0-7.6v13.4c1 1 2 1.6 3.2 1.8 1.2.2 2.3-.1 3.3-.8 1.1-.8 1.6-2 1.5-3.6-.1-1.6-.7-3-2-4.4-1.2-1.4-3.2-3.5-6-6.4z"/><path clip-rule="evenodd" stroke="#151215" stroke-width=".1" stroke-linecap="round" stroke-linejoin="round" stroke-miterlimit="3" d="M0-7.6c2.8 2.9 4.8 5.1 6 6.4 1.2 1.4 1.9 2.9 2 4.4.1 1.6-.4 2.8-1.5 3.6-1 .8-2.1 1.1-3.3.8-1.2-.2-2.2-.8-3.2-1.8v-13.4z" fill="none"/><path clip-rule="evenodd" stroke="#151215" stroke-width=".35" d="M6.5 6.8c-1 .8-2.1 1.1-3.3.8-1.2-.1-2.2-.8-3.2-1.8-.9 1.1-2 1.7-3.2 1.9-1.2.2-2.3-.1-3.3-.8-1.1-.9-1.6-2.1-1.5-3.7.1-1.6.8-3 2-4.4 1.2-1.4 3.2-3.5 6-6.4 2.8 2.9 4.8 5.1 6 6.4 1.2 1.4 1.9 2.9 2 4.4.1 1.6-.4 2.8-1.5 3.6z" fill="none"/></symbol><symbol id="c" viewBox="-49 -74 98 148"><path fill="#F0F7E6" d="M48-68.5c0-3-2.5-5.5-5.5-5.5h-86c-3 0-5.5 2.5-5.5 5.5v136c0 3 2.5 5.5 5.5 5.5h86c3 0 5.5-2.5 5.5-5.5v-136z"/><path fill="#000" d="M43 73c2.8 0 5-2.2 5-5v-136c0-2.8-2.2-5-5-5h-86c-2.8 0-5 2.2-5 5v136c0 2.8 2.2 5 5 5h86m0 1h-86c-3.3 0-6-2.7-6-6v-136c0-3.3 2.7-6 6-6h86c3.3 0 6 2.7 6 6v136c0 3.3-2.7 6-6 6z"/></symbol><symbol id="g" viewBox="-41 -66 82 132"><g><g fill-rule="evenodd" clip-rule="evenodd"><path d="M33 66h-66v-1h66zM33-65h-66v-1h66zM-41 37h1v-88h-1zM41-37h-1v88h1zM40-.5h-80v1h80z"/></g></g></symbol><symbol viewBox="-7.7 -10.4 15.4 20.8"><g clip-rule="evenodd"><path fill-rule="evenodd" fill="#fe0" d="M0-5.9l-.4.2-.6-2.1 1-.9 1 .8-.6 2.1-.4-.1zm3-.3l-1.5.2.9-2.1-1.5-1-.9-1-.9 1-1.5 1 .9 2.1-1.5-.2 3 2.2 3-2.2z"/><path stroke="#222123" stroke-width=".35" d="M3-6.2l-3 2.2-3-2.2 1.5.2-.9-2.1 1.5-1 .9-1 .9 1 1.5 1-.9 2.1 1.5-.2zm-3 .3l.4.2.6-2.2-1-.8-1.1.8.6 2.1.5-.1z" fill="none"/></g><use xlink:href="#b" width="15.4" height="15.4" x="-7.7" y="-7.7" transform="translate(0 2.703)" overflow="visible"/></symbol><symbol id="b" viewBox="-7.7 -7.7 15.4 15.4"><path fill-rule="evenodd" clip-rule="evenodd" fill="#F40D1D" d="M6.8 3.3c.5-1 .7-2.1.7-3.3 0-1.2-.2-2.3-.7-3.3-.4-.8-.9-1.5-1.5-2-1.5-1.5-3.2-2.2-5.3-2.2-2 0-3.8.7-5.3 2.1-.7.8-1.2 1.5-1.5 2.1-.5 1-.8 2.1-.8 3.3 0 1.2.3 2.2.8 3.3.4.8.9 1.5 1.5 2.1 1.5 1.4 3.3 2.1 5.3 2.1s3.8-.7 5.3-2.1c.5-.5 1-1.2 1.5-2.1z"/><g clip-rule="evenodd"><path fill-rule="evenodd" fill="#00AFE7" d="M6.8 3.3c-2.4-.5-4.6-.7-6.8-.7s-4.4.2-6.8.7c.4.8.9 1.5 1.5 2.1 1.9-.7 3.7-1.1 5.3-1.1 1.7 0 3.4.4 5.3 1.1.5-.6 1-1.3 1.5-2.1z"/><path stroke="#222123" stroke-width=".35" d="M6.8 3.3c-.5.8-1 1.5-1.5 2.1-1.9-.7-3.6-1.1-5.3-1.1-1.7 0-3.4.4-5.3 1.1-.6-.6-1.1-1.3-1.5-2.1 2.4-.5 4.7-.7 6.8-.7 2.2 0 4.4.2 6.8.7z" fill="none"/><path fill-rule="evenodd" fill="#00AFE7" d="M6.8-3.3c-.4-.8-.9-1.5-1.5-2-1.9.7-3.6 1-5.2 1-1.8 0-3.5-.4-5.3-1.1-.8.8-1.3 1.5-1.6 2.1 2.4.5 4.6.7 6.8.7s4.4-.2 6.8-.7z"/><path stroke="#222123" stroke-width=".35" d="M6.8-3.3c-2.4.5-4.6.7-6.7.7-2.2 0-4.5-.2-6.8-.7.2-.6.7-1.3 1.4-2.1 1.8.8 3.6 1.1 5.3 1.1 1.6 0 3.4-.4 5.2-1.1.7.6 1.2 1.3 1.6 2.1z" fill="none"/></g><g fill-rule="evenodd" clip-rule="evenodd" fill="#fe0"><path d="M7.2 0l-1 1.3-2-.5 1.1.5-.6 1.3-.8-.5.2-.5-1.9-.4-.5-.7-1.7 1.8-1.9-1.8-.5.6-2 .4.4.6-.8.5-.6-1.2 1.2-.5-2 .5-1-1.3 1-1.2 2 .5-1.2-.5.6-1.3.8.4-.3.5 2 .4.5.6 1.8-1.8 1.8 1.8.5-.6 1.9-.4-.3-.5.8-.5.6 1.3-1.2.4 2-.5 1.1 1.3zM1.6-6.8v1.1l-1.6 1.1-1.6-1 .1-1.1-1.4 1.1-1.5-.5c1.4-1 2.8-1.4 4.4-1.4 1.6 0 3 .5 4.4 1.4l-1.5.5-1.3-1.2zM-1.5 6.6l-.1-1.1 1.6-1 1.6 1v1.1l1.4-1.1 1.5.5c-1.3 1-2.8 1.5-4.5 1.5-1.6 0-3.1-.5-4.5-1.5l1.6-.6 1.4 1.2z"/></g><path clip-rule="evenodd" stroke="#1A1A1A" stroke-width=".35" fill="none" d="M0-7.5v15"/><path fill-rule="evenodd" clip-rule="evenodd" fill-opacity=".149" d="M0 7.5v-15h.1c2 0 3.8.7 5.3 2.1.6.8 1.1 1.5 1.4 2.1.5 1 .8 2.1.8 3.3 0 1.2-.3 2.2-.8 3.3-.4.8-.9 1.5-1.5 2.1-1.5 1.4-3.2 2.1-5.3 2.1z"/><path clip-rule="evenodd" stroke="#222123" stroke-width=".35" d="M6.8 3.3c-.5.8-1 1.5-1.5 2.1-1.5 1.4-3.2 2.1-5.3 2.1-2 0-3.8-.7-5.3-2.1-.6-.6-1.1-1.3-1.5-2.1-.5-1-.8-2.1-.8-3.3 0-1.2.3-2.3.8-3.3.3-.6.8-1.3 1.5-2.1 1.5-1.4 3.3-2.1 5.3-2.1 2.1 0 3.8.7 5.3 2.2.6.6 1.1 1.3 1.5 2 .5 1.1.7 2.2.7 3.3 0 1.1-.2 2.2-.7 3.3z" fill="none"/></symbol><use xlink:href="#c" width="98" height="148" x="-49" y="-74" transform="matrix(1 0 0 -1 50 75)" overflow="visible"/><g><g><use xlink:href="#d" width="8.6" height="10.9" x="-4.3" y="-5.5" transform="matrix(-1 0 0 1 90 121.5)" overflow="visible"/><use xlink:href="#d" width="8.6" height="10.9" x="-4.3" y="-5.5" transform="matrix(1 0 0 -1 10 28.5)" overflow="visible"/><use xlink:href="#e" width="5.1" height="12.2" x="-2.6" y="-6.1" transform="matrix(-1 0 0 1 90 136)" overflow="visible"/><use xlink:href="#e" width="5.1" height="12.2" x="-2.6" y="-6.1" transform="matrix(-1 0 0 1 10 136)" overflow="visible"/><use xlink:href="#e" width="5.1" height="12.2" x="-2.6" y="-6.1" transform="matrix(1 0 0 -1 90 14)" overflow="visible"/><use xlink:href="#e" width="5.1" height="12.2" x="-2.6" y="-6.1" transform="matrix(1 0 0 -1 10 14)" overflow="visible"/><use xlink:href="#f" width="62.7" height="60.1" x="-31.4" y="3" transform="matrix(-1 0 0 1 50 75)" overflow="visible"/><use xlink:href="#f" width="62.7" height="60.1" x="-31.4" y="3" transform="matrix(1 0 0 -1 50 75)" overflow="visible"/><use xlink:href="#g" width="82" height="132" x="-41" y="-66" transform="matrix(1 0 0 -1 50 75)" overflow="visible"/></g></g></svg>
