<svg xmlns="http://www.w3.org/2000/svg" xmlns:xlink="http://www.w3.org/1999/xlink" viewBox="0 0 100 150" enable-background="new 0 0 100 150"><symbol viewBox="-4.9 -10.1 9.8 20.2"><path fill-rule="evenodd" clip-rule="evenodd" fill="#009C22" d="M0-1.3c3.1 0 4.7-1.6 4.7-3 0-2.6-2.6-3.9-3.5-4.2-1.1-.4-1.2-1.4-1.2-1.4s-.1 1-1.3 1.5c-.9.3-3.5 1.6-3.5 4.2.1 1.3 1.7 2.9 4.8 2.9z"/><path fill-rule="evenodd" clip-rule="evenodd" fill="#006F20" d="M0-1.3v-8.6s-.1 1-1.3 1.5c-.9.3-3.5 1.6-3.5 4.2.1 1.3 1.7 2.9 4.8 2.9z"/><path fill-rule="evenodd" clip-rule="evenodd" fill="#F40D1D" d="M3.5-2.2h-7v8.7l3.5 3.4 3.5-3.4z"/><path fill-rule="evenodd" clip-rule="evenodd" fill="#AC0019" d="M0-2.2h-3.5v8.7l3.5 3.4z"/><path stroke="#000" stroke-width=".35" stroke-linecap="round" stroke-linejoin="round" stroke-miterlimit="10" fill="none" d="M0-9.9v6.9M0 9.9v-11.8"/><path fill-rule="evenodd" clip-rule="evenodd" fill="#fe0" d="M3.5-1.2v-1.1c-.8-.4-2.1-.7-3.5-.7s-2.7.3-3.5.7v1.1c.8-.4 2-.7 3.5-.7s2.7.3 3.5.7z"/><path clip-rule="evenodd" stroke="#000" stroke-width=".35" stroke-linecap="round" stroke-linejoin="round" stroke-miterlimit="10" d="M-3.5-2.2v8.7l3.5 3.4 3.5-3.5v-8.7c.8-.6 1.3-1.3 1.3-2 0-2.6-2.6-3.9-3.5-4.2-1.2-.4-1.3-1.4-1.3-1.4s-.1 1-1.3 1.5c-.9.3-3.5 1.6-3.5 4.2.1.6.5 1.4 1.3 2z" fill="none"/><path clip-rule="evenodd" stroke="#000" stroke-width=".25" stroke-linecap="round" stroke-miterlimit="10" d="M3.5-2.3c-.8-.4-2.1-.7-3.5-.7s-2.7.3-3.5.7" fill="none"/></symbol><symbol id="h" viewBox="-8.3 -12.6 16.6 25.2"><path fill-rule="evenodd" clip-rule="evenodd" fill="#009915" d="M-1.4-9.8l-.8-.3-1.1 1.5h1.1l.8.4.4.8-1.1.6-1.4-1.1-2 .1.9 1-1.3-.3-.6.3-1.4 2.7 2.3-1.1 3.2-.5 1.6-.8v3.9l.8-.6.3-2-.1-3.2z"/><path clip-rule="evenodd" stroke="#151215" stroke-width=".35" fill="none" d="M-1.4-9.8l-.8-.3-1.1 1.5h1.1l.8.4.4.8-1.1.6-1.4-1.1-2 .1.9 1-1.3-.3-.6.3-1.4 2.7 2.3-1.1 3.2-.5 1.6-.8v3.9l.8-.6.3-2-.1-3.2z"/><path fill-rule="evenodd" clip-rule="evenodd" fill="#F3000B" d="M7.8-6l-2.4-1.4-1.2.4-.4-.3 1.2-.8-2.3-.3-1.6.8-.8-.6.1.9 1.7 2.3 1.4.4-.2-.9 1 .5h.9l1.3-.8z"/><path clip-rule="evenodd" stroke="#151215" stroke-width=".35" fill="none" d="M7.8-6l-1.3.2-1.3.8h-.9l-1-.5.2.9-1.4-.4-1.7-2.3-.1-.9.8.6 1.6-.8 2.3.3-1.2.8.4.3 1.2-.4z"/><path fill-rule="evenodd" clip-rule="evenodd" fill="#FFED00" d="M-2.2-10.1l-2.8-2.3 1.7 3.8z"/><path clip-rule="evenodd" stroke="#151215" stroke-width=".35" fill="none" d="M-2.2-10.1l-2.8-2.3 1.7 3.8z"/><use xlink:href="#a" width="13.4" height="17" x="-6.7" y="-8.5" transform="translate(-.342 4.058)" overflow="visible"/></symbol><symbol id="a" viewBox="-6.7 -8.5 13.4 17"><path fill-rule="evenodd" clip-rule="evenodd" fill="#009915" d="M0 8.3c1.5-1.4 2.4-2.2 2.5-2.5.4-.8.5-1.8.3-3l1.2 1.7.8-1.1c.5-.8.8-1.4.9-1.8.2-.9-.1-2-.9-3.3l1.6.9c.1-2.4-.1-4-.4-4.7-.3-.6-1.1-1-2.3-1.2l1.8-.6c-.8-.7-1.8-1-2.8-1-.1 0-.4.3-1 .8-.4.4-.8.3-1.2-.3h-1c-.4.6-.8.6-1.2.2-.6-.6-.9-.8-1-.8-1 0-2 .4-2.9 1.1l1.8.6c-1.2.2-2 .6-2.3 1.3-.2.5-.4 1.4-.4 2.8v2l1.6-.9c-.8 1.3-1 2.4-.9 3.3.1.4.4 1 .9 1.8.3.4.6.7.8 1.1l1.2-1.7c-.1 1 0 2 .4 2.8.1.3 1 1.1 2.5 2.5z"/><path fill-rule="evenodd" clip-rule="evenodd" fill-opacity=".298" d="M-4.9 3.5c.3.4.6.7.8 1.1l1.2-1.7c-.1 1.1 0 2.1.4 2.9.2.3 1 1.2 2.6 2.5v-16h-.5c-.4.5-.8.6-1.2.2-.6-.5-.9-.8-1-.8-1 0-2 .4-2.9 1.1l1.8.6c-1.2.2-2 .6-2.3 1.3-.3.4-.5 1.3-.5 2.7v2l1.6-.9c-.8 1.3-1 2.4-.9 3.3.1.3.4.9.9 1.7z"/><path clip-rule="evenodd" stroke="#000" stroke-width=".031" stroke-linecap="round" stroke-linejoin="round" stroke-miterlimit="3" d="M-4.9 3.5c-.5-.8-.8-1.4-.9-1.8-.2-.9.1-2 .9-3.3l-1.6.9v-2c0-1.3.2-2.2.4-2.7.4-.7 1.1-1.2 2.3-1.3l-1.8-.6c.9-.7 1.9-1 2.9-1 .1 0 .4.3 1 .8.4.4.8.3 1.2-.2h.5v16c-1.5-1.4-2.4-2.2-2.6-2.5-.3-.8-.4-1.8-.3-3l-1.2 1.7c-.2-.3-.5-.7-.8-1z" fill="none"/><path clip-rule="evenodd" stroke="#151215" stroke-width=".35" d="M0 8.3c-1.5-1.4-2.4-2.2-2.6-2.5-.3-.8-.4-1.8-.3-3l-1.2 1.7c-.2-.3-.5-.7-.8-1.1-.5-.8-.8-1.4-.9-1.8-.2-.9.1-2 .9-3.3l-1.6.9v-2c0-1.2.2-2.1.4-2.6.4-.7 1.1-1.2 2.3-1.3l-1.8-.6c.9-.7 1.9-1 2.9-1 .1 0 .4.3 1 .8.4.4.8.3 1.2-.2h1c.4.6.8.6 1.2.2.6-.6.9-.8 1-.8 1 0 2 .4 2.9 1.1l-1.9.5c1.2.2 2 .6 2.3 1.3.4.7.5 2.3.4 4.7l-1.5-.9c.8 1.3 1 2.4.9 3.3-.1.4-.4 1-.9 1.8l-.8 1-1.3-1.7c.2 1.2.1 2.2-.3 3-.1.3-1 1.1-2.5 2.5z" fill="none"/></symbol><symbol id="d" viewBox="-4.3 -5.5 8.6 10.9"><path fill-rule="evenodd" clip-rule="evenodd" fill="#009915" d="M0 5.2c1-.9 1.5-1.4 1.6-1.6.2-.5.3-1.1.2-1.9l.8 1.1.5-.7c.3-.5.5-.9.6-1.1 0-.5-.1-1.2-.6-2l1 .6c0-1.5 0-2.5-.3-3-.2-.4-.7-.7-1.4-.8l1.1-.4c-.6-.5-1.2-.7-1.8-.7-.1 0-.3.2-.7.5-.2.3-.4.2-.7-.1h-.6c-.2.3-.5.4-.7.1-.4-.3-.6-.5-.6-.5-.6 0-1.2.2-1.8.7l1.1.4c-.7.1-1.2.4-1.5.8-.2.3-.3.9-.3 1.7v1.2l1-.6c-.5.8-.7 1.5-.5 2.1 0 .2.2.6.6 1.1l.5.7.8-1.1c-.1.7 0 1.4.2 1.9 0 .2.5.8 1.5 1.6z"/><path fill-rule="evenodd" clip-rule="evenodd" fill-opacity=".298" d="M-3.1 2.2c.2.2.4.5.5.7l.8-1.1c-.1.8-.1 1.4.2 1.9.1.1.6.6 1.6 1.5v-10.1h-.3c-.3.3-.5.4-.7.1-.4-.3-.6-.5-.7-.5-.6 0-1.2.2-1.8.7l1.1.4c-.7.1-1.2.4-1.4.8-.2.3-.3.9-.4 1.7v1.3l1-.6c-.5.8-.7 1.5-.6 2 .2.3.4.7.7 1.2z"/><path clip-rule="evenodd" stroke="#151215" stroke-width=".35" d="M0 5.2c-1-.9-1.5-1.4-1.6-1.6-.2-.5-.3-1.1-.2-1.9l-.8 1.1c-.1-.2-.3-.4-.5-.7-.3-.5-.5-.9-.6-1.1-.1-.5.1-1.2.6-2l-1 .6v-1.2c0-.9.1-1.5.3-1.7.2-.4.7-.7 1.5-.8l-1.1-.4c.4-.6 1-.8 1.7-.8.1 0 .3.2.6.5.2.2.5.2.7-.1h.6c.4.3.6.4.8.1.4-.3.6-.5.6-.5.6 0 1.2.2 1.8.7l-1 .4c.7.1 1.2.4 1.5.8.2.4.3 1.4.3 3l-1.1-.6c.5.8.7 1.5.5 2.1 0 .2-.2.6-.6 1.1l-.4.6-.8-1.1c.1.7 0 1.4-.2 1.9-.1.2-.6.8-1.6 1.6z" fill="none"/></symbol><symbol id="f" viewBox="-37.2 -0.6 74.3 65.8"><g clip-rule="evenodd"><path fill-rule="evenodd" fill="#fff" d="M5.2 31.5l-6.1 1-6.4 3.6 2.9 3.4 7.7-2 2.8.3 2.5-1.7z"/><path stroke="#151215" stroke-width=".425" fill="none" d="M5.2 31.5l-6.1 1-6.4 3.6 2.9 3.4 7.7-2 2.8.3 2.5-1.7z"/><path fill-rule="evenodd" fill="#F3000B" d="M3.7 32l-5.7 1.5-4.6 4.1 1.3 1.7 8.2-3z"/><path stroke="#151215" stroke-width=".425" fill="none" d="M3.7 32l-5.7 1.5-4.6 4.1 1.3 1.7 8.2-3z"/><path fill-rule="evenodd" fill="#F3000B" d="M4.5 36.3l2.6 1.4.9-1.6-1.9-3.6-1.6-.3z"/><path stroke="#151215" stroke-width=".425" fill="none" d="M4.5 36.3v-4.1l1.6.3 1.9 3.6-.9 1.6z"/><path fill-rule="evenodd" fill="#FFED00" d="M3.2 33l.8-1 .5 1.2.5 3.4 1.7 1 .4-.7-1.5-.8-.5-3.2-1-2.1-1.6 2-.4 2.8-7.5 2.8.2.7 7.9-3z"/></g><path fill-rule="evenodd" clip-rule="evenodd" fill="#005F02" d="M29.7 20.7l4.9-6.2-.6-4.6 2.9-9.9-73.4.1 1.7 4.5-2.1 3.8.4 1.3 15.2 23.3 9.6 2.4 4.9 2.7 5.2-3.9 4.9-1.5 2.4.3 2 3.9 10.7-3.9z"/><path clip-rule="evenodd" stroke="#151215" stroke-width=".425" fill="none" d="M29.7 20.7l4.9-6.2-.6-4.6 2.9-9.9-73.4.1 1.7 4.5-2.1 3.8.4 1.3 15.2 23.3 9.6 2.4 4.9 2.7 5.2-3.9 4.9-1.5 2.4.3 2 3.9 10.7-3.9z"/><g clip-rule="evenodd"><path fill-rule="evenodd" fill="#DDC67B" d="M-25.2 23.2l1 1 1.4-.1.1-.9 2.2-.1-.3-2.5-2.3.1-.6-.9-1.3.1-.3 1-1.5.5.6 2.1z"/><path stroke="#151215" stroke-width=".425" fill="none" d="M-25.2 23.2l1 1 1.4-.1.1-.9 2.2-.1-.3-2.5-2.3.1-.6-.9-1.3.1-.3 1-1.5.5.6 2.1z"/><path fill-rule="evenodd" fill="#F3000B" d="M-24.6 22.8l.8.9.5-1.3-.1-.8-1.1-1-.3 1z"/><path stroke="#151215" stroke-width=".425" fill="none" d="M-24.6 22.8l.8.9.5-1.3-.1-.8-1.1-1-.3 1z"/></g><g clip-rule="evenodd"><path fill-rule="evenodd" fill="#FFED00" d="M-18.6 14l3.6-3.2v-5.7l-2.6 1.8-5.7 1.2-4.1-2-5.3-1.9-1.9 2.5 1.5 2.7.3 3.7 3.8 1.6 3 .2z"/><path stroke="#151215" stroke-width=".425" fill="none" d="M-18.6 14l-7.4.9-3-.2-3.8-1.6-.3-3.7-1.5-2.7 1.9-2.5 5.3 1.9 4.1 2 5.7-1.2 2.6-1.8v5.7zM-32.2 4.9l-.7 1.6 3.1 2.2-.1-2.6 3.4 1.1-1.6 2.6 5.5 1.1-.7-2.1 2.9-.6.7 2.1 3-.5.1-.6"/></g><g clip-rule="evenodd"><path fill-rule="evenodd" fill="#FFED00" d="M33.7 10.1l2.9-2.2-2-3.5-.6 3.2h-1.7l-2.5 1.1-1.6-.3-4.5.3-1 4.1 5.6 4.7 3.7-1.7z"/><path stroke="#151215" stroke-width=".425" fill="none" d="M33.7 10.1l2.9-2.2-2-3.5-.6 3.2h-1.7l-2.5 1.1-1.6-.3-4.5.3-1 4.1 5.6 4.7 3.7-1.7z"/><g stroke="#151215" stroke-width=".425" fill="none"><path d="M35.7 8l-3.6.2-3 1.6 1.5.2-2.8 1.2-2.7-2M28 17l2.9-6.4 1.9-1.4"/></g></g><g clip-rule="evenodd"><path fill-rule="evenodd" fill="#F3000B" d="M-15 10.8l-3.6 3.2-6.9.9-4.1-.2 1.5 2.2 7.3-.1 4.4-2.1z"/><path stroke="#151215" stroke-width=".425" fill="none" d="M-15 10.8l-1.4 3.9-4.4 2.1-7.3.1-1.5-2.2 4.1.2 6.9-.9z"/><path fill-rule="evenodd" fill="#F3000B" d="M22.8 12.9l-1 2.2 5 4.7 1.6-2.3z"/><path stroke="#151215" stroke-width=".425" fill="none" d="M22.8 12.9l-1 2.2 5 4.7 1.6-2.3z"/></g><g clip-rule="evenodd"><path fill-rule="evenodd" fill="#DDC67B" d="M8.7 46l-.4-4 .3-1.6-1-1.6-4.3-1.3-5.8 2-2.2 13.4 4.8.9 9.1-1.1.4-2-.5-1.1v-1.5z"/><path stroke="#151215" stroke-width=".425" fill="none" d="M8.7 46l-.4-4 .3-1.6-1-1.6-4.3-1.3-5.8 2-2.2 13.4 4.8.9 9.1-1.1.4-2-.5-1.1v-1.5z"/><path fill-rule="evenodd" fill="#2A0C09" d="M7.2 45.1l1.2-.1v-.7l-1.2.8zm-2.7-.4l1.2.6 1-.1-1-.4-1.4-1.2-.1-2.6 1.4-1.5 1.4 1.4.7-1.5.9 1.4.6-1.3-.5-1.3-1.2-.2-4.1.1-1.6.5-1.3 1-.8-1.2-3.1.6-3.7.1-2.2 1.3-.8.9.3 2.3 2.3 6 .1 2.1 5.7 1.3v-7.3l.6-3.6.9-.4.5-.7 2-.8 1 1.2.6 2.4.6.9zm2.2.5l.3.1.2-.1h-.5z"/><path stroke="#151215" stroke-width=".425" d="M4.5 44.7l-.7-.9-.6-2.4-1-1.2-2 .8-.5.7-.9.3-.6 3.6v7.3l-5.7-1.3-.1-2.1-2.3-6-.3-2.3.8-.9 2.2-1.3 3.7-.1 3.2-.5.8 1.2 1.3-1 1.6-.5 4.1-.1 1.2.2.5 1.3-.6 1.3-.9-1.4-.7 1.5-1.3-1.4-1.4 1.5.1 2.6 1.4 1.2 1 .4-1 .1-1.3-.6zm2.7.4l1.2-.9v.7l-1.2.2zm-.5.1l.3.1.2-.1h-.5z" fill="none"/><g fill-rule="evenodd"><path d="M5.9 51.3l.7.8.4-.1-1.6-1.6-.2-1-.2-.4-.1 1.3h-.6l-.2-.8h-.9l-.1.8-1.9-.6-.8.7-.2.9.3-.1.3-.7.6-.1 2.1.6h1.5l-1.9.6-1.9-.5-.1.3 2.3.7zM8.2 50.9v-.4l1-.1-.2-.9-.6.1-.3.4.1-2.4.6-1.9-.9-.4-2.8.5 1.2.5.8-.5 1.2.1-.6 1.8v1.7l-.4 1.9 1.8.6.5-1.2zM4.6 43.7l.5.4 1.8-.2 1 .3.6-.4-.1-.5-1 .5-.7-.2zM5.9 43.2l1 .1.7-.4-.7-.6-.5.2z"/></g></g><g fill-rule="evenodd" clip-rule="evenodd" opacity=".5" enable-background="new"><path d="M21.4 0l-31.4.5-2.5 17.4-.7 7.1 3.7-13.4-.6 11.1 4.3-10.3 11.7.4 7.3 11.7 1-15 2.7 6.8.4-8.2zM-29.1 19.8l1.3-2.7 4.9-.4 1.4 3.4 4.7-4.5 1.8-4.8-.4-2-.8 1.5-2.8.3-.6 3.7-1 .2-1.9-5.3.8 5.2-3.8.4-.3-2.8-2.8-2.3 1.6 5-2.4-.5-1.7-2.5-.6 1.7-2.1-2.1zM-33 10.6l-.3-1.6-.9-3.4 1.2-1.2 1.6.3-.9-4.3-2.4.3.6 1.7-2.2 6.8zM24.6 25.1l2.2-5.2-1.6-1.3-1.5 3.4-.7-1.8 2.4-4.1v-6.7l-7.3 8.7-1.6 9.4-3.4-.4.2 2.4-5.8 2.3 1.1 4.2 7.9-3.9z"/></g><g clip-rule="evenodd"><path fill-rule="evenodd" fill="#FFED00" d="M.7 21.1l-.4-.8 1.2.1 4.2-4.8-1.8-1.7-4.8 5.1.2.5-1.1-.2-1 1.1.1.6h-.7l-4.3 5.2-.1.8-1 .2-.5.7.5 1.1-1.1.4-2.7 5.9 2.2.9.7-.6 2.5-4.7-.2-1.1 1.1.1.6-1.6-.4-.9 1.3.4 3.2-4.6-.3-.9 1.3.2z"/><path stroke="#151215" stroke-width=".425" fill="none" d="M.7 21.1l-1.3 1.4-1.3-.2.3.9-3.2 4.6-1.3-.4.4.9-.6 1.6-1.1-.1.2 1.1-2.5 4.7-.7.6-2.2-.9 2.7-5.9 1.1-.4-.5-1.1.5-.7 1-.2.1-.8 4.3-5.2h.7l-.1-.6 1-1.1 1.1.2-.2-.5 4.8-5.1 1.8 1.7-4.2 4.8-1.2-.1z"/><path fill-rule="evenodd" fill="#FFED00" d="M10.1 36.1l2.9-1.1-.5-.1.8-.8v-4.1l-.8-.5.7-.6.1-1.4-.9-.5.6-.7-1.1-4.7-1.2-3-2.1 1.8 1.4 7.2 1 .1-.8.9.1.9 1 .4-1 .6z"/><path stroke="#151215" stroke-width=".425" fill="none" d="M10.1 36.1l.2-5.6 1-.6-1-.4-.1-.9.8-.9-1-.1-1.4-7.2 2.1-1.8 1.2 3 1.1 4.7-.6.7.9.5-.1 1.4-.7.6.8.5v4.1l-.8.8.5.1z"/><path fill-rule="evenodd" fill="#F3000B" d="M-7.9 28.9l1.2-.5-.6-.8-.6.1-.5.5z"/><path stroke="#151215" stroke-width=".425" fill="none" d="M-7.9 28.9l-.5-.7.5-.5.6-.1.6.8z"/><path fill-rule="evenodd" fill="#F3000B" d="M-1.9 21.4l1.2.3.6-.9-1.1-.7-.9.4z"/><path stroke="#151215" stroke-width=".425" fill="none" d="M-1.9 21.4l1.2.3.6-.9-1.1-.7-.9.4z"/><path fill-rule="evenodd" fill="#F3000B" d="M11.2 29l.5.2.8-.5-.1-.7-1 .1z"/><path stroke="#151215" stroke-width=".425" fill="none" d="M11.2 29l.5.2.8-.5-.1-.7-1 .1z"/></g><g clip-rule="evenodd"><path fill-rule="evenodd" fill="#FFED00" d="M7.7 34.9l.2.1-.2.6.2 1.6 1-.7-.2-1.5-.3-.1.2-.4-.5-2.6v-.6l-.7-.4-1.5-1.7-.7-1.2.4-.8.8.3.8-.7-.6-.1-.7-1.1.2-.3.9.9 1.1-1.8-1.4-2.9-1.5-.5-1.4.7-1.6 2.6 1.1 1.8 1.2-.9-.2.8-1.2.9.8.5.5-.4-.1.7.3.3-.6.9-2.7.7h-1.4l-.4.8-.6-.4-3.1 1.8.3.8h-1.3v.7l-.5-.1-2.1 2.6.2.4h-.3l-.9 1.4.9.6 1-1.3-.4-.5h.6l1.9-2 .1-.5 1.1-.2.1-.8 1.1-.1 2.1-1.1.3-.8h1.4l.4-.6 2.1-.5.7.6.8-.4 1 1.1.1.6.3.4h.4l-.2.2z"/><path stroke="#151215" stroke-width=".425" fill="none" d="M7.7 34.9l-.7-2.6.2-.2h-.4l-.3-.4-.1-.6-1-1.1-.8.4-.7-.6-2.1.5-.4.6h-1.4l-.3.8-2.1 1.1-1.1.1-.1.8-1.1.2-.1.5-1.9 2h-.6l.4.5-1 1.3-.9-.6.9-1.4h.3l-.2-.4 2.1-2.6.5.1v-.7h1.3l-.3-.8 3.1-1.8.6.4.4-.8h1.4l2.7-.7.6-.9-.3-.3.1-.7-.5.4-.8-.5 1.2-.9.2-.8-1.2.9-1.1-1.8 1.6-2.6 1.4-.7 1.5.5 1.4 2.9-1.1 1.8-.9-.9-.2.3.7 1.1.6.1-.8.7-.8-.3-.4.8.7 1.2 1.5 1.7.7.4v.6l.5 2.6-.2.4.3.1.2 1.5-1 .7-.2-1.6.2-.6z"/><path fill-rule="evenodd" fill="#F3000B" d="M4.1 24l.8 1.1h.7l.8-.8-.4-1.1-1-.2z"/><path stroke="#151215" stroke-width=".425" fill="none" d="M4.1 24l.8 1.1h.7l.8-.8-.4-1.1-1-.2z"/></g><g clip-rule="evenodd"><path fill-rule="evenodd" fill="#FBF8C7" d="M-23.3 33l2 2.1 2.5-.1 1.5.8 2.4.1 1-.5.6-2.2-.2-2.6v-1.7l-2.8-6.7.8-.9 3.4-2.6 1.1-1.3.4-2.2 1.2-3.7-.4-11.3-1.9-.1-1.1.7-1 9-1.1 3.5-1.5 2.5-2.5 1.7-2.8 2.6 1.1 4 1.4 2.2 1 1.9.2 4.5-1.9-.6-1.3-1.1-.8-1.9-2.9-4.2-1.5-3.2-1-3.7-1.9 1.4-.7 1.5 1.1 2.3.2 2.3 1.2 1.9 1.6 1.4v1.7l1.2.4z"/><path stroke="#151215" stroke-width=".425" fill="none" d="M-23.3 33l-1.4-2.1-1.2-.4v-1.7l-1.6-1.4-1.2-1.9-.2-2.3-1.1-2.3.7-1.5 1.9-1.4 1 3.7 1.5 3.2 2.9 4.2.8 1.9 1.3 1.1 1.9.6-.2-4.5-1-1.9-1.4-2.2-1.1-4 2.8-2.6 2.5-1.7 1.5-2.5 1.1-3.5 1-9 1.1-.7 1.9.1.4 11.3-1.2 3.7-.4 2.2-1.1 1.3-3.4 2.6-.8.9 2.8 6.7v1.7l.2 2.6-.6 2.2-1 .5-2.4-.1-1.5-.8-2.5.1z"/><path fill-rule="evenodd" fill="#FBF8C7" d="M11.8 35.9l1.7.4 8.1-3.1 3.6-6 1.4-1.6-.5-3.5-1.6 2.5-.3-2.4-2-4.2.5-4.9-.3-3.4-.3-.8-1.2-9-2.9.2.1 17.4.5 1.6 1.1 1.8-.8 5.2-2.5 5.7-1.7 2.5-3 1.3z"/><path stroke="#151215" stroke-width=".425" fill="none" d="M11.8 35.9l1.7.4 8.1-3.1 3.6-6 1.4-1.6-.5-3.5-1.6 2.5-.3-2.4-2-4.2.5-4.9-.3-3.4-.3-.8-1.2-9-2.9.2.1 17.4.5 1.6 1.1 1.8-.8 5.2-2.5 5.7-1.7 2.5-3 1.3z"/></g><path fill-rule="evenodd" clip-rule="evenodd" fill="#FBF8C7" d="M11.6 24.2l2.7-.1 1.1-.7.6-1.8-1.1-.8 2.4-1.6-7-3.7.9-2 .4-1.8-.5-1.2-.7.2-.4 1.8-1.1-2.2h-.9l1.1 2.9-.1 1.9-3.2-3.2-2.8-5.1-1.5-4.5-1.7-1.3.2-1.1-1.5.7-3.3 1.3-1.1 2.7z"/><path clip-rule="evenodd" stroke="#151215" stroke-width=".425" fill="none" d="M11.6 24.2l-17.5-19.6 1.1-2.7 3.3-1.3 1.5-.7-.2 1.1 1.7 1.3 1.5 4.5 2.8 5.1 3.2 3.2.1-1.9-1.1-2.9h.9l1.1 2.2.4-1.8.7-.2.5 1.2-.4 1.8-.9 2 7 3.7-2.4 1.6 1.1.8-.6 1.8-1.1.7z"/><g clip-rule="evenodd"><path fill-rule="evenodd" fill="#0075BD" d="M28.5 8.1l1.3.6 2.1-1.2 2.1.1.9-6.4-.1-1.2-5.5-.3z"/><path stroke="#151215" stroke-width=".425" fill="none" d="M28.5 8.1l1.3.6 2.1-1.2 2.1.1.9-6.4-.1-1.2-5.5-.3z"/><path fill-rule="evenodd" fill="#DDC67B" d="M19.3 9.3l3.3-1.5-1.3-5.2-4.9 1.4-2.3-1-3.6-.5-1.3.3-2.4.1-.7.6-1.7.5-.3.5-.7.1-.5.4-.1.4 2.8 2-.9.3-.1.4v.1l2.1 1.5 3.7 1 2.7-.8h1.1l2.5-.7z"/><path stroke="#151215" stroke-width=".425" fill="none" d="M19.3 9.3l-2.6-.1-2.5.7h-1.1l-2.7.8-3.7-1-2.1-1.5v-.1l.1-.4.9-.3-2.8-2 .1-.4.5-.4.7-.1.3-.5 1.7-.5.7-.6 2.4-.1 1.3-.3 3.6.5 2.3 1 4.9-1.4 1.3 5.2z"/><path fill-rule="evenodd" fill="#fff" d="M18.8 10.4l2.3-1.4 4.7-.9 3.1.1 1.5-5.3-.5-3.1-6.9.1-2.1 1.9-3.2.3-.8-.5-.5 1.7 1.2.2 1.9-.5 1 1.7-.8 2.5.8.7-1.4 1.1-.7.4h-.8z"/><path stroke="#151215" stroke-width=".425" fill="none" d="M18.8 10.4l-1.2-1h.8l.7-.4 1.4-1.1-.8-.7.8-2.5-1-1.7-1.9.5-1.2-.2.5-1.7.8.5 3.2-.3 2.1-1.9 6.9-.1.5 3.1-1.5 5.3-3.1-.1-4.7.9z"/></g><path fill-rule="evenodd" clip-rule="evenodd" fill="#F3000B" d="M20.9 2l-1.3.2 1.5 1 .5 1.5-.5 4.2 1.1-.2.5-4.2-.9-2zM29 0h-1l.8 2.9-1.5 5.1 1 .1 1.5-5.1-.6-3.1z"/><path fill-rule="evenodd" clip-rule="evenodd" fill="#FFED00" d="M30.2 0h-1l.5 3.2-1.3 4.8.8.2 1.4-5-.6-3z"/><g fill-rule="evenodd" clip-rule="evenodd" fill="#0075BD"><path d="M23.1 7.9l1.8-.2-1.1-1.5 1.5-1-1.7-1.1 1.2-1.3-1.6.1v-1.7l-1.5.8.7.5.8 2.1zM25.8 7.5l1.2.1 1.5-4.6-.7-2.8-1.7.2 1.4.7-1.4 1.5 1.7 1-1.8 1.2 1.1 1.1zM24.7 6.4l1 .5.6-.7-.7-.5-.9.6zM24.8 4l1 .3.8-.6-1-.4zM24 2.2h1.5l.8-.9-1.5-.6z"/></g><g clip-rule="evenodd"><path fill-rule="evenodd" fill="#0075BD" d="M-33.5.4l1 3.8 9.2 3.9 2.3-.5 5.9 1.7v-5.3l2.7-3.1-.5-.7z"/><path stroke="#151215" stroke-width=".425" fill="none" d="M-33.5.4l1 3.8 9.2 3.9 2.3-.5 5.9 1.7v-5.3l2.7-3.1-.5-.7z"/><path fill-rule="evenodd" fill="#DDC67B" d="M-2.2 14.2l4.5 5.8 4.5.1 2.4-1.1 2-1.8-.6-.5-1.7.8-1.9.7 1.7-2.8.4-2.7-.8-.3-.3-.5h-.9l-.3.5-.3-.7-.4-.4-1.6 1.8-2.1.8-3-2.9-2.6-2.1-2 1.9.7 2.3z"/><path stroke="#151215" stroke-width=".425" fill="none" d="M-2.2 14.2l4.5 5.8 4.5.1 2.4-1.1 2-1.8-.6-.5-1.7.8-1.9.7 1.7-2.8.4-2.7-.8-.3-.3-.5h-.9l-.3.5-.3-.7-.4-.4-1.6 1.8-2.1.8-3-2.9-2.6-2.1-2 1.9.7 2.3z"/><path fill-rule="evenodd" fill="#fff" d="M-2.5 14.1l-1.6-.8-.6-2.3 1-1.7 1.3-.6-1.4-.8-8.5-7-.7.1-2.6 2.8v5.3l8.4 3.7 3.5 2.7 1.3-.8z"/><path stroke="#151215" stroke-width=".425" fill="none" d="M-2.5 14.1l.1.6-1.3.8-3.5-2.7-8.4-3.7v-5.3l2.6-2.8.7-.1 8.5 7 1.4.8-1.3.6-1 1.7.6 2.3z"/></g><path fill-rule="evenodd" clip-rule="evenodd" fill="#F3000B" d="M-6.1 9.3l1.7-1.6-.9-.8-1.7 2.1-.3 1.2.5 2.6 1.2 1.1-.7-3.6zM-13.5 9.9l-.8-3.1.4-3 1.3-1.4 1-.9-.8-1.1-.5-.1-.8.6-1.9 2.1-.5 3.9 1 2.3z"/><path fill-rule="evenodd" clip-rule="evenodd" fill="#FFED00" d="M-16.8 8.5l1.7.7-.9-3.1.5-3 1.2-1.4 1.5-1.3-1.2-.2-1.6.1-1.3.7-.8 2.2-.1 3z"/><g fill-rule="evenodd" clip-rule="evenodd" fill="#0075BD"><path d="M-13.2 9.5l1.8.8-1.3-2.1h1.5l-1.4-2.2 1.9.1-1.2-1.8 1.8-.3-1.5-1.4-1.8 2.4-.2 2.8zM-7.7 10.4l.4-1.6 1.3-1.7-1.7-1.2.6 1.9-2-.7 1.2 2.1-2-.4 1.7 1.7-1.5.5 2.3 1.2zM-10.8 10.1h1.2l-.9-.9h-.8zM-11.1 7.1l.7 1.1 1.3.2-.5-1zM-10.4 5.1l1.1 1.3 1.1.5-.2-1.5z"/></g><path fill-rule="evenodd" clip-rule="evenodd" fill="#FBF8C7" d="M5.7 7.1l-.4-3.2-.8-.8-.2-1.4-.5-.4-.4.6.5.6-.1.6.4 1 .7 2.6z"/><path clip-rule="evenodd" stroke="#151215" stroke-width=".425" fill="none" d="M5.7 7.1l-.4-3.2-.8-.8-.2-1.4-.5-.4-.4.6.5.6-.1.6.4 1 .7 2.6z"/><g clip-rule="evenodd"><path fill-rule="evenodd" fill="#FFED00" d="M9.2 59.3l1.1-1.3-.8-1.1-.2-1v-.9l.4-.7-.6-.9.4-1.1-7.6.5-4-.5-5.6-1.6v.5l-1.1 1 .1 1-1.3 3.5 1 1.1 2.1.6-.4.5 3.6 1.4 1.9-.8-.1.6 1 .8v.5l.4.2-.1 1h-1v1.4l1.2-.1.1 1.1 1-.2-.2-1.1.8-.2v-1.1h-.5l.1-1.4 1.6-.7-.2-.7 2.2 1.2 3.3-1 .3-.4z"/><path stroke="#151215" stroke-width=".425" fill="none" d="M9.2 59.3l-1.1.1-.3.4-3.3 1-2.2-1.2.2.7-1.6.7-.1 1.4h.5v1.1l-.8.2.2 1.1-1 .2-.1-1.1-1.2.1v-1.4h1l.1-1-.4-.2v-.5l-1-.8.1-.6-1.9.8-3.6-1.4.4-.5-2.1-.6-1-1.1 1.3-3.5-.1-1 1.1-1v-.5l5.6 1.6 4 .5 7.6-.5-.4 1.1.6.9-.4.7v.9l.2 1 .8 1.1z"/><path fill-rule="evenodd" fill="#F3000B" d="M-6.6 56.4l.4-1.8-1.1-.3-.3 1z"/><path stroke="#151215" stroke-width=".425" fill="none" d="M-6.6 56.4l-1-1.1.3-1 1.1.3z"/><path fill-rule="evenodd" fill="#F3000B" d="M-3.9 55.5l-.3 2.3 2.6 1.1.4-3.1-1.5.3z"/><path stroke="#151215" stroke-width=".425" fill="none" d="M-3.9 55.5l1.2.6 1.5-.3-.4 3.1-2.6-1.1z"/><path fill-rule="evenodd" fill="#F3000B" d="M1.8 58.9l2.4-.4.1-2.3-1.3.5-1.1-.5z"/><path stroke="#151215" stroke-width=".425" fill="none" d="M1.8 58.9l.1-2.7 1.1.5 1.3-.5-.1 2.3z"/><path fill-rule="evenodd" fill="#F3000B" d="M7.5 57.5l1.2-.9-.3-1-.5.3-.8-.1z"/><path stroke="#151215" stroke-width=".425" fill="none" d="M7.5 57.5l1.2-.9-.3-1-.5.3-.8-.1z"/><path fill-rule="evenodd" fill="#008BDD" d="M-7.8 53.3l1 .3.4-.6v-.7l-1.4-.5-.4.5zM-3.1 54.7l1 .2.3-.6v-.7l-1.4-.3-.5.6zM2.5 55.4l1.5.2.5-.7v-.7l-2.2-.2-.7.6zM8.2 55.2l1.1-.2.2-.6-.1-.5-1.6.2-.4.6z"/><path fill-rule="evenodd" fill="#F3000B" d="M-5.3 54.5l1.1-.9-.9-1.3-1.3.7zM.2 55.7l1.2-.8-1-1.4-1.3.6zM6.2 55.6l1-.9-1.2-1-1.2.8z"/><path fill-rule="evenodd" fill="#008BDD" d="M-7.8 54.2l-.6-.6-.8.6.8.5zM-4.4 55.6l-.7-.5-.7.5.7.6zM.8 56.7l-.7-.6-.7.6.7.5zM6.8 56.7l-.7-.5-.7.5.7.6z"/><path fill-rule="evenodd" fill="#F3000B" d="M7.5 58.9l-.8-.5-.7.5.7.6zM.8 59.2l-.8-.5-.7.5.7.6zM-5 58l-.7-.5-.8.5.8.6zM-8.3 56.2l-.7-.6-.8.6.8.5z"/></g></symbol><symbol viewBox="-8.2 -7.9 16.3 15.8"><path fill-rule="evenodd" clip-rule="evenodd" fill="#E61616" d="M6.5 6.8c1.1-.8 1.6-2 1.5-3.6-.1-1.6-.7-3-2-4.4-1.2-1.4-3.2-3.5-6-6.4-2.8 2.9-4.8 5.1-6 6.4-1.2 1.4-1.9 2.9-2 4.4-.1 1.6.4 2.8 1.5 3.6 1 .8 2.1 1.1 3.3.8 1.2-.1 2.3-.8 3.2-1.8 1 1 2 1.7 3.2 1.8 1.2.3 2.3 0 3.3-.8z"/><path fill-rule="evenodd" clip-rule="evenodd" fill-opacity=".298" d="M0-7.6v13.4c1 1 2 1.6 3.2 1.8 1.2.2 2.3-.1 3.3-.8 1.1-.8 1.6-2 1.5-3.6-.1-1.6-.7-3-2-4.4-1.2-1.4-3.2-3.5-6-6.4z"/><path clip-rule="evenodd" stroke="#151215" stroke-width=".1" stroke-linecap="round" stroke-linejoin="round" stroke-miterlimit="3" d="M0-7.6c2.8 2.9 4.8 5.1 6 6.4 1.2 1.4 1.9 2.9 2 4.4.1 1.6-.4 2.8-1.5 3.6-1 .8-2.1 1.1-3.3.8-1.2-.2-2.2-.8-3.2-1.8v-13.4z" fill="none"/><path clip-rule="evenodd" stroke="#151215" stroke-width=".35" d="M6.5 6.8c-1 .8-2.1 1.1-3.3.8-1.2-.1-2.2-.8-3.2-1.8-.9 1.1-2 1.7-3.2 1.9-1.2.2-2.3-.1-3.3-.8-1.1-.9-1.6-2.1-1.5-3.7.1-1.6.8-3 2-4.4 1.2-1.4 3.2-3.5 6-6.4 2.8 2.9 4.8 5.1 6 6.4 1.2 1.4 1.9 2.9 2 4.4.1 1.6-.4 2.8-1.5 3.6z" fill="none"/></symbol><symbol id="e" viewBox="-3.2 -6 6.5 12.1"><path fill-rule="evenodd" clip-rule="evenodd" d="M2.8 6l-2.4-4.8 2.8-7.2h-1.8l-2 5.4-.9-1.7v-3.7h-1.7v12h1.7v-5.5l2.6 5.5h1.7z"/></symbol><symbol id="c" viewBox="-49 -74 98 148"><path fill="#F0F7E6" d="M48-68.5c0-3-2.5-5.5-5.5-5.5h-86c-3 0-5.5 2.5-5.5 5.5v136c0 3 2.5 5.5 5.5 5.5h86c3 0 5.5-2.5 5.5-5.5v-136z"/><path fill="#000" d="M43 73c2.8 0 5-2.2 5-5v-136c0-2.8-2.2-5-5-5h-86c-2.8 0-5 2.2-5 5v136c0 2.8 2.2 5 5 5h86m0 1h-86c-3.3 0-6-2.7-6-6v-136c0-3.3 2.7-6 6-6h86c3.3 0 6 2.7 6 6v136c0 3.3-2.7 6-6 6z"/></symbol><symbol id="g" viewBox="-41 -66 82 132"><g><g fill-rule="evenodd" clip-rule="evenodd"><path d="M33 66h-66v-1h66zM33-65h-66v-1h66zM-41 37h1v-88h-1zM41-37h-1v88h1zM40-.5h-80v1h80z"/></g></g></symbol><symbol viewBox="-7.7 -10.4 15.4 20.8"><g clip-rule="evenodd"><path fill-rule="evenodd" fill="#fe0" d="M0-5.9l-.4.2-.6-2.1 1-.9 1 .8-.6 2.1-.4-.1zm3-.3l-1.5.2.9-2.1-1.5-1-.9-1-.9 1-1.5 1 .9 2.1-1.5-.2 3 2.2 3-2.2z"/><path stroke="#222123" stroke-width=".35" d="M3-6.2l-3 2.2-3-2.2 1.5.2-.9-2.1 1.5-1 .9-1 .9 1 1.5 1-.9 2.1 1.5-.2zm-3 .3l.4.2.6-2.2-1-.8-1.1.8.6 2.1.5-.1z" fill="none"/></g><use xlink:href="#b" width="15.4" height="15.4" x="-7.7" y="-7.7" transform="translate(0 2.703)" overflow="visible"/></symbol><symbol id="b" viewBox="-7.7 -7.7 15.4 15.4"><path fill-rule="evenodd" clip-rule="evenodd" fill="#F40D1D" d="M6.8 3.3c.5-1 .7-2.1.7-3.3 0-1.2-.2-2.3-.7-3.3-.4-.8-.9-1.5-1.5-2-1.5-1.5-3.2-2.2-5.3-2.2-2 0-3.8.7-5.3 2.1-.7.8-1.2 1.5-1.5 2.1-.5 1-.8 2.1-.8 3.3 0 1.2.3 2.2.8 3.3.4.8.9 1.5 1.5 2.1 1.5 1.4 3.3 2.1 5.3 2.1s3.8-.7 5.3-2.1c.5-.5 1-1.2 1.5-2.1z"/><g clip-rule="evenodd"><path fill-rule="evenodd" fill="#00AFE7" d="M6.8 3.3c-2.4-.5-4.6-.7-6.8-.7s-4.4.2-6.8.7c.4.8.9 1.5 1.5 2.1 1.9-.7 3.7-1.1 5.3-1.1 1.7 0 3.4.4 5.3 1.1.5-.6 1-1.3 1.5-2.1z"/><path stroke="#222123" stroke-width=".35" d="M6.8 3.3c-.5.8-1 1.5-1.5 2.1-1.9-.7-3.6-1.1-5.3-1.1-1.7 0-3.4.4-5.3 1.1-.6-.6-1.1-1.3-1.5-2.1 2.4-.5 4.7-.7 6.8-.7 2.2 0 4.4.2 6.8.7z" fill="none"/><path fill-rule="evenodd" fill="#00AFE7" d="M6.8-3.3c-.4-.8-.9-1.5-1.5-2-1.9.7-3.6 1-5.2 1-1.8 0-3.5-.4-5.3-1.1-.8.8-1.3 1.5-1.6 2.1 2.4.5 4.6.7 6.8.7s4.4-.2 6.8-.7z"/><path stroke="#222123" stroke-width=".35" d="M6.8-3.3c-2.4.5-4.6.7-6.7.7-2.2 0-4.5-.2-6.8-.7.2-.6.7-1.3 1.4-2.1 1.8.8 3.6 1.1 5.3 1.1 1.6 0 3.4-.4 5.2-1.1.7.6 1.2 1.3 1.6 2.1z" fill="none"/></g><g fill-rule="evenodd" clip-rule="evenodd" fill="#fe0"><path d="M7.2 0l-1 1.3-2-.5 1.1.5-.6 1.3-.8-.5.2-.5-1.9-.4-.5-.7-1.7 1.8-1.9-1.8-.5.6-2 .4.4.6-.8.5-.6-1.2 1.2-.5-2 .5-1-1.3 1-1.2 2 .5-1.2-.5.6-1.3.8.4-.3.5 2 .4.5.6 1.8-1.8 1.8 1.8.5-.6 1.9-.4-.3-.5.8-.5.6 1.3-1.2.4 2-.5 1.1 1.3zM1.6-6.8v1.1l-1.6 1.1-1.6-1 .1-1.1-1.4 1.1-1.5-.5c1.4-1 2.8-1.4 4.4-1.4 1.6 0 3 .5 4.4 1.4l-1.5.5-1.3-1.2zM-1.5 6.6l-.1-1.1 1.6-1 1.6 1v1.1l1.4-1.1 1.5.5c-1.3 1-2.8 1.5-4.5 1.5-1.6 0-3.1-.5-4.5-1.5l1.6-.6 1.4 1.2z"/></g><path clip-rule="evenodd" stroke="#1A1A1A" stroke-width=".35" fill="none" d="M0-7.5v15"/><path fill-rule="evenodd" clip-rule="evenodd" fill-opacity=".149" d="M0 7.5v-15h.1c2 0 3.8.7 5.3 2.1.6.8 1.1 1.5 1.4 2.1.5 1 .8 2.1.8 3.3 0 1.2-.3 2.2-.8 3.3-.4.8-.9 1.5-1.5 2.1-1.5 1.4-3.2 2.1-5.3 2.1z"/><path clip-rule="evenodd" stroke="#222123" stroke-width=".35" d="M6.8 3.3c-.5.8-1 1.5-1.5 2.1-1.5 1.4-3.2 2.1-5.3 2.1-2 0-3.8-.7-5.3-2.1-.6-.6-1.1-1.3-1.5-2.1-.5-1-.8-2.1-.8-3.3 0-1.2.3-2.3.8-3.3.3-.6.8-1.3 1.5-2.1 1.5-1.4 3.3-2.1 5.3-2.1 2.1 0 3.8.7 5.3 2.2.6.6 1.1 1.3 1.5 2 .5 1.1.7 2.2.7 3.3 0 1.1-.2 2.2-.7 3.3z" fill="none"/></symbol><use xlink:href="#c" width="98" height="148" x="-49" y="-74" transform="matrix(1 0 0 -1 50 75)" overflow="visible"/><g><g><use xlink:href="#d" width="8.6" height="10.9" x="-4.3" y="-5.5" transform="matrix(-1 0 0 1 90 121.5)" overflow="visible"/><use xlink:href="#d" width="8.6" height="10.9" x="-4.3" y="-5.5" transform="matrix(1 0 0 -1 10 28.5)" overflow="visible"/><use xlink:href="#e" width="6.5" height="12.1" x="-3.2" y="-6" transform="matrix(-1 0 0 1 90 136)" overflow="visible"/><use xlink:href="#e" width="6.5" height="12.1" x="-3.2" y="-6" transform="matrix(-1 0 0 1 10 136)" overflow="visible"/><use xlink:href="#e" width="6.5" height="12.1" x="-3.2" y="-6" transform="matrix(1 0 0 -1 90 14)" overflow="visible"/><use xlink:href="#e" width="6.5" height="12.1" x="-3.2" y="-6" transform="matrix(1 0 0 -1 10 14)" overflow="visible"/><use xlink:href="#f" width="74.3" height="65.8" x="-37.2" y="-.6" transform="matrix(-1 0 0 1 50 75)" overflow="visible"/><use xlink:href="#f" width="74.3" height="65.8" x="-37.2" y="-.6" transform="matrix(1 0 0 -1 50 75)" overflow="visible"/><use xlink:href="#g" width="82" height="132" x="-41" y="-66" transform="matrix(1 0 0 -1 50 75)" overflow="visible"/><use xlink:href="#h" width="16.6" height="25.2" x="-8.3" y="-12.6" transform="matrix(-1 0 0 1 72 124)" overflow="visible"/><use xlink:href="#h" width="16.6" height="25.2" x="-8.3" y="-12.6" transform="translate(28 124)" overflow="visible"/><use xlink:href="#h" width="16.6" height="25.2" x="-8.3" y="-12.6" transform="matrix(-1 0 0 -1 72 26)" overflow="visible"/><use xlink:href="#h" width="16.6" height="25.2" x="-8.3" y="-12.6" transform="matrix(1 0 0 -1 28 26)" overflow="visible"/></g></g></svg>
