<svg xmlns="http://www.w3.org/2000/svg" xmlns:xlink="http://www.w3.org/1999/xlink" viewBox="0 0 100 150" enable-background="new 0 0 100 150"><symbol viewBox="-4.9 -10.1 9.8 20.2"><path fill-rule="evenodd" clip-rule="evenodd" fill="#009C22" d="M0-1.3c3.1 0 4.7-1.6 4.7-3 0-2.6-2.6-3.9-3.5-4.2-1.1-.4-1.2-1.4-1.2-1.4s-.1 1-1.3 1.5c-.9.3-3.5 1.6-3.5 4.2.1 1.3 1.7 2.9 4.8 2.9z"/><path fill-rule="evenodd" clip-rule="evenodd" fill="#006F20" d="M0-1.3v-8.6s-.1 1-1.3 1.5c-.9.3-3.5 1.6-3.5 4.2.1 1.3 1.7 2.9 4.8 2.9z"/><path fill-rule="evenodd" clip-rule="evenodd" fill="#F40D1D" d="M3.5-2.2h-7v8.7l3.5 3.4 3.5-3.4z"/><path fill-rule="evenodd" clip-rule="evenodd" fill="#AC0019" d="M0-2.2h-3.5v8.7l3.5 3.4z"/><path stroke="#000" stroke-width=".35" stroke-linecap="round" stroke-linejoin="round" stroke-miterlimit="10" fill="none" d="M0-9.9v6.9M0 9.9v-11.8"/><path fill-rule="evenodd" clip-rule="evenodd" fill="#fe0" d="M3.5-1.2v-1.1c-.8-.4-2.1-.7-3.5-.7s-2.7.3-3.5.7v1.1c.8-.4 2-.7 3.5-.7s2.7.3 3.5.7z"/><path clip-rule="evenodd" stroke="#000" stroke-width=".35" stroke-linecap="round" stroke-linejoin="round" stroke-miterlimit="10" d="M-3.5-2.2v8.7l3.5 3.4 3.5-3.5v-8.7c.8-.6 1.3-1.3 1.3-2 0-2.6-2.6-3.9-3.5-4.2-1.2-.4-1.3-1.4-1.3-1.4s-.1 1-1.3 1.5c-.9.3-3.5 1.6-3.5 4.2.1.6.5 1.4 1.3 2z" fill="none"/><path clip-rule="evenodd" stroke="#000" stroke-width=".25" stroke-linecap="round" stroke-miterlimit="10" d="M3.5-2.3c-.8-.4-2.1-.7-3.5-.7s-2.7.3-3.5.7" fill="none"/></symbol><symbol id="h" viewBox="-8.3 -12.6 16.6 25.2"><path fill-rule="evenodd" clip-rule="evenodd" fill="#009915" d="M-1.4-9.8l-.8-.3-1.1 1.5h1.1l.8.4.4.8-1.1.6-1.4-1.1-2 .1.9 1-1.3-.3-.6.3-1.4 2.7 2.3-1.1 3.2-.5 1.6-.8v3.9l.8-.6.3-2-.1-3.2z"/><path clip-rule="evenodd" stroke="#151215" stroke-width=".35" fill="none" d="M-1.4-9.8l-.8-.3-1.1 1.5h1.1l.8.4.4.8-1.1.6-1.4-1.1-2 .1.9 1-1.3-.3-.6.3-1.4 2.7 2.3-1.1 3.2-.5 1.6-.8v3.9l.8-.6.3-2-.1-3.2z"/><path fill-rule="evenodd" clip-rule="evenodd" fill="#F3000B" d="M7.8-6l-2.4-1.4-1.2.4-.4-.3 1.2-.8-2.3-.3-1.6.8-.8-.6.1.9 1.7 2.3 1.4.4-.2-.9 1 .5h.9l1.3-.8z"/><path clip-rule="evenodd" stroke="#151215" stroke-width=".35" fill="none" d="M7.8-6l-1.3.2-1.3.8h-.9l-1-.5.2.9-1.4-.4-1.7-2.3-.1-.9.8.6 1.6-.8 2.3.3-1.2.8.4.3 1.2-.4z"/><path fill-rule="evenodd" clip-rule="evenodd" fill="#FFED00" d="M-2.2-10.1l-2.8-2.3 1.7 3.8z"/><path clip-rule="evenodd" stroke="#151215" stroke-width=".35" fill="none" d="M-2.2-10.1l-2.8-2.3 1.7 3.8z"/><use xlink:href="#a" width="13.4" height="17" x="-6.7" y="-8.5" transform="translate(-.342 4.058)" overflow="visible"/></symbol><symbol id="a" viewBox="-6.7 -8.5 13.4 17"><path fill-rule="evenodd" clip-rule="evenodd" fill="#009915" d="M0 8.3c1.5-1.4 2.4-2.2 2.5-2.5.4-.8.5-1.8.3-3l1.2 1.7.8-1.1c.5-.8.8-1.4.9-1.8.2-.9-.1-2-.9-3.3l1.6.9c.1-2.4-.1-4-.4-4.7-.3-.6-1.1-1-2.3-1.2l1.8-.6c-.8-.7-1.8-1-2.8-1-.1 0-.4.3-1 .8-.4.4-.8.3-1.2-.3h-1c-.4.6-.8.6-1.2.2-.6-.6-.9-.8-1-.8-1 0-2 .4-2.9 1.1l1.8.6c-1.2.2-2 .6-2.3 1.3-.2.5-.4 1.4-.4 2.8v2l1.6-.9c-.8 1.3-1 2.4-.9 3.3.1.4.4 1 .9 1.8.3.4.6.7.8 1.1l1.2-1.7c-.1 1 0 2 .4 2.8.1.3 1 1.1 2.5 2.5z"/><path fill-rule="evenodd" clip-rule="evenodd" fill-opacity=".298" d="M-4.9 3.5c.3.4.6.7.8 1.1l1.2-1.7c-.1 1.1 0 2.1.4 2.9.2.3 1 1.2 2.6 2.5v-16h-.5c-.4.5-.8.6-1.2.2-.6-.5-.9-.8-1-.8-1 0-2 .4-2.9 1.1l1.8.6c-1.2.2-2 .6-2.3 1.3-.3.4-.5 1.3-.5 2.7v2l1.6-.9c-.8 1.3-1 2.4-.9 3.3.1.3.4.9.9 1.7z"/><path clip-rule="evenodd" stroke="#000" stroke-width=".031" stroke-linecap="round" stroke-linejoin="round" stroke-miterlimit="3" d="M-4.9 3.5c-.5-.8-.8-1.4-.9-1.8-.2-.9.1-2 .9-3.3l-1.6.9v-2c0-1.3.2-2.2.4-2.7.4-.7 1.1-1.2 2.3-1.3l-1.8-.6c.9-.7 1.9-1 2.9-1 .1 0 .4.3 1 .8.4.4.8.3 1.2-.2h.5v16c-1.5-1.4-2.4-2.2-2.6-2.5-.3-.8-.4-1.8-.3-3l-1.2 1.7c-.2-.3-.5-.7-.8-1z" fill="none"/><path clip-rule="evenodd" stroke="#151215" stroke-width=".35" d="M0 8.3c-1.5-1.4-2.4-2.2-2.6-2.5-.3-.8-.4-1.8-.3-3l-1.2 1.7c-.2-.3-.5-.7-.8-1.1-.5-.8-.8-1.4-.9-1.8-.2-.9.1-2 .9-3.3l-1.6.9v-2c0-1.2.2-2.1.4-2.6.4-.7 1.1-1.2 2.3-1.3l-1.8-.6c.9-.7 1.9-1 2.9-1 .1 0 .4.3 1 .8.4.4.8.3 1.2-.2h1c.4.6.8.6 1.2.2.6-.6.9-.8 1-.8 1 0 2 .4 2.9 1.1l-1.9.5c1.2.2 2 .6 2.3 1.3.4.7.5 2.3.4 4.7l-1.5-.9c.8 1.3 1 2.4.9 3.3-.1.4-.4 1-.9 1.8l-.8 1-1.3-1.7c.2 1.2.1 2.2-.3 3-.1.3-1 1.1-2.5 2.5z" fill="none"/></symbol><symbol id="d" viewBox="-4.3 -5.5 8.6 10.9"><path fill-rule="evenodd" clip-rule="evenodd" fill="#009915" d="M0 5.2c1-.9 1.5-1.4 1.6-1.6.2-.5.3-1.1.2-1.9l.8 1.1.5-.7c.3-.5.5-.9.6-1.1 0-.5-.1-1.2-.6-2l1 .6c0-1.5 0-2.5-.3-3-.2-.4-.7-.7-1.4-.8l1.1-.4c-.6-.5-1.2-.7-1.8-.7-.1 0-.3.2-.7.5-.2.3-.4.2-.7-.1h-.6c-.2.3-.5.4-.7.1-.4-.3-.6-.5-.6-.5-.6 0-1.2.2-1.8.7l1.1.4c-.7.1-1.2.4-1.5.8-.2.3-.3.9-.3 1.7v1.2l1-.6c-.5.8-.7 1.5-.5 2.1 0 .2.2.6.6 1.1l.5.7.8-1.1c-.1.7 0 1.4.2 1.9 0 .2.5.8 1.5 1.6z"/><path fill-rule="evenodd" clip-rule="evenodd" fill-opacity=".298" d="M-3.1 2.2c.2.2.4.5.5.7l.8-1.1c-.1.8-.1 1.4.2 1.9.1.1.6.6 1.6 1.5v-10.1h-.3c-.3.3-.5.4-.7.1-.4-.3-.6-.5-.7-.5-.6 0-1.2.2-1.8.7l1.1.4c-.7.1-1.2.4-1.4.8-.2.3-.3.9-.4 1.7v1.3l1-.6c-.5.8-.7 1.5-.6 2 .2.3.4.7.7 1.2z"/><path clip-rule="evenodd" stroke="#151215" stroke-width=".35" d="M0 5.2c-1-.9-1.5-1.4-1.6-1.6-.2-.5-.3-1.1-.2-1.9l-.8 1.1c-.1-.2-.3-.4-.5-.7-.3-.5-.5-.9-.6-1.1-.1-.5.1-1.2.6-2l-1 .6v-1.2c0-.9.1-1.5.3-1.7.2-.4.7-.7 1.5-.8l-1.1-.4c.4-.6 1-.8 1.7-.8.1 0 .3.2.6.5.2.2.5.2.7-.1h.6c.4.3.6.4.8.1.4-.3.6-.5.6-.5.6 0 1.2.2 1.8.7l-1 .4c.7.1 1.2.4 1.5.8.2.4.3 1.4.3 3l-1.1-.6c.5.8.7 1.5.5 2.1 0 .2-.2.6-.6 1.1l-.4.6-.8-1.1c.1.7 0 1.4-.2 1.9-.1.2-.6.8-1.6 1.6z" fill="none"/></symbol><symbol id="f" viewBox="-38.6 0 79.2 63.5"><path fill-rule="evenodd" clip-rule="evenodd" fill="#00709C" d="M14.7 31.9l-1.4-15.6-1.5-7.8-6.6-7-.7-1.3-16.3.4 1.4 26.4 5.9 5.8 3.7 1.2 11.7-.1z"/><path clip-rule="evenodd" stroke="#151215" stroke-width=".425" fill="none" d="M14.7 31.9l-1.4-15.6-1.5-7.8-6.6-7-.7-1.3-16.3.4 1.4 26.4 5.9 5.8 3.7 1.2 11.7-.1z"/><g clip-rule="evenodd"><path fill-rule="evenodd" fill="#F3000B" d="M-8.5 26.1l-2.5-22.9-9.9 10.4 6.3 17.1 12.5 3.3z"/><path stroke="#151215" stroke-width=".425" fill="none" d="M-8.5 26.1l-2.5-22.9-9.9 10.4 6.3 17.1 12.5 3.3z"/><path fill-rule="evenodd" fill="#F3000B" d="M11.8 32.4l5 1 3.8-9.8-6.9-21.4-9.8-.9 3.1 2.4 2.3 3.2.7 3.5 1.3 12.1z"/><path stroke="#151215" stroke-width=".425" fill="none" d="M11.8 32.4l-.5-9.9-1.3-12.1-.7-3.5-2.3-3.2-3.1-2.4 9.8.9 6.9 21.4-3.8 9.8z"/></g><path fill-rule="evenodd" clip-rule="evenodd" fill="#FCFF19" d="M-2.1 34.1l-6.3-7.9-1.9-17.1-1.7-1-2.2 3.7.9 3.5 1.8 1.5-1.7 2.7.5 1.7 2.2 1.6-.9 2.2 1 1.5 2.3.9-.8 2.1.8.9h1.6l.4 2.5z"/><path clip-rule="evenodd" stroke="#151215" stroke-width=".425" fill="none" d="M-2.1 34.1l-6.3-7.9-1.9-17.1-1.7-1-2.2 3.7.9 3.5 1.8 1.5-1.7 2.7.5 1.7 2.2 1.6-.9 2.2 1 1.5 2.3.9-.8 2.1.8.9h1.6l.4 2.5z"/><path fill-rule="evenodd" clip-rule="evenodd" fill="#fff" d="M-8.4 30.5l-.9-1.1.9-1.9-2.3-1-1.3-1.5 1.1-2.2-2.1-1.6-.6-2 2-2.2-2.1-1.8-.6-3.4-.7.1.6 3.7 1.8 1.5-1.7 2 .6 2.5 1.9 1.5-.9 2 1.6 2 1.7.8-.7 1.7 1.4 1.5 1.4.2.2 1.2.7-.1-.3-1.8z"/><g clip-rule="evenodd"><path fill-rule="evenodd" fill="#fff" d="M14.7 30.4l-2.3 1.8.6.7 2.3-1.7.2-.2.1-.4.7-3.2-1-.7 1.6-.8-.6-4.4-1-.5 1-1-.5-3.6-.1-.3-1.3-.9 1.4-1.1-1.6-3.8-.3-.1-.8-.6.9-1.5-1.5-2.7-2.2-1.3.1-1.7-5.2-1.5v.9l4.3 1.3-.1 1.5 2.5 1.5 1 2-1 1.7 1.5 1.1 1.3 2.9-1.8 1.5 2 1.3.5 3.1-1.7 1.5 1.8.9.4 3.3-2.5 1.1 1.9 1.3z"/><path fill-rule="evenodd" fill="#FCFF19" d="M11.8 32.4l.2.1 2.6-2 .6-2.6-1.9-1.3 2.5-1.2-.4-3.3-1.8-.9 1.7-1.5-.6-3-1.9-1.3 1.7-1.5-1.2-2.9-1.6-1.1 1.1-1.8-1.1-2-2.5-1.4.1-1.5-5.4-1.7 3.1 2.2 2.3 3.4.7 3.3 1.3 11.7z"/><path stroke="#151215" stroke-width=".425" fill="none" d="M11.8 32.4l-.5-10.3-1.3-11.7-.7-3.3-2.3-3.4-3.1-2.2 5.4 1.7-.1 1.5 2.5 1.4 1.1 2-1.1 1.8 1.6 1.1 1.2 2.9-1.7 1.5 1.9 1.3.6 3-1.7 1.5 1.8.9.4 3.3-2.5 1.2 1.9 1.3-.6 2.6-2.6 2z"/></g><g clip-rule="evenodd"><path fill-rule="evenodd" fill="#008012" d="M-24 24.1l6.3 8.3 3.9-.5.5.5 2.5.7 3.1-.7-2.3-.8h-1.6l-2.2-5-3.9-12.2 4.4-2.4 7.8-8.9-3.4-2.9-29.5.3 1.7 3.1c1.1 2.1 1.6 3.1 1.5 3.2-.2.1-.8 1.4-1.7 3.9l.7 1.5 5.2 3.5 6.5 6.1.5 2.3z"/><path stroke="#151215" stroke-width=".425" d="M-24 24.1l6.3 8.3 3.9-.5.5.5 2.5.7 3.1-.7-2.3-.8h-1.6l-2.2-5-3.9-12.2 4.4-2.4 7.8-8.9-3.4-2.9-29.5.3 1.7 3.1c1.1 2.1 1.6 3.1 1.5 3.2-.2.1-.8 1.4-1.7 3.9l.7 1.5 5.2 3.5 6.5 6.1.5 2.3z" fill="none"/><path fill-rule="evenodd" fill="#008012" d="M38.3.5h-34.5l6.1 2.8 4.5 5.6 2.5 15.7-2.2 10.3 4.4-1.1.1-1.1 8-1.8 6.9-12.2 1.3-3.6 1.5-.2.1-5.4-1.3-2.2z"/><path stroke="#151215" stroke-width=".425" fill="none" d="M38.3.5h-34.5l6.1 2.8 4.5 5.6 2.5 15.7-2.2 10.3 4.4-1.1.1-1.1 8-1.8 6.9-12.2 1.3-3.6 1.5-.2.1-5.4-1.3-2.2z"/></g><path fill-rule="evenodd" clip-rule="evenodd" fill="#1C1D00" d="M-4.7 47.9l1.3.8.1-11.1-1.8 1.4-.4-.1-1.2.7v2.4z"/><path clip-rule="evenodd" stroke="#151215" stroke-width=".425" fill="none" d="M-4.7 47.9l-2-5.9v-2.4l1.2-.7.4.1 1.8-1.4-.1 11.1z"/><g clip-rule="evenodd"><path fill-rule="evenodd" fill="#FFD487" d="M1.7 54.1l10.7-9.7-1.4-7.8-12.8-2.1.1 2.1h-1.4l-1.3 1.2.2 1.1-.3 2.1.4 1.3-1.1.3.7 4.2-.5.5-.7 3.3z"/><path stroke="#151215" stroke-width=".425" fill="none" d="M1.7 54.1l-7.4-3.5.7-3.3.5-.5-.7-4.2 1.1-.3-.4-1.3.3-2.1-.2-1.1 1.3-1.2h1.4l-.1-2.1 12.8 2.1 1.4 7.8z"/><g fill-rule="evenodd"><path d="M-.1 48.9l-1.3-.5 1.6-.1 1.4-.6-.7-.6-1.6.6-.1-.9h-.7l.3-1.2-.9 1.2-.2 1.1-.9-1.4.1 1.9-.3.8.4.4.5-.5 1.3.6 2.3-.4.9-.8zM-5.2 48.7l.9-.1.3.5.1-1.2-.4-1-.6.6zM-1.4 42.5l-1.4-.2-.9.3.5.6 1-.6.5.7.2-.2zM-1.6 39.7l-.6.6-2-.1v.6l.5-.2 1.8.1-.1.4h.2l.5-.6zM4.1 37.8l-.1-.2-2.2-.7-1.8-1.1-1.8.7 1.7.7 3.5.8z"/></g></g><g clip-rule="evenodd"><path fill-rule="evenodd" fill="#F3000B" d="M11.3 33.4l-5.5-2.9-2.7-.7-2.4-15.9-.5-13.5-5.5.3.9 15.7 1 9.1 1.3 4.9-1 1.4 1.1 4.6 2-.8 2.8.2 4.4 1.4 3.6 2.1z"/><path stroke="#151215" stroke-width=".425" fill="none" d="M11.3 33.4l-.5 5.9-3.6-2.1-4.4-1.4-2.8-.2-2 .8-1.1-4.6 1-1.4-1.3-4.9-1-9.1-.9-15.7 5.5-.3.5 13.5 2.4 15.9 2.7.7z"/><path fill-rule="evenodd" fill="#FCFF19" d="M11 39.4l-.1-1.3-3.8-2.2-5.7-1.6-.3-3.7 5.1 1.3 5 2.6.1-.8-5.3-3-2.8-1-3.6-.2-1.8.7-.9 1.4.4.9 1.4-1.5.2 3.8-1.3.7.3 1.1 1.7-.9 2.1-.2 5.4 1.5z"/></g><path fill-rule="evenodd" clip-rule="evenodd" d="M3.8 47.3l1.6-2.7-.2-2.9-2.8.8-.2 1.3z" opacity=".5" enable-background="new"/><path fill-rule="evenodd" clip-rule="evenodd" fill="#1C1D00" d="M3.2 50.5l5.1-1 3.1-2.4.5-1.9.2-4.9-1.4-2.1h-2.3l-2.5-.5-.9.3-1.2.2c-.1 0 .1.9.5 2.6l.6 2.5-1.5 3.6-.2 3.6z"/><path clip-rule="evenodd" stroke="#151215" stroke-width=".425" d="M3.2 50.5l.2-3.6 1.5-3.6-.6-2.5c-.4-1.7-.6-2.6-.5-2.6l1.2-.2.8-.4 2.5.5h2.5l1.4 2.1-.2 4.9-.5 1.9-3.1 2.4-5.2 1.1z" fill="none"/><path fill-rule="evenodd" clip-rule="evenodd" fill="#E44800" d="M9 62.2l1.6-1.4v-1l.4-.7.8-.6v-2l.7-.8-.3-1 .9-2.5-9.5.8-5.7 3.5.8 1.5 1.4 1.5.5 1.2.7.1 2 1.2.3.7.7-.3 2.1.5.5.3.6-.4z"/><path clip-rule="evenodd" stroke="#151215" stroke-width=".425" fill="none" d="M9 62.2l-1.5.6-.6.4-.5-.3-2.1-.5-.7.3-.3-.7-2-1.2-.7-.1-.5-1.2-1.4-1.5-.8-1.5 5.7-3.5 9.5-.8-.9 2.5.3 1-.7.8v2l-.8.6-.4.7v1z"/><path fill-rule="evenodd" clip-rule="evenodd" fill="#F3000B" d="M17 48.4l-3.2-2.4-1.8.1-3.4 2.1-5.4 2.1-2.6.6-3-.1-3.5-1-1 3.3-1 1.8 8.9 2.5 5.1-1.4 6.8-3.2 6.6-4.1z"/><path clip-rule="evenodd" stroke="#151215" stroke-width=".425" fill="none" d="M17 48.4l-3.2-2.4-1.8.1-3.4 2.1-5.4 2.1-2.6.6-3-.1-3.5-1-1 3.3-1 1.8 8.9 2.5 5.1-1.4 6.8-3.2 6.6-4.1z"/><path fill-rule="evenodd" clip-rule="evenodd" fill="#008012" d="M18.5 48.7l-1.4-.2-1.4-.7-.1.3-2-.3-1.2 2.4-1.8-.4-1.3 2.9-2.6-.3-1.4 1.7-2.3-.7-2 1.5-2.1-1.2-1.8.9-1.8-1.7-1.3.4-.6-.6-.6 1.9 7.8 2.3 5.5-1.3 9.7-4.9z"/><path fill-rule="evenodd" clip-rule="evenodd" fill="#fff" d="M17.9 48.6l-2.5 1.9-4.7 2.7-4.8 2.1-5.3 1.3-8-2.2-.2.4 8.4 2.4 5.2-1.4 9.7-4.8 3.1-2.2-.6-.1z"/><path fill-rule="evenodd" clip-rule="evenodd" fill="#FCFF19" d="M12 46.3l-3.9 2.6-5.3 1.7-2.5.6h-2.6l-3.4-1.1-.3.7 3.4 1h2.9l2.7-.5 5.4-1.9 5-3.3z"/><path fill-rule="evenodd" clip-rule="evenodd" fill="#fff" d="M-.2 53.4l-.9-.2-1.9.8-1.2-1.5-.6-.1-1 .5-.5-.6-.3.8.7.5 1.3-.5 1.1 1.5.9.3.7-.4 1.3-.5 1.5 1.1 2.3-1.5 2.1.7 1.4-1.9 2.6.5 1.4-3.1 1.8.5 1.3-2.5 1.9.5.4-.5-.8-.5-.2.3-1.7-.4-1.3 2.5-1.7-.6-1.4 3-2.4-.4-1.5 1.9-1.9-.8-2.3 1.5z"/><g clip-rule="evenodd"><path fill-rule="evenodd" fill="#00709C" d="M17.9 45l1.6-1.5 1.5-2h1.4l1.7-.7.2-1.5-1.1-1.2-1.3-.7-.7-1.1-.5-.2h-1l-3.3 2.8-1 3.2 1.2 3.7z"/><path stroke="#151215" stroke-width=".425" fill="none" d="M17.9 45l1.6-1.5 1.5-2h1.4l1.7-.7.2-1.5-1.1-1.2-1.3-.7-.7-1.1-.5-.2h-1l-3.3 2.8-1 3.2 1.2 3.7z"/><path fill-rule="evenodd" fill="#F3000B" d="M9.6 37.5l1.7 2.4 5 2.6.3-2.5-.5-3.8-.6-1.3 1.5-1.4-1.7-2.3-3.4.2-2.2 2.4z"/><path stroke="#151215" stroke-width=".425" fill="none" d="M9.6 37.5l.1-3.7 2.2-2.4 3.4-.2 1.7 2.3-1.5 1.4.6 1.3.5 3.8-.3 2.5-5-2.6z"/><path fill-rule="evenodd" fill="#008012" d="M16.9 48.4l.3-1.3c.3-2 .5-3 .6-3 .1 0-.1-.5-.6-1.4l-2.4-2.2-2.6-1-3 .5-1 2v2l1.6 1.7 2.2.5 1.7-.2 3.2 2.4z"/><path stroke="#151215" stroke-width=".425" d="M16.9 48.4l-3.4-2.4-1.7.2-2.2-.5-1.5-1.7v-2l1-2 3-.5 2.6 1 2.4 2.2c.5.9.7 1.4.6 1.4-.1 0-.3 1-.6 3l-.2 1.3z" fill="none"/></g><g clip-rule="evenodd"><path fill-rule="evenodd" fill="#FCFF19" d="M11.2 30.3l-.7-.7-1 .3-.1-1-2.4-1.8-1.2.3-.2-.9-1-.5-.8.3-.3-1-2.2-.8-1.1.5-.6-.3.4-1.1-.8-1.1-1-.2-.7.9.6 1.5-1.2-.1-1.2 1 .1 1.3-.7-.1-.7.7.2.9-.7.9.8.8.5.7.4-.8v-.9l.5-.2.4-1.1 1.1-1.1.6-1.6h1l.6.2.3.9 2.7.9.8-.3.4 1.3.7.3.9-.5v.9l2.6 1.8.9-.5.4 1.1.8.7.5-.4 1 .9v-1.8l-.4.3z"/><path stroke="#151215" stroke-width=".425" fill="none" d="M11.2 30.3l-.7-.7-1 .3-.1-1-2.4-1.8-1.2.3-.2-.9-1-.5-.8.3-.3-1-2.2-.8-1.1.5-.6-.3.4-1.1-.8-1.1-1-.2-.7.9.6 1.5-1.2-.1-1.2 1 .1 1.3-.7-.1-.7.7.2.9-.7.9.8.8.5.7.4-.8v-.9l.5-.2.4-1.1 1.1-1.1.6-1.6h1l.6.2.3.9 2.7.9.8-.3.4 1.3.7.3.9-.5v.9l2.6 1.8.9-.5.4 1.1.8.7.5-.4 1 .9v-1.8l-.4.3z"/><path fill-rule="evenodd" fill="#FCFF19" d="M7.1 24.6l.5 1.4 2.5 2.1h.5l.3 1 .7.5.1-3.9-2.2-2-1-.1-.3-1.1-1.3-.4v-.9l-2.1-1.9h-1v-1l-1.9-.6-.9-.4-.6-.6-.2-2-1.2-2.3-1.4-.7-1.5.5-.8 1.8.3 2.1-1.4.2.6.9-2.5 1 .4 1.2-1-.1-.7 2.9.5 4.3.8.4.3-.9-.6-.5 1-.5-.5-1.2 1.3-.2-.3-2 .8-.8-.4-.8.9.2.8-2.3h1.1l1.2.6 1.7-.6.4-.4.2.5.5-.2 1 1c.2.3.3.6.4 1 .2.6.3.9.3 1l.3-.6.3 1.6 2.6 2 .5-.1.3.8.7.1z"/><path stroke="#151215" stroke-width=".425" d="M7.1 24.6l.5 1.4 2.5 2.1h.5l.3 1 .7.5.1-3.9-2.2-2-1-.1-.3-1.1-1.3-.4v-.9l-2.1-1.9h-1v-1l-1.9-.6-.9-.4-.6-.6-.2-2-1.2-2.3-1.4-.7-1.5.5-.8 1.8.3 2.1-1.4.2.6.9-2.5 1 .4 1.2-1-.1-.7 2.9.5 4.3.8.4.3-.9-.6-.5 1-.5-.5-1.2 1.3-.2-.3-2 .8-.8-.4-.8.9.2.8-2.3h1.1l1.2.6 1.7-.6.4-.4.2.5.5-.2 1 1c.2.3.3.6.4 1 .2.6.3.9.3 1l.3-.6.3 1.6 2.6 2 .5-.1.3.8.7.1z" fill="none"/></g><g fill-rule="evenodd" clip-rule="evenodd" opacity=".5" enable-background="new"><path d="M-20.4 26.1l2.9 4.8 3 .4-6.1-6.4zM-14.9 29.5l-3.2-5.4-2.5-6.6-.8 1.2.8 5.1zM-17.3 22.9l.3-.2-1.4-7.4-1.7 1.3zM-24.4 21.9l.2-.7-9.3-15.4-1-5.1-3.4.5 3.9 3.4-.8 2.8c-.1.1 1.7 2.4 5.3 7l-.5 1.3 5.6 6.2zm8.4-9.5l1.9-1.2 1.8-3.5-5.5 1.2-5.1 2.6-2.4 1.6.5 4.2c.2 1.8.4 3 .5 3.7l1.5-5.2 1.1-1.8 5.7-1.6zM-23.7 6.7l-1.3 3.8 5.9-2.4 8-1.4zM7 .8l3.5 1.5 2.6-.1-.1-.8zM37.1.9l-23.2-.2 4.5 5.7-.4 2.7 6.2 5 9.7-5.4.1-3.7 1.7-1.3.7.6zM15.1 4.9l-2-.2 4.1 5.8 5 3.1zM19.5 23.7l.2-4.6 2.5.9 4.9-5.2-7.8.2-3.2-3.5zM35.7 7.6l-1.4 2.6c1.6 2.8 2.4 4.1 2.3 4l.2-4.6-1.1-2z"/></g><g clip-rule="evenodd"><path fill-rule="evenodd" fill="#F3000B" d="M-31.5 9.4l7.6 11.5-2-7.4 2.4-6.8 11.4.4-1.1-1.5-1.4-3.4.3-1.5-20 .2.9 4.8z"/><path stroke="#151215" stroke-width=".425" fill="none" d="M-31.5 9.4l7.6 11.5-2-7.4 2.4-6.8 11.4.4-1.1-1.5-1.4-3.4.3-1.5-20 .2.9 4.8z"/><path fill-rule="evenodd" fill="#fff" d="M-12.4 6.9l7.4.2.3-.4-.7-.3-1.4-2.3.3-2.1 1.6-.1 1.2.4-3.3-1.6h-7.2v2.4l1.1 2.7z"/><path stroke="#151215" stroke-width=".425" fill="none" d="M-12.4 6.9l7.4.2.3-.4-.7-.3-1.4-2.3.3-2.1 1.6-.1 1.2.4-3.3-1.6h-7.2v2.4l1.1 2.7z"/><path fill-rule="evenodd" fill="#FFD487" d="M-5.7 6.6l1.3-.1 4 5 3.6.2 2.4-5.7-2.3-3.5-7-.2-.9-.4-1.9.1-.3 2.1z"/><path stroke="#151215" stroke-width=".425" fill="none" d="M-5.7 6.6l1.3-.1 4 5 3.6.2 2.4-5.7-2.3-3.5-7-.2-.9-.4-1.9.1-.3 2.1z"/><g fill-rule="evenodd"><path fill="#FFED00" d="M-15.6 5.5l.6-.4-.3-.7-1.7 1.3 1.6.5-.2-.7zm-.8-2.4l-.4-1.9h-4.4l.8.3-2.4.6.3.9 1.3-.5-1.3 2 .9.9 1.8-.3.6.4v-2.2l2.1.9-.6-.8 1.3-.3zm-9.8 12.6l-.7-2.3-1.7-.5 1.7 2.8h.7zm.3-5.1l-.5-1 1.1-.4v-.2l-1.5.2-2.5-1.2 2.9-1.5.4-.7-1.3-.2.3.7-2.2.3-.1-.1-.9 1.4 1.5.6-.1.9-1.4.1 1.7 1.8.3-.8 1.9.6v-.2l.4-.3zm-7.3-6.6l.4 1.3 1.5.3-1.9-1.6zm2.6-1l.7 1.8 1.4.5.8-.6.2.5 1.2-.6v-.4.2l-.5-3.3h-.6l-.4.9-1.5-.3-.3.4-.9-.7-1.7.1-.2 1.1.9.7.9-.3zm4.7.3l.5-.9-.1-.2-.4 1.1z"/><path fill="#fff" d="M-29.1 7.2l.8-.1-1 .5.2-.4zm-2.9-4.7l.1-.5h1.2l1.1.8.5-.5 1.6.3.3-.7v-.1l.4 2.7-.2.1-.3.1-.3-.7-1.1.9-.9-.4-.8-2-1.1.5-.5-.5zm5.4 7.8l.1.3v.1l-1.9-.6-.2.5-.5-.5h.4l.2-1.2 1.7.9.2.5zm-.3 4.4l-.6-1 .3.1.3.9zm7.2-9.9l-1.8.2-.5-.5 1.6-2.4 1.4-.4h1.8l.2 1-1.6.4-1.1-.5v2.2zm5 2l-.5-1.5.8.8.7-.5-.3-.4-.4.2-.7-1.6-1.2.8-.7-.9 1.1-.3-.5-2.6h-9.8l.3 1.1-.3.9-.3-1.9h-1.4l-.3.7-1.4-.3-.2.3-.6-.6-2.3.1-.3 1.7 1.3 1.1.8-.3.6 1.5 1.8.8.6-.5.3.6-1.5.2-1.9-.8-3.1-2.8.9 3.1 3.5.8-1.2 1.9 2 .8-2.3.2 2.8 2.9h-1.1l3 4.9v-.9l.9-.1-.9-3.1-1.9-.5.5-1.4 1.9.6.2-.6.5-.5-.4-.8.8-.3.5-1.1-2.1.3-1.6-.8 2.2-1.1.8-1.4-1.5-.2.8-.4.1-1 .9-1.5-.8-1.7 2.7.1 1.3.5-1.6.4.5 1.8.5-.2-.7 1.1 1.3 1.3 1.8-.2 1.2.7v-2.2l2.1.9-1.2.9 1.1 1.1h.5l-.4-.7 1.8.6zm-.8-1.6v.1l-.4.3h-.1l.5-.4z"/></g><path fill-rule="evenodd" fill="#F3000B" d="M26.7 15l2.2.8 1.1.6 3.1-15.7-14.4-.2v.5l3.1 15 .8-.5 1.6-.6z"/><path stroke="#151215" stroke-width=".425" fill="none" d="M26.7 15l-2.5-.1-1.6.6-.8.5-3.1-15v-.5l14.4.2-3.1 15.7-1.1-.6z"/><path fill-rule="evenodd" fill="#fff" d="M23 24.1h.3l-.1-.2 1.6-.6 2.3.8 1.3.7-.1.5.4-.2.3-4.6.8-3.6v-1l-3.1-1-2.8-.3-2 1.1 1.1 4.8z"/><path stroke="#151215" stroke-width=".425" fill="none" d="M23 24.1v-3.6l-1.1-4.8 2-1.1 2.8.3 3.1 1v1l-.8 3.6-.3 4.6-.4.2.1-.5-1.3-.7-2.3-.8-1.6.6.1.2z"/><g fill-rule="evenodd"><path fill="#FFED00" d="M25.6 9.3l-1.9 1.1-.9-2.6-1.3 3-.2-.4.8 4 .2-.1-.5-1.6.8-.4.8 1.2.5-.2.4-1.8 1.5.9.5-1.8-.7-1.3zm-1.5-1.8l-.9-.6.4-.8-.3-.4-.1.1-.1.5.3-.2-.4 1 1 .7.1-.3zm-2.5-1.6l-.2 1.4.2.1v-1.5z"/><path fill="#fff" d="M25.5 11.7l-1.5-.9-.5 2.1-.5-.9-.8.4-.2-1.4.8-2 .7 2 2-1.1.4.7-.4 1.1zm.6 1.4l.7-2.6-1-1.8-1.9 1-.7-2 1 .7.8-1.7 1.1.2-1.4-.8-.5.9-.4-.3.3-.7-.7-1-.7.6-.1 1.1-.5.1v-1.6l-1.8.5.9.3-.2 1.5.7.5.7-.5-1 2.4-1-1.9 1.4 7.2 1.1-.6-.7-2 1 1.5 1.1-.3.3-1.4 1.5.7z"/><path fill="#FFED00" d="M29.6 14.9l1.2-4.8-.4-.4h-.1l-.4 2.4-.3-.4-2.1-.1-.1.7.1.2 1.5.2-.9 1.5 1.5.7zm-.9-5.5l-.7-.3-.1.9.7.1.1-.7z"/><path fill="#fff" d="M27.5 14.4l2.4 1.1 1.4-5.6-.8-.7-.7.1-.2 1.7-.6-.6.1-1.3-1.5-.6-.2 1.9 1.1.2.5.6-1.9-.1-.2 1.2.3.6 1.1.1-.8 1.4zm1.8-.2l-.5-.2.8-1.5.1.1-.4 1.6z"/><path fill="#FFED00" d="M24.7 4.8l1.1.8h1.3v-2l1.2.7-.7-1.5 2.1.2.1-.5-.3-1.3-1.9.3v-.4l-3.3.2v.2l-1.3.8.3.5 2.1.5-.7 1.5zm7.5-2l.3-1.5-.7.1-.1 1.3.5.1zm-1.9 2l-.3.8h-1l.4.9-1 .2.2.6h.5l.5-.7 1.1.6-.5-1.7h.5l-.4-.7z"/><path fill="#fff" d="M23.7 2.4l1.3-.7 2.2-.1v.5l2.1-.4.1.8v.1l-2.5-.2.5.9-.6-.4v2.3h-.8l-.7-.5.7-1.7-2.3-.6zm5.7 6.4l.6-1-.7-.7 2.4 1.3.1-.9-.7-.3-.3-1.2h1.4l.8-5.3-1.7.2-.2 2 .9.3v.4h-.9l.2.9.6-.3.1.9-.8.5-.6-1.2-.7-.1-.3.9h-.5l-.8-1.8 1.7.1.3-1-.4-1.9-1.7.3v-.3l-4.2.2v.4l-1.6.9.5 1 1.8.5-.6 1.3 1.5 1.1h1.9v-1.6l.7.5.5 1.3-1.1.2.5 1.4 1.2.1-.2.7.3.2z"/><path fill="#FFED00" d="M19.7 3h.7l-.9-1.2h-.1z"/><path fill="#fff" d="M19.7 5.5l.9-1.1-.6-.9h1l.7.6-1.7-2.3.2-.1.9.7.3-.7v-1l-.4.4-.5-.3h-1.1l-.1.4-.5-.5v.6z"/></g><path fill-rule="evenodd" fill="#FFD487" d="M29.4 34.3l2.7-4.6-2.7-2.2-1.1-1.3-.2-1.2-.4-.6-3.3-1.5-1.1.5.9 3.6 4 11.8 1-.3z"/><path stroke="#151215" stroke-width=".425" fill="none" d="M29.4 34.3l2.7-4.6-2.7-2.2-1.1-1.3-.2-1.2-.4-.6-3.3-1.5-1.1.5.9 3.6 4 11.8 1-.3z"/><path fill-rule="evenodd" fill="#00AEE3" d="M40.5 48.2l-32.7-36.5-3.4.7 36.1 37.1z"/><path stroke="#151215" stroke-width=".425" fill="none" d="M40.5 49.5l-36.1-37.1 3.4-.7 32.7 36.5"/><path fill-rule="evenodd" fill="#FCFF19" d="M-3.4.8l-.1.5v1.1l.7.2.6 1.2-.5.4-.1.9 1 .3 1.4-.5 1.2-1.3.1-1.1 1.1.6.8 2.5-.5 6.5-1.8 2.7-.4 1.4.6.1 2.6-1.5 1.2-1.8 3.6-.8.1-.3 2.8-1.8-.7-2.3-.3-.2-1.3-2.1-2.2-2.4-3.7-1.6-1.8-.2-.9.6-.4 1-1-1.2v-.6l-.3-.5z"/><path stroke="#151215" stroke-width=".425" fill="none" d="M-3.4.8l1.8-.2.3.5v.6l1 1.2.4-1 .9-.6 1.8.2 3.7 1.6 2.2 2.4 1.3 2.1.3.2.7 2.3-2.8 1.8-.1.3-3.6.8-1.2 1.8-2.6 1.5-.6-.1.4-1.4 1.8-2.7.5-6.5-.8-2.5-1.1-.6-.1 1.1-1.2 1.3-1.4.5-1-.3.1-.9.5-.4-.6-1.2-.7-.2v-1.1z"/><path fill-rule="evenodd" fill="#FFD487" d="M33.5 36l.4-1-.9-1.6-.7-2.5.2-1.2-1.5-.3-.6.4-.6 1.1-1.7 1.1-1.5.6-.1 1 .1.9h.3l.1.8 1.9.6 1.9-.2-1.5.5-.7.2-.1.8 2.5.1z"/><path stroke="#151215" stroke-width=".425" fill="none" d="M33.5 36l.4-1-.9-1.6-.7-2.5.2-1.2-1.5-.3-.6.4-.6 1.1-1.7 1.1-1.5.6-.1 1 .1.9h.3l.1.8 1.9.6 1.9-.2-1.5.5-.7.2-.1.8 2.5.1z"/><g fill-rule="evenodd" fill="#F3000B"><path d="M3.8 11.3l.9-.6-.2-.8-1-.1-.2.9zM6.1 11.4l.5-.6-.5-.7-.5.2-.2.8zM9.2 9.3l-1.4.2-.2 1.8 1.6-.5v-1.5l1.1-.2.1-1.2-1.1-.3zM3.6 7.4l1.1 1.4 1.1-1.6-1.3-1.2-.9 1.4zm.9-1.4l1.2-1.9-1.5-.8.2-.8-1.5-.7-.1.6 1.4.8-.2.6-1 .8 1.5 1.4z"/></g><g fill-rule="evenodd" fill="#00A1D1"><path d="M23.6 22.4l.9-.3 3.7 1.7-.1-2.3-.8.8-.3-1.5-1 1.2-1.2-1.8-.7 1.2-.6-1.3zM24.1 20.2l.8-1.5-.7-1.3-.8 1.1zM26 20.7l.9-1.3-.4-1.6-.8 1.2zM27.8 21.1l.7-.9-.2-1.5-.8 1zM23.3 17.5l1-1 1.1 1.8 1.1-1.6.9 2 .8-1.3.5 1.3.3-1.9-2.8-1.1-2.1-.2-1.4.5.6 1.4z"/></g><g fill-rule="evenodd" fill="#00A1D1"><path d="M-11.3 5l-1.2-.8.7-.9-1-.6.6-.8-1-.8-.2 1.9 1.5 3.5h.2l.9-.2-1.2-.7zM-10.8 5.7l.8.6 1.1-.7-1.3-.5zM-11.2 4.2l.9.5 1.3-.7-1.4-.5zM-11.3 2.6l.9.5 1.3-.6-1.2-.6zM-8.3 6.4l1.9.1-.6-.9-.6-1.5.1-1.5.2-1 .4-.1-1.8-.2.8 1.1-1.1.8 1 .8-.9.8 1.1.8z"/></g></g><path clip-rule="evenodd" stroke="#151215" stroke-width=".425" fill="none" d="M15.7 41.2l-.6-1.6-.6-2.3M15.5 34.9l-1.6.8-1.8.4M17.4 43.1l2.3-2.3M21 41.4l-1.1-.6-.8-1.4M13.7 46l.7-1.9 1.8-.7"/></symbol><symbol viewBox="-8.2 -7.9 16.3 15.8"><path fill-rule="evenodd" clip-rule="evenodd" fill="#E61616" d="M6.5 6.8c1.1-.8 1.6-2 1.5-3.6-.1-1.6-.7-3-2-4.4-1.2-1.4-3.2-3.5-6-6.4-2.8 2.9-4.8 5.1-6 6.4-1.2 1.4-1.9 2.9-2 4.4-.1 1.6.4 2.8 1.5 3.6 1 .8 2.1 1.1 3.3.8 1.2-.1 2.3-.8 3.2-1.8 1 1 2 1.7 3.2 1.8 1.2.3 2.3 0 3.3-.8z"/><path fill-rule="evenodd" clip-rule="evenodd" fill-opacity=".298" d="M0-7.6v13.4c1 1 2 1.6 3.2 1.8 1.2.2 2.3-.1 3.3-.8 1.1-.8 1.6-2 1.5-3.6-.1-1.6-.7-3-2-4.4-1.2-1.4-3.2-3.5-6-6.4z"/><path clip-rule="evenodd" stroke="#151215" stroke-width=".1" stroke-linecap="round" stroke-linejoin="round" stroke-miterlimit="3" d="M0-7.6c2.8 2.9 4.8 5.1 6 6.4 1.2 1.4 1.9 2.9 2 4.4.1 1.6-.4 2.8-1.5 3.6-1 .8-2.1 1.1-3.3.8-1.2-.2-2.2-.8-3.2-1.8v-13.4z" fill="none"/><path clip-rule="evenodd" stroke="#151215" stroke-width=".35" d="M6.5 6.8c-1 .8-2.1 1.1-3.3.8-1.2-.1-2.2-.8-3.2-1.8-.9 1.1-2 1.7-3.2 1.9-1.2.2-2.3-.1-3.3-.8-1.1-.9-1.6-2.1-1.5-3.7.1-1.6.8-3 2-4.4 1.2-1.4 3.2-3.5 6-6.4 2.8 2.9 4.8 5.1 6 6.4 1.2 1.4 1.9 2.9 2 4.4.1 1.6-.4 2.8-1.5 3.6z" fill="none"/></symbol><symbol id="c" viewBox="-49 -74 98 148"><path fill="#F0F7E6" d="M48-68.5c0-3-2.5-5.5-5.5-5.5h-86c-3 0-5.5 2.5-5.5 5.5v136c0 3 2.5 5.5 5.5 5.5h86c3 0 5.5-2.5 5.5-5.5v-136z"/><path fill="#000" d="M43 73c2.8 0 5-2.2 5-5v-136c0-2.8-2.2-5-5-5h-86c-2.8 0-5 2.2-5 5v136c0 2.8 2.2 5 5 5h86m0 1h-86c-3.3 0-6-2.7-6-6v-136c0-3.3 2.7-6 6-6h86c3.3 0 6 2.7 6 6v136c0 3.3-2.7 6-6 6z"/></symbol><symbol id="e" viewBox="-3.1 -6.1 6.1 12.2"><path fill-rule="evenodd" clip-rule="evenodd" d="M2.9 3.8c-.1.7-.4 1.2-.9 1.6-.5.5-1.2.7-2.1.7-.9 0-1.5-.2-2-.7-.5-.4-.7-.9-.8-1.6-.1-.7-.2-1.9-.2-3.8s0-3.2.1-3.8c.2-.7.4-1.2.9-1.6.5-.5 1.2-.7 2-.7.9 0 1.6.2 2.1.7.5.4.8.9.9 1.6.1.7.2 1.9.2 3.8s-.1 3.1-.2 3.8zm-1.7-3.7v-2.1c-.1-.9-.3-1.5-.5-1.8-.1-.3-.4-.4-.8-.4-.3 0-.5.1-.7.4-.2.3-.3.9-.3 1.9v4.300000000000001c0 .9.2 1.5.4 1.8.2.3.4.4.7.4.4 0 .6-.1.8-.4.2-.3.4-.9.5-1.8-.1-.3-.1-1-.1-2.3z"/></symbol><symbol id="g" viewBox="-41 -66 82 132"><g><g fill-rule="evenodd" clip-rule="evenodd"><path d="M33 66h-66v-1h66zM33-65h-66v-1h66zM-41 37h1v-88h-1zM41-37h-1v88h1zM40-.5h-80v1h80z"/></g></g></symbol><symbol viewBox="-7.7 -10.4 15.4 20.8"><g clip-rule="evenodd"><path fill-rule="evenodd" fill="#fe0" d="M0-5.9l-.4.2-.6-2.1 1-.9 1 .8-.6 2.1-.4-.1zm3-.3l-1.5.2.9-2.1-1.5-1-.9-1-.9 1-1.5 1 .9 2.1-1.5-.2 3 2.2 3-2.2z"/><path stroke="#222123" stroke-width=".35" d="M3-6.2l-3 2.2-3-2.2 1.5.2-.9-2.1 1.5-1 .9-1 .9 1 1.5 1-.9 2.1 1.5-.2zm-3 .3l.4.2.6-2.2-1-.8-1.1.8.6 2.1.5-.1z" fill="none"/></g><use xlink:href="#b" width="15.4" height="15.4" x="-7.7" y="-7.7" transform="translate(0 2.703)" overflow="visible"/></symbol><symbol id="b" viewBox="-7.7 -7.7 15.4 15.4"><path fill-rule="evenodd" clip-rule="evenodd" fill="#F40D1D" d="M6.8 3.3c.5-1 .7-2.1.7-3.3 0-1.2-.2-2.3-.7-3.3-.4-.8-.9-1.5-1.5-2-1.5-1.5-3.2-2.2-5.3-2.2-2 0-3.8.7-5.3 2.1-.7.8-1.2 1.5-1.5 2.1-.5 1-.8 2.1-.8 3.3 0 1.2.3 2.2.8 3.3.4.8.9 1.5 1.5 2.1 1.5 1.4 3.3 2.1 5.3 2.1s3.8-.7 5.3-2.1c.5-.5 1-1.2 1.5-2.1z"/><g clip-rule="evenodd"><path fill-rule="evenodd" fill="#00AFE7" d="M6.8 3.3c-2.4-.5-4.6-.7-6.8-.7s-4.4.2-6.8.7c.4.8.9 1.5 1.5 2.1 1.9-.7 3.7-1.1 5.3-1.1 1.7 0 3.4.4 5.3 1.1.5-.6 1-1.3 1.5-2.1z"/><path stroke="#222123" stroke-width=".35" d="M6.8 3.3c-.5.8-1 1.5-1.5 2.1-1.9-.7-3.6-1.1-5.3-1.1-1.7 0-3.4.4-5.3 1.1-.6-.6-1.1-1.3-1.5-2.1 2.4-.5 4.7-.7 6.8-.7 2.2 0 4.4.2 6.8.7z" fill="none"/><path fill-rule="evenodd" fill="#00AFE7" d="M6.8-3.3c-.4-.8-.9-1.5-1.5-2-1.9.7-3.6 1-5.2 1-1.8 0-3.5-.4-5.3-1.1-.8.8-1.3 1.5-1.6 2.1 2.4.5 4.6.7 6.8.7s4.4-.2 6.8-.7z"/><path stroke="#222123" stroke-width=".35" d="M6.8-3.3c-2.4.5-4.6.7-6.7.7-2.2 0-4.5-.2-6.8-.7.2-.6.7-1.3 1.4-2.1 1.8.8 3.6 1.1 5.3 1.1 1.6 0 3.4-.4 5.2-1.1.7.6 1.2 1.3 1.6 2.1z" fill="none"/></g><g fill-rule="evenodd" clip-rule="evenodd" fill="#fe0"><path d="M7.2 0l-1 1.3-2-.5 1.1.5-.6 1.3-.8-.5.2-.5-1.9-.4-.5-.7-1.7 1.8-1.9-1.8-.5.6-2 .4.4.6-.8.5-.6-1.2 1.2-.5-2 .5-1-1.3 1-1.2 2 .5-1.2-.5.6-1.3.8.4-.3.5 2 .4.5.6 1.8-1.8 1.8 1.8.5-.6 1.9-.4-.3-.5.8-.5.6 1.3-1.2.4 2-.5 1.1 1.3zM1.6-6.8v1.1l-1.6 1.1-1.6-1 .1-1.1-1.4 1.1-1.5-.5c1.4-1 2.8-1.4 4.4-1.4 1.6 0 3 .5 4.4 1.4l-1.5.5-1.3-1.2zM-1.5 6.6l-.1-1.1 1.6-1 1.6 1v1.1l1.4-1.1 1.5.5c-1.3 1-2.8 1.5-4.5 1.5-1.6 0-3.1-.5-4.5-1.5l1.6-.6 1.4 1.2z"/></g><path clip-rule="evenodd" stroke="#1A1A1A" stroke-width=".35" fill="none" d="M0-7.5v15"/><path fill-rule="evenodd" clip-rule="evenodd" fill-opacity=".149" d="M0 7.5v-15h.1c2 0 3.8.7 5.3 2.1.6.8 1.1 1.5 1.4 2.1.5 1 .8 2.1.8 3.3 0 1.2-.3 2.2-.8 3.3-.4.8-.9 1.5-1.5 2.1-1.5 1.4-3.2 2.1-5.3 2.1z"/><path clip-rule="evenodd" stroke="#222123" stroke-width=".35" d="M6.8 3.3c-.5.8-1 1.5-1.5 2.1-1.5 1.4-3.2 2.1-5.3 2.1-2 0-3.8-.7-5.3-2.1-.6-.6-1.1-1.3-1.5-2.1-.5-1-.8-2.1-.8-3.3 0-1.2.3-2.3.8-3.3.3-.6.8-1.3 1.5-2.1 1.5-1.4 3.3-2.1 5.3-2.1 2.1 0 3.8.7 5.3 2.2.6.6 1.1 1.3 1.5 2 .5 1.1.7 2.2.7 3.3 0 1.1-.2 2.2-.7 3.3z" fill="none"/></symbol><use xlink:href="#c" width="98" height="148" x="-49" y="-74" transform="matrix(1 0 0 -1 50 75)" overflow="visible"/><g><g><use xlink:href="#d" width="8.6" height="10.9" x="-4.3" y="-5.5" transform="matrix(-1 0 0 1 90 121.5)" overflow="visible"/><use xlink:href="#d" width="8.6" height="10.9" x="-4.3" y="-5.5" transform="matrix(1 0 0 -1 10 28.5)" overflow="visible"/><use xlink:href="#e" width="6.1" height="12.2" x="-3.1" y="-6.1" transform="matrix(-1 0 0 1 90 136)" overflow="visible"/><use xlink:href="#e" width="6.1" height="12.2" x="-3.1" y="-6.1" transform="matrix(-1 0 0 1 10 136)" overflow="visible"/><use xlink:href="#e" width="6.1" height="12.2" x="-3.1" y="-6.1" transform="matrix(1 0 0 -1 90 14)" overflow="visible"/><use xlink:href="#e" width="6.1" height="12.2" x="-3.1" y="-6.1" transform="matrix(1 0 0 -1 10 14)" overflow="visible"/><use xlink:href="#f" width="79.2" height="63.5" x="-38.6" transform="matrix(-1 0 0 1 50 75)" overflow="visible"/><use xlink:href="#f" width="79.2" height="63.5" x="-38.6" transform="matrix(1 0 0 -1 50 75)" overflow="visible"/><use xlink:href="#g" width="82" height="132" x="-41" y="-66" transform="matrix(1 0 0 -1 50 75)" overflow="visible"/><use xlink:href="#h" width="16.6" height="25.2" x="-8.3" y="-12.6" transform="matrix(-1 0 0 1 72 124)" overflow="visible"/><use xlink:href="#h" width="16.6" height="25.2" x="-8.3" y="-12.6" transform="matrix(1 0 0 -1 28 26)" overflow="visible"/></g></g></svg>
