<svg xmlns="http://www.w3.org/2000/svg" xmlns:xlink="http://www.w3.org/1999/xlink" viewBox="0 0 100 150" enable-background="new 0 0 100 150"><symbol viewBox="-4.9 -10.1 9.8 20.2"><path fill-rule="evenodd" clip-rule="evenodd" fill="#009C22" d="M0-1.3c3.1 0 4.7-1.6 4.7-3 0-2.6-2.6-3.9-3.5-4.2-1.1-.4-1.2-1.4-1.2-1.4s-.1 1-1.3 1.5c-.9.3-3.5 1.6-3.5 4.2.1 1.3 1.7 2.9 4.8 2.9z"/><path fill-rule="evenodd" clip-rule="evenodd" fill="#006F20" d="M0-1.3v-8.6s-.1 1-1.3 1.5c-.9.3-3.5 1.6-3.5 4.2.1 1.3 1.7 2.9 4.8 2.9z"/><path fill-rule="evenodd" clip-rule="evenodd" fill="#F40D1D" d="M3.5-2.2h-7v8.7l3.5 3.4 3.5-3.4z"/><path fill-rule="evenodd" clip-rule="evenodd" fill="#AC0019" d="M0-2.2h-3.5v8.7l3.5 3.4z"/><path stroke="#000" stroke-width=".35" stroke-linecap="round" stroke-linejoin="round" stroke-miterlimit="10" fill="none" d="M0-9.9v6.9M0 9.9v-11.8"/><path fill-rule="evenodd" clip-rule="evenodd" fill="#fe0" d="M3.5-1.2v-1.1c-.8-.4-2.1-.7-3.5-.7s-2.7.3-3.5.7v1.1c.8-.4 2-.7 3.5-.7s2.7.3 3.5.7z"/><path clip-rule="evenodd" stroke="#000" stroke-width=".35" stroke-linecap="round" stroke-linejoin="round" stroke-miterlimit="10" d="M-3.5-2.2v8.7l3.5 3.4 3.5-3.5v-8.7c.8-.6 1.3-1.3 1.3-2 0-2.6-2.6-3.9-3.5-4.2-1.2-.4-1.3-1.4-1.3-1.4s-.1 1-1.3 1.5c-.9.3-3.5 1.6-3.5 4.2.1.6.5 1.4 1.3 2z" fill="none"/><path clip-rule="evenodd" stroke="#000" stroke-width=".25" stroke-linecap="round" stroke-miterlimit="10" d="M3.5-2.3c-.8-.4-2.1-.7-3.5-.7s-2.7.3-3.5.7" fill="none"/></symbol><symbol id="h" viewBox="-8.3 -12.6 16.6 25.2"><path fill-rule="evenodd" clip-rule="evenodd" fill="#009915" d="M-1.4-9.8l-.8-.3-1.1 1.5h1.1l.8.4.4.8-1.1.6-1.4-1.1-2 .1.9 1-1.3-.3-.6.3-1.4 2.7 2.3-1.1 3.2-.5 1.6-.8v3.9l.8-.6.3-2-.1-3.2z"/><path clip-rule="evenodd" stroke="#151215" stroke-width=".35" fill="none" d="M-1.4-9.8l-.8-.3-1.1 1.5h1.1l.8.4.4.8-1.1.6-1.4-1.1-2 .1.9 1-1.3-.3-.6.3-1.4 2.7 2.3-1.1 3.2-.5 1.6-.8v3.9l.8-.6.3-2-.1-3.2z"/><path fill-rule="evenodd" clip-rule="evenodd" fill="#F3000B" d="M7.8-6l-2.4-1.4-1.2.4-.4-.3 1.2-.8-2.3-.3-1.6.8-.8-.6.1.9 1.7 2.3 1.4.4-.2-.9 1 .5h.9l1.3-.8z"/><path clip-rule="evenodd" stroke="#151215" stroke-width=".35" fill="none" d="M7.8-6l-1.3.2-1.3.8h-.9l-1-.5.2.9-1.4-.4-1.7-2.3-.1-.9.8.6 1.6-.8 2.3.3-1.2.8.4.3 1.2-.4z"/><path fill-rule="evenodd" clip-rule="evenodd" fill="#FFED00" d="M-2.2-10.1l-2.8-2.3 1.7 3.8z"/><path clip-rule="evenodd" stroke="#151215" stroke-width=".35" fill="none" d="M-2.2-10.1l-2.8-2.3 1.7 3.8z"/><use xlink:href="#a" width="13.4" height="17" x="-6.7" y="-8.5" transform="translate(-.342 4.058)" overflow="visible"/></symbol><symbol id="a" viewBox="-6.7 -8.5 13.4 17"><path fill-rule="evenodd" clip-rule="evenodd" fill="#009915" d="M0 8.3c1.5-1.4 2.4-2.2 2.5-2.5.4-.8.5-1.8.3-3l1.2 1.7.8-1.1c.5-.8.8-1.4.9-1.8.2-.9-.1-2-.9-3.3l1.6.9c.1-2.4-.1-4-.4-4.7-.3-.6-1.1-1-2.3-1.2l1.8-.6c-.8-.7-1.8-1-2.8-1-.1 0-.4.3-1 .8-.4.4-.8.3-1.2-.3h-1c-.4.6-.8.6-1.2.2-.6-.6-.9-.8-1-.8-1 0-2 .4-2.9 1.1l1.8.6c-1.2.2-2 .6-2.3 1.3-.2.5-.4 1.4-.4 2.8v2l1.6-.9c-.8 1.3-1 2.4-.9 3.3.1.4.4 1 .9 1.8.3.4.6.7.8 1.1l1.2-1.7c-.1 1 0 2 .4 2.8.1.3 1 1.1 2.5 2.5z"/><path fill-rule="evenodd" clip-rule="evenodd" fill-opacity=".298" d="M-4.9 3.5c.3.4.6.7.8 1.1l1.2-1.7c-.1 1.1 0 2.1.4 2.9.2.3 1 1.2 2.6 2.5v-16h-.5c-.4.5-.8.6-1.2.2-.6-.5-.9-.8-1-.8-1 0-2 .4-2.9 1.1l1.8.6c-1.2.2-2 .6-2.3 1.3-.3.4-.5 1.3-.5 2.7v2l1.6-.9c-.8 1.3-1 2.4-.9 3.3.1.3.4.9.9 1.7z"/><path clip-rule="evenodd" stroke="#000" stroke-width=".031" stroke-linecap="round" stroke-linejoin="round" stroke-miterlimit="3" d="M-4.9 3.5c-.5-.8-.8-1.4-.9-1.8-.2-.9.1-2 .9-3.3l-1.6.9v-2c0-1.3.2-2.2.4-2.7.4-.7 1.1-1.2 2.3-1.3l-1.8-.6c.9-.7 1.9-1 2.9-1 .1 0 .4.3 1 .8.4.4.8.3 1.2-.2h.5v16c-1.5-1.4-2.4-2.2-2.6-2.5-.3-.8-.4-1.8-.3-3l-1.2 1.7c-.2-.3-.5-.7-.8-1z" fill="none"/><path clip-rule="evenodd" stroke="#151215" stroke-width=".35" d="M0 8.3c-1.5-1.4-2.4-2.2-2.6-2.5-.3-.8-.4-1.8-.3-3l-1.2 1.7c-.2-.3-.5-.7-.8-1.1-.5-.8-.8-1.4-.9-1.8-.2-.9.1-2 .9-3.3l-1.6.9v-2c0-1.2.2-2.1.4-2.6.4-.7 1.1-1.2 2.3-1.3l-1.8-.6c.9-.7 1.9-1 2.9-1 .1 0 .4.3 1 .8.4.4.8.3 1.2-.2h1c.4.6.8.6 1.2.2.6-.6.9-.8 1-.8 1 0 2 .4 2.9 1.1l-1.9.5c1.2.2 2 .6 2.3 1.3.4.7.5 2.3.4 4.7l-1.5-.9c.8 1.3 1 2.4.9 3.3-.1.4-.4 1-.9 1.8l-.8 1-1.3-1.7c.2 1.2.1 2.2-.3 3-.1.3-1 1.1-2.5 2.5z" fill="none"/></symbol><symbol id="d" viewBox="-4.3 -5.5 8.6 10.9"><path fill-rule="evenodd" clip-rule="evenodd" fill="#009915" d="M0 5.2c1-.9 1.5-1.4 1.6-1.6.2-.5.3-1.1.2-1.9l.8 1.1.5-.7c.3-.5.5-.9.6-1.1 0-.5-.1-1.2-.6-2l1 .6c0-1.5 0-2.5-.3-3-.2-.4-.7-.7-1.4-.8l1.1-.4c-.6-.5-1.2-.7-1.8-.7-.1 0-.3.2-.7.5-.2.3-.4.2-.7-.1h-.6c-.2.3-.5.4-.7.1-.4-.3-.6-.5-.6-.5-.6 0-1.2.2-1.8.7l1.1.4c-.7.1-1.2.4-1.5.8-.2.3-.3.9-.3 1.7v1.2l1-.6c-.5.8-.7 1.5-.5 2.1 0 .2.2.6.6 1.1l.5.7.8-1.1c-.1.7 0 1.4.2 1.9 0 .2.5.8 1.5 1.6z"/><path fill-rule="evenodd" clip-rule="evenodd" fill-opacity=".298" d="M-3.1 2.2c.2.2.4.5.5.7l.8-1.1c-.1.8-.1 1.4.2 1.9.1.1.6.6 1.6 1.5v-10.1h-.3c-.3.3-.5.4-.7.1-.4-.3-.6-.5-.7-.5-.6 0-1.2.2-1.8.7l1.1.4c-.7.1-1.2.4-1.4.8-.2.3-.3.9-.4 1.7v1.3l1-.6c-.5.8-.7 1.5-.6 2 .2.3.4.7.7 1.2z"/><path clip-rule="evenodd" stroke="#151215" stroke-width=".35" d="M0 5.2c-1-.9-1.5-1.4-1.6-1.6-.2-.5-.3-1.1-.2-1.9l-.8 1.1c-.1-.2-.3-.4-.5-.7-.3-.5-.5-.9-.6-1.1-.1-.5.1-1.2.6-2l-1 .6v-1.2c0-.9.1-1.5.3-1.7.2-.4.7-.7 1.5-.8l-1.1-.4c.4-.6 1-.8 1.7-.8.1 0 .3.2.6.5.2.2.5.2.7-.1h.6c.4.3.6.4.8.1.4-.3.6-.5.6-.5.6 0 1.2.2 1.8.7l-1 .4c.7.1 1.2.4 1.5.8.2.4.3 1.4.3 3l-1.1-.6c.5.8.7 1.5.5 2.1 0 .2-.2.6-.6 1.1l-.4.6-.8-1.1c.1.7 0 1.4-.2 1.9-.1.2-.6.8-1.6 1.6z" fill="none"/></symbol><symbol id="f" viewBox="-34.6 0 69.3 63.4"><g clip-rule="evenodd"><path fill-rule="evenodd" fill="#1E67F2" d="M-34.2 29.6h7.6l6.4 3.4-.6-10.3-8.5-.8-2.2 1.7 1 .7-3.2 3.9h.8z"/><path stroke="#151215" stroke-width=".425" fill="none" d="M-34.2 29.6h7.6l6.4 3.4-.6-10.3-8.5-.8-2.2 1.7 1 .7-3.2 3.9h.8z"/><path fill-rule="evenodd" fill="#008012" d="M7.2 31.1l5.7 3.8 12.6-6.7 5.6-11.2 2.4-1.1.9-6.7-7.4-.1-6.5-6-2.2 7-13.1-9.5h-23.2l2 5.6.2 3.1-1.4 1.9.4 3.4-1.2-2.2-.1-2.1-2.6-3.4-.3 2.4-1.6 4.5-1 1.1-2.5 3.7-4 3.5 1.8 1.6-.3.3 6.7 6.7-.8 2.5 6.9 4.3 2.7.3 5.2 1.8-1.2-4.8 2.9-5.8 3.2-1.3-.8-18.6 3.4 1.5.9 16.7z"/><path stroke="#151215" stroke-width=".425" fill="none" d="M7.2 31.1l-6.7-3.8-.9-16.7-3.4-1.5.8 18.6-3.2 1.3-2.9 5.8 1.2 4.8-5.2-1.8-2.7-.3-6.9-4.3.8-2.5-6.7-6.7.3-.3-1.8-1.6 4-3.5 2.5-3.7 1-1.1 1.6-4.5.3-2.4 2.6 3.4.1 2.1 1.2 2.2-.4-3.4 1.4-1.9-.2-3.1-2-5.6h23.2l13.1 9.5 2.2-7 6.5 6 7.4.1-.9 6.7-2.4 1.1-5.6 11.2-12.6 6.7z"/><path fill-rule="evenodd" fill="#FFFAD8" d="M7.4 41.6l5.6-2.7.1-3.7-12.2-7.5-.5-24-5.4.5 2.2 23.8-4.1 2.5-2 4.7.9 4.4 3 1z"/><path stroke="#151215" stroke-width=".425" fill="none" d="M7.4 41.6l-12.4-1-3-1-.9-4.4 2-4.7 4.1-2.5-2.2-23.8 5.4-.5.5 24 12.2 7.5-.1 3.7z"/><path fill-rule="evenodd" fill="#DC9E00" d="M4.3 30l7.9 5.8-1.9-3.3-7.5-4.9-1.1-24.9-.9-.1-2 .7-.3 6 .3 2.9v1.8l-.3 1.6.3 2.4v6.9l-1-3.1v-3l-.3-2.1-.4-1 .2-1.7v-10.7l-3.5 1.2-.1 11.5.5 2.4.5 7 .7 1.9-2.2.8-3.2 6.9 1.1 4.4 2.1.6-1.2-4.1v-1.7l2.6-4.6 1.7-.8 2.5-.7.4-1.6.8 1.8z"/><path stroke="#151215" stroke-width=".425" fill="none" d="M4.3 30l-4.3-1.7-.8-1.8-.4 1.6-2.5.7-1.7.8-2.6 4.6v1.7l1.2 4.1-2.1-.6-1.1-4.4 3.2-6.9 2.2-.8-.7-1.9-.5-7-.5-2.4.1-11.5 3.5-1.2v10.7l-.2 1.7.4 1 .3 2.1v3l1 3.1v-6.9l-.3-2.4.3-1.6v-1.8l-.3-2.9.3-6 2-.7.9.1 1.1 24.9 7.5 4.9 1.9 3.3z"/><path fill-rule="evenodd" fill="#1E67F2" d="M11.1 40.3l1.8-.2 1.9-1.4 1.3.2 1.4-.5 4.1-3.7 1.2-.1 1-1h1l1.1-.6-.5-5.3-2.5-6.9-1.3-.8-2.9-6.8v-12.6h-14.4l2.5 25 5.3 10.6.9 2.7-2 1.1z"/><path stroke="#151215" stroke-width=".425" fill="none" d="M11.1 40.3l1.8-.2 1.9-1.4 1.3.2 1.4-.5 4.1-3.7 1.2-.1 1-1h1l1.1-.6-.5-5.3-2.5-6.9-1.3-.8-2.9-6.8v-12.6h-14.4l2.5 25 5.3 10.6.9 2.7-2 1.1z"/><path fill-rule="evenodd" fill="#DC9E00" d="M-24.8 31.7l2.2 1.1 2.2-6.8 3.1-2 1.9-2.3-.5-2.8-2.2 3.3-5.1 4.1-.7 3.7z"/><path stroke="#151215" stroke-width=".425" fill="none" d="M-24.8 31.7l2.2 1.1 2.2-6.8 3.1-2 1.9-2.3-.5-2.8-2.2 3.3-5.1 4.1-.7 3.7z"/><path fill-rule="evenodd" fill="#644F24" d="M-3.4 30.5l.3-.4 1.3 1.9-1.6-1.5zm5.7.9l.3-.6v-1.8l-1.1-.5-1.2 1.2v-.4l-.3-5.4 1.4-3.4v-.3l-.1-1.2-.7-.6h-2.6l-2.4 1-.2.6.2.3 2.8-.6h1.6v.4l-1.4 3.3v.3l.4 5.7-.1.6-2.1-6.1-.5-.4-4.5-.5-.1 1.3 4.1.5 1.5 4.3h-.4l-1.5.9v1l3.2 2.4.2-.3.2.3 3.3-2zm-.8-1.6v1l-.7.7.7-1.7z"/><path stroke="#151215" stroke-width=".425" d="M1.5 29.8l-.7 1.7.7-.7v-1zm.8 1.6l-3.3 2-.2-.3-.2.3-3.2-2.4v-1l1.3-1.1h.4l-1.5-4.3-4.1-.5.1-1.3 4.5.5.5.4 2.1 6.1.1-.5-.4-5.7v-.3l1.6-3.2v-.4h-1.6l-2.8.6-.2-.3.2-.6 2.4-1h2.6l.7.6.1 1.1v.3l-1.4 3.5.4 5.6v.4l1.2-1.2 1.1.5v1.8l-.4.4zm-5.7-.9l1.6 1.5-1.3-1.9-.3.4z" fill="none"/></g><g fill-rule="evenodd" clip-rule="evenodd" opacity=".5" enable-background="new"><path d="M24.2 30.4l1.6 1.2-.3-3.9-.4-1 4.3-8.9-3.1 1.6-2.4 4.2-.9-2.6-1.4-1-1.3-3.3-1.5-6.7.2-9.5-4.2.2 1.6 1.8-4.7 21.7 3.1 3.5v-6.1l.1-.1 1.6 10.1 1.4 4.9 1.2-1.3-1.6-3.6v-4.7l.6-1.1 1.5 2.4 2.6 3.1.9-.5-3.4-3.9-3.5-6.5 1.3-1.1 2.7 6.5.7-.3-1.3-4.2h1.3l1 4.6zM9.3 18.8l.8-18h-28l1.9 5.4.7 3-2.1 2.2.8 3.4-1.1-1.8-.2-2.4-2.7-3.7-.4 2.4-1.2 3.5 9.6 14.6h.8l-1.3-17.5 3.6 18.8h1l.1-21.5 1.5 18.6h1l2.4-18.6-.5 9.7 1.2-.9.2-11.7 1.8-.4-.6 5.7.2 4.5 3.6 2.5-.2 3.8-1 .5-1.2 3.6.5 1.4z"/></g><g clip-rule="evenodd"><path fill-rule="evenodd" fill="#008012" d="M-11 47.1l3.2 7.1-2.8 1.8-.8 1.1 6.1 1.9-1.5-11.7z"/><path stroke="#151215" stroke-width=".425" fill="none" d="M-11 47.1l4.2.2 1.5 11.7-6.1-1.9.8-1.1 2.8-1.8z"/><path fill-rule="evenodd" fill="#3B2714" d="M-6.5 58.4l1.1.4 2.9-14.6-3.6-.2-1.2 1.2.1-1.9-1.9 3.8.6 3.3 1.4 4.7z"/><path stroke="#151215" stroke-width=".425" fill="none" d="M-6.5 58.4l-.6-3.3-1.4-4.7-.6-3.3 1.9-3.8-.1 1.9 1.2-1.2 3.6.2-2.9 14.6z"/><path fill-rule="evenodd" fill="#FFD487" d="M5.5 57.3l2.5-16.8 2.2-1.4v-1l-1.3-2-8.2-3.4-3.1.4-3.3 2.1-.6 2 1.1 3.3 2.1.5.1 2.8-.8.3-.6.4-1.3 2.9-.6 3.2-.3 1v2l.5 1.3-.2 1.3.3 2 5.9 1.1z"/><path stroke="#151215" stroke-width=".425" fill="none" d="M5.5 57.3l-5.6 2-5.9-1.1-.3-2 .2-1.3-.5-1.3v-2l.3-1 .6-3.2 1.3-2.9.6-.4.8-.3-.1-2.8-2.1-.5-1.1-3.3.6-2 3.3-2.1 3.1-.4 8.2 3.4 1.3 2v1l-2.2 1.4z"/><path fill-rule="evenodd" fill="#3B2714" d="M4 58l2.5-.4 4.5-7.4-.6-5.7-1.9-.3-.2 1.1-.6-1.3-2.8-.5.4 1.1-2-1.5 1.7 5.1-.3 3.5.3 3.5z"/><path stroke="#151215" stroke-width=".425" fill="none" d="M4 58l1-2.8-.3-3.5.3-3.5-1.7-5.1 2 1.5-.4-1.1 2.8.5.6 1.3.2-1.1 1.9.3.6 5.7-4.5 7.4z"/><path fill-rule="evenodd" fill="#008012" d="M1.8 57.9l-3.4.5-5.2-.3-4.6-1 6.1 3-.8 1.2.3.4 3 1.4h7.3l1.9-1.3 1.6-1.5 2.5-1.5-.9-2.2.7-2 2.1-8.5-6 .6.6 3.7-.8 5.9-1.5.8z"/><path stroke="#151215" stroke-width=".425" fill="none" d="M1.8 57.9l-3.4.5-5.2-.3-4.6-1 6.1 3-.8 1.2.3.4 3 1.4h7.3l1.9-1.3 1.6-1.5 2.5-1.5-.9-2.2.7-2 2.1-8.5-6 .6.6 3.7-.8 5.9-1.5.8z"/><path fill-rule="evenodd" fill="#1E67F2" d="M10.1 54l-.9.4-1.2 1-3.3 1.7-2.9.8-3.4.5-5.2-.3-4.6-1 6.1 3 3.6.4 4.5-.5 3.5-1.1 2.3-1.6 1.4-1.3.7-2.1z"/><path stroke="#151215" stroke-width=".425" fill="none" d="M10.1 54l-.9.4-1.2 1-3.3 1.7-2.9.8-3.4.5-5.2-.3-4.6-1 6.1 3 3.6.4 4.5-.5 3.5-1.1 2.3-1.6 1.4-1.3.7-2.1z"/><path fill-rule="evenodd" fill="#1E67F2" d="M8.4 54l4.6-1.9 3.1-2.9-.5-4.8-2.1-3.1.5 5.5-3.1 4.7z"/><path stroke="#151215" stroke-width=".425" fill="none" d="M8.4 54l4.6-1.9 3.1-2.9-.5-4.8-2.1-3.1.5 5.5-3.1 4.7z"/><path fill-rule="evenodd" fill="#FFED00" d="M20 55l-1.3-1.5-3.3-1.8c-.1 0-2.1.6-6.1 1.9l-2 .8 4.9-.4 3.4.4 2.3.9 3.9 4.2-1.8-4.5z"/><path stroke="#151215" stroke-width=".425" d="M20 55l-1.3-1.5-3.3-1.8c-.1 0-2.1.6-6.1 1.9l-2 .8 4.9-.4 3.4.4 2.3.9 3.9 4.2-1.8-4.5z" fill="none"/><path fill-rule="evenodd" fill="#F3000B" d="M7.7 56.1l2.1-1.6 3.1-1.7 2.5-2.5.7-2.7 1.7-2.8 4-4.2-11.2 7.2-1.8 3.4.4 3.2z"/><path stroke="#151215" stroke-width=".425" fill="none" d="M7.7 56.1l1.5-1.7-.4-3.2 1.8-3.4 11.2-7.2-4 4.2-1.7 2.8-.7 2.7-2.5 2.5-3.1 1.7z"/><path fill-rule="evenodd" fill="#FFFAD8" d="M9.5 54.4l2.7-1.8.3-2.3 4.1-5.4-4.6 5.3-1.8.9-.5 1.2z"/><path fill-rule="evenodd" fill="#FFD487" d="M16.3 21.8l2.2-5.3.6-.6 2.3-1.3.6-3.8-1.1-2-5 2.9-6.2 10.1 2 .8h2.1z"/><path stroke="#151215" stroke-width=".425" fill="none" d="M16.3 21.8l2.2-5.3.6-.6 2.3-1.3.6-3.8-1.1-2-5 2.9-6.2 10.1 2 .8h2.1z"/><path fill-rule="evenodd" fill="#FFFAD8" d="M29.8 9.2l-1.1-1.8-6-1.6-2.6 2.4-.6.3v.8l.8-.3.6 1.2.2 2.4-.3 2.1-1.3 1.2 8.9-3.7 1-.3z"/><path stroke="#151215" stroke-width=".425" fill="none" d="M29.8 9.2l-1.1-1.8-6-1.6-2.6 2.4-.6.3v.8l.8-.3.6 1.2.2 2.4-.3 2.1-1.3 1.2 8.9-3.7 1-.3z"/><path fill-rule="evenodd" fill="#FFED8B" d="M9 28l.4-1.1.5-.6v-1.5l3.3-1.1.6-1.1h-1.6l-1.4.4.5-3.3 1-1.1 2.7-1.4 1.9-1.6.6-1.9v-1.6l-.4-1.4-1.6-5.2-.1-.5 1.1-2.6-2-1.8h-7.3l-.3.3.2 2.5-3.5 1.5-2.1 2.3-.5 3.8.5 2.8 1.7 2.5v4.4l-1.3 1.2-1.9 3.9.8.5h1.9l.8 1 2.6.7z"/><path stroke="#151215" stroke-width=".425" fill="none" d="M9 28l.4-1.1.5-.6v-1.5l3.3-1.1.6-1.1h-1.6l-1.4.4.5-3.3 1-1.1 2.7-1.4 1.9-1.6.6-1.9v-1.6l-.4-1.4-1.6-5.2-.1-.5 1.1-2.6-2-1.8h-7.3l-.3.3.2 2.5-3.5 1.5-2.1 2.3-.5 3.8.5 2.8 1.7 2.5v4.4l-1.3 1.2-1.9 3.9.8.5h1.9l.8 1 2.6.7z"/><path fill-rule="evenodd" fill="#C89E3F" d="M-14.8 26.1l-1.2 20.6-.3 1.7-.6.9 1.6 1.1h1.6l1.2-1.1 2.3-43.5-1.2-1.2-3.6-.6-.6 10.2.9 2.1z"/><path stroke="#151215" stroke-width=".425" fill="none" d="M-14.8 26.1l.1-9.8-.9-2.1.6-10.2 3.6.6 1.2 1.2-2.3 43.5-1.2 1.1h-1.6l-1.6-1.1.6-.9.3-1.7z"/><path fill-rule="evenodd" fill="#00798F" d="M-15.6 4.1l4 1.7h1.5l.6-.5.4-.9 1.7.2.3 4.5 14.8 6.1-6.9-11.3-3.1-3.2-2.8 1.1-1.8-1.6h-8.4l-.3 2z"/><path stroke="#151215" stroke-width=".425" fill="none" d="M-15.6 4.1v-1.9l.3-2h8.4l1.8 1.6 2.8-1.1 3.1 3.2 6.9 11.3-14.8-6.1-.3-4.5-1.7-.2-.4.9-.6.5h-1.5z"/><path fill-rule="evenodd" fill="#FFD487" d="M-20.8 28.5l1.5 1.9v6.2l.3.7.7 3 3.5.9.9-.5 1.3-.4.1-.8-.3-.3 1.3-1-.3 1.7h.7l.3-1.1-.5-.8.3-1.2.6-.7-.2-1.2-.1-.3.1-.4v-1.4l-.7-.2v.7l-1.3.4-1.7-.9-.9-3.6-1.5-3.9-3.6.3z"/><path stroke="#151215" stroke-width=".425" fill="none" d="M-20.8 28.5l1.5 1.9v6.2l.3.7.7 3 3.5.9.9-.5 1.3-.4.1-.8-.3-.3 1.3-1-.3 1.7h.7l.3-1.1-.5-.8.3-1.2.6-.7-.2-1.2-.1-.3.1-.4v-1.4l-.7-.2v.7l-1.3.4-1.7-.9-.9-3.6-1.5-3.9-3.6.3z"/><path fill-rule="evenodd" fill="#FFFAD8" d="M-20.4 28.5l.5-1.8 1.3-.9h1.8l.4.3.4-.3-.3-1.1-1.1-2.1-1.4-6.3h-1l-3.6 1.5-1.3.9-1 2.1-.7 1.8 6 6.9z"/><path stroke="#151215" stroke-width=".425" fill="none" d="M-20.4 29.5l-.2-.2.2-.8.5-1.8 1.3-.9h1.8l.4.3.4-.3-.3-1.1-1.1-2.1-1.4-6.3h-1l-3.6 1.5-1.3.9-1 2.1-.7 1.8 5.8 6.7"/><g fill-rule="evenodd" fill="#151215"><path d="M-3.9 55.8l.3-.7.1-.9-.6-2.7-.3-.5 1.4-.3.4.4.8-.3-.2-.4h-2.5l-.5.6.8 1.2.2 2.2h-.5l-.1-.7-.8-.1-.2.8h-.5l.4.7h1.5l-.9.5-1-.3-.1.8 1 .4zM1.5 56.8l1.2-1.2-.2-.1-1.1.7h-1l-1.3-.3-.8.4 1.2.5zM2.4 54.2l-1.1.3-.2-.6-.6-.1.5-.8-.9.2-1 .9-.1.6.3.6 1.4.2 1-.5zM-3.1 47.1h-.9l-.4.5-.1.7-.6.1.5.4 1-.2 1.7.2 1.2-.5-2.7-.2-.8.1.1-.5.5-.2 1.5.3zM1.8 43.7l-3.1-.4.1-2.1.3-2-.7.7-.4 1.3-.1 2.2-.9.1-.2.6h1.7l4.6.8-.6-.5-1.8-.5h1zM-1.4 35.4l1-.6 2.2.3-2.2-1.2-1 1.3z"/></g></g><g clip-rule="evenodd" stroke="#151215" stroke-width=".425" fill="none"><path d="M-12.9 39.2l-1.2.4-4.9-2.4M-17.2 36.5h1l3.1 1.4 2.1-1.1M-10.8 34.6l-1.7 1.1-3.4-.8M11.1 20.7l.7.2 2.4-.6 1 .3M.8 8.2l-5.9-6.4M-11.4 27.7l1.3-21.9.5-.4.5-1h-1.1M16.4 2.6l-2.1.1-3.6-.4-3.8-1.4M15.9 38.7l1.2-.9-2.2-3.9-4.2-9.3M24.9 32.8l-5.1-5.7-3.2-6M24.7 32.8l-.5.8M-14.8 24.1l-2-9.5M-32.9 28.2h5.7l3.5 1M31.1 17l-3 1.9-1.9 2.4M-3.1 41l-.5-3.8M8 40.5v-1.8M-26.4 22.6l-3.2-.9M-18.8 16.3l.5-3.8M29.4 11.9h2.1"/></g><g fill-rule="evenodd" clip-rule="evenodd" opacity=".5" enable-background="new"><path d="M1.8 57.9l2.7-.7-10.5-1.1-.1-1.1-.5-1.4.2-2 1.9-6.7-1.8.7-1.5 2-1.2-.3h-1.8l2.7 6.9-2.4 1.8-.9 1.1 4.7.9 5.3.3zM8.2 60.2l.3-3-2.5 1.8-1.5 4.1zM-18.5 25.8h1.7l-3.5-9.6-2.9 1.5 3.5 5.1zM-17.5 33.9l1-1.1-1.5-2.6-2.4-1.3 1.1 1.5.1 6.5zM4.1 27.4l1 .3.9-10.8-.3-2.7-2.4-1.1 1.2 3.5zM0 25.8l.8.5 1.7-4 1.4-1.6-.6-.1-1.5 1.3zM-7.4 4.6l.5 4.5 2.8 1 1.2-2.6zM4.9 6.1l-1.4 2.1 1.7 2.6.8-2.5 2.8-2.8.4-1 .2-2.5 1.8.3 3.1.4 2.1-.2-2-2h-7.8l1.8 1.1-.6 2.4zM.8 3.8l-3-3.1-2.8 1.1-.8-1-1.1-.6-5.9.2 2 .6-.2.7 4.7 2.1 7.5 5.7.6-.4-3.6-3.5zM17.3 11.3l.4 1.8-.7 2.5-1.5 1.3.9 4.1 2.1-4.6.1-3.8 10.1-5.2-3.3-.9z"/></g></symbol><symbol viewBox="-8.2 -7.9 16.3 15.8"><path fill-rule="evenodd" clip-rule="evenodd" fill="#E61616" d="M6.5 6.8c1.1-.8 1.6-2 1.5-3.6-.1-1.6-.7-3-2-4.4-1.2-1.4-3.2-3.5-6-6.4-2.8 2.9-4.8 5.1-6 6.4-1.2 1.4-1.9 2.9-2 4.4-.1 1.6.4 2.8 1.5 3.6 1 .8 2.1 1.1 3.3.8 1.2-.1 2.3-.8 3.2-1.8 1 1 2 1.7 3.2 1.8 1.2.3 2.3 0 3.3-.8z"/><path fill-rule="evenodd" clip-rule="evenodd" fill-opacity=".298" d="M0-7.6v13.4c1 1 2 1.6 3.2 1.8 1.2.2 2.3-.1 3.3-.8 1.1-.8 1.6-2 1.5-3.6-.1-1.6-.7-3-2-4.4-1.2-1.4-3.2-3.5-6-6.4z"/><path clip-rule="evenodd" stroke="#151215" stroke-width=".1" stroke-linecap="round" stroke-linejoin="round" stroke-miterlimit="3" d="M0-7.6c2.8 2.9 4.8 5.1 6 6.4 1.2 1.4 1.9 2.9 2 4.4.1 1.6-.4 2.8-1.5 3.6-1 .8-2.1 1.1-3.3.8-1.2-.2-2.2-.8-3.2-1.8v-13.4z" fill="none"/><path clip-rule="evenodd" stroke="#151215" stroke-width=".35" d="M6.5 6.8c-1 .8-2.1 1.1-3.3.8-1.2-.1-2.2-.8-3.2-1.8-.9 1.1-2 1.7-3.2 1.9-1.2.2-2.3-.1-3.3-.8-1.1-.9-1.6-2.1-1.5-3.7.1-1.6.8-3 2-4.4 1.2-1.4 3.2-3.5 6-6.4 2.8 2.9 4.8 5.1 6 6.4 1.2 1.4 1.9 2.9 2 4.4.1 1.6-.4 2.8-1.5 3.6z" fill="none"/></symbol><symbol id="c" viewBox="-49 -74 98 148"><path fill="#F0F7E6" d="M48-68.5c0-3-2.5-5.5-5.5-5.5h-86c-3 0-5.5 2.5-5.5 5.5v136c0 3 2.5 5.5 5.5 5.5h86c3 0 5.5-2.5 5.5-5.5v-136z"/><path fill="#000" d="M43 73c2.8 0 5-2.2 5-5v-136c0-2.8-2.2-5-5-5h-86c-2.8 0-5 2.2-5 5v136c0 2.8 2.2 5 5 5h86m0 1h-86c-3.3 0-6-2.7-6-6v-136c0-3.3 2.7-6 6-6h86c3.3 0 6 2.7 6 6v136c0 3.3-2.7 6-6 6z"/></symbol><symbol id="g" viewBox="-41 -66 82 132"><g><g fill-rule="evenodd" clip-rule="evenodd"><path d="M33 66h-66v-1h66zM33-65h-66v-1h66zM-41 37h1v-88h-1zM41-37h-1v88h1zM40-.5h-80v1h80z"/></g></g></symbol><symbol viewBox="-7.7 -10.4 15.4 20.8"><g clip-rule="evenodd"><path fill-rule="evenodd" fill="#fe0" d="M0-5.9l-.4.2-.6-2.1 1-.9 1 .8-.6 2.1-.4-.1zm3-.3l-1.5.2.9-2.1-1.5-1-.9-1-.9 1-1.5 1 .9 2.1-1.5-.2 3 2.2 3-2.2z"/><path stroke="#222123" stroke-width=".35" d="M3-6.2l-3 2.2-3-2.2 1.5.2-.9-2.1 1.5-1 .9-1 .9 1 1.5 1-.9 2.1 1.5-.2zm-3 .3l.4.2.6-2.2-1-.8-1.1.8.6 2.1.5-.1z" fill="none"/></g><use xlink:href="#b" width="15.4" height="15.4" x="-7.7" y="-7.7" transform="translate(0 2.703)" overflow="visible"/></symbol><symbol id="b" viewBox="-7.7 -7.7 15.4 15.4"><path fill-rule="evenodd" clip-rule="evenodd" fill="#F40D1D" d="M6.8 3.3c.5-1 .7-2.1.7-3.3 0-1.2-.2-2.3-.7-3.3-.4-.8-.9-1.5-1.5-2-1.5-1.5-3.2-2.2-5.3-2.2-2 0-3.8.7-5.3 2.1-.7.8-1.2 1.5-1.5 2.1-.5 1-.8 2.1-.8 3.3 0 1.2.3 2.2.8 3.3.4.8.9 1.5 1.5 2.1 1.5 1.4 3.3 2.1 5.3 2.1s3.8-.7 5.3-2.1c.5-.5 1-1.2 1.5-2.1z"/><g clip-rule="evenodd"><path fill-rule="evenodd" fill="#00AFE7" d="M6.8 3.3c-2.4-.5-4.6-.7-6.8-.7s-4.4.2-6.8.7c.4.8.9 1.5 1.5 2.1 1.9-.7 3.7-1.1 5.3-1.1 1.7 0 3.4.4 5.3 1.1.5-.6 1-1.3 1.5-2.1z"/><path stroke="#222123" stroke-width=".35" d="M6.8 3.3c-.5.8-1 1.5-1.5 2.1-1.9-.7-3.6-1.1-5.3-1.1-1.7 0-3.4.4-5.3 1.1-.6-.6-1.1-1.3-1.5-2.1 2.4-.5 4.7-.7 6.8-.7 2.2 0 4.4.2 6.8.7z" fill="none"/><path fill-rule="evenodd" fill="#00AFE7" d="M6.8-3.3c-.4-.8-.9-1.5-1.5-2-1.9.7-3.6 1-5.2 1-1.8 0-3.5-.4-5.3-1.1-.8.8-1.3 1.5-1.6 2.1 2.4.5 4.6.7 6.8.7s4.4-.2 6.8-.7z"/><path stroke="#222123" stroke-width=".35" d="M6.8-3.3c-2.4.5-4.6.7-6.7.7-2.2 0-4.5-.2-6.8-.7.2-.6.7-1.3 1.4-2.1 1.8.8 3.6 1.1 5.3 1.1 1.6 0 3.4-.4 5.2-1.1.7.6 1.2 1.3 1.6 2.1z" fill="none"/></g><g fill-rule="evenodd" clip-rule="evenodd" fill="#fe0"><path d="M7.2 0l-1 1.3-2-.5 1.1.5-.6 1.3-.8-.5.2-.5-1.9-.4-.5-.7-1.7 1.8-1.9-1.8-.5.6-2 .4.4.6-.8.5-.6-1.2 1.2-.5-2 .5-1-1.3 1-1.2 2 .5-1.2-.5.6-1.3.8.4-.3.5 2 .4.5.6 1.8-1.8 1.8 1.8.5-.6 1.9-.4-.3-.5.8-.5.6 1.3-1.2.4 2-.5 1.1 1.3zM1.6-6.8v1.1l-1.6 1.1-1.6-1 .1-1.1-1.4 1.1-1.5-.5c1.4-1 2.8-1.4 4.4-1.4 1.6 0 3 .5 4.4 1.4l-1.5.5-1.3-1.2zM-1.5 6.6l-.1-1.1 1.6-1 1.6 1v1.1l1.4-1.1 1.5.5c-1.3 1-2.8 1.5-4.5 1.5-1.6 0-3.1-.5-4.5-1.5l1.6-.6 1.4 1.2z"/></g><path clip-rule="evenodd" stroke="#1A1A1A" stroke-width=".35" fill="none" d="M0-7.5v15"/><path fill-rule="evenodd" clip-rule="evenodd" fill-opacity=".149" d="M0 7.5v-15h.1c2 0 3.8.7 5.3 2.1.6.8 1.1 1.5 1.4 2.1.5 1 .8 2.1.8 3.3 0 1.2-.3 2.2-.8 3.3-.4.8-.9 1.5-1.5 2.1-1.5 1.4-3.2 2.1-5.3 2.1z"/><path clip-rule="evenodd" stroke="#222123" stroke-width=".35" d="M6.8 3.3c-.5.8-1 1.5-1.5 2.1-1.5 1.4-3.2 2.1-5.3 2.1-2 0-3.8-.7-5.3-2.1-.6-.6-1.1-1.3-1.5-2.1-.5-1-.8-2.1-.8-3.3 0-1.2.3-2.3.8-3.3.3-.6.8-1.3 1.5-2.1 1.5-1.4 3.3-2.1 5.3-2.1 2.1 0 3.8.7 5.3 2.2.6.6 1.1 1.3 1.5 2 .5 1.1.7 2.2.7 3.3 0 1.1-.2 2.2-.7 3.3z" fill="none"/></symbol><symbol id="e" viewBox="-3.5 -6 7 12"><path d="M-1.3-2.5c0-.3 0-.5.1-.8 0-.2.1-.4.2-.6.1-.1.2-.3.4-.4.1-.1.3-.1.6-.1s.5 0 .6.1c.2.1.3.3.4.4.1.2.2.4.2.6 0 .2.1.5.1.8v8.5h2.2v-8.5c0-.7-.1-1.3-.3-1.7-.2-.5-.5-.9-.8-1.1-.3-.3-.7-.5-1.1-.6-.4-.1-.9-.1-1.3-.1s-.9 0-1.3.1-.8.2-1.1.5c-.3.3-.6.6-.8 1.1-.2.5-.3 1.1-.3 1.8v8.5h2.2v-8.5z"/></symbol><use xlink:href="#c" width="98" height="148" x="-49" y="-74" transform="matrix(1 0 0 -1 50 75)" overflow="visible"/><g><g><use xlink:href="#d" width="8.6" height="10.9" x="-4.3" y="-5.5" transform="matrix(-1 0 0 1 90 121.5)" overflow="visible"/><use xlink:href="#d" width="8.6" height="10.9" x="-4.3" y="-5.5" transform="matrix(1 0 0 -1 10 28.5)" overflow="visible"/><use xlink:href="#e" width="7" height="12" x="-3.5" y="-6" transform="matrix(-1 0 0 1 90 136)" overflow="visible"/><use xlink:href="#e" width="7" height="12" x="-3.5" y="-6" transform="matrix(-1 0 0 1 10 136)" overflow="visible"/><use xlink:href="#e" width="7" height="12" x="-3.5" y="-6" transform="matrix(1 0 0 -1 90 14)" overflow="visible"/><use xlink:href="#e" width="7" height="12" x="-3.5" y="-6" transform="matrix(1 0 0 -1 10 14)" overflow="visible"/><use xlink:href="#f" width="69.3" height="63.4" x="-34.6" transform="matrix(-1 0 0 1 50 75)" overflow="visible"/><use xlink:href="#f" width="69.3" height="63.4" x="-34.6" transform="matrix(1 0 0 -1 50 75)" overflow="visible"/><use xlink:href="#g" width="82" height="132" x="-41" y="-66" transform="matrix(1 0 0 -1 50 75)" overflow="visible"/><use xlink:href="#h" width="16.6" height="25.2" x="-8.3" y="-12.6" transform="matrix(-1 0 0 1 81 81)" overflow="visible"/><use xlink:href="#h" width="16.6" height="25.2" x="-8.3" y="-12.6" transform="matrix(1 0 0 -1 19 69)" overflow="visible"/></g></g></svg>
