<svg xmlns="http://www.w3.org/2000/svg" xmlns:xlink="http://www.w3.org/1999/xlink" viewBox="0 0 100 150" enable-background="new 0 0 100 150"><symbol viewBox="-4.9 -10.1 9.8 20.2"><path fill-rule="evenodd" clip-rule="evenodd" fill="#009C22" d="M0-1.3c3.1 0 4.7-1.6 4.7-3 0-2.6-2.6-3.9-3.5-4.2-1.1-.4-1.2-1.4-1.2-1.4s-.1 1-1.3 1.5c-.9.3-3.5 1.6-3.5 4.2.1 1.3 1.7 2.9 4.8 2.9z"/><path fill-rule="evenodd" clip-rule="evenodd" fill="#006F20" d="M0-1.3v-8.6s-.1 1-1.3 1.5c-.9.3-3.5 1.6-3.5 4.2.1 1.3 1.7 2.9 4.8 2.9z"/><path fill-rule="evenodd" clip-rule="evenodd" fill="#F40D1D" d="M3.5-2.2h-7v8.7l3.5 3.4 3.5-3.4z"/><path fill-rule="evenodd" clip-rule="evenodd" fill="#AC0019" d="M0-2.2h-3.5v8.7l3.5 3.4z"/><path stroke="#000" stroke-width=".35" stroke-linecap="round" stroke-linejoin="round" stroke-miterlimit="10" fill="none" d="M0-9.9v6.9M0 9.9v-11.8"/><path fill-rule="evenodd" clip-rule="evenodd" fill="#fe0" d="M3.5-1.2v-1.1c-.8-.4-2.1-.7-3.5-.7s-2.7.3-3.5.7v1.1c.8-.4 2-.7 3.5-.7s2.7.3 3.5.7z"/><path clip-rule="evenodd" stroke="#000" stroke-width=".35" stroke-linecap="round" stroke-linejoin="round" stroke-miterlimit="10" d="M-3.5-2.2v8.7l3.5 3.4 3.5-3.5v-8.7c.8-.6 1.3-1.3 1.3-2 0-2.6-2.6-3.9-3.5-4.2-1.2-.4-1.3-1.4-1.3-1.4s-.1 1-1.3 1.5c-.9.3-3.5 1.6-3.5 4.2.1.6.5 1.4 1.3 2z" fill="none"/><path clip-rule="evenodd" stroke="#000" stroke-width=".25" stroke-linecap="round" stroke-miterlimit="10" d="M3.5-2.3c-.8-.4-2.1-.7-3.5-.7s-2.7.3-3.5.7" fill="none"/></symbol><symbol viewBox="-6.7 -8.5 13.4 17"><path fill-rule="evenodd" clip-rule="evenodd" fill="#009915" d="M0 8.3c1.5-1.4 2.4-2.2 2.5-2.5.4-.8.5-1.8.3-3l1.2 1.7.8-1.1c.5-.8.8-1.4.9-1.8.2-.9-.1-2-.9-3.3l1.6.9c.1-2.4-.1-4-.4-4.7-.3-.6-1.1-1-2.3-1.2l1.8-.6c-.8-.7-1.8-1-2.8-1-.1 0-.4.3-1 .8-.4.4-.8.3-1.2-.3h-1c-.4.6-.8.6-1.2.2-.6-.6-.9-.8-1-.8-1 0-2 .4-2.9 1.1l1.8.6c-1.2.2-2 .6-2.3 1.3-.2.5-.4 1.4-.4 2.8v2l1.6-.9c-.8 1.3-1 2.4-.9 3.3.1.4.4 1 .9 1.8.3.4.6.7.8 1.1l1.2-1.7c-.1 1 0 2 .4 2.8.1.3 1 1.1 2.5 2.5z"/><path fill-rule="evenodd" clip-rule="evenodd" fill-opacity=".298" d="M-4.9 3.5c.3.4.6.7.8 1.1l1.2-1.7c-.1 1.1 0 2.1.4 2.9.2.3 1 1.2 2.6 2.5v-16h-.5c-.4.5-.8.6-1.2.2-.6-.5-.9-.8-1-.8-1 0-2 .4-2.9 1.1l1.8.6c-1.2.2-2 .6-2.3 1.3-.3.4-.5 1.3-.5 2.7v2l1.6-.9c-.8 1.3-1 2.4-.9 3.3.1.3.4.9.9 1.7z"/><path clip-rule="evenodd" stroke="#000" stroke-width=".031" stroke-linecap="round" stroke-linejoin="round" stroke-miterlimit="3" d="M-4.9 3.5c-.5-.8-.8-1.4-.9-1.8-.2-.9.1-2 .9-3.3l-1.6.9v-2c0-1.3.2-2.2.4-2.7.4-.7 1.1-1.2 2.3-1.3l-1.8-.6c.9-.7 1.9-1 2.9-1 .1 0 .4.3 1 .8.4.4.8.3 1.2-.2h.5v16c-1.5-1.4-2.4-2.2-2.6-2.5-.3-.8-.4-1.8-.3-3l-1.2 1.7c-.2-.3-.5-.7-.8-1z" fill="none"/><path clip-rule="evenodd" stroke="#151215" stroke-width=".35" d="M0 8.3c-1.5-1.4-2.4-2.2-2.6-2.5-.3-.8-.4-1.8-.3-3l-1.2 1.7c-.2-.3-.5-.7-.8-1.1-.5-.8-.8-1.4-.9-1.8-.2-.9.1-2 .9-3.3l-1.6.9v-2c0-1.2.2-2.1.4-2.6.4-.7 1.1-1.2 2.3-1.3l-1.8-.6c.9-.7 1.9-1 2.9-1 .1 0 .4.3 1 .8.4.4.8.3 1.2-.2h1c.4.6.8.6 1.2.2.6-.6.9-.8 1-.8 1 0 2 .4 2.9 1.1l-1.9.5c1.2.2 2 .6 2.3 1.3.4.7.5 2.3.4 4.7l-1.5-.9c.8 1.3 1 2.4.9 3.3-.1.4-.4 1-.9 1.8l-.8 1-1.3-1.7c.2 1.2.1 2.2-.3 3-.1.3-1 1.1-2.5 2.5z" fill="none"/></symbol><symbol id="g" viewBox="-8.2 -7.9 16.3 15.8"><path fill-rule="evenodd" clip-rule="evenodd" fill="#E61616" d="M6.5 6.8c1.1-.8 1.6-2 1.5-3.6-.1-1.6-.7-3-2-4.4-1.2-1.4-3.2-3.5-6-6.4-2.8 2.9-4.8 5.1-6 6.4-1.2 1.4-1.9 2.9-2 4.4-.1 1.6.4 2.8 1.5 3.6 1 .8 2.1 1.1 3.3.8 1.2-.1 2.3-.8 3.2-1.8 1 1 2 1.7 3.2 1.8 1.2.3 2.3 0 3.3-.8z"/><path fill-rule="evenodd" clip-rule="evenodd" fill-opacity=".298" d="M0-7.6v13.4c1 1 2 1.6 3.2 1.8 1.2.2 2.3-.1 3.3-.8 1.1-.8 1.6-2 1.5-3.6-.1-1.6-.7-3-2-4.4-1.2-1.4-3.2-3.5-6-6.4z"/><path clip-rule="evenodd" stroke="#151215" stroke-width=".1" stroke-linecap="round" stroke-linejoin="round" stroke-miterlimit="3" d="M0-7.6c2.8 2.9 4.8 5.1 6 6.4 1.2 1.4 1.9 2.9 2 4.4.1 1.6-.4 2.8-1.5 3.6-1 .8-2.1 1.1-3.3.8-1.2-.2-2.2-.8-3.2-1.8v-13.4z" fill="none"/><path clip-rule="evenodd" stroke="#151215" stroke-width=".35" d="M6.5 6.8c-1 .8-2.1 1.1-3.3.8-1.2-.1-2.2-.8-3.2-1.8-.9 1.1-2 1.7-3.2 1.9-1.2.2-2.3-.1-3.3-.8-1.1-.9-1.6-2.1-1.5-3.7.1-1.6.8-3 2-4.4 1.2-1.4 3.2-3.5 6-6.4 2.8 2.9 4.8 5.1 6 6.4 1.2 1.4 1.9 2.9 2 4.4.1 1.6-.4 2.8-1.5 3.6z" fill="none"/></symbol><symbol id="c" viewBox="-5.4 -5.2 10.7 10.4"><path fill-rule="evenodd" clip-rule="evenodd" fill="#E61616" d="M4.2 4.4c.7-.5 1-1.3 1-2.3-.1-1-.5-2-1.3-2.9-.8-.9-2.1-2.2-3.9-4.1-1.8 1.9-3.1 3.2-3.9 4.1-.8.9-1.2 1.9-1.3 2.9-.1 1 .3 1.8 1 2.3.7.5 1.4.7 2.2.6.7-.2 1.4-.6 2-1.3.6.7 1.3 1.1 2.1 1.3.7.1 1.4-.1 2.1-.6z"/><path fill-rule="evenodd" clip-rule="evenodd" fill-opacity=".298" d="M0-4.9v8.7c.6.6 1.3 1 2.1 1.2.8.1 1.5 0 2.1-.5.7-.5 1-1.3 1-2.3-.1-1-.5-2-1.3-2.9-.8-1-2.1-2.3-3.9-4.2z"/><path clip-rule="evenodd" stroke="#151215" stroke-width=".1" stroke-linecap="round" stroke-linejoin="round" stroke-miterlimit="3" d="M0-4.9c1.8 1.9 3.1 3.2 3.9 4.1.8.9 1.2 1.9 1.3 2.9.1 1-.3 1.8-1 2.3-.7.5-1.4.7-2.1.6-.8-.2-1.5-.6-2.1-1.2v-8.7z" fill="none"/><path clip-rule="evenodd" stroke="#151215" stroke-width=".35" d="M4.2 4.4c-.7.5-1.4.7-2.1.6-.8-.2-1.5-.6-2.1-1.3-.6.7-1.3 1.1-2 1.3-.8.1-1.5 0-2.2-.5-.7-.5-1-1.3-1-2.3.1-1 .5-2 1.3-2.9.8-1 2.1-2.3 3.9-4.2 1.8 1.9 3.1 3.2 3.9 4.1.8.9 1.2 1.9 1.3 2.9 0 1-.3 1.8-1 2.3z" fill="none"/></symbol><symbol id="e" viewBox="-38.5 0 76.9 63.8"><path fill-rule="evenodd" clip-rule="evenodd" fill="#fff" d="M-3.3 34.5l-1.7 4.3h4.1z"/><path clip-rule="evenodd" stroke="#151215" stroke-width=".425" fill="none" d="M-3.3 34.5l2.4 4.3h-4.1z"/><path fill-rule="evenodd" clip-rule="evenodd" fill="#F3000B" d="M8 20.4v-20.2l-20.3.5-2.2 10.7 1.3 27.1c4.1 1.3 6.2 2 6.4 2.2.1-.1.5-.6 1.3-1.4l1.5-1.4.3-1.7.8-.3 1.1 2.3 8.1 3.3.7-.1c.5-.1.8-.3.8-.4 0-.2.1-7.1.2-20.6z"/><path clip-rule="evenodd" stroke="#151215" stroke-width=".425" d="M8 20.4v-20.2l-20.3.5-2.2 10.7 1.3 27.1c4.1 1.3 6.2 2 6.4 2.2.1-.1.5-.6 1.3-1.4l1.5-1.4.3-1.7.8-.3 1.1 2.3 8.1 3.3.7-.1c.5-.1.8-.3.8-.4 0-.2.1-7.1.2-20.6z" fill="none"/><g clip-rule="evenodd"><path fill-rule="evenodd" fill="#006A9D" d="M-34.1 8.6l.1-.4-.4.4h.3l-.8 2.2 1.6 4.3 7.7-3c-.1-2.2-.2-3.3-.4-3.4-.3 0-3-.1-8.1-.1z"/><path stroke="#151215" stroke-width=".425" d="M-34.4 8.6h.3l-.8 2.2 1.6 4.3 7.7-3c-.1-2.2-.2-3.3-.4-3.4-.2-.1-2.9-.2-8.1-.2l.1-.4" fill="none"/></g><g clip-rule="evenodd"><path fill-rule="evenodd" fill="#730B0E" d="M-12.2 21.7l-.7-13.9-2.4-3.5-5.9 9.8c-.1.9-.3 2.2-.4 3.7-.3 3.1-.4 5.9-.2 8.4.2 2.2.6 4.6 1.4 7.1l1.1 3.2 3.1.8 4.2 2.5 3.2.8.4-.8-1.9-3-1.9-15.1z"/><path stroke="#151215" stroke-width=".425" d="M-12.2 21.7l-.7-13.9-2.4-3.5-5.9 9.8c-.1.9-.3 2.2-.4 3.7-.3 3.1-.4 5.9-.2 8.4.2 2.2.6 4.6 1.4 7.1l1.1 3.2 3.1.8 4.2 2.5 3.2.8.4-.8-1.9-3-1.9-15.1z" fill="none"/><path fill-rule="evenodd" fill="#730B0E" d="M7.1 41.8l13.2-5.9-5.7-35.2-8.5-.2v4.7l1 17.5-.6 17.9z"/><path stroke="#151215" stroke-width=".425" fill="none" d="M7.1 41.8l-.6-1.2.6-17.9-1-17.5v-4.7l8.5.2 5.7 35.2z"/></g><g clip-rule="evenodd"><path stroke="#FFED00" stroke-width=".85" fill="none" d="M-8.7 39.4l4.5-4M-6.6 37.5l-1.3-3.8-.8-8.9-1.1-24.1M-.8 35.5l5.3 2.1 2 2M4.5 37.6l.1-5.9-2-31.5"/><path fill-rule="evenodd" fill="#006A9D" d="M-4.2 35.2h3.2l-.4-33.1.1-1.7-4.6.3.8 22.6z"/><path stroke="#FFED00" stroke-width=".85" fill="none" d="M-5.9.7l.8 22.6.9 11.9h3.2l-.4-33.1.1-1.7"/></g><g clip-rule="evenodd"><path fill-rule="evenodd" fill="#006A9D" d="M-1.6 31.6l-1.1-.7-1 .7v1.2l1 .6 1.1-.6z"/><path stroke="#FFED00" stroke-width=".85" fill="none" d="M-1.6 31.6l-1.1-.7-1 .7v1.2l1 .6 1.1-.6z"/><path fill-rule="evenodd" fill="#006A9D" d="M-1.9 24.9l-1-.7-1.1.6v1.3l1.1.6 1-.6z"/><path stroke="#FFED00" stroke-width=".85" fill="none" d="M-1.9 24.9l-1-.7-1.1.6v1.3l1.1.6 1-.6z"/><path fill-rule="evenodd" fill="#006A9D" d="M-4.3 19.7l1.1.6 1-.6v-1.2l-1-.7-1.1.6z"/><path stroke="#FFED00" stroke-width=".85" fill="none" d="M-4.3 19.7l1.1.6 1-.6v-1.2l-1-.7-1.1.6z"/><path fill-rule="evenodd" fill="#006A9D" d="M-3.4 13.2l1.1-.6v-1.2l-1-.7-1.1.6v1.3z"/><path stroke="#FFED00" stroke-width=".85" fill="none" d="M-3.4 13.2l1.1-.6v-1.2l-1-.7-1.1.6v1.3z"/><path fill-rule="evenodd" fill="#006A9D" d="M-3.6 5.4l1.1-.7v-1.2l-1.1-.6-1.1.6v1.2z"/><path stroke="#FFED00" stroke-width=".85" fill="none" d="M-3.6 5.4l1.1-.7v-1.2l-1.1-.6-1.1.6v1.2z"/></g><path fill-rule="evenodd" clip-rule="evenodd" fill="#FFED00" d="M7.2 21.5l-3.8-5.7-3.1-3.8-4.9-1.8-1.3-.1v-2.5l-1.3-2.2-1.5-1-.6 1 1.7 3.3 1.4 1.7-.7 1.1-2.1 1.1-2 1.5-.2 1 3.2-2.5 2.8-1.4 4.6 1.2 6.9 8.9z"/><path clip-rule="evenodd" stroke="#151215" stroke-width=".425" fill="none" d="M7.2 21.5l-3.8-5.7-3.1-3.8-4.9-1.8-1.3-.1v-2.5l-1.3-2.2-1.5-1-.6 1 1.7 3.3 1.4 1.7-.7 1.1-2.1 1.1-2 1.5-.2 1 3.2-2.5 2.8-1.4 4.6 1.2 6.9 8.9z"/><g clip-rule="evenodd"><path fill-rule="evenodd" fill="#FFED00" d="M7 25.2l6.7 10 1-.6.2 1.7 1.8-1.1-1.1-.8.9-1.5-7.6-10.5-4.6-3.8-4.3-1.4h-5.3l-3.6 1.4-3.3 3.5-5.2 10.8 1.9 1-1.2 1.3 2.3.7-.4-1.5 1.5.8.1-2.7 1.6-5.3 3.1-4.8 5.3-1.9 5.6 1.1z"/><path stroke="#151215" stroke-width=".425" fill="none" d="M7 25.2l-4.6-3.6-5.6-1.1-5.3 1.9-3.1 4.8-1.6 5.3-.1 2.7-1.5-.8.4 1.5-2.3-.7 1.2-1.3-1.9-1 5.2-10.8 3.3-3.5 3.6-1.4h5.3l4.3 1.4 4.6 3.8 7.6 10.5-.9 1.5 1.1.8-1.8 1.1-.2-1.7-1 .6z"/><g fill-rule="evenodd"><path fill="#006A9D" d="M-14.4 27.1l.5 1.9 1.9-.5-.5-1.9zM-10.6 20.5l-.1 2h2l.1-1.9zM-3.1 17.4l-1.4 1.4 1.4 1.4 1.4-1.4zM5.9 20.4l-1.9.5.6 1.9 1.9-.6zM11.8 26.8l-1.9-.1-.3 1.9 2 .2z"/><path fill="#F3000B" d="M-13.4 30.5c0-.2-.1-.3-.2-.5-.1-.1-.3-.2-.5-.2-.4 0-.7.2-.7.7 0 .4.2.7.7.7.5-.1.7-.3.7-.7zM-11 24.5c0-.4-.2-.7-.7-.7-.4 0-.7.2-.7.7 0 .4.2.6.7.6.4 0 .7-.2.7-.6zM-6.3 20.1c.1-.1.2-.3.2-.4 0-.2-.1-.3-.2-.5-.2-.1-.3-.2-.5-.2-.4 0-.7.2-.7.7 0 .4.2.7.7.7.2 0 .3-.1.5-.3zM.7 19.6c0 .4.2.7.7.7.4 0 .7-.2.7-.7 0-.4-.2-.7-.7-.7-.2 0-.3.1-.4.2-.2.1-.3.3-.3.5zM9 24.5c0-.4-.2-.7-.7-.7-.4 0-.7.2-.7.7 0 .2.1.3.2.4.1.1.3.2.4.2.6.1.8-.1.8-.6zM13.5 30.8c0-.4-.2-.7-.7-.7-.4 0-.7.2-.7.7 0 .2.1.3.2.4.1.1.3.2.4.2.2 0 .3-.1.5-.2s.3-.3.3-.4z"/></g></g><g clip-rule="evenodd"><path fill-rule="evenodd" fill="#FFED00" d="M-20.6 26l3.9-18.6v-2.4l-.9-4.3h-3l-3.1 10-5 1.6-3.9.1-.6-2-1.5-.8-3.3 1-.2.6 2.5 4.4 1 5.8 5.7 6.3 1.8 6.4 8.5 3.7 2-.4-1.6-.5z"/><path stroke="#151215" stroke-width=".425" fill="none" d="M-20.6 26l3.9-18.6v-2.4l-.9-4.3h-3l-3.1 10-5 1.6-3.9.1-.6-2-1.5-.8-3.3 1-.2.6 2.5 4.4 1 5.8 5.7 6.3 1.8 6.4 8.5 3.7 2-.4-1.6-.5z"/><path fill-rule="evenodd" fill="#FFED00" d="M34.8 7.1l-22.5-2.1.8 7.4.8 1.1.4 3.7 1.5 1.7 3.2 13.7.3 3.7-1.7.9 1.3.3 1-.6 3.6.6 3.5-1.6 2.8-3.6.3-2.6 2.1-2.8 4.6-13.3 1.2-2 .2-.6-.6-.5-1.7-2.3z"/><path stroke="#151215" stroke-width=".425" fill="none" d="M34.8 7.1l-22.5-2.1.8 7.4.8 1.1.4 3.7 1.5 1.7 3.2 13.7.3 3.7-1.7.9 1.3.3 1-.6 3.6.6 3.5-1.6 2.8-3.6.3-2.6 2.1-2.8 4.6-13.3 1.2-2 .2-.6-.6-.5-1.7-2.3z"/></g><path fill-rule="evenodd" clip-rule="evenodd" fill="#006A9D" d="M-11.2 13.7l-1-5.8 2.9-7.3h-8.1l1.5 6.9.3 8.5 1.4 3.9 1.3-.8.3.6 4.6-1.8-1-1.3 1.5-.7z"/><path clip-rule="evenodd" stroke="#151215" stroke-width=".425" fill="none" d="M-11.2 13.7l-1-5.8 2.9-7.3h-8.1l1.5 6.9.3 8.5 1.4 3.9 1.3-.8.3.6 4.6-1.8-1-1.3 1.5-.7z"/><path fill-rule="evenodd" clip-rule="evenodd" fill="#DDC67B" d="M-4.4 7.5l-.9.4-.4.7.5.7-2.4-.4-.8.7.4.5 3.4 1.8 2.4.1.9.6 4.2-.3 1.9-.9 1-6.6-3.5-.9-4 .6-.8.9-.5.9.6.8z"/><path clip-rule="evenodd" stroke="#151215" stroke-width=".425" fill="none" d="M-4.4 7.5l2-.4-.6-.8.5-.9.8-.9 4-.6 3.5.9-1 6.6-1.9.9-4.2.3-.9-.6-2.4-.1-3.4-1.8-.4-.5.8-.7 2.4.4-.5-.7.4-.7z"/><g clip-rule="evenodd"><path fill-rule="evenodd" fill="#fff" d="M4.2 12.7l2.9-1.4-.3-7.8-2.5-.9-1.1 2.3h.5l-.8 1.7.5 3.9z"/><path stroke="#151215" stroke-width=".425" fill="none" d="M6.8 3.5l-2.5-.9-1.1 2.3h.5l-.8 1.7.5 3.9.8 2.2 2.9-1.4"/><path fill-rule="evenodd" fill="#F3000B" d="M34.8.5l-14-.1-14 3.1.3 7.8 14.5 1.4 4.5-.7 3 .8 4.6-.4 1-2 1.2-4.8v-3.3z"/><path stroke="#151215" stroke-width=".425" fill="none" d="M34.8.5l-14-.1-14 3.1.3 7.8 14.5 1.4 4.5-.7 3 .8 4.6-.4 1-2 1.2-4.8v-3.3z"/><path fill-rule="evenodd" fill="#fff" d="M33.9 11.6l.2-.9-1.8.6 1.6.3zm-.4-3.8l.9.6.3-.9-1.2.3-2.3-1.6-4.6 1-5.2-1.4-3.9 1.5-3.6-.6-3.3 1-1.6-.6v-2.2l1.7-1.1 2.2.4 3.8-1.7c3.5.4 5.4.5 5.5.5l3.3-1 4.3 1 3.3-.5-3.8-1.7-3.9 1.2-5-1.2-3.7 1.7c-1-.1-2.1-.2-3.3-.3l-2.6 1.6-1.6-.3-.4-.6-.3.2v8.3l2.6-.1 2.1.6 3.7-.1 4.7 1c1.4-.3 2.7-.6 3.7-.8l4.2.5 2.8-1-2.6-.5c-.1 0-1.5.4-4.4 1l-3.5-.4-4.9.2-3-.6-2.7.1-1.9-.6-.2-2.5 1.4-.5 2.9 1.2 4.1-1.6 4.8.8 4.3-.9 4.1 1.1 2.8-.5zm2.5-3.9l-.1-1.7-2.8.4 2.9 1.3z"/><path stroke="#151215" stroke-width=".425" d="M36 3.9l-2.9-1.3 2.8-.4.1 1.7zm-2.5 3.9l1.2-.2-.3.9-.9-.7-2.3-1.6-4.6 1m7.3 4.4l-1.6-.2 1.8-.6-.2.8zm-.7-9l-3.8-1.7-3.9 1.2-5-1.2-3.7 1.7c-1-.1-2.1-.2-3.3-.3l-2.6 1.6-1.7-.4-.4-.6-.3.2v8.3l2.6-.1 2.1.6 3.7-.1 4.7 1c1.4-.3 2.7-.6 3.7-.8l4.2.5 2.8-1-2.6-.5c-.1 0-1.5.4-4.4 1l-3.5-.4-4.9.2-3-.6-2.7.1-1.9-.6-.2-2.5 1.4-.5 2.9 1.2 4.1-1.6 4.8.8 4.3-.9 4.1 1.1 2.8-.6m-8-5.6l-3.3 1c-.1 0-1.9-.1-5.5-.5m.8 4.7l3.9-1.5 5.2 1.4m-1.1-5.1l4.3 1 3.3-.5m-22.3 1.2l-1.8 1.1v2.2l1.5.6m.3-3.9l2.2.4 3.8-1.7m.7 4.8l-3.6-.6-3.3 1" fill="none"/><g fill-rule="evenodd" fill="#006A9D"><path d="M10.5 7.1h-1.4v1.5l1.4.2zM10.4 3.4h-1.3v1.2h1.4zM18 6.5h-1.6v1.7l1.7-.1zM17.6 10.7l-1.6.1-.4 1.2 1.7-.1zM11 11.1h-1.5v.6h1.4zM26.6 11.1h-1.6l-.2 1.1 1.7-.1zM33.6 10.7l-1.6.1-.3 1.2 1.8-.1zM27.5 6.2h-1.5l-.2 1.8 1.7-.1zM34.9 7.1l-1.5-.5.1 1.9 1.2.2zM34.1 2.3l-1.3-.4.2 1.9 1.2.1zM26.6 1.1l-1.4-.1.2 1.9 1.3-.2zM17.9 1.8l-1.8.2v1.5l1.8-.2z"/></g></g><path fill-rule="evenodd" clip-rule="evenodd" fill="#DDC67B" d="M-10.8 9.6l-.3-1-5.8-2.3-2.6-.6-1.2 3.2.3 4.4.8.2 1.5 1.3 3.3 1 2.8-.4 1.6-1.1.2-1.3.5-.3-.4-1.3-.2-.2v-1.3z"/><path clip-rule="evenodd" stroke="#151215" stroke-width=".425" fill="none" d="M-10.8 9.6l-.3-1-5.8-2.3-2.6-.6-1.2 3.2.3 4.4.8.2 1.5 1.3 3.3 1 2.8-.4 1.6-1.1.2-1.3.5-.3-.4-1.3-.2-.2v-1.3z"/><g clip-rule="evenodd"><path fill-rule="evenodd" fill="#fff" d="M-17 5l-2-.6-2 2.8-.7 3.1.6 2.9.4.7.2.7 1.5-.2-1-1.6-.2-4.4.7-1.9.9-.6 2.3.3z"/><path stroke="#151215" stroke-width=".425" fill="none" d="M-17 5l.7 1.2-2.3-.3-.9.6-.7 1.9.2 4.4 1 1.6-1.5.2-.2-.7-.4-.7-.6-2.9.7-3.1 2-2.8z"/><path fill-rule="evenodd" fill="#F3000B" d="M-20.2 4l-1.5-3.5h-12.8l-.9 1.5.1 4.4.4 1.6.8 1.2 2.3 1.2 9.5 2.1 1.3.6-.7-2.8.7-3.1 2-2.8z"/><path stroke="#151215" stroke-width=".425" fill="none" d="M-20.2 4l-1.5-3.5h-12.8l-.9 1.5.1 4.4.4 1.6.8 1.2 2.3 1.2 9.5 2.1 1.3.6-.7-2.8.7-3.1 2-2.8z"/><path fill-rule="evenodd" fill="#fff" d="M-20.2 3.9l-1.4.8.2-.5-1-.4-2.1-2.6-1.7.1-.3-.5-.9.6 1.2-.1.8 1.4 3 1.1.7.9h.1l-1 2.6h-1.9l-1.3-1.6-3.7-.6-2-2h-1.6l-1.4-1.5-.9.3.1 1.2h2.2l1.4 1.6 2.2.4 2.4 2.2h2.6l1.3 1.7.4 2.5h-.7l-2.7-1.3h-1.8l-2.2-1.4-2.6-.1-2.3-1.5.7 1.4 1.6.1 2.2 1.4 2.6.1 2.1 1.4 2.4-.1 1.7.8-.7-2.6.7-2.9 2.3-2.6z"/><path stroke="#151215" stroke-width=".425" fill="none" d="M-20.2 3.9l-1.4.8.2-.5-1-.4-2.1-2.6-1.7.1-.3-.5-.9.6 1.2-.1.8 1.4 3 1.1.7.9h.1l-1 2.6h-1.9l-1.3-1.6-3.7-.6-2-2h-1.6l-1.4-1.5-.9.3.1 1.2h2.2l1.4 1.6 2.2.4 2.4 2.2h2.6l1.3 1.7.4 2.5h-.7l-2.7-1.3h-1.8l-2.2-1.4-2.6-.1-2.3-1.5.7 1.4 1.6.1 2.2 1.4 2.6.1 2.1 1.4 2.4-.1 1.7.8-.7-2.6.7-2.9 2.3-2.6z"/><g fill-rule="evenodd" fill="#006A9D"><path d="M-32.8 2.3l-1.1-.6-.2 1.8 1.1.6zM-32.3 7.9l-1-.3.1 1.6 1 .3zM-27.9 9.6h-1.1l.4 1.2h1.2zM-23.2 10.9l-1.1.1.4 1.1h1.2zM-28.1 4.8l-1.1-.5-.3 1.9 1.2.4zM-23.2 6.6l-1.3-.4-.3 1.7 1.4.5zM-21.4 3.9l-1.1-.9-.8 1.3 1.1.9zM-25.8.4h-1.6l-.2.4 1 .9z"/></g></g><g fill-rule="evenodd" clip-rule="evenodd" fill="#F3000B"><path d="M26.6 36.1l-.8-1.4-.7.9-.9.1.5 1.1-1.5.5-1.4-.2c.3-.7.6-1.2.7-1.3l-2.1 1 3 .6 3.2-1.3zM27.9 34.5l-.5-.7-.7.4.5 1.1c.5-.5.9-1 1.3-1.3l-.6.5zm.5-2.7l-.4 1.3.9-.8-.6 1.2.6.1 1.2-1.2-.2-1.7-.8 1-.7.1zM-28.9 28.2l.2-2.3-1.4-1-2.1-6-2.3-3.1c.4.8.5 1.2.4 1.2l-1.4-.8 2.9 4.2 3.7 7.8zM-30.5 25.9l-1.8-3.9-.9-.4.3-.7-1.5-.4.9-.4-1.6-2.7.7 3.8zM-35.5 15.6l.3-2.1 1-1.2-1.4-.3-.6.2zM20.4 30.5l.4-2.9.6.7.6-1-1-1.1v-.7l1.2 1.4.9-1.4-.6-2.2-1.3-.1-.2.9-.7-2.1-.9 1.1.7 1.2-1.2-1.1-1.1 1.3.5 1 1.5-.6-.9 1.2.8 1.2-.2.5zM19.5 35.7l1-1.7-1.3-.3c1.1-.5 1.6-.8 1.5-.8l-1.6-.5.9-1-1.5-1 1 5.3zM17.7 20.4c1-.9 1.5-1.3 1.5-1.3-.1 0-.5-.2-1.4-.7l-.5.8.3-1.1-1.4-1.6 1.4 7.9c.7-.8 1-1.3 1-1.3l-.2-.6.5-.2.8-1.2-.9-1.5-.8 1.7-.3-.9zM14.5 17.3l1.6 1.6-.8-1.8.2-.1-.2-1.2.1-1.5-.7.3.9-.7-.3-1-.5-.6-1.7-.1.8 1.3zM17.7 17l.8-.8-.4 1.1 1.2 1.8.8-2.1-.6-1-.8-2.5-1-1.1-.8-.1-.5 4.3zM18.5 12.7l2.8.9 3.7-1 .8-.3-4.5.5zM22.6 22.5l1.4 2.2.3-1.6.8-1.4-1-1.1 1.3.7.7-1.5-1.6-.1-.2-.7.6-.9-.1 1.2 1.7-.6-.7-2.1-2.3 1-.1-.8 1.3-1.4-2-.3-1.6 1.2 1.5.7.5.8-.1.5-.8-1-1.7-.1-.2.5.3 2.4.3-.2 1.2-.2.1-.5.4.8-.6.3-1.5.2 1.7 1.3.8-1zM33.9 12.5l-4.7.5-3.2-.8-.4.5 1.4.4v.7l-1.5-.9-.5 1.3.9 1.3.8-.3 1-1-.1-.8.8.1.3.7-2.7 1.9 1.8 1 .1 1.5c.1 1 .1 1.5 0 1.5l-.5-.6-1.1 2.7 1 1.4-.3.3-1.2-.4-.6 1.9 1.2.4 1.2-1.4-.1.8-1.4 1.3s.3.3.8 1l-.1 4 1.8-15.3.8.4.9-1.4h1.2l-.3.8-.8-.1.7.4.8-.8-.8-.8-1.9-.1 1.2-.4-.4-.9 1.4-.2.9 1.9 1.2-1-.1-1 .5-.5zM25.1 34.5l1.2-1.3-1.2-.8c.1 0-.3.7-1.1 2.2l-.1-1.3.4-.3c.1-1.7.1-2.5.2-2.5l.9-.9v1.1l-.2-.7-.4 1 .7.4.7-1.4-.6-1.3-1.2.9-.1-.9.8-.5-.4-.6-.9-2.4-.4 1.5-.3 1.5c.1 0 0 .9-.4 2.7l-.5.7 2-.8-.9 1.5.4.3-1.9.7.9 1.4-1.5-.6-1.2 1.8 5.1-1.4zM30.5 28.6v-1.7l1 .8.9-1.3-.2-.7h-.7l.2-.7.6-.8-.4-1.9-1.3 1.7c.1 0 .2.5.5 1.4l-.3.5-.2-.9h-.4l-.4 1.7.8-.3-.5.6-.6.3-.3 2.1 1.3-.8zM34.4 20.2l-.1-.7h.8l.2-.8-1.1-.6c.8-2.9 1.2-4.3 1.1-4.3-.1 0-.5 0-1.2-.1l-.8 1.6.8 1.9-1.2 4.6.9-1.6h.6zM30.9 20.3l-1.6.2-.3.4.3 1.1 1.5-.8-1.5 1.3.4 4.5 1.2-4.6.6-.4h.5l.4-.8-.8-.1v-.2l1.7-1.7-.1-.4-.8-.5.3-1.7-1 1.2h-.7l-.5-.3 1.9-1.2-1.8.4-1.4 2.5.1.9 1.8-.8zM27.9 27l-1 4.6v1.6l1-1.5-.5-.1c1-.8 1.4-1.2 1.4-1.3l-.9-3.3zM-23.4 31.6h1.4l.5.9 1.2.3.5-.7-.5-.6-.9.5v-1.8l-.8-3.3.6-.7.3-1.2-1.2-.2-.1-4.2-1.6 2.3 1.4 2.3-1.8-1.6-.2 2.2 1 1.3.9-.7-.6 1.8 1.3.9v.6l-1.1-1-.2.9.7.9zM-22.2 21l1.3 1 .5 2.4-.3-5.6.5-.7-.8-.7.8-.5-.3-.8-1.4-1.3-.8 2.6v1.2l1.3-1.2v.6l-.9 1 .2 1.1.9-1.2zM-20.2 20.1l.4 1.4 1.4-6-.5-.2-.3.9.2 1-.5.1-.5 1.2.6 1.2zM-23 31.7l-2.5-5.4-.9-3.1-1.5-.8.6 2.5 1.3.3-1.4.6.3 2.1 1.2-1.3-.5 1.7.8.2.4 1 1.2.6.2 1zM-25.3 23.7l-.2-1.9.6-1.3-1.4-1.3-1.2 1.7 1.5 1.1zM-24.7 17.8l-.3.1-.5-.3.3 1 1.2.2v-1.5l-1.9-1.7-.6 1.3-.2-.1.4-2-1.9-1.6-.4 2.2 1.5 1.6-1.6-1.3-1.1-1.6 1.1 2.8 1.4.5-.1 1-.5.8.4 1.1.5-.9.2-2.4.4 1.6 1.8 1.6.6-.9-1.7-1-.2-.5.5-.6zM-27.8 12.8l1.6 1.1 1.7.4.8 1.7 1.4-2.2-.5-.5h.7l.2-.5-3.7-.6-.2.6.6.6 1-.5-.9.8zM-29.3 20.1l-1.6-.8 1.1.1.3-1.8-1.6-.8-.3 1.2-.3-2.2-.7.1 1-1.2 2.3 2.2-.8-2.5v-1.1l-1.4.2-1.6-.1 1.1.9-2.2 1.3 1.5 1.2 3.1 7.4zM-26.8 31.2l-.2.8 1 1-.2.5 1.1-.6-.7 1.2 2.5 1-1.1-1.9.5.4.4-.8-1.6-2.8.3 2.5-.5-1.3-.2-1.5-.8-.1-1.7-2 1.4 2.4c.9 1.6 1.3 2.4 1.2 2.4l-1.4-1.2zM-21.9 34.5l.1.1-1.3-.6 1.8 1.2h.1l-1.5-.1 2.1.9.7.7 1.6.6-.4-1.1-.9-.5 1-.2-.9-.2-.1-1-1 .1-1.4-1.2z"/></g><g clip-rule="evenodd"><path fill-rule="evenodd" fill="#2A0C09" d="M6.7 55.2l.9-1.5.8-.7 1.3-2.8 1.2-1.8.4-2.9-1-.3-1.5-1.4-2 .1.3-2.1-.8-1.6-2.5-1.3-3.3-.7-1.5-.1-2.1.4-1.2-.6-4.2 1.9.2 1.9.5 1.4v1.4l-1.5.3-1 .6h-.3l-.6.1.3 2.6 1.7 2.9 1.1 3.9 2.9 1.9z"/><path stroke="#151215" stroke-width=".425" fill="none" d="M6.7 55.2l-11.9 1.6-2.9-1.9-1.1-3.9-1.7-2.9-.3-2.6.6-.1h.3l1-.6 1.5-.3v-1.4l-.5-1.4-.2-1.9 4.2-1.9 1.2.6 2.1-.4 1.5.1 3.3.7 2.5 1.3.8 1.6-.3 2.1 2-.1 1.5 1.4 1 .3-.4 2.9-1.2 1.8-1.3 2.8-.8.7z"/><path fill-rule="evenodd" fill="#DDC67B" d="M4 42.9l-4.8-1.7h-1.8l-.7.9-.6-.9-.9.2-2.2 3.1.3 3.4-.3 1.8.3 1.9-.3 2 .5 1.1 4.1 1.1 6.7-.9 1.1-7.4z"/><path stroke="#151215" stroke-width=".425" fill="none" d="M4 42.9l1.4 4.6-1.1 7.4-6.7.9-4.1-1.1-.5-1.1.3-2-.3-1.9.3-1.8-.3-3.4 2.2-3.1.9-.2.6.9.7-.9h1.8z"/><g fill-rule="evenodd"><path d="M-6.1 53.2l-.2-.6-.1.5.4.8.8-.2 2-.9-.6-4.3v2.1l-.8-.9.6 1-.6.4-.1-.4h-.6l-.1.6-1.2-.3.7.5-.2.7.8.4-.2-.6v-.4h1.4l-.6.8.5.3-1.2.7zM-1.5 53.9l.2-.4h1l.6.5.8.1 1.4-.6-.1-.3-1.4.4-.7-.5-1.5-.1-.3-.8-.2.4v.4l-.3.3zM2.7 51.4l-.2-.4-1 1.1-1.2.5-.7-.2-.2-.8.5.4 1.6-.2.5-.8-1 .5-.1-.5h-.8l-.1.4-.9-.7-.6 1.1.7.6-.2.2 1.1.2 1.5-.1zM-2.4 47.3l1-.1-.1-.5-2 .1-.6.1-.2.3.3.5.3-.4.5-.1zM-1.5 45.3l1-.4-.2.4-1.5.9-.1.6h.3l.3-.5 1.9-1.1.4-1.2.6-2.1-.9-.2.1 1.9-.4.7-1.5.7h-2.5999999999999996l-.5-.4-.4-2.7-.4.4c.2 1.7.3 2.5.2 2.5l.3.6.8.6.6.8h.3l-.6-.8-.8-.7.7.2 1.1-.4 1.3.2zM-2 44.3l1 .1-.7-.5-1.1.4-.9-.2-.3.3h.5l.7.2z"/></g><path fill-rule="evenodd" fill="#FFED00" d="M6.4 58.9l2 1.8-.1-2.5 1.7 1.2-2-5.9-6.8 1.6-4.6.2-4.6-1.2-2.1 5.4 1.5-1.2-.1 2.9 1.9-2.3.9 3.3 1.8-2.4 1.7 3.1 2-3.1 2.5 2.9 1-3.2 2.6 2.3z"/><path stroke="#151215" stroke-width=".425" fill="none" d="M6.4 58.9l-.7 2.9-2.6-2.3-1 3.2-2.5-2.9-2 3.1-1.7-3.1-1.8 2.4-.9-3.3-1.9 2.3.1-2.9-1.5 1.2 2.1-5.4 4.6 1.2 4.6-.2 6.8-1.6 2 5.9-1.7-1.2.1 2.5z"/><g fill-rule="evenodd" fill="#F3000B"><path d="M-9.9 60.1c0-.4-.2-.7-.6-.7-.4 0-.6.2-.6.7 0 .1.1.3.2.4.1.1.3.2.4.2.4 0 .6-.2.6-.6zM-8.3 61.4c0-.4-.2-.6-.6-.6-.2 0-.3.1-.4.2-.1.1-.2.3-.2.4 0 .4.2.7.6.7.4-.1.6-.3.6-.7zM-5.3 62.7c0-.4-.2-.7-.6-.7-.4 0-.6.2-.6.7 0 .1.1.3.2.4.1.1.3.2.4.2.2 0 .3-.1.4-.2.2-.1.2-.3.2-.4zM-1.6 63.2c0-.4-.2-.6-.6-.6-.4 0-.6.2-.6.6s.2.6.6.6c.3 0 .6-.2.6-.6zM2.7 63c0-.4-.2-.6-.6-.6-.4 0-.7.2-.7.6 0 .4.2.6.7.6.4 0 .6-.2.6-.6zM6.7 62c0-.4-.2-.7-.6-.7-.4 0-.6.2-.6.7 0 .4.2.6.6.6.2 0 .3-.1.4-.2.2-.1.2-.2.2-.4zM9.1 61.1c0-.4-.2-.6-.6-.6-.4 0-.6.2-.6.6 0 .4.2.7.6.7.4-.1.6-.3.6-.7zM11.2 59.5c0-.4-.2-.6-.6-.6-.4 0-.6.2-.6.6 0 .4.2.6.6.6.4 0 .6-.2.6-.6z"/></g><path fill-rule="evenodd" fill="#F3000B" d="M-6.9 55.3l-1.5.8.9 1.5 1.4-.9zM-2.2 58.8l1.2-1.1-1.2-1.2-1.2 1.1zM3.8 56l-1 1.3 1.4 1 .9-1.4zM8.4 54.3l-.9 1.4 1.4.9.1-1.5z"/><path fill-rule="evenodd" fill="#006A9D" d="M-4 57.2c0-.2-.1-.4-.3-.6-.2-.2-.4-.3-.6-.3-.2 0-.4.1-.6.3-.2.2-.3.4-.3.6 0 .2.1.4.3.6.2.2.4.3.6.3.2 0 .4-.1.6-.3.2-.2.3-.4.3-.6zM1.9 57.6c0-.2-.1-.4-.3-.6-.2-.2-.4-.3-.6-.3-.2 0-.4.1-.6.3-.2.2-.3.4-.3.6 0 .2.1.4.3.6.2.2.4.3.6.3.2 0 .4-.1.6-.3.2-.2.3-.4.3-.6zM7.2 56.4c0-.2-.1-.4-.2-.6-.2-.2-.4-.3-.6-.3-.2 0-.4.1-.6.3-.2.2-.3.4-.3.6 0 .2.1.4.3.6.2.2.4.3.6.3.2 0 .4-.1.6-.3.1-.1.2-.3.2-.6z"/></g><path fill-rule="evenodd" clip-rule="evenodd" d="M4.5 50.6l.4-1.5-1.1-1-1.2-4.2.2 3.8-.6 1.2z" opacity=".5" enable-background="new"/><path fill-rule="evenodd" clip-rule="evenodd" d="M5.7 61.4l.6-2.7 1 .5-1.7-4.7-3.6.7.8 3.7z" opacity=".5" enable-background="new"/></symbol><symbol id="d" viewBox="-3.2 -6 6.5 12.1"><path fill-rule="evenodd" clip-rule="evenodd" d="M2.8 6l-2.4-4.8 2.8-7.2h-1.8l-2 5.4-.9-1.7v-3.7h-1.7v12h1.7v-5.5l2.6 5.5h1.7z"/></symbol><symbol id="b" viewBox="-49 -74 98 148"><path fill="#F0F7E6" d="M48-68.5c0-3-2.5-5.5-5.5-5.5h-86c-3 0-5.5 2.5-5.5 5.5v136c0 3 2.5 5.5 5.5 5.5h86c3 0 5.5-2.5 5.5-5.5v-136z"/><path fill="#000" d="M43 73c2.8 0 5-2.2 5-5v-136c0-2.8-2.2-5-5-5h-86c-2.8 0-5 2.2-5 5v136c0 2.8 2.2 5 5 5h86m0 1h-86c-3.3 0-6-2.7-6-6v-136c0-3.3 2.7-6 6-6h86c3.3 0 6 2.7 6 6v136c0 3.3-2.7 6-6 6z"/></symbol><symbol id="f" viewBox="-41 -66 82 132"><g><g fill-rule="evenodd" clip-rule="evenodd"><path d="M33 66h-66v-1h66zM33-65h-66v-1h66zM-41 37h1v-88h-1zM41-37h-1v88h1zM40-.5h-80v1h80z"/></g></g></symbol><symbol viewBox="-7.7 -10.4 15.4 20.8"><g clip-rule="evenodd"><path fill-rule="evenodd" fill="#fe0" d="M0-5.9l-.4.2-.6-2.1 1-.9 1 .8-.6 2.1-.4-.1zm3-.3l-1.5.2.9-2.1-1.5-1-.9-1-.9 1-1.5 1 .9 2.1-1.5-.2 3 2.2 3-2.2z"/><path stroke="#222123" stroke-width=".35" d="M3-6.2l-3 2.2-3-2.2 1.5.2-.9-2.1 1.5-1 .9-1 .9 1 1.5 1-.9 2.1 1.5-.2zm-3 .3l.4.2.6-2.2-1-.8-1.1.8.6 2.1.5-.1z" fill="none"/></g><use xlink:href="#a" width="15.4" height="15.4" x="-7.7" y="-7.7" transform="translate(0 2.703)" overflow="visible"/></symbol><symbol id="a" viewBox="-7.7 -7.7 15.4 15.4"><path fill-rule="evenodd" clip-rule="evenodd" fill="#F40D1D" d="M6.8 3.3c.5-1 .7-2.1.7-3.3 0-1.2-.2-2.3-.7-3.3-.4-.8-.9-1.5-1.5-2-1.5-1.5-3.2-2.2-5.3-2.2-2 0-3.8.7-5.3 2.1-.7.8-1.2 1.5-1.5 2.1-.5 1-.8 2.1-.8 3.3 0 1.2.3 2.2.8 3.3.4.8.9 1.5 1.5 2.1 1.5 1.4 3.3 2.1 5.3 2.1s3.8-.7 5.3-2.1c.5-.5 1-1.2 1.5-2.1z"/><g clip-rule="evenodd"><path fill-rule="evenodd" fill="#00AFE7" d="M6.8 3.3c-2.4-.5-4.6-.7-6.8-.7s-4.4.2-6.8.7c.4.8.9 1.5 1.5 2.1 1.9-.7 3.7-1.1 5.3-1.1 1.7 0 3.4.4 5.3 1.1.5-.6 1-1.3 1.5-2.1z"/><path stroke="#222123" stroke-width=".35" d="M6.8 3.3c-.5.8-1 1.5-1.5 2.1-1.9-.7-3.6-1.1-5.3-1.1-1.7 0-3.4.4-5.3 1.1-.6-.6-1.1-1.3-1.5-2.1 2.4-.5 4.7-.7 6.8-.7 2.2 0 4.4.2 6.8.7z" fill="none"/><path fill-rule="evenodd" fill="#00AFE7" d="M6.8-3.3c-.4-.8-.9-1.5-1.5-2-1.9.7-3.6 1-5.2 1-1.8 0-3.5-.4-5.3-1.1-.8.8-1.3 1.5-1.6 2.1 2.4.5 4.6.7 6.8.7s4.4-.2 6.8-.7z"/><path stroke="#222123" stroke-width=".35" d="M6.8-3.3c-2.4.5-4.6.7-6.7.7-2.2 0-4.5-.2-6.8-.7.2-.6.7-1.3 1.4-2.1 1.8.8 3.6 1.1 5.3 1.1 1.6 0 3.4-.4 5.2-1.1.7.6 1.2 1.3 1.6 2.1z" fill="none"/></g><g fill-rule="evenodd" clip-rule="evenodd" fill="#fe0"><path d="M7.2 0l-1 1.3-2-.5 1.1.5-.6 1.3-.8-.5.2-.5-1.9-.4-.5-.7-1.7 1.8-1.9-1.8-.5.6-2 .4.4.6-.8.5-.6-1.2 1.2-.5-2 .5-1-1.3 1-1.2 2 .5-1.2-.5.6-1.3.8.4-.3.5 2 .4.5.6 1.8-1.8 1.8 1.8.5-.6 1.9-.4-.3-.5.8-.5.6 1.3-1.2.4 2-.5 1.1 1.3zM1.6-6.8v1.1l-1.6 1.1-1.6-1 .1-1.1-1.4 1.1-1.5-.5c1.4-1 2.8-1.4 4.4-1.4 1.6 0 3 .5 4.4 1.4l-1.5.5-1.3-1.2zM-1.5 6.6l-.1-1.1 1.6-1 1.6 1v1.1l1.4-1.1 1.5.5c-1.3 1-2.8 1.5-4.5 1.5-1.6 0-3.1-.5-4.5-1.5l1.6-.6 1.4 1.2z"/></g><path clip-rule="evenodd" stroke="#1A1A1A" stroke-width=".35" fill="none" d="M0-7.5v15"/><path fill-rule="evenodd" clip-rule="evenodd" fill-opacity=".149" d="M0 7.5v-15h.1c2 0 3.8.7 5.3 2.1.6.8 1.1 1.5 1.4 2.1.5 1 .8 2.1.8 3.3 0 1.2-.3 2.2-.8 3.3-.4.8-.9 1.5-1.5 2.1-1.5 1.4-3.2 2.1-5.3 2.1z"/><path clip-rule="evenodd" stroke="#222123" stroke-width=".35" d="M6.8 3.3c-.5.8-1 1.5-1.5 2.1-1.5 1.4-3.2 2.1-5.3 2.1-2 0-3.8-.7-5.3-2.1-.6-.6-1.1-1.3-1.5-2.1-.5-1-.8-2.1-.8-3.3 0-1.2.3-2.3.8-3.3.3-.6.8-1.3 1.5-2.1 1.5-1.4 3.3-2.1 5.3-2.1 2.1 0 3.8.7 5.3 2.2.6.6 1.1 1.3 1.5 2 .5 1.1.7 2.2.7 3.3 0 1.1-.2 2.2-.7 3.3z" fill="none"/></symbol><use xlink:href="#b" width="98" height="148" x="-49" y="-74" transform="matrix(1 0 0 -1 50 75)" overflow="visible"/><g><g><use xlink:href="#c" width="10.7" height="10.4" x="-5.4" y="-5.2" transform="matrix(-1 0 0 1 90 122)" overflow="visible"/><use xlink:href="#c" width="10.7" height="10.4" x="-5.4" y="-5.2" transform="matrix(1 0 0 -1 10 28)" overflow="visible"/><use xlink:href="#d" width="6.5" height="12.1" x="-3.2" y="-6" transform="matrix(-1 0 0 1 90 136)" overflow="visible"/><use xlink:href="#d" width="6.5" height="12.1" x="-3.2" y="-6" transform="matrix(-1 0 0 1 10 136)" overflow="visible"/><use xlink:href="#d" width="6.5" height="12.1" x="-3.2" y="-6" transform="matrix(1 0 0 -1 90 14)" overflow="visible"/><use xlink:href="#d" width="6.5" height="12.1" x="-3.2" y="-6" transform="matrix(1 0 0 -1 10 14)" overflow="visible"/><use xlink:href="#e" width="76.9" height="63.8" x="-38.5" transform="matrix(-1 0 0 1 50 75)" overflow="visible"/><use xlink:href="#e" width="76.9" height="63.8" x="-38.5" transform="matrix(1 0 0 -1 50 75)" overflow="visible"/><use xlink:href="#f" width="82" height="132" x="-41" y="-66" transform="matrix(1 0 0 -1 50 75)" overflow="visible"/><use xlink:href="#g" width="16.3" height="15.8" x="-8.2" y="-7.9" transform="matrix(-1 0 0 1 72.001 128.5)" overflow="visible"/><use xlink:href="#g" width="16.3" height="15.8" x="-8.2" y="-7.9" transform="matrix(-1 0 0 1 28 128.5)" overflow="visible"/><use xlink:href="#g" width="16.3" height="15.8" x="-8.2" y="-7.9" transform="matrix(1 0 0 -1 72 21.5)" overflow="visible"/><use xlink:href="#g" width="16.3" height="15.8" x="-8.2" y="-7.9" transform="matrix(1 0 0 -1 28 21.5)" overflow="visible"/></g></g></svg>
