<svg xmlns="http://www.w3.org/2000/svg" xmlns:xlink="http://www.w3.org/1999/xlink" viewBox="0 0 100 150" enable-background="new 0 0 100 150"><symbol viewBox="-4.9 -10.1 9.8 20.2"><path fill-rule="evenodd" clip-rule="evenodd" fill="#009C22" d="M0-1.3c3.1 0 4.7-1.6 4.7-3 0-2.6-2.6-3.9-3.5-4.2-1.1-.4-1.2-1.4-1.2-1.4s-.1 1-1.3 1.5c-.9.3-3.5 1.6-3.5 4.2.1 1.3 1.7 2.9 4.8 2.9z"/><path fill-rule="evenodd" clip-rule="evenodd" fill="#006F20" d="M0-1.3v-8.6s-.1 1-1.3 1.5c-.9.3-3.5 1.6-3.5 4.2.1 1.3 1.7 2.9 4.8 2.9z"/><path fill-rule="evenodd" clip-rule="evenodd" fill="#F40D1D" d="M3.5-2.2h-7v8.7l3.5 3.4 3.5-3.4z"/><path fill-rule="evenodd" clip-rule="evenodd" fill="#AC0019" d="M0-2.2h-3.5v8.7l3.5 3.4z"/><path stroke="#000" stroke-width=".35" stroke-linecap="round" stroke-linejoin="round" stroke-miterlimit="10" fill="none" d="M0-9.9v6.9M0 9.9v-11.8"/><path fill-rule="evenodd" clip-rule="evenodd" fill="#fe0" d="M3.5-1.2v-1.1c-.8-.4-2.1-.7-3.5-.7s-2.7.3-3.5.7v1.1c.8-.4 2-.7 3.5-.7s2.7.3 3.5.7z"/><path clip-rule="evenodd" stroke="#000" stroke-width=".35" stroke-linecap="round" stroke-linejoin="round" stroke-miterlimit="10" d="M-3.5-2.2v8.7l3.5 3.4 3.5-3.5v-8.7c.8-.6 1.3-1.3 1.3-2 0-2.6-2.6-3.9-3.5-4.2-1.2-.4-1.3-1.4-1.3-1.4s-.1 1-1.3 1.5c-.9.3-3.5 1.6-3.5 4.2.1.6.5 1.4 1.3 2z" fill="none"/><path clip-rule="evenodd" stroke="#000" stroke-width=".25" stroke-linecap="round" stroke-miterlimit="10" d="M3.5-2.3c-.8-.4-2.1-.7-3.5-.7s-2.7.3-3.5.7" fill="none"/></symbol><symbol viewBox="-6.7 -8.5 13.4 17"><path fill-rule="evenodd" clip-rule="evenodd" fill="#009915" d="M0 8.3c1.5-1.4 2.4-2.2 2.5-2.5.4-.8.5-1.8.3-3l1.2 1.7.8-1.1c.5-.8.8-1.4.9-1.8.2-.9-.1-2-.9-3.3l1.6.9c.1-2.4-.1-4-.4-4.7-.3-.6-1.1-1-2.3-1.2l1.8-.6c-.8-.7-1.8-1-2.8-1-.1 0-.4.3-1 .8-.4.4-.8.3-1.2-.3h-1c-.4.6-.8.6-1.2.2-.6-.6-.9-.8-1-.8-1 0-2 .4-2.9 1.1l1.8.6c-1.2.2-2 .6-2.3 1.3-.2.5-.4 1.4-.4 2.8v2l1.6-.9c-.8 1.3-1 2.4-.9 3.3.1.4.4 1 .9 1.8.3.4.6.7.8 1.1l1.2-1.7c-.1 1 0 2 .4 2.8.1.3 1 1.1 2.5 2.5z"/><path fill-rule="evenodd" clip-rule="evenodd" fill-opacity=".298" d="M-4.9 3.5c.3.4.6.7.8 1.1l1.2-1.7c-.1 1.1 0 2.1.4 2.9.2.3 1 1.2 2.6 2.5v-16h-.5c-.4.5-.8.6-1.2.2-.6-.5-.9-.8-1-.8-1 0-2 .4-2.9 1.1l1.8.6c-1.2.2-2 .6-2.3 1.3-.3.4-.5 1.3-.5 2.7v2l1.6-.9c-.8 1.3-1 2.4-.9 3.3.1.3.4.9.9 1.7z"/><path clip-rule="evenodd" stroke="#000" stroke-width=".031" stroke-linecap="round" stroke-linejoin="round" stroke-miterlimit="3" d="M-4.9 3.5c-.5-.8-.8-1.4-.9-1.8-.2-.9.1-2 .9-3.3l-1.6.9v-2c0-1.3.2-2.2.4-2.7.4-.7 1.1-1.2 2.3-1.3l-1.8-.6c.9-.7 1.9-1 2.9-1 .1 0 .4.3 1 .8.4.4.8.3 1.2-.2h.5v16c-1.5-1.4-2.4-2.2-2.6-2.5-.3-.8-.4-1.8-.3-3l-1.2 1.7c-.2-.3-.5-.7-.8-1z" fill="none"/><path clip-rule="evenodd" stroke="#151215" stroke-width=".35" d="M0 8.3c-1.5-1.4-2.4-2.2-2.6-2.5-.3-.8-.4-1.8-.3-3l-1.2 1.7c-.2-.3-.5-.7-.8-1.1-.5-.8-.8-1.4-.9-1.8-.2-.9.1-2 .9-3.3l-1.6.9v-2c0-1.2.2-2.1.4-2.6.4-.7 1.1-1.2 2.3-1.3l-1.8-.6c.9-.7 1.9-1 2.9-1 .1 0 .4.3 1 .8.4.4.8.3 1.2-.2h1c.4.6.8.6 1.2.2.6-.6.9-.8 1-.8 1 0 2 .4 2.9 1.1l-1.9.5c1.2.2 2 .6 2.3 1.3.4.7.5 2.3.4 4.7l-1.5-.9c.8 1.3 1 2.4.9 3.3-.1.4-.4 1-.9 1.8l-.8 1-1.3-1.7c.2 1.2.1 2.2-.3 3-.1.3-1 1.1-2.5 2.5z" fill="none"/></symbol><symbol id="g" viewBox="-8.2 -7.9 16.3 15.8"><path fill-rule="evenodd" clip-rule="evenodd" fill="#E61616" d="M6.5 6.8c1.1-.8 1.6-2 1.5-3.6-.1-1.6-.7-3-2-4.4-1.2-1.4-3.2-3.5-6-6.4-2.8 2.9-4.8 5.1-6 6.4-1.2 1.4-1.9 2.9-2 4.4-.1 1.6.4 2.8 1.5 3.6 1 .8 2.1 1.1 3.3.8 1.2-.1 2.3-.8 3.2-1.8 1 1 2 1.7 3.2 1.8 1.2.3 2.3 0 3.3-.8z"/><path fill-rule="evenodd" clip-rule="evenodd" fill-opacity=".298" d="M0-7.6v13.4c1 1 2 1.6 3.2 1.8 1.2.2 2.3-.1 3.3-.8 1.1-.8 1.6-2 1.5-3.6-.1-1.6-.7-3-2-4.4-1.2-1.4-3.2-3.5-6-6.4z"/><path clip-rule="evenodd" stroke="#151215" stroke-width=".1" stroke-linecap="round" stroke-linejoin="round" stroke-miterlimit="3" d="M0-7.6c2.8 2.9 4.8 5.1 6 6.4 1.2 1.4 1.9 2.9 2 4.4.1 1.6-.4 2.8-1.5 3.6-1 .8-2.1 1.1-3.3.8-1.2-.2-2.2-.8-3.2-1.8v-13.4z" fill="none"/><path clip-rule="evenodd" stroke="#151215" stroke-width=".35" d="M6.5 6.8c-1 .8-2.1 1.1-3.3.8-1.2-.1-2.2-.8-3.2-1.8-.9 1.1-2 1.7-3.2 1.9-1.2.2-2.3-.1-3.3-.8-1.1-.9-1.6-2.1-1.5-3.7.1-1.6.8-3 2-4.4 1.2-1.4 3.2-3.5 6-6.4 2.8 2.9 4.8 5.1 6 6.4 1.2 1.4 1.9 2.9 2 4.4.1 1.6-.4 2.8-1.5 3.6z" fill="none"/></symbol><symbol id="c" viewBox="-5.4 -5.2 10.7 10.4"><path fill-rule="evenodd" clip-rule="evenodd" fill="#E61616" d="M4.2 4.4c.7-.5 1-1.3 1-2.3-.1-1-.5-2-1.3-2.9-.8-.9-2.1-2.2-3.9-4.1-1.8 1.9-3.1 3.2-3.9 4.1-.8.9-1.2 1.9-1.3 2.9-.1 1 .3 1.8 1 2.3.7.5 1.4.7 2.2.6.7-.2 1.4-.6 2-1.3.6.7 1.3 1.1 2.1 1.3.7.1 1.4-.1 2.1-.6z"/><path fill-rule="evenodd" clip-rule="evenodd" fill-opacity=".298" d="M0-4.9v8.7c.6.6 1.3 1 2.1 1.2.8.1 1.5 0 2.1-.5.7-.5 1-1.3 1-2.3-.1-1-.5-2-1.3-2.9-.8-1-2.1-2.3-3.9-4.2z"/><path clip-rule="evenodd" stroke="#151215" stroke-width=".1" stroke-linecap="round" stroke-linejoin="round" stroke-miterlimit="3" d="M0-4.9c1.8 1.9 3.1 3.2 3.9 4.1.8.9 1.2 1.9 1.3 2.9.1 1-.3 1.8-1 2.3-.7.5-1.4.7-2.1.6-.8-.2-1.5-.6-2.1-1.2v-8.7z" fill="none"/><path clip-rule="evenodd" stroke="#151215" stroke-width=".35" d="M4.2 4.4c-.7.5-1.4.7-2.1.6-.8-.2-1.5-.6-2.1-1.3-.6.7-1.3 1.1-2 1.3-.8.1-1.5 0-2.2-.5-.7-.5-1-1.3-1-2.3.1-1 .5-2 1.3-2.9.8-1 2.1-2.3 3.9-4.2 1.8 1.9 3.1 3.2 3.9 4.1.8.9 1.2 1.9 1.3 2.9 0 1-.3 1.8-1 2.3z" fill="none"/></symbol><symbol id="e" viewBox="-29.1 0 68.8 64.7"><g clip-rule="evenodd"><path fill-rule="evenodd" fill="#E0CE75" d="M18.2 34.8l1.7-.4c1.8-1.1 2.7-1.7 2.6-1.8-.1 0 0-.5.3-1.5.1-.5.2-1 .4-1.5l8-15.2 2.2-5.4v-.8l-1.3-2-3.8-2.5h-.4l-.8-.7-.9-.4-4.3 2.1-2.4 3.6-4 8.2v16.8l2.7 1.5z"/><path stroke="#151215" stroke-width=".425" d="M18.2 34.8l1.7-.4c1.8-1.1 2.7-1.7 2.6-1.8-.1 0 0-.5.3-1.5.1-.5.2-1 .4-1.5l8-15.2 2.2-5.4v-.8l-1.3-2-3.8-2.5h-.4l-.8-.7-.9-.4-4.3 2.1-2.4 3.6-4 8.2v16.8l2.7 1.5z" fill="none"/><path fill-rule="evenodd" fill="#00ADE5" d="M16.3 24.8l3.5-6.2.8-3.8-2.5 4-2.4 5.5z"/><path stroke="#151215" stroke-width=".425" fill="none" d="M16.3 24.8l3.5-6.2.8-3.8-2.5 4-2.4 5.5z"/><path fill-rule="evenodd" fill="#E8D1A7" d="M22.2 30.2l1.7-12.2-2.7.6-.1 1.9-.3 1.1-.8.7-2.2 1.2-.4 1.5-1.4 1.4z"/><path stroke="#151215" stroke-width=".425" fill="none" d="M22.2 30.2l1.7-12.2-2.7.6-.1 1.9-.3 1.1-.8.7-2.2 1.2-.4 1.5-1.4 1.4z"/><path fill-rule="evenodd" fill="#FFED00" d="M26.1 10.7h-3.2l-2.3 1.8.6 6.1 4.2-.3 3.5.5 2-.6.9-3.3-3.4-3.6z"/><path stroke="#151215" stroke-width=".425" fill="none" d="M26.1 10.7h-3.2l-2.3 1.8.6 6.1 4.2-.3 3.5.5 2-.6.9-3.3-3.4-3.6z"/><path fill-rule="evenodd" fill="#F3000B" d="M8.6 37.9l7.1-1.8 3.1-1.7-3-2.5 1.2-9.8-.3-11.2 1-10.7h-32.2l-4.4 26.6 2.1 7 5.5 2.2 3.2.9z"/><path stroke="#151215" stroke-width=".425" fill="none" d="M8.6 37.9l-16.7-1-3.2-.9-5.5-2.2-2.1-7 4.4-26.6h32.2l-1 10.7.3 11.2-1.2 9.8 3 2.5-3.1 1.7z"/><path fill-rule="evenodd" fill="#A59138" d="M-10.5 54.6l-1.4 2.4.4 2.2 1 1.6 2 .8h2.5l1.6-1.4 2-3 15-17.7 26.7-28.2.3-1c-.1-.6-.2-.9-.3-1-.1 0-.4-.2-.7-.6-.1-.1-.4-.3-1-.5l-1.1.5-42.2 42.4-4.8 3.5z"/><path stroke="#151215" stroke-width=".425" d="M-10.5 54.6l-1.4 2.4.4 2.2 1 1.6 2 .8h2.5l1.6-1.4 2-3 15-17.7 26.7-28.2.3-1c-.1-.6-.2-.9-.3-1-.1 0-.4-.2-.7-.6-.1-.1-.4-.3-1-.5l-1.1.5-42.2 42.4-4.8 3.5z" fill="none"/><path fill-rule="evenodd" fill="#006A9D" d="M-10.4 55.7l1.5-1.3-6.1-3.5z"/><path stroke="#151215" stroke-width=".425" fill="none" d="M-10.4 55.7l1.5-1.3-6.1-3.5z"/><path fill-rule="evenodd" fill="#006A9D" d="M-11.7 56.8l.7-1.2-4.9-.6z"/><path stroke="#151215" stroke-width=".425" fill="none" d="M-11.7 56.8l-4.2-1.8 4.9.6z"/><path fill-rule="evenodd" fill="#006A9D" d="M-11.8 57.3l-5.8 1.3 6.1.4z"/><path stroke="#151215" stroke-width=".425" fill="none" d="M-11.8 57.3l-5.8 1.3 6.1.4z"/><path fill-rule="evenodd" fill="#006A9D" d="M-10.5 59.7l-2.4 4.3 3.6-3.1z"/><path stroke="#151215" stroke-width=".425" fill="none" d="M-10.5 59.7l1.2 1.2-3.6 3.1z"/><path fill-rule="evenodd" fill="#006A9D" d="M-7.4 59.1l2.3 5.5v-6.1l-.8-.4-1.5.9z"/><path stroke="#151215" stroke-width=".425" fill="none" d="M-7.4 59.1l2.3 5.5v-6.1l-.8-.4-1.5.9z"/><path fill-rule="evenodd" fill="#006A9D" d="M-4.7 60.5l5.1 2.3-4-3.8z"/><path stroke="#151215" stroke-width=".425" fill="none" d="M-4.7 60.5l5.1 2.3-4-3.8z"/><path fill-rule="evenodd" fill="#006A9D" d="M-7.9 56.2l.4.6h1l.6-.6-.6-3.7z"/><path stroke="#151215" stroke-width=".425" fill="none" d="M-7.9 56.2l.4.6h1l.6-.6-.6-3.7z"/><path fill-rule="evenodd" fill="#006A9D" d="M-7.2 52.1l-2.4-4.3.9 5.5z"/><path stroke="#151215" stroke-width=".425" fill="none" d="M-7.2 52.1l-2.4-4.3.9 5.5z"/><path fill-rule="evenodd" fill="#F7C200" d="M-8.1 46.2l1.9 3.1 1.2 2.7.5 2.6 1.4-.9-.2-3.9.6-7.5-.9-.5h-1.6l-.6.7h-.8l-.8.3-1.3.8v2z"/><path stroke="#151215" stroke-width=".425" fill="none" d="M-8.1 46.2l-.6-.6v-2l1.3-.8.8-.3h.8l.6-.7h1.6l.9.5-.6 7.5.2 3.9-1.4.9-.5-2.6-1.2-2.7z"/><path fill-rule="evenodd" fill="#E8D1A7" d="M9 56.4l.1-10.7-.6-12 .4-2.3 1-1.4-.6-1.3-.3-.5-1.7-1.5-5.6-1-3.9.7-4.8 4.7-1.5 4.8 1.9 1.1 2.6 1 1.1 1.5.5 2.2-.8.6-.5 2.4-.1 2.6-.4.9-.2 3.1.4 1.3-.1 2.9 8.4 2.9z"/><path stroke="#151215" stroke-width=".425" fill="none" d="M9 56.4l-4.7 2-8.4-2.9.1-2.9-.4-1.3.2-3.1.4-.9.1-2.6.5-2.4.8-.6-.5-2.2-1.1-1.5-2.6-1-1.9-1.1 1.5-4.8 4.8-4.7 3.9-.7 5.6 1 1.7 1.5.3.5.6 1.3-1 1.4-.4 2.3.6 12z"/><g fill-rule="evenodd" fill="#151215"><path d="M-2.4 51.8l1 .2.7-.5-.2.5-1.1.5-1.3.3 1.2.2 1.4-.5.4.1.3-.1-.2-.5.3-1.4-.6-1 .1.9-.4.6h-.6v-.6h-.8l-.1.5-.4-.1.1-1.1-.6 1-.4.3-.6 1.2v1.3l.3.1.1-1.2.6-1.1.3-.1zM5.9 53.2l.8-.3.2-1-.2-.6-.3-.4-.8-.1-.8.3-.8.3v-.6h-.8l-.3.5-.4-.3.3-1.7-.7 1.5-.2.5.7.7 1 .1 1.5-.4.6-.4h.5l-.5.5-.9.5-.9.2-2.2-.4-.2.6v.2h.2l.6-.1 1.7.3.8-.2 1.5-.9.1-.4.2.6-.2.7zM1.3 47.6l.7-.2.3-.7-1.4.1-.1-.3-.5-.1-.3.2-1 .3-.1.5.4.9.6-.9.8-.1zM-1.1 45.1l.6.3 1.2-.1 1.1.1 1.5-.4.5-.7-.2-.1-.7.5-1.4-.8h-.6l-.9.1-.5.4.9.2h1.2l.5-.1.1.3-.4.2-.9-.1-1.2.1-.8-.4-.2-.7-.2.1.1 1.1zM-.3 43.3l3.1-.1v-.3l-.8-.1.3-.4-.4-.1-.6.5h-1.2l-.4.5z"/></g><path fill-rule="evenodd" fill="#F7C200" d="M8.6 57.9l4.8-8.6.8-7.1-1.4-.1v1.3l-.3-1.6h-3.9l-.7.5 1.1 6.7-1.1 4.3-2.7 1.1-3-.7-2 .3-.4 2.1v-2.1h-2.2l-1.7.7-.4.5.8 1.1 2.1 1 2.8 2.4z"/><path stroke="#151215" stroke-width=".425" fill="none" d="M8.6 57.9l-7.4 1.8-2.8-2.4-2.1-1-.8-1.1.4-.5 1.7-.7h2.2v2.1l.4-2.1 2-.3 3 .7 2.7-1.1 1.1-4.3-1.1-6.7.7-.5h3.9l.3 1.6v-1.3l1.4.1-.8 7.1z"/><path fill-rule="evenodd" fill="#F3000B" d="M10.3 58.1l5-7-.6-2.5.2-2.6h-2.4l-.7-.4h-2.6l-.6.4-1.1-.1.4 4.7-.9 3.9-.5.7-2.1 1.2-1.2.7h-.7l-1.3-.1-1.5.1-1.6-.3-1.6-.7-.8-2.2v-1.8l-.5-.6-1-5.3-1.6 1.3-.5-.7-.2 1.1 2.5 3.4 1 2.1-.2 1.9 1.1 1.5 1.5.8 2.7 2.5.7.3 4.2-.5 2.2-1.2z"/><path stroke="#151215" stroke-width=".425" fill="none" d="M10.3 58.1l5-7-.6-2.5.2-2.6h-2.4l-.7-.4h-2.6l-.6.4-1.1-.1.4 4.7-.9 3.9-.5.7-2.1 1.2-1.2.7h-.7l-1.3-.1-1.5.1-1.6-.3-1.6-.7-.8-2.2v-1.8l-.5-.6-1-5.3-1.6 1.3-.5-.7-.2 1.1 2.5 3.4 1 2.1-.2 1.9 1.1 1.5 1.5.8 2.7 2.5.7.3 4.2-.5 2.2-1.2z"/><path fill-rule="evenodd" fill="#FFED00" d="M23.4 45.7l-.4-.5-2.1-.7-4.7 1.6-2.5 5.6 4-4 3.1-1.9 2.1-.3.5.2.2.2-1.1 1.5-1.8 1.1 3.4-1.9-.5-.7.1-.1z"/><path stroke="#151215" stroke-width=".425" fill="none" d="M23.4 45.7l-.4-.5-2.1-.7-4.7 1.6-2.5 5.6 4-4 3.1-1.9 2.1-.3.5.2.2.2-1.1 1.5-1.8 1.1 3.4-1.9-.5-.7.1-.1z"/><path fill-rule="evenodd" fill="#00ADE5" d="M10.6 55.4l-1 1.6h.6l.9-1.5z"/><path stroke="#151215" stroke-width=".425" fill="none" d="M10.6 55.4l-1 1.6h.6l.9-1.5z"/><path fill-rule="evenodd" fill="#00ADE5" d="M11.6 54.6l1.1-1.9.7-.5 4.9-9.2.2-2.3-.4-.8.1-2.1-1.2-1.5-4.6-2c2 1.1 3 1.6 3.1 1.6.1 0 .8 1 2.2 3.1l.5.9-.3 2.5-3.2 3.2-1.9 1.5-2.3 3.6 1.6 2-1 1.7.5.2z"/><path stroke="#151215" stroke-width=".425" d="M11.6 54.6l1.1-1.9.7-.5 4.9-9.2.2-2.3-.4-.8.1-2.1-1.2-1.5-4.6-2c2 1.1 3 1.6 3.1 1.6.1 0 .8 1 2.2 3.1l.5.9-.3 2.5-3.2 3.2-1.9 1.5-2.3 3.6 1.6 2-1 1.7.5.2z" fill="none"/><path fill-rule="evenodd" fill="#FFED00" d="M8 26.3l-2.8-1.1-3.5-.2-3.9.8-5.8 4.9-1.5 5.9 1.4.3 2.3-5.4 3.8-4.3 2.3-.6h4.1l2.6.8 1.3 1.2 2 4.2.2 2 1.1-1.1-.4-2-1.3-3.4z"/><path stroke="#151215" stroke-width=".425" fill="none" d="M8 26.3l-2.8-1.1-3.5-.2-3.9.8-5.8 4.9-1.5 5.9 1.4.3 2.3-5.4 3.8-4.3 2.3-.6h4.1l2.6.8 1.3 1.2 2 4.2.2 2 1.1-1.1-.4-2-1.3-3.4z"/><path fill-rule="evenodd" fill="#635725" d="M11.8 28.8l-5-1-8.8-1.2-6.1.2.2 1.5 16.4 1.4 4 1.2z"/><path stroke="#151215" stroke-width=".425" fill="none" d="M11.8 28.8l-5-1-8.8-1.2-6.1.2.2 1.5 16.4 1.4 4 1.2z"/><path fill-rule="evenodd" fill="#F7C200" d="M11.1 23.8l1 9.4 3.1-3.1-.5-9-2.9-7.8-3.2-4.3-3.1 2.1 2 2.7 2.6 5.9z"/><path stroke="#151215" stroke-width=".425" fill="none" d="M11.1 23.8l-1-4.1-2.6-5.9-2-2.7 3.1-2.1 3.2 4.3 2.9 7.8.5 9-3.1 3.1z"/><path fill-rule="evenodd" fill="#E8D1A7" d="M27.1 24l2.7-.6 1.1-1.9.9-.3.7-.7v-.7l1.6-1.5.1-.4-.2-.7-1.1.5-1.6-.6-.6-.5-.5-1.2-.7-.5-.7-1.2-.9-1-1.1-.4h-.3l-.7-.8-1.5-1.2-3.5-1.5-2 4.9 2.1 1.3.7.2.6 1.8v2.6l1.4 1.9.3-.3z"/><path stroke="#151215" stroke-width=".425" fill="none" d="M27.1 24l2.7-.6 1.1-1.9.9-.3.7-.7v-.7l1.6-1.5.1-.4-.2-.7-1.1.5-1.6-.6-.6-.5-.5-1.2-.7-.5-.7-1.2-.9-1-1.1-.4h-.3l-.7-.8-1.5-1.2-3.5-1.5-2 4.9 2.1 1.3.7.2.6 1.8v2.6l1.4 1.9.3-.3z"/><path fill-rule="evenodd" fill="#E8D1A7" d="M23.4 30.6h.3l.9-.9-.2-.4 1.2-.8v-.7l1.2-1.2.3-.7v-1.6l-1.2 1.1h-1.1l-1-.4h-.7l-.7.7-.3-.7-.8-.7h-.2l-.8.7v.4h-.3l-.7.6.4 2.1-.6.2-.3.3.5 1.1v.5l.8 1.3.4.2 2.1.2.8-1z"/><path stroke="#151215" stroke-width=".425" fill="none" d="M23.4 30.6h.3l.9-.9-.2-.4 1.2-.8v-.7l1.2-1.2.3-.7v-1.6l-1.2 1.1h-1.1l-1-.4h-.7l-.7.7-.3-.7-.8-.7h-.2l-.8.7v.4h-.3l-.7.6.4 2.1-.6.2-.3.3.5 1.1v.5l.8 1.3.4.2 2.1.2.8-1z"/><path fill-rule="evenodd" fill="#E8D1A7" d="M15.7 28.4l.7.7h1.7l.5-.2.2-1.4-.4-.5-1.1-.4-1.3-.2-.3.6z"/><path stroke="#151215" stroke-width=".425" fill="none" d="M15.7 28.4l.7.7h1.7l.5-.2.2-1.4-.4-.5-1.1-.4-1.3-.2-.3.6z"/><path fill-rule="evenodd" fill="#00ADE5" d="M4.8 12.5l3.2 4.3 1.7-.9h1.4l.8-1.3 1.5-.6-.6-1h-1.4l.4.4-3.5 2.4-1.7-3.3z"/><path stroke="#151215" stroke-width=".425" fill="none" d="M4.8 12.5l3.2 4.3 1.7-.9h1.4l.8-1.3 1.5-.6-.6-1h-1.4l.4.4-3.5 2.4-1.7-3.3z"/><path fill-rule="evenodd" fill="#E0CE75" d="M-13.1 21.9l5.9 5.4 1.7-2.3-.4-1 5.4-7.8 1-3.4.4-.7h2.2l.5-.5v.6l2.8-.1 2.4-1.1.3-8.6-1.1-1.1-2.4-1.1h-8.5l-4.3 2.7h-.7l-1.1 1.6-1.9.9-3.2 3.4z"/><path stroke="#151215" stroke-width=".425" fill="none" d="M-13.1 21.9l-1-13.1 3.2-3.4 1.9-.9 1.1-1.6h.7l4.3-2.7h8.5l2.4 1.1 1.1 1.1-.3 8.6-2.4 1.1-2.8.1v-.6l-.5.5h-2.2l-.4.7-1 3.4-5.4 7.8.4 1-1.7 2.3z"/><path fill-rule="evenodd" fill="#FFED00" d="M19.3 14.3l.4-.1 1.7-3.1.5-3.1-1.1-.6-1.9-.5-7.3-4.2-3.6-1.5.6 1.9-.2 1.9-.8 4.2-1.2 2.8z"/><path stroke="#151215" stroke-width=".425" fill="none" d="M19.3 14.3l-12.9-2.3 1.2-2.8.8-4.2.2-1.9-.6-1.9 3.6 1.5 7.3 4.2 1.9.5 1.1.6-.5 3.1-1.7 3.1z"/><path fill-rule="evenodd" fill="#00ADE5" d="M-4.3 13.6l1.3-1.1-.6-.4-1 .8-.8.5-3.2 3.2-2.3 3.6 1.5 1 2.1-2.7z"/><path stroke="#151215" stroke-width=".425" fill="none" d="M-4.3 13.6l1.3-1.1-.6-.4-1 .8-.8.5-3.2 3.2-2.3 3.6 1.5 1 2.1-2.7z"/><path fill-rule="evenodd" fill="#00ADE5" d="M-6.3 23.4l2.3-3.8 3.7-4v-1.9l-1 .5-1.3 1.6.2 1.1-1.6 2.7-4.1 4.5.4.7z"/><path stroke="#151215" stroke-width=".425" fill="none" d="M-6.3 23.4l2.3-3.8 3.7-4v-1.9l-1 .5-1.3 1.6.2 1.1-1.6 2.7-4.1 4.5.4.7z"/><path fill-rule="evenodd" fill="#00ADE5" d="M-11.7 14.7l2.8-3.5 2-1.9-2.4.4-3 3.3-.5 2.4z"/><path stroke="#151215" stroke-width=".425" fill="none" d="M-11.7 14.7l2.8-3.5 2-1.9-2.4.4-3 3.3-.5 2.4z"/><path fill-rule="evenodd" fill="#00ADE5" d="M-8.1 6.5l-.7-.3h-1l-1.9 1.2-1.1 3.9 1.9-3.5z"/><path stroke="#151215" stroke-width=".425" fill="none" d="M-8.1 6.5l-2.8 1.3-1.9 3.5 1.1-3.9 1.9-1.2h1z"/><path fill-rule="evenodd" fill="#F3000B" d="M-11.8 29.5l2.1-.1.5-.3 2.3-.3-.8-4-4-8.4v-16.2h-5.6l.3 7.1-2.2 1.1-2.1 4.4-4.6 2.1 1.7 2.2-4.5 2.3 2 2.2 4 7.2 2.2 2.8 3.2 1.7.9 2.6 3.7 1.6h5.5l-.7-.4-2-.4-.1-.7-1.4-.2-4.1-1.4 1.1-2.8z"/><path stroke="#151215" stroke-width=".425" fill="none" d="M-11.8 29.5l2.1-.1.5-.3 2.3-.3-.8-4-4-8.4v-16.2h-5.6l.3 7.1-2.2 1.1-2.1 4.4-4.6 2.1 1.7 2.2-4.5 2.3 2 2.2 4 7.2 2.2 2.8 3.2 1.7.9 2.6 3.7 1.6h5.5l-.7-.4-2-.4-.1-.7-1.4-.2-4.1-1.4 1.1-2.8z"/><path fill-rule="evenodd" fill="#00ADE5" d="M-7.1 33.9l-.7 2.9 2.2 1.7.9-.5-.9-.4c-.1 0 0-.5.2-1.6l.3-1.6 3.1-3.4 1-1.8 2 .1 1-2.6 1.6-1.4 1.8.4.1 1.7.9.1-.1-.8-.6-1.5-1.7-.5h-.6l-2.4 1.2-2.2 3.1-.9.1-5 4.8z"/><path stroke="#151215" stroke-width=".425" d="M-7.1 33.9l4.9-4.8.9-.1 2.3-3.1 2.4-1.2h.6l1.6.5.6 1.5.1.8-.9-.1-.1-1.7-1.8-.4-1.5 1.4-1.1 2.7-2-.1-1 1.8-3.1 3.4c0 .5-.1 1-.2 1.5-.2 1.1-.2 1.6-.2 1.6l.9.4-.9.5-2.2-1.7.7-2.9z" fill="none"/><path fill-rule="evenodd" fill="#00ADE5" d="M6.9 30.2l1-.2h1.1l-.9-1.9h-.4l-.8 1.4-1.1.2z"/><path stroke="#151215" stroke-width=".425" fill="none" d="M6.9 30.2l-1.1-.5 1.1-.2.8-1.4h.4l.9 1.9h-1.1z"/><path fill-rule="evenodd" fill="#00ADE5" d="M9.6 30.4l-.9-.2v6.5l1.7-1.9z"/><path stroke="#151215" stroke-width=".425" fill="none" d="M9.6 30.4l.8 4.4-1.7 1.9v-6.5z"/><path fill-rule="evenodd" fill="#FFED00" d="M7.4 21.7l-.3-1-1-1-1-.3-1.6.3-1.1 1-.4 1.4.3 1.6 1.2.7.8.3-.2 1.1.8.3.3-1.4 1.1-.5 1.1-1.1z"/><path stroke="#151215" stroke-width=".425" fill="none" d="M7.4 21.7l-.3-1-1-1-1-.3-1.6.3-1.1 1-.4 1.4.3 1.6 1.2.7.8.3-.2 1.1.8.3.3-1.4 1.1-.5 1.1-1.1z"/><g stroke="#151215" stroke-width=".425" fill="none"><path d="M5.1 39.7l-5 .6-1.6.6-.7.8-.4-4.2M-2 42.1l.5-1.2 1.5-.5 2-.1 1.6.8 1.2.2M-26.7 21.6l5.2 5.7 4.8 3.2.6 2M-14.6 30.5l-.8-1.2-3-3-3.5-6.2-2.3-3M-17 7.3l.5 10.4.7 3.5 3 6.1.4 1.2M-10 28.3l-3.8-10.1-.7-2.6-2.7-15.4M-12.8 15.3l-1.5-15.1M-19.2 8.4l1.4 10.2 1 4.2 2.7 5.1M-7.4 2.9v1.6l2.3 4.5 3.6 2.7 2.4.4-.4.8h-1l-2.5-.3-3.6-3.3-2.4-4.8M9.1 12.5l1.7-3.2.8-4.3-.3-2.4M18.9 6.9v1.9l-.8 2.2-.9 1.9-.7.8M-1.7 25.7l-1.6-3.2 3-3.9 1.3-6.2M-15.5 34.4l-.1 1.1 2.8.9M30.4 22.4l-1.4.3-2.5-1.1M30.9 21.5l-3.6-.8.5-.6M32.3 19.8l-2-.2-1.6.1.7-.7M23.9 21.2l-.7-2.4M22.4 25.7l2 1.7 1.3.3M24.4 29.3l-2.3-1.1-1.7-2.8M19.7 28.1l.6.8 1.3 1.2 1.9.6M17.7 29.1l-.5-.5-.2-1"/></g></g><g fill-rule="evenodd" clip-rule="evenodd" opacity=".5" enable-background="new"><path d="M-9 34.9l-.4 1.7 1.7.2 2.2 1.8 1.1-.5-1.2-.6.5-3.1-3.7-.8.1-.7-3.1-1.4-2.5.1-.3 1.1zM-18.6 25.7l-3.1-5.5-2.4-3.1-2.5 1.3 3.5 3.9c.1 0 1.6 1.1 4.5 3.4zM-17.8 17.7l-1.3-9.3-1.3 2.7.3 2.2zM10.8 41.8c0 .1.4-.3 1.2-1.2l1.1-1.5-1.2-.9-.5-1.6.7-1.1 6.1-6.3h-1.8l-1 1-.2-4-3.3 4.6.4 2.7-3.5 3.5-2.5-6 .8 10-1.8-1-.7-2.4-1.2-2.2-2-.4 1.2 2.4.2 2.6-.6.3 1.4.9 1.3.2 2.4.8.9 2.1-.2-2 1-.7 1.8.2zM5.4 42.1l.1 4.9 2.5 3.6-.3-3.6-1.8-1.7.7-1.2zM10.5 50.8l2.3-3.6 1.5-1.2h-1.7l-.7-.4-2.3.2.4 5.9-1.6 2.3v.6c-.4.9-.7 1.4-.8 1.5 0 .1-.2-.1-.6-.4l-.5-.5-2.7 1.9 1.9 2.7 2-1.1 2.7-.8.7-4.5.4-1.6-1-1zM-4.1 9.7l1.2-2.2 2.7-.6c.8-1.9 1.3-2.9 1.3-2.8l10.2 2.8c.1-.1 2.6 1 7.5 3.1l2.5 1.3.2-2.5-12.8-5.7-.2-.5-7.8-2-7.7 2.9-.4 1.1 2.4 4.5.9.6zM38.1 10.7l-1.1-1-.3-.8-6.7 6.4-.4-.3-.7-1.3-.7-.7-.2-.5-2.8-.1-1.6-1.3 1.7 2 2.8 1.2 2 3 2.3.2-1.1-.5-.5-.4 4.7-4.6 1.4-.9zM-11.6 6l.7-.7 1.9-.8 1.2-1.7.7.1 4.3-2.7h-8.7zM17.7.3l-11.5.1 5.1 2.2 5.9 3.3zM17.1 22.2l-.3-8.3-2.7-.5 1.9 7.7-.2 2.7-.6 2.3.3 3.6.8-.6zM28.4 3.8h-.4l-1.8-1.3-2.2 1.3-1.7 5.7 2.8 1.3 1.8 1.5 1.3.7 1-1 1.4-4.5-.1-1.2zM18.4 27l.7.6-.2.9.8-.4-.3-2 2-1.8 1.1 1.1 1.2-.6 1.3-2.7-1-.7-1 1.2-4.1 1.2c-.1 0-.3.6-.6 1.7l-1.3 1 1.4.5zM-6.7 61.6l-1.6-1.2-1-1.8.6-1.9.8-.5 1.7-4 .2 2.2 1.3-1.2-.9-1.9-3.9 2.6.8.7-1.5 1.4-.4-.6-1.2 1.4.4 2.3.6 1.1.4-.5.9 1.2 1.3.7zM.2 32.3l2.6-.6-.5-1.2-1.6.9zM-15.5 34.3l-.3 1.2 3.8 1.2h2.2v-.5l-2.8-.7-2.9-1.2zm11.7 10.3l.6-2.2h-1.3l-1.6.8 1.1 6.6.7 1.3v-2.8l.6-1.1v-2.6z"/></g></symbol><symbol id="b" viewBox="-49 -74 98 148"><path fill="#F0F7E6" d="M48-68.5c0-3-2.5-5.5-5.5-5.5h-86c-3 0-5.5 2.5-5.5 5.5v136c0 3 2.5 5.5 5.5 5.5h86c3 0 5.5-2.5 5.5-5.5v-136z"/><path fill="#000" d="M43 73c2.8 0 5-2.2 5-5v-136c0-2.8-2.2-5-5-5h-86c-2.8 0-5 2.2-5 5v136c0 2.8 2.2 5 5 5h86m0 1h-86c-3.3 0-6-2.7-6-6v-136c0-3.3 2.7-6 6-6h86c3.3 0 6 2.7 6 6v136c0 3.3-2.7 6-6 6z"/></symbol><symbol id="f" viewBox="-41 -66 82 132"><g><g fill-rule="evenodd" clip-rule="evenodd"><path d="M33 66h-66v-1h66zM33-65h-66v-1h66zM-41 37h1v-88h-1zM41-37h-1v88h1zM40-.5h-80v1h80z"/></g></g></symbol><symbol viewBox="-7.7 -10.4 15.4 20.8"><g clip-rule="evenodd"><path fill-rule="evenodd" fill="#fe0" d="M0-5.9l-.4.2-.6-2.1 1-.9 1 .8-.6 2.1-.4-.1zm3-.3l-1.5.2.9-2.1-1.5-1-.9-1-.9 1-1.5 1 .9 2.1-1.5-.2 3 2.2 3-2.2z"/><path stroke="#222123" stroke-width=".35" d="M3-6.2l-3 2.2-3-2.2 1.5.2-.9-2.1 1.5-1 .9-1 .9 1 1.5 1-.9 2.1 1.5-.2zm-3 .3l.4.2.6-2.2-1-.8-1.1.8.6 2.1.5-.1z" fill="none"/></g><use xlink:href="#a" width="15.4" height="15.4" x="-7.7" y="-7.7" transform="translate(0 2.703)" overflow="visible"/></symbol><symbol id="a" viewBox="-7.7 -7.7 15.4 15.4"><path fill-rule="evenodd" clip-rule="evenodd" fill="#F40D1D" d="M6.8 3.3c.5-1 .7-2.1.7-3.3 0-1.2-.2-2.3-.7-3.3-.4-.8-.9-1.5-1.5-2-1.5-1.5-3.2-2.2-5.3-2.2-2 0-3.8.7-5.3 2.1-.7.8-1.2 1.5-1.5 2.1-.5 1-.8 2.1-.8 3.3 0 1.2.3 2.2.8 3.3.4.8.9 1.5 1.5 2.1 1.5 1.4 3.3 2.1 5.3 2.1s3.8-.7 5.3-2.1c.5-.5 1-1.2 1.5-2.1z"/><g clip-rule="evenodd"><path fill-rule="evenodd" fill="#00AFE7" d="M6.8 3.3c-2.4-.5-4.6-.7-6.8-.7s-4.4.2-6.8.7c.4.8.9 1.5 1.5 2.1 1.9-.7 3.7-1.1 5.3-1.1 1.7 0 3.4.4 5.3 1.1.5-.6 1-1.3 1.5-2.1z"/><path stroke="#222123" stroke-width=".35" d="M6.8 3.3c-.5.8-1 1.5-1.5 2.1-1.9-.7-3.6-1.1-5.3-1.1-1.7 0-3.4.4-5.3 1.1-.6-.6-1.1-1.3-1.5-2.1 2.4-.5 4.7-.7 6.8-.7 2.2 0 4.4.2 6.8.7z" fill="none"/><path fill-rule="evenodd" fill="#00AFE7" d="M6.8-3.3c-.4-.8-.9-1.5-1.5-2-1.9.7-3.6 1-5.2 1-1.8 0-3.5-.4-5.3-1.1-.8.8-1.3 1.5-1.6 2.1 2.4.5 4.6.7 6.8.7s4.4-.2 6.8-.7z"/><path stroke="#222123" stroke-width=".35" d="M6.8-3.3c-2.4.5-4.6.7-6.7.7-2.2 0-4.5-.2-6.8-.7.2-.6.7-1.3 1.4-2.1 1.8.8 3.6 1.1 5.3 1.1 1.6 0 3.4-.4 5.2-1.1.7.6 1.2 1.3 1.6 2.1z" fill="none"/></g><g fill-rule="evenodd" clip-rule="evenodd" fill="#fe0"><path d="M7.2 0l-1 1.3-2-.5 1.1.5-.6 1.3-.8-.5.2-.5-1.9-.4-.5-.7-1.7 1.8-1.9-1.8-.5.6-2 .4.4.6-.8.5-.6-1.2 1.2-.5-2 .5-1-1.3 1-1.2 2 .5-1.2-.5.6-1.3.8.4-.3.5 2 .4.5.6 1.8-1.8 1.8 1.8.5-.6 1.9-.4-.3-.5.8-.5.6 1.3-1.2.4 2-.5 1.1 1.3zM1.6-6.8v1.1l-1.6 1.1-1.6-1 .1-1.1-1.4 1.1-1.5-.5c1.4-1 2.8-1.4 4.4-1.4 1.6 0 3 .5 4.4 1.4l-1.5.5-1.3-1.2zM-1.5 6.6l-.1-1.1 1.6-1 1.6 1v1.1l1.4-1.1 1.5.5c-1.3 1-2.8 1.5-4.5 1.5-1.6 0-3.1-.5-4.5-1.5l1.6-.6 1.4 1.2z"/></g><path clip-rule="evenodd" stroke="#1A1A1A" stroke-width=".35" fill="none" d="M0-7.5v15"/><path fill-rule="evenodd" clip-rule="evenodd" fill-opacity=".149" d="M0 7.5v-15h.1c2 0 3.8.7 5.3 2.1.6.8 1.1 1.5 1.4 2.1.5 1 .8 2.1.8 3.3 0 1.2-.3 2.2-.8 3.3-.4.8-.9 1.5-1.5 2.1-1.5 1.4-3.2 2.1-5.3 2.1z"/><path clip-rule="evenodd" stroke="#222123" stroke-width=".35" d="M6.8 3.3c-.5.8-1 1.5-1.5 2.1-1.5 1.4-3.2 2.1-5.3 2.1-2 0-3.8-.7-5.3-2.1-.6-.6-1.1-1.3-1.5-2.1-.5-1-.8-2.1-.8-3.3 0-1.2.3-2.3.8-3.3.3-.6.8-1.3 1.5-2.1 1.5-1.4 3.3-2.1 5.3-2.1 2.1 0 3.8.7 5.3 2.2.6.6 1.1 1.3 1.5 2 .5 1.1.7 2.2.7 3.3 0 1.1-.2 2.2-.7 3.3z" fill="none"/></symbol><symbol id="d" viewBox="-3.5 -6 7 12"><path d="M-1.3-2.5c0-.3 0-.5.1-.8 0-.2.1-.4.2-.6.1-.1.2-.3.4-.4.1-.1.3-.1.6-.1s.5 0 .6.1c.2.1.3.3.4.4.1.2.2.4.2.6 0 .2.1.5.1.8v8.5h2.2v-8.5c0-.7-.1-1.3-.3-1.7-.2-.5-.5-.9-.8-1.1-.3-.3-.7-.5-1.1-.6-.4-.1-.9-.1-1.3-.1s-.9 0-1.3.1-.8.2-1.1.5c-.3.3-.6.6-.8 1.1-.2.5-.3 1.1-.3 1.8v8.5h2.2v-8.5z"/></symbol><use xlink:href="#b" width="98" height="148" x="-49" y="-74" transform="matrix(1 0 0 -1 50 75)" overflow="visible"/><g><g><use xlink:href="#c" width="10.7" height="10.4" x="-5.4" y="-5.2" transform="matrix(-1 0 0 1 90 122)" overflow="visible"/><use xlink:href="#c" width="10.7" height="10.4" x="-5.4" y="-5.2" transform="matrix(1 0 0 -1 10 28)" overflow="visible"/><use xlink:href="#d" width="7" height="12" x="-3.5" y="-6" transform="matrix(-1 0 0 1 90 136)" overflow="visible"/><use xlink:href="#d" width="7" height="12" x="-3.5" y="-6" transform="matrix(-1 0 0 1 10 136)" overflow="visible"/><use xlink:href="#d" width="7" height="12" x="-3.5" y="-6" transform="matrix(1 0 0 -1 90 14)" overflow="visible"/><use xlink:href="#d" width="7" height="12" x="-3.5" y="-6" transform="matrix(1 0 0 -1 10 14)" overflow="visible"/><use xlink:href="#e" width="68.8" height="64.7" x="-29.1" transform="matrix(-1 0 0 1 50 75)" overflow="visible"/><use xlink:href="#e" width="68.8" height="64.7" x="-29.1" transform="matrix(1 0 0 -1 50 75)" overflow="visible"/><use xlink:href="#f" width="82" height="132" x="-41" y="-66" transform="matrix(1 0 0 -1 50 75)" overflow="visible"/><use xlink:href="#g" width="16.3" height="15.8" x="-8.2" y="-7.9" transform="matrix(-1 0 0 1 81 79.5)" overflow="visible"/><use xlink:href="#g" width="16.3" height="15.8" x="-8.2" y="-7.9" transform="matrix(1 0 0 -1 19 70.5)" overflow="visible"/></g></g></svg>
