<svg xmlns="http://www.w3.org/2000/svg" xmlns:xlink="http://www.w3.org/1999/xlink" viewBox="0 0 100 150" enable-background="new 0 0 100 150"><symbol viewBox="-4.9 -10.1 9.8 20.2"><path fill-rule="evenodd" clip-rule="evenodd" fill="#009C22" d="M0-1.3c3.1 0 4.7-1.6 4.7-3 0-2.6-2.6-3.9-3.5-4.2-1.1-.4-1.2-1.4-1.2-1.4s-.1 1-1.3 1.5c-.9.3-3.5 1.6-3.5 4.2.1 1.3 1.7 2.9 4.8 2.9z"/><path fill-rule="evenodd" clip-rule="evenodd" fill="#006F20" d="M0-1.3v-8.6s-.1 1-1.3 1.5c-.9.3-3.5 1.6-3.5 4.2.1 1.3 1.7 2.9 4.8 2.9z"/><path fill-rule="evenodd" clip-rule="evenodd" fill="#F40D1D" d="M3.5-2.2h-7v8.7l3.5 3.4 3.5-3.4z"/><path fill-rule="evenodd" clip-rule="evenodd" fill="#AC0019" d="M0-2.2h-3.5v8.7l3.5 3.4z"/><path stroke="#000" stroke-width=".35" stroke-linecap="round" stroke-linejoin="round" stroke-miterlimit="10" fill="none" d="M0-9.9v6.9M0 9.9v-11.8"/><path fill-rule="evenodd" clip-rule="evenodd" fill="#fe0" d="M3.5-1.2v-1.1c-.8-.4-2.1-.7-3.5-.7s-2.7.3-3.5.7v1.1c.8-.4 2-.7 3.5-.7s2.7.3 3.5.7z"/><path clip-rule="evenodd" stroke="#000" stroke-width=".35" stroke-linecap="round" stroke-linejoin="round" stroke-miterlimit="10" d="M-3.5-2.2v8.7l3.5 3.4 3.5-3.5v-8.7c.8-.6 1.3-1.3 1.3-2 0-2.6-2.6-3.9-3.5-4.2-1.2-.4-1.3-1.4-1.3-1.4s-.1 1-1.3 1.5c-.9.3-3.5 1.6-3.5 4.2.1.6.5 1.4 1.3 2z" fill="none"/><path clip-rule="evenodd" stroke="#000" stroke-width=".25" stroke-linecap="round" stroke-miterlimit="10" d="M3.5-2.3c-.8-.4-2.1-.7-3.5-.7s-2.7.3-3.5.7" fill="none"/></symbol><symbol viewBox="-6.7 -8.5 13.4 17"><path fill-rule="evenodd" clip-rule="evenodd" fill="#009915" d="M0 8.3c1.5-1.4 2.4-2.2 2.5-2.5.4-.8.5-1.8.3-3l1.2 1.7.8-1.1c.5-.8.8-1.4.9-1.8.2-.9-.1-2-.9-3.3l1.6.9c.1-2.4-.1-4-.4-4.7-.3-.6-1.1-1-2.3-1.2l1.8-.6c-.8-.7-1.8-1-2.8-1-.1 0-.4.3-1 .8-.4.4-.8.3-1.2-.3h-1c-.4.6-.8.6-1.2.2-.6-.6-.9-.8-1-.8-1 0-2 .4-2.9 1.1l1.8.6c-1.2.2-2 .6-2.3 1.3-.2.5-.4 1.4-.4 2.8v2l1.6-.9c-.8 1.3-1 2.4-.9 3.3.1.4.4 1 .9 1.8.3.4.6.7.8 1.1l1.2-1.7c-.1 1 0 2 .4 2.8.1.3 1 1.1 2.5 2.5z"/><path fill-rule="evenodd" clip-rule="evenodd" fill-opacity=".298" d="M-4.9 3.5c.3.4.6.7.8 1.1l1.2-1.7c-.1 1.1 0 2.1.4 2.9.2.3 1 1.2 2.6 2.5v-16h-.5c-.4.5-.8.6-1.2.2-.6-.5-.9-.8-1-.8-1 0-2 .4-2.9 1.1l1.8.6c-1.2.2-2 .6-2.3 1.3-.3.4-.5 1.3-.5 2.7v2l1.6-.9c-.8 1.3-1 2.4-.9 3.3.1.3.4.9.9 1.7z"/><path clip-rule="evenodd" stroke="#000" stroke-width=".031" stroke-linecap="round" stroke-linejoin="round" stroke-miterlimit="3" d="M-4.9 3.5c-.5-.8-.8-1.4-.9-1.8-.2-.9.1-2 .9-3.3l-1.6.9v-2c0-1.3.2-2.2.4-2.7.4-.7 1.1-1.2 2.3-1.3l-1.8-.6c.9-.7 1.9-1 2.9-1 .1 0 .4.3 1 .8.4.4.8.3 1.2-.2h.5v16c-1.5-1.4-2.4-2.2-2.6-2.5-.3-.8-.4-1.8-.3-3l-1.2 1.7c-.2-.3-.5-.7-.8-1z" fill="none"/><path clip-rule="evenodd" stroke="#151215" stroke-width=".35" d="M0 8.3c-1.5-1.4-2.4-2.2-2.6-2.5-.3-.8-.4-1.8-.3-3l-1.2 1.7c-.2-.3-.5-.7-.8-1.1-.5-.8-.8-1.4-.9-1.8-.2-.9.1-2 .9-3.3l-1.6.9v-2c0-1.2.2-2.1.4-2.6.4-.7 1.1-1.2 2.3-1.3l-1.8-.6c.9-.7 1.9-1 2.9-1 .1 0 .4.3 1 .8.4.4.8.3 1.2-.2h1c.4.6.8.6 1.2.2.6-.6.9-.8 1-.8 1 0 2 .4 2.9 1.1l-1.9.5c1.2.2 2 .6 2.3 1.3.4.7.5 2.3.4 4.7l-1.5-.9c.8 1.3 1 2.4.9 3.3-.1.4-.4 1-.9 1.8l-.8 1-1.3-1.7c.2 1.2.1 2.2-.3 3-.1.3-1 1.1-2.5 2.5z" fill="none"/></symbol><symbol viewBox="-8.2 -7.9 16.3 15.8"><path fill-rule="evenodd" clip-rule="evenodd" fill="#E61616" d="M6.5 6.8c1.1-.8 1.6-2 1.5-3.6-.1-1.6-.7-3-2-4.4-1.2-1.4-3.2-3.5-6-6.4-2.8 2.9-4.8 5.1-6 6.4-1.2 1.4-1.9 2.9-2 4.4-.1 1.6.4 2.8 1.5 3.6 1 .8 2.1 1.1 3.3.8 1.2-.1 2.3-.8 3.2-1.8 1 1 2 1.7 3.2 1.8 1.2.3 2.3 0 3.3-.8z"/><path fill-rule="evenodd" clip-rule="evenodd" fill-opacity=".298" d="M0-7.6v13.4c1 1 2 1.6 3.2 1.8 1.2.2 2.3-.1 3.3-.8 1.1-.8 1.6-2 1.5-3.6-.1-1.6-.7-3-2-4.4-1.2-1.4-3.2-3.5-6-6.4z"/><path clip-rule="evenodd" stroke="#151215" stroke-width=".1" stroke-linecap="round" stroke-linejoin="round" stroke-miterlimit="3" d="M0-7.6c2.8 2.9 4.8 5.1 6 6.4 1.2 1.4 1.9 2.9 2 4.4.1 1.6-.4 2.8-1.5 3.6-1 .8-2.1 1.1-3.3.8-1.2-.2-2.2-.8-3.2-1.8v-13.4z" fill="none"/><path clip-rule="evenodd" stroke="#151215" stroke-width=".35" d="M6.5 6.8c-1 .8-2.1 1.1-3.3.8-1.2-.1-2.2-.8-3.2-1.8-.9 1.1-2 1.7-3.2 1.9-1.2.2-2.3-.1-3.3-.8-1.1-.9-1.6-2.1-1.5-3.7.1-1.6.8-3 2-4.4 1.2-1.4 3.2-3.5 6-6.4 2.8 2.9 4.8 5.1 6 6.4 1.2 1.4 1.9 2.9 2 4.4.1 1.6-.4 2.8-1.5 3.6z" fill="none"/></symbol><symbol id="b" viewBox="-49 -74 98 148"><path fill="#F0F7E6" d="M48-68.5c0-3-2.5-5.5-5.5-5.5h-86c-3 0-5.5 2.5-5.5 5.5v136c0 3 2.5 5.5 5.5 5.5h86c3 0 5.5-2.5 5.5-5.5v-136z"/><path fill="#000" d="M43 73c2.8 0 5-2.2 5-5v-136c0-2.8-2.2-5-5-5h-86c-2.8 0-5 2.2-5 5v136c0 2.8 2.2 5 5 5h86m0 1h-86c-3.3 0-6-2.7-6-6v-136c0-3.3 2.7-6 6-6h86c3.3 0 6 2.7 6 6v136c0 3.3-2.7 6-6 6z"/></symbol><symbol id="c" viewBox="-41 -66 82 132"><path fill-rule="evenodd" clip-rule="evenodd" d="M23 66h-46v-1h46zM23-65h-46v-1h46zM-41 50h1v-100h-1zM41-50h-1v100h1zM40-.5h-80v1h80z"/></symbol><symbol id="e" viewBox="-7.7 -10.4 15.4 20.8"><g clip-rule="evenodd"><path fill-rule="evenodd" fill="#fe0" d="M0-5.9l-.4.2-.6-2.1 1-.9 1 .8-.6 2.1-.4-.1zm3-.3l-1.5.2.9-2.1-1.5-1-.9-1-.9 1-1.5 1 .9 2.1-1.5-.2 3 2.2 3-2.2z"/><path stroke="#222123" stroke-width=".35" d="M3-6.2l-3 2.2-3-2.2 1.5.2-.9-2.1 1.5-1 .9-1 .9 1 1.5 1-.9 2.1 1.5-.2zm-3 .3l.4.2.6-2.2-1-.8-1.1.8.6 2.1.5-.1z" fill="none"/></g><use xlink:href="#a" width="15.4" height="15.4" x="-7.7" y="-7.7" transform="translate(0 2.703)" overflow="visible"/></symbol><symbol id="a" viewBox="-7.7 -7.7 15.4 15.4"><path fill-rule="evenodd" clip-rule="evenodd" fill="#F40D1D" d="M6.8 3.3c.5-1 .7-2.1.7-3.3 0-1.2-.2-2.3-.7-3.3-.4-.8-.9-1.5-1.5-2-1.5-1.5-3.2-2.2-5.3-2.2-2 0-3.8.7-5.3 2.1-.7.8-1.2 1.5-1.5 2.1-.5 1-.8 2.1-.8 3.3 0 1.2.3 2.2.8 3.3.4.8.9 1.5 1.5 2.1 1.5 1.4 3.3 2.1 5.3 2.1s3.8-.7 5.3-2.1c.5-.5 1-1.2 1.5-2.1z"/><g clip-rule="evenodd"><path fill-rule="evenodd" fill="#00AFE7" d="M6.8 3.3c-2.4-.5-4.6-.7-6.8-.7s-4.4.2-6.8.7c.4.8.9 1.5 1.5 2.1 1.9-.7 3.7-1.1 5.3-1.1 1.7 0 3.4.4 5.3 1.1.5-.6 1-1.3 1.5-2.1z"/><path stroke="#222123" stroke-width=".35" d="M6.8 3.3c-.5.8-1 1.5-1.5 2.1-1.9-.7-3.6-1.1-5.3-1.1-1.7 0-3.4.4-5.3 1.1-.6-.6-1.1-1.3-1.5-2.1 2.4-.5 4.7-.7 6.8-.7 2.2 0 4.4.2 6.8.7z" fill="none"/><path fill-rule="evenodd" fill="#00AFE7" d="M6.8-3.3c-.4-.8-.9-1.5-1.5-2-1.9.7-3.6 1-5.2 1-1.8 0-3.5-.4-5.3-1.1-.8.8-1.3 1.5-1.6 2.1 2.4.5 4.6.7 6.8.7s4.4-.2 6.8-.7z"/><path stroke="#222123" stroke-width=".35" d="M6.8-3.3c-2.4.5-4.6.7-6.7.7-2.2 0-4.5-.2-6.8-.7.2-.6.7-1.3 1.4-2.1 1.8.8 3.6 1.1 5.3 1.1 1.6 0 3.4-.4 5.2-1.1.7.6 1.2 1.3 1.6 2.1z" fill="none"/></g><g fill-rule="evenodd" clip-rule="evenodd" fill="#fe0"><path d="M7.2 0l-1 1.3-2-.5 1.1.5-.6 1.3-.8-.5.2-.5-1.9-.4-.5-.7-1.7 1.8-1.9-1.8-.5.6-2 .4.4.6-.8.5-.6-1.2 1.2-.5-2 .5-1-1.3 1-1.2 2 .5-1.2-.5.6-1.3.8.4-.3.5 2 .4.5.6 1.8-1.8 1.8 1.8.5-.6 1.9-.4-.3-.5.8-.5.6 1.3-1.2.4 2-.5 1.1 1.3zM1.6-6.8v1.1l-1.6 1.1-1.6-1 .1-1.1-1.4 1.1-1.5-.5c1.4-1 2.8-1.4 4.4-1.4 1.6 0 3 .5 4.4 1.4l-1.5.5-1.3-1.2zM-1.5 6.6l-.1-1.1 1.6-1 1.6 1v1.1l1.4-1.1 1.5.5c-1.3 1-2.8 1.5-4.5 1.5-1.6 0-3.1-.5-4.5-1.5l1.6-.6 1.4 1.2z"/></g><path clip-rule="evenodd" stroke="#1A1A1A" stroke-width=".35" fill="none" d="M0-7.5v15"/><path fill-rule="evenodd" clip-rule="evenodd" fill-opacity=".149" d="M0 7.5v-15h.1c2 0 3.8.7 5.3 2.1.6.8 1.1 1.5 1.4 2.1.5 1 .8 2.1.8 3.3 0 1.2-.3 2.2-.8 3.3-.4.8-.9 1.5-1.5 2.1-1.5 1.4-3.2 2.1-5.3 2.1z"/><path clip-rule="evenodd" stroke="#222123" stroke-width=".35" d="M6.8 3.3c-.5.8-1 1.5-1.5 2.1-1.5 1.4-3.2 2.1-5.3 2.1-2 0-3.8-.7-5.3-2.1-.6-.6-1.1-1.3-1.5-2.1-.5-1-.8-2.1-.8-3.3 0-1.2.3-2.3.8-3.3.3-.6.8-1.3 1.5-2.1 1.5-1.4 3.3-2.1 5.3-2.1 2.1 0 3.8.7 5.3 2.2.6.6 1.1 1.3 1.5 2 .5 1.1.7 2.2.7 3.3 0 1.1-.2 2.2-.7 3.3z" fill="none"/></symbol><symbol id="d" viewBox="-37.7 -7.8 75.8 69"><path fill-rule="evenodd" clip-rule="evenodd" fill="#F40D1D" d="M18.7 41.9l6.6-20.6 7.3-5.8-2.9.1-4.5-4.9-9 12-33.6-4.3-9.5-16.4-7.3-.8-1.6 1.2-.2 2.4-1.4 1.1 3.2 2.1-3.2 3.9 4.2 2.7 8.4 6.8 8.2 21.8z"/><path clip-rule="evenodd" stroke="#222123" stroke-width=".425" fill="none" d="M18.7 41.9l-35.3 1.3-8.2-21.8-8.4-6.8-4.2-2.7 3.2-3.9-3.2-2.1 1.4-1.1.2-2.4 1.6-1.2 7.3.8 9.5 16.4 33.6 4.3 9-12 4.5 4.9 2.9-.1-7.3 5.8z"/><path fill-rule="evenodd" clip-rule="evenodd" fill="#B3001D" d="M-25.1 2.3l8.1 15.2 35.1 2.8 5.3-8.3 1.8-.6 4.9 4.2.8-6.3-6.5-.7-7.6-4.8-16.4-.6-9.4.6-3.1-2.6-5.5.4-1.3 1.3-2.5-.3-1.2.8z"/><path clip-rule="evenodd" stroke="#222123" stroke-width=".425" fill="none" d="M-25.1 2.3l8.1 15.2 35.1 2.8 5.3-8.3 1.8-.6 4.9 4.2.8-6.3-6.5-.7-7.6-4.8-16.4-.6-9.4.6-3.1-2.6-5.5.4-1.3 1.3-2.5-.3-1.2.8z"/><path fill-rule="evenodd" clip-rule="evenodd" fill="#D1CE9C" d="M16.9 1.6h-2.1l-2.4.8h-2.6l-2.5-.8-2.7.4-4.2-.4v.8l3.8 3 1.3-.6c1.3.6 1.9 1 1.9 1l1.1-.3h1.8l.9 1.5.9.7 3.4-.9 1.6.2.9 2.2 1.9.9 1.6-4-1.3-.8-.8-1.1-1.8-.9-.7-1.7z"/><path clip-rule="evenodd" stroke="#222022" stroke-width=".425" d="M16.9 1.6h-2.1l-2.4.8h-2.6l-2.5-.8-2.7.4-4.2-.4v.8l3.8 3 1.3-.6c1.3.6 1.9 1 1.9 1l1.1-.3h1.8l.9 1.5.9.7 3.4-.9 1.6.2.9 2.2 1.9.9 1.6-4-1.3-.8-.8-1.1-1.8-.9-.7-1.7z" fill="none"/><path fill-rule="evenodd" clip-rule="evenodd" fill="#00AFE7" d="M-15.9 42.8l15.7-1.3.3-40.1-10.9 8.1-6 8.4-1.3 8 2.8 6.4z"/><path clip-rule="evenodd" stroke="#222123" stroke-width=".425" fill="none" d="M-15.9 42.8l15.7-1.3.3-40.1-10.9 8.1-6 8.4-1.3 8 2.8 6.4z"/><path fill-rule="evenodd" clip-rule="evenodd" fill="#FCEA00" d="M-.2 41.5l15.2 1.1 3.3-16.7-1.4-8-7.1-7.4-9.7-9.1z"/><path clip-rule="evenodd" stroke="#222123" stroke-width=".425" fill="none" d="M-.2 41.5l.3-40.1 9.7 9.1 7.1 7.4 1.4 8-3.3 16.7z"/><path fill-rule="evenodd" clip-rule="evenodd" fill="#FCFAC9" d="M35.5 16.7l1.2-3.8 1.2-.2-.8-3.8-1.1-.5-3.6 1.6-1.5-.7-.8 5.1-1.4-1.9-.8-2.9-2.9-2.5-2.7-1.2-1.9.4-1.9 3.2-1.6 8.6-.7.8-2.3 13.3-1.1 10.6-1.6-1.5-1.7-4.4-2.6-1.3-6.3 1.3-10.8 6.4-5-3.5-1.9-13.4 1.3-13.2-2.2-7.9-4.7-1.8-5.7-1.1-.9 4.2v1.5l4.4 1.2 4.7 9.4 1.4 7.6 1.1 14.9-1.1 1.4 1.3 3.2 4.4 1.6 6.3-.6 9.5-5.7 3.3.7 2 1.7 2.6 3.2 3.5.7 1.8-.6 1-2.1.1-1.2 1.8-.1.8-.9.1-5.4-.5-.4.4-3.3-.3-.2 1.3-4.6.6-5.1-.5-.5.5-3 2.5-3.6-.4-.6 1.5-2.4.1 1.4 2.3 2.2.4 2.6.5.6 4.2.1z"/><path clip-rule="evenodd" stroke="#222123" stroke-width=".425" fill="none" d="M35.5 16.7l-3.2 3.6-4.2-.1-.5-.6-.4-2.6-2.3-2.2-.1-1.4-1.5 2.4.4.6-2.5 3.6-.5 3 .5.5-.6 5.1-1.3 4.6.3.2-.4 3.3.5.4-.1 5.4-.8.9-1.8.1-.1 1.2-1 2.1-1.8.6-3.5-.7-2.6-3.2-2-1.7-3.3-.7-9.5 5.7-6.3.6-4.4-1.6-1.3-3.2 1.1-1.4-1.1-14.9-1.4-7.6-4.7-9.4-4.4-1.2v-1.5l.9-4.2 5.7 1.1 4.7 1.8 2.2 7.9-1.3 13.2 1.9 13.4 5 3.5 10.8-6.4 6.3-1.3 2.6 1.3 1.7 4.4 1.6 1.5 1.1-10.6 2.3-13.3.7-.8 1.6-8.6 1.9-3.2 1.9-.4 2.7 1.2 2.9 2.5.8 2.9 1.4 1.9.8-5.1 1.5.7 3.6-1.6 1.1.5.8 3.8-1.2.2z"/><path fill-rule="evenodd" clip-rule="evenodd" fill="#FCFAC9" d="M-27.6 18.5l-1.7-1.2-.5-1.4-.1-2.2-1.6-3.9 1-2.1-5.4-1.3-.1.9h-.7v2.2l.6 1.3 1.8 2-1 2.2h-.8l.7 2.7 2.5.3 3.6 1.8z"/><path clip-rule="evenodd" stroke="#222123" stroke-width=".425" fill="none" d="M-27.6 18.5l-1.7 1.3-3.6-1.8-2.5-.3-.7-2.7h.8l1-2.2-1.8-2-.6-1.3v-2.2h.7l.1-.9 5.4 1.3-1 2.1 1.6 3.9.1 2.2.5 1.4zM30.1 14.4l.8 1.5.6 2.4.7.3M36.7 12.9v-1.1M12.8 42.8l2.1 1.5v-.5l2.1-.3M-34.3 12.8l.9 3.4"/><g clip-rule="evenodd"><path fill-rule="evenodd" fill="#fff" d="M17.3 6.9l-.8-1.7-1.3-.8z"/><path stroke="#222123" stroke-width=".425" fill="none" d="M17.3 6.9l-.8-1.7-1.3-.8"/></g><path clip-rule="evenodd" stroke="#222123" stroke-width=".425" fill="none" d="M10.5 5.5l-1.9-1.3M24.8 13.4l.4-2.3-2.9 2.5"/><g clip-rule="evenodd" stroke="#222123" stroke-width=".425" fill="none"><path d="M14.5 41.2l1.4-3.2.2 3.5M-20.5 14.9l-.2-3.5 1.8 3.1M-24.2 6.3l-3.3-1.3 3.6-.3M-5.3 44.3l-3.5.6 2.9-2.1M1.6 40.2l-3.6.6 2.9-2.1M15.6 33.4l1.4-3.3.3 3.6M17.3 24.8l1.3-3.3.3 3.6M17.3 15.7l2-3-.4 3.5M32.2 15l2-3-.4 3.6M8.3 41.5l-.2-3.5 1.9 3.1"/></g><path fill-rule="evenodd" clip-rule="evenodd" fill="#fe0" d="M11.8 18.4l1.6-.4-.7 1.3 1.7 1.3 1.5-.7-.8-1.4.8-.4.3.8.7-.8-3.5-6-2.2-1.7v-.9l-1.2-2-.6.7-2.3-1-5.1-4.4.3-.4-2.3-1.6-2.5 1.5.3.4-7.5 5.2-2.1.1-1.2 1.3.5.6-1.1.9-3.1 3-1.2.3.2.8 1.4.2-2.7 6.3-.6 4-1.1-.2v1.1l.8.4 1 .1 2 4.4-.2 1.7-1 .9.3 1 .8.4-1.3 3.2-1.7-.6-.4.8c-.3.5-.4.8-.4.8.1.1.2.6.2 1.7l2-.3 1-1.2-.2 1.6.7.7.7-1.1.1 1.5h1.7l.9.9.4-.7.4.7 2.8-.7v-1.7l-.5-.8h-.6l-2.7-1.8h-.9l.4-5.6-2.7-6.4v-.8l.8.2 1.4-.3-1.2-1.4v-5.1l1.1-1.3v-1l1.2.6 1.3-1.3h-1.5l1.5-3.9 1.7-1.3 1-.5v.9l1.7.9.6-1.2.2-2.2.1 1.1 1.5.8v-2.4l.7-1.3 2.4-2 1.4 1.1 1.2-.6 1.4.5.8-.9 2.4 2.6.4 2.3h.6l.2 1.3-1 .4 2.4.9.5-1.2 1 .4v-.7l2.9 2.7.5 3-1.1.7.8 1.2z"/><path clip-rule="evenodd" stroke="#222123" stroke-width=".425" d="M11.8 18.4l-.7-1.2 1.1-.7-.5-3-2.9-2.7v.7l-1-.4-.5 1.2-2.4-.9 1-.4-.3-1.3h-.6l-.4-2.2-2.3-2.6-.8.9-1.5-.6-1.3.6-1.4-1.1-2.4 2-.6 1.3v2.3l-1.5-.8-.1-1.1-.2 2.2-.6 1.2-1.7-.8.3-.9-1 .5-1.7 1.3-1.5 3.9h1.5l-1.3 1.3-1.2-.6v1l-1.1 1.3v5.1l1.2 1.4-1.4.3-.8-.2v.8l2.7 6.4-.4 5.6h.9l2.7 1.8h.6l.5.8v1.7l-2.8.7-.4-.7-.4.7-.9-.9h-1.7l-.1-1.5-.7 1.1-.7-.7.2-1.6-1 1.2-2 .3c0-1.1-.1-1.6-.2-1.7-.1 0 .1-.3.4-.8l.4-.8 1.7.6 1.3-3.2-.8-.4-.3-1 1-.9.2-1.7-2-4.4-1-.1-.8-.4v-1.1l1.1.2.6-4 2.7-6.3-1.4-.2-.2-.8 1.2-.3 3.1-3 1.1-.9-.5-.6 1.2-1.3 2.1-.1 7.5-5.2-.3-.4 2.2-1.5 2.3 1.6-.3.4 5.1 4.3 2.3 1.1.4-.7 1.2 2v.9l2.2 1.7 3.5 6-.7.8-.3-.8-.8.4.8 1.4-1.5.7-1.7-1.3.7-1.3-1.4.4z" fill="none"/><path fill-rule="evenodd" clip-rule="evenodd" fill="#fe0" d="M-19.5 8.9l3.1-1.7 2.7-.1.7-.8 1.2-.1 1.6-1.6 1.3-.3 3.1-2h1.7l2.1-2.1-3 .1-1.2 1.1-3.5 1-1.2.7-2.2.1-.9.8h-1.1l-1.9 1.9-3.3 1.1-7.6 4.1h-1.8l-1.1 1.2-1.5.3-2 1.6 2.6-.4 1.1-.9h1.8l1.1-1.3z"/><path clip-rule="evenodd" stroke="#222123" stroke-width=".425" fill="none" d="M-19.5 8.9l-8.2 2.7-1.1 1.3h-1.8l-1.1.9-2.6.4 2-1.6 1.5-.3 1.1-1.2h1.8l7.6-4.1 3.3-1.1 1.9-1.9h1.1l.9-.8 2.2-.1 1.2-.7 3.5-1 1.2-1.1 3-.1-2.1 2.1h-1.7l-3.1 2-1.3.3-1.6 1.6-1.2.1-.7.8-2.7.1zM-13 6.3l-1-2.3M-13.1 3.2l1.3 3M-13.7 7.1l-1.4-3.1M-16.4 7.2l-.6-1.3M-5.8 2.3l-.4-.9M-7.1 1.9l.4 1M-10.2 4.6l-.7-1.5"/><path fill-rule="evenodd" clip-rule="evenodd" fill="#F40D1D" d="M-4.1.3c-.4.2-.7.3-.9.6-.2.2-.3.4-.2.6.1.2.3.3.6.3s.6 0 1-.2c.8-.4 1.1-.8 1-1.3-.1-.2-.3-.3-.6-.3l-.9.3z"/><path clip-rule="evenodd" stroke="#222123" stroke-width=".425" d="M-4.1.3c-.4.2-.7.3-.9.6-.2.2-.3.4-.2.6.1.2.3.3.6.3s.6 0 1-.2c.8-.4 1.1-.8 1-1.3-.1-.2-.3-.3-.6-.3l-.9.3z" fill="none"/><path fill-rule="evenodd" clip-rule="evenodd" fill="#00AFE7" d="M-15.9 5.4c-.4.2-.6.5-.4.9.2.4.5.6 1 .4.4-.2.6-.5.4-.9-.3-.4-.6-.5-1-.4z"/><path clip-rule="evenodd" stroke="#222123" stroke-width=".425" d="M-15.9 5.4c-.4.2-.6.5-.4.9.2.4.5.6 1 .4.4-.2.6-.5.4-.9-.3-.4-.6-.5-1-.4z" fill="none"/><g clip-rule="evenodd"><path fill-rule="evenodd" fill="#fe0" d="M-22.6.6c0-1.7-.6-3.2-1.8-4.4-1.2-1.2-2.7-1.8-4.4-1.8-1.7 0-3.2.6-4.4 1.8-1.2 1.2-1.8 2.6-1.8 4.4 0 1.7.6 3.1 1.8 4.3 1.2 1.2 2.7 1.8 4.4 1.8 1.7 0 3.2-.6 4.4-1.8 1.2-1.2 1.8-2.6 1.8-4.3z"/><path stroke="#222123" stroke-width=".425" d="M-22.6.6c0-1.7-.6-3.2-1.8-4.4-1.2-1.2-2.7-1.8-4.4-1.8-1.7 0-3.2.6-4.4 1.8-1.2 1.2-1.8 2.6-1.8 4.4 0 1.7.6 3.1 1.8 4.3 1.2 1.2 2.7 1.8 4.4 1.8 1.7 0 3.2-.6 4.4-1.8 1.2-1.2 1.8-2.6 1.8-4.3z" fill="none"/><path fill-rule="evenodd" fill="#fe0" d="M-29.7-4.5c-.2-.3-.5-.4-1.1-.4-.5 0-1.1.2-1.7.5-.6.4-1 .8-1.3 1.2-.2.5-.2.9 0 1.2.2.3.5.4 1.1.4.5 0 1.1-.2 1.7-.5.6-.4 1-.8 1.3-1.2.2-.5.2-.9 0-1.2z"/><path stroke="#222123" stroke-width=".425" d="M-29.7-4.5c-.2-.3-.5-.4-1.1-.4-.5 0-1.1.2-1.7.5-.6.4-1 .8-1.3 1.2-.2.5-.2.9 0 1.2.2.3.5.4 1.1.4.5 0 1.1-.2 1.7-.5.6-.4 1-.8 1.3-1.2.2-.5.2-.9 0-1.2z" fill="none"/><path fill-rule="evenodd" fill="#fe0" d="M-32.6-3.1l1.5-.6-1-1.5 1.1-.5-.8-1.4-1 .8-.5-1.1-1.4.8.7.9-1 .6.8 1.4.9-.8z"/><path stroke="#222123" stroke-width=".425" fill="none" d="M-32.6-3.1l-.7-1.4-.9.8-.8-1.4 1-.6-.7-.9 1.4-.8.5 1.1 1-.8.8 1.4-1.1.5 1 1.5M-31.1 6.3c1.5.2 3.1-.3 4.8-1.4 1.6-1.1 2.9-2.4 3.7-4M-32.4-1.6c0 .7.3 1.5.7 2.4.4.8.8 1.5 1.2 1.9-.6.3-1.2.5-2 .6-.8.1-1.4.1-1.8 0M-30.4-2.7c1 1.3 2 2.4 3.2 3.5.6-.6 1.1-1.3 1.6-2.1.5-1 .7-2 .5-3"/><path fill-rule="evenodd" fill="#F40D1D" d="M-29 4.4c0-.4-.2-.7-.7-.7-.5 0-.7.2-.7.7 0 .4.2.6.7.6.4.1.7-.2.7-.6z"/><path stroke="#222123" stroke-width=".425" d="M-29 4.4c0-.4-.2-.7-.7-.7-.5 0-.7.2-.7.7 0 .4.2.6.7.6.4.1.7-.2.7-.6z" fill="none"/><path fill-rule="evenodd" fill="#F40D1D" d="M-25.5 2c0-.4-.2-.6-.7-.6-.5 0-.7.2-.7.6 0 .4.2.7.7.7.5-.1.7-.3.7-.7z"/><path stroke="#222123" stroke-width=".425" d="M-25.5 2c0-.4-.2-.6-.7-.6-.5 0-.7.2-.7.6 0 .4.2.7.7.7.5-.1.7-.3.7-.7z" fill="none"/><path fill-rule="evenodd" fill="#F40D1D" d="M-28.1 2.3c0-.4-.2-.7-.7-.7-.2 0-.4.1-.5.2-.1.1-.2.3-.2.5s.1.3.2.4c.2.2.3.3.5.3s.4-.1.5-.2c.2-.2.2-.3.2-.5z"/><path stroke="#222123" stroke-width=".425" d="M-28.1 2.3c0-.4-.2-.7-.7-.7-.2 0-.4.1-.5.2-.1.1-.2.3-.2.5s.1.3.2.4c.2.2.3.3.5.3s.4-.1.5-.2c.2-.2.2-.3.2-.5z" fill="none"/><path fill-rule="evenodd" fill="#F40D1D" d="M-30.1-1c0-.4-.2-.7-.7-.7-.5 0-.7.2-.7.7 0 .4.2.7.7.7.5 0 .7-.2.7-.7z"/><path stroke="#222123" stroke-width=".425" d="M-30.1-1c0-.4-.2-.7-.7-.7-.5 0-.7.2-.7.7 0 .4.2.7.7.7.5 0 .7-.2.7-.7z" fill="none"/><path fill-rule="evenodd" fill="#F40D1D" d="M-22.7-1.4c0-.2-.1-.3-.2-.5-.1-.1-.3-.2-.5-.2-.5 0-.7.2-.7.7 0 .4.2.7.7.7.4-.1.7-.3.7-.7z"/><path stroke="#222123" stroke-width=".425" d="M-22.7-1.4c0-.2-.1-.3-.2-.5-.1-.1-.3-.2-.5-.2-.5 0-.7.2-.7.7 0 .4.2.7.7.7.4-.1.7-.3.7-.7z" fill="none"/><path fill-rule="evenodd" fill="#00AFE7" d="M-30.5 4.6l-2.4-.3-.3.4 2 .8z"/><path stroke="#222123" stroke-width=".425" fill="none" d="M-30.5 4.6l-2.4-.3-.3.4 2 .8z"/><path fill-rule="evenodd" fill="#00AFE7" d="M-26.6 2.9h-1.7l-.5 1.3 1.6.2z"/><path stroke="#222123" stroke-width=".425" fill="none" d="M-26.6 2.9h-1.7l-.5 1.3 1.6.2z"/><path fill-rule="evenodd" fill="#00AFE7" d="M-29.1.3l-1.3-.7v1.4l1.2.6z"/><path stroke="#222123" stroke-width=".425" fill="none" d="M-29.1.3l-1.3-.7v1.4l1.2.6z"/><path fill-rule="evenodd" fill="#00AFE7" d="M-24-.8l-1 .8-.5 1.4 1.5-.5z"/><path stroke="#222123" stroke-width=".425" fill="none" d="M-24-.8l-1 .8-.5 1.4 1.5-.5z"/></g><path fill-rule="evenodd" clip-rule="evenodd" fill="#fe0" d="M-8 40l2.5 3.1 1.4-1-2.4-2.3-.4-.6 1.1-.7-.6-1.2-1 .3-.6 1-.7-1.3.2-.7-2.8-.3.8 2.1h.8l.9.9-1.3.5.5 1.3h1.2z"/><path clip-rule="evenodd" stroke="#222123" stroke-width=".425" fill="none" d="M-8 40l-.4 1.1h-1.2l-.5-1.3 1.3-.5-.9-.9h-.8l-.8-2.1 2.8.3-.2.7.7 1.3.6-1 1-.3.6 1.2-1.1.7.4.6 2.4 2.3-1.4 1z"/><path fill-rule="evenodd" clip-rule="evenodd" fill="#fe0" d="M-5.5 40.9c0-.3-.1-.5-.3-.7-.2-.2-.5-.3-.8-.3-.3 0-.5.1-.7.3-.2.2-.3.4-.3.7 0 .3.1.5.3.7.2.2.4.3.7.3.3 0 .5-.1.7-.3.3-.2.4-.4.4-.7z"/><path clip-rule="evenodd" stroke="#222123" stroke-width=".425" d="M-5.5 40.9c0-.3-.1-.5-.3-.7-.2-.2-.5-.3-.8-.3-.3 0-.5.1-.7.3-.2.2-.3.4-.3.7 0 .3.1.5.3.7.2.2.4.3.7.3.3 0 .5-.1.7-.3.3-.2.4-.4.4-.7z" fill="none"/><g clip-rule="evenodd"><path fill-rule="evenodd" fill="#006626" d="M-.2 54.7c2 0 3.7-.7 5.1-2.1 1.4-1.4 2.1-3.1 2.1-5s-.7-3.6-2.1-5c-1.4-1.4-3.1-2.1-5.1-2.1-1.9 0-3.6.7-5 2.1-1.4 1.4-2.1 3-2.1 5 0 1.9.7 3.6 2.1 5 1.3 1.4 3 2.1 5 2.1z"/><path stroke="#222123" stroke-width=".425" d="M-.2 54.7c-1.9 0-3.6-.7-5-2.1-1.4-1.4-2.1-3.1-2.1-5s.7-3.6 2.1-5c1.4-1.4 3.1-2.1 5-2.1 2 0 3.7.7 5.1 2.1 1.4 1.4 2.1 3 2.1 5 0 1.9-.7 3.6-2.1 5-1.5 1.4-3.2 2.1-5.1 2.1z" fill="none"/><path fill-rule="evenodd" fill="#fe0" d="M8.1 56.1c1.8-1.6 2.6-3.7 2.3-6.4-.2-2.4-1.2-4.7-3-6.7-1.4-1.7-3.1-2.7-4.9-3.2-1.9-.5-3.7-.3-5.5.6l.1.6c2.1 1.6 3.3 2.7 3.9 3.4 1.4 2.2 2.1 4.3 1.9 6.3-.9-.6-1.4-1-1.5-1.1-1.6-1.3-3.2-3.3-4.9-6l-.8-1.6.3-.4-.5-.3-.3.2c-.6.5-1.2 1.2-1.8 2.1.4 1.5 1.1 3.1 2.2 4.7 1 1.4 2.2 2.7 3.6 3.8.5.4.9.7 1.1.9.5.6.7.9.4.8-1.4-.2-2.7-.8-4-1.7-1.5-1.2-2.7-2.6-3.6-4.1-.2-.4-.4-.8-.5-1.1l.2-.9-1.1.4c-.7 3.5-.1 6.3 1.8 8.6 1.6 1.9 4 3 7.1 3.3 3.1.2 5.6-.5 7.5-2.2z"/><path stroke="#222123" stroke-width=".425" d="M8.1 56.1c-1.9 1.6-4.4 2.3-7.5 2.1-3.1-.2-5.4-1.3-7.1-3.2-1.9-2.2-2.5-5.1-1.8-8.6l1.1-.4-.2.9c.1.3.3.7.5 1.1.9 1.6 2.1 2.9 3.6 4.2 1.3 1 2.6 1.5 4 1.7.3 0 .1-.3-.4-.8-.2-.2-.6-.5-1.1-.9-1.3-1.1-2.5-2.4-3.6-3.8-1.1-1.6-1.9-3.1-2.2-4.7.6-.9 1.2-1.6 1.8-2.1l.3-.2.5.3-.3.3.8 1.6c1.6 2.7 3.3 4.7 4.9 6 .1.1.6.4 1.5 1.1.1-2-.5-4.1-1.9-6.3-.5-.7-1.8-1.9-3.9-3.4l-.1-.6c1.7-.9 3.6-1.1 5.5-.6 1.9.5 3.5 1.6 4.9 3.2 1.8 2 2.8 4.3 3 6.7.3 2.8-.5 4.9-2.3 6.4z" fill="none"/></g><path fill-rule="evenodd" clip-rule="evenodd" fill="#fe0" d="M13.9 50.7l-2.4-2.2-1.7-3.2-2.2-2.6v3.7h1.6l-1.5 1v1.9l1.1.4 1.3-.7-.7 1.3 1.3-.1-4.2 4.4.3-2-1.6.4 1.3-1.3-.3-1.4-2.8.1-.9 1.4-.5-1.3-2.7.1-.1 2.1 1.1.9-1.2.5-.2 2.2 1.4.4 1.4-.6-.6.9 1.6.6-1.4 1-1.5-.4 3.7 2.8c1.9-.3 4-1.7 6.4-4.2 2.3-2.4 3.7-4.5 4-6.1z"/><path clip-rule="evenodd" stroke="#222123" stroke-width=".425" d="M13.9 50.7l-2.4-2.2-1.7-3.2-2.2-2.6v3.7h1.6l-1.5 1v1.9l1.1.4 1.3-.7-.7 1.3 1.3-.1-4.2 4.4.3-2-1.6.4 1.3-1.3-.3-1.4-2.8.1-.9 1.4-.5-1.3-2.7.1-.1 2.1 1.1.9-1.2.5-.2 2.2 1.4.4 1.4-.6-.6.9 1.6.6-1.4 1-1.5-.4 3.7 2.8c1.9-.3 4-1.7 6.4-4.2 2.3-2.4 3.7-4.5 4-6.1z" fill="none"/><path fill-rule="evenodd" clip-rule="evenodd" fill="#F40D1D" d="M3.3 53.1c-.3-.3-.6-.5-.9-.6-.4-.1-.7 0-.9.3-.2.2-.4.5-.4.9s.2.7.4 1c.3.3.6.5.9.5.4.1.7 0 .9-.2.2-.2.4-.5.4-.9.1-.3-.1-.7-.4-1z"/><path clip-rule="evenodd" stroke="#222123" stroke-width=".425" d="M3.3 53.1c.3.3.4.6.4 1s-.1.7-.4.9c-.2.2-.6.3-.9.2-.4-.1-.7-.2-.9-.5-.3-.3-.4-.6-.4-1s.1-.7.4-.9c.2-.2.6-.3.9-.3.4.2.7.3.9.6zM-8.6 48.9c1.1 3.6 3.6 5.8 7.5 6.7M.1 39.6c3.5 2.5 5.2 6.1 5.2 10.7M3.8 57l1.5-1.4" fill="none"/><path fill-rule="evenodd" clip-rule="evenodd" fill="#00AFE7" d="M13.2 51.9l-.4-1.5-1.5-.3.4 1.5z"/><path clip-rule="evenodd" stroke="#222123" stroke-width=".425" fill="none" d="M13.2 51.9l-.4-1.5-1.5-.3.4 1.5z"/><path fill-rule="evenodd" clip-rule="evenodd" fill="#00AFE7" d="M7 56.7h-1.8v1.9h1.8z"/><path clip-rule="evenodd" stroke="#222123" stroke-width=".425" fill="none" d="M7 56.7h-1.8v1.9h1.8z"/><path fill-rule="evenodd" clip-rule="evenodd" fill="#00AFE7" d="M-5 51.8h-1.1v1h1.1z"/><path clip-rule="evenodd" stroke="#222123" stroke-width=".425" fill="none" d="M-5 51.8h-1.1v1h1.1z"/><path fill-rule="evenodd" clip-rule="evenodd" fill="#00AFE7" d="M-2.4 47.1h-1.1v1.1h1.1z"/><path clip-rule="evenodd" stroke="#222123" stroke-width=".425" fill="none" d="M-2.4 47.1h-1.1v1.1h1.1z"/><path fill-rule="evenodd" clip-rule="evenodd" fill="#00AFE7" d="M3.4 44.4h-1.1v1h1.1z"/><path clip-rule="evenodd" stroke="#222123" stroke-width=".425" fill="none" d="M3.4 44.4h-1.1v1h1.1z"/><path fill-rule="evenodd" clip-rule="evenodd" fill="#F40D1D" d="M10.5 54.1c0-.2-.1-.4-.2-.6-.2-.2-.4-.3-.6-.3-.2 0-.4.1-.6.3-.1.1-.2.3-.2.6 0 .2.1.4.2.6.2.1.4.2.6.2.5 0 .8-.2.8-.8z"/><path clip-rule="evenodd" stroke="#222123" stroke-width=".425" d="M10.5 54.1c0-.2-.1-.4-.2-.6-.2-.2-.4-.3-.6-.3-.2 0-.4.1-.6.3-.1.1-.2.3-.2.6 0 .2.1.4.2.6.2.1.4.2.6.2.5 0 .8-.2.8-.8z" fill="none"/><path fill-rule="evenodd" clip-rule="evenodd" fill="#F40D1D" d="M3.5 59.9c0-.2-.1-.4-.2-.6-.1-.1-.3-.2-.6-.2-.6 0-.9.3-.9.8 0 .6.3.9.9.9.5 0 .8-.3.8-.9z"/><path clip-rule="evenodd" stroke="#222123" stroke-width=".425" d="M3.5 59.9c0-.2-.1-.4-.2-.6-.1-.1-.3-.2-.6-.2-.6 0-.9.3-.9.8 0 .6.3.9.9.9.5 0 .8-.3.8-.9z" fill="none"/><path fill-rule="evenodd" clip-rule="evenodd" fill="#F40D1D" d="M-2.5 54.3c0-.3-.2-.5-.5-.5-.4 0-.5.2-.5.5 0 .4.2.5.5.5s.5-.2.5-.5z"/><path clip-rule="evenodd" stroke="#222123" stroke-width=".425" d="M-2.5 54.3c0-.3-.2-.5-.5-.5-.4 0-.5.2-.5.5 0 .4.2.5.5.5s.5-.2.5-.5z" fill="none"/><path fill-rule="evenodd" clip-rule="evenodd" fill="#F40D1D" d="M-1.5 50.2c.4 0 .5-.2.5-.5 0-.4-.2-.5-.5-.5-.4 0-.5.2-.5.5-.1.4.1.5.5.5z"/><path clip-rule="evenodd" stroke="#222123" stroke-width=".425" d="M-1.5 50.2c.4 0 .5-.2.5-.5 0-.4-.2-.5-.5-.5-.4 0-.5.2-.5.5-.1.4.1.5.5.5z" fill="none"/><path fill-rule="evenodd" clip-rule="evenodd" fill="#F40D1D" d="M-3.7 45.4c0-.4-.2-.5-.6-.5-.1 0-.2.1-.4.2-.1.1-.2.2-.2.4 0 .1.1.2.2.4.1.1.2.2.4.2.4-.1.6-.3.6-.7z"/><path clip-rule="evenodd" stroke="#222123" stroke-width=".425" d="M-3.7 45.4c0-.4-.2-.5-.6-.5-.1 0-.2.1-.4.2-.1.1-.2.2-.2.4 0 .1.1.2.2.4.1.1.2.2.4.2.4-.1.6-.3.6-.7z" fill="none"/><path fill-rule="evenodd" clip-rule="evenodd" fill="#F40D1D" d="M-6.8 50c0-.3-.2-.5-.5-.5-.4 0-.5.2-.5.5 0 .4.2.5.5.5s.5-.2.5-.5z"/><path clip-rule="evenodd" stroke="#222123" stroke-width=".425" d="M-6.8 50c0-.3-.2-.5-.5-.5-.4 0-.5.2-.5.5 0 .4.2.5.5.5s.5-.2.5-.5z" fill="none"/><path fill-rule="evenodd" clip-rule="evenodd" fill="#F40D1D" d="M-8 47.6c0-.4-.2-.5-.5-.5-.4 0-.5.2-.5.5s.2.5.5.5c.4.1.5-.1.5-.5z"/><path clip-rule="evenodd" stroke="#222123" stroke-width=".425" d="M-8 47.6c0-.4-.2-.5-.5-.5-.4 0-.5.2-.5.5s.2.5.5.5c.4.1.5-.1.5-.5z" fill="none"/><path fill-rule="evenodd" clip-rule="evenodd" fill="#F40D1D" d="M1.5 42.4c0-.4-.2-.5-.6-.5-.4 0-.5.2-.5.5s.2.5.5.5c.4 0 .6-.1.6-.5z"/><path clip-rule="evenodd" stroke="#222123" stroke-width=".425" d="M1.5 42.4c0-.4-.2-.5-.6-.5-.4 0-.5.2-.5.5s.2.5.5.5c.4 0 .6-.1.6-.5z" fill="none"/><path fill-rule="evenodd" clip-rule="evenodd" fill="#F40D1D" d="M-.6 40.4c0-.3-.2-.5-.5-.5-.4 0-.5.2-.5.5 0 .4.2.5.5.5s.5-.2.5-.5z"/><path clip-rule="evenodd" stroke="#222123" stroke-width=".425" d="M-.6 40.4c0-.3-.2-.5-.5-.5-.4 0-.5.2-.5.5 0 .4.2.5.5.5s.5-.2.5-.5z" fill="none"/><path fill-rule="evenodd" clip-rule="evenodd" fill="#F40D1D" d="M-5 43.3c0-.1-.1-.3-.2-.4-.1-.1-.2-.2-.4-.2-.4 0-.5.2-.5.5 0 .4.2.5.5.5.1 0 .3-.1.4-.2.1 0 .2-.1.2-.2z"/><path clip-rule="evenodd" stroke="#222123" stroke-width=".425" d="M-5 43.3c0-.1-.1-.3-.2-.4-.1-.1-.2-.2-.4-.2-.4 0-.5.2-.5.5 0 .4.2.5.5.5.1 0 .3-.1.4-.2.1 0 .2-.1.2-.2z" fill="none"/><path fill-rule="evenodd" clip-rule="evenodd" fill="#F40D1D" d="M4.4 48c0-.4-.2-.5-.6-.5-.4 0-.5.2-.5.5s.2.5.5.5c.4-.1.6-.2.6-.5z"/><path clip-rule="evenodd" stroke="#222123" stroke-width=".425" d="M4.4 48c0-.4-.2-.5-.6-.5-.4 0-.5.2-.5.5s.2.5.5.5c.4-.1.6-.2.6-.5z" fill="none"/><g clip-rule="evenodd"><path fill-rule="evenodd" fill="#006379" d="M-.2 20.4c3.4 0 6.2-.4 8.6-1.2-.9-1.5-2.1-2.7-3.6-3.5-1.5-.9-3.2-1.3-5-1.3v6z"/><path stroke="#222123" stroke-width=".425" d="M-.2 20.4v-6c1.8 0 3.4.4 5 1.3 1.5.9 2.7 2 3.6 3.5-2.4.8-5.2 1.2-8.6 1.2z" fill="none"/><path fill-rule="evenodd" fill="#B3001D" d="M8.3 29.4c.9-1.5 1.4-3.2 1.4-5.1 0-1.9-.5-3.5-1.4-5.1-2.3.8-5.1 1.2-8.5 1.2v7.8c3.4 0 6.2.4 8.5 1.2z"/><path stroke="#222123" stroke-width=".425" d="M8.3 29.4c-2.3-.8-5.2-1.2-8.6-1.2v-7.8c3.4 0 6.2-.4 8.6-1.2.9 1.5 1.4 3.2 1.4 5.1 0 1.9-.4 3.6-1.4 5.1z" fill="none"/><path fill-rule="evenodd" fill="#006379" d="M8.3 29.4c-2.3-.8-5.2-1.2-8.6-1.2v6c1.8 0 3.4-.4 5-1.3 1.6-.8 2.8-2 3.6-3.5z"/><path stroke="#222123" stroke-width=".425" d="M8.3 29.4c-.9 1.5-2.1 2.7-3.6 3.5-1.5.9-3.2 1.3-5 1.3v-6c3.5 0 6.3.4 8.6 1.2z" fill="none"/><path fill-rule="evenodd" fill="#00AFE7" d="M-8.8 19.2c2.4.8 5.2 1.2 8.6 1.2v-6c-1.8 0-3.4.4-5 1.3-1.5.9-2.7 2.1-3.6 3.5z"/><path stroke="#222123" stroke-width=".425" d="M-8.8 19.2c.9-1.5 2.1-2.7 3.6-3.5 1.5-.9 3.2-1.3 5-1.3v6c-3.3 0-6.2-.4-8.6-1.2z" fill="none"/><path fill-rule="evenodd" fill="#F40D1D" d="M-.2 28.2v-7.8c-3.3 0-6.2-.4-8.6-1.2-.9 1.5-1.4 3.2-1.4 5.1 0 1.9.5 3.6 1.4 5.1 2.4-.8 5.3-1.2 8.6-1.2z"/><path stroke="#222123" stroke-width=".425" d="M-.2 28.2c-3.3 0-6.2.4-8.6 1.2-.9-1.5-1.4-3.2-1.4-5.1 0-1.9.5-3.5 1.4-5.1 2.4.8 5.2 1.2 8.6 1.2v7.8z" fill="none"/><path fill-rule="evenodd" fill="#00AFE7" d="M-.2 34.3v-6c-3.3 0-6.2.4-8.6 1.2.9 1.5 2.1 2.7 3.6 3.5 1.5.8 3.2 1.3 5 1.3z"/><path stroke="#222123" stroke-width=".425" d="M-.2 34.3c-1.8 0-3.4-.4-5-1.3-1.5-.9-2.7-2-3.6-3.5 2.4-.8 5.2-1.2 8.6-1.2v6z" fill="none"/><path fill-rule="evenodd" fill="#fe0" d="M1.2 14l1.8-2.7-3.1-.8-3.1.8 1.7 2.7h1.3l-1.2-2 1.2-.4 1.2.4-1 2z"/><path stroke="#222123" stroke-width=".425" fill="none" d="M1.2 14h-1.2l1-2-1.2-.4-1.2.4 1.2 2h-1.3l-1.7-2.7 3.1-.8 3.1.8z"/><path fill-rule="evenodd" fill="#fe0" d="M6.5 17.5l1.8.9-1.4-1.7-2.5-1.3-.7 1.3-1.3-1.6.8-1.1h-6.8l.8 1.1-1.3 1.6-.7-1.3-2.5 1.3-1.4 1.7 1.8-.9 3.3.9 1.8-1.7-.8 1.7 2.4 1.2 2.4-1.2-.8-1.7 1.8 1.7z"/><path stroke="#222123" stroke-width=".425" fill="none" d="M6.5 17.5l-3.3.9-1.8-1.7.8 1.7-2.4 1.2-2.4-1.2.8-1.7-1.8 1.7-3.3-.9-1.8.9 1.4-1.7 2.5-1.3.7 1.3 1.3-1.6-.8-1.1h6.8l-.8 1.1 1.3 1.6.7-1.3 2.5 1.3 1.4 1.7zM-.8 14l.6 2.8.8-2.8"/><path fill-rule="evenodd" fill="#fe0" d="M1.2 34.5l1.6-.7-.4-.5 1.3-1.6.7 1.4 2.5-1.4 1.4-1.7-1.8 1-3.3-1-1.8 1.7.8-1.7-2.4-1.2-2.4 1.2.8 1.7-1.8-1.7-3.3 1-1.8-1 1.4 1.7 2.5 1.4.7-1.4 1.3 1.6-.4.5 1.6.7z"/><path stroke="#222123" stroke-width=".425" fill="none" d="M1.2 34.5h-2.8l-1.6-.7.4-.5-1.3-1.6-.7 1.4-2.5-1.4-1.4-1.7 1.8 1 3.3-1 1.8 1.7-.8-1.7 2.4-1.2 2.4 1.2-.8 1.7 1.8-1.7 3.3 1 1.8-1-1.4 1.7-2.5 1.4-.7-1.4-1.3 1.6.4.5zM.4 34.5l-.6-2.9-.9 2.9"/><g fill-rule="evenodd"><path fill="#fe0" d="M-4.3 25.4c-.3.2-.6.4-.9.4-.3 0-.6-.1-.9-.4-.2-.2-.4-.5-.4-.9 0-.3.1-.6.4-.9.2-.2.5-.4.9-.4.3 0 .6.1.9.4.2.2.4.5.4.9s-.1.6-.4.9zm6.3-.9l-2.2 2.2-2.2-2.2 2.2-2.2 2.2 2.2zm2.7 1.2c-.4 0-.7-.1-.9-.4-.2-.2-.4-.5-.4-.9 0-.3.1-.6.4-.9.2-.2.5-.4.9-.4.3 0 .6.1.9.4.2.2.4.5.4.9 0 .3-.1.6-.4.9-.3.3-.6.4-.9.4zm-1.3.2c.4.3.8.5 1.3.5s.9-.1 1.2-.4c.4-.3.6-.7.6-1.1l2.3 3.1.3-.9-1.7-2.6 1.8-2.7-.4-.8-2.3 3.2c-.1-.4-.3-.8-.6-1.1-.3-.3-.7-.4-1.2-.4s-.9.2-1.3.5-.6.7-.6 1.3l-3-3-3 3c0-.5-.2-.9-.6-1.3-.4-.3-.8-.5-1.3-.5s-.9.1-1.2.4c-.4.3-.7.7-.7 1.1l-2.3-3.3-.3.9 1.7 2.7-1.6 2.5.4.9 2.1-3c.1.4.3.8.6 1.1.3.3.7.4 1.2.4s.9-.2 1.3-.5c.4-.4.6-.8.6-1.3l3 3 3-3c.1.6.3 1 .7 1.3z"/><path fill="#222123" d="M-5.2 23.8c.5 0 .8.3.8.8 0 .2-.1.4-.2.5-.2.1-.4.2-.6.2-.2 0-.4-.1-.5-.2-.1-.1-.2-.3-.2-.5 0-.6.2-.8.7-.8zm-.8 1.6c.2.2.5.4.9.4.3 0 .6-.1.9-.4.2-.2.4-.5.4-.9 0-.3-.1-.6-.4-.9-.3-.2-.6-.4-.9-.4-.3 0-.6.1-.9.4-.2.2-.4.5-.4.9s.1.6.4.9zm7.3-.9l-1.6 1.6-1.6-1.6 1.6-1.6 1.6 1.6zm-1.5 2.3l2.2-2.3-2.2-2.2-2.2 2.2 2.2 2.3zm4.9.1c.9 0 1.6-.4 2-1.1l2.2 3.1.7-1.8-.1-.2-1.5-2.4 1.7-2.7-.8-1.7-2.2 3.2c-.4-.7-1.1-1.1-2-1.1-1 0-1.7.4-2.1 1.3l-2.8-2.8-2.8 2.8c-.4-.9-1.1-1.3-2.1-1.3-.9 0-1.6.4-2 1.1l-2.3-3.3-.7 2 .1.2 1.6 2.4-1.4 2.3-.2.1.8 1.8 2.1-3c.4.7 1.1 1.1 2 1.1 1 0 1.7-.4 2.1-1.3l2.8 2.8 2.8-2.8c.4.8 1.1 1.3 2.1 1.3zm-.6-1.8c-.1-.1-.2-.3-.2-.5 0-.5.3-.8.8-.8s.8.3.8.8c0 .2-.1.4-.2.5-.1.1-.3.2-.5.2s-.5-.1-.7-.2zm-.3.3c.2.2.5.4.9.4.3 0 .6-.1.9-.4.2-.2.4-.5.4-.9 0-.3-.1-.6-.4-.9-.2-.2-.5-.4-.9-.4s-.7.1-.9.4c-.2.2-.4.5-.4.9s.1.6.4.9zm.9 1c-.5 0-.9-.2-1.3-.5s-.6-.7-.6-1.3l-3 3-3-3c0 .5-.2.9-.6 1.3-.4.3-.8.5-1.3.5s-.9-.1-1.2-.4c-.4-.3-.7-.7-.7-1.2l-2.1 3-.4-.8 1.6-2.5-1.7-2.7.3-.9 2.3 3.3c.1-.4.3-.8.6-1.1.3-.3.7-.4 1.2-.4s.9.2 1.3.5c.4.4.6.8.6 1.3l3-3 3 3c0-.5.2-.9.6-1.3.4-.3.8-.5 1.3-.5s.9.1 1.2.4c.4.3.6.7.6 1.1l2.4-3.2.4.8-1.8 2.7 1.7 2.6-.3.9-2.2-3.1c-.1.4-.3.8-.6 1.1-.4.3-.8.4-1.3.4z"/></g></g><g clip-rule="evenodd" stroke="#222123" stroke-width=".425" fill="none"><path d="M-18.7 26.7l.6-1.5M-16.7 25.4l-.9-2.3M-16.7 35.2l1.3-1.7M-16.1 14.9l1.7-.9M-12.3 9.8l.7.2M-9.6 10.2l.6-1.4M8.8 10.8v-1.4M13.4 17.9l.6-1.2M-7.3 8.4l.2-.8M-7.1 46l1.3 2.2M-3.6 41.4l1.9 2.4M-14.3 42.4l-.5-2.2"/></g></symbol><use xlink:href="#b" width="98" height="148" x="-49" y="-74" transform="matrix(1 0 0 -1 50 75)" overflow="visible"/><g><g><use xlink:href="#c" width="82" height="132" x="-41" y="-66" transform="matrix(1 0 0 -1 50 75)" overflow="visible"/><use xlink:href="#d" width="75.8" height="69" x="-37.7" y="-7.8" transform="matrix(-1 0 0 1 50 75)" overflow="visible"/><use xlink:href="#d" width="75.8" height="69" x="-37.7" y="-7.8" transform="matrix(1 0 0 -1 50 75)" overflow="visible"/><use xlink:href="#e" width="15.4" height="20.8" x="-7.7" y="-10.4" transform="matrix(-.866 .5 -.5 -.866 16 17)" overflow="visible"/><use xlink:href="#e" width="15.4" height="20.8" x="-7.7" y="-10.4" transform="matrix(.866 .5 .5 -.866 84 17)" overflow="visible"/><use xlink:href="#e" width="15.4" height="20.8" x="-7.7" y="-10.4" transform="matrix(-.866 -.5 -.5 .866 16 133)" overflow="visible"/><use xlink:href="#e" width="15.4" height="20.8" x="-7.7" y="-10.4" transform="matrix(.866 -.5 .5 .866 84 133)" overflow="visible"/></g></g></svg>
