<svg xmlns="http://www.w3.org/2000/svg" xmlns:xlink="http://www.w3.org/1999/xlink" viewBox="0 0 100 150" enable-background="new 0 0 100 150"><symbol viewBox="-4.9 -10.1 9.8 20.2"><path fill-rule="evenodd" clip-rule="evenodd" fill="#009C22" d="M0-1.3c3.1 0 4.7-1.6 4.7-3 0-2.6-2.6-3.9-3.5-4.2-1.1-.4-1.2-1.4-1.2-1.4s-.1 1-1.3 1.5c-.9.3-3.5 1.6-3.5 4.2.1 1.3 1.7 2.9 4.8 2.9z"/><path fill-rule="evenodd" clip-rule="evenodd" fill="#006F20" d="M0-1.3v-8.6s-.1 1-1.3 1.5c-.9.3-3.5 1.6-3.5 4.2.1 1.3 1.7 2.9 4.8 2.9z"/><path fill-rule="evenodd" clip-rule="evenodd" fill="#F40D1D" d="M3.5-2.2h-7v8.7l3.5 3.4 3.5-3.4z"/><path fill-rule="evenodd" clip-rule="evenodd" fill="#AC0019" d="M0-2.2h-3.5v8.7l3.5 3.4z"/><path stroke="#000" stroke-width=".35" stroke-linecap="round" stroke-linejoin="round" stroke-miterlimit="10" fill="none" d="M0-9.9v6.9M0 9.9v-11.8"/><path fill-rule="evenodd" clip-rule="evenodd" fill="#fe0" d="M3.5-1.2v-1.1c-.8-.4-2.1-.7-3.5-.7s-2.7.3-3.5.7v1.1c.8-.4 2-.7 3.5-.7s2.7.3 3.5.7z"/><path clip-rule="evenodd" stroke="#000" stroke-width=".35" stroke-linecap="round" stroke-linejoin="round" stroke-miterlimit="10" d="M-3.5-2.2v8.7l3.5 3.4 3.5-3.5v-8.7c.8-.6 1.3-1.3 1.3-2 0-2.6-2.6-3.9-3.5-4.2-1.2-.4-1.3-1.4-1.3-1.4s-.1 1-1.3 1.5c-.9.3-3.5 1.6-3.5 4.2.1.6.5 1.4 1.3 2z" fill="none"/><path clip-rule="evenodd" stroke="#000" stroke-width=".25" stroke-linecap="round" stroke-miterlimit="10" d="M3.5-2.3c-.8-.4-2.1-.7-3.5-.7s-2.7.3-3.5.7" fill="none"/></symbol><symbol viewBox="-6.7 -8.5 13.4 17"><path fill-rule="evenodd" clip-rule="evenodd" fill="#009915" d="M0 8.3c1.5-1.4 2.4-2.2 2.5-2.5.4-.8.5-1.8.3-3l1.2 1.7.8-1.1c.5-.8.8-1.4.9-1.8.2-.9-.1-2-.9-3.3l1.6.9c.1-2.4-.1-4-.4-4.7-.3-.6-1.1-1-2.3-1.2l1.8-.6c-.8-.7-1.8-1-2.8-1-.1 0-.4.3-1 .8-.4.4-.8.3-1.2-.3h-1c-.4.6-.8.6-1.2.2-.6-.6-.9-.8-1-.8-1 0-2 .4-2.9 1.1l1.8.6c-1.2.2-2 .6-2.3 1.3-.2.5-.4 1.4-.4 2.8v2l1.6-.9c-.8 1.3-1 2.4-.9 3.3.1.4.4 1 .9 1.8.3.4.6.7.8 1.1l1.2-1.7c-.1 1 0 2 .4 2.8.1.3 1 1.1 2.5 2.5z"/><path fill-rule="evenodd" clip-rule="evenodd" fill-opacity=".298" d="M-4.9 3.5c.3.4.6.7.8 1.1l1.2-1.7c-.1 1.1 0 2.1.4 2.9.2.3 1 1.2 2.6 2.5v-16h-.5c-.4.5-.8.6-1.2.2-.6-.5-.9-.8-1-.8-1 0-2 .4-2.9 1.1l1.8.6c-1.2.2-2 .6-2.3 1.3-.3.4-.5 1.3-.5 2.7v2l1.6-.9c-.8 1.3-1 2.4-.9 3.3.1.3.4.9.9 1.7z"/><path clip-rule="evenodd" stroke="#000" stroke-width=".031" stroke-linecap="round" stroke-linejoin="round" stroke-miterlimit="3" d="M-4.9 3.5c-.5-.8-.8-1.4-.9-1.8-.2-.9.1-2 .9-3.3l-1.6.9v-2c0-1.3.2-2.2.4-2.7.4-.7 1.1-1.2 2.3-1.3l-1.8-.6c.9-.7 1.9-1 2.9-1 .1 0 .4.3 1 .8.4.4.8.3 1.2-.2h.5v16c-1.5-1.4-2.4-2.2-2.6-2.5-.3-.8-.4-1.8-.3-3l-1.2 1.7c-.2-.3-.5-.7-.8-1z" fill="none"/><path clip-rule="evenodd" stroke="#151215" stroke-width=".35" d="M0 8.3c-1.5-1.4-2.4-2.2-2.6-2.5-.3-.8-.4-1.8-.3-3l-1.2 1.7c-.2-.3-.5-.7-.8-1.1-.5-.8-.8-1.4-.9-1.8-.2-.9.1-2 .9-3.3l-1.6.9v-2c0-1.2.2-2.1.4-2.6.4-.7 1.1-1.2 2.3-1.3l-1.8-.6c.9-.7 1.9-1 2.9-1 .1 0 .4.3 1 .8.4.4.8.3 1.2-.2h1c.4.6.8.6 1.2.2.6-.6.9-.8 1-.8 1 0 2 .4 2.9 1.1l-1.9.5c1.2.2 2 .6 2.3 1.3.4.7.5 2.3.4 4.7l-1.5-.9c.8 1.3 1 2.4.9 3.3-.1.4-.4 1-.9 1.8l-.8 1-1.3-1.7c.2 1.2.1 2.2-.3 3-.1.3-1 1.1-2.5 2.5z" fill="none"/></symbol><symbol viewBox="-8.2 -7.9 16.3 15.8"><path fill-rule="evenodd" clip-rule="evenodd" fill="#E61616" d="M6.5 6.8c1.1-.8 1.6-2 1.5-3.6-.1-1.6-.7-3-2-4.4-1.2-1.4-3.2-3.5-6-6.4-2.8 2.9-4.8 5.1-6 6.4-1.2 1.4-1.9 2.9-2 4.4-.1 1.6.4 2.8 1.5 3.6 1 .8 2.1 1.1 3.3.8 1.2-.1 2.3-.8 3.2-1.8 1 1 2 1.7 3.2 1.8 1.2.3 2.3 0 3.3-.8z"/><path fill-rule="evenodd" clip-rule="evenodd" fill-opacity=".298" d="M0-7.6v13.4c1 1 2 1.6 3.2 1.8 1.2.2 2.3-.1 3.3-.8 1.1-.8 1.6-2 1.5-3.6-.1-1.6-.7-3-2-4.4-1.2-1.4-3.2-3.5-6-6.4z"/><path clip-rule="evenodd" stroke="#151215" stroke-width=".1" stroke-linecap="round" stroke-linejoin="round" stroke-miterlimit="3" d="M0-7.6c2.8 2.9 4.8 5.1 6 6.4 1.2 1.4 1.9 2.9 2 4.4.1 1.6-.4 2.8-1.5 3.6-1 .8-2.1 1.1-3.3.8-1.2-.2-2.2-.8-3.2-1.8v-13.4z" fill="none"/><path clip-rule="evenodd" stroke="#151215" stroke-width=".35" d="M6.5 6.8c-1 .8-2.1 1.1-3.3.8-1.2-.1-2.2-.8-3.2-1.8-.9 1.1-2 1.7-3.2 1.9-1.2.2-2.3-.1-3.3-.8-1.1-.9-1.6-2.1-1.5-3.7.1-1.6.8-3 2-4.4 1.2-1.4 3.2-3.5 6-6.4 2.8 2.9 4.8 5.1 6 6.4 1.2 1.4 1.9 2.9 2 4.4.1 1.6-.4 2.8-1.5 3.6z" fill="none"/></symbol><symbol id="b" viewBox="-49 -74 98 148"><path fill="#F0F7E6" d="M48-68.5c0-3-2.5-5.5-5.5-5.5h-86c-3 0-5.5 2.5-5.5 5.5v136c0 3 2.5 5.5 5.5 5.5h86c3 0 5.5-2.5 5.5-5.5v-136z"/><path fill="#000" d="M43 73c2.8 0 5-2.2 5-5v-136c0-2.8-2.2-5-5-5h-86c-2.8 0-5 2.2-5 5v136c0 2.8 2.2 5 5 5h86m0 1h-86c-3.3 0-6-2.7-6-6v-136c0-3.3 2.7-6 6-6h86c3.3 0 6 2.7 6 6v136c0 3.3-2.7 6-6 6z"/></symbol><symbol id="f" viewBox="-41 -66 82 132"><g><g fill-rule="evenodd" clip-rule="evenodd"><path d="M33 66h-66v-1h66zM33-65h-66v-1h66zM-41 37h1v-88h-1zM41-37h-1v88h1zM40-.5h-80v1h80z"/></g></g></symbol><symbol viewBox="-7.7 -10.4 15.4 20.8"><g clip-rule="evenodd"><path fill-rule="evenodd" fill="#fe0" d="M0-5.9l-.4.2-.6-2.1 1-.9 1 .8-.6 2.1-.4-.1zm3-.3l-1.5.2.9-2.1-1.5-1-.9-1-.9 1-1.5 1 .9 2.1-1.5-.2 3 2.2 3-2.2z"/><path stroke="#222123" stroke-width=".35" d="M3-6.2l-3 2.2-3-2.2 1.5.2-.9-2.1 1.5-1 .9-1 .9 1 1.5 1-.9 2.1 1.5-.2zm-3 .3l.4.2.6-2.2-1-.8-1.1.8.6 2.1.5-.1z" fill="none"/></g><use xlink:href="#a" width="15.4" height="15.4" x="-7.7" y="-7.7" transform="translate(0 2.703)" overflow="visible"/></symbol><symbol id="a" viewBox="-7.7 -7.7 15.4 15.4"><path fill-rule="evenodd" clip-rule="evenodd" fill="#F40D1D" d="M6.8 3.3c.5-1 .7-2.1.7-3.3 0-1.2-.2-2.3-.7-3.3-.4-.8-.9-1.5-1.5-2-1.5-1.5-3.2-2.2-5.3-2.2-2 0-3.8.7-5.3 2.1-.7.8-1.2 1.5-1.5 2.1-.5 1-.8 2.1-.8 3.3 0 1.2.3 2.2.8 3.3.4.8.9 1.5 1.5 2.1 1.5 1.4 3.3 2.1 5.3 2.1s3.8-.7 5.3-2.1c.5-.5 1-1.2 1.5-2.1z"/><g clip-rule="evenodd"><path fill-rule="evenodd" fill="#00AFE7" d="M6.8 3.3c-2.4-.5-4.6-.7-6.8-.7s-4.4.2-6.8.7c.4.8.9 1.5 1.5 2.1 1.9-.7 3.7-1.1 5.3-1.1 1.7 0 3.4.4 5.3 1.1.5-.6 1-1.3 1.5-2.1z"/><path stroke="#222123" stroke-width=".35" d="M6.8 3.3c-.5.8-1 1.5-1.5 2.1-1.9-.7-3.6-1.1-5.3-1.1-1.7 0-3.4.4-5.3 1.1-.6-.6-1.1-1.3-1.5-2.1 2.4-.5 4.7-.7 6.8-.7 2.2 0 4.4.2 6.8.7z" fill="none"/><path fill-rule="evenodd" fill="#00AFE7" d="M6.8-3.3c-.4-.8-.9-1.5-1.5-2-1.9.7-3.6 1-5.2 1-1.8 0-3.5-.4-5.3-1.1-.8.8-1.3 1.5-1.6 2.1 2.4.5 4.6.7 6.8.7s4.4-.2 6.8-.7z"/><path stroke="#222123" stroke-width=".35" d="M6.8-3.3c-2.4.5-4.6.7-6.7.7-2.2 0-4.5-.2-6.8-.7.2-.6.7-1.3 1.4-2.1 1.8.8 3.6 1.1 5.3 1.1 1.6 0 3.4-.4 5.2-1.1.7.6 1.2 1.3 1.6 2.1z" fill="none"/></g><g fill-rule="evenodd" clip-rule="evenodd" fill="#fe0"><path d="M7.2 0l-1 1.3-2-.5 1.1.5-.6 1.3-.8-.5.2-.5-1.9-.4-.5-.7-1.7 1.8-1.9-1.8-.5.6-2 .4.4.6-.8.5-.6-1.2 1.2-.5-2 .5-1-1.3 1-1.2 2 .5-1.2-.5.6-1.3.8.4-.3.5 2 .4.5.6 1.8-1.8 1.8 1.8.5-.6 1.9-.4-.3-.5.8-.5.6 1.3-1.2.4 2-.5 1.1 1.3zM1.6-6.8v1.1l-1.6 1.1-1.6-1 .1-1.1-1.4 1.1-1.5-.5c1.4-1 2.8-1.4 4.4-1.4 1.6 0 3 .5 4.4 1.4l-1.5.5-1.3-1.2zM-1.5 6.6l-.1-1.1 1.6-1 1.6 1v1.1l1.4-1.1 1.5.5c-1.3 1-2.8 1.5-4.5 1.5-1.6 0-3.1-.5-4.5-1.5l1.6-.6 1.4 1.2z"/></g><path clip-rule="evenodd" stroke="#1A1A1A" stroke-width=".35" fill="none" d="M0-7.5v15"/><path fill-rule="evenodd" clip-rule="evenodd" fill-opacity=".149" d="M0 7.5v-15h.1c2 0 3.8.7 5.3 2.1.6.8 1.1 1.5 1.4 2.1.5 1 .8 2.1.8 3.3 0 1.2-.3 2.2-.8 3.3-.4.8-.9 1.5-1.5 2.1-1.5 1.4-3.2 2.1-5.3 2.1z"/><path clip-rule="evenodd" stroke="#222123" stroke-width=".35" d="M6.8 3.3c-.5.8-1 1.5-1.5 2.1-1.5 1.4-3.2 2.1-5.3 2.1-2 0-3.8-.7-5.3-2.1-.6-.6-1.1-1.3-1.5-2.1-.5-1-.8-2.1-.8-3.3 0-1.2.3-2.3.8-3.3.3-.6.8-1.3 1.5-2.1 1.5-1.4 3.3-2.1 5.3-2.1 2.1 0 3.8.7 5.3 2.2.6.6 1.1 1.3 1.5 2 .5 1.1.7 2.2.7 3.3 0 1.1-.2 2.2-.7 3.3z" fill="none"/></symbol><symbol id="c" viewBox="-5.1 -5.1 10.3 10.3"><path fill-rule="evenodd" clip-rule="evenodd" fill="#F40D1D" d="M-4.5-2.2c-.3.7-.5 1.4-.5 2.2 0 .8.2 1.5.5 2.2.3.5.6 1 1 1.3 1 1 2.1 1.4 3.5 1.4 1.3 0 2.5-.5 3.5-1.4.5-.5.8-1 1-1.4.3-.6.5-1.3.5-2.1s-.2-1.5-.5-2.2c-.3-.5-.6-1-1-1.4-1-.9-2.2-1.4-3.5-1.4-1.3 0-2.5.5-3.5 1.4-.3.4-.7.9-1 1.4z"/><g fill-rule="evenodd" clip-rule="evenodd" fill="#00AFE7"><path d="M-4.5-2.2c1.6.3 3 .5 4.5.5 1.4 0 2.9-.2 4.5-.5-.3-.5-.6-1-1-1.4-1.3.5-2.4.8-3.5.8s-2.3-.2-3.5-.7c-.3.3-.7.8-1 1.3zM-4.5 2.2c.3.5.6 1 1 1.3 1.2-.5 2.4-.7 3.5-.7 1.2 0 2.3.2 3.5.7.5-.5.8-1 1-1.4-1.6-.2-3.1-.4-4.5-.4s-2.9.2-4.5.5z"/></g><g fill-rule="evenodd" clip-rule="evenodd" fill="#fe0"><path d="M-4.7 0l.7-.8 1.3.3-.7-.4.4-.8.5.4-.2.3 1.3.2.3.4 1.1-1.1 1.2 1.2.3-.4 1.3-.3-.2-.4.5-.4.4.8-.7.4 1.3-.3.7.9-.7.8-1.3-.3.8.4-.4.8-.6-.4.2-.3-1.3-.3-.3-.4-1.2 1.2-1.2-1.2-.3.4-1.2.3.1.3-.5.4-.4-.8.7-.4-1.3.3-.6-.8zM-1 4.4v-.7l1-.7 1.1.7-.1.7.9-.7 1 .3c-.9.6-1.9 1-2.9 1s-2-.3-2.9-.9l1-.3.9.6zM1-4.3l.1.7-1.1.7-1-.7v-.7l-.9.7-1.1-.4c.9-.6 1.9-1 3-1s2.1.3 3 1l-1 .4-1-.7z"/></g><path clip-rule="evenodd" stroke="#222123" stroke-width=".35" d="M-4.5-2.2c.3-.6.6-1 1-1.4 1-.9 2.1-1.4 3.5-1.4 1.3 0 2.5.5 3.5 1.4.4.4.7.8 1 1.4.3.7.5 1.4.5 2.2 0 .8-.2 1.5-.5 2.2-.3.4-.6.8-1 1.3-1 1-2.2 1.5-3.5 1.5-1.4 0-2.5-.5-3.5-1.4-.4-.4-.7-.8-1-1.3-.3-.8-.5-1.6-.5-2.3 0-.8.2-1.5.5-2.2z" fill="none"/><path fill-rule="evenodd" clip-rule="evenodd" fill="#1D1D1B" fill-opacity=".149" d="M.1-5l-.1 9.9h.1c1.3 0 2.5-.5 3.5-1.4.5-.5.8-1 1-1.4.3-.6.4-1.3.4-2.1s-.2-1.5-.5-2.2c-.3-.5-.6-1-1-1.4-.9-.9-2.1-1.4-3.4-1.4z"/><path opacity=".5" fill-rule="evenodd" clip-rule="evenodd" fill="#1D1D1B" fill-opacity=".149" d="M.1-5l-.1 9.9h.1c1.3 0 2.5-.5 3.5-1.4.5-.5.8-1 1-1.4.3-.6.4-1.3.4-2.1s-.2-1.5-.5-2.2c-.3-.5-.6-1-1-1.4-.9-.9-2.1-1.4-3.4-1.4z"/></symbol><symbol id="e" viewBox="-36.9 -0.2 73.7 64.2"><path fill-rule="evenodd" clip-rule="evenodd" fill="#FFC500" d="M13 37.4l1.6.7.8-.8 2.6-.8.4.3 4.2-1.3 3.8-6.7-.3-1.9 4.3-9.1 1-.4 1-3 2.2-1.4.2-2.4 1-1.8.8-3.6-3.4 1.1-7.4.4-15.7-.7.3-2.4-.2-3.4-31.2.1.4 3.6-1.5 4.6 1 .5-6 6-9.3-2.1 3 5 1.8.4 8.2 10.1 1.2 3.4.9 1.2h2l2.4 1.4 2.4-.5 1.5 1 5.3 2.6 14.6 1.6z"/><path clip-rule="evenodd" stroke="#151215" stroke-width=".425" fill="none" d="M13 37.4l1.6.7.8-.8 2.6-.8.4.3 4.2-1.3 3.8-6.7-.3-1.9 4.3-9.1 1-.4 1-3 2.2-1.4.2-2.4 1-1.8.8-3.6-3.4 1.1-7.4.4-15.7-.7.3-2.4-.2-3.4-31.2.1.4 3.6-1.5 4.6 1 .5-6 6-9.3-2.1 3 5 1.8.4 8.2 10.1 1.2 3.4.9 1.2h2l2.4 1.4 2.4-.5 1.5 1 5.3 2.6 14.6 1.6z"/><path fill-rule="evenodd" clip-rule="evenodd" fill="#E1E18C" d="M5.4 48.7c0-.1-.1-1.2-.4-3.2l.2-5.3-6.5-3.5-4.8 1.3.3.9-1.4 14.5.6 5.5 5.2 1.4 6.1-1.9 1-2.6-.2-1.1.4-2.6-.5-3.4z"/><path clip-rule="evenodd" stroke="#151215" stroke-width=".425" d="M5.4 48.7c0-.1-.1-1.2-.4-3.2l.2-5.3-6.5-3.5-4.8 1.3.3.9-1.4 14.5.6 5.5 5.2 1.4 6.1-1.9 1-2.6-.2-1.1.4-2.6-.5-3.4z" fill="none"/><path fill-rule="evenodd" clip-rule="evenodd" fill="#FCFF19" d="M1 22.4l.5-21.9-15.6-.1 2.6 25.6 2.8 10.8 15.8 2 .2-5.1z"/><path clip-rule="evenodd" stroke="#151215" stroke-width=".425" fill="none" d="M1 22.4l.5-21.9-15.6-.1 2.6 25.6 2.8 10.8 15.8 2 .2-5.1z"/><path fill-rule="evenodd" clip-rule="evenodd" fill="#F3000B" d="M-7.4 37.6l-2.7-11.2.4-5-3.5-21h-.9l1.7 24.1-9.7 1.3 11.2 6.4 1.6 4.8z"/><path clip-rule="evenodd" stroke="#151215" stroke-width=".425" fill="none" d="M-7.4 37.6l-1.9-.6-1.6-4.8-11.2-6.4 9.7-1.3-1.7-24.1h.9l3.5 21-.4 5z"/><path fill-rule="evenodd" clip-rule="evenodd" fill="#F3000B" d="M6.2 39.1l1.1-.1.8-5.5 9.7-3.7.4-.7-17.9-7.1 5.7 11.5z"/><path clip-rule="evenodd" stroke="#151215" stroke-width=".425" fill="none" d="M6.2 39.1l-.2-5.6-5.7-11.5 17.9 7.1-.4.7-9.7 3.7-.8 5.5z"/><g clip-rule="evenodd"><path fill-rule="evenodd" fill="#fff" d="M-20 17.3l-1.4-3.4-.2-2.3.1-1.8-4.2 2.9-.7.1 2.3 4.3 3.8.3z"/><path stroke="#151215" stroke-width=".425" fill="none" d="M-20 17.3l-.3.1-3.8-.3-2.3-4.3.7-.1 4.2-2.9-.1 1.8.2 2.3z"/><path fill-rule="evenodd" fill="#00ADE5" d="M-25.7 12.7l.7-.1.6 2.3 1.7 2.4 1.9.2-2.3-3-.6-3.8z"/><path stroke="#151215" stroke-width=".425" fill="none" d="M-25.7 12.7l2-2 .6 3.8 2.3 3-1.9-.2-1.7-2.4-.6-2.3z"/><path fill-rule="evenodd" fill="#00ADE5" d="M-31.2 16.3l-2.1-2.6.5-.1-2.4-.4 2.9 3z"/><path stroke="#151215" stroke-width=".425" fill="none" d="M-31.2 16.3l-1.1-.1-2.9-3 2.4.4-.5.1z"/><path fill-rule="evenodd" fill="#fff" d="M-25.7 12.7l-.7.1z"/><path stroke="#151215" stroke-width=".425" fill="none" d="M-25.7 12.7l-.7.1z"/><path fill-rule="evenodd" fill="#fff" d="M-30 16.5l-2.1-2.8-.7-.1-.5.1 2.1 2.6z"/><path stroke="#151215" stroke-width=".425" fill="none" d="M-30 16.5l-1.2-.2-2.1-2.6.5-.1.7.1z"/><path fill-rule="evenodd" fill="#F3000B" d="M-30 16.5l5.9.6-2.2-4.2-2.8.7-3 .1z"/><path stroke="#151215" stroke-width=".425" fill="none" d="M-30 16.5l-2.1-2.8 3-.1 2.8-.7 2.2 4.2z"/></g><path fill-rule="evenodd" clip-rule="evenodd" fill="#00ADE5" d="M5.2 42.5l.5-.8v-.8l.6-.9-.1-3.2-2.1-1.9-.7-.4-1.9.2.1-.5-2.3-3.1-.1-.5.2-2.2-.6-.3.4-1.4.2-2.1-1.6-.6.6-22.7 2.9-1h-7.5l.1 2.5-1.4-.2v-.8l-2.2-.1 1.3 9.9.4 1.7.2 3.3-.4 4.7 3.4 8-.9 3 .1 1.9-2.1 1.1v5.3l1.5 1.1.4-2.7.7-.1.4.2h1.1l1-.9 2 .2.9.9 1.8.1 1.8 1.5z"/><path clip-rule="evenodd" stroke="#151215" stroke-width=".425" fill="none" d="M5.2 42.5l-1.3-1.6-1.8-1.5-1.8-.1-.9-.9-2-.2-1 .9h-1.1l-.4-.2-.7.1-.4 2.7-1.5-1.1v-5.3l2.1-1.1-.1-1.9.9-3-3.4-8 .4-4.7-.2-3.3-.4-1.7-1.3-9.9 2.2.1v.8l1.4.2-.1-2.5h7.5l-2.9 1-.6 22.7 1.6.6-.2 2.1-.4 1.4.6.3-.2 2.2.1.5 2.3 3.1-.1.5 1.9-.2.7.4 2.1 1.9.1 3.2-.6.9v.8z"/><g clip-rule="evenodd"><path fill-rule="evenodd" fill="#3A2E0F" d="M2.2 24.8l14.1-4.4 1.2-20.4-4.5.1-10.6 2.8z"/><path stroke="#151215" stroke-width=".425" fill="none" d="M2.2 24.8l.2-21.9 10.6-2.8 4.5-.1-1.2 20.4z"/><path fill-rule="evenodd" fill="#E97000" d="M1 25.2l1.2-.4.2-21.9h-.6l-2.3-.7-.9-.9-.8 22.7.8.5z"/><path stroke="#151215" stroke-width=".425" fill="none" d="M1 25.2l-2.4-.7-.8-.5.8-22.7.9.9 2.3.7h.6l-.2 21.9z"/><path fill-rule="evenodd" fill="#FFC500" d="M-.5 2.2l2.4.8 11.4-2.9h-11.5l-3.2 1.2z"/><path stroke="#151215" stroke-width=".425" fill="none" d="M-.5 2.2l2.4.8 11.4-2.9h-11.5l-3.2 1.2z"/></g><path fill-rule="evenodd" clip-rule="evenodd" fill="#E1E18C" d="M1 18.7h1l2.7-1.7 1.4-2.8.5-.5 3.3-.9 1.5-3-1.2-3.2-5.2 1.2-1.8-.6-3.6.4h-.6l-2.4 1.5.1.8-.1.9.3.5-.6 1.3.5 1v1.6l.9.9 2-.2.5.2 2 .1-1.9.4-1.1.8-.4 1c.8-.1 1.3-.2 1.3-.1l.9.4z"/><path clip-rule="evenodd" stroke="#151215" stroke-width=".425" d="M1 18.7l-.8-.4c-.1 0-.5 0-1.3.1l.4-1 1.1-.8 1.9-.4-2-.1-.5-.2-2 .2-.9-.9v-1.6l-.5-1 .6-1.3-.3-.5.1-.9-.1-.8 2.3-1.6h.6l3.6-.4 1.8.7 5.2-1.3 1.2 3.2-1.5 3-3.3.9-.5.5-1.4 2.8-2.7 1.8h-1z" fill="none"/><g clip-rule="evenodd"><path fill-rule="evenodd" fill="#fff" d="M26.9 9.3l-2 4 1.3.3 3-7.7-1-.2-2.9.5-3.9-4.1-.3-2.1h-3.5l-7.7 5.8-.8.3 1 2.2-1.1 4.7.3.2 4.3.1.9-2.8v-2.9h2.5l1.8-.6 2.6-2.5 3.2 3 3.2-1-.9 2.8z"/><path stroke="#151215" stroke-width=".425" d="M26.9 9.3l1-2.6-3.2 1-3.2-3-2.6 2.5-1.9.6h-2.5v2.9l-.9 2.8-4.3-.1-.3-.4 1.2-4.7-1-2.2.7-.3 7.7-5.8h3.5l.2 2.2 3.9 4.1 2.9-.5 1 .2-3 7.7-1.3-.3 2.1-4.1z" fill="none"/><path fill-rule="evenodd" fill="#00ADE5" d="M27.2 13.6l2.5-5.2.6-2.1-1.1-.3-2.9 7.6z"/><path stroke="#151215" stroke-width=".425" fill="none" d="M27.2 13.6h-.9l2.9-7.6 1.1.3-.6 2.1z"/><path fill-rule="evenodd" fill="#00ADE5" d="M26 5.3l-3.7-2.8-1.2-2.3-4.2 4.8-1.5.2-3.2-.7v5.8l-1.2 3.2 1.4-.1 1-2.9.1-4.1 2.6.1 1.6-.6 3.6-3.1 3.9 3.5 2.6-.5z"/><path stroke="#151215" stroke-width=".425" fill="none" d="M26 5.3l1.8.5-2.6.5-3.9-3.5-3.6 3.1-1.6.6-2.6-.1-.1 4.1-1 2.9-1.4.1 1.2-3.2v-5.8l3.2.7 1.5-.2 4.2-4.8 1.2 2.3z"/><path fill-rule="evenodd" fill="#F3000B" d="M24.7 13.4l2.2-4.1 1-2.6-3.2 1-3.2-3-2.6 2.5-1.9.6h-2.5v2.9l-1 2.8 11.2-.1z"/><path stroke="#151215" stroke-width=".425" d="M24.7 13.4h-11.2l1-2.8v-2.9h2.5l1.8-.6 2.6-2.5 3.2 3 3.2-1-1 2.6-2.1 4.2z" fill="none"/></g><g clip-rule="evenodd"><path fill-rule="evenodd" fill="#F3000B" d="M11.5 56.7l.2-2.3-.9-4.1-.1-1.5-3.5.8-.9 6.1-1.1 1.9-2.8 1.1-2.3.5-3-.4-2.5-.9-1.1-1-2.6-8.1-3.4-2-.8.1.4 1.8v2l-.7 3.6.3 2.7 1.9 3.8.6.5 9.6-.7 5.3.6 2 .4 3-.6z"/><path stroke="#151215" stroke-width=".425" fill="none" d="M11.5 56.7l-2.4 4.3-3 .6-2-.4-5.3-.6-9.6.7-.6-.5-1.9-3.8-.3-2.7.7-3.6v-2l-.4-1.8.8-.1 3.4 2 2.6 8.1 1.1 1 2.5.9 3 .4 2.3-.5 2.8-1.1 1.1-1.9.9-6.1 3.5-.8.1 1.5.9 4.1z"/><path fill-rule="evenodd" fill="#fff" d="M-16.4 52.6l.3-1.4.7-.4v-2.4l-1.4 2.6-.4 1.8 1.4 1.5.1-.9z"/><path stroke="#151215" stroke-width=".425" fill="none" d="M-16.4 52.6l.7.8-.1.9-1.4-1.5.4-1.8 1.4-2.6v2.4l-.7.4z"/><path fill-rule="evenodd" fill="#00ADE5" d="M-15.8 54.3l-1.3-1.5.4-1.8 1.4-2.6-.1 3.3-.4 2.6zm27.4 7.4l2.3-4.5.5-1.9-.1-1.7-1.5-5.2-1.1.1 1.4 5.5.1 2.1-.8 2-2.3 3.6-1.6 1h-1.5l-5.8-1.1-6.6.3-2.9.5c-.1-.1-.7 0-1.9.1l-2.1-.6-2.3-5.1c-.1-2.5-.1-3.8-.1-3.9l.4-4.6v-2.2l-1.1-.6-.6.4-1.5 2.9-.7 3.7 1.5 2.9h.5v1.2l1.2 3.2 1.4 2.5 1.2.9 2.8.3 4.1-.9 4.6-.5 3.4.4 3.4.8 2.7.1 1.3-.6 1.7-1.1z"/><path stroke="#151215" stroke-width=".425" d="M11.6 61.7l-1.4 1.4-1.3.6-2.7-.1-3.4-.8-3.4-.4-4.6.5-4.1.9-2.8-.3-1.2-.9-1.4-2.5-1.2-3.2v-1.2h-.5l-1.5-2.9.7-3.7 1.5-2.9.6-.4 1.1.6v2.2l-.4 4.6c0 .1 0 1.4.1 3.9l2.3 5.1 2.1.6c1.2-.1 1.8-.2 1.9-.1l2.9-.5 6.6-.3 5.8 1.1h1.5l1.6-1 2.3-3.6.8-2-.1-2.1-1.4-5.5 1.1-.1 1.5 5.2.1 1.7-.5 1.9-2.6 4.2zm-27.4-7.4l.4-2.5.1-3.3-1.4 2.6-.4 1.8 1.3 1.4z" fill="none"/><path fill-rule="evenodd" fill="#fff" d="M12.5 58.2l.8-2-.1-2.1-1.4-5.2-.6-.2-2 .6 1.1.4.5.7.8 4.1-.4 2.1-2.2 3.9-2.1.8-2.9-.5c-.2 0-1.9-.1-5.2-.3l-8.2.5-1.4-.3-1.9-3.9v-2.6l.4-3.6-.2-2.1-.7-1.7-.5-.5-.4-.2v2.2l-.4 4.6c0 .1 0 1.4.1 3.9l2.3 5.1 2.1.6c1.2-.1 1.8-.2 1.9-.1l2.9-.5 6.6-.3 5.8 1.1h1.5l1.6-1 2.2-3.5z"/><path stroke="#151215" stroke-width=".425" d="M12.5 58.2l-2.3 3.6-1.6 1h-1.5l-5.8-1.1-6.6.3-2.9.5c-.1-.1-.7 0-1.9.1l-2.1-.6-2.3-5.1c-.1-2.5-.1-3.8-.1-3.9l.4-4.6v-2.2l.4.2.5.5.7 1.7.2 2.1-.4 3.6v2.6l1.9 3.9 1.4.3 8.2-.5c3.3.2 5 .2 5.2.3l2.9.5 2.2-.9 2.3-3.9.4-2.1-.8-4.1-.5-.7-1.1-.4 2-.6.6.2 1.4 5.2.1 2.1-.9 2z" fill="none"/><path fill-rule="evenodd" fill="#F3000B" d="M-15.7 53.4l.3-2.6-.7.4-.3 1.4z"/><path stroke="#151215" stroke-width=".425" fill="none" d="M-15.7 53.4l-.7-.8.3-1.4.7-.4z"/><path fill-rule="evenodd" fill="#F3000B" d="M-2.6 60.6l-1.4 1.5 1.4 1.4h2.8l1.4-1.4-1.4-1.5z"/><path stroke="#151215" stroke-width=".425" fill="none" d="M-2.6 60.6l-1.4 1.5 1.4 1.4h2.8l1.4-1.4-1.4-1.5z"/><path fill-rule="evenodd" fill="#fff" d="M-1.9 61l-1.1.9.6 1 1.8.2 1.2-.9-.7-1z"/><path fill-rule="evenodd" fill="#00ADE5" d="M-1.4 61.7l-.6.2.1.5.7.2.7-.3-.1-.4z"/></g><g clip-rule="evenodd"><path fill-rule="evenodd" fill="#3A2E0F" d="M-6.5 57.1l.5.4-.4-2.1.1-1.2-1-1.4.6-1.2-.2-.9.5-2.5.3-6.5-1.6-1.1v-3.2l-1.7-.3-.1-.5-5.1-2.6-.9.3-2.5.4.7.6 2-.4.5 2.5 1.9.4.3 2.6 1.9 1.4-.3 1.6 1.1 3.5.4 4.3z"/><path stroke="#151215" stroke-width=".425" fill="none" d="M-6.5 57.1l-3-5.9-.4-4.3-1.1-3.5.3-1.6-1.9-1.4-.3-2.6-1.9-.4-.5-2.5-2 .4-.7-.6 2.5-.4.9-.3 5.1 2.6.1.5 1.7.3v3.2l1.6 1.1-.3 6.5-.5 2.5.2.9-.6 1.2 1 1.4-.1 1.2.4 2.1z"/><path fill-rule="evenodd" fill="#3A2E0F" d="M4.5 57.9l.6-.2 1.4-1.3 1.1-4.2.2-2.1 1.5-3.8-.2-2.3 1.3-1.4 1 .2.9-1.2-.2-2 .6-.9 1.6.6 1.4-1v-1h-.3l-.7.8-1.9-.3-2.3.8-.8.1-3 .9-.3 1.6-1 1.7-.5 2.5.4 1.1.4 1.8v1.2l.4 1-.1 2.4-.5 1.9.3 1-.2 1.1z"/><path stroke="#151215" stroke-width=".425" fill="none" d="M4.5 57.9l1.1-1 .2-1.1-.3-1 .5-1.9.1-2.4-.4-1v-1.2l-.4-1.8-.4-1.1.5-2.5 1-1.7.3-1.6 3-.9.8-.1 2.3-.8 1.9.3.7-.8h.3v1l-1.4 1-1.6-.6-.6.9.2 2-.9 1.2-1-.2-1.3 1.4.2 2.3-1.5 3.8-.2 2.1-1.1 4.2-1.4 1.3z"/></g><g clip-rule="evenodd"><path fill-rule="evenodd" fill="#E1E18C" d="M-10.3 21.3l-1.2-4.8-9.1-5.2-1.3-.1s-.1 1-.1 3.1l1.6 2.7 2.7.7.2 2.5.6.7 3.4 2.1c.8.1 1.1.1 1.1.1l2.1-1.8z"/><path stroke="#151215" stroke-width=".425" d="M-10.3 21.3l-1.2-4.8-9.1-5.2-1.3-.1s-.1 1-.1 3.1l1.6 2.7 2.7.7.2 2.5.6.7 3.4 2.1c.8.1 1.1.1 1.1.1l2.1-1.8z" fill="none"/><path fill-rule="evenodd" fill="#00798F" d="M-19.2 22.3l.4.9 1.5.9 1.3-1 2.6 1.7 1.4.5.8-.4 3.8-3.9-.3-3.7-.8-2-.5-.9-.5-.5-3.1-1.8-.6-.3-3.7-11.6h-3.5l3.1 10.8-1.4-.6.8-.9-1.3-1.4-.5.1-1.6 1.2-.2 1.6.3.8 8.4 5.1.6.8.2.7.7 3.4-.1.8-.7.5h-.7l-1.1-.3-2.9-1.7-.5-.7-1.5 1.2z"/><path stroke="#151215" stroke-width=".425" fill="none" d="M-19.2 22.3l.4.9 1.5.9 1.3-1 2.6 1.7 1.4.5.8-.4 3.8-3.9-.3-3.7-.8-2-.5-.9-.5-.5-3.1-1.8-.6-.3-3.7-11.6h-3.5l3.1 10.8-1.4-.6.8-.9-1.3-1.4-.5.1-1.6 1.2-.2 1.6.3.8 8.4 5.1.6.8.2.7.7 3.4-.1.8-.7.5h-.7l-1.1-.3-2.9-1.7-.5-.7-1.5 1.2zM-17.2 11.4l-.4.2-.1.7 4 2.2 1.3-1.3v-.7l-.6-.1-.4-.9"/><path fill-rule="evenodd" fill="#E8D1A7" d="M-20.2 10.4l-.2-.2-.5.2h.7l.5.9 1-.9z"/><path stroke="#151215" stroke-width=".425" fill="none" d="M-20.9 10.4l.5-.2.7 1.1 1-.9M-18.4 22.8l.2-.8.7.1 1.4 1M-12.1 24.5l1-.7-.2-1.9-.1-.5"/></g><path clip-rule="evenodd" stroke="#151215" stroke-width=".425" fill="none" d="M-15.3 48.7v-3.1M-4.7 39.1l.7-1.6 1.4-5.1 1.4-1.7.4-.1M-1.2 28.1h-1.3l-2.3 1.2M-5.6 34.2l1.8-.2.8-.4M2.1 39.5l-.7-2.1.1-2.7M-5.8 39l-1.2.6M-5.1 15l-1-.7.7-4.6 1.1-3 1.2-2 .1-.4-2.1-3 .3-.5.6-.4M-7.5 2.6l.1 4.6-.5 6.9M-6.1 2.9l1.1 1.3 1.2.5.8-.4"/><g clip-rule="evenodd"><path fill-rule="evenodd" fill="#00ADE5" d="M-1.8 28l-.2-3-1.8-9.9-1.7-3.8z"/><path stroke="#151215" stroke-width=".425" fill="none" d="M-5.5 11.3l1.7 3.8 1.8 9.9.2 3"/></g><path clip-rule="evenodd" stroke="#151215" stroke-width=".425" fill="none" d="M-2.5 28.1l-2.1-3.7-.6-3.2M-5.3 3.8l.2-2.5M25.8 24.5l2.5-5.5 1.8-1.1M14.7 34l.8-3.3"/><g clip-rule="evenodd"><path fill-rule="evenodd" fill="#F3000B" d="M16.8 24.2l-.4-.6-.3 4.6z"/><path stroke="#151215" stroke-width=".425" fill="none" d="M16.1 28.2l.7-4-.5-.7.7-9.8"/></g><path clip-rule="evenodd" stroke="#151215" stroke-width=".425" fill="none" d="M27.8 12.9l3 .8M-20.8 24.6l1.2-3.3-.5-3.7M-16 55.6l.3-1.4"/><g fill-rule="evenodd" clip-rule="evenodd"><path d="M2.8 54.2l-.4-1.1.8-3.2-1.8-.9-1.7.6.3.6 2.3-.1-.4 5.1.2.4 2.3.5.8-.9-1.5.1-.4-.3 1.6-.7-.3-1h-1l-.3.8zM.2 55.5l-.5-.7v-1.1l-.8-.3-.9.1v1l-1-.3-.7-.4.4 1 1.7.4v.4h-1.2l-2-.5 2.1 1.1 2.3-.5.3.2zM2.4 47.2h-1.9l-1.4-.3h-.5l-.2.4 2.2.6 1.8-.1.9-.5v-.4h-.5zM.7 46l-.8.8 2.6-.2-1.3-.7zM5 45.5l-.9-.5-.7-1.3-1.5-1.2-2.9-.9-.2.2 1.3.7-2.4.9-2.8 2.2 3.9-1.8-.5 1 2.3-1.3 1.8.1 1.4 1.6 1.1.6zM-6.2 45.5l3.8-2.9.1-.2-3.9 2.3z"/></g><g fill-rule="evenodd" clip-rule="evenodd" opacity=".5" enable-background="new"><path d="M-14.3 33.9l4.6 2.5-1.1-4.1-6.6-3.9zM6.3 56.2l5-2.3-1.3-3.6-2.5.3zM-12.5 48.7l-.3 5.8 2.7-.1 4 2.9-3.5-6.3v-1.7l-3-1.5zM-20.3 24.4l1.2-3-.8-3.7-4.2-.2 3 1.9 1 2.4zM16.2 24.1l-.3 2 2.1.9.6-7.2 1.5-4.1.7 2.7-.3 3.2 1.7-2.6-1-3.3-3.6-2.1-1.2.1-.7 9.8zM20.7 28.2l1.2 1.7 3.2-.5.2-2.2-1.3 1.4-1.7.5zM22.6 13.6l3.5 1.5 3.8-1.1-3.1-.8-.2.6zM-2.5 23.5l.4-7.3-1.3-1 .2-1.6-.6-.6.7-1.6-.7-.5.3-1.2v-.4l1.6-1.3.2-6.6 2.7-.9-4.5.1-.4 2.5.8 1.4-.1.4-1.7 3.4-.8 3.2 1.9 3.9zM-.9 30.7l-1.6 4.6 1.6-1.7 1.3 1.7.9-1.1zM-5.4 34l2.2-.2.3-1.2-1.8-3.4-1 2.9zM-4.2 37l1-3.2-2.2.2-2.1 1.2 3.2.2-2.1 2.1zM-15.9 55.5l.8-6.7-.2-3.2-.4.3-1.5 2.8-.5 4 1.2 2.5zM-17.6 17.7v-1.4c.7-1.2.9-1.9.8-1.9l-1.9-.9 1.1 4.2z"/></g></symbol><symbol id="d" viewBox="-3.5 -6 7 12"><path d="M-1.3-2.5c0-.3 0-.5.1-.8 0-.2.1-.4.2-.6.1-.1.2-.3.4-.4.1-.1.3-.1.6-.1s.5 0 .6.1c.2.1.3.3.4.4.1.2.2.4.2.6 0 .2.1.5.1.8v8.5h2.2v-8.5c0-.7-.1-1.3-.3-1.7-.2-.5-.5-.9-.8-1.1-.3-.3-.7-.5-1.1-.6-.4-.1-.9-.1-1.3-.1s-.9 0-1.3.1-.8.2-1.1.5c-.3.3-.6.6-.8 1.1-.2.5-.3 1.1-.3 1.8v8.5h2.2v-8.5z"/></symbol><use xlink:href="#b" width="98" height="148" x="-49" y="-74" transform="matrix(1 0 0 -1 50 75)" overflow="visible"/><g><g><use xlink:href="#c" width="10.3" height="10.3" x="-5.1" y="-5.1" transform="matrix(-1 0 0 1 90 122)" overflow="visible"/><use xlink:href="#c" width="10.3" height="10.3" x="-5.1" y="-5.1" transform="matrix(1 0 0 -1 10 28)" overflow="visible"/><use xlink:href="#d" width="7" height="12" x="-3.5" y="-6" transform="matrix(-1 0 0 1 90 136)" overflow="visible"/><use xlink:href="#d" width="7" height="12" x="-3.5" y="-6" transform="matrix(-1 0 0 1 10 136)" overflow="visible"/><use xlink:href="#d" width="7" height="12" x="-3.5" y="-6" transform="matrix(1 0 0 -1 90 14)" overflow="visible"/><use xlink:href="#d" width="7" height="12" x="-3.5" y="-6" transform="matrix(1 0 0 -1 10 14)" overflow="visible"/><use xlink:href="#e" width="73.7" height="64.2" x="-36.9" y="-.2" transform="matrix(-1 0 0 1 50 75)" overflow="visible"/><use xlink:href="#e" width="73.7" height="64.2" x="-36.9" y="-.2" transform="matrix(1 0 0 -1 50 75)" overflow="visible"/><use xlink:href="#f" width="82" height="132" x="-41" y="-66" transform="matrix(1 0 0 -1 50 75)" overflow="visible"/><use xlink:href="#a" width="15.4" height="15.4" x="-7.7" y="-7.7" transform="matrix(-1 0 0 1 81 78.5)" overflow="visible"/><use xlink:href="#a" width="15.4" height="15.4" x="-7.7" y="-7.7" transform="matrix(1 0 0 -1 19 71.5)" overflow="visible"/></g></g></svg>
