<svg xmlns="http://www.w3.org/2000/svg" xmlns:xlink="http://www.w3.org/1999/xlink" viewBox="0 0 100 150" enable-background="new 0 0 100 150"><symbol id="g" viewBox="-49 -74 98 148"><path fill="#fff" d="M-43-73.5c-3 0-5.5 2.5-5.5 5.5v136c0 3 2.5 5.5 5.5 5.5h86c3 0 5.5-2.5 5.5-5.5v-136c0-3-2.5-5.5-5.5-5.5h-86z"/><path fill="#878787" d="M43 73c2.8 0 5-2.2 5-5v-136c0-2.8-2.2-5-5-5h-86c-2.8 0-5 2.2-5 5v136c0 2.8 2.2 5 5 5h86m0 1h-86c-3.3 0-6-2.7-6-6v-136c0-3.3 2.7-6 6-6h86c3.3 0 6 2.7 6 6v136c0 3.3-2.7 6-6 6z"/></symbol><symbol id="o" viewBox="-29.6 -21.8 59.1 43.6"><defs><path id="a" d="M13.3 7.1c.2-1-.3-2.3-1.1-3l-10.7-8.2c-.8-.6-2.2-.6-3 0l-10.7 8.2c-.8.6-1.3 2-1.1 3l2.5 11.4c.4 1.7 1.8 2.3 3.3 1.2l7.5-5.8 7.6 5.8c1.4 1.1 2.9.6 3.3-1.2l2.4-11.4z"/></defs><clipPath><use xlink:href="#a" overflow="visible"/></clipPath><g fill="#26B8D9"><path d="M-.3-18.1c-.9 0-1.6.4-2 1.1-.6-.5-1.4-1.1-2.2-1.1-.6 0-1.1.2-1.3.6l-.1-.1c-.2-.2-.6-.4-1-.4-.8 0-1.4.5-1.7 1-.9-.7-1.8-1.1-2.5-1.1-1 0-1.7.4-2.1 1.1-.6-.5-1.4-1.1-2.2-1.1-.7 0-1.1.3-1.3.7-.5-.6-1.1-.9-1.7-.9-1.5 0-1.5 1.4-1.5 1.8 0 .5.2 1.3.5 2.1-.1.3-.1.6-.1.9 0 1.1 1.5 2.9 2.8 2.9.5 0 .8-.2 1-.4.2.3.6.5 1 .5 1 0 1.9-.7 1.9-1.6 0-.3-.1-.7-.3-1.3-.1-.3-.2-.6-.4-.9l-.2-.4.3.3c.4 2.1 2.1 4 3.6 4 1 0 1.6-.5 1.8-1.2.5 3.3 1.3 5 3 5 .9 0 1.4-.5 1.4-1.5 0-.7-.3-1.6-1.3-3.2.6.3 1.1.5 1.5.5.8 0 1.3-.5 1.3-1.3 0-.6-.2-1.1-.4-1.6l-.1-.2c-.1-.2-.2-.6-.3-.9l.3.3c.2 1.5.9 1.7 1.3 1.7.2 0 .3 0 .4-.1v.4c0 1.4 1.1 2.5 2.7 2.5 1.3 0 1.8-.8 1.8-1.5 0-.4-.2-.8-.4-1.1l-.2-.2-.3.1c-.2.1-.3.1-.5.1 0-.2.2-.5.3-.7.2-.6.5-1.2.5-1.9-.1-2-1.8-2.9-3.3-2.9zm-10.3 4.1v-.7c0-.6.1-.6.3-.6.5 0 1.4.6 2.1 1.6v.3c-.3-.6-.9-.9-1.5-.9-.4 0-.7.1-.9.3zm-6.1-.1c-.1-.3-.1-.5-.2-.6l.3.2.3 1.2c-.1-.2-.2-.5-.4-.8zM-5-7.1c.6 0 .9-.3.9-1 0-.6-.3-1.4-1.4-3.2l-.3-1.3c1 .9 1.9 1.4 2.4 1.4s.8-.3.8-.8c0-.4-.1-.9-.3-1.4-.2-.6-.7-1.7-.7-2.1 0-.2.1-.2.2-.2.2 0 .7.3 1.3 1 .1.7.4 1.5.9 1.5s.9-.6.9-1c0-.3-.1-.5-.4-.8.1-.6.6-1 .9-1 .1 0 .3.1.3.3 0 .7-.8 2.4-.8 3.3 0 1.2.9 2 2.2 2 .8 0 1.3-.3 1.3-1 0-.3-.1-.6-.3-.8-.3.1-.5.2-.7.2-.3 0-.4-.1-.4-.3 0-.6.8-1.8.8-2.8 0-1.7-1.4-2.3-2.7-2.3-.9 0-1.6.5-1.9 1.4-.8-.8-1.7-1.4-2.4-1.4-.8 0-1.1.4-1.1 1.1 0 .9.7 2.5.7 2.8 0 .1 0 .2-.2.2s-.6-.2-.9-.5c-.1-1-.2-2-.2-3.3-.1-.1-.4-.2-.6-.2-.8 0-1.4.7-1.4 1.4-.8-.8-1.9-1.5-2.8-1.5-1.1 0-1.7.5-1.9 1.5l-.4-.4c-.7-.6-1.4-1-2-1-.6 0-.9.2-.9.9 0 .2 0 .4.1.7-.7-1.3-1.5-1.9-2.1-1.9-.8 0-1 .5-1 1.3 0 .4.2 1.2.6 2.1-.2.3-.2.6-.2.9 0 .9 1.3 2.4 2.3 2.4.4 0 .7-.1.7-.6 0-.4-.4-1.3-1.1-2.4-.1-.5-.2-.9-.2-1.1 0-.2.1-.4.3-.4.2 0 .7.3 1 .6.5 1.5.7 2.5.7 3.7.1.2.4.3.6.3.8 0 1.4-.6 1.4-1.1 0-.3-.1-.5-.3-1.1-.3-.8-.9-2.1-.9-2.4 0-.2.1-.2.2-.2.3 0 .7.4 1.4 1.1.3 1.9 1.8 3.7 3.2 3.7.9 0 1.4-.5 1.4-1.4 0-.9-.6-1.6-1.3-1.6-.3 0-.5.1-.6.3.1.4.1.7.1.9 0 .2-.1.3-.2.3-.3 0-.8-.9-.8-2.3 0-.8.2-1.1.8-1.1.8 0 1.8.8 2.6 1.9.1 4.7.7 6.7 2.4 6.7m0 1c-2 0-2.8-1.7-3.3-4.2-.5.3-1 .5-1.6.5-1 0-1.9-.6-2.7-1.4-.3.8-1.2 1.4-2.2 1.4-.4 0-.7-.1-1-.3-.2.1-.6.2-.9.2-1.6 0-3.3-2-3.3-3.4 0-.2 0-.5.1-.9-.3-.8-.5-1.6-.5-2.1 0-2 1.3-2.3 2-2.3.6 0 1.1.2 1.7.7.3-.3.8-.4 1.3-.4.8 0 1.5.4 2.1.8.5-.6 1.3-.9 2.2-.9.9 0 1.8.4 2.4.9.4-.5 1.1-.8 1.8-.8.4 0 .7.1 1 .2.3-.3.8-.4 1.4-.4.7 0 1.5.4 2.1.9.5-.6 1.3-.9 2.1-.9 1.8 0 3.7 1 3.7 3.3 0 .6-.2 1.3-.4 1.8l.5.4c.4.4.6.9.6 1.5 0 .9-.6 2-2.3 2-1.8 0-3.1-1.2-3.2-2.8h-.2v.3c0 1.1-.7 1.8-1.8 1.8h-.3c.5.9.7 1.6.7 2.2-.1 1.1-.8 1.9-2 1.9zM18.9-21.3c-1.2 0-1.9.6-1.9 1.7 0 .5.1.9.5 2.2-.7-.4-1.4-.6-2-.6-1.1 0-1.8.4-2.2 1.3-.7-.7-1.8-1.4-2.6-1.4-1.1 0-1.8.6-1.8 1.7 0 .3.1.6.2 1-.7-1.1-2.3-2.6-3.7-2.6-1.4 0-2.3.9-2.3 2.3 0 .5.2 1.4.5 2.7-.2.1-.4.3-.4.7 0 .5.3 1.1.9 1.3 0 .2 0 .4.1.7.2 1.5 1.1 2.6 2.3 2.6 1.2-.1 1.5-.9 1.5-1.5 0-.4-.1-.8-.6-1.7h.3l.2.1.2-.1c.2-.1.3-.4.4-.6.5 1 1.7 1.9 2.5 1.9s1.3-.5 1.3-1.1c0-.2 0-.3-.1-.4l-.1-.2s-.3-.1-.3-.2c.6-.2 1.2-.5 1.2-1.2 0-.4-.2-.8-.4-1.3s-.4-.8-.5-1c.3.2.7.7 1.1 1.3.5 1.9 2.1 3.5 3.4 3.5 1.2 0 1.9-.6 2-1.7.1.2.3.4.4.5.6 4.2 1.2 5.6 2.6 5.6 1.2 0 2.6-1 2.8-2.4.2.7.5 1 1.1 1 1 0 2.4-1 2.4-2.1 0-.4-.2-.9-.6-1.4h.8999999999999999l.2-.1c.3-.2.5-.6.5-1 0-.7-.5-1.3-1.1-1.4.2-.4.3-.9.3-1.4 0-2.8-2-5.3-4.2-5.3-1 0-1.6.6-1.6 1.7v.1c-.6-1.8-2-3.2-3.4-3.2zm-2.8 6.1h.1c.7 0 1.7.6 2.5 1.7v.2c-.1.1-.2.2-.2.3-.2-1.1-1.1-1.8-2.4-2.2zm-9.5 1.9c-.3-1.2-.4-1.8-.4-1.9.4.1 1 .5 1.8 1.5.1.2.2.3.3.6l-.1.3c-.2-.3-.6-.5-1-.5h-.6zm16.2-.1c.3-.4.4-.9.5-1.5.2.6.3 1.2.4 1.7-.3 0-.6-.1-.9-.2zm1.4 3l-.3-.4c.1 0 .2.1.2.1 0 .1 0 .2.1.3zM21.7-6.4c1.1 0 2.4-1 2.4-2.4 0-.9-.6-1.9-1.6-2.9.8.1 1.6.4 2 .6.4 2.8.5 3.2 1.1 3.2.8 0 1.9-.9 1.9-1.6 0-.5-.4-1.1-1.4-1.9.4 0 1.9.1 2.1.1.2-.1.3-.4.3-.6 0-.5-.3-.9-.8-.9h-.9c.5-.3.9-1 .9-2 0-2.5-1.8-4.8-3.7-4.8-.8 0-1.1.4-1.1 1.2 0 .4.2 1.3.6 2.9.4 1.2.6 2.2.7 3.1-.6-.3-1.6-.5-2.6-.6.5-.3 1.1-1.2 1.1-2.1 0-2.5-2-5.7-3.9-5.7-.9 0-1.4.4-1.4 1.2 0 .5.1.9.9 3.2l.1.3c-.8-.7-1.9-1.4-2.9-1.4-1.2 0-1.8.6-2 1.8-.8-.9-2-1.9-2.8-1.9-.9 0-1.3.4-1.3 1.2 0 .9.7 2.1.7 2.5 0 .2-.2.2-.5.4-.3-.6-.6-1-.8-1.4-.6-1.1-2.2-2.6-3.5-2.6-1.1 0-1.8.6-1.8 1.8 0 .4.1 1.3.7 3-.3 0-.5.1-.5.4 0 .4.3.8.9.8 0 .3 0 .5.1 1 .1 1.2.9 2.1 1.8 2.1.6 0 .9-.2.9-.8 0-.4-.2-.8-.9-2.2.4 0 1 .1 1.2.1.2-.1.3-.4.3-.6 0-.5-.3-.9-.8-.9-.3 0-.6 0-1 .1-.4-1.5-.5-2.3-.5-2.5 0-.3.1-.5.4-.5.5 0 1.4.6 2.3 1.8.2.3.4.6.5.9-.1.1-.2.3-.2.6 0 1 1.5 2.4 2.2 2.4.5 0 .8-.2.8-.6v-.3c-.3-.2-.6-.4-.8-.7.2-.1.4-.2.7-.3.8-.2 1-.4 1-.8 0-.3-.2-.6-.4-1.1-.3-.6-.6-1.3-.6-1.7 0-.2.1-.3.2-.3.4 0 1.3.8 2 1.8.4 1.7 1.8 3.2 2.9 3.2 1 0 1.5-.5 1.5-1.4 0-1.2-.7-2.1-2.6-2.5 0-.6.1-1 .7-1 .9 0 2.2.8 2.9 2 .1.3.1.5.2.7-.3 0-.4.1-.4.3 0 .4.3.8.6.8.6 4.6 1.2 5.5 2.1 5.5m-.3-5.1c1 1 1.5 1.9 1.5 2.4s-.3.8-.7 1c-.2-.5-.7-2.7-.8-3.4m-5.8-2.2c.8.1.9.6.9 1 0 .3-.1.5-.3.5-.1-.1-.5-.6-.6-1.5m9.5-4.2c.5 0 1.2 1.4 1.2 2.9 0 .7-.2 1.1-.4 1.4-.3-1.6-.7-3.1-1-4v-.1c.1-.2.1-.2.2-.2m-5.3-1.1c.5 0 1.6 2.1 1.6 3.6 0 .7-.2 1.1-.4 1.4-.3-1.9-1-3.9-1.3-4.7v-.1c-.1-.1 0-.2.1-.2m1.9 13.6c-1.8 0-2.5-1.9-3-5.3-.4.6-1.1.9-2 .9-1.3 0-2.5-1.1-3.2-2.4-.1.4-.5.7-.8.9.1.2.1.4.1.6 0 .9-.8 1.6-1.8 1.6-.9 0-1.8-.7-2.4-1.5l-.1.1-.2.1c.2.5.3.8.3 1.2 0 1.1-.7 1.8-1.9 1.8-1.5 0-2.6-1.3-2.8-3v-.4c-.6-.3-.9-.9-.9-1.6 0-.2 0-.6.3-.9-.3-1.2-.5-2-.5-2.5 0-1.8 1.1-2.8 2.8-2.8 1.1 0 2.3.7 3.1 1.6.2-1 1-1.6 2.3-1.6.9 0 1.8.6 2.5 1.2.5-.7 1.3-1 2.3-1 .4 0 .8.1 1.2.2-.2-.7-.2-1-.2-1.4 0-1.4.9-2.2 2.4-2.2 1.1 0 2.4.9 3.4 2.2.4-.6 1-.9 1.8-.9 2.4 0 4.7 2.8 4.7 5.8 0 .4-.1.8-.2 1.1.6.3.9 1 .9 1.7 0 .5-.3 1.1-.7 1.4l-.4.3h-.1c.1.2.1.5.1.8 0 1.4-1.6 2.6-2.9 2.6-.4 0-.8-.1-1-.3-.7 1-1.9 1.7-3.1 1.7zm-14.8-8.8c0 .1 0 .2.1.4h.2c-.1-.2-.2-.3-.3-.4zM-25.1-18.5c-.8 0-1.5.3-2 .9-.3.4-.4 1-.3 1.6.1.5.4 1 .8 1.2l.3.2.3-.3c.2-.3.4-.4.6-.4h.2c.2 0 .2.1.2.1.2.3.2.6.3.9l.3 1.3c-.4.3-.6.7-.6 1.1 0 .4.2.8.6 1.1.1.1.3.1.4.1.2.5.4 1 .8 1.4-1.2.3-2.3.5-2.8.5s-.6-.2-.6-.5.1-.7 1-1.2l.2-.1v-.3c0-.7-.5-1.4-1.6-1.4-1.2 0-2.2 1.3-2.2 2.8 0 1.7 1.1 3.5 3.5 3.5.7 0 1.2 0 2.3-.2 3.6-.6 4.6-.7 5.8-.7h.2l.1-.1c.2-.2.3-.7.3-.9 0-1.1-1-2-2.4-2-.4 0-.9 0-1.5.2-.1-.3-.2-.6-.2-1 .4 0 .6 0 1 .2l.3.1.2-.2c.3-.2.4-.6.4-.9 0-1.2-.6-1.9-1.8-1.9-.2 0-.4 0-.6.1 0-.2-.3-1.1-.3-1.2-.1-.6-.2-1-.4-1.5-.3-1.7-1.4-2.5-2.8-2.5zM-25.5-6.8c.7 0 1.1 0 2.2-.2 3.5-.6 4.6-.7 5.9-.7.1-.1.2-.4.2-.5 0-.9-.9-1.5-1.9-1.5-.5 0-1.2.1-1.8.3-.2-.6-.3-1.2-.5-2.1l.6-.1h.1c.4 0 .6.1 1.1.2.1-.1.3-.3.3-.5 0-1.1-.6-1.4-1.3-1.4h-.1c-.4 0-.9.1-.9.1l-.4-1.7c-.1-.5-.2-1-.4-1.4-.5-1.3-1.6-1.7-2.6-1.7-.5 0-1.1.1-1.6.7s-.3 1.7.4 2.1c.3-.3.5-.5.9-.6h.3c.3 0 .5.1.7.4.2.5.3.8.4 1.2.2.9.3 1.5.3 1.5-.5.2-.6.5-.6.8 0 .2.1.5.4.6.1.1.4.1.6.1.2.9.8 1.9 1.6 2-1.5.5-3.2.8-4 .8-.8 0-1.1-.4-1.1-1s.3-1.1 1.3-1.7c0-.5-.4-.9-1.1-.9-.9 0-1.7 1-1.7 2.3-.4 1.5.7 2.9 2.7 2.9m0 1c-2.7 0-4-2-4-4 0-1.8 1.3-3.3 2.7-3.3.6 0 1.2.2 1.5.5.1-.3.2-.5.4-.7l-.2-.8v-.2c0-.2-.1-.4-.2-.6-.1 0-.2.1-.3.2l-.5.6-.7-.4c-.5-.3-.9-.9-1.1-1.5-.2-.7 0-1.5.4-2s1.1-1.1 2.3-1.1c1.6 0 2.9.9 3.5 2.4.2.5.3 1 .5 1.6 0 .1.1.3.1.6 0 .1 0 .1.1.2h.2c1.4 0 2.3.9 2.3 2.4 0 .4-.2.9-.5 1.2 1.5.1 2.6 1.1 2.6 2.5 0 .1 0 .8-.5 1.2l-.1.3h-.4c-1.2 0-2.2.1-5.8.7-1.1.2-1.6.2-2.3.2zm-.5-3.6h.1c.4 0 1.1-.1 2-.3l-.3-.6-.3-.1-.2-.1-.5.3c-.4.2-.8.5-.8.8z"/></g><g fill="#E31648"><path d="M1.8-10.5c-1.3 0-2.2-.8-2.2-2 0-.9.8-2.6.8-3.3 0-.2-.2-.3-.3-.3-.3 0-.8.4-.9 1 .2.3.4.5.4.8 0 .3-.4 1-.9 1s-.8-.7-.9-1.5c-.6-.7-1.1-1-1.3-1-.1 0-.2.1-.2.2 0 .3.5 1.5.7 2.1.2.5.3 1 .3 1.4 0 .5-.3.8-.8.8s-1.4-.4-2.4-1.4l.3 1.3c1.1 1.8 1.4 2.6 1.4 3.2 0 .7-.3 1-.9 1-1.7 0-2.3-2-2.8-6.7-.8-1.1-1.8-1.9-2.6-1.9-.5 0-.8.3-.8 1.1 0 1.4.5 2.3.8 2.3.1 0 .2-.1.2-.3 0-.2 0-.5-.1-.9.1-.2.3-.3.6-.3.7 0 1.3.7 1.3 1.6 0 .9-.5 1.4-1.4 1.4-1.4 0-2.9-1.8-3.2-3.7-.6-.8-1.1-1.1-1.4-1.1-.1 0-.2 0-.2.2 0 .3.6 1.6.9 2.4.2.6.3.8.3 1.1 0 .6-.6 1.1-1.4 1.1-.2 0-.4-.1-.6-.3-.1-1.2-.3-2.2-.7-3.7-.3-.3-.7-.6-1-.6-.2 0-.3.1-.3.4 0 .2.1.6.2 1.1.7 1.2 1.1 2 1.1 2.4 0 .4-.2.6-.7.6-1 0-2.3-1.6-2.3-2.4 0-.3 0-.6.2-.9-.4-.9-.6-1.7-.6-2.1 0-.8.2-1.3 1-1.3.6 0 1.5.6 2.1 1.9-.1-.3-.1-.5-.1-.7 0-.7.3-.9.9-.9.6 0 1.3.4 2 1 .2.1.3.3.4.4.2-1 .8-1.5 1.9-1.5.9 0 2 .7 2.8 1.5 0-.7.6-1.4 1.4-1.4.3 0 .5.1.6.2 0 1.3.1 2.3.2 3.3.4.3.7.5.9.5.2 0 .2-.1.2-.2 0-.3-.7-1.9-.7-2.8 0-.8.3-1.1 1.1-1.1.7 0 1.6.7 2.4 1.4.2-.9 1-1.4 1.9-1.4 1.3 0 2.7.7 2.7 2.3 0 1-.8 2.2-.8 2.8 0 .3.2.3.4.3s.5-.1.7-.2c.2.2.3.5.3.8.4.6-.1 1-.9 1zM28.6-11.9c0 .2-.1.5-.3.6-.2 0-1.7-.1-2.1-.1.9.8 1.4 1.4 1.4 1.9 0 .7-1.1 1.6-1.9 1.6-.6 0-.7-.3-1.1-3.2-.4-.3-1.3-.5-2-.6.9 1 1.6 1.9 1.6 2.9 0 1.4-1.3 2.4-2.4 2.4-.9 0-1.6-.9-2.2-5.4-.3 0-.6-.4-.6-.8 0-.2.1-.3.4-.3 0-.2-.1-.4-.2-.7-.8-1.2-2-2-2.9-2-.5 0-.7.3-.7 1 1.9.4 2.6 1.3 2.6 2.5 0 1-.5 1.4-1.5 1.4-1.1 0-2.5-1.5-2.9-3.2-.7-1.1-1.6-1.8-2-1.8-.2 0-.2.1-.2.3 0 .3.3 1 .6 1.7.2.4.4.8.4 1.1 0 .3-.2.5-1 .8l-.7.3c.2.3.5.5.8.7v.3c0 .4-.3.6-.8.6-.8 0-2.2-1.4-2.2-2.4 0-.3.1-.4.2-.6-.2-.4-.3-.6-.5-.9-.9-1.2-1.8-1.8-2.3-1.8-.3 0-.4.2-.4.5 0 .2.1 1 .5 2.5.4-.1.7-.1 1-.1.5 0 .8.4.8.9 0 .2-.1.5-.3.6-.2 0-.8-.1-1.2-.1.7 1.5.9 1.8.9 2.2 0 .6-.3.8-.9.8-.9 0-1.7-.9-1.8-2.1-.1-.5-.1-.7-.1-1-.6 0-.9-.4-.9-.8 0-.3.2-.3.5-.4-.5-1.8-.7-2.6-.7-3 0-1.3.7-1.8 1.8-1.8 1.3 0 2.9 1.5 3.5 2.6.3.4.5.8.8 1.4.3-.1.5-.2.5-.4 0-.4-.7-1.5-.7-2.5 0-.8.5-1.2 1.3-1.2s2 1 2.8 1.9c.2-1.1.8-1.8 2-1.8 1 0 2.1.6 2.9 1.4l-.1-.3c-.8-2.3-.9-2.7-.9-3.2 0-.8.4-1.2 1.4-1.2 1.8 0 3.9 3.2 3.9 5.7 0 1-.5 1.8-1.1 2.1 1 .1 2 .3 2.6.6-.1-.9-.3-1.8-.7-3.1-.3-1.7-.5-2.6-.5-2.9 0-.8.4-1.2 1.1-1.2 1.8 0 3.7 2.3 3.7 4.8 0 1-.4 1.7-.9 2h.9c.4-.1.8.3.8.8zm-12.3-.4c.2 0 .3-.2.3-.5 0-.4-.2-.8-.9-1 0 1 .4 1.5.6 1.5zm3.5-6.7c-.1 0-.2 0-.2.1v.1c.3.7 1 2.7 1.3 4.7.2-.2.4-.7.4-1.4.1-1.4-1-3.5-1.5-3.5zm1.6 7.5c.1.8.6 2.9.8 3.3.4-.2.7-.5.7-1s-.6-1.4-1.5-2.3zm3.7-6.4c-.1 0-.2 0-.2.1v.1c.3.9.7 2.4 1 4 .3-.2.4-.7.4-1.4.1-1.4-.6-2.8-1.2-2.8zM-19.1-9.7c1 0 1.9.6 1.9 1.5 0 .2-.1.4-.2.5-1.4 0-2.4.1-5.9.7-1.1.2-1.5.2-2.2.2-2 0-3-1.5-3-3 0-1.3.9-2.3 1.7-2.3.8 0 1.1.4 1.1.9-1 .6-1.3 1.1-1.3 1.7 0 .7.3 1 1.1 1s2.5-.3 4-.8c-.7-.1-1.3-1.1-1.6-2-.2 0-.5 0-.6-.1-.3-.1-.4-.4-.4-.6 0-.3.2-.6.6-.8 0 0-.1-.6-.3-1.5-.1-.4-.1-.7-.4-1.2-.2-.4-.6-.4-1-.3-.4.1-.6.3-.9.6-.7-.4-.8-1.5-.4-2.1.4-.6 1-.7 1.6-.7 1 0 2.1.5 2.6 1.7.2.5.3.9.4 1.4 0 .2.3 1.4.4 1.7 0 0 .6-.1.9-.1.8 0 1.4.3 1.4 1.4 0 .2-.1.4-.3.5-.5-.2-.8-.2-1.2-.2-.2 0-.4 0-.6.1.2.9.3 1.4.5 2.1.9-.2 1.6-.3 2.1-.3z"/></g><g opacity=".3" fill="#E31648"><path d="M1.8-10.5c-1.3 0-2.2-.8-2.2-2 0-.9.8-2.6.8-3.3 0-.2-.2-.3-.3-.3-.3 0-.8.4-.9 1 .2.3.4.5.4.8 0 .3-.4 1-.9 1s-.8-.7-.9-1.5c-.6-.7-1.1-1-1.3-1-.1 0-.2.1-.2.2 0 .3.5 1.5.7 2.1.2.5.3 1 .3 1.4 0 .5-.3.8-.8.8s-1.4-.4-2.4-1.4l.3 1.3c1.1 1.8 1.4 2.6 1.4 3.2 0 .7-.3 1-.9 1-1.7 0-2.3-2-2.8-6.7-.8-1.1-1.8-1.9-2.6-1.9-.5 0-.8.3-.8 1.1 0 1.4.5 2.3.8 2.3.1 0 .2-.1.2-.3 0-.2 0-.5-.1-.9.1-.2.3-.3.6-.3.7 0 1.3.7 1.3 1.6 0 .9-.5 1.4-1.4 1.4-1.4 0-2.9-1.8-3.2-3.7-.6-.8-1.1-1.1-1.4-1.1-.1 0-.2 0-.2.2 0 .3.6 1.6.9 2.4.2.6.3.8.3 1.1 0 .6-.6 1.1-1.4 1.1-.2 0-.4-.1-.6-.3-.1-1.2-.3-2.2-.7-3.7-.3-.3-.7-.6-1-.6-.2 0-.3.1-.3.4 0 .2.1.6.2 1.1.7 1.2 1.1 2 1.1 2.4 0 .4-.2.6-.7.6-1 0-2.3-1.6-2.3-2.4 0-.3 0-.6.2-.9-.4-.9-.6-1.7-.6-2.1 0-.8.2-1.3 1-1.3.6 0 1.5.6 2.1 1.9-.1-.3-.1-.5-.1-.7 0-.7.3-.9.9-.9.6 0 1.3.4 2 1 .2.1.3.3.4.4.2-1 .8-1.5 1.9-1.5.9 0 2 .7 2.8 1.5 0-.7.6-1.4 1.4-1.4.3 0 .5.1.6.2 0 1.3.1 2.3.2 3.3.4.3 1.1.7 1.1.2 0-.3-.7-1.9-.7-2.8 0-.8.3-1.1 1.1-1.1.7 0 1.6.7 2.4 1.4.2-.9 1-1.4 1.9-1.4 1.3 0 2.7.7 2.7 2.3 0 1-.8 2.2-.8 2.8 0 .3.2.3.4.3s.5-.1.7-.2c.2.2.3.5.3.8.4.7-.1 1.1-.9 1.1zM28.6-11.9c0 .2-.1.5-.3.6-.2 0-1.7-.1-2.1-.1.9.8 1.4 1.4 1.4 1.9 0 .7-1.1 1.6-1.9 1.6-.6 0-.7-.3-1.1-3.2-.4-.3-1.3-.5-2-.6.9 1 1.6 1.9 1.6 2.9 0 1.4-1.3 2.4-2.4 2.4-.9 0-1.6-.9-2.2-5.4-.3 0-.6-.4-.6-.8 0-.2.1-.3.4-.3 0-.2-.1-.4-.2-.7-.8-1.2-2-2-2.9-2-.5 0-.7.3-.7 1 1.9.4 2.6 1.3 2.6 2.5 0 1-.5 1.4-1.5 1.4-1.1 0-2.5-1.5-2.9-3.2-.7-1.1-1.6-1.8-2-1.8-.2 0-.2.1-.2.3 0 .3.3 1 .6 1.7.2.4.4.8.4 1.1 0 .3-.2.5-1 .8l-.7.3c.2.3.5.5.8.7v.3c0 .4-.3.6-.8.6-.8 0-2.2-1.4-2.2-2.4 0-.3.1-.4.2-.6-.2-.4-.3-.6-.5-.9-.9-1.2-1.8-1.8-2.3-1.8-.3 0-.4.2-.4.5 0 .2.1 1 .5 2.5.4-.1.7-.1 1-.1.5 0 .8.4.8.9 0 .2-.1.5-.3.6-.2 0-.8-.1-1.2-.1.7 1.5.9 1.8.9 2.2 0 .6-.3.8-.9.8-.9 0-1.7-.9-1.8-2.1-.1-.5-.1-.7-.1-1-.6 0-.9-.4-.9-.8 0-.3.2-.3.5-.4-.5-1.8-.7-2.6-.7-3 0-1.3.7-1.8 1.8-1.8 1.3 0 2.9 1.5 3.5 2.6.3.4.5.8.8 1.4.3-.1.5-.2.5-.4 0-.4-.7-1.5-.7-2.5 0-.8.5-1.2 1.3-1.2s2 1 2.8 1.9c.2-1.1.8-1.8 2-1.8 1 0 2.1.6 2.9 1.4l-.1-.3c-.8-2.3-.9-2.7-.9-3.2 0-.8.4-1.2 1.4-1.2 1.8 0 3.9 3.2 3.9 5.7 0 1-.5 1.8-1.1 2.1 1 .1 2 .3 2.6.6-.2-1.3-1.3-5.4-1.3-5.9 0-.8.4-1.2 1.1-1.2 1.8 0 3.7 2.3 3.7 4.8 0 1-.4 1.7-.9 2h.9c.5-.2.9.2.9.7zm-12.3-.4c.2 0 .3-.2.3-.5 0-.4-.2-.8-.9-1 0 1 .4 1.5.6 1.5zm3.5-6.7c-.1 0-.2 0-.2.1v.1c.3.7 1 2.7 1.3 4.7.2-.2.4-.7.4-1.4.1-1.4-1-3.5-1.5-3.5zm1.6 7.5c.1.8.6 2.9.8 3.3.4-.2.7-.5.7-1s-.6-1.4-1.5-2.3zm3.7-6.4c-.2 0-.2.1-.1.3.3.9.7 2.4 1 4 .3-.2.4-.7.4-1.4 0-1.5-.7-2.9-1.3-2.9zM-19.1-9.7c1 0 1.9.6 1.9 1.5 0 .2-.1.4-.2.5-1.4 0-2.4.1-5.9.7-1.1.2-1.5.2-2.2.2-2 0-3-1.5-3-3 0-1.3.9-2.3 1.7-2.3.8 0 1.1.4 1.1.9-1 .6-1.3 1.1-1.3 1.7 0 .7.3 1 1.1 1s2.5-.3 4-.8c-.7-.1-1.3-1.1-1.6-2-.2 0-.5 0-.6-.1-.3-.1-.4-.4-.4-.6 0-.3.2-.6.6-.8 0 0-.1-.6-.3-1.5-.1-.4-.1-.7-.4-1.2-.2-.4-.6-.4-1-.3-.4.1-.6.3-.9.6-.7-.4-.8-1.5-.4-2.1.4-.6 1-.7 1.6-.7 1 0 2.1.5 2.6 1.7.2.5.3.9.4 1.4 0 .2.3 1.4.4 1.7 0 0 .6-.1.9-.1.8 0 1.4.3 1.4 1.4 0 .2-.1.4-.3.5-.5-.2-.8-.2-1.2-.2-.2 0-.4 0-.6.1.2.9.3 1.4.5 2.1.9-.2 1.6-.3 2.1-.3z"/></g><g fill="#26B8D9"><path d="M-3.1-3.9l-9.6 7.4c-1.2 1-1.6 2.5-1.4 3.7l2.5 11.5c.3 1.4 1.3 2.3 2.5 2.3.6 0 1.3-.2 1.9-.7l7.2-5.4 7.1 5.4c.6.5 1.3.7 1.9.7 1.2 0 2.2-.9 2.5-2.3l2.5-11.4c.3-1.3-.4-3-1.4-3.7l-9.5-7.5-.3-.2-2.8-2.2-3.1 2.4zM9 20.3c.8 0 1.6-.6 1.8-1.8l2.5-11.4c.2-1-.4-2.4-1.1-3l-9.8-7.6-2.4-1.8-2.3 1.8-9.9 7.6c-1 .8-1.2 2.1-1.1 3l2.5 11.4c.2 1.1.9 1.8 1.8 1.8.5 0 1-.2 1.5-.6l7.5-5.8 3.4 2.6.1.1 4.1 3.1c.5.4 1 .6 1.4.6m0 1.5c-.8 0-1.6-.3-2.4-.9l-4.1-3.1-.1-.1-2.4-1.9-6.7 5.1c-.7.6-1.6.9-2.4.9-1.6 0-2.9-1.2-3.3-2.9l-2.5-11.4v-.2c-.1-1.3.3-3.2 1.7-4.4l9.4-7.2.6-.4 2.3-1.8.9-.7.9.7 2.4 1.8.5.4 9.3 7.2c1.2.9 2 2.9 1.7 4.5l-2.5 11.5c-.4 1.7-1.7 2.9-3.3 2.9z"/></g><defs><path id="b" d="M13.3 7.1c.2-1-.3-2.3-1.1-3l-10.7-8.2c-.8-.6-2.2-.6-3 0l-10.7 8.2c-.8.6-1.3 2-1.1 3l2.5 11.4c.4 1.7 1.8 2.3 3.3 1.2l7.5-5.8 7.6 5.8c1.4 1.1 2.9.6 3.3-1.2l2.4-11.4z"/></defs><clipPath id="c"><use xlink:href="#b" overflow="visible"/></clipPath><g clip-path="url(#c)"><path fill="#E31648" d="M13.3 7.1l-2.5 11.4c-.4 1.7-1.8 2.3-3.3 1.2l-4.1-3.1-3.4-2.7v.1l-7.5 5.7c-1.4 1.1-2.9.6-3.3-1.2l-1.1-4.8-1.5-6.9c-.1-.9.4-2.1 1.1-2.7l2.4-1.9 8.4-6.4c.4-.3 1-.5 1.5-.5l.2.3c.2-.1.5-.1.8 0l.6.3 10.7 8.3c.8.6 1.3 1.9 1 2.9z"/><g fill="#FCFCF1"><path d="M9.3 4.7c-2.4-.7-4.2-1.7-5.5-3-2.5-2.2-3.4-5-3.7-6.3.5 0 1 .2 1.4.5l10.7 8.3c.4.3.6.7.8 1.1-1.3-.1-2.6-.3-3.7-.6zM-9.4 4.8c-1.1.3-2.3.5-3.7.5.2-.4.5-.8.8-1.1l1.9-1.5.3-.2 8.5-6.6c.4-.3.8-.4 1.3-.5-.4 1.3-1.5 4-3.8 6.2-1.2 1.4-3 2.5-5.3 3.2z"/></g></g><g opacity=".35" clip-path="url(#c)"><radialGradient id="d" cx="11.201" cy="7.909" r="10.169" gradientTransform="matrix(-.999 -.033 .069 -2.068 21.85 24.642)" gradientUnits="userSpaceOnUse"><stop offset=".413" stop-opacity="0"/><stop offset="1"/></radialGradient><path opacity=".71" fill="url(#d)" d="M13.3 7.1l-2.5 11.4c-.4 1.7-1.8 2.3-3.3 1.2l-4.1-3.1-3.4-2.7 2.6-2c.5-.4.9-1.3.7-2l-3-14c0-.1 0-.2-.1-.2.2-.2.5-.2.8-.1l.6.3 10.7 8.3c.8.6 1.3 1.9 1 2.9z"/><radialGradient id="e" cx="-.641" cy="9.486" r="11.284" gradientTransform="matrix(-.979 -.206 .464 -2.205 -5.673 30.274)" gradientUnits="userSpaceOnUse"><stop offset=".55" stop-opacity="0"/><stop offset="1"/></radialGradient><path opacity=".5" fill="url(#e)" d="M2.6 11.9l-2.6 2v.1l-7.5 5.7c-1.4 1.1-2.9.6-3.3-1.2l-1.1-4.8-1.5-6.9c-.1-.9.4-2.1 1.1-2.7l2.4-1.9 8.4-6.4c.4-.3 1-.5 1.5-.5l.2.3c0 .1.1.2.1.2l3 14.2c.2.6-.1 1.5-.7 1.9z"/></g><g opacity=".5" clip-path="url(#c)" fill="#fff"><path d="M9.3 4.7c-2.4-.7-4.2-1.7-5.5-3-2.5-2.2-3.4-5-3.7-6.3.5 0 1 .2 1.4.5l10.7 8.3c.4.3.6.7.8 1.1-1.3-.1-2.6-.3-3.7-.6zM-9.4 4.8c-1.1.3-2.3.5-3.7.5.2-.4.5-.8.8-1.1l1.9-1.5.3-.2 8.5-6.6c.4-.3.8-.4 1.3-.5-.4 1.3-1.5 4-3.8 6.2-1.2 1.4-3 2.5-5.3 3.2z"/></g><g clip-path="url(#c)"><path d="M6.9 5.4c-2.1-.4-2.6-.6-3.3-1-.3.2-.3.8-.2 1.3.3 1.2 1 1.9 2.4 2.1.6.1 2.1.1 2.7 0 .1-.2.1-.5 0-.9-.2-.8-.7-1.3-1.6-1.5zM-8.5 7c-.1.3-.1.7 0 .9.6.1 2.1.1 2.7 0 1.4-.1 2.1-.9 2.4-2.1.1-.6.1-1.1-.2-1.3-.7.3-1.2.5-3.3.9-.9.2-1.4.7-1.6 1.6zM0-1.1c-2.4 0-2.3-2.4-2.3-2.4l2.3-1.8 2.4 1.8s.1 2.4-2.4 2.4z"/></g><defs><path id="f" d="M13.3 7.1c.2-1-.3-2.3-1.1-3l-10.7-8.2c-.8-.6-2.2-.6-3 0l-10.7 8.2c-.8.6-1.3 2-1.1 3l2.5 11.4c.4 1.7 1.8 2.3 3.3 1.2l7.5-5.8 7.6 5.8c1.4 1.1 2.9.6 3.3-1.2l2.4-11.4z"/></defs><clipPath><use xlink:href="#f" overflow="visible"/></clipPath></symbol><symbol id="h" viewBox="-34.4 -55.9 68.8 111.8"><g><path fill="#26B8D9" d="M18.6 45.2c1.6.4 3.3-12 3.2-13.2 0-2.5-.4-5-1.2-7.4-.3-.9-2.3-6-3.5-5.2-.8.5 1.9 4 2.3 4.9 1 2.3 1.5 4.7 1.6 7.2.1 2.5-.2 5.1-.7 7.5-.2.8-2.1 6.1-1.7 6.2zM14.9 30.2c-.3-.1 4.9-6.3 5.3-6.9.7-.9 4.5-8.1 2.7-8.4-1.1-.2-1 2.1-1.1 2.8-.5 1.8-1.2 3.5-2.2 5-.4.7-5.8 7.2-4.7 7.5zM4 44.9c-.3 0 3-9.3 3.6-10.3.7-1.3 6.6-10.1 5.5-10.6-.9-.4-5.4 8.5-6.1 9.8-.5 1-4.6 11-3 11.1zM-7.1 44.6c-.4-.2 5.4-12.2 6.1-13.3 1.4-2.1 2.9-4.1 4.6-6 .8-.8 5.6-4.7 4.9-5.5-1.3-1.5-9.3 9.6-10.2 11-.6 1.2-6.6 13.4-5.4 13.8zM-6.2 22.1c-2.1 2-3.6 4.6-4.7 7.3-.3.6-2.3 7-2.8 6.8-.9-.3 3.6-10.1 4.1-11 1.2-1.9 8.1-10.1 10.2-7.5-2.5 1-4.9 2.4-6.8 4.4-3.8 3.6 1.9-2 0 0zM-10.5 20.6c-.5-.4 8.7-8 9.8-8.6 2-1.1 4.2-2 6.5-2.5 1.3-.4 2.8-.6 4.2-.8 1.5-.2 1-1.3.7-1.3-4.7.8-9.4 2.1-13.3 4.8-.9.6-8.8 7.7-7.9 8.4zM-23.8 31.9s5.6-4.8 6.3-5.2c1.2-.8 2.6-1.4 3.9-2 .8-.3 3.6-.5 3.4-1.6-.7-3-14.8 7.8-13.6 8.8zM-27.7 49.1c.1.1 4.2-3 4.8-3.3 1-.6 5.3-1.9 5-2.8-.6-2.2-10.3 5.6-9.8 6.1zM-11.7 8.5c0 1.1 19.9-1.8 19-4.1-.4-.9-7.7 2.1-9 2.4-.9.2-10 1.7-10 1.7zM-24.8 14.9c.2.1 3.7-5.2 4.2-5.6 2.1-2.1 4.8-3.5 7.5-4.5 3.6-1.2 7.4-1.7 11.2-1.7 2.2 0 4.3.1 6.5.4 1 .1 2.2.5 3.2.2.4-.1.9-.6.4-.9-2.2-1.3-6.8-.8-9.3-.8-3.4.1-6.9.5-10.2 1.4-3.2.9-6.3 2.3-8.9 4.5-.5.5-5.7 6.6-4.6 7zM-1.4 38.9c-1-.2-2.3-3.5-2.8-4.4-1.1-2-2.1-4.3-1.7-6.7.4-2.1 2.1-2.9 4.1-2.4 1.2.3 1.4.8 2.1 1.7.4.5.7 0 1.2.3s.8.1 1.2-.2c.8-.6 2-.4 2.9 0 2.2.9 2.4 2.9 1.4 4.9-.9 1.7-2.5 3-4 4.1-.9.6-3.4 3-4.4 2.7-.3 0 .3.1 0 0zM-19.6 10.2c-.2-1 2.4-3.5 3-4.3 1.2-1.5 2.6-3 4.4-3.8 1.8-.8 3.7-.8 4.7 1.2.5.8.7 2 .3 3-.2.5-1.1 1-.6 1.5.5.4-.2.9.4 1.3.8.6 1.3 1 1.5 2.1.3 2-.5 3.8-2.7 4.1-2.2.3-4.4-.7-6.3-1.8-.9-.5-4.4-2.2-4.7-3.3 0-.3.1.3 0 0zM-33.3 3.6c-.2-1.1 3.2-3.3 3.9-3.9.9-.8 2.9-3.3 4.3-2.8 1.8.6 3.6 1.6 5.4 2.3.5.2 4.1.8 3.8 1.3-.6.9-2.6 1.7-3.5 2.5-1.3 1.2-2.4 2.8-3.9 3.9-1.2.9-3.8-.6-5-1-.9-.4-4.8-1.1-5-2.3-.1-.2 0 .2 0 0zM-17.9 30.9c-.9-.7.2-4.6.3-5.5.1-1.2 0-4.4 1.3-5 1.8-.8 3.8-1.2 5.6-1.9.8-.3 2.6-1.9 3.5-1.8.4 0-.6 3.3-.6 3.6-.2 2-.1 4.1-.3 6-.2 1.6-3.2 2.3-4.4 2.8-1 .5-4.4 2.6-5.4 1.8zM12 44.7c-1.1-.2-3.4-7.8-3-9 .4-1.1 2.2-2.2 3-3 .6-.6 1.2-1.2 1.8-1.9.5-.5.9-1.9 1.6-2.2.4-.1.8 2.9.8 3.1.6 1.9 1.6 3.6 2.1 5.4.4 1.5-1.8 3.1-2.6 4.1-.5.6-2.6 3.7-3.7 3.5zM27.2 55.6c-.8 0-2.2-3.3-2.5-3.9-.5-.9.3-1.6.8-2.3.4-.6 1.1-2.7 1.7-3.1-.2.1 2.8 4.2 2.8 4.7 0 .7-2 4.6-2.8 4.6zM-17.6 45.6c-2.6-1.1-2.6-4.3-.5-5.9.8-.6 2.1-.2 2.8-.7.2-.2.7-1.9.9-1.9-2-.3-3.2 2-5.1.7-1.4-.9-1.4-2.4-.8-3.7.6-1.5 2.3-1.6 3.6-1.4 1.7.7.7 3.5 2.5 3.9.8-1.9 1.3-1.7.6.2 1.5.9 2.8-1.7 4.5-1.1 1.1.7 2.2 2.1 1.6 3.5-.6 1.4-1.6 2.5-3.2 2.1-2.2-.5-1.5-2.9-3.2-4.1.1 0-.8 1.7-.7 2 .1.8 1.3 1.5 1.5 2.5.5 2.7-1.9 5-4.5 3.9zM3.3 53.8c-2.9-.2-3.7-3.7-1.8-5.6.5-.5 1.6-.6 2-1.1.2-.2.1-1.9.2-2-1.5.3-2.2 2.4-3.6 2.2-1.7-.1-2.7-1.2-2.6-2.9.1-1.7 1.4-2.5 2.9-2.7 1.7.2 1.7 3 3.4 2.9.2-2 .7-1.9.6.1 1.4.4 2-1.8 3.1-2.2 1.4-.5 3.3 1.2 3.2 2.6-.1 1.4-.7 2.7-2.3 2.8-2.2.2-2.2-2.2-4-2.8 0 0-.2 1.8-.1 2 .4.7 1.6 1 2 1.8 1.1 2.4-.3 5.1-3 4.9zM-30.8 26.1c-3-1.6-2.9-5.5-.2-7.4 1.2-.8 2.5-.8 3.9-.8.7 0 1.2-2.4 1.5-2.4-2.1-.5-3.1 1.1-5 1-1.4 0-2.8-1.5-3-2.8-.4-2.8 2.3-5.1 5-4.4 1.2.3 1.9 1.5 2 2.7 0 .2.7 3.9 1.3 2.8.3-.5.7-1.9 1.3-1.6.6.3-.4 1.6-.7 2.1 1.9 1.5 3.9-2.2 6-.8 1.7.9 2.3 3.5 1.4 5.1-1 1.6-2.5 2.5-4.4 1.8-2.6-.9-1.5-3.9-3.3-5.6 0 0-1.2 2.2-1.2 2.4 0 1.3 1.6 2.3 1.6 3.9.1 3.4-3.2 5.6-6.2 4zM27.3 44.5c-2.9 0-4.2-3.1-2.8-5.4.5-.9 1.9-1.1 2.3-1.8l.1-2.1c-2 .5-2.2 3-4.5 2.7-1.5-.2-2.2-1.4-2.3-2.8-.1-1.7 1.3-2.9 2.9-3.1 1.9 0 2.1 3.1 3.9 2.7 0-2.1.6-2.1.7 0 1.8.3 2-2.7 3.8-2.8 1.6.3 3 1.3 2.9 3.1-.1 1.5-.7 2.6-2.3 2.9-2.2.4-2.5-2.1-4.5-2.6l.1 2.1c.4.7 1.8.9 2.4 1.8 1.5 2.2.2 5.3-2.7 5.3zM-29.4 40c-1-1.3-.5-3 .2-4.3-2.6.8-6.1-.7-4.6-4 1.7-3.6 6.6-2.8 9.5-2.1 1.2.3 2.7-.5 2.1 1.1-.5 1.5.3 3.4-.1 5.1-.4 2.9-4.2 7.9-7.1 4.2-.7-.9.5.6 0 0zM-7.3 55.4c-1.5-.5-2.1-2.2-2.2-3.7-1.7 2.1-5.9 2.8-6.1-1-.1-3.9 3.9-5.7 6.8-6.8 1.2-.4 1.9-1.9 2.4-.2.4 1.6 2.1 2.7 2.8 4.3 1.1 2.5.8 8.8-3.7 7.4-1.1-.4.8.2 0 0zM18.6 55.8c-1.4-.4-1.9-2-2.1-3.3-1.5 2-5.3 2.7-5.5-.7-.3-3.9 3.7-5.2 6.4-6.5 1.7-.8.9-1.2 1.9.4.8 1.4 2.1 2.3 2.7 4 .9 2.3.2 7.1-3.4 6.1-1-.3.7.2 0 0zM29.3 27.4c-1.1 0-1.8-1-2.1-1.9-.7 1.8-3.7 3-4.2.3-.5-2.8 1.5-4.1 3.3-5.6.2-.2.7-1.1.9-.9l2.9 2.6c1.3 1.4 2.4 5.5-.8 5.5zM-34.2 55.3c-.7-.8.1-4.2.2-5.2.2-1.9.6-4 1.6-5.6 1.2-1.9 3.1-2.7 5.1-1.2 1.5 1.1 1.1 2.7 2 3.8 1 1.2 2.6.8 3.7 2.5 1.3 2.1.4 3.9-1.6 5-1.7.9-3.8 1.1-5.7 1.1-1-.1-4.5.4-5.3-.4-.1-.2.3.2 0 0z"/></g><path fill="#26B8D9" d="M-5 21.6c-2.1-3-.3-6.7 3.1-7.3 1.8-.4 3.1.3 4.7 1.1.7.3 2.4-1.8 2.7-1.6-2.1-1.8-5.2-.2-6.6-2.9-1.1-2.2 0-4 1.8-5.3 1.8-1.3 4-.1 5.4 1.2 1.5 2.2-1.8 4.6-.1 6.6.4-.3 1.9-1.5 2.2-1.2.6.9-.9 1.4-1.6 1.9 1 2.1 4.2.4 5.8 1.7 1.6 1.3 1.4 4.8-.3 6-1.6 1.1-3.4 1.8-5.1.4-2.9-2.3.1-4.8-1-7.7 0 .1-2.3 1.5-2.4 1.8-.5 1.3.4 2.8-.2 4.3-1.6 3.4-6.1 4.3-8.4 1z"/><g fill="#26B8D9"><path d="M-17.5-31.7c2.8-.6 6.1-2.1 8.7-.3 3.2 2.2-2.3 4.2-2 5.5.7 3.6-3.1 4.3-5 1.6-.7-.9-3.4-6.4-1.7-6.8 2.5-.5-.4.1 0 0zM-14.9-13.4c2.5.2 5.6-.3 7.7 1.5 2.9 2.4-1.3 4-2.7 4.9-.2.3-.2.7-.1 1.1-.2.6-.7 1.2-1.2 1.5-1.4.9-2.6.3-3.4-1-.6-1.1-2.2-8.1-.3-8 2.6.2-.3 0 0 0zM-24.8-24.6c1.2-.2 6.2-.6 6.9.7.3.5 2.7 6 2.9 5.9-.7.3-2.8-.3-3.7-.3-.8 0-3.1.5-3.6-.3-.5-.7-3.5-5.8-2.5-6zM14.3-37.6c1 .8 4.5 4.7 3.9 6.1-.3.6-3.2 6.1-2.9 6.2-.7-.3-1.6-2.6-2.2-3.2-.6-.7-2.4-2.2-2.1-3.2.2-.8 2.5-6.6 3.3-5.9zM27.7-47c1 1.1 1.7 2.7 2.4 4 .6 1.1 2.5 3.2 1.7 4.5-.8 1.4-1.9 2.7-2.8 4-.2.3-1.7 3.8-2 3.6-.6-.4-.8-1.9-1.1-2.5-.4-.8-.9-1.5-1.4-2.3-.6-.9-2.7-3-2.2-4.2.6-.9 4.5-8.1 5.4-7.1zM2.2-31.5c1.3.3 2.7 1.2 3.9 1.7.8.4 2.9 1 3.4 1.9.5.8.1 8.8.6 8.8-.6 0-1.6-1-2.1-1.3-1-.5-2-.9-3-1.3-1.3-.5-2.9-.7-3.1-2.3 0-.8-1-7.8.3-7.5zM-33.5-51c.7-.7 3.4-2.5 4.4-2.4.6.1 4.6 3.1 4.7 2.8-.3.4-1.9.9-2.3 1.1-.8.5-2.1 1.9-3.1 1.3-.4-.2-4.4-2.3-3.7-2.8 0-.1-.1 0 0 0zM-20.6-47.6c2.3-.9 4.6.7 4.6 3.1 0 1.3-.7 2.1-1.4 3.1-.3.4.7 2 .6 2.1 1.6-1.2.9-3.6 3.2-4.1 1.6-.3 2.6.7 3.2 2.1.6 1.4-.6 2.8-1.6 3.5-1.7.7-3-2-4.5-1.1.7 2 .2 2.2-.6.2-1.7.4-.8 3.2-2.5 3.9-1.3.2-3 .1-3.6-1.4-.6-1.4-.6-2.8.8-3.7 1.9-1.2 3.1 1 5.1.7-.1 0-.6-1.8-.9-1.9-.7-.5-2-.2-2.8-.7-2.2-1.5-2.3-4.7.4-5.8zM-4.2-12.8c2.4-2.6 6.3-1.6 7.4 1.6.5 1.4.1 2.7-.2 4.1-.1.6 2 2 1.9 2.1 1.2-2.2-.9-4.7 1.3-6.5 1.8-1.4 3.6-.8 5.2.6 1.6 1.5.7 3.6 0 5.1-1.7 1.8-4.7-.7-6 1.3.4.4 1.8 1.3 1.4 1.8-.5.5-1.5-.8-2-1.2-1.8 1.4.9 4.3-.7 6.1-1.5 1-3.6 1.8-5.1.4-1.5-1.4-2.3-3.2-1-5.1 1.6-2.3 4.2-.5 6.4-1.9-.2.1-1.9-1.7-2.2-1.7-1.2-.3-2.7.9-4.2.5-3.2-.9-4.6-4.6-2.2-7.2zM5.3-35.1c-3-.4-4-3.7-2.1-5.9.7-.8 2.1-.8 2.7-1.5.1-.1.3-2.2.4-2.2-2.1.3-2.7 2.8-5 2.1-1.5-.5-2.1-1.7-1.9-3.2.1-1.6 1.7-2.9 3.4-2.8 1.9.3 1.8 3.5 3.6 3.4.4-2.2.9-2.1.7.1 1.8.5 2.4-2.5 4.3-2.3 1.5.6 2.9 1.7 2.6 3.6-.3 1.5-1.1 2.6-2.7 2.6-2.3.1-2.3-2.5-4.2-3.3 0 0-.2 1.9-.2 2 0 .7 1.4 1.2 1.8 1.8 1.6 2.3-.1 6-3.4 5.6zM-31.4-19c2.6-1.8 5.8-.1 6.2 2.9.2 1.4-.4 2.4-1 3.6-.2.4 1.4 2.2 1.3 2.2 1.2-1.4.3-4 1.7-5 1.8-1.2 3.6-.9 4.9.8 1 1.4.8 3.8-.7 4.8-1.8 1.5-4-1.6-5.6-.1.3.5 1.4 1.5.8 1.9-.5.4-1.1-1-1.5-1.5-1.7.8-.4 3.4-1.4 4.7-1 1.4-3.5 1.2-4.7.2-1.2-1-1.8-3.1-.8-4.4 1.9-2.7 4.1-.1 6.6-1-.2 0-1.2-1.9-1.5-2-.8-.4-2.2.3-3.2-.1-3-1.1-4-5.1-1.1-7zM27.3-25.3c2 0 3 2 2.1 3.6-.4.8-1.5.9-1.8 1.5l-.1 1.5c1.1-.3 1.6-1.9 2.7-1.9 1.3 0 2.1.7 2.2 2 .1 1.1-.8 2.3-2.1 2.3-1.1-.3-1.7-2.2-2.8-2 0 .7.2 5-.2 5s-.2-4.3-.2-5c-1.3-.2-1.4 1.9-2.8 2-.9-.2-2.1-.9-2.1-2 0-1 .3-2 1.4-2.3 1.8-.4 1.9 1.5 3.4 1.9v-1.2c-.1-.7-1-.8-1.5-1.3-1.3-1.6-.5-4.1 1.8-4.1zM-33.9-41.5c-.8-2.5 2.3-4.3 4.3-4.6 1.2-.2 2.2-.3 3.3-.6.2-.1.6 1.8.7 2.1 1.1 1.9 1.4 5.2-.5 6.8-2.2 1.8-3.9-.9-3.6-2.9-1.5 1.1-3.6 1.3-4.2-.8-.1-.2.1.6 0 0zM-11.4-46.1c.4-3.1 4.9-3.3 7.1-2.6 1.2.4 1.9.6 3.2.7.3 0-.3 2.1-.2 2.5.2 2.4-1 6-3.7 6.7-3.1.9-3.6-2.7-2.4-4.6-2.1.5-4.3-.3-4-2.7 0-.3-.1.6 0 0zM-6-25.8c2.1-.5 3.5 1.9 4 3.5.3 1.2-.2 2.6.3 3.7s-.2.6-1.1.8c-2.4.6-4.8 1.6-7-.5s.8-4 2.8-3.5c-.9-1.5-1-3.5 1-4 .3 0-.5.2 0 0zM23.2-48.7c1.8 1.7.1 4.6-1.3 5.8-.6.6-1.5.9-2.1 1.4-.8.8-.5 1.2-1.3.1-1.6-2.1-3.5-2.5-3.7-5.7-.2-3.3 3.6-3 4.5-.4.7-1.5 2.3-2.7 3.9-1.2.2.1-.4-.4 0 0zM15.4-22.7c3.2-.8 5.3 3.2 5.7 5.8.2 1.7.1 3.1.6 4.7.1.3-2.3.5-2.8.7-2.6 1.2-7.4 1.4-9-1.6-1.7-3.1 1.7-4.9 4.3-4.3-1.5-1.9-1.6-4.7 1.2-5.3.3-.1-.8.1 0 0zM-33-35.4c3.3.1 7.2-.6 10 1.7 1.5 1.2 1.2 3 0 4.4-.8.9-3.4.9-3.5 2.2-.1 1.6-.7 3-2.5 3.5-2 .6-3.3-1.5-3.9-3.1-.5-1.4-2.2-8.7-.1-8.7 3.3.1-.4 0 0 0z"/></g><path stroke="#26B8D9" d="M-24.5-9c6.5 8.5 19.9 9.5 32 10.2M-10.1-8.1c4.3 5.7 6.8 8.6 17.6 9.1" fill="none"/><path stroke="#26B8D9" stroke-width=".75" fill="none" d="M-26.6-28.3l6.5 5.3M-3.5-19.2c7.9 3.8 8.9 8.8 18.2 13.9M-16.6-18.8c6.1 4.2 9.8 2 14.4 8.1M6.6-24.6c3.7 6.2 4.6 9.3 15.6 14.6M-1.4-54c2 1.5 6.8 5.1 7.8 10.7M5.7-42.3c-.6 3.8-1.4 14.1-.9 15.6M15.1-25.8c1.1 3.9 3.2 15 2.8 17.4M18.9-42.5c.2 5.7 4.9 17.7 5.9 27.1"/><path stroke="#26B8D9" d="M-18 .7c2.6-.6 9.8-.9 25.3.4" fill="none"/><path stroke="#26B8D9" stroke-width=".75" d="M-26.7-55.7c1.3 3.2 5.3 5.4 7.4 8.4M-18-41.3c1.3 3.2 2.6 6.5 4 11.6M-11.5-27.5c3.5 1.2 5.3 1.5 7.3 4.4M27.2-45.9v98.2M14-35.4c-.5-8.2-5.9-12.6-7.3-20.3" fill="none"/></symbol><use xlink:href="#g" width="98" height="148" x="-49" y="-74" transform="matrix(1 0 0 -1 50 75)" overflow="visible"/><g><path fill="#26B8D9" d="M11.4 11.5h77.1v127h-77.1z"/><path fill="#056D79" d="M88.5 11.5v127h-77.1v-127h77.1m1-1h-79.1v129h79.1v-129z"/><path fill="#1A90AA" d="M11.4 11.5h77.1v127h-77.1z"/><path fill="#056D79" d="M88.5 11.5v127h-77.1v-127h77.1m1-1h-79.1v129h79.1v-129z"/><path fill="#3CB9D7" d="M16.1 74.6h67.8v.8h-67.8z"/><use xlink:href="#h" width="68.8" height="111.8" x="-34.4" y="-55.9" transform="matrix(-.61 0 0 .591 66.224 104.959)" overflow="visible"/><use xlink:href="#h" width="68.8" height="111.8" x="-34.4" y="-55.9" transform="matrix(.61 0 0 .591 32.944 104.998)" overflow="visible"/><use xlink:href="#h" width="68.8" height="111.8" x="-34.4" y="-55.9" transform="matrix(.61 0 0 -.584 32.955 45.232)" overflow="visible"/><use xlink:href="#h" width="68.8" height="111.8" x="-34.4" y="-55.9" transform="matrix(-.61 0 0 -.584 66.215 45.23)" overflow="visible"/><path stroke="#056D79" stroke-width=".25" stroke-linecap="round" stroke-linejoin="round" fill="none" d="M14.5 75h71"/><g><defs><path id="i" d="M63.3 42.9c.2 1-.3 2.3-1.1 3l-10.7 8.3c-.8.6-2.2.6-3 0l-10.7-8.2c-.8-.6-1.3-2-1.1-3l2.5-11.4c.4-1.7 1.8-2.3 3.3-1.2l7.6 5.8 7.6-5.8c1.4-1.1 2.9-.6 3.3 1.2l2.3 11.3z"/></defs><clipPath><use xlink:href="#i" overflow="visible"/></clipPath><defs><path id="j" d="M63.3 42.9c.2 1-.3 2.3-1.1 3l-10.7 8.3c-.8.6-2.2.6-3 0l-10.7-8.2c-.8-.6-1.3-2-1.1-3l2.5-11.4c.4-1.7 1.8-2.3 3.3-1.2l7.6 5.8 7.6-5.8c1.4-1.1 2.9-.6 3.3 1.2l2.3 11.3z"/></defs><clipPath><use xlink:href="#j" overflow="visible"/></clipPath><defs><path id="k" d="M63.3 42.9c.2 1-.3 2.3-1.1 3l-10.7 8.3c-.8.6-2.2.6-3 0l-10.7-8.2c-.8-.6-1.3-2-1.1-3l2.5-11.4c.4-1.7 1.8-2.3 3.3-1.2l7.6 5.8 7.6-5.8c1.4-1.1 2.9-.6 3.3 1.2l2.3 11.3z"/></defs><clipPath><use xlink:href="#k" overflow="visible"/></clipPath></g><defs><path id="l" d="M36.7 108c-.2-1 .3-2.3 1.1-3l10.7-8.3c.8-.6 2.2-.6 3 0l10.7 8.2c.8.6 1.3 2 1.1 3l-2.5 11.4c-.4 1.7-1.8 2.3-3.3 1.2l-7.6-5.8-7.6 5.8c-1.4 1.1-2.9.6-3.3-1.2l-2.3-11.3z"/></defs><clipPath><use xlink:href="#l" overflow="visible"/></clipPath><defs><path id="m" d="M36.7 108c-.2-1 .3-2.3 1.1-3l10.7-8.3c.8-.6 2.2-.6 3 0l10.7 8.2c.8.6 1.3 2 1.1 3l-2.5 11.4c-.4 1.7-1.8 2.3-3.3 1.2l-7.6-5.8-7.6 5.8c-1.4 1.1-2.9.6-3.3-1.2l-2.3-11.3z"/></defs><clipPath><use xlink:href="#m" overflow="visible"/></clipPath><defs><path id="n" d="M36.7 108c-.2-1 .3-2.3 1.1-3l10.7-8.3c.8-.6 2.2-.6 3 0l10.7 8.2c.8.6 1.3 2 1.1 3l-2.5 11.4c-.4 1.7-1.8 2.3-3.3 1.2l-7.6-5.8-7.6 5.8c-1.4 1.1-2.9.6-3.3-1.2l-2.3-11.3z"/></defs><clipPath><use xlink:href="#n" overflow="visible"/></clipPath><use xlink:href="#o" width="59.1" height="43.6" x="-29.6" y="-21.8" transform="matrix(1 0 0 -1 49.999 50.065)" overflow="visible"/><use xlink:href="#o" width="59.1" height="43.6" x="-29.6" y="-21.8" transform="matrix(-1 0 0 1 49.999 100.935)" overflow="visible"/><g><defs><path id="p" d="M63.3 42.9c.2 1-.3 2.3-1.1 3l-10.7 8.3c-.8.6-2.2.6-3 0l-10.7-8.2c-.8-.6-1.3-2-1.1-3l2.5-11.4c.4-1.7 1.8-2.3 3.3-1.2l7.6 5.8 7.6-5.8c1.4-1.1 2.9-.6 3.3 1.2l2.3 11.3z"/></defs><clipPath><use xlink:href="#p" overflow="visible"/></clipPath><defs><path id="q" d="M63.3 42.9c.2 1-.3 2.3-1.1 3l-10.7 8.3c-.8.6-2.2.6-3 0l-10.7-8.2c-.8-.6-1.3-2-1.1-3l2.5-11.4c.4-1.7 1.8-2.3 3.3-1.2l7.6 5.8 7.6-5.8c1.4-1.1 2.9-.6 3.3 1.2l2.3 11.3z"/></defs><clipPath><use xlink:href="#q" overflow="visible"/></clipPath><defs><path id="r" d="M63.3 42.9c.2 1-.3 2.3-1.1 3l-10.7 8.3c-.8.6-2.2.6-3 0l-10.7-8.2c-.8-.6-1.3-2-1.1-3l2.5-11.4c.4-1.7 1.8-2.3 3.3-1.2l7.6 5.8 7.6-5.8c1.4-1.1 2.9-.6 3.3 1.2l2.3 11.3z"/></defs><clipPath><use xlink:href="#r" overflow="visible"/></clipPath></g><defs><path id="s" d="M36.7 108c-.2-1 .3-2.3 1.1-3l10.7-8.3c.8-.6 2.2-.6 3 0l10.7 8.2c.8.6 1.3 2 1.1 3l-2.5 11.4c-.4 1.7-1.8 2.3-3.3 1.2l-7.6-5.8-7.6 5.8c-1.4 1.1-2.9.6-3.3-1.2l-2.3-11.3z"/></defs><clipPath><use xlink:href="#s" overflow="visible"/></clipPath><defs><path id="t" d="M36.7 108c-.2-1 .3-2.3 1.1-3l10.7-8.3c.8-.6 2.2-.6 3 0l10.7 8.2c.8.6 1.3 2 1.1 3l-2.5 11.4c-.4 1.7-1.8 2.3-3.3 1.2l-7.6-5.8-7.6 5.8c-1.4 1.1-2.9.6-3.3-1.2l-2.3-11.3z"/></defs><clipPath><use xlink:href="#t" overflow="visible"/></clipPath><defs><path id="u" d="M36.7 108c-.2-1 .3-2.3 1.1-3l10.7-8.3c.8-.6 2.2-.6 3 0l10.7 8.2c.8.6 1.3 2 1.1 3l-2.5 11.4c-.4 1.7-1.8 2.3-3.3 1.2l-7.6-5.8-7.6 5.8c-1.4 1.1-2.9.6-3.3-1.2l-2.3-11.3z"/></defs><clipPath><use xlink:href="#u" overflow="visible"/></clipPath><g><path fill="#056D79" d="M88.5 11.4v127.1h-77v-127.1h77m2.3-5.4h-81.6c-1.8 0-3.2 1.4-3.2 3.1v131.7c0 1.8 1.4 3.2 3.2 3.2h81.6c1.8 0 3.2-1.4 3.2-3.2v-131.7c0-1.7-1.4-3.1-3.2-3.1z"/><path fill="#fff" d="M90.8 7.5c.9 0 1.7.8 1.7 1.7v131.7c0 .9-.8 1.7-1.7 1.7h-81.6c-.9 0-1.7-.8-1.7-1.7v-131.8c0-1.7 1.2-1.7 1.6-1.7l81.7.1m0-1.5h-81.7c-2.1 0-3.1 1.4-3.1 3.1v131.7c0 1.8 1.4 3.2 3.2 3.2h81.6c1.8 0 3.2-1.4 3.2-3.2v-131.7c0-1.7-1.4-3.1-3.2-3.1z"/><path fill="#056D79" d="M90.8 7c1.2 0 2.2.9 2.2 2.1v131.7c0 1.2-1 2.2-2.2 2.2h-81.6c-1.2 0-2.2-1-2.2-2.2v-131.7c0-.8.3-2.1 2.1-2.1h81.7m0-1h-81.7c-2.1 0-3.1 1.4-3.1 3.1v131.7c0 1.8 1.4 3.2 3.2 3.2h81.6c1.8 0 3.2-1.4 3.2-3.2v-131.7c0-1.7-1.4-3.1-3.2-3.1z"/><path fill="#fff" d="M88.5 11.5v127h-77.1v-127h77.1m1.5-1.5h-80.1v130h80.1v-130z"/><path fill="#056D79" d="M88.5 11.5v127h-77.1v-127h77.1m1-1h-79.1v129h79.1v-129z"/></g><g><path fill="#fff" d="M9.5 140.5l-.1-.1-.8-.1c-.1 0-.2 0-.2.1l-.4.7v.1l.1.1.6.1.1.5s0 .1.1.1h.1l.7-.4c.1 0 .1-.2.1-.2l-.3-.9zM90.4 140.3l-.2.8c0 .1 0 .2.1.2l.7.4h.1v-.1l.1-.8c0-.1 0-.2-.1-.2l-.7-.3zM90.4 140.3l.4.8c0 .1.2.1.2.1l.8-.1h.1v-.1l-.4-.7c0-.1-.2-.1-.2-.1l-.9.1zM11 9.6l.5-.7v-.3l-.4-.6h-.1l-.4.6v.3l.4.7zM13.1 9.6l.5-.7v-.3l-.4-.6-.1-.1s-.1 0-.1.1l-.4.6v.3l.5.7zM15.2 9.6l.5-.7v-.3l-.4-.6s0-.1-.1-.1c0 0-.1 0-.1.1l-.4.6v.3l.5.7zM17.3 9.6l.5-.7v-.3l-.4-.6-.1-.1v.1l-.4.6v.3l.4.7zM19.5 9.6l.5-.7v-.3l-.5-.6-.1-.1s-.1 0-.1.1l-.3.6v.3l.5.7zM21.6 9.6l.5-.7v-.3l-.5-.6-.1-.1s-.1 0-.1.1l-.4.6v.3l.6.7zM23.7 9.6l.5-.7v-.3l-.5-.6s0-.1-.1-.1v.1l-.4.6v.3l.5.7zM25.8 9.6l.5-.7v-.3l-.4-.6-.1-.1s-.1 0-.1.1l-.4.6v.3l.5.7zM27.9 9.6l.5-.7v-.3l-.4-.6-.1-.1s-.1 0-.1.1l-.4.6v.3l.5.7zM30 9.6l.5-.7v-.3l-.4-.6h-.1s-.1 0-.1.1l-.4.6v.3l.5.6zM32.1 9.6l.5-.7v-.3l-.4-.6s0-.1-.1-.1l-.1.1-.4.6v.3l.5.7zM34.2 9.6l.5-.7v-.3l-.4-.6s0-.1-.1-.1c0 0-.1 0-.1.1l-.4.6v.3l.5.7zM36.3 9.6l.5-.7v-.3l-.5-.6-.1-.1s-.1 0-.1.1l-.4.6v.3l.6.7zM38.4 9.6l.5-.7v-.3l-.5-.6-.1-.1s-.1 0-.1.1l-.4.6v.3l.6.7zM40.5 9.6l.5-.7v-.3l-.5-.6s0-.1-.1-.1c0 0-.1 0-.1.1l-.3.6v.3l.5.7zM42.6 9.6l.5-.7v-.3l-.4-.6s0-.1-.1-.1c0 0-.1 0-.1.1l-.4.6v.3l.5.7zM44.7 9.6l.5-.7v-.3l-.4-.6-.1-.1s-.1 0-.1.1l-.4.6v.3l.5.7zM46.8 9.6l.5-.7v-.3l-.4-.6s0-.1-.1-.1c0 0-.1 0-.1.1l-.4.6v.3l.5.7zM48.9 9.6l.5-.7v-.3l-.4-.6h-.1s-.1 0-.1.1l-.4.6v.3l.5.6zM51 9.6l.5-.7v-.3l-.4-.6h-.1s-.1 0-.1.1l-.4.6v.3l.5.6zM53.1 9.6l.5-.7v-.3l-.4-.6-.1-.1c0 .1-.1.1-.1.1l-.4.6v.3l.5.7zM55.2 9.6l.5-.7v-.3l-.4-.6-.1-.1s-.1 0-.1.1l-.4.6v.3l.5.7zM57.3 9.6l.5-.7v-.3l-.4-.6-.1-.1s-.1 0-.1.1l-.4.6v.3l.5.7zM59.3 9.6l.5-.7v-.3l-.4-.6-.1-.1s-.1 0-.1.1l-.4.6v.3l.5.7zM61.4 9.6l.5-.7v-.3l-.4-.6-.1-.1s-.1 0-.1.1l-.4.6v.3l.5.7zM63.6 9.6l.5-.7v-.3l-.5-.6-.1-.1s-.1 0-.1.1l-.4.6v.3l.6.7zM72.1 9.6l.5-.7v-.3l-.4-.6-.1-.1c0 .1-.1.1-.1.1l-.4.6v.3l.5.7zM74.2 9.6l.5-.7v-.3l-.4-.6s0-.1-.1-.1c0 0-.1 0-.1.1l-.4.6v.3l.5.7zM76.3 9.6l.5-.7v-.3l-.4-.6-.1-.1s0 .1-.1.1l-.4.6v.3l.5.7zM78.4 9.6l.5-.7v-.3l-.4-.6s0-.1-.1-.1c0 0-.1 0-.1.1l-.4.6v.3l.5.7zM65.8 9.6l.5-.7v-.3l-.5-.6-.1-.1s-.1 0-.1.1l-.4.6v.3l.6.7zM67.9 9.6l.5-.7v-.3l-.5-.6-.1-.1s-.1 0-.1.1l-.4.6v.3l.6.7zM70 9.6l.5-.7v-.3l-.4-.6h-.1s-.1 0-.1.1l-.4.6v.3l.5.6zM80.5 9.6l.5-.7v-.3l-.4-.6-.1-.1s-.1 0-.1.1l-.4.6v.3l.5.7zM82.6 9.6l.5-.7v-.3l-.4-.6s0-.1-.1-.1c0 0-.1 0-.1.1l-.4.6v.3l.5.7zM84.7 9.6l.5-.7v-.3l-.4-.6s0-.1-.1-.1c0 0-.1 0-.1.1l-.4.6v.3l.5.7zM86.8 9.6l.5-.7v-.3l-.4-.6-.1-.1s-.1 0-.1.1l-.4.6v.3l.5.7zM88.9 9.6l.5-.7v-.3l-.4-.6h-.1s-.1 0-.1.1l-.4.6v.3l.5.6zM92.1 138.5l-.7-.5h-.3l-.6.4s-.1 0-.1.1c0 0 0 .1.1.1l.6.4h.3l.7-.5zM92.1 136.4l-.7-.5h-.3l-.6.4s-.1 0-.1.1c0 0 0 .1.1.1l.6.4h.3l.7-.5zM92.1 134.4l-.7-.5h-.3l-.6.4-.1.1s0 .1.1.1l.6.4h.3l.7-.5zM92.1 132.3l-.7-.5h-.3l-.6.4-.1.1s0 .1.1.1l.6.4h.3l.7-.5zM92.1 130.2l-.7-.5h-.3l-.6.4s-.1 0-.1.1c0 0 0 .1.1.1l.6.4h.3l.7-.5zM92.1 128.1l-.7-.5h-.3l-.6.4s-.1 0-.1.1c0 0 0 .1.1.1l.6.4h.3l.7-.5zM92.1 126l-.7-.5h-.3l-.6.4-.1.1s0 .1.1.1l.6.4h.3l.7-.5zM92.1 123.9l-.7-.5h-.3l-.6.4-.1.1s0 .1.1.1l.6.4h.3l.7-.5zM92.1 121.9l-.7-.5h-.3l-.6.4-.1.1s0 .1.1.1l.6.4h.3l.7-.5zM92.1 119.8l-.7-.5h-.3l-.6.4-.1.1s0 .1.1.1l.6.4h.3l.7-.5zM92.1 117.7l-.7-.5h-.3l-.6.4-.1.1s0 .1.1.1l.6.4h.3l.7-.5zM92.1 115.6l-.7-.5h-.3l-.6.4-.1.1s0 .1.1.1l.6.4h.3l.7-.5zM92.1 113.5l-.7-.5h-.3l-.6.4s-.1 0-.1.1c0 0 0 .1.1.1l.6.4h.3l.7-.5zM92.1 111.4l-.7-.5h-.3l-.6.4-.1.1s0 .1.1.1l.6.4h.3l.7-.5zM92.1 109.4l-.7-.5h-.3l-.6.4-.1.1s0 .1.1.1l.6.4h.3l.7-.5zM92.1 107.3l-.7-.5h-.3l-.6.4s-.1 0-.1.1c0 0 0 .1.1.1l.6.4h.3l.7-.5zM92.1 105.2l-.7-.5h-.3l-.6.4s-.1 0-.1.1c0 0 0 .1.1.1l.6.4h.3l.7-.5zM92.1 103.1l-.7-.5h-.3l-.6.4s-.1 0-.1.1c0 0 0 .1.1.1l.6.4h.3l.7-.5zM92.1 101l-.7-.5h-.3l-.6.4-.1.1s0 .1.1.1l.6.4h.3l.7-.5zM92.1 99l-.7-.5h-.3l-.6.4-.1.1s0 .1.1.1l.6.4h.3l.7-.5zM92.1 96.9l-.7-.5h-.3l-.6.4-.1.1s0 .1.1.1l.6.4h.3l.7-.5zM92.1 94.8l-.7-.5h-.3l-.6.4-.1.1s0 .1.1.1l.6.4h.3l.7-.5zM92.1 92.7l-.7-.5h-.3l-.6.4-.1.1s0 .1.1.1l.6.4h.3l.7-.5zM92.1 90.6l-.7-.5h-.3l-.6.4-.1.1s0 .1.1.1l.6.4h.3l.7-.5zM92.1 88.5l-.7-.5h-.3l-.6.4s-.1 0-.1.1 0 .1.1.1l.6.4h.3l.7-.5zM92.1 53.1l-.7-.5h-.3l-.6.4-.1.1s0 .1.1.1l.6.4h.3l.7-.5zM92.1 51l-.7-.5h-.3l-.6.5-.1.1s0 .1.1.1l.6.4h.3l.7-.6zM92.1 55.2l-.7-.5h-.3l-.6.4-.1.1s0 .1.1.1l.6.4h.3l.7-.5zM92.1 49l-.7-.5h-.3l-.6.4-.1.1s0 .1.1.1l.6.4h.3l.7-.5zM92.1 46.9l-.7-.5h-.3l-.6.4s-.1 0-.1.1c0 0 0 .1.1.1l.6.4h.3l.7-.5zM92.1 44.8l-.7-.5h-.3l-.6.4-.1.1s0 .1.1.1l.6.4h.3l.7-.5zM92.1 42.7l-.7-.5h-.3l-.6.4s-.1 0-.1.1c0 0 0 .1.1.1l.6.4h.3l.7-.5zM92.1 40.6l-.7-.5h-.3l-.6.4-.1.1s0 .1.1.1l.6.4h.3l.7-.5zM92.1 38.6l-.7-.6h-.3l-.6.4s-.1 0-.1.1c0 0 0 .1.1.1l.6.4h.3l.7-.4zM92.1 36.5l-.7-.5h-.3l-.6.4-.1.1s0 .1.1.1l.6.4h.3l.7-.5zM92.1 34.4l-.7-.5h-.3l-.6.4-.1.1s0 .1.1.1l.6.4h.3l.7-.5zM92.1 32.3l-.7-.5h-.3l-.6.4-.1.1s0 .1.1.1l.6.4h.3l.7-.5zM92.1 30.2l-.7-.5h-.3l-.6.4-.1.1s0 .1.1.1l.6.4h.3l.7-.5zM92.1 28.1l-.7-.5h-.3l-.6.4-.1.1s0 .1.1.1l.6.4h.3l.7-.5zM92.1 26.1l-.7-.5h-.3l-.6.4-.1.1s0 .1.1.1l.6.4h.3l.7-.5zM92.1 82.2l-.7-.5h-.3l-.6.4s-.1 0-.1.1c0 0 0 .1.1.1l.6.4h.3l.7-.5zM92.1 80.2l-.7-.5h-.3l-.6.4s-.1 0-.1.1c0 0 0 .1.1.1l.6.4h.3l.7-.5zM92.1 84.3l-.7-.5h-.3l-.6.4s-.1 0-.1.1c0 0 0 .1.1.1l.6.4h.3l.7-.5zM92.1 86.4l-.7-.5h-.3l-.6.4s-.1 0-.1.1c0 0 0 .1.1.1l.6.4h.3l.7-.5zM92.1 78.1l-.7-.5h-.3l-.6.4s-.1 0-.1.1c0 0 0 .1.1.1l.6.4h.3l.7-.5zM92.1 76l-.7-.5h-.3l-.6.4-.1.1s0 .1.1.1l.6.4h.3l.7-.5zM92.1 73.9l-.7-.5h-.3l-.6.4-.1.1s0 .1.1.1l.6.4h.3l.7-.5zM92.1 71.8l-.7-.5h-.3l-.6.4s-.1 0-.1.1c0 0 0 .1.1.1l.6.4h.3l.7-.5zM92.1 69.7l-.7-.5h-.3l-.6.4-.1.1s0 .1.1.1l.6.4h.3l.7-.5zM92.1 67.7l-.7-.5h-.3l-.6.4-.1.1s0 .1.1.1l.6.4h.3l.7-.5zM92.1 65.6l-.7-.5h-.3l-.6.4s-.1 0-.1.1c0 0 0 .1.1.1l.6.4h.3l.7-.5zM92.1 63.5l-.7-.5h-.3l-.6.4s-.1 0-.1.1c0 0 0 .1.1.1l.6.4h.3l.7-.5zM92.1 61.4l-.7-.5h-.3l-.6.4-.1.1s0 .1.1.1l.6.4h.3l.7-.5zM92.1 59.3l-.7-.5h-.3l-.6.4-.1.1s0 .1.1.1l.6.4h.3l.7-.5zM92.1 57.2l-.7-.5h-.3l-.6.4s-.1 0-.1.1c0 0 0 .1.1.1l.6.4h.3l.7-.5zM92.1 24l-.7-.5h-.3l-.6.4-.1.1s0 .1.1.1l.6.4h.3l.7-.5zM92.1 21.9l-.7-.5h-.3l-.6.4s-.1 0-.1.1c0 0 0 .1.1.1l.6.4h.3l.7-.5zM92.1 19.8l-.7-.5h-.3l-.6.4s-.1 0-.1.1 0 .1.1.1l.6.4h.3l.7-.5zM92.1 17.7l-.7-.5h-.3l-.6.4s-.1 0-.1.1 0 .1.1.1l.6.4h.3l.7-.5zM92.1 15.6l-.7-.5h-.3l-.6.4s-.1 0-.1.1c0 0 0 .1.1.1l.6.4h.3l.7-.5zM92.1 13.6l-.7-.5h-.3l-.6.4-.1.1s0 .1.1.1l.6.4h.3l.7-.5zM92.1 11.5l-.7-.5h-.3l-.6.4s-.1 0-.1.1c0 0 0 .1.1.1l.6.4h.3l.7-.5zM9.6 138.5l-.7-.5h-.3l-.6.4s-.1 0-.1.1c0 0 0 .1.1.1l.6.4h.3l.7-.5zM9.6 136.4l-.7-.5h-.3l-.6.5s-.1 0-.1.1c0 0 0 .1.1.1l.6.4h.3l.7-.6zM9.6 134.4l-.7-.5h-.3l-.6.4-.1.1s0 .1.1.1l.6.4h.3l.7-.5zM9.6 132.3l-.7-.5h-.3l-.6.4-.1.1s0 .1.1.1l.6.4h.3l.7-.5zM9.6 130.2l-.7-.5h-.3l-.6.4s-.1 0-.1.1c0 0 0 .1.1.1l.6.4h.3l.7-.5zM9.6 128.1l-.7-.5h-.3l-.6.4s-.1 0-.1.1c0 0 0 .1.1.1l.6.4h.3l.7-.5zM9.6 126l-.7-.5h-.3l-.6.4-.1.1s0 .1.1.1l.6.4h.3l.7-.5zM9.6 123.9l-.7-.5h-.3l-.6.5-.1.1s0 .1.1.1l.6.4h.3l.7-.6zM9.6 121.9l-.7-.5h-.3l-.6.4-.1.1s0 .1.1.1l.6.4h.3l.7-.5zM9.6 119.8l-.7-.5h-.3l-.6.4-.1.1s0 .1.1.1l.6.4h.3l.7-.5zM9.6 117.7l-.7-.5h-.3l-.6.4-.1.1s0 .1.1.1l.6.4h.3l.7-.5zM9.6 115.6l-.7-.5h-.3l-.6.4-.1.1s0 .1.1.1l.6.4h.3l.7-.5zM9.6 113.5l-.7-.5h-.3l-.6.5s-.1 0-.1.1c0 0 0 .1.1.1l.6.4h.3l.7-.6zM9.6 111.4l-.7-.5h-.3l-.6.5-.1.1s0 .1.1.1l.6.4h.3l.7-.6zM9.6 109.4l-.7-.5h-.3l-.6.4-.1.1s0 .1.1.1l.6.4h.3l.7-.5zM9.6 107.3l-.7-.5h-.3l-.6.4s-.1 0-.1.1c0 0 0 .1.1.1l.6.4h.3l.7-.5zM9.6 105.2l-.7-.5h-.3l-.6.4s-.1 0-.1.1c0 0 0 .1.1.1l.6.4h.3l.7-.5zM9.6 103.1l-.7-.5h-.3l-.6.4s-.1 0-.1.1c0 0 0 .1.1.1l.6.4h.3l.7-.5zM9.6 101l-.7-.5h-.3l-.6.5-.1.1s0 .1.1.1l.6.4h.3l.7-.6zM9.6 99l-.7-.5h-.3l-.6.4-.1.1s0 .1.1.1l.6.4h.3l.7-.5zM9.6 96.9l-.7-.5h-.3l-.6.4-.1.1s0 .1.1.1l.6.4h.3l.7-.5zM9.6 94.8l-.7-.5h-.3l-.6.4-.1.1s0 .1.1.1l.6.4h.3l.7-.5zM9.6 92.7l-.7-.5h-.3l-.6.4-.1.1s0 .1.1.1l.6.4h.3l.7-.5zM9.6 90.6l-.7-.5h-.3l-.6.4-.1.1s0 .1.1.1l.6.4h.3l.7-.5zM9.6 88.6l-.7-.5h-.3l-.6.4-.1.1s0 .1.1.1l.6.4h.3l.7-.5zM9.6 53.1l-.7-.5h-.3l-.6.5-.1.1s0 .1.1.1l.6.4h.3l.7-.6zM9.6 51l-.7-.5h-.3l-.6.5-.1.1s0 .1.1.1l.6.4h.3l.7-.6zM9.6 55.2l-.7-.5h-.3l-.6.5s-.1 0-.1.1c0 0 0 .1.1.1l.6.4h.3l.7-.6zM9.6 49l-.7-.5h-.3l-.6.4-.1.1s0 .1.1.1l.6.4h.3l.7-.5zM9.6 46.9l-.7-.5h-.3l-.6.4s-.1 0-.1.1c0 0 0 .1.1.1l.6.4h.3l.7-.5zM9.6 44.8l-.7-.5h-.3l-.6.4-.1.1s0 .1.1.1l.6.4h.3l.7-.5zM9.6 42.7l-.7-.5h-.3l-.6.4s-.1 0-.1.1c0 0 0 .1.1.1l.6.4h.3l.7-.5zM9.6 40.6l-.7-.5h-.3l-.6.5-.1.1s0 .1.1.1l.6.4h.3l.7-.6zM9.6 38.6l-.7-.6h-.3l-.6.5s-.1 0-.1.1c0 0 0 .1.1.1l.6.4h.3l.7-.5zM9.6 36.5l-.7-.5h-.3l-.6.4-.1.1s0 .1.1.1l.6.4h.3l.7-.5zM9.6 34.4l-.7-.5h-.3l-.6.4-.1.1s0 .1.1.1l.6.4h.3l.7-.5zM9.6 32.3l-.7-.5h-.3l-.6.4-.1.1s0 .1.1.1l.6.4h.3l.7-.5zM9.6 30.2l-.7-.5h-.3l-.6.4-.1.1s0 .1.1.1l.6.4h.3l.7-.5zM9.6 28.1l-.7-.5h-.3l-.6.5-.1.1s0 .1.1.1l.6.4h.3l.7-.6zM9.6 80.2l-.7-.5h-.3l-.6.4s-.1 0-.1.1c0 0 0 .1.1.1l.6.4h.3l.7-.5zM9.6 78.1l-.7-.5h-.3l-.6.4-.1.1s0 .1.1.1l.6.4h.3l.7-.5zM9.6 82.3l-.7-.5h-.3l-.6.4-.1.1s0 .1.1.1l.6.4h.3l.7-.5zM9.6 84.3l-.7-.5h-.3l-.6.4s-.1 0-.1.1c0 0 0 .1.1.1l.6.4h.3l.7-.5zM9.6 86.4l-.7-.5h-.3l-.6.4-.1.1s0 .1.1.1l.6.4h.3l.7-.5zM9.6 76l-.7-.5h-.3l-.6.5-.1.1s0 .1.1.1l.6.4h.3l.7-.6zM9.6 74l-.7-.5h-.3l-.6.4-.1.1s0 .1.1.1l.6.4h.3l.7-.5zM9.6 71.9l-.7-.5h-.3l-.6.4-.1.1s0 .1.1.1l.6.4h.3l.7-.5zM9.6 69.8l-.7-.5h-.3l-.6.4-.1.1s0 .1.1.1l.6.4h.3l.7-.5zM9.6 67.7l-.7-.5h-.3l-.6.4-.1.1s0 .1.1.1l.6.4h.3l.7-.5zM9.6 65.6l-.7-.5h-.3l-.6.5-.1.1s0 .1.1.1l.6.4h.3l.7-.6zM9.6 63.5l-.7-.5h-.3l-.6.5-.1.1s0 .1.1.1l.6.4h.3l.7-.6zM9.6 61.5l-.7-.5h-.3l-.6.4s-.1 0-.1.1c0 0 0 .1.1.1l.6.4h.3l.7-.5zM9.6 59.4l-.7-.5h-.3l-.6.4-.1.1s0 .1.1.1l.6.4h.3l.7-.5zM9.6 57.3l-.7-.5h-.3l-.6.4s-.1 0-.1.1c0 0 0 .1.1.1l.6.4h.3l.7-.5zM9.6 26.1l-.7-.5h-.3l-.6.4-.1.1s0 .1.1.1l.6.4h.3l.7-.5zM9.6 24l-.7-.5h-.3l-.6.4-.1.1s0 .1.1.1l.6.4h.3l.7-.5zM9.6 21.9l-.7-.5h-.3l-.6.4s-.1 0-.1.1c0 0 0 .1.1.1l.6.4h.3l.7-.5zM9.6 19.8l-.7-.5h-.3l-.6.4s-.1 0-.1.1 0 .1.1.1l.6.4h.3l.7-.5zM9.6 17.7l-.7-.5h-.3l-.6.4s-.1 0-.1.1 0 .1.1.1l.6.4h.3l.7-.5zM9.6 15.6l-.7-.5h-.3l-.6.5s-.1 0-.1.1c0 0 0 .1.1.1l.6.4h.3l.7-.6zM9.6 13.6l-.7-.5h-.3l-.6.4-.1.1s0 .1.1.1l.6.4h.3l.7-.5zM9.6 11.5l-.7-.5h-.3l-.6.4s-.1 0-.1.1c0 0 0 .1.1.1l.6.4h.3l.7-.5zM91.8 9l-.6-.1-.1-.5v-.1h-.1l-.7.4c-.1 0-.1.2-.1.2l.1.8v.1h.1l.8.1c.1 0 .2 0 .2-.1l.4-.7c.1 0 .1 0 0-.1zM9.8 8.9c0-.1 0-.2-.1-.2l-.7-.4h-.1l-.1.1v.5l-.6.1s-.1 0-.1.1v.1l.4.7c0 .1.2.1.2.1l.8-.1h.1v-.1l.2-.9zM11.1 142l.5-.7v-.3l-.4-.6-.1-.1s-.1 0-.1.1l-.4.6v.3l.5.7zM13.2 142l.5-.7v-.3l-.4-.6-.1-.1s-.1 0-.1.1l-.4.6v.3l.5.7zM15.3 142l.5-.7v-.3l-.4-.6-.1-.1s-.1 0-.1.1l-.4.6v.3l.5.7zM17.4 142l.5-.7v-.3l-.4-.6-.1-.1s-.1 0-.1.1l-.4.6v.3l.5.7zM19.5 142l.5-.7v-.3l-.4-.6s0-.1-.1-.1c0 0-.1 0-.1.1l-.4.6v.3l.5.7zM21.6 142l.5-.7v-.3l-.4-.6-.1-.1s-.1 0-.1.1l-.4.6v.3l.5.7zM23.7 142l.5-.7v-.3l-.4-.6-.1-.1s-.1 0-.1.1l-.4.6v.3l.5.7zM25.8 142l.5-.7v-.3l-.4-.6-.1-.1s-.1 0-.1.1l-.4.6v.3l.5.7zM27.9 142l.5-.7v-.3l-.4-.6-.1-.1s-.1 0-.1.1l-.4.6v.3l.5.7zM30 142l.5-.7v-.3l-.4-.6s0-.1-.1-.1c0 0-.1 0-.1.1l-.4.6v.3l.5.7zM32.1 142l.5-.7v-.3l-.4-.6-.1-.1s-.1 0-.1.1l-.4.6v.3l.5.7zM34.2 142l.5-.7v-.3l-.4-.6-.1-.1s-.1 0-.1.1l-.4.6v.3l.5.7zM36.3 142l.5-.7v-.3l-.4-.6-.1-.1s-.1 0-.1.1l-.4.6v.3l.5.7zM38.4 142l.5-.7v-.3l-.4-.6-.1-.1s-.1 0-.1.1l-.4.6v.3l.5.7zM40.5 142l.5-.7v-.3l-.4-.6-.1-.1s-.1 0-.1.1l-.4.6v.3l.5.7zM42.7 142l.5-.7v-.3l-.4-.6-.1-.1s-.1 0-.1.1l-.4.6v.3l.5.7zM44.8 142l.5-.7v-.3l-.4-.6-.1-.1s-.1 0-.1.1l-.4.6v.3l.5.7zM46.9 142l.5-.7v-.3l-.4-.6-.1-.1s-.1 0-.1.1l-.4.6v.3l.5.7zM49 142l.5-.7v-.3l-.4-.6-.1-.1s-.1 0-.1.1l-.4.6v.3l.5.7zM51.1 142l.5-.7v-.3l-.4-.6s0-.1-.1-.1c0 0-.1 0-.1.1l-.4.6v.3l.5.7zM53.1 142l.5-.7v-.3l-.4-.6-.1-.1s-.1 0-.1.1l-.4.6v.3l.5.7zM55.2 142l.5-.7v-.3l-.4-.6-.1-.1s-.1 0-.1.1l-.4.6v.3l.5.7zM57.3 142l.5-.7v-.3l-.4-.6-.1-.1s-.1 0-.1.1l-.4.6v.3l.5.7zM59.4 142l.5-.7v-.3l-.4-.6-.1-.1s-.1 0-.1.1l-.4.6v.3l.5.7zM61.5 142l.5-.7v-.3l-.4-.6-.1-.1s-.1 0-.1.1l-.4.6v.3l.5.7zM63.7 142l.5-.7v-.3l-.4-.6-.1-.1s-.1 0-.1.1l-.4.6v.3l.5.7zM70 142l.5-.7v-.3l-.4-.6-.1-.1s-.1 0-.1.1l-.4.6v.3l.5.7zM72.1 142l.5-.7v-.3l-.4-.6-.1-.1s-.1 0-.1.1l-.4.6v.3l.5.7zM74.2 142l.5-.7v-.3l-.4-.6-.1-.1s-.1 0-.1.1l-.4.6v.3l.5.7zM65.8 142l.5-.7v-.3l-.4-.6-.1-.1s-.1 0-.1.1l-.4.6v.3l.5.7zM67.9 142l.5-.7v-.3l-.4-.6s0-.1-.1-.1c0 0-.1 0-.1.1l-.4.6v.3l.5.7zM76.3 142l.5-.7v-.3l-.4-.6-.1-.1s-.1 0-.1.1l-.4.6v.3l.5.7zM78.4 142l.5-.7v-.3l-.4-.6s0-.1-.1-.1c0 0-.1 0-.1.1l-.4.6v.3l.5.7zM80.5 142l.5-.7v-.3l-.4-.6-.1-.1s-.1 0-.1.1l-.4.6v.3l.5.7zM82.7 142l.5-.7v-.3l-.4-.6s0-.1-.1-.1c0 0-.1 0-.1.1l-.4.6v.3l.5.7zM84.8 142l.5-.7v-.3l-.4-.6s0-.1-.1-.1c0 0-.1 0-.1.1l-.4.6v.3l.5.7zM86.9 142l.5-.7v-.3l-.4-.6-.1-.1s-.1 0-.1.1l-.4.6v.3l.5.7zM89 142l.5-.7v-.3l-.4-.6-.1-.1s-.1 0-.1.1l-.4.6v.3l.5.7z"/></g></g></svg>