<svg version="1.1" xmlns="http://www.w3.org/2000/svg" xmlns:xlink="http://www.w3.org/1999/xlink" width="100px" height="170px" viewBox="0 0 100 170"><symbol id="b" viewBox="-35 -15.3 70.1 30.6"><path fill="#F7F8F8" d="M11-6.2c0-.1 0-.2-.1-.2-.5.3-2.2-.3-1.3-.9.4-.3 1-.1 1.3-.5l.2-.1c.1-.2.1-.4 0-.6 0-.1-.1-.2-.2-.3-.3-.3-.7-.4-1.1-.4-.1 0-1.2.3-.7.5.1-.1.2-.1.4-.2.3-.1.9-.1 1.1.2.1.1.1.2.1.4-.1.6-.9.5-1.3.7-.6.4-.3 1.2.3 1.5.2.1 1.3.4 1.3-.1zm2.3-.3c0-.1 0-.1-.1-.2-.4.1-.9 0-1.2-.3v-.4c-.2-1 .6-1.5 1.4-.9l.1-.1v-.1c0-.3-.6-.4-.8-.4-.6-.1-1 .3-1 .9-.1.9.6 2 1.6 1.6-.1 0 0-.1 0-.1zm2-1.7v1.5c0 .1 0 .2-.1.2-.4.3-.9-.3-1-.6v-1.5s-.1 0-.2-.1c-.3 0-.5 3.6.1 3.6h.1v-1.6c.1.4.5.6.9.6s.7-.2.6-.6c0-.4-.3-1.7.4-1.4.1-.1.1-.2 0-.3-.2-.1-.7-.1-.8.2zm2.8.4v.2c-.1-.5-.7-.7-1.1-.6-.6.1-.6 1-.5 1.5.1.6.7 1.2 1.4 1l.2-.3c0 .2.1.4.4.3v-1.3c0-.4-.1-1 .4-.7.1-.1.1-.2 0-.3-.3-.1-.8-.2-.8.2zm0 1.7c-.2.1-.3.1-.5.1-.6-.1-.8-.7-.7-1.3.1-.8.9-.9 1.2-.2v1.4zm2.4 1.7v-.1c-.2 0-.7 0-.7-.2-.1-.2-.1-.6-.1-.8l.6.1c0-.1.1-.2 0-.3-.1-.1-.4-.1-.6-.1v-1.7c0-.3 0-.7-.1-1-.1-.2-.8-.9-.9-.4v.1c.1 0 .5 0 .5.2.3.7.1 2 0 2.7h-.3c-.2.2.3.3.3.3 0 .4 0 .9.3 1.1.2.1 1 .4 1 .1zm2.3-2.9s0-.1-.1-.1c-.5-.4-1.5.6-1.5 1.1.2.3.3.7.6 1 .2.2 1.1.2.7-.1-.6.1-.7-.3-1-.8.2-.3.5-.8.8-1 .1-.1.3 0 .4 0l.1-.1zm-1.7-.4c-.5-.3-.4 1.2-.4 1.4 0 .3-.2 2 .2 2.1h.2v-3.5zm4.1 1.9v-.6c-.1-.3-.3-.7-.6-.8-.1-.1-.3-.1-.5-.2-1.1-.1-1.3 1.2-.8 2 .1.1.2.3.4.3.1.1.3.1.5.2h.4c.1 0 .2-.1.3-.2.2-.2.2-.4.3-.7zm-.4-.1c-.1.5-.6 1-1.1.6-.4-.3-.5-1.2-.1-1.6.3-.3.9-.1 1.1.3.1.2.2.4.1.7zm3 .5c.1-.5-.1-1.1-.6-1.4-.2-.1-.8-.3-1-.1v-1.2c-.5-.4-.4 1.1-.4 1.4v1.7l-.4-.1c-.1.1-.1.2 0 .3.2.1.7.2.7-.1v-.4c.3 1.1 1.6.8 1.7-.1zm-.3-.2c-.1.9-1 .8-1.3 0v-1.2c.2-.1.4-.1.6-.1l.3.1c.3.4.4.9.4 1.2zm2.2 2.4v-.1c-.2 0-.5 0-.6-.1l-.1-.1c-.1-.2-.1-.6-.1-.8l.6.1c.2-.3-.4-.4-.6-.4v-1.8c0-.4 0-.8-.2-1.1-.2-.3-1.1-.4-.8-.1.1 0 .5 0 .5.2.3.7.1 2 0 2.7h-.3c-.3.2.3.3.3.3 0 .4 0 .9.3 1.1.2.1.9.4 1 .1zm-18.7-7.5v-.1c-.2 0-.6 0-.7-.2-.1-.2-.1-.6-.1-.8l.6.1c.2-.3-.4-.4-.6-.4v-1.7c0-.3 0-.7-.1-1-.2-.5-1.1-.5-.9-.2.1 0 .5 0 .5.2.3.7.1 2 0 2.7h-.3c-.3.2.3.3.3.3 0 .7.2 1.6 1.1 1.3.1-.1.2-.1.2-.2zm2.3-2.8c.1 0 .2 0 .2.1l.1-.1c0-.1 0-.1-.1-.2-.4-.3-.8-.1-.7.4-.2-.7-1.5-1-1.4-.1v1.5l-.4-.1s0 .1-.1.1c0 .2.6.3.7.2.1-.1 0-.5 0-.5v-1.2c0-.4.6-.2.8-.1.1.1.2.2.3.4 0 .2-.1 1.9.4 1.6 0-.2-.2-1.9 0-2h.2zm-.2 2.9c0-.1 0-.1-.1-.2s-.4-.2-.4.1c0 .1 0 .1.1.2s.4.1.4-.1zm-1.1-.2c0-.2-.2-.3-.4-.3-.4.2.3.8.4.3zm3.5-.5c0-.1 0-.1-.1-.2-.6 0-.8-.4-1-.9 0-.4-.1-.8 0-1.2h-.2c-.3 0-.2 1.8-.2 2.1l-.4-.1c-.3.2.8.7.7.2v-.7c.1.3.4 1.4 1 1 .1-.1.1-.2.2-.2zm3.6 1.3c0-.1 0-.1-.1-.1-.3-.2-1.1-.2-1.5-.2v-1.1l1.2.1v-.1c0-.3-1-.3-1.2-.3v-1.4c-.1 0-.1 0-.2-.1h-.1c-.1.1-.1.6-.1.7v2.1h-.4c-.2.3 2 .5 2.3.6l.1-.2zm1.8-.6c0-.1 0-.1-.1-.2h-.4c-.3 0-.5-.7-.6-.9v-1.2s-.1 0-.2-.1c-.3 0-.2 1.8-.2 2.1l-.2-.1c-.3.2.8.7.7.2v-.7c.1.3.2.6.3.8.1.2.7.4.7.1zm2.1-.1c.1-.8-1-.9-1.5-.9v-.1c.1-.9.9-.8 1.5-.4.2-.1 0-.3-.1-.4-1-.7-1.9.2-1.7 1.3.1.7 1.7 1.6 1.8.5zm-.3-.1c-.1.5-.7.3-.9.1-.2-.2-.2-.4-.3-.6.3-.1 1.3 0 1.2.5zm3-1.1c.1 0 .2 0 .2.1.2-.1-.9-.9-.8.1-.2-.7-1.5-1-1.4-.1v1.5l-.4-.1c-.3.2.5.4.7.3.2-.2 0-1.5 0-1.8 0-.3.2-.3.4-.3.3 0 .6.3.7.6 0 .2-.1 1.9.4 1.6.1-.2-.1-2 .2-1.9zm2.8.3c.1 0 .2 0 .2.1.3-.1-.7-.8-.8-.1v1.5c0 .1 0 .2-.1.2-.4.3-.9-.3-1-.6 0-.5-.1-1 0-1.5-.1 0-.1 0-.2-.1-.3 0-.2 1.8-.2 2.1l-.4-.1c-.3.2.5.4.7.3 0 0 .1-.1 0-.2v-.4l.1.3c.2.3.9.7 1.3.4.1-.1.2-.3.2-.4 0-.2-.2-1.4 0-1.5h.2zm3 .3c0-.1 0-.1-.1-.2-.5-.3-.7 0-.7.4-.1-1-1.5-.8-1.6.1-.1.6 0 1.2.6 1.5.2.2.8.3 1 0 0 .2-.2 1.6.4 1.4 0-.3-.3-3 0-3.2.1 0 .3 0 .4.1v-.1zm-.8 1.8c-.4.1-.9 0-1.1-.4-.1-.2-.2-.5-.1-.9.1-.5.4-.9.9-.5l.3.3v1.5zm3 .2c.1-.8-1-.9-1.5-.9v-.1c.1-.9.9-.8 1.5-.4.4-.2-.4-.5-.5-.5-.4-.1-1-.1-1.2.3-.5.9.1 2.3 1.3 2.1.1 0 .2 0 .2-.1.1-.2.2-.3.2-.4zm-.3-.1c-.1.7-1 .1-1.1-.2 0-.1-.1-.2-.1-.4.3 0 1.2 0 1.2.6zm1.6-1.4c0-.2-.3-.4-.5-.3-.3.2.1.7.4.4.1.1.1 0 .1-.1z"/><g><path fill="#2D2305" d="M18.2-.7m-2.3 0l.1 2.7c-.7-.9-1.4-1.8-2-2.7-.3-.4-.3-.6.2-.7.6-.1.7.2.9.8.3-.1.5-.1.8-.1zm-9.2-1.5c.3 1.1.3 3.3-1.3 2.9v-2.6c.4 0 .8-.2 1.3-.3zm1.7 3.9c.4.5.8.9 1 1.6l-.8-.1c.4.8.7 1.5.8 2.3l2.4.3c-.3-.8-.7-1.6-1.2-2.4l-.8-.1c1.9-.7 1.3-3.1 1.3-4.7.2 0 .4 0 .6-.1-.1 1.3.2 2.5-.1 3.8l.2.4c1 .2 1.9.5 2.8 1.1.5-.4 1-.8 1.5-1.1.1 1.2-.1 2.3-.1 3.5.9.1 1.7.5 2.5.9-.2-1.5-.4-2.9-.4-4.4v-2.2c0-.1.1-1.4.1-1.4l.3.5.7-.6c-.5-.8-.9-1.6-1.3-2.4-1.1.2-1.8.7-2 1.8-.3-.7-1.1-1.3-1.1-2.1-.5-.1-.9-.1-1.3 0-.8.1-1.5.4-1.8 1.2-.2-.6-.5-1.2-.9-1.7-.3 0-.6 0-.9.1-.4.3-.7.6-.8 1.1-.3 1.3 0 2.7-.1 4v.2h-.3c.9-2.4-1.4-4.2-2.1-6.3-.4.5-.8.7-1.3.9 0-.7 0-1.5.2-2.2-.8-.3-1.5-.6-2-1.3l-.6.4c.3 1 .2 2 .2 3l-.8-.4c.1.9.2 1.6.9 2.1 0 .8.1 1.6 0 2.4-.1.7-.5.8-1.1 1 .3.3.6.6.9 1 .3.3.3.7.7.9h.5c.3 0 .6-.1.8-.3.1-.1.2-.2.2-.4.3.3.5.6.6 1 1.1-.1 2-.4 2.6-1.3zm-7.3-4.4c0 .4-.2 1.1-.7 1.2-.4.1-.9-.7-1.1-1 .7 0 1.2-.2 1.7-.6.1.1.1.2.1.4zm-1.2 2.6c-.1 0-.8.3-.9.1-.1-.3.1-.9.5-.6.2.1.3.3.4.5zm-6.1 0l-.4.1c.1-.9-.1-1.9-.1-2.8 0-.7.2-1.5.9-.7 0 .7.5 3-.4 3.4zm-5.8-1.1c-.3 0-.6 0-.8.1 0-.4-.3-3.4.1-3.4.2 0 .5.1.6.3-.1.9 0 2 .1 3zm3.1-2.7c0 .7 0 1.3.1 2 0 .9.1 1.2-.8 1.3-.2-1-.2-2-.1-3l.2.3c.1-.2.3-.4.6-.6zm-8.6-1c1.1 1.4.2 2.9-1.5 3-.8-.6-1.5-1.3-2.1-2.1 1.3-.1 2.4-.7 3.6-.9zm-1.1 5.2c-.6.1-1.3.3-1.8.6-.2-.2-.4-.3-.5-.5-.7-.9.1-1.3.9-1.5.5.5 1 .9 1.4 1.4zm3.7-1.4c0 .3 0 .6-.1.9.5.1 1 .1 1.5.3.4.2.8.5 1.1.8 1.1-.2 2-.2 3 .2-.1-.4-.1-.8-.2-1.1.6.4 1 .9 1.4 1.6.8-.3 1.5-.6 1.6-1.5.7.6 1.3 1.2 1.8 1.9.8-.6 1.3-1.1 1.3-2.1l-.1-2.9v-.1s.1.3.2.3c.3-.2.6-.3.8-.4l.6.7c-.6.5-.9 1.1-.9 1.9.5 1.1 1.6 1.7 2.2 2.7.7.3 1.4-.2 2.1-.1l.2.5c.3-.1.5-.1.9-.1v-.3c0-.6-.4-1.2-.7-1.7 1.4-.6 1.4-2.1.6-3.4-.5-1.1-1.4-1.9-2-3-.4.8-1.5 1.7-2.5 1.1l.1-.4c-.3-.2-.6-.3-.9-.3-.3.4-.4.7-.3 1.2-.3-.5-.6-.9-1-1.4-.6.1-1.2.4-1.5 1l-1-1.1-.3-.1c-.9.2-1.8.8-2 1.7-.5-.8-1.1-1.5-1.8-2.2-.4.3-.7.7-.9 1.1l-1.8-1.5c-.5.4-1.1.8-1.4 1.4-.3.7-.1 1.4-.1 2.1-.6-1.4-2.1-2.4-2.5-3.9-.9 0-1.8.3-2.7.5-.6.3-1.8.8-2.6.4-.2-.1.2-.4.2-.4-.2-.3-.4-.6-.8-.7-1.5 1.4.4 3.1 1.4 4.3-1.8.9-2.3 3-.6 4.3l2.1 1.3c.4.4.3.9.3 1.4.8-.6 3.5-2.2 3.5-.3.1 0 .3 0 .4.1.2.1.4.3.5.4.1-.7.3-1.3 0-2-.2-.7-.7-1.2-1.2-1.8.7-.2 1.6-.6 2.1-1.3zm28.7 2l.3.3c-.1.1-.2.1-.2.2 0-.1-.1-.3-.1-.5.1.1 0 .2 0 0z"/><path fill="#D5E5B5" d="M18.9-1.1l-.4.3c-.1-.1-.2-.2-.2-.3-.3-.4-.5-.3-.6.1-.2 1.1-.1 2.5 0 3.7 0 1.3.1 2.6.3 3.9-.6-.2-1.2-.6-1.8-.7 0-1.1.2-2.1.1-3.2-.1-1.3-.3-2.7-.1-4 .1-1 .5-1.7 1.6-1.9.3.8.7 1.5 1.1 2.1zm-4.4 2.4l-1-1.3.1 2.1c.3-.3.6-.6.9-.8zm1.5 1.1c-.6.3-1.1.6-1.5 1-.6-.4-1.5-.8-2.6-1l-.1-.2.1-4.2c.2-1.3 1.5-1.6 2.7-1.5 0 .7 1 1.7 1.3 2.4-.2 0-.4 0-.6.1-.1-.2-.1-.3-.2-.4-.2-.4-.7-.4-1.1-.3-.8.2-.5.7-.2 1.2.7 1 1.5 2 2.2 2.9zm-4.3-4.3l-.1.2h-.3c-.2-.4-.5-.6-.5 0 0 1.5.7 4.1-1.1 4.7-.1-.3-.5-.8-1.1-1.5h.4c.3 0 .3-.2.3-.5.1-1.5-.8-4.7 1.4-4.8.4.5.7 1.1 1 1.9zm-.4 7.4l-1.7-.2c0-.4-.2-1-.5-1.7l1.3.2c.4.5.7 1 .9 1.7zm-4.5-8.1c-.6.3-1.2.4-1.7.5v3.1c.8.2 1.5.2 1.8-.7.3-.9.3-2-.1-2.9zm1.6 3.8c-.4.9-1.4 1.4-2.4 1.5-.1-.4-.5-.8-.9-1.1-.2.7-.6.9-1.3.9-.4-.4-.8-1-1.2-1.5.3-.1.6-.2.7-.5.4-.9.2-2.3.1-3.2-.5-.4-.8-.9-.8-1.5l.8.3c0-1 .2-2.3-.2-3.2l.2-.1c.5.5 1.1.8 1.7 1.1-.1.4-.1 1.2-.1 2.3.6-.2 1.1-.4 1.5-.7.4 1.1 1.2 1.8 1.7 2.8.4.8.6 2 .2 2.9zm-7-3.9c0-.3-.1-.6-.4-.8-.6.6-1.3.8-2.2.8.3.5.9 1.4 1.5 1.6.7.1 1.1-1 1.1-1.6zm-1 2.8c-.2-.3-.6-1-1-1-.8-.1-1 1.5 0 1.3.3-.2.7-.3 1-.3zm2.3-1.5c0 1-.7 1.4-1.4 1.7.6.8.9 1.4.9 1.8h-.4c-.2-.2-.2-.4-.4-.4-.6 0-1.3.4-1.9.2-.5-.9-1.6-1.5-2.1-2.5 0-.9.3-1.3 1-1.8-.5-.6-1.9-2.1-1.1-3 .2 0 .3.1.4.2-.3.6.4.7.9.7.7 0 1.4-.3 1.8-.9.7 1.3 2.3 2.4 2.3 4zm-5.5-2l-.4.2c-.1-.3-.2-.4-.3-.4-.3 0-.3.6-.3.8l.1 2.7c0 .9-.3 1.2-1 1.7-.4-.5-.8-1-1.4-1.4.6-.3.6-.9.6-1.5 0-.8 0-1.5-.1-2.3-.3-.3-.6-.7-1-.5-.2.1-.4.5-.4 1.2 0 1.4.8 3.6-1.1 4-.3-.5-.8-1-1.4-1.5.5-.1.9-.2.9-.8-.1-1-.2-2-.1-3 .1-.5.4-.8.8-1.2.3-.2.6-.4 1-.4h.1l1.3 1.5c.2-.7.6-1.1 1.3-1.2.4.7.9 1.4 1.4 2.1zm-8.8 2.5c-.2-1-.3-2.4-.1-3.4-.1-.3-.6-.5-.9-.5-.4 0-.6.2-.6.6 0 1.2.2 2.3.1 3.4.5-.1 1-.2 1.5-.1zm2.5-3.3l-.1.2c-.2 0-.3.1-.3.2-.2-.3-.3-.5-.3-.5s-.1.1-.1.2c-.4 1.7 0 3.1.3 4.7-.9-.3-1.8-.2-2.6-.1-.8-.8-1.3-.9-2.4-1 .1-.8.1-1.6.1-2.4 0-.9-.3-2 .2-2.7.3-.4.6-.7 1-.9 1 .7 1.6 1.2 1.9 1.6.2-.5.5-.9.9-1.2.4.5 1 1.2 1.4 1.9zm-8.3-1c-1.5.1-2.8.9-4.3.9.7.9 1.6 1.9 2.6 2.6.4 0 .8-.1 1.4-.4.6-.4 1-.8 1-1.4 0-.6-.3-1.2-.7-1.7zm-.6 5.8c-.6-.7-1.3-1.4-1.9-2-1.1.3-1.6.7-1.6 1.2 0 .4.4.9 1.1 1.5.7-.5 1.6-.7 2.4-.7zm3.1-2.7c0 .6-.3 1.1-.9 1.5-.3.2-.8.5-1.7.7.9 1 2 1.9 1.7 3.3-.2-.1-.3-.2-.5-.2 0-1.8-2.7-.5-3.5 0 0-1.4-1.7-1.7-2.6-2.4-.6-.5-1-1.2-.9-2 .1-1 1-1.5 1.8-1.9-.7-.9-3-2.9-1.8-4 .2.1.3.2.4.3-.1.1-.2.2-.2.3 0 1.2 4.8-.5 5.5-.5.5 1.8 2.7 2.9 2.7 4.9z"/><path fill="#959E80" d="M-20.4-1.3c-.7.3-1.1.6-1.1 1.1 0 .5.6 1.1 1.1 1.5-.9-.1-1.8-1-1.8-1.6 0-.8 1.5-1.3 2.4-1.1-.3 0-.4 0-.6.1zm3-3.9c-1.5.1-2.8.9-4.3.9.8.9 1.6 1.9 2.6 2.6-1.3-.3-2.3-1.7-3.1-2.7.7 0 1.4 0 2.1-.2.9-.3 1.7-.6 2.7-.6zm-5.9-1.9c.2.1.3.2.4.3-.1.1-.2.2-.2.3 0 .2.1.3.2.3-.3-.1-.6-.4-.4-.9zm8.4 5c0 .6-.3 1.1-.9 1.5-.3.2-.8.5-1.7.7.9 1 2 1.9 1.7 3.3-.2-.1-.3-.2-.5-.2.4-1.1-1.3-2.5-2-3.2.9-.2 1.5-.5 1.7-.7.6-.4.9-.9.9-1.5 0-1.9-2-3-2.7-4.7l.7-.1c.6 1.8 2.8 2.9 2.8 4.9zm1.2-4.2c.1-.1.2-.2.3-.2.7.5 1.3 1 1.9 1.6-.4-.3-1.5-.9-2.2-1.4zm-1 5.9zm3.8-5.5l.3-.3c.6.6 1.1 1.2 1.6 1.9l-.1.2c-.3.1-.4.2-.4.3.1-.6-.9-1.6-1.4-2.1zm1 1.7c-.2.2-.2 1.7-.1 2.5.1 1.1.2 1.5.4 2.4l-.8-.2c-.3-1.8-.7-3.2.5-4.7zm-3-.6c-.2.1-.3.3-.3.5 0 1.2.2 2.3.1 3.4-1 .2-.7-2.9-.7-3.5 0-.8.8-.6 1.3-.5-.3.1-.4.1-.4.1zm10.1 1.4l-.4.2c-.1-.8-1.1-1.5-1.6-2.1.2-.1.3-.2.5-.2l1.5 2.1zm-1 0c-.2.9 0 1.9 0 3.1 0 1.2-.1 1.2-1 1.9l-.3-.5c.8-.7.5-1.9.5-2.9s-.1-1.7 1-1.8c-.1 0-.2.1-.2.2zm-2.8-.7c-.7.5 0 3-.2 4.1l-.1.5c-.2.4-.6.5-1 .7-.2-.1-.3-.2-.3-.3.2-.1.3-.3.4-.5.5-.9 0-2.4 0-3.4 0-1.1.3-1.3 1.4-1.2-.1.1-.2.1-.2.1zm-.7-1.6l.4-.1c.5.2 1.1 1.1 1.4 1.5l-1.8-1.4zm6.3 4.8c-.3.2-.5 1.1.1 1.2-1.5 0-1.1-1.4.3-1.3-.2 0-.3.1-.4.1zm-1.7-4.5c.2 0 .3.1.4.2-.1.3 0 .5.3.6-.3 0-1-.4-.7-.8zm1 2.5c.9 0 1.7 0 2.8-.6-.9 1-2.3.8-2.3.8.1.1 1.1 1.5 1.6 1.6-.9-.1-1.6-1.1-2.1-1.8zm4.4 1.5c0 1-.7 1.4-1.4 1.7.6.8.9 1.4.9 1.8h-.4c.1-.5-.5-1.4-.9-1.9 2.7-1.1.3-3.7-.9-5.1.2-.1.3-.3.4-.5.7 1.3 2.3 2.4 2.3 4zm5.7 2.6c-.4.9-1.4 1.4-2.4 1.5 0-.1 0-.1-.1-.2.7-.2 1.4-.7 1.7-1.4 1-2.4-1.2-4.4-1.7-5.2.2-.1.4-.2.6-.4.7 1.6 2.9 3.4 1.9 5.7zm-3.3.4c-.2.7-.6.9-1.3.9l-.1-.1c.5-.1.6-.5.7-.9.2-.1.5 0 .7.1zm-1.7-8.4l-.1-.3.2-.1c.5.5 1.1.8 1.7 1.1-.2.7-.2 1.5-.2 2.3-1.2.3-.7-2-.6-2.5-.4-.2-.7-.3-1-.5zm2.8 4.5c-.4.1-.8.1-1.1.2v3.1c-.5-.2-.8-.4-.8-1v-2.2c.5 0 1.5-.2 2.5-.3-.1 0-.5.1-.6.2zm5.5.4l-.1.2h-.3c0-.7-.7-1.7-1.2-2.1.2-.1.4-.1.6-.1.4.6.7 1.2 1 2zm-.9.2c0 1.5.7 4.1-1.1 4.7 0-.1-.1-.2-.2-.4 1.5-1-.6-4.1 1.4-4.7-.1.1-.1.3-.1.4zm.5 7.2l-.8-.1c-.2-.6-.5-1.2-.9-1.8l.8.1c.4.6.7 1.1.9 1.8zm4.7-3.1c-.6.3-1.1.6-1.5 1l-.5-.3c.4-.3 1-.7 1.4-.9l-2.2-2.9c-.5-.8.3-1 1-1.1-1.3.2-.5 1.1 0 1.7.6.9 1.2 1.7 1.8 2.5zm-2.2-5.8h.8c0 .7 1 1.7 1.3 2.4-.2 0-.4 0-.6.1 0-1.1-.9-2-1.5-2.5zm-.3 3.4c0 .1.1 1.9.1 2.1-1.1.5-.9-2.7-.1-2.1zm5.4-1.1l-.4.3c-.1-.8-.8-1.7-1.3-2.1.2-.1.4-.2.6-.2.3.7.7 1.4 1.1 2zm-1.2.7c-.1 2.4.1 4.8.4 7.2l-.9-.4c-.3-2-.3-4.1-.3-6.2 0-.8.1-1.5 1-1.5-.1 0-.2.6-.2.9z"/><path fill="#F7FAF0" d="M-20.3 1.6c.5.3.7.4.8 1 .5-.3.9-.4 1.5-.6-.8-.1-1.6-.2-2.3-.4zm19.2-.9c.3.3.6.7.8 1 .5-.2.9-.3 1.4-.3-1.1-.5-1.4-.5-2.2-.7zm-21.3-.3c-.9-1.1-.7-2.3.6-3-.7 1-.8 1.8-.6 3zm9.3-.8l.9.6.7-.1-.1-.4c-.5 0-1 0-1.5-.1zm5 .8l-.6-.5c.4-.2.5-.5.5-.9.2.6.4.9.1 1.4zm3 .3l-.6-.5c.4-.2.5-.5.6-.9.1.7.3.9 0 1.4zm3.5-2.8c-.4.5-.6.8-.6 1.5.3-.4.7-.7 1.1-1l-.5-.5zm5.3 2.2c-.1.6-.1.7-.6 1 .4.3.5.5.8.9.2-.8.1-1-.2-1.9zm-.8-3.9c.1.4.2.7.6.9 0-.6 0-.6-.6-.9zm6.2 5.5c.5-.1.4-.3.5-.8.2.7.2 1.1 0 1.5l-.5-.7zm.5 2.5c.2.4.2.6.3 1l.6.1c-.3-.5-.6-.8-.9-1.1zm2.6-4.2c.1.8.1 1.5 0 2.2l1.5.5c-1.2-.8-1.1-1.3-1.5-2.7zm4.2 5.8c.1-1 .2-2 .1-3 .3 1 .3 2 .4 3.1l-.5-.1z"/></g><g><path fill="#321102" d="M-25.7-.1c.6.8.3 1.8-.2 2.5.8 1.2 1.5 3.2.1 4.4-.7.6-1.9.6-2.7.1l-2.3 2c-1.1.9-2.7.8-3.6-.3-.9-1.1-.8-2.7.3-3.6l2.3-2c-.4-.9-.3-2 .5-2.7 1.3-1.1 3.1-.3 4.2.7.2-.5.1-1.1.1-1.6.4 0 .8 0 1.3.5z"/><path fill="#479335" d="M-28.4 6.2c.8-.8.9-2.1.1-3-.8-.9-2.1-1-3-.4.7-.1 1.6.3 2.2 1 .7.8.9 1.7.7 2.4zm-.2.2l-2.9-3.4c-.5-.8-.4-1.9.3-2.5 1.1-.9 2.8-.3 4 .9.4-.5.3-1.1.3-1.8.3 0 .7.1.9.4.6.7.2 1.7-.4 2.3 1 1.4 1.4 3.2.3 4.1-.7.7-1.8.6-2.5 0z"/><path fill="#8E0D10" d="M-34.2 8.3l5.1-4.4c.6.7.9 1.7.7 2.4l-2.6 2.2c-1 .8-2.4.7-3.2-.2z"/><path fill="#FFDB2A" d="M-29.1 3.9l-5.1 4.4c-.8-.9-.7-2.4.2-3.2l2.7-2.3c.8-.1 1.7.4 2.2 1.1z"/><path opacity=".3" fill="#1D1D15" d="M-34.2 8.3c.8.9 2 .3 2.8-.3l1.6-1.3c.6-.5 1.2-1.1 2.1-1.8 0 .5-.3 1-.6 1.4.4.3 1.2.3 1.5-.1 1.2-1 .4-3.3 0-4.4.1.1.4.3.5.5.4-.8.8-1.7-.5-2.6.3 0 .7.1.9.4.6.7.2 1.7-.4 2.3 1 1.4 1.4 3.2.3 4.1-.7.6-1.8.5-2.5-.1l-2.5 2.1c-1 .8-2.4.7-3.2-.2z"/><path opacity=".6" fill="#fff" d="M-33.5 7.7c.2.3.6.4.9.5-.9-1.2.7-3.8-.6-2.7-.7.5-.9 1.5-.3 2.2z"/><g><path fill="#321102" d="M-21.1 6.9c1.3.7 1.9 2.3 1.2 3.6-.8 1.6-2.9 1.9-4.9 2.3-.7.1-1.3.2-1.9.4l-.8-1.8c-.9-1.8-1.9-3.7-1.1-5.3.6-1.2 2.2-1.8 3.6-1.1.5.2.9.5 1.2 1 .5-.9 1.3-2.1 2.5-1.5.5.3.7.8.8 1.3-.6 0-1.5.2-2 .7.5.1 1 .2 1.4.4z"/><path fill="#0B4618" d="M-23.8 6.6c0-.1.1-.2.2-.3.5-1 1.2-2.1 2.2-1.6.3.2.5.5.6.8-1.4.4-1.7.4-2.3 1.4.5-.1 1.1 0 1.8.3 1 .5 1.7 1.9 1.1 3.2-.9 1.9-4.2 1.9-6.4 2.5.4-.3.6-.6.5-1.1.7-.4 1.2-1.1 1.6-1.8.4-.8.5-1.6.5-2.4.1-.4.1-.7.2-1z"/><path fill="#3D8F34" d="M-26.5 12.9c-.9-2.1-2.8-4.7-1.9-6.6.7-1.4 2.2-1.6 3.2-1.1.6.3 1 .7 1.3 1.1.1.1.1.2.1.3-.1.3-.2.6-.1 1.1-.7.4-1.2 1.1-1.6 1.8-.4.8-.5 1.6-.5 2.4 0 .4-.1.7-.5 1z"/><path fill="#0A3213" d="M-26.5 12.9c2.2-.6 5.4-.6 6.4-2.5.7-1.4-.1-2.7-1.1-3.2 1 .5 1.2 2 .7 2.9-1.2 1.9-4.4 2.2-6 2.8z"/><path fill="#0A3213" d="M-23.1 6.9c.3-1.1.9-1.7 2-2l.3.5c-1.4.5-1.7.5-2.3 1.5z"/><path fill="#B2D1AF" d="M-27.1 6.2c-.4.3-.6.7-.7 1.2-.1.6.2 1.3.4 1.9.1.3.2.6.4 1-.1-1.2.5-4.7-.1-4.1z"/></g><g><path fill="#321102" d="M-18.1 14.5c-.6.5-1.3.7-2 .7-1.7-.1-2.8-1.6-2.7-3.3.1-1.2 1.1-2.5 2.3-3.7 1-1 2.1-1.9 3-2.9.8 1.1 1.8 2.1 2.7 3.2 1 1.3 1.9 2.7 1.8 3.9-.1 1.6-1.4 3-3.1 2.9-.8 0-1.5-.3-2-.8z"/><path fill="#82050D" d="M-17.6 5.8c1.2 1.6 4.3 4.6 4.2 6.7-.1 1.5-1.3 2.7-2.8 2.6-.8 0-1.5-.4-1.9-1l.5-8.3z"/><path fill="#BC0917" d="M-18.1 14c-.5.5-1.2.8-2 .8-1.5-.1-2.6-1.4-2.5-2.9.1-2.1 3.6-4.7 5-6.1l-.5 8.2z"/><path fill="#5E030A" d="M-16.2 15c1.3.1 2.1-1.3 2.1-2.4.1-2.2-2.2-5.3-3.5-6.9 1.2 1.6 4.3 4.6 4.2 6.7-.1 1.6-1.3 2.7-2.8 2.6z"/><path fill="#E39DA2" d="M-20 13.9c.4 0 .8-.1 1.1-.4-1.3 0-2.4-1-2.5-2.3-.1.3-.2.5-.2.7-.1 1 .6 1.9 1.6 2z"/><path fill="#CC9B9E" d="M-16.1 14.2c.4 0 .8-.1 1.1-.4-1.3 0-2.4-1-2.5-2.3-.1.3-.2.5-.2.7-.1.9.5 1.9 1.6 2z"/></g><g><path fill="#321102" d="M-9.5 14c2.5-.9 3.8-3.7 2.9-6.3-.9-2.5-3.7-3.9-6.3-2.9-2.5.9-3.8 3.7-2.9 6.3 1 2.5 3.8 3.8 6.3 2.9z"/><g><path fill="#FFD92A" d="M-8.4 5.7c-1.2-.9-2.8-1.2-4.4-.7-1.5.6-2.6 1.8-2.9 3.3 1.3-.1 2.6-.4 3.8-.9 1.3-.3 2.5-.9 3.5-1.7zm-.9 7.2c.3-.4.5-.9.3-1.3-.2-.7-1-1-1.6-.8-.7.2-1 1-.8 1.6.2.5.6.8 1.1.8.3 0 .4.2.5.5-2.3.7-4.8-.5-5.7-2.8-.2-.6-.3-1.2-.3-1.8 1.4-.1 2.8-.4 4.2-.9 1.4-.5 2.6-1.2 3.8-2 .4.4.7.9.9 1.5.8 2.3-.3 4.9-2.5 5.8-.1-.2-.1-.4.1-.6z"/><path fill="#43A930" d="M-9.9 5.3c-.9-.3-1.8-.3-2.7.1-.9.3-1.6.9-2.1 1.7l.2.2c.1.1.2.2.4.1.1 0 .3-.1.3-.2l.6-.9.9.6c0 .1.1.1.3.1.1 0 .2-.1.3-.3l.3-1 1 .3c.1 0 .3 0 .4-.1.1-.1.2-.2.2-.3l-.1-.3z"/></g><path opacity=".3" fill="#1D1D15" d="M-9.4 13.6c2.2-.9 3.4-3.5 2.5-5.8-.9-2.4-3.5-3.6-5.9-2.7 2.2-.8 4.5 1.1 5.2 3.1.7 1.8.3 4.7-1.8 5.4z"/><path fill="#FFEFAD" d="M-9 12.5c.3-.3.6-.6.8-1-.2.1-.5.2-.7.2 0 .3 0 .6-.1.8zm-2.5-.8c-1.3-.3-2.5-1.2-3.2-2.4 0 .5 0 1 .2 1.5.6 1.6 2.2 2.7 3.9 2.5-.4-.1-.7-.4-.8-.8-.1-.3-.1-.5-.1-.8z"/></g></g></symbol><symbol id="a" viewBox="-21.6 -3.1 43.2 6.2"><path fill="#247B47" d="M-21.6-3.1v6.2h43.2v-6.2h-43.2z"/><path fill="#0E4220" d="M-11.1 1.2c.1 0 .4 0 .4-.1.2-.9-.5-1.7-1.1-2.3h-.4l-.2 1.4c-.1-.5-.4-1.1-.8-1.4h-.4l-.4 2h-.2v.30000000000000004c.2.1.4.1.5 0l.4-2.1c.4.6 1 1.3.8 2.1.1.1.2.1.4 0l.3-2.1c.3.7.9 1.3.7 2.2zm2.4-.4c0 .1-.1.2 0 .3.1.1.2.1.3 0 .2-.6.2-1.4.2-2.1.5.6 1.1 1.3.9 2.1.1 0 .3 0 .4-.1.2-.9-.5-1.7-1.1-2.3h-.4l-.2 1.4c0-.5-.5-1-.8-1.4h-.4l-.3 2h-.3v.2c.2.1.3.1.5 0 .3-.3.3-1.2.4-1.9.3.5.9 1.2.8 1.8zm-7.6.2v.2c.1.1.2.1.4 0l.3-2.1.9 1.3v.8h.1c.1 0 .1 0 .1-.1.2-1-.5-1.5-1-2.3h-.5l-.1 1.4c-.1-.5-.4-1.1-.8-1.4h-.4l-.3 2h-.4l-.1.2.1.2c.2.1.4.1.5 0l.4-2.1c.4.6.8 1.1.8 1.9zm27.7 1.3l.2-.1-.4-3 .1-.1h.3v-.2l-.1-.1c-.2-.1-.4-.1-.7 0-.3 1 .2 2.4.4 3.4l.2.1zm-3.5-.3l-.1-.2s-.1-.1-.2-.1l-.1.1-.1.1.1.2.2.1h.1l.1-.2zm.8-1.8c.3 0 .9-.1 1.1.1.2 0 .2.1.2.3l-.1.2c0 .1-.2.1-.3.1-.5 0-.8-.3-.9-.7zm.4.9c.2.1.6.1.9.1l.3-.3v-.3c0-.5-.3-.7-1.1-.7h-.5c0-.6.2-.9.6-.9.3 0 .5.1.8.2l.1-.1c0-.1-.1-.2-.2-.2-.7-.5-1.7 0-1.7.8.1.6.2 1.1.8 1.4.1 0-.2-.1 0 0zm-1.4-.2l-.3-1.7.1-.1h.3v-.30000000000000004c-.1-.1-.5 0-.7 0-.1.7.1 1.4.2 2.1h-.4v.1l.1.1c.2 0 .4.1.6 0l.1-.2zm-3.8 0c0-.1-.1-.1-.2-.2-.1.2-.3.2-.5.2s-.3 0-.4-.1c-.1-.1-.1-.3-.1-.4.3-.3.9-.3 1.1-.8 0-.2-.1-.5-.2-.7-.4-.3-1-.2-1.4 0l-.2.2.2.2c.2-.2.5-.2.8-.3l.3.1.2.2-.1.3c-.5.3-1.3.4-1 1.2.4.4.8.4 1.4.3.1 0 .1-.1.1-.2zm-2.1-1.9l-.2-.2c-.1-.1-.4 0-.6 0-.1.1-.1.4-.1.5 0-.2-.2-.3-.3-.4-.4-.1-.6-.1-1 0-.3.3 0 1.6.1 2h-.4v.1l.1.2c.2.1.4.1.7 0 0-.3-.3-2-.2-2 .1-.1.2-.2.3-.2.4.1.5.3.8.5.1.5.1 1.1.3 1.6l.2.1.2-.1c-.2-.7-.3-1.3-.4-1.9l.1-.1h.4v-.1zm3.8 1.9c-.1 0-.2 0-.3-.2-.2-.1-.3-.2-.4-.4l-.1-1.1c.3-.2.6-.2.9-.1.3.3.7 1.2.3 1.6-.1.1-.2.2-.4.2zm.9-.7c0-.9-.8-1.8-1.8-1.3l-.1-1.1-.2-.1-.1.1c-.2.4 0 .8.1 1.2.1.6.2 1.2.3 1.9h-.4v.1l.1.2c.2.1.4.1.7 0 0-.2 0-.4-.1-.5 0 .1.1.2.2.3.3.3.8.2 1.1-.1.1-.2.2-.4.2-.7zm-8.6.7c-.3 0-.5-.1-.6-.3-.2-.3-.4-1.1-.1-1.4.1-.5.9 0 1.1.2l.2 1.4-.6.1zm.9.2c-.1-.6-.4-1.5-.2-2h.4v-.1l-.1-.1c-.2 0-.4-.1-.6 0 0 0-.1.1-.1.2v.2l-.4-.4-.5-.1c-1.4 0-.6 1.9 0 2.3.3 0 .6.1.9 0 .2 0 .2-.1.2-.2l.1.2c.1.1.2.1.3 0zm-4.9-2.2l-.2-.1h-.2v.4c.2.1.3.1.5 0v-.1l-.1-.2zm2.4 2l-.1-.2c-.2.2-.4.2-.6.2-.2 0-.3 0-.4-.1-.1-.1-.1-.3-.1-.4.3-.3.9-.3 1.1-.8 0-.2-.1-.4-.2-.6-.4-.3-1-.2-1.4 0l-.1.2.2.2c.1-.3.4-.3.7-.4l.4.1c.1.1.1.2.1.2l-.1.2c-.5.3-1.2.4-1 1.2.4.4.8.4 1.4.3.1.1.1 0 .1-.1zm21.9-.3c0-.5-.3-.7-1.1-.7h-.6v-.1c0-.5.2-.8.7-.8.3 0 .5.1.8.2v-.1c0-.1 0-.2-.2-.2-.9-.7-1.7.2-1.6 1.1.1.9.8 1.2 1.6 1.2.2-.1.4-.3.4-.6zm-1 .3c-.3-.1-.6-.4-.6-.7.3 0 .9-.1 1.1.1.2.1.2.5.1.5 0 .1-.2.1-.4.1h-.2zm-1.5 1.3l-.4-3v-.1h.4v-.2l-.1-.1c-.2 0-.4-.1-.6 0v.3c0 .1.1.2 0 .2 0-.2-.1-.3-.3-.4-.9-.6-1.4.3-1.3 1.1.1.5.3.8.7 1.1.3 0 .6.1.8 0l.2-.2.2 1.3.2.1.2-.1zm-2.9-3.1v-.2l-.2-.1h-.2l-.2.2.1.2.2.1.2-.1.1-.1zm1.1.1c.1-.1.2-.2.4-.2.3 0 .5.2.7.3l.2 1.5-.5.1c-.3 0-.5-.1-.7-.3-.1-.3-.4-1.1-.1-1.4.1-.1 0 .1 0 0z"/></symbol><path fill="#10572F" d="M99 7.6v154.7c0 1.8-.7 3.4-1.9 4.7-1.3 1.3-2.9 2-4.7 2h-84.8c-1.8 0-3.4-.7-4.6-2-1.3-1.3-2-2.9-2-4.7v-154.7c0-1.8.6-3.4 2-4.6 1.3-1.3 2.8-2 4.6-2h84.7c1.8 0 3.4.6 4.7 2 1.3 1.2 2 2.8 2 4.6z"/><path fill="#1B6138" d="M77.2 162h-2.2l17-17v2.2l-14.8 14.8zm-4.5 0h-2.1l21.4-21.4v2.1l-19.3 19.3zm9 0h-2.1l12.4-12.5v2.1l-10.3 10.4zm-49.2 0h-2.2l61.7-61.7v2.2l-59.5 59.5zm4.4 0h-2.1l57.2-57.2v2.1l-55.1 55.1zm4.5 0h-2.1l52.7-52.8v2.2l-50.6 50.6zm-33.4-78.5v-2.2l73.3-73.3h2.2l-75.5 75.5zm0-40.3v-2.2l33-33h2.2l-35.2 35.2zm0-31.4c.2-1 .6-1.8 1.2-2.5.8-.7 1.6-1.1 2.6-1.3l-3.8 3.8zm6.2-3.8h2.1l-8.3 8.4v-2.1l6.2-6.3zm4.5 0h2.1l-12.8 12.8v-2.1l10.7-10.7zm13.4 0h2.1l-26.2 26.2v-2.1l24.1-24.1zm4.5 0h2.1l-30.7 30.7v-2.1l28.6-28.6zm-9 0h2.1l-21.7 21.8v-2.1l19.6-19.7zm-4.5 0h2.1l-17.2 17.3v-2.1l15.1-15.2zm31.4 0h2.1l-48.6 48.6v-2.1l46.5-46.5zm-9 0h2.1l-39.6 39.7v-2.1l37.5-37.6zm13.5 0h2.1l-53.1 53.1v-2.1l51-51zm-9 0h2.2l-44.2 44.2v-2.2l42-42zm13.5 0h2.1l-57.6 57.5v-2.1l55.5-55.4zm4.5 0h2.1l-62.1 62v-2l60-60zm8.9 0h2.1l-71 71v-2.1l68.9-68.9zm-4.5 0h2.2l-66.6 66.5v-2.1l64.4-64.4zm19.6 65.5v2.1l-83.6 83.6c-.2-.5-.4-1-.4-1.7l84-84zm0 13.4v2.1l-73 73h-2.1l75.1-75.1zm0-9v2.1l-81.5 81.5c-.4-.2-.8-.5-1.2-.8l82.7-82.8zm0 4.5v2.1l-77.5 77.5h-2.1l79.6-79.6zm0 8.9v2.1l-68.5 68.6h-2.1l70.6-70.7zm0 4.5v2.2l-64 64h-2.1l66.1-66.2zm0-26.8v2.1l-84 84v-2.1l84-84zm0-4.5v2.1l-84 84v-2.1l84-84zm0-4.5v2.2l-84 84v-2.2l84-84zm0-9v2.2l-84 84v-2.2l84-84zm0 4.5v2.1l-84 84v-2.1l84-84zm0-31.3v2.1l-84 84v-2.1l84-84zm0 22.4v2.1l-84 84v-2.1l84-84zm0-4.5v2.1l-84 84v-2.2l84-83.9zm0-13.4v2.1l-84 84v-2.1l84-84zm0 4.4v2.1l-84 84v-2.1l84-84zm0 4.5v2.1l-84 84v-2.1l84-84zm0-17.8v2.1l-84 84v-2.1l84-84zm-2.3-11.2c.5.3.9.6 1.1.9l-82.8 83v-2.2l81.7-81.7zm2.3 6.6v2.1l-84 84v-2.2l84-83.9zm0-2.7v.4l-84 84v-2.1l83.7-83.8c.2.6.3 1.1.3 1.5zm-6.2-4.5h2.1l-79.9 80v-2.1l77.8-77.9zm-19.7 154l25.9-25.9v2.2l-23.8 23.7h-2.1zm17.9 0l8-8v2.2l-5.8 5.8h-2.2zm7.8-3.3c-.5 1.6-1.5 2.6-3.1 3.1l3.1-3.1zm-28 3.3h-2.1l30.3-30.3v2.1l-28.2 28.2zm-4.5 0h-2.2l34.9-34.8v2.1l-32.7 32.7zm-4.5 0h-2.1l39.3-39.3v2.1l-37.2 37.2zm-4.5 0h-2.1l43.8-43.8v2.1l-41.7 41.7zm-4.4 0h-2.1l48.2-48.2v2.1l-46.1 46.1z"/><rect x="4" y="84.5" fill="#0E4220" width="92" height="1"/><path fill="#FAFAEE" d="M7.6 169.2c-1.9 0-3.5-.7-4.8-2-1.3-1.3-2-3-2-4.9v-154.7c0-1.9.7-3.5 2-4.8 1.3-1.3 2.9-2 4.8-2h84.7c1.9 0 3.5.7 4.9 2 1.3 1.3 2 2.9 2 4.8v154.7c0 1.9-.7 3.5-2 4.9-1.3 1.3-3 2-4.9 2h-84.7zm4.9-161c-1.2 0-2.2.4-3 1.2-.8.8-1.2 1.9-1.2 3v145c0 1.2.4 2.1 1.2 3 .9.9 1.8 1.3 3 1.3h75c1.2 0 2.1-.4 3-1.3.9-.8 1.3-1.8 1.3-3v-145c0-1.2-.4-2.2-1.3-3-.8-.8-1.8-1.2-3-1.2h-75z"/><path d="M92.3 1c1.8 0 3.4.6 4.7 2 1.3 1.2 2 2.8 2 4.6v154.7c0 1.8-.7 3.4-1.9 4.7-1.3 1.3-2.9 2-4.7 2h-84.8c-1.8 0-3.4-.7-4.6-2-1.3-1.3-2-2.9-2-4.7v-154.7c0-1.8.6-3.4 2-4.6 1.3-1.3 2.8-2 4.6-2h84.7m-79.8 161h75c1.2 0 2.3-.5 3.2-1.3.9-.9 1.3-1.9 1.3-3.2v-145c0-1.2-.4-2.3-1.3-3.2-.9-.9-2-1.3-3.2-1.3h-75c-1.2 0-2.3.4-3.2 1.3-.9.9-1.3 2-1.3 3.2v145c0 1.2.4 2.3 1.3 3.2.9.8 2 1.3 3.2 1.3m79.8-161.5h-84.7c-2 0-3.6.7-5 2.1-1.4 1.3-2.1 3-2.1 5v154.7c0 2 .7 3.7 2.1 5.1 1.4 1.4 3 2.1 5 2.1h84.7c2 0 3.7-.7 5.1-2.1 1.4-1.4 2.1-3.1 2.1-5.1v-154.7c0-2-.7-3.6-2.1-5-1.4-1.4-3.1-2.1-5.1-2.1zm-79.8 161c-1.1 0-2-.4-2.8-1.2-.8-.8-1.2-1.7-1.2-2.8v-145c0-1.1.4-2 1.2-2.9.8-.8 1.7-1.1 2.8-1.1h75c1.1 0 2 .4 2.8 1.2.8.8 1.2 1.7 1.2 2.8v145c0 1.1-.4 2-1.2 2.8-.8.8-1.7 1.2-2.8 1.2h-75z"/><use xlink:href="#a" width="43.2" height="6.2" x="-21.6" y="-3.1" transform="matrix(-1 0 0 1 50.024 90.125)" overflow="visible"/><use xlink:href="#b" width="70.1" height="30.6" x="-35" y="-15.3" transform="matrix(-1 0 0 1 49.83 125.341)" overflow="visible"/><use xlink:href="#a" width="43.2" height="6.2" x="-21.6" y="-3.1" transform="matrix(1 0 0 -1 49.976 79.875)" overflow="visible"/><use xlink:href="#b" width="70.1" height="30.6" x="-35" y="-15.3" transform="matrix(1 0 0 -1 50.17 44.659)" overflow="visible"/></svg>
