<svg xmlns="http://www.w3.org/2000/svg" xmlns:xlink="http://www.w3.org/1999/xlink" width="100" height="170" viewBox="0 0 100 170"><symbol id="f" viewBox="-3.6 -6.4 7.3 12.7"><path d="M.8 6.4h-1.8l-2.6-12.8h1.6l.5 2.6h2.8l.5-2.6h1.9l-2.9 12.8zm-2-8.8l1.1 5.8 1.1-5.8h-2.2z"/></symbol><symbol viewBox="-22.5 -21.4 44.9 42.9"><path fill="#008000" d="M1.9-18.1c-.7.6-1.3 1.2-1.9 2-.6-.8-1.3-1.5-2.1-2.1-.6-.5-1.3-.9-2.1-1.3-1.7-.9-3.5-1.3-5.5-1.3-3.4 0-6.3 1.2-8.7 3.6-2.4 2.4-3.6 5.4-3.6 8.8 0 4.7 2.5 9.7 7.5 14.8 6.7 5.9 11.5 10.7 14.5 14.3 3-3.6 7.8-8.4 14.4-14.3 5-5.1 7.6-10.1 7.6-14.8 0-3.4-1.2-6.4-3.6-8.8-2.4-2.4-5.4-3.6-8.8-3.6-1.9 0-3.7.4-5.4 1.3-.9.3-1.6.8-2.3 1.4z"/><path fill="#055905" d="M0 20.7v-36.9c.6-.7 1.2-1.4 1.9-1.9.7-.6 1.5-1 2.3-1.5 1.7-.9 3.5-1.3 5.4-1.3 3.4 0 6.4 1.2 8.8 3.6 2.4 2.4 3.6 5.4 3.6 8.8 0 4.7-2.5 9.7-7.6 14.8-6.6 6-11.4 10.8-14.4 14.4z"/><path stroke="#000" stroke-miterlimit="10" d="M1.9-18.1c-.7.6-1.3 1.2-1.9 2-.6-.8-1.3-1.5-2.1-2.1-.6-.5-1.3-.9-2.1-1.3-1.7-.9-3.5-1.3-5.5-1.3-3.4 0-6.3 1.2-8.7 3.6-2.4 2.4-3.6 5.4-3.6 8.8 0 4.7 2.5 9.7 7.5 14.8 6.7 5.9 11.5 10.7 14.5 14.3 3-3.6 7.8-8.4 14.4-14.3 5-5.1 7.6-10.1 7.6-14.8 0-3.4-1.2-6.4-3.6-8.8-2.4-2.4-5.4-3.6-8.8-3.6-1.9 0-3.7.4-5.4 1.3-.9.3-1.6.8-2.3 1.4z" fill="none"/></symbol><symbol id="c" viewBox="-14 -23.5 28 47"><path fill="#F2F200" d="M10 13c0 5.5-4.5 10-10 10s-10-4.5-10-10v-23h20v23z"/><path fill="#D63403" d="M10-10v23c0 5.5-4.5 10-10 10v-33h10z"/><path fill="#008000" d="M13.5-13.5c0-5.2-6-9.5-13.5-9.5s-13.5 4.3-13.5 9.5 6 5.5 13.5 5.5 13.5-.3 13.5-5.5z"/><path fill="#056605" d="M13.5-13.5c0 5.2-6 5.5-13.5 5.5v-15c7.5 0 13.5 4.3 13.5 9.5z"/><path fill="#4E5DC9" d="M-10-9h20v5h-20z"/><path fill="#384A89" d="M0-9h10v5h-10z"/><path stroke="#000" stroke-miterlimit="10" d="M10-8.9v21.9c0 5.5-4.5 10-10 10s-10-4.5-10-10v-21.9c-2.2-.8-3.5-2.1-3.5-4.6 0-5.2 6-9.5 13.5-9.5s13.5 4.3 13.5 9.5c0 2.5-1.3 3.8-3.5 4.6z" fill="none"/></symbol><symbol viewBox="-29.9 -9.5 29.9 19"><path fill="#F2F200" d="M-22.8-6.9c-1.8 0-3.6.7-4.9 2-1.3 1.3-2 3-2 4.9 0 3.8 3.1 6.9 6.9 6.9h13.6v-13.8h-13.6z"/><path fill="#D63403" d="M-9.2-6.9h-13.6c-3.8 0-6.9 3.1-6.9 6.9h20.5v-6.9z"/><path fill="#008000" d="M-6.8-9.3c3.6 0 6.5 4.2 6.5 9.3s-2.9 9.3-6.5 9.3-3.8-4.2-3.8-9.3.2-9.3 3.8-9.3z"/><path fill="#056605" d="M-6.8-9.3c-3.6 0-3.8 4.2-3.8 9.3h10.3c.1-5.1-2.9-9.3-6.5-9.3z"/><path fill="#4E5DC9" d="M-9.9 6.9v-13.8h-3.4v13.8z"/><path fill="#384A89" d="M-9.9 0v-6.9h-3.4v6.9z"/><path stroke="#000" stroke-width=".5" stroke-miterlimit="10" d="M-9.9-6.9h-12.9c-3.8 0-6.9 3.1-6.9 6.9s3.1 6.9 6.9 6.9h12.9c.5 1.5 1.4 2.4 3.1 2.4 3.6 0 6.5-4.2 6.5-9.3s-2.9-9.3-6.5-9.3c-1.7 0-2.6.9-3.1 2.4z" fill="none"/></symbol><symbol viewBox="-31.7 -33.4 63.5 66.3"><g><use xlink:href="#a" width="17.4" height="7.3" x="-1" y="-7.3" transform="matrix(-1 0 0 1 15.75 8.3)" overflow="visible"/><use xlink:href="#a" width="17.4" height="7.3" x="-1" y="-7.3" transform="matrix(-1 0 0 1 15.75 -4.102)" overflow="visible"/><use xlink:href="#a" width="17.4" height="7.3" x="-1" y="-7.3" transform="matrix(-1 0 0 1 15.75 -16.5)" overflow="visible"/><use xlink:href="#a" width="17.4" height="7.3" x="-1" y="-7.3" transform="translate(-15.65 8.3)" overflow="visible"/><use xlink:href="#a" width="17.4" height="7.3" x="-1" y="-7.3" transform="translate(-15.65 -4.102)" overflow="visible"/><use xlink:href="#a" width="17.4" height="7.3" x="-1" y="-7.3" transform="translate(-15.65 -16.5)" overflow="visible"/><use xlink:href="#b" width="2.8" height="55.2" x="-1.4" y="-27.6" transform="translate(0 -5.833)" overflow="visible"/><use xlink:href="#c" width="28" height="47" x="-14" y="-23.5" transform="matrix(0 -.466 .466 0 20.529 -4.306)" overflow="visible"/><use xlink:href="#c" width="28" height="47" x="-14" y="-23.5" transform="matrix(0 -.466 -.466 0 -20.529 -4.306)" overflow="visible"/><use xlink:href="#c" width="28" height="47" x="-14" y="-23.5" transform="matrix(0 -.466 .466 0 20.529 -17.226)" overflow="visible"/><use xlink:href="#c" width="28" height="47" x="-14" y="-23.5" transform="matrix(0 -.466 .466 0 20.529 7.854)" overflow="visible"/><use xlink:href="#c" width="28" height="47" x="-14" y="-23.5" transform="matrix(0 -.466 -.466 0 -20.529 -17.226)" overflow="visible"/><use xlink:href="#c" width="28" height="47" x="-14" y="-23.5" transform="matrix(0 -.466 -.466 0 -20.529 7.854)" overflow="visible"/><use xlink:href="#c" width="28" height="47" x="-14" y="-23.5" transform="matrix(-.466 0 0 .466 -.126 21.633)" overflow="visible"/></g></symbol><symbol viewBox="-22.5 -21.4 44.9 42.9"><path fill="#008000" d="M1.9-18.1c-.7.6-1.3 1.2-1.9 2-.6-.8-1.3-1.5-2.1-2.1-.6-.5-1.3-.9-2.1-1.3-1.7-.9-3.5-1.3-5.5-1.3-3.4 0-6.3 1.2-8.7 3.6-2.4 2.4-3.6 5.4-3.6 8.8 0 4.7 2.5 9.7 7.5 14.8 6.7 5.9 11.5 10.7 14.5 14.3 3-3.6 7.8-8.4 14.4-14.3 5-5.1 7.6-10.1 7.6-14.8 0-3.4-1.2-6.4-3.6-8.8-2.4-2.4-5.4-3.6-8.8-3.6-1.9 0-3.7.4-5.4 1.3-.9.3-1.6.8-2.3 1.4z"/><path fill="#055905" d="M0 20.7v-36.9c.6-.7 1.2-1.4 1.9-1.9.7-.6 1.5-1 2.3-1.5 1.7-.9 3.5-1.3 5.4-1.3 3.4 0 6.4 1.2 8.8 3.6 2.4 2.4 3.6 5.4 3.6 8.8 0 4.7-2.5 9.7-7.6 14.8-6.6 6-11.4 10.8-14.4 14.4z"/><path stroke="#000" stroke-miterlimit="10" d="M1.9-18.1c-.7.6-1.3 1.2-1.9 2-.6-.8-1.3-1.5-2.1-2.1-.6-.5-1.3-.9-2.1-1.3-1.7-.9-3.5-1.3-5.5-1.3-3.4 0-6.3 1.2-8.7 3.6-2.4 2.4-3.6 5.4-3.6 8.8 0 4.7 2.5 9.7 7.5 14.8 6.7 5.9 11.5 10.7 14.5 14.3 3-3.6 7.8-8.4 14.4-14.3 5-5.1 7.6-10.1 7.6-14.8 0-3.4-1.2-6.4-3.6-8.8-2.4-2.4-5.4-3.6-8.8-3.6-1.9 0-3.7.4-5.4 1.3-.9.3-1.6.8-2.3 1.4z" fill="none"/></symbol><symbol viewBox="-15.5 -15.7 31.1 31.3"><path fill="#E60000" d="M2.9 13c1.4 1.4 2.6 2.1 3.8 2.1 2.3 0 4.3-.8 5.9-2.5 1.6-1.7 2.5-3.7 2.5-6 0-3.3-1.7-7-5.2-11-2-2.3-5.3-5.9-9.9-10.6-4.6 4.7-7.8 8.3-9.8 10.6-3.5 4.1-5.2 7.7-5.2 11 0 2.3.8 4.3 2.5 6 1.7 1.6 3.7 2.5 6 2.5 1.2 0 2.4-.7 3.8-2.1.1-.1 1-1.3 2.8-3.5.4.6 1.4 1.8 2.8 3.5z"/><path fill="#A50A0A" d="M6.7 15.1c-1.2 0-2.4-.7-3.8-2.1-1.4-1.7-2.4-2.9-2.9-3.5v-24.5c4.6 4.7 7.9 8.3 9.9 10.6 3.5 4.1 5.2 7.7 5.2 11 0 2.3-.8 4.3-2.5 6-1.7 1.7-3.6 2.5-5.9 2.5z"/><path stroke="#000" stroke-miterlimit="10" d="M2.9 13c1.4 1.4 2.6 2.1 3.8 2.1 2.3 0 4.3-.8 5.9-2.5 1.6-1.7 2.5-3.7 2.5-6 0-3.3-1.7-7-5.2-11-2-2.3-5.3-5.9-9.9-10.6-4.6 4.7-7.8 8.3-9.8 10.6-3.5 4.1-5.2 7.7-5.2 11 0 2.3.8 4.3 2.5 6 1.7 1.6 3.7 2.5 6 2.5 1.2 0 2.4-.7 3.8-2.1.1-.1 1-1.3 2.8-3.5.4.6 1.4 1.8 2.8 3.5z" fill="none"/></symbol><symbol viewBox="-9.1 -9.2 18.3 18.4"><path fill="#fe0" d="M1.7 7.7c.8.8 1.5 1.2 2.2 1.2 1.4 0 2.5-.5 3.5-1.5s1.5-2.2 1.5-3.5c0-1.9-1-4.1-3-6.5-1.3-1.3-3.2-3.4-5.9-6.2-2.7 2.8-4.6 4.9-5.8 6.3-2 2.3-3.1 4.5-3.1 6.4 0 1.4.5 2.5 1.5 3.5s2.2 1.5 3.5 1.5c.7 0 1.4-.4 2.2-1.2 0 0 .6-.7 1.7-2.1.3.4.9 1.1 1.7 2.1z"/><path fill="#B2A100" d="M3.9 8.9c-.7 0-1.4-.4-2.2-1.2-.8-1-1.4-1.7-1.7-2.1v-14.4c2.7 2.8 4.6 4.9 5.8 6.3 2 2.4 3 4.6 3 6.5 0 1.4-.5 2.5-1.5 3.5-.9.9-2 1.4-3.4 1.4z"/><path stroke="#000" stroke-width=".589" stroke-miterlimit="10" d="M1.7 7.7c.8.8 1.5 1.2 2.2 1.2 1.4 0 2.5-.5 3.5-1.5s1.5-2.2 1.5-3.5c0-1.9-1-4.1-3-6.5-1.3-1.3-3.2-3.4-5.9-6.2-2.7 2.8-4.6 4.9-5.8 6.3-2 2.3-3.1 4.5-3.1 6.4 0 1.4.5 2.5 1.5 3.5s2.2 1.5 3.5 1.5c.7 0 1.4-.4 2.2-1.2 0 0 .6-.7 1.7-2.1.3.4.9 1.1 1.7 2.1z" fill="none"/></symbol><symbol id="e" viewBox="-6.5 -6.5 12.9 13"><path fill="#E60000" d="M1.2 5.4c.6.6 1.1.9 1.6.9 1 0 1.8-.3 2.4-1 .7-.7 1-1.5 1-2.5 0-1.4-.7-2.9-2.1-4.6-.8-.9-2.2-2.4-4.1-4.4-1.9 2-3.2 3.4-4 4.4-1.4 1.7-2.2 3.2-2.2 4.6 0 1 .3 1.8 1 2.5s1.5 1 2.5 1c.5 0 1-.3 1.6-.9l1.2-1.5c.1.3.5.8 1.1 1.5z"/><path fill="#A50A0A" d="M2.8 6.3c-.5 0-1-.3-1.6-.9-.6-.7-1-1.2-1.2-1.4v-10.2c1.9 2 3.3 3.4 4.1 4.4 1.4 1.7 2.1 3.2 2.1 4.6 0 1-.3 1.8-1 2.5-.7.6-1.5 1-2.4 1z"/><path stroke="#000" stroke-width=".5" stroke-miterlimit="10" d="M1.2 5.4c.6.6 1.1.9 1.6.9 1 0 1.8-.3 2.4-1 .7-.7 1-1.5 1-2.5 0-1.4-.7-2.9-2.1-4.6-.8-.9-2.2-2.4-4.1-4.4-1.9 2-3.2 3.4-4 4.4-1.4 1.7-2.2 3.2-2.2 4.6 0 1 .3 1.8 1 2.5s1.5 1 2.5 1c.5 0 1-.3 1.6-.9l1.2-1.5c.1.3.5.8 1.1 1.5z" fill="none"/></symbol><symbol id="g" viewBox="-43.5 -54.9 87.2 96.8"><path fill="#2E9952" stroke="#141414" stroke-width=".5" d="M1.4-12.1c-.3-.1-.6-.3-1-.4l-.9.1c-.4 0-.7-.5-1.1-.6-.2-.1-.4.1-.6.2-.3.1-.6.1-.8.1h-.6l1 .8c.2.3.4.7.6 1.1-1.2.1-2.6-.2-3.4-1.2-.3-.4-.5-.9-1-1.1-.4-.2-.9-.5-.5-1 .4-.6 1.2-1 1.8-1.2.6-.3 1.3-.5 2-.5.3 0 1.5-.1 1.3.5.2-.2.5-.3.7-.4.2-.1.4-.3.7-.4.3-.1.7.3 1 .4.6.2 1.3.3 1.9.1.4-.2.7-.3 1-.4.4-.1.7-.2 1.1 0 .3.2.6.5.8.7.2.3.4.5.6.7.1.2 0 .4 0 .6 0 .3.1.6.2.8.2.3.5.5.5.9-.4 0-1.5-.3-1.8.2 0 0 0 .2-.1.2 0 .2-.1.3-.2.4-.1.3-.3.5-.6.7-.2.2-.6.4-.9.4l-.1-1.2c0-.2.1-.4.2-.6-.5.4-1.2.3-1.8.1z"/><path stroke="#141414" stroke-width=".25" d="M-2.9-15.1c-.3.4-.5.9-.6 1.4.3-.1.5-.4.7-.5.2-.1.4-.1.7-.2.5-.2 1.1-.4 1.5-.8-.1.1.4 1 .4 1.1 0-.1 1.1-1 1.3-1.1.5-.2 1.5 1 1.8 1.3.3-.3.4-.7.6-1 .2.6.3 1.4.6 2 .1-.3.7-.6 1-.8.1.8-.2 1.5-.4 2.2" fill="none"/><g stroke="#141414" stroke-width=".25"><path fill="#CC1B2C" d="M.1-11c-1.2.4-1.4-1.5-.4-1.4-1.9-1 .3-2.8 1.4-1.5-.4-.4 1-.5 1.4-.1.6.7.3 1.5-.6 1.8.5-.2.3 1.2.1 1.4-.5.5-1.2 0-1.4-.5-.2.1-.4.2-.5.3z"/><path d="M1.3-12.3c-.3.7-1.8.1-1-.5.4-.3 1.2 0 1 .5z" fill="none"/></g><g stroke="#141414"><path fill="#00AFE9" stroke-width=".5" d="M35.4-46.9c.6 1.5-.1 2.9-.9 4.1-1.9 3.1-4.7 5-7.6 7.1-3.5 2.5-6.7 5.5-7.7 9.8-.4 1.6-.5 3.5-.3 5.2l8.7-3.4c-.6-1.7-1-3.7-.2-5.4.7-1.5 2.1-2.6 3.2-3.7 2.6-2.7 5.3-5.4 7.2-8.7.8-1.5 1.3-3.2.9-4.9-.3-1.4-1-3-2.6-3.5-1.1-.3-2.3-.4-3.1.6-1.1 1.3.5 3.8 2.1 2.7.5-.3.4-1.1.3-1.6"/><path fill="#FADE64" stroke-width=".5" d="M20.3-18.4c3.7-.1 9.1-1.9 9.9-5.9.1-.6.1-1.2-.1-1.8-.6 1.5-3.9 1.2-3.8 3.1 0-.9-.8-1.2-1.5-1.4-.4-.1-2.3-.4-2.2-1.1-.2 1.9-3 2.1-2.4 4.5-.7-1.5-3.1 1.5-3.9-.2.4.8.2 1.7 1 2.2.7.4 1.7.6 2.5.6h.5z"/><path fill="#2E9952" stroke-width=".5" d="M22.8-19.2c-.2 0-.3 0-.5-.1-.6-.1-1.4-.1-2-.1-.8 0-1.8.5-2.6.3-1.1-.3-1.9-1.1-3.1-1.3.1.5.3 1.2.7 1.5-.5-.6-2.3-.4-2.9-.3 0 .7.2 1.4.1 2 0 0-2.9-.8-3.1-.8 0 0-.1.1-.1.2-.6-.5-.9.7-.9 1.1-.1.6-.1 1.4 0 1.9.1.4.1.5.3.8.2.2.7.2.6.6 0 .2-1 .6-1.3.8l-1.5 1.2c.1.1 1.1.7 1.2.6-.4.3-1 1.2-.7 1.7.3.7 1 .2 1.5-.1.1-.1 1.4-1.2 1.6-.8.3.9.6 1.7.8 2.5.1.4.4 1.7 1 1.6.3 0 .9-1.4.9-1.7 0 .9 1.7-.1 1.9-.1-.1.7-.7 1.4-.6 2.2.1-.1.4-.3.5-.5-.2.8.1 1.3.3 2.1.5-.2.6-.9 1.2-1 0 .2.1.4.1.5.3-.2.7-.3.6-.7.8 0 1.6-.1 2.3.3.4.2.5.6.9.6l1.1-.4c-.3.8-.2 2.2 0 3 .5-.3.9-.8 1.3-1.2.2.6.3 1.2.6 1.9 1.5-.8 1.9-2.3 1.9-3.8.5.1 1.3.2 1.8.4.3.3 1.6 2.4 1.3 2.7.7-.7.8-1.5.9-2.4.2.2.4.5.5.8.3-.4.4-.9.5-1.3.1.1 1.5.9 1.5.9.1-.6-.5-1.3-.5-1.9 0-.2.4-.5.4-.9.2-.8-.3-1.5.7-1.3.8.2 1.4 1 2.3 1 0-.9-.9-1.8-1.3-2.5.9 0 2-.2 2.8-.6-.2-.6-.9-.9-1.5-.9.5-.2 1.4-.8 1.5-1.4 0 .1-2.4 0-2.6 0-.1-.4-.4-.7-.7-.9.4.1.8.4 1.2.4l-.5-1c.6 0 1.3.2 1.9.3l-.1-.8c1.1-.4 1.8-1.4.1-1.3.2-.2.3-.4.3-.6l-1.4.4c0-.3.1-.6 0-1-.7.1-1.5.1-2.1.5.5-.4 1.2-.7 1.3-1.4 1.2.2 2.5-2.6 1.3-2.5.1-.2.2-.5.2-.8 0-.4-.3-.5-.3-.8l-.2-1.9c-.6 1.1-1.9 1.5-2.5 2.5-.5 0-.1-1.1-.3-1.5-.2-.5-.7-.9-1-1.3-.3 1.2-1.1 2.4-2.1 3.2-.5.5-1 .6-1.7.5-.3-.1-1.5-.4-1.5-1 0 1.2-1.2 1.9-2.3 1.9z"/><path fill="#FADE64" stroke-width=".25" d="M28.8-8.5c.1.6.6 1 1.3.3.1.4.5.9 1 .8.7-.1.6-.6.6-1.2.3.4 1.1.8 1.5.2.2-.4-.3-.8-.5-1.1 1-.1 1.4-1.7 0-1.6.8-.1 0-2.9-1.6-1.1-.1-.5-.6-.8-1.1-.5-.6.3-.5.9-.7 1.4-.3-.1-1.1-.4-1.3-.1-.2.2-.1.8.3.9-.5-.1-.9.4-.6.9.3.4.9.3 1.4.3-.3.3-.3.6-.3.8zM5.9-10.2c.3-.2.7-.5.9-.7-.3.4-.1 2 .5 2.1.4.1.6-1.5.7-1.9.5.5.9 1.2 1.5 1.5-.2-.9-.4-1.7-.9-2.4.2 0 2.5.9 2.5.7.1-.9-1.2-1.7-1.9-1.9.7.2 1.8-1.2 1.8-1.9-.7 0-1.8.6-2.2 1.2.4-.6.3-1.6.1-2.3-.5.1-1.5.8-1.4 1.4-.1-.5-.2-1-.6-1.4-.4.5-.4 1.2-.1 1.8-.3-.4-.7-.8-1.2-1-.1.7.3 2.2 1.1 2.2-1 0-1.9.1-2.9.3.5.7 1.5.7 2.3.7-.7 0-1.6 1.4-1.6 1.9.4.2.9 0 1.4-.3z"/><path fill="#CC1B2C" stroke-width=".25" d="M21.4-4.3l.3.2c.8.4 1.5.3 2.2-.2.3-.2 1-.6 1.2-.9.3-.5.2-1.5.1-2-.1-1.9-1.1-1.7-2.6-1.7-.7 0-1.3-.4-1.9-.2-1.2.4-2.3 2.5-.4 2.8 0 .7.4 1.5 1.1 2zM25.1-13.2c.1.2.2.3.2.3.3.3.5.3.9.3 1 0 2.7-.4 2.6-1.7 1.7-.4 1.6-2.3.8-3.4-.4-.5-.9-1.2-1.6-1.3-.2-.1-2 .2-1.9.6-.4-1.2-2.1-.3-2.4.5-.3.7 0 1-.5 1.6-.4.6-.7 1-.3 1.7.5.9 1 .9 1.9.8.1.1.2.4.3.6zM13.8-10.7c.1.8.3 1.5 1.3 1.4.4 1.2 2.2.7 2.9.2.9-.7 1.4-1.2 1.5-2.3.1-.6.3-1 .1-1.6.8-.9 1.4-2.1-.4-2.1-.6 0-1.1.2-1.8 0-.5-.1-1.3-.6-1.8-.4-.6.2-.5.9-.6 1.4-.6 0-1.4 0-1.7.6-.3.6.2.9.3 1.5.1.3.1.8.2 1.3zM10.9-10.3c-.6 1.2 1.4 1.5 1.4.6.8 2 2.8 0 1.6-1.2.4.4.6-1 .2-1.4-.6-.7-1.5-.4-1.9.4.2-.5-1.1-.4-1.4-.3-.5.4-.1 1.2.4 1.5-.1.1-.2.2-.3.4zM10.7-10.4c-.6 1.2 1.4 1.5 1.4.6.8 2 2.8 0 1.6-1.2.4.4.6-1 .2-1.4-.6-.7-1.5-.4-1.9.4.2-.5-1.1-.4-1.4-.3-.5.4-.1 1.2.4 1.5l-.3.4z"/><path stroke-width=".25" d="M28.3-30.6c-.6.8-1.4 1.6-2.3 2-1.9 1-6 .6-6.8 3.2M31.2-33.6c-.9 1.1-2.7 1.2-4 1.4-1.4.2-2.7.5-4.1.8-.7.2-1.4.5-1.9 1M33.8-36.4c-1.3 1.6-4.3 1-6.1 1.1-.7 0-1.3.2-2 .5M36.5-39.5c-1 1.4-3.4 1.6-4.1 1.7-.6 0-1.2-.1-1.8 0-.5.1-.8.3-1.3.5M38.9-44.4c-.3 1.7-1.7 2.9-3.2 3.5-1.1.4-2.4.1-3.3.9M38.2-48.4c.5 1.1 0 2.5-.9 3.3-.7.6-2.1 1-2.5 1.8" fill="none"/><path stroke-width=".25" d="M26.2-15c.4.1.8 0 .9-.6.1-1.1-1.6-1.5-1.5-.2.1.5.3.7.6.8zM23.2-6.1c-.2.2-.6.3-.8 0-.5-.5.4-1.3.9-.9.3.2.2.6-.1.9zM7.5-13c-1.4.2-.6 2.4.6 1.4.6-.5.2-1.6-.6-1.4zM12.2-11.1c-.8.3-.3 1.7.5 1 .3-.4.1-1.2-.5-1zM31.1-10.7c-.8-.4-1.4.7-.6 1 .7.4 1.5-.5.6-1zM19.7-12.7c-1.1-.9-2.7-1.3-4-.7-1.4.6-1.7 3.1.2 2.3.8-.3 1.4-.8 2.3-.4M15.4-9.6c.7-.3 1.1-1.1 1-1.8M16.5-10.4c.4-.1 1.3-.6 1.4-1.2M12.7-17.8c0 .6-.1 1.7-.4 2.3-.4-.2-.7-.6-1.1-.9.1.7.7 1.8 1.2 2.3M14.7-19.1c1 .4 2 1.2 2.9 1.7-.4.1-1 .1-1.5.1.6.4 1.2.6 1.9.9M21.3-13.1c.4-.4-.6-2.7-.7-3.4l.7.5v-1.9M31.6-22.3c.4.5.2 2.2.1 2.9.3-.1.7-.3 1-.2-.2.5-.6 1.1-1.1 1.4M30.2-13.7c.9 0 1.6-1.2 2.4-1.6-.1.1-.2.4-.3.6.5 0 1 .3 1.6.3M27.1-3.8c-.5-.9-.5-1.9-.1-2.9.3.4.6 1 1.1 1.1.1-.5-.3-1-.4-1.6.1.1.3.2.4.2-.4-1.1-1.8-2.5-2.8-3.2l1.3.1c-.3-.5-1-1.5-1.5-1.8M15.9-6.3c.6-.1.6-.9 1.1-1.1l.1.5c.6-.5 1-1.5 1.6-1.8M20.8-12.4c0 .5-.4 1.2-.5 1.7.2-.2.7-.8.9-.8.3 0 .5.9.8 1.2.2-.4.3-.8.5-1.1.3.3.6.7 1 .9l-.1-1.8" fill="none"/></g><g stroke="#141414"><path fill="#00AFE9" stroke-width=".5" d="M-35.4-28.2c-.6-1.5.1-2.9.9-4.1 1.9-3.1 4.7-5 7.6-7.1 3.5-2.5 6.7-5.5 7.7-9.8.4-1.6.5-3.5.3-5.2l-8.7 3.4c.6 1.7 1 3.7.2 5.4-.7 1.5-2.1 2.6-3.2 3.7-2.6 2.7-5.3 5.4-7.2 8.7-.8 1.5-1.3 3.2-.9 4.9.3 1.4 1 3 2.6 3.5 1.1.3 2.3.4 3.1-.6 1.1-1.3-.5-3.8-2.1-2.7-.5.3-.4 1.1-.3 1.6"/><path stroke-width=".25" d="M-28.3-44.6c.6-.8 1.4-1.6 2.3-2 1.9-1 6-.6 6.8-3.2M-31.2-41.6c.9-1.1 2.7-1.2 4-1.4 1.4-.2 2.7-.5 4.1-.8.7-.2 1.4-.5 1.9-1M-33.8-38.8c1.3-1.6 4.3-1 6.1-1.1.7 0 1.3-.2 2-.5M-36.4-35.6c1-1.4 3.4-1.6 4.1-1.7.6 0 1.2.1 1.8 0 .5-.1.8-.3 1.3-.5M-38.9-30.8c.3-1.7 1.7-2.9 3.2-3.5 1.1-.4 2.4-.1 3.3-.9M-38.2-26.7c-.5-1.1 0-2.5.9-3.3.7-.6 2.1-1 2.5-1.8" fill="none"/></g><path fill="#FADE64" stroke="#141414" stroke-width=".5" d="M40-37.6c0 .7-.5 1.2-1.2 1.2v.2c0 .3-.2.6-.6.6s-.6-.2-.6-.6v-.2h-13.1v.4h-.7v.4h-.9v.4h-4.6v-1.2h-36.6v1.2h-4.6v-.4h-.9v-.4h-.7v-.4h-13.2v.2c0 .3-.2.6-.6.6s-.6-.2-.6-.6v-.2c-.7 0-1.2-.6-1.2-1.2s.5-1.2 1.2-1.2v-.2c0-.3.2-.6.6-.6s.6.2.6.6v.2h13.2v-.4h.7v-.4h.9v-.4h4.6v1.2h36.6v-1.2h4.6v.4h.9v.4h.7v.4h13.2v-.2c0-.3.2-.6.6-.6s.6.2.6.6v.2c.6 0 1.1.6 1.1 1.2z"/><g fill="#FADE64" stroke="#141414" stroke-width=".25"><path d="M-37.7-39c0-.3-.2-.6-.6-.6-.3 0-.6.2-.6.6v2.9c0 .3.2.6.6.6.3 0 .6-.2.6-.6v-2.9zM-20.8-39.2h-3.7v3.3h3.7zM-19.7-39.6h-4.1v4.1h4.1zM-18.3-40h-4.6v4.9h4.6zM37.7-36.1c0 .3.2.6.6.6.3 0 .6-.2.6-.6v-2.9c0-.3-.2-.6-.6-.6-.3 0-.6.2-.6.6v2.9zM20.8-35.9h3.7v-3.3h-3.7zM19.7-35.5h4.1v-4.1h-4.1zM18.3-35.1h4.6v-4.9h-4.6z"/></g><path fill="#E60000" d="M2.4 13c1.1 1.1 2.1 1.7 3.1 1.7 1.9 0 3.5-.7 4.9-2 1.3-1.4 2-3 2-4.9 0-2.7-1.4-5.7-4.2-9-1.7-1.9-4.4-4.8-8.2-8.7-3.7 3.9-6.4 6.8-8 8.7-2.9 3.3-4.3 6.4-4.3 9.1 0 1.9.7 3.5 2 4.9 1.4 1.3 3 2 4.9 2 .9 0 2-.6 3.1-1.7.1-.1.8-1 2.3-2.9.4.5 1.2 1.4 2.4 2.8z"/><path fill="#A50A0A" d="M5.5 14.8c-.9 0-2-.6-3.1-1.7-1.1-1.4-1.9-2.4-2.4-2.9v-20.1c3.8 3.9 6.5 6.8 8.1 8.7 2.8 3.3 4.2 6.4 4.2 9 0 1.9-.7 3.5-2 4.9-1.3 1.4-3 2.1-4.8 2.1z"/><path stroke="#000" stroke-width=".5" stroke-miterlimit="10" d="M2.4 13c1.1 1.1 2.1 1.7 3.1 1.7 1.9 0 3.5-.7 4.9-2 1.3-1.4 2-3 2-4.9 0-2.7-1.4-5.7-4.2-9-1.7-1.9-4.4-4.8-8.2-8.7-3.7 3.9-6.4 6.8-8 8.7-2.9 3.3-4.3 6.4-4.3 9.1 0 1.9.7 3.5 2 4.9 1.4 1.3 3 2 4.9 2 .9 0 2-.6 3.1-1.7.1-.1.8-1 2.3-2.9.4.5 1.2 1.4 2.4 2.8z" fill="none"/><path fill="#E60000" d="M2.4 34c1.1 1.1 2.1 1.7 3.1 1.7 1.9 0 3.5-.7 4.9-2 1.3-1.4 2-3 2-4.9 0-2.7-1.4-5.7-4.2-9-1.7-2-4.4-4.9-8.2-8.8-3.7 3.9-6.4 6.8-8 8.7-2.9 3.3-4.3 6.4-4.3 9.1 0 1.9.7 3.5 2 4.9 1.4 1.3 3 2 4.9 2 .9 0 2-.6 3.1-1.7.1-.1.8-1 2.3-2.9.4.5 1.2 1.4 2.4 2.9z"/><path fill="#A50A0A" d="M5.5 35.7c-.9 0-2-.6-3.1-1.7-1.1-1.4-1.9-2.4-2.4-2.9v-20.1c3.8 3.9 6.5 6.8 8.1 8.7 2.8 3.3 4.2 6.4 4.2 9 0 1.9-.7 3.5-2 4.9-1.3 1.4-3 2.1-4.8 2.1z"/><path stroke="#000" stroke-width=".5" stroke-miterlimit="10" d="M2.4 34c1.1 1.1 2.1 1.7 3.1 1.7 1.9 0 3.5-.7 4.9-2 1.3-1.4 2-3 2-4.9 0-2.7-1.4-5.7-4.2-9-1.7-2-4.4-4.9-8.2-8.8-3.7 3.9-6.4 6.8-8 8.7-2.9 3.3-4.3 6.4-4.3 9.1 0 1.9.7 3.5 2 4.9 1.4 1.3 3 2 4.9 2 .9 0 2-.6 3.1-1.7.1-.1.8-1 2.3-2.9.4.5 1.2 1.4 2.4 2.9z" fill="none"/><g stroke="#141414"><path fill="#00AFE9" stroke-width=".5" d="M34.2-28.2c.6-1.5-.1-2.9-.9-4.1-1.9-3.1-4.7-5-7.6-7.1-3.5-2.5-6.7-5.5-7.7-9.8-.4-1.6-.5-3.5-.3-5.2l8.7 3.4c-.6 1.7-1 3.7-.2 5.4.7 1.5 2.1 2.6 3.2 3.7 2.6 2.7 5.3 5.4 7.2 8.7.8 1.5 1.3 3.2.9 4.9-.3 1.4-1 3-2.6 3.5-1.1.3-2.3.4-3.1-.6-1.1-1.3.5-3.8 2.1-2.7.5.3.4 1.1.3 1.6"/><path stroke-width=".25" d="M27.1-44.6c-.6-.8-1.4-1.6-2.3-2-1.9-1-6-.6-6.8-3.2M30-41.6c-.9-1.1-2.7-1.2-4-1.4-1.4-.2-2.7-.5-4.1-.8-.7-.2-1.4-.5-1.9-1M32.7-38.8c-1.3-1.6-4.3-1-6.1-1.1-.7 0-1.3-.2-2-.5M35.3-35.6c-1-1.4-3.4-1.6-4.1-1.7-.6 0-1.2.1-1.8 0-.5-.1-.8-.3-1.3-.5M37.7-30.8c-.3-1.7-1.7-2.9-3.2-3.5-1.1-.4-2.4-.1-3.3-.9M37-26.7c.5-1.1 0-2.5-.9-3.3-.7-.6-2.1-1-2.5-1.8" fill="none"/></g><g stroke="#141414"><path fill="#00AFE9" stroke-width=".5" d="M-34.2-46.9c-.6 1.5.1 2.9.9 4.1 1.9 3.1 4.7 5 7.6 7.1 3.5 2.5 6.7 5.5 7.7 9.8.4 1.6.5 3.5.3 5.2l-8.7-3.4c.6-1.7 1-3.7.2-5.4-.7-1.5-2.1-2.6-3.2-3.7-2.6-2.7-5.3-5.4-7.2-8.7-.8-1.5-1.3-3.2-.9-4.9.3-1.4 1-3 2.6-3.5 1.1-.3 2.3-.4 3.1.6 1.1 1.3-.5 3.8-2.1 2.7-.5-.3-.4-1.1-.3-1.6"/><path stroke-width=".25" d="M-27.1-30.6c.6.8 1.4 1.6 2.3 2 1.9 1 6 .6 6.8 3.2M-30-33.6c.9 1.1 2.7 1.2 4 1.4 1.4.2 2.7.5 4.1.8.7.2 1.4.5 1.9 1M-32.6-36.4c1.3 1.6 4.3 1 6.1 1.1.7 0 1.3.2 2 .5M-35.3-39.5c1 1.4 3.4 1.6 4.1 1.7.6 0 1.2-.1 1.8 0 .5.1.8.3 1.3.5M-37.7-44.4c.3 1.7 1.7 2.9 3.2 3.5 1.1.4 2.4.1 3.3.9M-37-48.4c-.5 1.1 0 2.5.9 3.3.7.6 2.1 1 2.5 1.8" fill="none"/><path fill="#FADE64" stroke-width=".5" d="M-19.1-18.4c-3.7-.1-9.1-1.9-9.9-5.9-.1-.6-.1-1.2.1-1.8.6 1.5 3.9 1.2 3.8 3.1 0-.9.8-1.2 1.5-1.4.4-.1 2.3-.4 2.2-1.1.2 1.9 3 2.1 2.4 4.5.7-1.5 3.1 1.5 3.9-.2-.4.8-.2 1.7-1 2.2-.7.4-1.7.6-2.5.6h-.5z"/><path fill="#2E9952" stroke-width=".5" d="M-21.6-19.2c.2 0 .3 0 .5-.1.6-.1 1.4-.1 2-.1.8 0 1.8.5 2.6.3 1.1-.3 1.9-1.1 3.1-1.3-.1.5-.3 1.2-.7 1.5.5-.6 2.3-.4 2.9-.3 0 .7-.2 1.4-.1 2 0 0 2.9-.8 3.1-.8 0 0 .1.1.1.2.6-.5.9.7.9 1.1.1.6.1 1.4 0 1.9-.1.4-.1.5-.3.8-.2.2-.7.2-.6.6 0 .2 1 .6 1.3.8l1.5 1.2c-.1.1-1.1.7-1.2.6.4.3 1 1.2.7 1.7-.3.7-1 .2-1.5-.1-.2 0-1.6-1.2-1.7-.7-.3.9-.6 1.7-.8 2.5-.1.4-.4 1.7-1 1.6-.3 0-.9-1.4-.9-1.7 0 .9-1.7-.1-1.9-.1.3.7.9 1.3.8 2.1l-.6-.5c.2.8-.1 1.3-.3 2.1-.5-.2-.6-.9-1.2-1 0 .2-.1.4-.1.5-.3-.2-.7-.3-.6-.7-.8 0-1.6-.1-2.3.3-.4.2-.5.6-.9.6l-1.1-.4c.3.8.2 2.2 0 3-.5-.3-.9-.8-1.3-1.2-.2.6-.3 1.2-.6 1.9-1.5-.8-1.9-2.3-1.9-3.8-.5.1-1.3.2-1.8.4-.3.2-1.7 2.3-1.4 2.6-.7-.7-.8-1.5-.9-2.4-.2.2-.4.5-.5.8-.3-.4-.4-.9-.5-1.3-.1.1-1.5.9-1.5.9-.1-.6.5-1.3.5-1.9 0-.2-.4-.5-.4-.9-.1-.8.4-1.5-.7-1.3-.8.2-1.4 1-2.3 1 0-.9.9-1.8 1.3-2.5-.9 0-2-.2-2.8-.6.2-.6.9-.9 1.5-.9-.5-.2-1.4-.8-1.5-1.4 0 .1 2.4 0 2.6 0 .1-.4.4-.7.7-.9-.4.1-.8.4-1.2.4l.5-1c-.6 0-1.3.2-1.9.3l.1-.8c-1.1-.4-1.8-1.4-.1-1.3-.2-.2-.3-.4-.3-.6l1.4.4c0-.3-.1-.6 0-1 .7.1 1.5.1 2.1.5-.5-.4-1.2-.7-1.3-1.4-1.2.2-2.5-2.6-1.3-2.5-.1-.2-.2-.5-.2-.8 0-.4.3-.5.3-.8l.2-1.9c.6 1.1 1.9 1.5 2.5 2.5.5 0 .1-1.1.3-1.5.2-.5.7-.9 1-1.3.3 1.2 1.1 2.4 2.1 3.2.5.5 1 .6 1.7.5.3-.1 1.5-.4 1.5-1 .1 1.3 1.3 2 2.4 2z"/><path fill="#FADE64" stroke-width=".25" d="M-27.6-8.5c-.1.6-.6 1-1.3.3-.1.4-.5.9-1 .8-.7-.1-.6-.6-.6-1.2-.3.4-1.1.8-1.5.2-.2-.4.3-.8.5-1.1-1-.1-1.4-1.7 0-1.6-.8-.1 0-2.9 1.6-1.1.1-.6.5-.9 1.1-.6.6.3.5.9.7 1.4.3-.1 1.1-.4 1.3-.1.2.2.1.8-.3.9.5-.1.9.4.6.9-.3.4-.9.3-1.4.3.3.4.3.7.3.9zM-14.6-8.7c-1 .3-2.2.2-2-.9-.7.9-2.4.4-2.9-.5s0-1.3.7-1.8c-.6-.1-.9-.7-.6-1.2.2-.3.8-.5 1.1-.7.7-.5 2.2-1.2 2.3.3 0-.8 1.8-.2 2 .1.5.6.6 1.5 0 2 .2-.2.7.9.7 1 .1.4-.1.8-.3 1.1-.1.2-.5.4-1 .6z"/><path fill="#CC1B2C" stroke-width=".25" d="M-20.5-4.7c-.9.6-2.1.7-2.7-.4-.5 0-1.2-.1-1.6-.4-1-.8.2-2.7 1.1-3.2.5-.2 1.2-.1 1.7 0 1.4.3 3.7.8 2.5 2.8-.1.5-.5.9-1 1.2zM-24.1-12.7c-1.3.7-2.9.2-4.2-.4.2 1.5-1.3.2-1.6-.5-.5-1.4.2-4.3 1.7-5 .5-.2 1.2-.1 1.7 0 1.1.2 2.8.3 3.5 1.2.9 1.1.4 3.4-.7 4.3-.1.2-.2.3-.4.4zM-15.3-16.9c.1.4.2.9-.1 1.3-.4.6-1.1.5-1.4-.1-.7.7-1.3.6-2-.1-.2-.2-.6-.7-.6-1 0-.1.3-.9.5-.6-1-1.4 1.2-2.8 1.9-1.1-.2-.5 1-.4 1.2-.3.6.4.4.9.5 1.5v.4zM-9.7-10.3c.6 1.2-1.4 1.5-1.4.6-.8 2-2.8 0-1.6-1.2-.4.4-.6-1-.2-1.4.6-.7 1.5-.4 1.9.4-.2-.5 1.1-.4 1.4-.3.5.4.1 1.2-.4 1.5.1.1.2.2.3.4zM-4-13.2c.6 1.2-1.4 1.5-1.4.6-.8 2-2.8 0-1.6-1.2-.4.4-.6-1-.2-1.4.6-.7 1.5-.4 1.9.4-.2-.5 1.1-.4 1.4-.3.5.4.1 1.2-.4 1.5.1.1.3.2.3.4z"/><path stroke-width=".25" d="M-28.3-12.8c.2-.9-.1-1.8.2-2.7.4-1.3 1.8-3.3 3-1.5.3.4.6 1.8-.3 2-.5.1-.8-.6-.6-1 .7-1.7 2.7 0 2.4 1.3-.4 1.5-2.6 2-3.3.5M-23.6-4.9c1.1-.1 2.2.1 2.9-.9 1-1.4-1.1-1.6-1.1-.5 1.3-.1.5-1.6-.5-1.5-.9.1-1.1 1.4-.8 2.1" fill="none"/><path stroke-width=".25" d="M-16.3-12.4c1.4.2.6 2.4-.6 1.4-.6-.5-.2-1.5.6-1.4zM-11-11.1c.7.3.3 1.7-.4 1-.4-.4-.2-1.2.4-1zM-5.3-14.3c.7.3.3 1.7-.4 1-.4-.3-.2-1.2.4-1zM-17.1-17.6c.7-.1.8 1 .2 1.1-.6.2-1-1-.2-1.1zM-29.9-10.7c.8-.4 1.4.7.6 1-.7.4-1.5-.5-.6-1z" fill="none"/></g><path stroke="#141414" stroke-width=".25" d="M-29-4.4c.7-.2 1.3-1.2 1.8-1.7l-1.5.1 2.2-1.8v1.3c.4-.4 1.1-.9 1.2-1.5M-31.1-21.6c.3.6.9 1.2 1.3 1.7-.4 0-.8-.3-1.3-.2.4.5 1.1.9 1.6 1.2-.4 0-.8.3-1.2.4M-10.5-17.3c-.2.6-1.5 1.2-2.1 1.3.7.1 1.4.2 2.1.6-.7.2-1.4.6-2 .7.5 0 1.4.3 1.9.5-.6.1-1.3.4-1.9.3M-24.4-10.6c.2-.5.5-1.1.8-1.6 0 .3.1.5.1.7.6-.1 1.1-1.6 1.5-2.1 0 .3 0 .5.1.8.6-.8 1-1.7 1.7-2.4-.7-.5-1.6-1.8-2-2.6.5.2 1 .4 1.5.5l-.1-1.1M-21.2-10.6c.7 1 2.1 2.2 3.2 2.9.1-.2.2-.5.4-.7l.8 1.9.8-.8c.2.3.3.7.6.9" fill="none"/><path fill="none" d="M43.7-37.6h-87.2v79.5h87.2z"/></symbol><symbol id="d" viewBox="-50 -85 100 170"><path fill="#FAFAEE" d="M-43-84.5c-3.6 0-6.5 2.9-6.5 6.5v156c0 3.6 2.9 6.5 6.5 6.5h86c3.6 0 6.5-2.9 6.5-6.5v-156c0-3.6-2.9-6.5-6.5-6.5h-86z"/><path d="M43 84c3.3 0 6-2.7 6-6v-156c0-3.3-2.7-6-6-6h-86c-3.3 0-6 2.7-6 6v156c0 3.3 2.7 6 6 6h86m0 1h-86c-3.9 0-7-3.1-7-7v-156c0-3.9 3.1-7 7-7h86c3.9 0 7 3.1 7 7v156c0 3.9-3.1 7-7 7z"/></symbol><symbol id="h" viewBox="-42 -77 84 154"><path d="M-41.5-38.5c-.3 0-.5.2-.5.5v76c0 .3.2.5.5.5s.5-.2.5-.5v-76c0-.3-.2-.5-.5-.5zM39.5-77h-79c-1.4 0-2.5 1.1-2.5 2.5 0 .3.2.5.5.5s.5-.2.5-.5c0-.8.7-1.5 1.5-1.5h79c.8 0 1.5.7 1.5 1.5 0 .3.2.5.5.5s.5-.2.5-.5c0-1.4-1.1-2.5-2.5-2.5zM41.5-38.5c-.3 0-.5.2-.5.5v76c0 .3.2.5.5.5s.5-.2.5-.5v-76c0-.3-.2-.5-.5-.5zM41.5 74c-.3 0-.5.2-.5.5 0 .8-.7 1.5-1.5 1.5h-79c-.8 0-1.5-.7-1.5-1.5 0-.3-.2-.5-.5-.5s-.5.2-.5.5c0 1.4 1.1 2.5 2.5 2.5h79c1.4 0 2.5-1.1 2.5-2.5 0-.3-.2-.5-.5-.5z"/></symbol><symbol viewBox="-14.4 -15.9 28.8 31.9"><path fill="#028C02" d="M3.1-12.4c0-.8-.3-1.6-.9-2.2-.6-.6-1.3-.9-2.2-.9-.8 0-1.6.3-2.2.9-.5.7-.8 1.4-.8 2.2 0 .8.3 1.6.9 2.2.6.6 1.3.9 2.2.9.8 0 1.6-.3 2.2-.9.5-.6.8-1.3.8-2.2z"/><path fill="#046604" d="M2.2-14.6c.6.6.9 1.3.9 2.2 0 .8-.3 1.6-.9 2.2-.6.6-1.3.9-2.1.9v-6.1c.8 0 1.5.3 2.1.8z"/><path stroke="#000" stroke-miterlimit="10" d="M3.1-12.4c0-.8-.3-1.6-.9-2.2-.6-.6-1.3-.9-2.2-.9-.8 0-1.6.3-2.2.9-.5.7-.8 1.4-.8 2.2 0 .8.3 1.6.9 2.2.6.6 1.3.9 2.2.9.8 0 1.6-.3 2.2-.9.5-.6.8-1.3.8-2.2z" fill="none"/><path fill="#D9D900" d="M13.9 1.5c0-3.8-1.3-7.1-4-9.8-2.7-2.7-6-4-9.8-4s-7.1 1.3-9.9 4c-2.7 2.7-4 6-4 9.8 0 3.8 1.4 7.1 4 9.8 2.7 2.7 6 4.1 9.9 4.1s7.1-1.4 9.8-4.1c2.7-2.7 4-5.9 4-9.8z"/><path fill="#99950A" d="M.1 15.4v-27.8c3.8 0 7.1 1.4 9.8 4 2.7 2.7 4 6 4 9.8 0 3.8-1.3 7.1-4 9.8-2.8 2.9-6 4.2-9.8 4.2z"/><path fill="#B30000" d="M-13.9 1.5c0-1.8.3-3.5.9-5.1h26c.6 1.6.9 3.3.9 5.1v.9h-27.7c-.1-.3-.1-.6-.1-.9z"/><path fill="#00B300" d="M5.8-10.9c-1.7-.8-3.5-1.2-5.5-1.2s-4 .4-6 1.2c-1.4 1-2.4 2-3 2.9-.6.8-.7 1.3-.3 1.4.3 0 1.1-.3 2.5-.9l4.2-2.1c.5 2 1.2 3 2.3 3 1.1 0 1.8-1 2.3-3.1.8.4 2.2 1.1 4.3 2.1 1.3.7 2.1 1 2.4.9.4-.1.3-.6-.3-1.4-.5-.9-1.5-1.8-2.9-2.8z"/><path d="M3.2 9.3c0-.9-.3-1.6-.9-2.2-.6-.6-1.4-.9-2.3-.9-.9 0-1.6.3-2.2.9-.6.6-.9 1.4-.9 2.2 0 .9.3 1.6.9 2.2.6.6 1.4.9 2.2.9.9 0 1.6-.3 2.2-.9.7-.5 1-1.3 1-2.2z"/><path stroke="#1A171B" stroke-width=".65" fill="none" d="M.1 12.4v3"/><path fill="#087208" d="M9.1-6.6c-.3 0-1.1-.3-2.5-1-2.1-1-3.5-1.7-4.3-2.1-.4 2.1-1.2 3.1-2.2 3.1v-5.5h.3c2 0 3.8.4 5.5 1.2 1.4 1 2.4 2 3 2.9.5.8.6 1.3.2 1.4z"/><path fill="#750B0B" d="M.1 2.4v-6h12.9c.6 1.6.9 3.3.9 5.1v.9h-13.8z"/><path stroke="#000" stroke-miterlimit="10" d="M13.9 1.5c0-3.8-1.3-7.1-4-9.8-2.7-2.7-6-4-9.8-4s-7.1 1.3-9.9 4c-2.7 2.7-4 6-4 9.8 0 3.8 1.4 7.1 4 9.8 2.7 2.7 6 4.1 9.9 4.1s7.1-1.4 9.8-4.1c2.7-2.7 4-5.9 4-9.8z" fill="none"/></symbol><symbol viewBox="-1.4 -31 2.8 62"><path fill="#930" d="M.5-27.6c-.2.1-.3.1-.5.1-.3 0-.5-.1-.8-.2v57.1c.4 2.1.9 2.1 1.2 0v-57z"/><path fill="#ff0" d="M-.8-27.8c.2.2.5.2.8.2.2 0 .3 0 .5-.1.1-.1.2-.2.3-.2.3-.3.4-.6.4-.9 0-.3-.2-.8-.4-1.4-.3-.6-.7-.8-1-.6-.3.2-.5.5-.8.9-.2.4-.4.8-.4 1.1 0 .3.1.6.4.9.1 0 .2.1.2.1z"/><path stroke="#000" stroke-width=".3" stroke-linecap="round" stroke-linejoin="round" stroke-miterlimit="3" d="M-.8-27.8v57.1c.4 2.1.9 2.1 1.2 0v-56.9c.1-.1.2-.2.3-.2.3-.3.4-.6.4-.9 0-.3-.2-.8-.4-1.4-.3-.6-.7-.8-1-.6-.3.2-.5.5-.8.9-.2.4-.4.8-.4 1.1 0 .3.1.6.4.9.2-.1.3 0 .3 0zm1.3.2c-.2.1-.3.1-.5.1-.3 0-.5-.1-.8-.2" fill="none"/></symbol><symbol id="b" viewBox="-1.4 -27.6 2.8 55.2"><path fill="#930" d="M.5-24.3c-.2.1-.3.1-.5.1-.3 0-.5-.1-.8-.2v51.4c.4.6.9.6 1.2 0v-51.3z"/><path fill="#ff0" d="M-.8-24.4c.2.2.5.2.8.2.2 0 .3 0 .5-.1.1-.1.2-.2.4-.2.3-.3.4-.6.4-.9 0-.3-.1-.8-.4-1.4-.3-.6-.7-.8-1-.6-.3.2-.5.4-.8.8-.2.4-.4.8-.4 1.2 0 .3.1.6.4.9l.1.1z"/><path stroke="#000" stroke-width=".3" stroke-linecap="round" stroke-linejoin="round" stroke-miterlimit="3" d="M-.8-24.4v51.4c.4.6.9.6 1.2 0v-51.2c.1-.1.2-.2.4-.2.3-.3.4-.6.4-.9 0-.3-.1-.8-.4-1.4-.3-.6-.7-.8-1-.6-.3.2-.5.4-.8.8-.2.4-.4.8-.4 1.2 0 .3.1.6.4.9.1-.1.2 0 .2 0zm1.3.1c-.2.1-.3.1-.5.1-.3 0-.5-.1-.8-.2" fill="none"/></symbol><symbol id="a" viewBox="-1 -7.3 17.4 7.3"><path stroke="#000" stroke-width="1.5" stroke-linecap="round" stroke-linejoin="round" stroke-miterlimit="3" d="M-.2-1.2c2.9.7 5.7.7 8.6-.1 3.2-.9 5.6-2.7 7.3-5.2" fill="none"/><path stroke="#E6E600" stroke-linecap="round" stroke-linejoin="round" stroke-miterlimit="3" d="M-.2-1.2c2.9.7 5.7.7 8.6-.1 3.2-.9 5.6-2.7 7.3-5.2" fill="none"/></symbol><use xlink:href="#d" width="100" height="170" x="-50" y="-85" transform="matrix(1 0 0 -1 50 85)" overflow="visible"/><g><g><g><use xlink:href="#e" width="12.9" height="13" x="-6.5" y="-6.5" transform="matrix(-1 0 0 1 89.499 135.5)" overflow="visible"/><use xlink:href="#e" width="12.9" height="13" x="-6.5" y="-6.5" transform="matrix(-1 0 0 1 10.499 135.5)" overflow="visible"/><use xlink:href="#e" width="12.9" height="13" x="-6.5" y="-6.5" transform="matrix(1 0 0 -1 89.5 34.5)" overflow="visible"/><use xlink:href="#e" width="12.9" height="13" x="-6.5" y="-6.5" transform="matrix(1 0 0 -1 10.5 34.5)" overflow="visible"/></g><g><use xlink:href="#f" width="7.3" height="12.7" x="-3.6" y="-6.4" transform="matrix(-1 0 0 1 90.5 151.5)" overflow="visible"/><use xlink:href="#f" width="7.3" height="12.7" x="-3.6" y="-6.4" transform="matrix(-1 0 0 1 9.5 151.5)" overflow="visible"/><use xlink:href="#f" width="7.3" height="12.7" x="-3.6" y="-6.4" transform="matrix(1 0 0 -1 90.5 18.5)" overflow="visible"/><use xlink:href="#f" width="7.3" height="12.7" x="-3.6" y="-6.4" transform="matrix(1 0 0 -1 9.5 18.5)" overflow="visible"/></g><use xlink:href="#g" width="87.2" height="96.8" x="-43.5" y="-54.9" transform="matrix(-1 0 0 1 50 122.573)" overflow="visible"/><use xlink:href="#g" width="87.2" height="96.8" x="-43.5" y="-54.9" transform="matrix(1 0 0 -1 50 47.427)" overflow="visible"/><circle fill="#FAFAEE" stroke="#141414" stroke-width=".5" cx="50" cy="85" r="22"/><circle stroke="#141414" stroke-width=".25" cx="50" cy="85" r="20.8" fill="none"/><circle stroke="#141414" stroke-width=".25" cx="50" cy="85" r="20.2" fill="none"/><path d="M38.6 76.4l-1.3-2.9.3-.2 3.1 2 .4-.4.2.3c-.4.4-.8.8-1.1 1l-.1-.2.3-.4-2.6-1.6 1.2 2.6-.3.3-2.7-.5 2.3 2c.2-.2.6-.6.8-.9l.2.3c-.4.5-.9 1-1.2 1.2l-.1-.3-2.4-2.2-.4.4-.2-.3c.2-.3.5-.5.7-.7l2.9.5zM45.6 71.7c-.8.2-1.6.4-2.3.7l.2 1c.3-.1.7-.2 1.1-.3v.3c-.5.2-1.2.4-1.5.4l.1-.3-.7-3.2.8-.8c.4-.1.9-.1 1.3-.1l1.8 2.9.4-.1v.3c-.3.1-.7.2-.9.2l.1-.3-.4-.7zm-2.4.3l2.2-.6-1.1-1.8c-.3 0-.7 0-.9.1l-.6.5.4 1.8zM51.9 72.3c-.8-.1-2.1-.4-2.7-.7l.1-.3.5.1.2-3.2-.6-.1.1-.3c.6.1 1.3.2 1.7.3l-.1.3-.7-.1-.2 3.2c.4.1 1 .2 1.5.3l.2-.9.4.2-.4 1.2zM57.3 70.1l-1-.7-.7 1.2-.3-.2.9-1.4 2.6 1.6.3-.5.2.2-.8 1.5-.3-.2.4-.7-1-.6-1.5 2.9.7.5-.1.3c-.6-.3-1.2-.8-1.5-1.1l.2-.2.6.4 1.3-3zM61.9 78.7l-1.5-1c-.3-.5-.5-1.4-.6-1.8l2.6-1.8 1.5 1c.3.5.5 1.4.6 1.8l-2.6 1.8zm2.2-2.1c-.1-.4-.3-1.1-.5-1.5l-1-.7-2.3 1.6c.1.4.3 1.1.5 1.5l1 .7 2.3-1.6zM39.6 92.5c.2.4.5 1 .6 1.4l-1.3.8-.2-.4 1-.6c-.1-.4-.3-.8-.5-1.1l-.7-.5-2.4 1.8c.1.4.2.9.4 1.3l1.3.8-.2.3-1.4-1c-.2-.5-.4-1.2-.5-1.6l2.7-2 1.2.8zM43.9 99.7c-.6-.5-1.4-.9-2-1.3l-.6.8c.2.1.6.4 1 .6l-.2.2c-.5-.3-1.1-.7-1.3-.9l.2-.1 2-2.6 1.2.1c.3.3.7.6.9.9l-1 3.3.4.2-.2.3c-.3-.1-.6-.4-.8-.6l.3-.2.1-.7zm-1.8-1.5c.6.4 1.3.8 1.9 1.3l.7-2.1c-.2-.2-.5-.5-.7-.6l-.8-.1-1.1 1.5zM52.5 101.9c-.4 0-.8-.1-.9-.2l-.9-1-1.1-.3v1.1l.7.1-.1.3c-.6 0-1.2-.1-1.6-.2l.1-.2h.5l-.2-3.2-.7.1v-.3l2.1-.4c.5.1 1.2.3 1.5.5l-.1 2-.7.4.8.9h.7l-.1.4zm-1-3.5c-.3-.1-.8-.3-1.2-.4l-.8.2.1 1.9c.4.1 1 .2 1.3.3l.6-.4v-1.6zM59.1 97l.5 1.7-.9 1c-.6.2-1.5.5-2 .6l-.1-.3.5-.2-1.6-2.7-.5.5-.2-.3 1.7-1.3c.4-.2 1.2-.3 1.5-.3l1.1 1.3zm-1.4-.9c-.3 0-.9.1-1.2.3l-.6.6 1.7 2.9c.4-.1.7-.2 1.1-.4l.6-.7-.5-1.4-1.1-1.3zM63.4 95.1l-1.1-.8.2-.3.8.6c.3-.3.7-.6 1-1l.2-1-.5-.2-2.4 1.3-1.2-.6.3-1.4c.3-.3.6-.7 1-1l1.2.8-.2.3-.9-.7c-.3.2-.5.5-.8.8l-.3.9.8.4 2.4-1.4.9.5-.3 1.5c-.3.5-.8 1-1.1 1.3z"/><g fill="#141414"><path d="M41.8 83.9l.2-1.2c.2-.8.4-1.5.8-2.3.5-1 1.2-1.8 2.1-2.5l.7-.5c.4-.3.8-.4 1.2-.4h1.8c.4 0 .8.1 1.2.2.5.1.9.2 1.3.4.5.1 1 .3 1.4.5.7.3 1.3.7 1.9 1.1.3.2.5.5.7.7 0 0 .1.1.1.2l-.1.9c0 .4-.1.8-.2 1.2 0 .2 0 .3.2.3l2.2 1.1c.6.3 1.2.6 1.7 1 .2.1.2.3.3.5l-.1.2c-.4.3-.9.3-1.4.2l-2.6-.4h-.2l.5.3.9.4 1.2.5c.1.1.3.1.4.3.2.2.1.4-.2.5-.9.3-1.9.4-2.8.1-.5-.1-1.1-.2-1.5-.6 0 0-.1-.1-.2-.1 0 0 0 .1-.1.1.3.2.6.5 1 .7.6.4 1.2.6 1.9.8.2.1.4.2.5.4-.5.3-1.1.4-1.6.3-.6 0-1.1-.1-1.7-.2.5.4.9.8 1.3 1.2.2.2.5.3.6.6.1.4-.2.9-.6.8-.6-.1-1.2-.2-1.9-.4l-1.1-.4c-.4-.1-.7-.3-1.1-.5l.2.6.9 1.4c.1.1.1.2.1.3-.1.1-.2.2-.3.2-.8-.1-1.6-.3-2.3-.8l-.7-.6-.8-.9-.3-.3v.2c.3.8.6 1.6.7 2.4v.6h-.2c-.9-.2-1.6-.7-2.2-1.3l-.6-.6h-.1l.5 1.3c.1.2.1.4-.1.5-.6-.3-1.1-.7-1.4-1.3-.3-.5-.8-1-1.1-1.6-.7-1.5-1.1-3.1-1.2-4.8v-.6c.2-.2.2-.5.2-.7zm13.1-4c-.1-.1-.1-.1-.1-.2-.8-.5-1.6-1.1-2.6-1.4l-1.7-.6-.3-.1-1.5-.2c-.9-.1-1.8 0-2.6.4s-1.6.8-2.1 1.6c-.6.9-1.1 1.8-1.4 2.9-.1.2-.2.5-.2.7 0 .9 0 1.7.1 2.6.1.8.2 1.5.4 2.3.1.6.4 1.1.6 1.6.2.4.3.8.5 1.1.1.3.3.5.5.8h.1v-.2c-.2-.7-.4-1.3-.5-2-.1-.5-.1-1-.1-1.5 0-.1 0-.1.1-.3.1.3.2.5.3.7.5 1.1 1 2.3 1.8 3.2.3.3.7.6 1.1.9l.1-.1c-.5-1.7-1.2-3.4-.8-5.2l.4.6c.7 1.3 1.4 2.5 2.6 3.5.4.3.8.6 1.4.7-.2-.2-.3-.4-.4-.6-.3-.6-.6-1.2-.8-1.9-.2-.5-.4-.9-.5-1.4 0-.1-.1-.2.1-.3 0 0 .1 0 .1.1.4.8 1.2 1.3 1.8 1.9.9.8 2.1 1.2 3.3 1.3h.2c-.4-.3-.7-.6-1.1-1-.3-.3-.5-.6-.8-1l-1.3-1.5-1.5-1.7c-.4-.5-.9-1-1.2-1.5-.5-.7-.7-1.5-.4-2.4.2-.5.5-1.1.8-1.6.1-.1.2-.2.4-.2.4-.2.8-.2 1.3-.1.7.1 1.4.3 2 .6.2.1.3.1.5 0 .3-.4.7-.7 1.4-.5zm-.1 1v-.3c0-.4-.2-.5-.5-.4l-.9.4c-.2.1-.4.1-.5.1-.6-.4-1.3-.5-2-.7-.5 0-.9 0-1.2.3-.4.3-.7.7-.8 1.2-.1.4-.2.9-.1 1.3.3.8.8 1.4 1.4 2 .4.3.8.7 1.1 1 .2.2.3.3.5 0l1-1c.6-.5 1.1-1.1 1.4-1.8.3-.6.7-1.3.6-2.1zM50.8 82.7v-.6l.1-.2.2.1c.2.5.2 1 .1 1.5 0 .1-.1.2-.1.2-.1 0-.2-.1-.2-.2-.1-.2-.1-.5-.1-.8zM53.2 83.7v-.3l.4-1 .2-.2.1.3-.6 1.3s-.1 0-.1-.1zM52.4 84.2l-.2.5s-.2.1-.2 0c-.2-.1-.1-.7.1-.8.1-.1.3 0 .3.3z"/></g></g></g><use xlink:href="#h" width="84" height="154" x="-42" y="-77" transform="matrix(1 0 0 -1 50 85)" overflow="visible" opacity=".75"/></svg>
