<svg xmlns="http://www.w3.org/2000/svg" xmlns:xlink="http://www.w3.org/1999/xlink" width="100" height="170" viewBox="0 0 100 170"><symbol viewBox="-22.5 -21.4 44.9 42.9"><path fill="#008000" d="M1.9-18.1c-.7.6-1.3 1.2-1.9 2-.6-.8-1.3-1.5-2.1-2.1-.6-.5-1.3-.9-2.1-1.3-1.7-.9-3.5-1.3-5.5-1.3-3.4 0-6.3 1.2-8.7 3.6-2.4 2.4-3.6 5.4-3.6 8.8 0 4.7 2.5 9.7 7.5 14.8 6.7 5.9 11.5 10.7 14.5 14.3 3-3.6 7.8-8.4 14.4-14.3 5-5.1 7.6-10.1 7.6-14.8 0-3.4-1.2-6.4-3.6-8.8-2.4-2.4-5.4-3.6-8.8-3.6-1.9 0-3.7.4-5.4 1.3-.9.3-1.6.8-2.3 1.4z"/><path fill="#055905" d="M0 20.7v-36.9c.6-.7 1.2-1.4 1.9-1.9.7-.6 1.5-1 2.3-1.5 1.7-.9 3.5-1.3 5.4-1.3 3.4 0 6.4 1.2 8.8 3.6 2.4 2.4 3.6 5.4 3.6 8.8 0 4.7-2.5 9.7-7.6 14.8-6.6 6-11.4 10.8-14.4 14.4z"/><path stroke="#000" stroke-miterlimit="10" d="M1.9-18.1c-.7.6-1.3 1.2-1.9 2-.6-.8-1.3-1.5-2.1-2.1-.6-.5-1.3-.9-2.1-1.3-1.7-.9-3.5-1.3-5.5-1.3-3.4 0-6.3 1.2-8.7 3.6-2.4 2.4-3.6 5.4-3.6 8.8 0 4.7 2.5 9.7 7.5 14.8 6.7 5.9 11.5 10.7 14.5 14.3 3-3.6 7.8-8.4 14.4-14.3 5-5.1 7.6-10.1 7.6-14.8 0-3.4-1.2-6.4-3.6-8.8-2.4-2.4-5.4-3.6-8.8-3.6-1.9 0-3.7.4-5.4 1.3-.9.3-1.6.8-2.3 1.4z" fill="none"/></symbol><symbol id="c" viewBox="-14 -23.5 28 47"><path fill="#F2F200" d="M10 13c0 5.5-4.5 10-10 10s-10-4.5-10-10v-23h20v23z"/><path fill="#D63403" d="M10-10v23c0 5.5-4.5 10-10 10v-33h10z"/><path fill="#008000" d="M13.5-13.5c0-5.2-6-9.5-13.5-9.5s-13.5 4.3-13.5 9.5 6 5.5 13.5 5.5 13.5-.3 13.5-5.5z"/><path fill="#056605" d="M13.5-13.5c0 5.2-6 5.5-13.5 5.5v-15c7.5 0 13.5 4.3 13.5 9.5z"/><path fill="#4E5DC9" d="M-10-9h20v5h-20z"/><path fill="#384A89" d="M0-9h10v5h-10z"/><path stroke="#000" stroke-miterlimit="10" d="M10-8.9v21.9c0 5.5-4.5 10-10 10s-10-4.5-10-10v-21.9c-2.2-.8-3.5-2.1-3.5-4.6 0-5.2 6-9.5 13.5-9.5s13.5 4.3 13.5 9.5c0 2.5-1.3 3.8-3.5 4.6z" fill="none"/></symbol><symbol viewBox="-29.9 -9.5 29.9 19"><path fill="#F2F200" d="M-22.8-6.9c-1.8 0-3.6.7-4.9 2-1.3 1.3-2 3-2 4.9 0 3.8 3.1 6.9 6.9 6.9h13.6v-13.8h-13.6z"/><path fill="#D63403" d="M-9.2-6.9h-13.6c-3.8 0-6.9 3.1-6.9 6.9h20.5v-6.9z"/><path fill="#008000" d="M-6.8-9.3c3.6 0 6.5 4.2 6.5 9.3s-2.9 9.3-6.5 9.3-3.8-4.2-3.8-9.3.2-9.3 3.8-9.3z"/><path fill="#056605" d="M-6.8-9.3c-3.6 0-3.8 4.2-3.8 9.3h10.3c.1-5.1-2.9-9.3-6.5-9.3z"/><path fill="#4E5DC9" d="M-9.9 6.9v-13.8h-3.4v13.8z"/><path fill="#384A89" d="M-9.9 0v-6.9h-3.4v6.9z"/><path stroke="#000" stroke-width=".5" stroke-miterlimit="10" d="M-9.9-6.9h-12.9c-3.8 0-6.9 3.1-6.9 6.9s3.1 6.9 6.9 6.9h12.9c.5 1.5 1.4 2.4 3.1 2.4 3.6 0 6.5-4.2 6.5-9.3s-2.9-9.3-6.5-9.3c-1.7 0-2.6.9-3.1 2.4z" fill="none"/></symbol><symbol viewBox="-31.7 -33.4 63.5 66.3"><g><use xlink:href="#a" width="17.4" height="7.3" x="-1" y="-7.3" transform="matrix(-1 0 0 1 15.75 8.3)" overflow="visible"/><use xlink:href="#a" width="17.4" height="7.3" x="-1" y="-7.3" transform="matrix(-1 0 0 1 15.75 -4.102)" overflow="visible"/><use xlink:href="#a" width="17.4" height="7.3" x="-1" y="-7.3" transform="matrix(-1 0 0 1 15.75 -16.5)" overflow="visible"/><use xlink:href="#a" width="17.4" height="7.3" x="-1" y="-7.3" transform="translate(-15.65 8.3)" overflow="visible"/><use xlink:href="#a" width="17.4" height="7.3" x="-1" y="-7.3" transform="translate(-15.65 -4.102)" overflow="visible"/><use xlink:href="#a" width="17.4" height="7.3" x="-1" y="-7.3" transform="translate(-15.65 -16.5)" overflow="visible"/><use xlink:href="#b" width="2.8" height="55.2" x="-1.4" y="-27.6" transform="translate(0 -5.833)" overflow="visible"/><use xlink:href="#c" width="28" height="47" x="-14" y="-23.5" transform="matrix(0 -.466 .466 0 20.529 -4.306)" overflow="visible"/><use xlink:href="#c" width="28" height="47" x="-14" y="-23.5" transform="matrix(0 -.466 -.466 0 -20.529 -4.306)" overflow="visible"/><use xlink:href="#c" width="28" height="47" x="-14" y="-23.5" transform="matrix(0 -.466 .466 0 20.529 -17.226)" overflow="visible"/><use xlink:href="#c" width="28" height="47" x="-14" y="-23.5" transform="matrix(0 -.466 .466 0 20.529 7.854)" overflow="visible"/><use xlink:href="#c" width="28" height="47" x="-14" y="-23.5" transform="matrix(0 -.466 -.466 0 -20.529 -17.226)" overflow="visible"/><use xlink:href="#c" width="28" height="47" x="-14" y="-23.5" transform="matrix(0 -.466 -.466 0 -20.529 7.854)" overflow="visible"/><use xlink:href="#c" width="28" height="47" x="-14" y="-23.5" transform="matrix(-.466 0 0 .466 -.126 21.633)" overflow="visible"/></g></symbol><symbol viewBox="-22.5 -21.4 44.9 42.9"><path fill="#008000" d="M1.9-18.1c-.7.6-1.3 1.2-1.9 2-.6-.8-1.3-1.5-2.1-2.1-.6-.5-1.3-.9-2.1-1.3-1.7-.9-3.5-1.3-5.5-1.3-3.4 0-6.3 1.2-8.7 3.6-2.4 2.4-3.6 5.4-3.6 8.8 0 4.7 2.5 9.7 7.5 14.8 6.7 5.9 11.5 10.7 14.5 14.3 3-3.6 7.8-8.4 14.4-14.3 5-5.1 7.6-10.1 7.6-14.8 0-3.4-1.2-6.4-3.6-8.8-2.4-2.4-5.4-3.6-8.8-3.6-1.9 0-3.7.4-5.4 1.3-.9.3-1.6.8-2.3 1.4z"/><path fill="#055905" d="M0 20.7v-36.9c.6-.7 1.2-1.4 1.9-1.9.7-.6 1.5-1 2.3-1.5 1.7-.9 3.5-1.3 5.4-1.3 3.4 0 6.4 1.2 8.8 3.6 2.4 2.4 3.6 5.4 3.6 8.8 0 4.7-2.5 9.7-7.6 14.8-6.6 6-11.4 10.8-14.4 14.4z"/><path stroke="#000" stroke-miterlimit="10" d="M1.9-18.1c-.7.6-1.3 1.2-1.9 2-.6-.8-1.3-1.5-2.1-2.1-.6-.5-1.3-.9-2.1-1.3-1.7-.9-3.5-1.3-5.5-1.3-3.4 0-6.3 1.2-8.7 3.6-2.4 2.4-3.6 5.4-3.6 8.8 0 4.7 2.5 9.7 7.5 14.8 6.7 5.9 11.5 10.7 14.5 14.3 3-3.6 7.8-8.4 14.4-14.3 5-5.1 7.6-10.1 7.6-14.8 0-3.4-1.2-6.4-3.6-8.8-2.4-2.4-5.4-3.6-8.8-3.6-1.9 0-3.7.4-5.4 1.3-.9.3-1.6.8-2.3 1.4z" fill="none"/></symbol><symbol viewBox="-15.5 -15.7 31.1 31.3"><path fill="#E60000" d="M2.9 13c1.4 1.4 2.6 2.1 3.8 2.1 2.3 0 4.3-.8 5.9-2.5 1.6-1.7 2.5-3.7 2.5-6 0-3.3-1.7-7-5.2-11-2-2.3-5.3-5.9-9.9-10.6-4.6 4.7-7.8 8.3-9.8 10.6-3.5 4.1-5.2 7.7-5.2 11 0 2.3.8 4.3 2.5 6 1.7 1.6 3.7 2.5 6 2.5 1.2 0 2.4-.7 3.8-2.1.1-.1 1-1.3 2.8-3.5.4.6 1.4 1.8 2.8 3.5z"/><path fill="#A50A0A" d="M6.7 15.1c-1.2 0-2.4-.7-3.8-2.1-1.4-1.7-2.4-2.9-2.9-3.5v-24.5c4.6 4.7 7.9 8.3 9.9 10.6 3.5 4.1 5.2 7.7 5.2 11 0 2.3-.8 4.3-2.5 6-1.7 1.7-3.6 2.5-5.9 2.5z"/><path stroke="#000" stroke-miterlimit="10" d="M2.9 13c1.4 1.4 2.6 2.1 3.8 2.1 2.3 0 4.3-.8 5.9-2.5 1.6-1.7 2.5-3.7 2.5-6 0-3.3-1.7-7-5.2-11-2-2.3-5.3-5.9-9.9-10.6-4.6 4.7-7.8 8.3-9.8 10.6-3.5 4.1-5.2 7.7-5.2 11 0 2.3.8 4.3 2.5 6 1.7 1.6 3.7 2.5 6 2.5 1.2 0 2.4-.7 3.8-2.1.1-.1 1-1.3 2.8-3.5.4.6 1.4 1.8 2.8 3.5z" fill="none"/></symbol><symbol viewBox="-9.1 -9.2 18.3 18.4"><path fill="#fe0" d="M1.7 7.7c.8.8 1.5 1.2 2.2 1.2 1.4 0 2.5-.5 3.5-1.5s1.5-2.2 1.5-3.5c0-1.9-1-4.1-3-6.5-1.3-1.3-3.2-3.4-5.9-6.2-2.7 2.8-4.6 4.9-5.8 6.3-2 2.3-3.1 4.5-3.1 6.4 0 1.4.5 2.5 1.5 3.5s2.2 1.5 3.5 1.5c.7 0 1.4-.4 2.2-1.2 0 0 .6-.7 1.7-2.1.3.4.9 1.1 1.7 2.1z"/><path fill="#B2A100" d="M3.9 8.9c-.7 0-1.4-.4-2.2-1.2-.8-1-1.4-1.7-1.7-2.1v-14.4c2.7 2.8 4.6 4.9 5.8 6.3 2 2.4 3 4.6 3 6.5 0 1.4-.5 2.5-1.5 3.5-.9.9-2 1.4-3.4 1.4z"/><path stroke="#000" stroke-width=".589" stroke-miterlimit="10" d="M1.7 7.7c.8.8 1.5 1.2 2.2 1.2 1.4 0 2.5-.5 3.5-1.5s1.5-2.2 1.5-3.5c0-1.9-1-4.1-3-6.5-1.3-1.3-3.2-3.4-5.9-6.2-2.7 2.8-4.6 4.9-5.8 6.3-2 2.3-3.1 4.5-3.1 6.4 0 1.4.5 2.5 1.5 3.5s2.2 1.5 3.5 1.5c.7 0 1.4-.4 2.2-1.2 0 0 .6-.7 1.7-2.1.3.4.9 1.1 1.7 2.1z" fill="none"/></symbol><symbol id="e" viewBox="-6.5 -6.5 12.9 13"><path fill="#E60000" d="M1.2 5.4c.6.6 1.1.9 1.6.9 1 0 1.8-.3 2.4-1 .7-.7 1-1.5 1-2.5 0-1.4-.7-2.9-2.1-4.6-.8-.9-2.2-2.4-4.1-4.4-1.9 2-3.2 3.4-4 4.4-1.4 1.7-2.2 3.2-2.2 4.6 0 1 .3 1.8 1 2.5s1.5 1 2.5 1c.5 0 1-.3 1.6-.9l1.2-1.5c.1.3.5.8 1.1 1.5z"/><path fill="#A50A0A" d="M2.8 6.3c-.5 0-1-.3-1.6-.9-.6-.7-1-1.2-1.2-1.4v-10.2c1.9 2 3.3 3.4 4.1 4.4 1.4 1.7 2.1 3.2 2.1 4.6 0 1-.3 1.8-1 2.5-.7.6-1.5 1-2.4 1z"/><path stroke="#000" stroke-width=".5" stroke-miterlimit="10" d="M1.2 5.4c.6.6 1.1.9 1.6.9 1 0 1.8-.3 2.4-1 .7-.7 1-1.5 1-2.5 0-1.4-.7-2.9-2.1-4.6-.8-.9-2.2-2.4-4.1-4.4-1.9 2-3.2 3.4-4 4.4-1.4 1.7-2.2 3.2-2.2 4.6 0 1 .3 1.8 1 2.5s1.5 1 2.5 1c.5 0 1-.3 1.6-.9l1.2-1.5c.1.3.5.8 1.1 1.5z" fill="none"/></symbol><symbol id="g" viewBox="-42.5 -38.8 80.6 77.3"><path fill="#E60000" d="M-23 33.6c1.1 1.1 2.1 1.7 3.1 1.7 1.9 0 3.5-.7 4.8-2 1.3-1.4 2-3 2-4.9 0-2.7-1.4-5.7-4.2-9-1.6-1.9-4.3-4.8-8-8.7-3.7 3.9-6.4 6.7-8 8.7-2.9 3.3-4.3 6.3-4.3 9 0 1.9.7 3.5 2 4.9 1.4 1.3 3 2 4.9 2 .9 0 2-.6 3.1-1.7.1-.1.8-1 2.3-2.9.4.5 1.2 1.5 2.3 2.9z"/><path fill="#A50A0A" d="M-19.9 35.3c-.9 0-2-.6-3.1-1.7-1.1-1.4-1.9-2.4-2.4-2.9v-20c3.8 3.9 6.4 6.7 8 8.7 2.8 3.3 4.2 6.3 4.2 9 0 1.9-.7 3.5-2 4.9-1.2 1.3-2.8 2-4.7 2z"/><path stroke="#000" stroke-width=".5" stroke-miterlimit="10" d="M-23 33.6c1.1 1.1 2.1 1.7 3.1 1.7 1.9 0 3.5-.7 4.8-2 1.3-1.4 2-3 2-4.9 0-2.7-1.4-5.7-4.2-9-1.6-1.9-4.3-4.8-8-8.7-3.7 3.9-6.4 6.7-8 8.7-2.9 3.3-4.3 6.3-4.3 9 0 1.9.7 3.5 2 4.9 1.4 1.3 3 2 4.9 2 .9 0 2-.6 3.1-1.7.1-.1.8-1 2.3-2.9.4.5 1.2 1.5 2.3 2.9z" fill="none"/><path fill="#FADE64" stroke="#0C151A" stroke-width=".5" stroke-miterlimit="10" d="M35.4-38.3l-32.9.2s-.8 1.9-.8 3l-.1 9.2c-.1 9.2-.8 18.4-.7 27.5.1 3-.1 6.4 1.4 9.1 1.5 2.7 3.6 3.1 6.3 4.2 7.9 3.1 18.6 1.1 19.9-4.6 0-.1 1.7-.3 1.9-.4.9-.3 1.9-.6 2.8-1 1.8-.9 3.8-2.3 4.4-4.4.3-1.3.1-2.7-.3-3.9-.2-.6-.4-1.1-.8-1.5l.5-.9c.2-.3.3-.7.2-1.1-.2-1-1.9-1.6-1.9-1.6l.1-33.8z"/><path fill="#007499" stroke="#0C151A" stroke-width=".25" stroke-miterlimit="10" d="M26.1 5.3c1.8 1.1 5.8.1 6.6-2.2-1.9-1-2.3-3.3.1-4.7l-.4-11.3-.7-25.2-12.7-.2-7.8.4-3.2 36.4 1 10.1c4.1 3.6 14.6 4.1 17.1-3.3z"/><path stroke="#0C151A" stroke-width=".25" stroke-miterlimit="10" d="M6.6 9.3c3.8 3.3 16.8 7 20.3-2.2 1.4.7 6.6-.1 7.5-4.4-4.9 1.4-4.1-7.3 2-3.7" fill="none"/><path fill="#CC1B2C" stroke="#0C151A" stroke-width=".5" stroke-miterlimit="10" d="M-26.1-7.3v-.2c-.2-1.5-.9-3.5-.2-5 .7-1.4 2.3-2.1 3.7-2.5 1.8-.5 5-2.4 6.6-.7.6.6.9 1.7 1.1 2.5.1.5.1 1.5.4 1.9.9 1.2 3.8.7 5 .7l5-.5c6.2-.5 12.6-1.2 18.5-2.9 1.7-.5 3.6-2 5.3-2 3.1-.1 6.8 1.7 9.4 3.1.8.4 4 2.3 3.6 3.3-.6 1.8-2.3 3.1-3.2 4.8-.9 1.8-1.9 3.6-2.7 5.4-.9 1.9-2.2 2.8-4.2 3.4-8.1 2.2-17.2 2-25.6 1.8-4.1-.1-9.5.3-13.2-1.9-1.9-1.1-3.6-2.4-5.5-3.6-.7-.5-2-1-2.5-1.6-.5-.6-.5-1.8-.6-2.5-.2-1.2-.7-2.4-.9-3.5z"/><path fill="#2E9952" stroke="#0C151A" stroke-width=".5" stroke-miterlimit="10" d="M-24.5-36.7c-1.1-.3-2.2-.3-3.1.6-1.1 1-2.1 2.3-2.6 3.7-.4 1.1-1.1 3-.6 4.2.3.9 1.3 1.3 2 1.8.1.1 2 1.7 2.1 1.2-.1.4-.1.8 0 1.2.1.4.5.4.5.8 0 1.1-.9 1.7-.8 2.8.1 1 .1 2.4.8 3.3.7.9 2.4 1.2 3.4 1.2 1.7.1 3.8-.1 5.1-1.2 2-1.6 2.5-4.8 2.9-7.2.4-2.2 1-5.5 0-7.7-.5-1-1.6-1.4-2.4-2-1.7-1.1-3.7-1.6-5.6-2.3-.7 0-1.2-.2-1.7-.4z"/><path stroke="#1F282C" stroke-width=".25" stroke-miterlimit="10" d="M-28.4-25.8c2.1.9 3.8 1.7 6.1 2.1.2 1.4-1.9.4-2.3 0M-26-25.6c1.5.4 3.3-.2 4.8.4M-25.8-23.1c.8.3 3.4 2.5 4.1 1.2" fill="none"/><path fill="#2E9952" stroke="#0C151A" stroke-width=".5" stroke-miterlimit="10" d="M26.8-38.4c-1.1-.3-1.6-.3-3 .3s-2.1 2.3-2.6 3.7c-.4 1.1-1.3 3.1-.6 4.2.6 1.1 2.3 1.3 2.9 2.5.4.8-.1 1.5.9 2.2-1.6 1.3-4.1 3-3.7 5.4.7 3.3 5.6 5.9 8.6 6.7 3.3.9 3.9-1.2 5-3.8.9-2.3 3-4.4 3.4-6.8.4-2.5-.8-5.4-1.1-8-1-.6-1.8-1.8-2.7-2.6-.9-.8-1.8-1.6-2.6-2.4-.8-.8-1.6-1-2.8-1.4-.5.1-1.1.2-1.7 0z"/><path stroke="#1F282C" stroke-width=".25" stroke-miterlimit="10" d="M23.9-26.6c.4 2.2 3.8 3.1 5.6 3.3M28.3-20.4c-2.5-.3-4.1-3.8-4.3-5.8M22.3-28.9c.8 1.3 3.9 2.5 5.4 2.4" fill="none"/><path fill="#FADE64" stroke="#0C151A" stroke-width=".5" stroke-miterlimit="10" d="M-27.4-37.8c-1.3.1-2.1-.5-3.1.5-2.7 2.6-4.2 6.4-2.7 10 .2.4.4.9.8 1.2.6.3 1.3-.1 1.3-.8 1.2-.1 2.1-.6 2.3-1.9.1-.8 0-.9.6-1.2.6-.3 1-.2 1.4-.8.5-.8.5-1.8.1-2.7 1.5-1.3 2.1-4.5-.7-4.3zM20.3-38.4c-.3.7-.6 1.2-1.1 1.8-.4.5-1.3.8-1.6 1.2-.9 1.2-.1 5.2 1.8 5 .1-.2.1-.5.1-.8.1.8 2.6.1 3-.2.9-.8.5-1.7 1-2.7.3-.5 1.2-.6 1.6-1.1.5-.6.9-1.8 1.1-3.1l-5.9-.1zM-20.5-19.7c-.5 0-.8.1-.9.1-1.2.3-2.3.7-3.5 1.1-.9.3-1.8.5-2.6 1.1-.9.8-.5 1.8-.4 2.9 0 1-.2 2 1 2.3.8.2 2-.8 2.7-1.1 1-.4 2-.7 3-.9.9-.2 1.8-.3 2.7-.2.6 0 1.5.4 2-.1.4-.4.2-1.7.2-2.3.1-1 .4-2.5-.8-3-.9-.3-2.5 0-3.4.1zM24.8-16.9c-1.1-.7-2.4-1.6-3.2-2.5-.7-.8-1.6-2.7-2.5-1.1-1 1.7-1.8 2.9-.4 4.4 1.5 1.7 3.4 3.1 5.4 4.2 2 1.1 4.4 2.3 6.7 2.4 1 0 2-.3 2.6-1.2.7-.9 1.2-2.1 1.7-3.1-3.2 0-6.5-.8-9.2-2.5-.4-.1-.7-.3-1.1-.6z"/><path fill="#CC1B2C" stroke="#0C151A" stroke-width=".5" stroke-miterlimit="10" d="M17.9-12.3c-.2-1.9-.2-3.8 0-5.8.2-2.2.2-4.4-.5-6.5-.6-1.6-1.1-3.7-2.7-4.3-.1 0 .4-2.7.5-3 .3-1.2 1.6-1.7 2.4-2.4 1-.9 2.8-2.6 3.1-4l-37.8.1c1 2.3 2.5 7.5 1.6 9.8-.7 1.9-1.2 4-1.4 6-.3 2.2-.2 4.6-.2 6.8 0 .9.3 3-1 3.2"/><path fill="#2E9952" stroke="#0C151A" stroke-width=".5" stroke-miterlimit="10" d="M-4.8-35.8c-.3 1.5-.7 3.1-.8 4.6-.2 2.5-.1 5.1.1 7.6.2 2.2-.1 4.5-.3 6.7-.1 1.2-.4 2.4-.3 3.6 3.4.1 6.8 0 10.2-.3-1.2-1.1-.8-3.3-.8-4.7 0-2.7-.5-5.3-.6-7.9 0-2.6 0-5.1-.1-7.7 0-.7.5-1.7 0-2.3-.5-.7-1.7-.5-2.4-.5-1 0-2.1-.2-3.1-.1-.7.1-1.3.4-2 .4.1.3.1.5.1.6z"/><path stroke="#0C151A" stroke-width=".25" stroke-miterlimit="10" d="M-3.2-32.9c-.2.4-.6.7-1 .9l1.1.9c-.3.4-.6.8-1.1 1 .4.5.9 1 1.5 1.3M-.2-32.8c.4.2.8.6 1.1 1-.6.3-1.4.8-1.8 1l1.5.8c-.6.3-1.2.6-1.6 1" fill="none"/><path fill="#E6E6E6" stroke="#1F282C" stroke-width=".5" stroke-miterlimit="10" d="M12-12.3h-.2c-.2-.1-2.8-.7-2.9-1.1 0 .6.3 1.2.2 1.8.2-1-2-2.5-2.8-2.5v.3c-.8-.1-1.3-.9-1.9-1.2v1c-.9-.1-1.7-.6-2.6-.9-1.4-.5-3.8-1-5.2-.6-.4.1-.8.4-1.3.5-.4 0-.5-.4-.9-.2-.1 0-.5.8-.7.9-.3.3-.6.3-.8.7-.3-.4-.3-.8-.4-1.2-.9 1.2-4.1 2.1-5.5 2.2 0-.2 0-.5.1-.7-.5.5-.6 1.1-1.1 1.5-.6.5-1.1.4-1.5 1.2-.3-.5-.9-.8-1.3-1.2.3 1.2-.2 2.5-.7 3.6 0-.7-.4-1.4.1-1.9-1.8.8-1.5 2.3-2.1 3.8v-1.5c-.9.9-1.3 2-2 3.1-.3-1-.1-1.9.1-2.9-1.1 1.1-2.3 2.2-2.4 3.8-.3-.3-.4-.7-.5-1.1-.3.5-.1 1.3-.1 1.9-.3-.3-.6-.9-1-1 .2.7.5 1.4.4 2.1-.5-.3-.7-.8-1.4-.9 0 1 .7 2.4 1.5 3-.5-.4-1.1-.7-1.6-.8.8.7 2.8 2.8 4 2.5-.2 0-.3.1-.5.2.6-.2 1.3.4 1.8.8.6.4 1 .6 1.8.8-.5.2-1 .2-1.4.4.5-.1 1.6.6 2.1.8.8.3 1.6.2 2.4.6.6.3 1.2.6 1.8 1 1.2.8 2.5 1.5 3.9 1.8 1.1.2 2.2.1 3.4.1 1.3 0 2.6.3 3.8.4 2.9.3 5.8.5 8.7.4 2.4-.1 5.2-.4 7.4-1.2 3-1.2 6-2.2 9.1-3.4 2-.8 3.7-1.2 4.9-3.2-.5-.1-1 0-1.5 0-.1-.7-.2-1.4-.1-2-.3.1-.6.3-.7.6.1-.6 0-1.2-.4-1.6-.1 0-.2.1-.2.2.4-.2-1.1-2.1-1.3-2.3-.1 0-.2.1-.2.2-.7-.9-1.5-2.7-2.5-3.2 0 .3 0 .7-.1 1 0-.7-1.1-1.9-1.6-2.4-.7.6-2.8-2.9-3.5-3.4.5.5.4 1.1.3 1.7-.6-1.2-1.6-1.2-1.7-2.6-.6 0-.5.2-1.2.1z"/><path fill="#FADE64" stroke="#0C151A" stroke-width=".5" stroke-miterlimit="10" d="M2.9 3.3c2.1.7 3.7 1.4 5 3.3.2.4.5 1.4.9 1.6.7.4 2.7-.8 3.3-1 .5-.2 1-.5 1.5-.9s-2-4.3-3.1-3.9c.3-1.1-1.1-2.8-2.3-2-.1-.7-.2-1.2-.9-1.6-.7-.4-1-.2-1.6.3.3-1.3-2.3-2.1-2.9-1.1-.6-1.6-2.2-1.2-3.1-.3-.4-.5-.8-1-1.5-.9-.7.1-1.3.6-1.4 1.2-.4-.7-1.2-1.2-1.9-.7-.6.4-.8 1.2-.8 1.8-.4-.4-.8-1.1-1.4-.9-.7.3-.8 1.2-.7 1.8-2.9-1.6-5.8 5.4-5.2 5.7 1.4.7 2.9 1.6 4.3 2.1.8-1.9 3-3.1 4.7-4.1 1.9-1.1 4.2-1.3 6.3-.6l.8.2z"/><g stroke-miterlimit="10"><path fill="#CC1B2C" stroke="#0C151A" stroke-width=".5" d="M1.9 5.8c1.7.5 3.1 1 4.1 2.5.2.3.4 1.1.8 1.3.6.3 2.3-.7 2.8-.9.5-.2.9-.4 1.3-.7-.2-1.3-.9-2.2-1.7-3-.7-.7-1.4-1.5-2.2-2.1-.9-.7-1.9-1.1-3-1.3-2.2-.6-4.4-.7-6.7-.5-1.6.1-3.3.3-4.6 1.2-1.8 1.2-4.2 3.5-4.4 5.7 1.2.5 2.4 1.2 3.6 1.6.7-1.6 2.6-2.6 4-3.4 1.7-.9 3.5-1.2 5.4-.7l.6.3z"/><path stroke="#1F282C" stroke-width=".25" d="M-11 8.2c1 .1 2 .3 3 .3-.4-.5-.7-1.1-1-1.6-.2-.4-.7-.9-.6-1.4.8.5 2 .9 2.8 1.5-.3-.7-.4-1.4-.6-2.1-.1-.5-.3-1-.3-1.5.6.9 1.4 1.8 2.3 2.4 0-1.1.2-2.2.6-3.2.5.3.8 1.2 1.1 1.7.2.3.5.6.6.9.5-.9.4-2.3 1-3.2.5.8 1.3 1.7 1.7 2.6l1.6-2.7c.6.7.4 2.2 1 3 .5-.9 1.4-1.6 2-2.4.2 1.1.4 2.2.4 3.3.8-.3 2-1.1 2.5-1.8 0 .9-.6 1.8-.9 2.7 1.1.1 2.1-.2 3-.6-.7.8-1.6 1.6-2.6 2.3 1 0 2.7-.2 3.5-.6" fill="none"/></g><path fill="#00AFE9" stroke="#0C151A" stroke-width=".5" stroke-miterlimit="10" d="M-10.3-7.9c-1.2 1-2.4 1.6-3.2 3.1-.9 1.7-1.7 3.4-2.4 5.2-.6 1.5-1.7 2.9-1 4.6.4 1 1.5 1.1 2.3 1.7 1.2.7 2.4 1.3 3.5 2-.3-.2-.2-2.8-.2-3.2.1-1.1.4-2.1.7-3.1.5-2 1.4-4 2.8-5.4 2.2-2.2 5.4-3.2 8.4-3 3.7.2 7.3 3 9.1 6.2.9 1.6 1.2 3.7 1.4 5.5.2 1.1 0 2.2.1 3.3-.1-.8 4.9-1.7 5.5-2.7.7-1.3 0-3-.5-4.2-.7-1.9-1.5-3.7-2.6-5.4-1.2-1.9-3-3.8-4.9-5-1.9-1.2-4.1-2.2-6.3-2.7-4.5-1.3-8.6-1-12.1 2.5l-.6.6z"/><g stroke="#0C151A" stroke-width=".25" stroke-miterlimit="10" fill="none"><path d="M-9.2-4.5c2.8-3 8-4.7 12-3.7 1.2.4 2.4.8 3.5 1.3M-9.3-6.9c1-.2 2.2-.9 3.3-1.2 1-.3 2.1-.5 3.1-.6 1.6-.2 3.2 0 4.9-.1M6.2-5.3c3.4 1.5 6 4.4 6.7 8.1M-13.7 4.9c.8-2.6 1.4-5.3 2.8-7.8"/></g><path fill="#FADE64" stroke="#0C151A" stroke-width=".25" stroke-miterlimit="10" d="M-2.8-6c-.3-1.3-.1-2.6-.2-4s-.4-2.9-.3-4.3c.6.3 1.5.3 2.1.4.3 2.1.4 4.2.4 6.3.1.5.2 1.2-.2 1.6-.2.2-1.6.7-1.7.5-.1-.3-.2-.6-.2-.9"/><path fill="#FADE64" d="M3.8-26.7c-3.6.7-7.2.7-10.9 0 .8 3.7.8 7.3 0 11 3.6-.8 7.3-.8 10.9 0-.7-3.7-.7-7.4 0-11z"/><path stroke="#0C151A" stroke-width=".25" stroke-miterlimit="10" d="M3.8-26.7c-3.6.7-7.2.7-10.9 0 .8 3.7.8 7.3 0 11 3.6-.8 7.3-.8 10.9 0-.7-3.7-.7-7.4 0-11z" fill="none"/><path fill="#FADE64" stroke="#0C151A" stroke-width=".5" stroke-miterlimit="10" d="M1.5-25.6c.1-2.1-1.5-3.7-4-3.3-1.1.2-2.4.6-2.3 1.9.1.6 1.6 2.8 1.1 3.3-.4.4-2.4-1.1-2.9-1.3-1.4-.3-2.1.9-2.5 2-.8 2.1-.5 6 2.6 4.9.7-.3 2-1.4 2.3 0 .2 1.3-1.4 1.8-1.1 3.3.3 1.4 1.6 2.2 3 2.5 1.5.3 4.2-1.4 4.2-3.1 0-.9-2.8-4.1-.2-3.6 1.8.3 3.3 2.5 4.7.1 1-1.7.6-4.3-.8-5.6-1.7-1.7-3 .8-4.8 1l.3-.9c.3-.4.3-.8.4-1.2z"/><path fill="#0C151A" d="M-1.6-24.8c.1 3 .9 3.8 3.9 3.9.1 0 .2.1.2.2s-.1.2-.2.2c-1.6 0-2.5.3-3.1.8-.6.6-.8 1.5-.8 3.1 0 .1-.1.2-.2.2s-.2-.1-.2-.2c-.1-3-.9-3.8-3.9-3.9-.1 0-.2-.1-.2-.2s.1-.2.2-.3c1.6 0 2.5-.3 3.1-.8.6-.6.8-1.5.8-3.1 0-.1 0-.1.1-.2s.3-.1.4 0l-.1.3z"/><path fill="#FADE64" stroke="#0C151A" stroke-width=".5" stroke-miterlimit="10" d="M-.3-20.7c0-.8-.7-1.5-1.5-1.5s-1.5.7-1.5 1.5c0 .9.7 1.5 1.5 1.5s1.5-.6 1.5-1.5z"/><path stroke="#0C151A" stroke-width=".25" stroke-miterlimit="10" d="M-4.4-14.6c-.1.4.7.4 1 .3.6-.2.6-.7 1.3-.5.8.2 2.1 1 2.4-.4M-8.1-18.9c-.7-1 .9-1.2 1-2.2.1-.8-1.6-1.8-.6-2.6M-3.8-26.9c.3-.9 1.4.2 2.1-.2.6-.3 1.5-1 1.9.1M4.9-18.7c1.1-.3-.5-2-.3-2.7.2-.5.6-.6.6-1.3 0-.6-.4-1.1-1-1.1" fill="none"/><g stroke="#0C151A" stroke-miterlimit="10"><path fill="#2E9952" stroke-width=".5" d="M-8.9-36.8l-.6.1c-2 .3-4.8.6-6.4 2.1-.7.7-.2 1.6.1 2.4.1.4.1 1.6.5 1.8.5.3 1-.3 1.4-.4l2.6-.6c1.1-.3 2.2-.5 3.3-.7 5.6-1.2 11.1-1.2 16.6.3 1.2.3 2.4.7 3.5 1.1.9.4 1.8 1.4 2.8 1.1.8-.2 1-1.5 1.2-2.2.5-1.1.4-1.7-.7-2.3-2.6-1.5-5.7-2.3-8.7-2.9-5.1-1-10.5-.6-15.6.2z"/><path stroke-width=".25" d="M-15.3-31.4c0-.6.5-1.9.7-2.7.6.2.8 1.4 1.3 1.9l1.1-2.8c.6.6 1.1 1.4 1.8 1.9.4-.8.6-1.7 1-2.4.5.5.7 1.3 1.3 1.8.3-.6.7-1.6 1.2-2.1.4.6.7 1.5 1.3 1.8 0-.8.6-2 1.1-2.6.7.7 1.3 1.7 2 2.5.5-.6.9-1.7 1.3-2.4h.2c.3.7.8 1.4 1 2.2l1.1-1.8c.4.5.3 1.4.9 1.8.2-.4.9-2 1.4-2 .4 0 1.3 1.8 1.4 2.2.5-.7.9-1.8 1.6-2.4.3.9 1 2.3 1.1 3.2.5-.6.8-1.8 1.5-2.2.3.8.9 1.6 1.1 2.4 1-.2 1.4-1.1 2.1-1.7.2.7.4 1.6.4 2.4.6-.1 1.4-.7 1.6-1.3.5.6.1 1.6.6 2.1s1.2-.5 1.1-1.1" fill="none"/></g><g stroke="#1F282C" stroke-miterlimit="10"><g fill="#FADE64" stroke-width=".5"><path d="M-34 7.5v.4l.1-.2c2.3-.4 2.8 2 2.4 3.9-.1 0-.2-.1-.3-.2-.2 1.1-.8 2.5-1.1 3.2-.3-.3-.6-.7-.8-1.1-.2-.3-.4-.7-.5-1-.1-.4-.2-.9-.2-1.4l-.6.9c-.1-1.2-.5-4.1 1-4.5zM-32.9 14.7c.5-.1 1.1.3 1.1.8.1.5-.3 1.1-.8 1.1s-1.1-.3-1.1-.8c-.1-.5.3-1 .8-1.1zM-37.5-36.2c1.1.2 2.2 2.5 2.5 5.4 0 .5.1 1 0 1.5 0 .2 0 .4.1.6.2 2.1-.1 3.9-.7 4.9h.6c1.3.3.6 1.3.1 1.8h-.1c.6.4 1.1 1 1.2 1.8.1.6 0 1.2-.3 1.7.6.5.8 1.6.1 2.2 0 0 .1.1.2.1.9.8 1.6 2.4 1.8 3.5.3 2-.2 4.1-.2 6.1 0 1.6.2 3.2.6 4.7.4 1.7.9 3.4 1.8 4.9-.6.1-1.4-.9-1.7-1.3-.1-.1-.2-.2-.3-.4-.2.9-.4 1.7-.6 2.1-.1.2-.6 1.3-.9 2.1.3.1.6.4.7.8.1.5-.3 1.1-.8 1.1-.5.1-1.1-.3-1.1-.8-.1-.4.1-.8.4-1-.4-.6-.7-1.3-.8-1.8l-.4-1.5c-.1-.4-.2-.8-.2-1.2v.1c-.3.6-.4 1.3-1 1.7-.1.1-.9.2-.9.2.4-.9.7-2 1-3 .3-1.1.4-2.3.2-3.5l-1.3-4.9-.3-1.8c-.2-.8-.5-1.7-.5-2.5-.1-1.2.3-2.4 1.2-3.2-.6 0-1.2-.5-1.2-1.2 0-.3.1-.5.3-.7-.4-.4-.8-.9-.9-1.5-.2-.9.2-1.8.8-2.4h-.1c-.5-.1-.9-.6-.7-1.2.2-.5.7-.6 1.1-.6-.8-.9-1.4-2.7-1.6-4.9 0-.5-.1-1 0-1.5 0-.2 0-.4-.1-.6-.3-3.1.5-5.6 1.7-5.8-.4 0-.8-.3-.9-.8-.1-.5.3-1.1.8-1.1.5-.1 1.1.3 1.1.8.2.5-.2 1-.7 1.1z"/></g><g stroke-width=".25" fill="none"><path d="M-34 7.5c-1.5.4-1 3.3-.9 4.4.3-.5.7-1.1 1.1-1.6.1.7.4 1.3.5 1.9.3-.5.5-1.2.6-1.7.3.3.7.7 1.1 1 .4-1.9-.1-4.3-2.4-3.9 0 .1 0 .2-.1.2"/><path d="M-34.4 11.2c-.1.3.1.9.2 1.2.1.4.3.7.5 1 .2.4.5.8.8 1.1l.5-1.1.3-1.1c.1-.4.2-.8.1-1.2M-35.6 1.2l.2 1.1.4 1.5c0 .2.7 1.7.8 1.6.3-.2.8-.2 1.1-.2.1 0 .6-1.7.7-1.8.2-.6.5-1.3.4-1.9"/><path d="M-31.8 15.5c-.1-.5-.6-.9-1.1-.8-.5.1-.9.6-.8 1.1.1.5.6.9 1.1.8s.9-.5.8-1.1zM-32.6 6.3c-.1-.5-.6-.9-1.1-.8-.5.1-.9.6-.8 1.1.1.5.6.9 1.1.8.5-.1.9-.6.8-1.1zM-36.7-37.3c-.1-.5-.6-.9-1.1-.8-.5.1-.9.6-.8 1.1.1.5.6.9 1.1.8s.9-.6.8-1.1zM-33-.8c.3.3.3 1 .5 1.4.2.4.6.9.9 1.3.3.4 1.1 1.4 1.7 1.3-.9-1.5-1.4-3.2-1.8-4.9-.4-1.6-.6-3.1-.6-4.7.1-2 .6-4.1.2-6.1-.2-1.2-.9-2.7-1.8-3.5-.5-.4-1.4-.6-2-.4-1.7.5-2.5 2.3-2.4 3.9.1.9.3 1.7.5 2.5.2.6.2 1.2.3 1.8l1.1 5.1c.2 1.1.1 2.3-.2 3.5-.2 1-.5 2.1-1 3 0 0 .8-.2.9-.2.6-.4.8-1.1 1-1.7.1-.2.3-.5.3-.8M-32.9-.6c-.3.1-.6.7-1 .9-.2-.4-.2-.9-.3-1.4-.1-.6-.3-1.1-.3-1.7-.1-.8.1-1.5.3-2.2-.3.4-.6.6-1 .9-.1-.7-.3-1.3-.2-2.1.1-.7 0-1.8.5-2.4-.2.4-.7 1-1.1 1.3-.2-.6-.4-1.3-.3-2 .1-.7.5-1.4.7-2.1.2-.6.4-1.3.4-1.9 0-.5-.5-1.6-1-.8-.4.6-.2 1.7.3 2.2M-35.8 0c.3.1.4.6.8.8.3-.4.6-1.2.6-1.7M-37.1-15.9c-.4 0-1-.5-1.1-.9-.1-.5.3-.7.4-1M-34.3-16.3c.6-.6.8-1.9 0-2.5"/><path d="M-33.8-20.2c-.2-1.4-1.6-2.3-3-2.1s-2.3 1.6-2.1 3c.2 1.4 1.6 2.3 3 2.1s2.3-1.6 2.1-3zM-38.1-21.7c-.5-.1-.9-.6-.7-1.2.2-.6.8-.6 1.3-.7.8-.1 1.7-.4 2.5-.2 1.3.3.6 1.3.1 1.8"/></g></g><g stroke="#1F282C" stroke-miterlimit="10"><path fill="#E0CAA5" stroke-width=".5" d="M-34-27.9c1.5-1.2 2.5-2.8 2.9-4.6.2-.9.5-2.6-.4-3.3-1.2-1-3.6 0-5 0-1.2 0-2.5-.7-3.7.1-.2.2-.8 1.7-.6 1.6-.9.2-.4 1.6-.7 2.1-.3.5-1.1 1.6 0 2-.4.3-.9 1.3-.7 1.8.3.9 2.3 1.4 3.1 1.6.2-.3.5-1 .9-1.2.4-.2 1 .2 1.5.3 1.1.4 1.9.2 2.7-.4z"/><path stroke-width=".25" d="M-38-28.5c.6.1-.1.7-.4.7-.5 0-.9-.3-.8-.8.2-1.3 2.2-1.1 3-.8.2-.3.6-.5.9-.5M-41.5-30c.4-.6 1.3-.9 1.9-1 .9-.3 1.1.2 1.9.5.4.1 1.9 0 1.4.7M-41.5-32.1c1-.8 4.6-.8 5.5.4.3.4.2 1.1-.3 1.3M-41-33.9c1.2-.7 4.6-.5 5.4.9.3.5.1 1-.5 1.2M-37-35.6c.5.1 1.5.6 1.8 1.1.4.5 0 1.5-.7 1.1M-36-29.6c.4-.6.4-1.4.7-2 .3-.7.8-1 1.2-1.5" fill="none"/></g><path fill="#E0CAA5" stroke="#1F282C" stroke-width=".5" stroke-miterlimit="10" d="M17.5-35.7c.7.1 1.3-.1 1.9-.9.5-.8 1-1.3 1.3-2l-7.9.3c.1.2.2.4.4.6-.6.3-1.4.8-1.1 1.6 1.2.2 2.3-.4 3.6 0 .7.2 1.2.4 1.8.4z"/><g stroke="#1F282C" stroke-miterlimit="10"><path fill="#B37E47" stroke-width=".5" d="M10.8 23.1c-.7.9-1.4-1.7-1.6-2.2l-1.8-5.6c-.2-.8-.3-1.6-.4-2.4 0-.8.1-2 .6-2.7.3-.2.6-.5 1-.4.2 0 .8.6.7.7.7-.3 1.2.5 1.4 1.1.3.9.6 1.7.8 2.7.1.8.9 1.8.3 2.5-.2.2-1.4.7-1.4.2 0 .5.3 1 .5 1.4.4 1.2 1 3.4.3 4.6-.3 0-.3.1-.4.1z"/><path stroke-width=".25" d="M7.9 11.8c0-.9 1.7-2 2.2-1M8.2 13.2c.3-.9 2.3-2.2 2.7-.7M8.6 14.9c.1-.8.2-1.4 1-1.6.5-.1 1.5-.1 1.6.5M9.4 17.7c-.4-.9-.4-2.5.8-2.6.5 0 1.1.3.7.9-.4.5-1.4-.1-.6-.3" fill="none"/></g><path fill="#E0CAA5" stroke="#1F282C" stroke-width=".5" stroke-miterlimit="10" d="M5 8.2c-.5-.6-1.1-1.3-1.6-1.6-2.6-1.7-5.4-1.3-8 0-1 .5-3.2 1.6-3.1 2.9.1 1.4.5 2.8.6 4.3.1 2.1.1 4.5.1 6.6 0 3.4-.3 6 3 7.8 2.4 1.3 5.2 1.8 7.9 1.5 1.1-.1 2.4-.2 3.2-.9.8-.7 1.6-1.7 2.3-2.5 1.4-1.6 1.5-3.9.9-6s-1.2-4.2-2-6.2c-.2-.7-.3-1.4-.6-2.1-.4-.9-1.3-1.7-1.8-2.5-.2-.3-.6-.8-.9-1.3z"/><path fill="#fff" d="M2.1 19.2c.1.2.1.5-.1.8-.4.4-2.9.7-3.1-.1-.2-1.3 2.6-1.5 3.2-.7zM8.4 17.9c.3 1.2-1.8 1.5-2.4.9-.5-.5-.3-1.1.3-1.4.5-.2 1.8-.2 2.1.5z"/><g><path stroke="#1F282C" stroke-width=".25" stroke-miterlimit="10" d="M-3.1 9.7c1.1-2.1 4.5-3.5 6.8-2.6.6.3 1.1.8 1.5 1.3" fill="none"/><path stroke="#1F282C" stroke-width=".5" stroke-miterlimit="10" d="M2.3 15.7c-.3-.1-.7-.8-.6-1.3.6-.4 1.1 0 1.6-.3M5.2 19.9c-.4-1.1 0-2 0-3.1 0-.7.2-1.4.1-2-.1-.6-.8-1.2-.9-1" fill="none"/><path fill="#1F282C" d="M.5 22.2c1.2.1 1.9-1.2 3-1-.6.6-1.8 1.6-2.7 1.6-.5 0-1.1-.5-1.6-.6-.7-.2-1.3-.2-1.9-.2.8-.5 2.3.1 3.2.2zM6.9 20.7c.7.1 1.4-.1 2-.5.2-.2.4-.4.7-.6-.1.4-.2.8-.5 1.1-.4.3-1.1.3-1.6.4-.3.1-.5.4-.7.4-.3 0-.7-.3-.9-.5-.3-.2-.9-.6-.8-1 .1-.3.3-.3.5-.1.2.2.2.4.5.6.2.1.5.1.8.2-.2-.1-.1 0 0 0zM1.7 11.8h.2c.3 0 .7 0 1-.1l1.1-.5c.3 0 .8 0 .8-.4v.9c-.5-.1-.5-.3-.7.2-.2.3-.2.5-.6.4-.5-.2-.4-.3-.7.1-.3.4-.7.3-1.1.1-.2-.1-.4-.3-.6-.3-.1 0-.3.2-.3.2-.4 0-.3-.3 0-.5.2-.3.5-.1.9-.1z"/><path stroke="#1F282C" stroke-width=".25" stroke-miterlimit="10" d="M1.7 11.4c.2-1 1.4-.8 2-.6M-1.9 19.7c.8.2 1.5.6 2.4.7.5 0 1.5-.1 1.6-.7.1-.4-.2-.6.1-1M-1.8 20.4c1.1.3 2.9 1 3.8 0 .2-.3.3-.5.3-.8M5.4 18.7c.7.2 1.5.4 2.2.2.9-.3 1.1-1 .5-1.7-.5-.5-.8-.6-1.4-.4M5.6 19c1 .4 2.4.8 3-.4.1-.3.2-.6.2-.9" fill="none"/><path fill="#1F282C" d="M1.5 18.7c.4.2.8 1 .3 1.4-.2.1-1.5.1-1.5.1l.5-.4c.1-.3-.1-.2-.2-.3-.4-.4.1-.4.6-.4-.1-.4-.9-.3-1 .1-.1.2 0 .4 0 .7 0 .1.2.2.1.3-.2.2-.4-.4-.4-.5 0-.3.1-.5.2-.7.3-.5.9-.6 1.4-.3zM8 17.5c.3.3.4.8 0 1.1-.2.1-.8.4-1 .2-.2-.2.4-.3.3-.6 0-.4-.5-.2-.7-.2 0-.5.6-.4.6-.7-1-.2-1.2.9-.4 1.4v.1c-.6 0-.9-1.1-.5-1.5.5-.3 1.4-.2 1.7.2z"/><path stroke="#1F282C" stroke-width=".25" stroke-miterlimit="10" d="M.5 18.2c.4-.1 1.1 0 1.5.2" fill="none"/></g><g stroke="#1F282C" stroke-miterlimit="10"><path fill="#B37E47" stroke-width=".5" d="M-2.2 27.4c-2.8.9-5.1-1.4-6.5-3.5-.7-1-3.6-2.8-2.5-4.4-.7-.3-1.1-.5-1.2-1.2-.2-.9.2-1.1.7-1.7-.2.3-1-1-1-1.1-.2-.4-.3-1.2-.2-1.6.2-.8 1.5-1.3 2.2-1 1.1-2.1 2.7-1.3 3.5.5.8 1.7 1.4 3.2 1.7 5 .3 1.7 1.7 3.1 2.3 4.7.5 1.3 3.2 3.6 1 4.3z"/><path stroke-width=".25" d="M-11.6 33.5c.3.5 1 .6 1.4.2.5-.4.5-1 .2-1.5-.2-.3-.3-.5-.6-.3M-2.7 26.1l-1.9-3c-.7-.9-1.5-1.8-1.8-3-.2-1 0-2.1-.5-3-.2-.4-1.1-1.6-1.6-.8-.6.9 1 2 .9 1.1M-6.4 25.4c-.7-.5-.7-1.3-1.1-2-.3-.5-.8-.9-1.3-1.3-.9-.8-2-1.8-1.5-3.1-1.2.1-1.2-2.1-.6-2.7-1.1 0-1.5-2.7-.4-3.1M-10 12c-1.1.4-.6 2.5.2 3 1.5.8 2.2-1.2.9-1.7-.8-.3-1 .7-.1.8M-4.3 25.8c-.9-.5-1.4-1.5-1.8-2.4l-.4-1.3c-.3-.5-.9-.8-1.3-1.2-.8-.7-.8-1.5-.7-2.6-.9-.2-1.8-1.9-.9-2.6" fill="none"/></g><g stroke="#1F282C" stroke-miterlimit="10"><path fill="#FADE64" stroke-width=".5" d="M-9.6 28.6v.1c-.1.3.1.7.4.7 0 .5-.2.7-.4 1.1-.2.3-.4.5-.5.8-.2.3-.5.3-.8.5-.6.3-1.2 1.3-.4 1.8l-.4.6c-.4.4-.9.8-1.4 1.1l-1.4 1h1c.5.1 1.1.2 1.7.3.5.1.8.2 1.2 0 .6-.2 1-.8 1.1-1.4 0-.2 0-.3.1-.5.2.8 1 .9 1.6.6.6-.2 1.1-.7 1.7-.6.3 0 .7.2 1 .3-.5-.3-.4-1-.5-1.5-.1-1.1-.5-1.7-1.6-2 .7 0 1.2-.4 1.9-.2.5.1 1 .3 1.5.5.4.2.6.5 1 .9-.4.3-.7.7-.7 1.3 0 .5.3 1 .8 1.3 1 .5 2.2-.3 2.2-1.4 0-.6-.4-1-.9-1.3.2-.4.6-.6 1-.8.7-.2 1.5 0 2.2.2l1.1.3c.2 0 .4.1.5.2l.3.4c-.4 0-.9-.3-1.3-.2-.4.1-.4.6-.5.9-.1.4-.3.7-.5 1.1.5-.1.9 0 1.4.4.6.5 1.5 1 2.1.2-.3.5-.3.9 0 1.4.4.6 1.1.8 1.7 1 .3.1.5.2.7.4.3-.9 1.6-1.2 1.4-2.3 0-.3-.2-.5-.3-.7.5.1.6-.4.8-.7.3-.6.4-.7 1-.9-.4-.3-.6-.9-.9-1.2-.4-.5-.8-.4-1.3-.2-.3.1-.9.2-.6-.3.4-.6 1.4-.7 2-.5.4.2.7.3 1.1.6-1.2 1.4 1.1 2.4 2.1 1.3.5-.6 0-1.3-.5-1.6-.5-.3-1-.6-.7-1.3.4-.7 1.1-.5 1.7-.2-.4-.1-.5.8-.5 1.1 0 .7.5 1.2.4 1.9.3-.1.4-.2.7-.1l.6.3c.4.1.8 0 1.1-.1.4-.1.6-.3.9-.6.1.6.7 1 1.2.9.5 0 .9-.3 1.4-.4.4-.2.9-.2 1.4-.2-.3-.2-.6-.2-1-.3-.3-.1-.6-.3-.8-.4-.5-.2-1-.5-1.5-.9-.2-.2-.4-.4-.5-.6.4-.7 0-1.9-1-1.7-.2 0-.4.1-.6.2-.1.1-.3.3-.5.3s-.5-.3-.6-.4l-.6-.5c-.3-.3-.6-.6-.8-.9.3-.2.5-.6.4-1-.2-.4-.6-.4-1-.4-.3-.6-.8-1.3-.7-2 .4-.3.8-1.1 0-1.3-.3-.1-.4.1-.5.3-.7.8-1.8 1-2.7 1.3-1.6.6-3.3 1-4.9 1.4-1-.1-2 .1-3.1.1h-1.9l-2.4-.2c-.9-.1-1.7-.2-2.6-.4-.4-.1-.6-.2-.9-.4-.2-.1-.8-.5-1-.3-.2.2-.2.5-.1.7.1.2.2.3.4.4.5.3.5.6.4 1.1-.1.4-.1 1-.5 1.2-.3.2-.7.1-.9.4z"/><path stroke-width=".25" d="M7.2 34.9c-.4.1-.8.3-1.1 0-.3-.3-.4-.8-.3-1.2.2-1 1.8-1.1 1.9 0 .1.5-.2.9-.6 1.2M16.8 30.1c-.1 1.3-2.4.4-2.3-.6 0-.3.3-.5.6-.7M-9.7 29.1c1.8 1 3.9 1.4 6 1.6 1.6.2 3.3.1 5 .1 1.6 0 3.1-.2 4.6-.6 1.4-.4 2.8-.8 4.2-1.3.9-.3 1.5-.9 2.3-1.4l.3-.1M-8.9 28.3c3.9 1.3 8.3 2.1 12.4 1.1 1.3-.3 2.6-.7 3.8-1 .7-.2 1.5-.4 2.2-.8.5-.2 1-.4 1.4-.7.4-.3.8-.7 1.3-.8M-9.1 25.4c.2.6 1.1.7 1.6.9 1.2.3 2.4.5 3.5.7 1.7.3 3.4.3 5.2.1 1.3-.2 2.7-.4 4-.7 1.1-.3 2.3-.6 3.3-1.1l1.2-.5c.7-.3 1.3-.5 1.8-1.2" fill="none"/></g><path stroke="#0C151A" stroke-width=".5" stroke-miterlimit="10" fill="none" d="M19.3-20.1l.2 3.5 2.3-1.5v3.4l2.1-1.5.4 3 1.9-1.3.4 2.2.1.7 3.2-1.8-.2 2.9 2.3-2.3 1 2.2M-17.4-17.7l-.7-1-1.4 3.3-1-2.6-.5-.4-1.5 3.3-1.9-2.4-1.1 3.5-2-2.3"/></symbol><symbol id="f" viewBox="-3.4 -6.4 6.7 12.7"><path d="M-1.5.6l2.8 5.8h1.9l-3-6 3.2-6.8h-2l-2.9 6.4h-.1v-6.4h-1.8v12.8h1.8l.1-5.8z"/></symbol><symbol id="d" viewBox="-50 -85 100 170"><path fill="#FAFAEE" d="M-43-84.5c-3.6 0-6.5 2.9-6.5 6.5v156c0 3.6 2.9 6.5 6.5 6.5h86c3.6 0 6.5-2.9 6.5-6.5v-156c0-3.6-2.9-6.5-6.5-6.5h-86z"/><path d="M43 84c3.3 0 6-2.7 6-6v-156c0-3.3-2.7-6-6-6h-86c-3.3 0-6 2.7-6 6v156c0 3.3 2.7 6 6 6h86m0 1h-86c-3.9 0-7-3.1-7-7v-156c0-3.9 3.1-7 7-7h86c3.9 0 7 3.1 7 7v156c0 3.9-3.1 7-7 7z"/></symbol><symbol id="h" viewBox="-42 -77 84 154"><path d="M-41.5-38.5c-.3 0-.5.2-.5.5v76c0 .3.2.5.5.5s.5-.2.5-.5v-76c0-.3-.2-.5-.5-.5zM39.5-77h-79c-1.4 0-2.5 1.1-2.5 2.5 0 .3.2.5.5.5s.5-.2.5-.5c0-.8.7-1.5 1.5-1.5h79c.8 0 1.5.7 1.5 1.5 0 .3.2.5.5.5s.5-.2.5-.5c0-1.4-1.1-2.5-2.5-2.5zM41.5-38.5c-.3 0-.5.2-.5.5v76c0 .3.2.5.5.5s.5-.2.5-.5v-76c0-.3-.2-.5-.5-.5zM41.5 74c-.3 0-.5.2-.5.5 0 .8-.7 1.5-1.5 1.5h-79c-.8 0-1.5-.7-1.5-1.5 0-.3-.2-.5-.5-.5s-.5.2-.5.5c0 1.4 1.1 2.5 2.5 2.5h79c1.4 0 2.5-1.1 2.5-2.5 0-.3-.2-.5-.5-.5z"/></symbol><symbol viewBox="-14.4 -15.9 28.8 31.9"><path fill="#028C02" d="M3.1-12.4c0-.8-.3-1.6-.9-2.2-.6-.6-1.3-.9-2.2-.9-.8 0-1.6.3-2.2.9-.5.7-.8 1.4-.8 2.2 0 .8.3 1.6.9 2.2.6.6 1.3.9 2.2.9.8 0 1.6-.3 2.2-.9.5-.6.8-1.3.8-2.2z"/><path fill="#046604" d="M2.2-14.6c.6.6.9 1.3.9 2.2 0 .8-.3 1.6-.9 2.2-.6.6-1.3.9-2.1.9v-6.1c.8 0 1.5.3 2.1.8z"/><path stroke="#000" stroke-miterlimit="10" d="M3.1-12.4c0-.8-.3-1.6-.9-2.2-.6-.6-1.3-.9-2.2-.9-.8 0-1.6.3-2.2.9-.5.7-.8 1.4-.8 2.2 0 .8.3 1.6.9 2.2.6.6 1.3.9 2.2.9.8 0 1.6-.3 2.2-.9.5-.6.8-1.3.8-2.2z" fill="none"/><path fill="#D9D900" d="M13.9 1.5c0-3.8-1.3-7.1-4-9.8-2.7-2.7-6-4-9.8-4s-7.1 1.3-9.9 4c-2.7 2.7-4 6-4 9.8 0 3.8 1.4 7.1 4 9.8 2.7 2.7 6 4.1 9.9 4.1s7.1-1.4 9.8-4.1c2.7-2.7 4-5.9 4-9.8z"/><path fill="#99950A" d="M.1 15.4v-27.8c3.8 0 7.1 1.4 9.8 4 2.7 2.7 4 6 4 9.8 0 3.8-1.3 7.1-4 9.8-2.8 2.9-6 4.2-9.8 4.2z"/><path fill="#B30000" d="M-13.9 1.5c0-1.8.3-3.5.9-5.1h26c.6 1.6.9 3.3.9 5.1v.9h-27.7c-.1-.3-.1-.6-.1-.9z"/><path fill="#00B300" d="M5.8-10.9c-1.7-.8-3.5-1.2-5.5-1.2s-4 .4-6 1.2c-1.4 1-2.4 2-3 2.9-.6.8-.7 1.3-.3 1.4.3 0 1.1-.3 2.5-.9l4.2-2.1c.5 2 1.2 3 2.3 3 1.1 0 1.8-1 2.3-3.1.8.4 2.2 1.1 4.3 2.1 1.3.7 2.1 1 2.4.9.4-.1.3-.6-.3-1.4-.5-.9-1.5-1.8-2.9-2.8z"/><path d="M3.2 9.3c0-.9-.3-1.6-.9-2.2-.6-.6-1.4-.9-2.3-.9-.9 0-1.6.3-2.2.9-.6.6-.9 1.4-.9 2.2 0 .9.3 1.6.9 2.2.6.6 1.4.9 2.2.9.9 0 1.6-.3 2.2-.9.7-.5 1-1.3 1-2.2z"/><path stroke="#1A171B" stroke-width=".65" fill="none" d="M.1 12.4v3"/><path fill="#087208" d="M9.1-6.6c-.3 0-1.1-.3-2.5-1-2.1-1-3.5-1.7-4.3-2.1-.4 2.1-1.2 3.1-2.2 3.1v-5.5h.3c2 0 3.8.4 5.5 1.2 1.4 1 2.4 2 3 2.9.5.8.6 1.3.2 1.4z"/><path fill="#750B0B" d="M.1 2.4v-6h12.9c.6 1.6.9 3.3.9 5.1v.9h-13.8z"/><path stroke="#000" stroke-miterlimit="10" d="M13.9 1.5c0-3.8-1.3-7.1-4-9.8-2.7-2.7-6-4-9.8-4s-7.1 1.3-9.9 4c-2.7 2.7-4 6-4 9.8 0 3.8 1.4 7.1 4 9.8 2.7 2.7 6 4.1 9.9 4.1s7.1-1.4 9.8-4.1c2.7-2.7 4-5.9 4-9.8z" fill="none"/></symbol><symbol viewBox="-1.4 -31 2.8 62"><path fill="#930" d="M.5-27.6c-.2.1-.3.1-.5.1-.3 0-.5-.1-.8-.2v57.1c.4 2.1.9 2.1 1.2 0v-57z"/><path fill="#ff0" d="M-.8-27.8c.2.2.5.2.8.2.2 0 .3 0 .5-.1.1-.1.2-.2.3-.2.3-.3.4-.6.4-.9 0-.3-.2-.8-.4-1.4-.3-.6-.7-.8-1-.6-.3.2-.5.5-.8.9-.2.4-.4.8-.4 1.1 0 .3.1.6.4.9.1 0 .2.1.2.1z"/><path stroke="#000" stroke-width=".3" stroke-linecap="round" stroke-linejoin="round" stroke-miterlimit="3" d="M-.8-27.8v57.1c.4 2.1.9 2.1 1.2 0v-56.9c.1-.1.2-.2.3-.2.3-.3.4-.6.4-.9 0-.3-.2-.8-.4-1.4-.3-.6-.7-.8-1-.6-.3.2-.5.5-.8.9-.2.4-.4.8-.4 1.1 0 .3.1.6.4.9.2-.1.3 0 .3 0zm1.3.2c-.2.1-.3.1-.5.1-.3 0-.5-.1-.8-.2" fill="none"/></symbol><symbol id="b" viewBox="-1.4 -27.6 2.8 55.2"><path fill="#930" d="M.5-24.3c-.2.1-.3.1-.5.1-.3 0-.5-.1-.8-.2v51.4c.4.6.9.6 1.2 0v-51.3z"/><path fill="#ff0" d="M-.8-24.4c.2.2.5.2.8.2.2 0 .3 0 .5-.1.1-.1.2-.2.4-.2.3-.3.4-.6.4-.9 0-.3-.1-.8-.4-1.4-.3-.6-.7-.8-1-.6-.3.2-.5.4-.8.8-.2.4-.4.8-.4 1.2 0 .3.1.6.4.9l.1.1z"/><path stroke="#000" stroke-width=".3" stroke-linecap="round" stroke-linejoin="round" stroke-miterlimit="3" d="M-.8-24.4v51.4c.4.6.9.6 1.2 0v-51.2c.1-.1.2-.2.4-.2.3-.3.4-.6.4-.9 0-.3-.1-.8-.4-1.4-.3-.6-.7-.8-1-.6-.3.2-.5.4-.8.8-.2.4-.4.8-.4 1.2 0 .3.1.6.4.9.1-.1.2 0 .2 0zm1.3.1c-.2.1-.3.1-.5.1-.3 0-.5-.1-.8-.2" fill="none"/></symbol><symbol id="a" viewBox="-1 -7.3 17.4 7.3"><path stroke="#000" stroke-width="1.5" stroke-linecap="round" stroke-linejoin="round" stroke-miterlimit="3" d="M-.2-1.2c2.9.7 5.7.7 8.6-.1 3.2-.9 5.6-2.7 7.3-5.2" fill="none"/><path stroke="#E6E600" stroke-linecap="round" stroke-linejoin="round" stroke-miterlimit="3" d="M-.2-1.2c2.9.7 5.7.7 8.6-.1 3.2-.9 5.6-2.7 7.3-5.2" fill="none"/></symbol><use xlink:href="#d" width="100" height="170" x="-50" y="-85" transform="matrix(1 0 0 -1 50 85)" overflow="visible"/><g><g><g><use xlink:href="#e" width="12.9" height="13" x="-6.5" y="-6.5" transform="matrix(-1 0 0 1 89.499 135.5)" overflow="visible"/><use xlink:href="#e" width="12.9" height="13" x="-6.5" y="-6.5" transform="matrix(-1 0 0 1 10.499 135.5)" overflow="visible"/><use xlink:href="#e" width="12.9" height="13" x="-6.5" y="-6.5" transform="matrix(1 0 0 -1 89.501 34.5)" overflow="visible"/><use xlink:href="#e" width="12.9" height="13" x="-6.5" y="-6.5" transform="matrix(1 0 0 -1 10.501 34.5)" overflow="visible"/></g><g><use xlink:href="#f" width="6.7" height="12.7" x="-3.4" y="-6.4" transform="matrix(-1 0 0 1 90.5 151.5)" overflow="visible"/><use xlink:href="#f" width="6.7" height="12.7" x="-3.4" y="-6.4" transform="matrix(-1 0 0 1 9.5 151.5)" overflow="visible"/><use xlink:href="#f" width="6.7" height="12.7" x="-3.4" y="-6.4" transform="matrix(1 0 0 -1 90.5 18.5)" overflow="visible"/><use xlink:href="#f" width="6.7" height="12.7" x="-3.4" y="-6.4" transform="matrix(1 0 0 -1 9.5 18.5)" overflow="visible"/></g><use xlink:href="#g" width="80.6" height="77.3" x="-42.5" y="-38.8" transform="matrix(-1 0 0 1 47 123.305)" overflow="visible"/><use xlink:href="#g" width="80.6" height="77.3" x="-42.5" y="-38.8" transform="matrix(1 0 0 -1 53 46.695)" overflow="visible"/></g></g><use xlink:href="#h" width="84" height="154" x="-42" y="-77" transform="matrix(1 0 0 -1 50 85)" overflow="visible" opacity=".75"/></svg>
