<svg xmlns="http://www.w3.org/2000/svg" xmlns:xlink="http://www.w3.org/1999/xlink" viewBox="0 0 100 150" enable-background="new 0 0 100 150"><symbol id="a" viewBox="-7.3 -7.3 14.6 14.6"><path fill-rule="evenodd" clip-rule="evenodd" d="M1.7 2.6c-.7-.8-1-1.4-1.1-2 .6.1 1.3.4 2 1.1.7.6 1.4.9 2.1.9.7 0 1.3-.3 1.9-.8.5-.5.7-1.1.7-1.8s-.3-1.3-.8-1.9c-.5-.4-1.1-.7-1.8-.7s-1.4.3-2.1 1c-.8.7-1.4 1-2 1.1 0-1.4 0-2.5.1-3.3.2-1.5.6-2.5 1.1-3.2.1-.1.1-.1 0-.2 0-.1-.1-.1-.2-.1-.6.1-1.1.2-1.6.2s-1-.1-1.7-.2c-.1 0-.1 0-.2.1s-.1.1 0 .2c.6.7.9 1.7 1.1 3.1.1.9.2 2 .2 3.3-.5 0-1.2-.4-2-1-.7-.7-1.4-1-2.1-1-.7 0-1.3.3-1.9.8-.5.5-.7 1.1-.7 1.8s.3 1.3.8 1.8c.5.6 1.1.8 1.8.8s1.4-.3 2.1-.9c.8-.7 1.4-1 2-1.1-.1.6-.4 1.3-1.1 2-.6.8-.9 1.4-.9 2.1 0 .7.3 1.3.8 1.9.5.5 1.1.7 1.8.7s1.3-.3 1.9-.8c.4-.5.7-1.1.7-1.8s-.3-1.3-.9-2.1z"/></symbol><symbol id="c" viewBox="-4.8 -4.8 9.5 9.5"><use xlink:href="#a" width="14.6" height="14.6" x="-7.3" y="-7.3" transform="scale(.65)" overflow="visible"/></symbol><symbol id="e" viewBox="-40.5 -0.5 81 66.3"><path fill-rule="evenodd" clip-rule="evenodd" fill="#00DF00" stroke="#004A00" stroke-width=".75" stroke-miterlimit="10" d="M-.4 65h-11.8l-.9-.6c1.1.1 2.1.4 3.1.4-2.6-.7-5.3-1.9-4.9-5.2 0-.2.5.1.5-.3-.2-.7.9-2.2 1.4-2.2.1 0 .2.1.2.3v.1l.1-.2.1-.2c.1-.1.2-.2.3-.4l.2-.2s.1-.1.2-.1c.5-.3 1-.5 1.5-.4-.2.2-.3.7-.3 1.2v.6000000000000001c0 .4.1.8.2 1.3l.1.3.2.3c.4.8 1.2 1.5 2.4 2-.5-.5-.9-1-1.2-1.4l-.2-.3c-.1-.1-.2-.2-.2-.4-.3-.5-.5-1-.5-1.4v-.30000000000000004c0-.4.1-.7.3-.9l.1-.1c.1-.1.3-.1.5-.1s.3.1.5.2c.1 0 .2.1.3.2l.3.3.4.4c.1.1.3.2.4.4.7.6 1.3 1.1 2.1 1.6.1.1.2.2.3.2l.6.4c.3.2.5.3.8.4.1 0 .2.1.2.1l.5.2.5.2c.6.3 1.2.5 1.7 1.1.1.1.3.3.4.5v.1c.5.9.2 1.5-.4 1.9zm-12.3-3.9c.1.2.3.4.5.6-.4-.1-.8-.2-1.1-.5 1.2 1.2 2.9 2 4.6 2.1-1.4-.7-2.8-1.4-4-2.2z"/><path fill-rule="evenodd" clip-rule="evenodd" fill="#E3E320" d="M-9.8 55.3c.1 1.1.4 2.6 1.6 3.1-.2-1-1.3-2.2-1.6-3.1.4.9 1.4 2.1 1.6 3.1-1.4-.6-1.7-3-2-4.3-.6-2.1.8-3.7 2.3-4.9-1.8-1.2-4.7 2-2.9 2.8-.1 0 0-2 .1-2.3-.1.3-.2 2.2-.1 2.3-1.2-.5.2-2.3.2-2.9-2.1.5-3.4 3.3-1 4.6-.2-.8-.7-1.6-1.2-2.2.5.7 1 1.4 1.2 2.2-1.1-.6-1-2-1.7-2.9-1.9 3.4 1.1 6.1 3.8 7.4l-3-1.9 3 1.9c-1.2-.6-2.5-2-3.7-2.2 1 3.1 4.8 4.9 7.9 5.1 1.2.1 2.8.3 3.9-.1 1.4-.5.8-2.9-.1-3.6-2.3-1.6-3.5-4.1-4.8-6.4-.8-1.6-1.9-1-2.8.1-1.1 1-.9 2.8-.7 4.2 0 .6-.1-.2 0 0z"/><path fill="#7D7B3E" d="M-4 55.3c-.6-.9-1.1-1.6-1.6-2.5.1.1.3.2.4.2 0 0 0 .1.1.1l.5.3 1 1.5c.4.5.9 1 1.4 1.5l.3.6c.1.1.1.2.1.3-.6-.7-1.7-1.4-2.2-2zm-5.7 1.6l.1-.1c.1-.1.3-.1.5-.1-.3-.5-.6-1-.8-1.4v-1.7000000000000002c0-1 .2-1.9.8-2.6.1-.2.3-.3.4-.4.1-.1.2-.2.3-.2.1-.1.2-.1.2-.2v.2c-.6.4-1.1 1.1-1.3 1.8-.6 2.1.3 3.3 1 4.8.2.5.4.9.5 1.4v.4c-.9-.4-1.4-1-1.7-1.9zm-.3 1.4v-.30000000000000004l.2.2c.2.1.2.2-.2.1zm6-3c-.6-.9-1.1-1.6-1.6-2.5.1.1.3.2.4.2 0 0 0 .1.1.1l.5.3 1 1.5c.4.5.9 1 1.4 1.5l.3.6c.1.1.1.2.1.3-.6-.7-1.7-1.4-2.2-2zm-5.7 1.6l.1-.1c.1-.1.3-.1.5-.1-.3-.5-.6-1-.8-1.4v-1.7000000000000002c0-1 .2-1.9.8-2.6.1-.2.3-.3.4-.4.1-.1.2-.2.3-.2.1-.1.2-.1.2-.2v.2c-.6.4-1.1 1.1-1.3 1.8-.6 2.1.3 3.3 1 4.8.2.5.4.9.5 1.4v.4c-.9-.4-1.4-1-1.7-1.9zm-.3 1.4v-.30000000000000004l.2.2c.2.1.2.2-.2.1zm6-3c-.6-.9-1.1-1.6-1.6-2.5.1.1.3.2.4.2 0 0 0 .1.1.1l.5.3 1 1.5c.4.5.9 1 1.4 1.5l.3.6c.1.1.1.2.1.3-.6-.7-1.7-1.4-2.2-2zm-5.7 1.6l.1-.1c.1-.1.3-.1.5-.1-.3-.5-.6-1-.8-1.4v-1.7000000000000002c0-1 .2-1.9.8-2.6.1-.2.3-.3.4-.4.1-.1.2-.2.3-.2.1-.1.2-.1.2-.2v.2c-.6.4-1.1 1.1-1.3 1.8-.6 2.1.3 3.3 1 4.8.2.5.4.9.5 1.4v.4c-.9-.4-1.4-1-1.7-1.9zm-.3 1.4v-.30000000000000004l.2.2c.2.1.2.2-.2.1zm6-3c-.6-.9-1.1-1.6-1.6-2.5.1.1.3.2.4.2 0 0 0 .1.1.1l.5.3 1 1.5c.4.5.9 1 1.4 1.5l.3.6c.1.1.1.2.1.3-.6-.7-1.7-1.4-2.2-2zm-5.7 1.6l.1-.1c.1-.1.3-.1.5-.1-.3-.5-.6-1-.8-1.4v-1.7000000000000002c0-1 .2-1.9.8-2.6.1-.2.3-.3.4-.4.1-.1.2-.2.3-.2.1-.1.2-.1.2-.2v.2c-.6.4-1.1 1.1-1.3 1.8-.6 2.1.3 3.3 1 4.8.2.5.4.9.5 1.4v.4c-.9-.4-1.4-1-1.7-1.9zm-.3 1.4v-.30000000000000004l.2.2c.2.1.2.2-.2.1zm6-3c-.6-.9-1.1-1.6-1.6-2.5.1.1.3.2.4.2 0 0 0 .1.1.1l.5.3 1 1.5c.4.5.9 1 1.4 1.5l.3.6c.1.1.1.2.1.3-.6-.7-1.7-1.4-2.2-2zm-5.7 1.6l.1-.1c.1-.1.3-.1.5-.1-.3-.5-.6-1-.8-1.4v-1.7000000000000002c0-1 .2-1.9.8-2.6.1-.2.3-.3.4-.4.1-.1.2-.2.3-.2.1-.1.2-.1.2-.2v.2c-.6.4-1.1 1.1-1.3 1.8-.6 2.1.3 3.3 1 4.8.2.5.4.9.5 1.4v.4c-.9-.4-1.4-1-1.7-1.9zm-.3 1.4v-.30000000000000004l.2.2c.2.1.2.2-.2.1zm6-3c-.6-.9-1.1-1.6-1.6-2.5.1.1.3.2.4.2 0 0 0 .1.1.1l.5.3 1 1.5c.4.5.9 1 1.4 1.5l.3.6c.1.1.1.2.1.3-.6-.7-1.7-1.4-2.2-2zm-5.7 1.6l.1-.1c.1-.1.3-.1.5-.1-.3-.5-.6-1-.8-1.4v-1.7000000000000002c0-1 .2-1.9.8-2.6.1-.2.3-.3.4-.4.1-.1.2-.2.3-.2.1-.1.2-.1.2-.2v.2c-.6.4-1.1 1.1-1.3 1.8-.6 2.1.3 3.3 1 4.8.2.5.4.9.5 1.4v.4c-.9-.4-1.4-1-1.7-1.9zm-.3 1.4v-.30000000000000004l.2.2c.2.1.2.2-.2.1zm6-3c-.6-.9-1.1-1.6-1.6-2.5.1.1.3.2.4.2 0 0 0 .1.1.1l.5.3 1 1.5c.4.5.9 1 1.4 1.5l.3.6c.1.1.1.2.1.3-.6-.7-1.7-1.4-2.2-2zm-5.7 1.6l.1-.1c.1-.1.3-.1.5-.1-.3-.5-.6-1-.8-1.4v-1.7000000000000002c0-1 .2-1.9.8-2.6.1-.2.3-.3.4-.4.1-.1.2-.2.3-.2.1-.1.2-.1.2-.2v.2c-.6.4-1.1 1.1-1.3 1.8-.6 2.1.3 3.3 1 4.8.2.5.4.9.5 1.4v.4c-.9-.4-1.4-1-1.7-1.9zm-.3 1.4v-.30000000000000004l.2.2c.2.1.2.2-.2.1zm6-3c-.6-.9-1.1-1.6-1.6-2.5.1.1.3.2.4.2 0 0 0 .1.1.1l.5.3 1 1.5c.4.5.9 1 1.4 1.5l.3.6c.1.1.1.2.1.3-.6-.7-1.7-1.4-2.2-2zm-5.7 1.6l.1-.1c.1-.1.3-.1.5-.1-.3-.5-.6-1-.8-1.4v-1.7000000000000002c0-1 .2-1.9.8-2.6.1-.2.3-.3.4-.4.1-.1.2-.2.3-.2.1-.1.2-.1.2-.2v.2c-.6.4-1.1 1.1-1.3 1.8-.6 2.1.3 3.3 1 4.8.2.5.4.9.5 1.4v.4c-.9-.4-1.4-1-1.7-1.9zm-.3 1.4v-.30000000000000004l.2.2c.2.1.2.2-.2.1zm6-3c-.6-.9-1.1-1.6-1.6-2.5.1.1.3.2.4.2 0 0 0 .1.1.1l.5.3 1 1.5c.4.5.9 1 1.4 1.5l.3.6c.1.1.1.2.1.3-.6-.7-1.7-1.4-2.2-2zm-5.7 1.6l.1-.1c.1-.1.3-.1.5-.1-.3-.5-.6-1-.8-1.4v-1.7000000000000002c0-1 .2-1.9.8-2.6.1-.2.3-.3.4-.4.1-.1.2-.2.3-.2.1-.1.2-.1.2-.2v.2c-.6.4-1.1 1.1-1.3 1.8-.6 2.1.3 3.3 1 4.8.2.5.4.9.5 1.4v.4c-.9-.4-1.4-1-1.7-1.9zm-.3 1.4v-.30000000000000004l.2.2c.2.1.2.2-.2.1zm6-3c-.6-.9-1.1-1.6-1.6-2.5.1.1.3.2.4.2 0 0 0 .1.1.1l.5.3 1 1.5c.4.5.9 1 1.4 1.5l.3.6c.1.1.1.2.1.3-.6-.7-1.7-1.4-2.2-2zm-5.7 1.6l.1-.1c.1-.1.3-.1.5-.1-.3-.5-.6-1-.8-1.4v-1.7000000000000002c0-1 .2-1.9.8-2.6.1-.2.3-.3.4-.4.1-.1.2-.2.3-.2.1-.1.2-.1.2-.2v.2c-.6.4-1.1 1.1-1.3 1.8-.6 2.1.3 3.3 1 4.8.2.5.4.9.5 1.4v.4c-.9-.4-1.4-1-1.7-1.9zm-.3 1.4v-.30000000000000004l.2.2c.2.1.2.2-.2.1zm6-3c-.6-.9-1.1-1.6-1.6-2.5.1.1.3.2.4.2 0 0 0 .1.1.1l.5.3 1 1.5c.4.5.9 1 1.4 1.5l.3.6c.1.1.1.2.1.3-.6-.7-1.7-1.4-2.2-2zm-5.7 1.6l.1-.1c.1-.1.3-.1.5-.1-.3-.5-.6-1-.8-1.4v-1.7000000000000002c0-1 .2-1.9.8-2.6.1-.2.3-.3.4-.4.1-.1.2-.2.3-.2.1-.1.2-.1.2-.2v.2c-.6.4-1.1 1.1-1.3 1.8-.6 2.1.3 3.3 1 4.8.2.5.4.9.5 1.4v.4c-.9-.4-1.4-1-1.7-1.9zm-.3 1.4v-.30000000000000004l.2.2c.2.1.2.2-.2.1zm6-3c-.6-.9-1.1-1.6-1.6-2.5.1.1.3.2.4.2 0 0 0 .1.1.1l.5.3 1 1.5c.4.5.9 1 1.4 1.5l.3.6c.1.1.1.2.1.3-.6-.7-1.7-1.4-2.2-2zm-5.7 1.6l.1-.1c.1-.1.3-.1.5-.1-.3-.5-.6-1-.8-1.4v-1.7000000000000002c0-1 .2-1.9.8-2.6.1-.2.3-.3.4-.4.1-.1.2-.2.3-.2.1-.1.2-.1.2-.2v.2c-.6.4-1.1 1.1-1.3 1.8-.6 2.1.3 3.3 1 4.8.2.5.4.9.5 1.4v.4c-.9-.4-1.4-1-1.7-1.9zm-.3 1.4v-.30000000000000004l.2.2c.2.1.2.2-.2.1zm6-3c-.6-.9-1.1-1.6-1.6-2.5.1.1.3.2.4.2 0 0 0 .1.1.1l.5.3 1 1.5c.4.5.9 1 1.4 1.5l.3.6c.1.1.1.2.1.3-.6-.7-1.7-1.4-2.2-2zm-5.7 1.6l.1-.1c.1-.1.3-.1.5-.1-.3-.5-.6-1-.8-1.4v-1.7000000000000002c0-1 .2-1.9.8-2.6.1-.2.3-.3.4-.4.1-.1.2-.2.3-.2.1-.1.2-.1.2-.2v.2c-.6.4-1.1 1.1-1.3 1.8-.6 2.1.3 3.3 1 4.8.2.5.4.9.5 1.4v.4c-.9-.4-1.4-1-1.7-1.9zm-.3 1.4v-.30000000000000004l.2.2c.2.1.2.2-.2.1zm6-3c-.6-.9-1.1-1.6-1.6-2.5.1.1.3.2.4.2 0 0 0 .1.1.1l.5.3 1 1.5c.4.5.9 1 1.4 1.5l.3.6c.1.1.1.2.1.3-.6-.7-1.7-1.4-2.2-2zm-5.7 1.6l.1-.1c.1-.1.3-.1.5-.1-.3-.5-.6-1-.8-1.4v-1.7000000000000002c0-1 .2-1.9.8-2.6.1-.2.3-.3.4-.4.1-.1.2-.2.3-.2.1-.1.2-.1.2-.2v.2c-.6.4-1.1 1.1-1.3 1.8-.6 2.1.3 3.3 1 4.8.2.5.4.9.5 1.4v.4c-.9-.4-1.4-1-1.7-1.9zm-.3 1.4v-.30000000000000004l.2.2c.2.1.2.2-.2.1zm6-3c-.6-.9-1.1-1.6-1.6-2.5.1.1.3.2.4.2 0 0 0 .1.1.1l.5.3 1 1.5c.4.5.9 1 1.4 1.5l.3.6c.1.1.1.2.1.3-.6-.7-1.7-1.4-2.2-2zm-5.7 1.6l.1-.1c.1-.1.3-.1.5-.1-.3-.5-.6-1-.8-1.4v-1.7000000000000002c0-1 .2-1.9.8-2.6.1-.2.3-.3.4-.4.1-.1.2-.2.3-.2.1-.1.2-.1.2-.2v.2c-.6.4-1.1 1.1-1.3 1.8-.6 2.1.3 3.3 1 4.8.2.5.4.9.5 1.4v.4c-.9-.4-1.4-1-1.7-1.9zm-.3 1.4v-.30000000000000004l.2.2c.2.1.2.2-.2.1zm6-3c-.6-.9-1.1-1.6-1.6-2.5.1.1.3.2.4.2 0 0 0 .1.1.1l.5.3 1 1.5c.4.5.9 1 1.4 1.5l.3.6c.1.1.1.2.1.3-.6-.7-1.7-1.4-2.2-2zm-5.7 1.6l.1-.1c.1-.1.3-.1.5-.1-.3-.5-.6-1-.8-1.4v-1.7000000000000002c0-1 .2-1.9.8-2.6.1-.2.3-.3.4-.4.1-.1.2-.2.3-.2.1-.1.2-.1.2-.2v.2c-.6.4-1.1 1.1-1.3 1.8-.6 2.1.3 3.3 1 4.8.2.5.4.9.5 1.4v.4c-.9-.4-1.4-1-1.7-1.9zm-.3 1.4v-.30000000000000004l.2.2c.2.1.2.2-.2.1zm6-3c-.6-.9-1.1-1.6-1.6-2.5.1.1.3.2.4.2 0 0 0 .1.1.1l.5.3 1 1.5c.4.5.9 1 1.4 1.5l.3.6c.1.1.1.2.1.3-.6-.7-1.7-1.4-2.2-2zm-5.7 1.6l.1-.1c.1-.1.3-.1.5-.1-.3-.5-.6-1-.8-1.4v-1.7000000000000002c0-1 .2-1.9.8-2.6.1-.2.3-.3.4-.4.1-.1.2-.2.3-.2.1-.1.2-.1.2-.2v.2c-.6.4-1.1 1.1-1.3 1.8-.6 2.1.3 3.3 1 4.8.2.5.4.9.5 1.4v.4c-.9-.4-1.4-1-1.7-1.9zm-.3 1.4v-.30000000000000004l.2.2c.2.1.2.2-.2.1zm6-3c-.6-.9-1.1-1.6-1.6-2.5.1.1.3.2.4.2 0 0 0 .1.1.1l.5.3 1 1.5c.4.5.9 1 1.4 1.5l.3.6c.1.1.1.2.1.3-.6-.7-1.7-1.4-2.2-2zm-5.7 1.6l.1-.1c.1-.1.3-.1.5-.1-.3-.5-.6-1-.8-1.4v-1.7000000000000002c0-1 .2-1.9.8-2.6.1-.2.3-.3.4-.4.1-.1.2-.2.3-.2.1-.1.2-.1.2-.2v.2c-.6.4-1.1 1.1-1.3 1.8-.6 2.1.3 3.3 1 4.8.2.5.4.9.5 1.4v.4c-.9-.4-1.4-1-1.7-1.9zm-.3 1.4v-.30000000000000004l.2.2c.2.1.2.2-.2.1zm6-3c-.6-.9-1.1-1.6-1.6-2.5.1.1.3.2.4.2 0 0 0 .1.1.1l.5.3 1 1.5c.4.5.9 1 1.4 1.5l.3.6c.1.1.1.2.1.3-.6-.7-1.7-1.4-2.2-2zm-5.7 1.6l.1-.1c.1-.1.3-.1.5-.1-.3-.5-.6-1-.8-1.4v-1.7000000000000002c0-1 .2-1.9.8-2.6.1-.2.3-.3.4-.4.1-.1.2-.2.3-.2.1-.1.2-.1.2-.2v.2c-.6.4-1.1 1.1-1.3 1.8-.6 2.1.3 3.3 1 4.8.2.5.4.9.5 1.4v.4c-.9-.4-1.4-1-1.7-1.9zm-.3 1.4v-.30000000000000004l.2.2c.2.1.2.2-.2.1zm6-3c-.6-.9-1.1-1.6-1.6-2.5.1.1.3.2.4.2 0 0 0 .1.1.1l.5.3 1 1.5c.4.5.9 1 1.4 1.5l.3.6c.1.1.1.2.1.3-.6-.7-1.7-1.4-2.2-2zm-5.7 1.6l.1-.1c.1-.1.3-.1.5-.1-.3-.5-.6-1-.8-1.4v-1.7000000000000002c0-1 .2-1.9.8-2.6.1-.2.3-.3.4-.4.1-.1.2-.2.3-.2.1-.1.2-.1.2-.2v.2c-.6.4-1.1 1.1-1.3 1.8-.6 2.1.3 3.3 1 4.8.2.5.4.9.5 1.4v.4c-.9-.4-1.4-1-1.7-1.9zm-.3 1.4v-.30000000000000004l.2.2c.2.1.2.2-.2.1zm6-3c-.6-.9-1.1-1.6-1.6-2.5.1.1.3.2.4.2 0 0 0 .1.1.1l.5.3 1 1.5c.4.5.9 1 1.4 1.5l.3.6c.1.1.1.2.1.3-.6-.7-1.7-1.4-2.2-2zm-5.7 1.6l.1-.1c.1-.1.3-.1.5-.1-.3-.5-.6-1-.8-1.4v-1.7000000000000002c0-1 .2-1.9.8-2.6.1-.2.3-.3.4-.4.1-.1.2-.2.3-.2.1-.1.2-.1.2-.2v.2c-.6.4-1.1 1.1-1.3 1.8-.6 2.1.3 3.3 1 4.8.2.5.4.9.5 1.4v.4c-.9-.4-1.4-1-1.7-1.9zm-.3 1.4v-.30000000000000004l.2.2c.2.1.2.2-.2.1zm6-3c-.6-.9-1.1-1.6-1.6-2.5.1.1.3.2.4.2 0 0 0 .1.1.1l.5.3 1 1.5c.4.5.9 1 1.4 1.5l.3.6c.1.1.1.2.1.3-.6-.7-1.7-1.4-2.2-2zm-5.7 1.6l.1-.1c.1-.1.3-.1.5-.1-.3-.5-.6-1-.8-1.4v-1.7000000000000002c0-1 .2-1.9.8-2.6.1-.2.3-.3.4-.4.1-.1.2-.2.3-.2.1-.1.2-.1.2-.2v.2c-.6.4-1.1 1.1-1.3 1.8-.6 2.1.3 3.3 1 4.8.2.5.4.9.5 1.4v.4c-.9-.4-1.4-1-1.7-1.9zm-.3 1.4v-.30000000000000004l.2.2c.2.1.2.2-.2.1zm6-3c-.6-.9-1.1-1.6-1.6-2.5.1.1.3.2.4.2 0 0 0 .1.1.1l.5.3 1 1.5c.4.5.9 1 1.4 1.5l.3.6c.1.1.1.2.1.3-.6-.7-1.7-1.4-2.2-2zm-5.7 1.6l.1-.1c.1-.1.3-.1.5-.1-.3-.5-.6-1-.8-1.4v-1.7000000000000002c0-1 .2-1.9.8-2.6.1-.2.3-.3.4-.4.1-.1.2-.2.3-.2.1-.1.2-.1.2-.2v.2c-.6.4-1.1 1.1-1.3 1.8-.6 2.1.3 3.3 1 4.8.2.5.4.9.5 1.4v.4c-.9-.4-1.4-1-1.7-1.9zm0 1.2c.2.2.1.3-.2.2v-.30000000000000004c0-.1.1 0 .2.1zm9.2 1.9c0 .2-.1.3-.2.4-.3.5-.8.8-1.5.9-.6.1-1.3.2-1.9.1-.8 0-1.6-.1-2.2-.3-.5-.1-.8-.2-1.1-.2-.6-.1-1.1-.3-1.6-.5-.4-.2-.8-.3-1.1-.6-1.1-.6-2-1.3-2.6-2.3l-.2-.3c-.3-.5-.5-1-.7-1.6.1 0 .2 0 .3.1-.9-1.4-.9-3.9 0-5.4.1.1.2.2.3.4.2-1.2 1.6-1.7 2.7-1.9v.4c.1 0 .2-.1.3-.2.4-.2.8-.3 1.2-.3h.2c.2 0 .4 0 .5.1.3.1.5.2.7.4 0 0-.1 0-.1.1l-.6.5c-.1 0-.1.1-.1.1s-.1 0-.1.1l.1-.1s.1 0 .1-.1c.4-.3.8-.3 1.2-.1l.4.3c.3.3.6.8.8 1.2l.9 1.7c.1.1.2.2.2.4 0 0 .1.1.1.2l1 1.5c.4.5.9 1 1.4 1.5.1.1.3.2.4.4l.2.2c.5.5.9 1.1 1.1 1.8 0 .1.1.2.1.4v.4c-.1 0-.2.1-.2.3zm-.7-1.4c-.1-.1-.1-.3-.2-.5s-.2-.5-.4-.7c-.6-.7-1.7-1.4-2.2-2.1-.6-.9-1.1-1.6-1.6-2.5l-.7-1.3-.3-.5c-.1-.3-.3-.5-.5-.7-.4-.3-.8-.2-1.1 0-.6.4-1.1 1.1-1.3 1.8-.6 2.1.3 3.3 1 4.8.2.5.4.9.5 1.4v.4c-1-.3-1.5-1-1.7-1.8l-.7-2.2c-.7-2 0-3.7 1.4-5.1.2-.2.4-.3.5-.5-.4-.1-.9 0-1.3.1-.3.1-.6.3-.8.4l-.1.1c-.3.8.5 1.6 0 2.2-.5.7-.9-.8-.9-1-.1-.8.4-1 .5-1.6-3.2.9-.7 2.8-.4 4.7-1.3-.5-1.5-1.7-2-2.9-.7 2.1 0 4 1.5 5.2.2.2.4.3.7.5.1.1.3.2.5.3l.7.6.2.2c.1.2.1.3-.2.1-.2-.1-.4-.2-.7-.3h-.1c-.5-.3-1-.7-1.5-1.1l-.7-.5c.1.3.2.6.4.8.5.8 1.2 1.5 2.1 2 .3.2.7.4 1 .5.8.3 1.7.6 2.5.8 1.2.2 2.4.3 3.5.4h.9c.3 0 .5-.1.7-.2.2-.1.4-.2.5-.4.2-.3.3-.6.2-1.1.2.1.2-.1.1-.3zm-8.8-.3v-.30000000000000004l.2.2c.2.1.2.2-.2.1zm.3-1.4l.1-.1c.1-.1.3-.1.5-.1-.3-.5-.6-1-.8-1.4v-1.7000000000000002c0-1 .2-1.9.8-2.6.1-.2.3-.3.4-.4.1-.1.2-.2.3-.2.1-.1.2-.1.2-.2v.2c-.6.4-1.1 1.1-1.3 1.8-.6 2.1.3 3.3 1 4.8.2.5.4.9.5 1.4v.4c-.9-.4-1.4-1-1.7-1.9zm5.7-1.6c-.6-.9-1.1-1.6-1.6-2.5.1.1.3.2.4.2 0 0 0 .1.1.1l.5.3 1 1.5c.4.5.9 1 1.4 1.5l.3.6c.1.1.1.2.1.3-.6-.7-1.7-1.4-2.2-2zm-6 3v-.30000000000000004l.2.2c.2.1.2.2-.2.1zm.3-1.4l.1-.1c.1-.1.3-.1.5-.1-.3-.5-.6-1-.8-1.4v-1.7000000000000002c0-1 .2-1.9.8-2.6.1-.2.3-.3.4-.4.1-.1.2-.2.3-.2.1-.1.2-.1.2-.2v.2c-.6.4-1.1 1.1-1.3 1.8-.6 2.1.3 3.3 1 4.8.2.5.4.9.5 1.4v.4c-.9-.4-1.4-1-1.7-1.9zm5.7-1.6c-.6-.9-1.1-1.6-1.6-2.5.1.1.3.2.4.2 0 0 0 .1.1.1l.5.3 1 1.5c.4.5.9 1 1.4 1.5l.3.6c.1.1.1.2.1.3-.6-.7-1.7-1.4-2.2-2zm-6 3v-.30000000000000004l.2.2c.2.1.2.2-.2.1zm.3-1.4l.1-.1c.1-.1.3-.1.5-.1-.3-.5-.6-1-.8-1.4v-1.7000000000000002c0-1 .2-1.9.8-2.6.1-.2.3-.3.4-.4.1-.1.2-.2.3-.2.1-.1.2-.1.2-.2v.2c-.6.4-1.1 1.1-1.3 1.8-.6 2.1.3 3.3 1 4.8.2.5.4.9.5 1.4v.4c-.9-.4-1.4-1-1.7-1.9zm5.7-1.6c-.6-.9-1.1-1.6-1.6-2.5.1.1.3.2.4.2 0 0 0 .1.1.1l.5.3 1 1.5c.4.5.9 1 1.4 1.5l.3.6c.1.1.1.2.1.3-.6-.7-1.7-1.4-2.2-2zm-6 3v-.30000000000000004l.2.2c.2.1.2.2-.2.1zm.3-1.4l.1-.1c.1-.1.3-.1.5-.1-.3-.5-.6-1-.8-1.4v-1.7000000000000002c0-1 .2-1.9.8-2.6.1-.2.3-.3.4-.4.1-.1.2-.2.3-.2.1-.1.2-.1.2-.2v.2c-.6.4-1.1 1.1-1.3 1.8-.6 2.1.3 3.3 1 4.8.2.5.4.9.5 1.4v.4c-.9-.4-1.4-1-1.7-1.9zm5.7-1.6c-.6-.9-1.1-1.6-1.6-2.5.1.1.3.2.4.2 0 0 0 .1.1.1l.5.3 1 1.5c.4.5.9 1 1.4 1.5l.3.6c.1.1.1.2.1.3-.6-.7-1.7-1.4-2.2-2zm-6 3v-.30000000000000004l.2.2c.2.1.2.2-.2.1zm.3-1.4l.1-.1c.1-.1.3-.1.5-.1-.3-.5-.6-1-.8-1.4v-1.7000000000000002c0-1 .2-1.9.8-2.6.1-.2.3-.3.4-.4.1-.1.2-.2.3-.2.1-.1.2-.1.2-.2v.2c-.6.4-1.1 1.1-1.3 1.8-.6 2.1.3 3.3 1 4.8.2.5.4.9.5 1.4v.4c-.9-.4-1.4-1-1.7-1.9zm5.7-1.6c-.6-.9-1.1-1.6-1.6-2.5.1.1.3.2.4.2 0 0 0 .1.1.1l.5.3 1 1.5c.4.5.9 1 1.4 1.5l.3.6c.1.1.1.2.1.3-.6-.7-1.7-1.4-2.2-2zm-6 3v-.30000000000000004l.2.2c.2.1.2.2-.2.1zm.3-1.4l.1-.1c.1-.1.3-.1.5-.1-.3-.5-.6-1-.8-1.4v-1.7000000000000002c0-1 .2-1.9.8-2.6.1-.2.3-.3.4-.4.1-.1.2-.2.3-.2.1-.1.2-.1.2-.2v.2c-.6.4-1.1 1.1-1.3 1.8-.6 2.1.3 3.3 1 4.8.2.5.4.9.5 1.4v.4c-.9-.4-1.4-1-1.7-1.9zm5.7-1.6c-.6-.9-1.1-1.6-1.6-2.5.1.1.3.2.4.2 0 0 0 .1.1.1l.5.3 1 1.5c.4.5.9 1 1.4 1.5l.3.6c.1.1.1.2.1.3-.6-.7-1.7-1.4-2.2-2zm-6 3v-.30000000000000004l.2.2c.2.1.2.2-.2.1zm.3-1.4l.1-.1c.1-.1.3-.1.5-.1-.3-.5-.6-1-.8-1.4v-1.7000000000000002c0-1 .2-1.9.8-2.6.1-.2.3-.3.4-.4.1-.1.2-.2.3-.2.1-.1.2-.1.2-.2v.2c-.6.4-1.1 1.1-1.3 1.8-.6 2.1.3 3.3 1 4.8.2.5.4.9.5 1.4v.4c-.9-.4-1.4-1-1.7-1.9zm5.7-1.6c-.6-.9-1.1-1.6-1.6-2.5.1.1.3.2.4.2 0 0 0 .1.1.1l.5.3 1 1.5c.4.5.9 1 1.4 1.5l.3.6c.1.1.1.2.1.3-.6-.7-1.7-1.4-2.2-2zm-6 3v-.30000000000000004l.2.2c.2.1.2.2-.2.1zm.3-1.4l.1-.1c.1-.1.3-.1.5-.1-.3-.5-.6-1-.8-1.4v-1.7000000000000002c0-1 .2-1.9.8-2.6.1-.2.3-.3.4-.4.1-.1.2-.2.3-.2.1-.1.2-.1.2-.2v.2c-.6.4-1.1 1.1-1.3 1.8-.6 2.1.3 3.3 1 4.8.2.5.4.9.5 1.4v.4c-.9-.4-1.4-1-1.7-1.9zm5.7-1.6c-.6-.9-1.1-1.6-1.6-2.5.1.1.3.2.4.2 0 0 0 .1.1.1l.5.3 1 1.5c.4.5.9 1 1.4 1.5l.3.6c.1.1.1.2.1.3-.6-.7-1.7-1.4-2.2-2zm-6 3v-.30000000000000004l.2.2c.2.1.2.2-.2.1zm.3-1.4l.1-.1c.1-.1.3-.1.5-.1-.3-.5-.6-1-.8-1.4v-1.7000000000000002c0-1 .2-1.9.8-2.6.1-.2.3-.3.4-.4.1-.1.2-.2.3-.2.1-.1.2-.1.2-.2v.2c-.6.4-1.1 1.1-1.3 1.8-.6 2.1.3 3.3 1 4.8.2.5.4.9.5 1.4v.4c-.9-.4-1.4-1-1.7-1.9zm5.7-1.6c-.6-.9-1.1-1.6-1.6-2.5.1.1.3.2.4.2 0 0 0 .1.1.1l.5.3 1 1.5c.4.5.9 1 1.4 1.5l.3.6c.1.1.1.2.1.3-.6-.7-1.7-1.4-2.2-2zm-6 3v-.30000000000000004l.2.2c.2.1.2.2-.2.1zm.3-1.4l.1-.1c.1-.1.3-.1.5-.1-.3-.5-.6-1-.8-1.4v-1.7000000000000002c0-1 .2-1.9.8-2.6.1-.2.3-.3.4-.4.1-.1.2-.2.3-.2.1-.1.2-.1.2-.2v.2c-.6.4-1.1 1.1-1.3 1.8-.6 2.1.3 3.3 1 4.8.2.5.4.9.5 1.4v.4c-.9-.4-1.4-1-1.7-1.9zm5.7-1.6c-.6-.9-1.1-1.6-1.6-2.5.1.1.3.2.4.2 0 0 0 .1.1.1l.5.3 1 1.5c.4.5.9 1 1.4 1.5l.3.6c.1.1.1.2.1.3-.6-.7-1.7-1.4-2.2-2zm-6 3v-.30000000000000004l.2.2c.2.1.2.2-.2.1zm.3-1.4l.1-.1c.1-.1.3-.1.5-.1-.3-.5-.6-1-.8-1.4v-1.7000000000000002c0-1 .2-1.9.8-2.6.1-.2.3-.3.4-.4.1-.1.2-.2.3-.2.1-.1.2-.1.2-.2v.2c-.6.4-1.1 1.1-1.3 1.8-.6 2.1.3 3.3 1 4.8.2.5.4.9.5 1.4v.4c-.9-.4-1.4-1-1.7-1.9zm5.7-1.6c-.6-.9-1.1-1.6-1.6-2.5.1.1.3.2.4.2 0 0 0 .1.1.1l.5.3 1 1.5c.4.5.9 1 1.4 1.5l.3.6c.1.1.1.2.1.3-.6-.7-1.7-1.4-2.2-2zm-6 3v-.30000000000000004l.2.2c.2.1.2.2-.2.1zm.3-1.4l.1-.1c.1-.1.3-.1.5-.1-.3-.5-.6-1-.8-1.4v-1.7000000000000002c0-1 .2-1.9.8-2.6.1-.2.3-.3.4-.4.1-.1.2-.2.3-.2.1-.1.2-.1.2-.2v.2c-.6.4-1.1 1.1-1.3 1.8-.6 2.1.3 3.3 1 4.8.2.5.4.9.5 1.4v.4c-.9-.4-1.4-1-1.7-1.9zm5.7-1.6c-.6-.9-1.1-1.6-1.6-2.5.1.1.3.2.4.2 0 0 0 .1.1.1l.5.3 1 1.5c.4.5.9 1 1.4 1.5l.3.6c.1.1.1.2.1.3-.6-.7-1.7-1.4-2.2-2zm-6 3v-.30000000000000004l.2.2c.2.1.2.2-.2.1zm.3-1.4l.1-.1c.1-.1.3-.1.5-.1-.3-.5-.6-1-.8-1.4v-1.7000000000000002c0-1 .2-1.9.8-2.6.1-.2.3-.3.4-.4.1-.1.2-.2.3-.2.1-.1.2-.1.2-.2v.2c-.6.4-1.1 1.1-1.3 1.8-.6 2.1.3 3.3 1 4.8.2.5.4.9.5 1.4v.4c-.9-.4-1.4-1-1.7-1.9zm5.7-1.6c-.6-.9-1.1-1.6-1.6-2.5.1.1.3.2.4.2 0 0 0 .1.1.1l.5.3 1 1.5c.4.5.9 1 1.4 1.5l.3.6c.1.1.1.2.1.3-.6-.7-1.7-1.4-2.2-2zm-6 3v-.30000000000000004l.2.2c.2.1.2.2-.2.1zm.3-1.4l.1-.1c.1-.1.3-.1.5-.1-.3-.5-.6-1-.8-1.4v-1.7000000000000002c0-1 .2-1.9.8-2.6.1-.2.3-.3.4-.4.1-.1.2-.2.3-.2.1-.1.2-.1.2-.2v.2c-.6.4-1.1 1.1-1.3 1.8-.6 2.1.3 3.3 1 4.8.2.5.4.9.5 1.4v.4c-.9-.4-1.4-1-1.7-1.9zm5.7-1.6c-.6-.9-1.1-1.6-1.6-2.5.1.1.3.2.4.2 0 0 0 .1.1.1l.5.3 1 1.5c.4.5.9 1 1.4 1.5l.3.6c.1.1.1.2.1.3-.6-.7-1.7-1.4-2.2-2zm-6 3v-.30000000000000004l.2.2c.2.1.2.2-.2.1zm.3-1.4l.1-.1c.1-.1.3-.1.5-.1-.3-.5-.6-1-.8-1.4v-1.7000000000000002c0-1 .2-1.9.8-2.6.1-.2.3-.3.4-.4.1-.1.2-.2.3-.2.1-.1.2-.1.2-.2v.2c-.6.4-1.1 1.1-1.3 1.8-.6 2.1.3 3.3 1 4.8.2.5.4.9.5 1.4v.4c-.9-.4-1.4-1-1.7-1.9zm5.7-1.6c-.6-.9-1.1-1.6-1.6-2.5.1.1.3.2.4.2 0 0 0 .1.1.1l.5.3 1 1.5c.4.5.9 1 1.4 1.5l.3.6c.1.1.1.2.1.3-.6-.7-1.7-1.4-2.2-2zm-6 3v-.30000000000000004l.2.2c.2.1.2.2-.2.1zm.3-1.4l.1-.1c.1-.1.3-.1.5-.1-.3-.5-.6-1-.8-1.4v-1.7000000000000002c0-1 .2-1.9.8-2.6.1-.2.3-.3.4-.4.1-.1.2-.2.3-.2.1-.1.2-.1.2-.2v.2c-.6.4-1.1 1.1-1.3 1.8-.6 2.1.3 3.3 1 4.8.2.5.4.9.5 1.4v.4c-.9-.4-1.4-1-1.7-1.9zm5.7-1.6c-.6-.9-1.1-1.6-1.6-2.5.1.1.3.2.4.2 0 0 0 .1.1.1l.5.3 1 1.5c.4.5.9 1 1.4 1.5l.3.6c.1.1.1.2.1.3-.6-.7-1.7-1.4-2.2-2zm-6 3v-.30000000000000004l.2.2c.2.1.2.2-.2.1zm.3-1.4l.1-.1c.1-.1.3-.1.5-.1-.3-.5-.6-1-.8-1.4v-1.7000000000000002c0-1 .2-1.9.8-2.6.1-.2.3-.3.4-.4.1-.1.2-.2.3-.2.1-.1.2-.1.2-.2v.2c-.6.4-1.1 1.1-1.3 1.8-.6 2.1.3 3.3 1 4.8.2.5.4.9.5 1.4v.4c-.9-.4-1.4-1-1.7-1.9zm5.7-1.6c-.6-.9-1.1-1.6-1.6-2.5.1.1.3.2.4.2 0 0 0 .1.1.1l.5.3 1 1.5c.4.5.9 1 1.4 1.5l.3.6c.1.1.1.2.1.3-.6-.7-1.7-1.4-2.2-2zm-6 3v-.30000000000000004l.2.2c.2.1.2.2-.2.1zm.3-1.4l.1-.1c.1-.1.3-.1.5-.1-.3-.5-.6-1-.8-1.4v-1.7000000000000002c0-1 .2-1.9.8-2.6.1-.2.3-.3.4-.4.1-.1.2-.2.3-.2.1-.1.2-.1.2-.2v.2c-.6.4-1.1 1.1-1.3 1.8-.6 2.1.3 3.3 1 4.8.2.5.4.9.5 1.4v.4c-.9-.4-1.4-1-1.7-1.9zm5.7-1.6c-.6-.9-1.1-1.6-1.6-2.5.1.1.3.2.4.2 0 0 0 .1.1.1l.5.3 1 1.5c.4.5.9 1 1.4 1.5l.3.6c.1.1.1.2.1.3-.6-.7-1.7-1.4-2.2-2zm-6 3v-.30000000000000004l.2.2c.2.1.2.2-.2.1zm.3-1.4l.1-.1c.1-.1.3-.1.5-.1-.3-.5-.6-1-.8-1.4v-1.7000000000000002c0-1 .2-1.9.8-2.6.1-.2.3-.3.4-.4.1-.1.2-.2.3-.2.1-.1.2-.1.2-.2v.2c-.6.4-1.1 1.1-1.3 1.8-.6 2.1.3 3.3 1 4.8.2.5.4.9.5 1.4v.4c-.9-.4-1.4-1-1.7-1.9zm5.7-1.6c-.6-.9-1.1-1.6-1.6-2.5.1.1.3.2.4.2 0 0 0 .1.1.1l.5.3 1 1.5c.4.5.9 1 1.4 1.5l.3.6c.1.1.1.2.1.3-.6-.7-1.7-1.4-2.2-2zm-6 3v-.30000000000000004l.2.2c.2.1.2.2-.2.1zm.3-1.4l.1-.1c.1-.1.3-.1.5-.1-.3-.5-.6-1-.8-1.4v-1.7000000000000002c0-1 .2-1.9.8-2.6.1-.2.3-.3.4-.4.1-.1.2-.2.3-.2.1-.1.2-.1.2-.2v.2c-.6.4-1.1 1.1-1.3 1.8-.6 2.1.3 3.3 1 4.8.2.5.4.9.5 1.4v.4c-.9-.4-1.4-1-1.7-1.9zm5.7-1.6c-.6-.9-1.1-1.6-1.6-2.5.1.1.3.2.4.2 0 0 0 .1.1.1l.5.3 1 1.5c.4.5.9 1 1.4 1.5l.3.6c.1.1.1.2.1.3-.6-.7-1.7-1.4-2.2-2zm-6 3v-.30000000000000004l.2.2c.2.1.2.2-.2.1zm.3-1.4l.1-.1c.1-.1.3-.1.5-.1-.3-.5-.6-1-.8-1.4v-1.7000000000000002c0-1 .2-1.9.8-2.6.1-.2.3-.3.4-.4.1-.1.2-.2.3-.2.1-.1.2-.1.2-.2v.2c-.6.4-1.1 1.1-1.3 1.8-.6 2.1.3 3.3 1 4.8.2.5.4.9.5 1.4v.4c-.9-.4-1.4-1-1.7-1.9zm5.7-1.6c-.6-.9-1.1-1.6-1.6-2.5.1.1.3.2.4.2 0 0 0 .1.1.1l.5.3 1 1.5c.4.5.9 1 1.4 1.5l.3.6c.1.1.1.2.1.3-.6-.7-1.7-1.4-2.2-2zm-6 3v-.30000000000000004l.2.2c.2.1.2.2-.2.1zm.3-1.4l.1-.1c.1-.1.3-.1.5-.1-.3-.5-.6-1-.8-1.4v-1.7000000000000002c0-1 .2-1.9.8-2.6.1-.2.3-.3.4-.4.1-.1.2-.2.3-.2.1-.1.2-.1.2-.2v.2c-.6.4-1.1 1.1-1.3 1.8-.6 2.1.3 3.3 1 4.8.2.5.4.9.5 1.4v.4c-.9-.4-1.4-1-1.7-1.9zm5.7-1.6c-.6-.9-1.1-1.6-1.6-2.5.1.1.3.2.4.2 0 0 0 .1.1.1l.5.3 1 1.5c.4.5.9 1 1.4 1.5l.3.6c.1.1.1.2.1.3-.6-.7-1.7-1.4-2.2-2zm-6 3v-.30000000000000004l.2.2c.2.1.2.2-.2.1zm.3-1.4l.1-.1c.1-.1.3-.1.5-.1-.3-.5-.6-1-.8-1.4v-1.7000000000000002c0-1 .2-1.9.8-2.6.1-.2.3-.3.4-.4.1-.1.2-.2.3-.2.1-.1.2-.1.2-.2v.2c-.6.4-1.1 1.1-1.3 1.8-.6 2.1.3 3.3 1 4.8.2.5.4.9.5 1.4v.4c-.9-.4-1.4-1-1.7-1.9zm5.7-1.6c-.6-.9-1.1-1.6-1.6-2.5.1.1.3.2.4.2 0 0 0 .1.1.1l.5.3 1 1.5c.4.5.9 1 1.4 1.5l.3.6c.1.1.1.2.1.3-.6-.7-1.7-1.4-2.2-2z"/><path fill-rule="evenodd" clip-rule="evenodd" fill="#BCBC33" stroke="#8E8429" stroke-width=".75" stroke-linecap="round" stroke-miterlimit="10" d="M17 57.4c-.4-.6-1.3-.6-1.9-1 .4 0 .7-.1 1.1-.2-.5-.4-1.3-.3-1.7-.8.5-.1.9-.2-.2-.4.7 0 1.3 0 2.1-.1-.5-.2-1-.2-1.5-.5.4-.3 1-.2 1.4-.2-.5-.3-1.2-.3-1.5-.7.3-.2.7-.2 1.1-.2-.4-.1-.7-.3-.9-.5l1.1-.1c-.5-.1-1-.3-1.5-.5l1.2-.3c-1.2-.9-2.3-.7-3 0l-.1.1c-.1.1-.2.3-.4.5-.2.4-.3.8-.4 1.3l-.1.7c0 .2-.1.5-.2.7-.1.5-.3 1-.6 1.4-.1.1-.1.2-.2.4-.1.1-.1.2-.2.2l-.9.9c-.1.1-.3.2-.5.3-.1.1-.3.2-.5.2-.1 0-.2.1-.4.1-.2.1-.4.1-.7.2l-.4.1c-2.4.7-4.9.8-7.4.3-.1 0-.2 0-.3-.1-.1 0-.1 0-.2-.1-.1 0-.2 0-.2-.1-.1 0-.2-.1-.4-.2s-.5-.3-.7-.5c-.1-.1-.2-.2-.4-.3-.7-.5-1.3-1.1-2-1.5-.6-.4-1.2-.6-1.7-.6.2.2.3.3.4.5-.7-.2-1.4-.3-2.1-.3.4.1.8.3 1.1.6-.3-.2-1.1 0-1.6.2-.1 0-.2.1-.2.1.2.2.4.2.7.3l.9.3c-.2 0-.3 0-.4.1l-.9.2-.4.1h.5c.4 0 .9.1 1.3.3-.4.3-1 .4-1.4.8.5 0 1 0 1.5.1-.1.3-.2.6-.3.8l-.1.3c0 .2.1.3.7.2v.1c-.1.5-.4.9-.4 1.4.3-.2 1.8-1.8 1.9-.7.1 0 .4-.2.8-.5l.4-.3.2-.2h.4c.2 0 .4-.1.6-.2.4-.1.7-.3.9-.4-.1.1-.1.2-.2.2-.1.8-.2 1-.2 1.1l-.1.3c-.2.5-.2 1.1-.2 1.6.6-.8.2.5.2.7 0 1 .4 1.1 1.3.8l.1.6h.8l.4-.2c0 .1.1.2.1.2h.2c.5-.3.9-.9 1.2-1.4.1 1 .9-1.1 1.2-1.4.1.8.2 1.6.4 2.5.5-1 .9-.4 1.1.3h1v-.1c.1 0 .1 0 .2.1h1.2v-.3l.6.3h.6c0-.2 0-.4.1-.6.2.1.3.3.4.4.5-1.4-1.2-1.9-1.5-3 .4.2.8.5 1.2.8 0-.3-.1-.6-.3-.9.6.2 2 1.9 2.6 2.4-.1-.3-.1-.6-.3-.9.7 0 1.2.5 1.7.8-.8-1.3.3-.5.7-.2 0-.5-.4-1-.3-1.6 1 1.4-.1-.7 0-1.4.2.3.5.4.8.4-.1-.7-1.1-1.1-1.6-1.5.5.1 1.1.2 1.6.4-.2-.3-.6-.5-.8-.9.8 0 1.2.5 2.1.7-.3-.4-.5-.5-.7-.9.8 0 1.3.4 2 .6-.3-.4-.5-.5-.7-.9.7-.1 1.1.2 2 .5-.4-.6-.9-.9-1.5-1.3.4 0 .9.1 1.3.3-.5-.4-1.6-.7-.1-.8z"/><path fill="#231F20" d="M8 59.9c0 .3 3 2.3 3.3 2.1-.6-1.1-2.1-2-3.3-2.1zM11.4 56.6c-.3 0-.6.1-.8.2.8.4 2.9.8 3.8.8-.4-.8-2.1-1-3-1zM14.1 53.3c-1.2 0-2.1.8-2.6 1.9.7.1.8-.9 1.6-1.3.1 0 1.7-.6 1-.6zM4.7 60c0 .1 1.5 3.8 1.6 3.9.6-1.3-.5-3.1-1.6-3.9zM2.5 60.3c-.8.3-3.9 1.7-2.7 2.9.4-.7.5-1.4 1.2-1.8.6-.4 1.7-.4 1.5-1.1zM-1.6 58.3c-1.4 0-2.8.9-3.9 1.7.7.3 1.6-.6 2.4-1 .3 0 2.7-.7 1.5-.7z"/><path fill-rule="evenodd" clip-rule="evenodd" fill="#99222B" stroke="#701A24" stroke-miterlimit="10" d="M-40 0v10.4c.2.3.5.5.8.8 2.9 2.8 6 5.6 9.3 8.3.7.6 1.4 1.1 2.1 1.6 1.3 1 2.6 1.9 4 2.8l.9.6.2.1c.5.3 1.1.7 1.7 1 3.2 1.8 6.6 3 10.1 3.8.1 0 .2 0 .3.1.2.1.4.1.6.1l1.9.4 1.6.3c1.5.2 3 .4 4.5.5 3.4.2 6.9.2 10.4 0h.5c.7 0 1.3-.1 2-.2 1.3-.1 2.6-.3 3.9-.5.6-.1 1.3-.2 1.9-.4l.7-.1c2-.4 3.9-.9 5.8-1.5 3.4-1.1 6.7-2.6 9.9-4.4 1.9-1.1 3.7-2.2 5.5-3.5l1.6-1.1v-19.1h-80.2z"/><path fill="#701A24" d="M40 15.6v-2.1c-1.6 2-3.8 3.4-6 4.7l-1.4.9-.4.3c-.3.2-.6.4-.8.7-.2.2-.5.4-.7.7l-.5.5c-.3.3-.3.5-.3.7.1.2.3.4.6.7l.1.1c1.6-1.5 3-2.7 4.9-4 1.6-.9 3.2-1.9 4.5-3.2zM40 8.7v-3.6c-.9 2.5-1.8 5.1-3.3 7.1-1 1.5-1.9 3-3.1 4.4-.4.5-.9.8-1.3 1.2-.4.3-.9.6-1.4.9l-.3.2-.3.2-1.1.9c.1.1.2.2.3.4.2.3.5.6.7.6.2-.2.4-.4.7-.6l.6-.4c.3-.2.6-.4.9-.5l.4-.3c.5-.3.9-.7 1.3-1.1 1.1-1.1 2-2.3 2.8-3.6 1.2-1.8 2.2-3.8 3.1-5.8zM-38.1 0c.8 1.8 1.1 3.7 1.9 5.4.9 2.1 2.6 3.9 4 5.7.7.9 1.5 1.9 2.3 2.7l.9.9.1.1.7.6c.2.1.3.2.5.4l2.2 1.4.2.1 1.5.9c.2.1.3.2.5.4l.5.3-.3.5c-.1.2-.2.4-.4.4-.1.1-.2.1-.4 0l-.8-.4c-.9-.6-1.8-1.2-2.8-1.7-.1-.1-.2-.2-.4-.2-.5-.3-.9-.6-1.3-.9-1.6-1.3-2.8-2.8-4.2-4.4-1.8-2.5-3.6-4.7-4.6-7.5-.6-1.6-1-3.2-1.7-4.7h1.6z"/><path fill-rule="evenodd" clip-rule="evenodd" fill="#fff" stroke="#000" stroke-width=".5" stroke-miterlimit="10" d="M23.5 28.4c-.4-.6-3.2-2.4-3.7-2-.8.5-3.2 3.4-4.2 3.9 2.4-.1 7.6-1.8 7.9-1.9z"/><path fill-rule="evenodd" clip-rule="evenodd" fill="#E5E500" d="M-19-.1c-.1 0-.1.1 0 0l-.1.1c-.3.5-.6 1.1-.8 1.9-.5 1.5-1 3.4-1.3 5.2-.1.4-.2.9-.2 1.3-.2 1-.3 1.9-.4 2.6-.1.7-.2 1.3-.2 1.6v.30000000000000004s.3-.1.8-.2c.3-.1.6-.2 1-.2l.3-.1c.2-.1.4-.1.7-.2l1.2-.3c.4-.1.7-.2 1.1-.2l.9-.2c.4-.1.9-.2 1.4-.3l.5-.1c.5-.1 1.1-.2 1.7-.3l.5-.1c.6-.1 1.1-.2 1.7-.2.1 0 .3 0 .4-.1l1.8-.2h.3l3.4-.3 2.1-.1h4.699999999999999c1.1 0 2.2.1 3.2.1h.7c1.3.1 2.5.2 3.7.3 9.6.8 15.1 2.1 15.1 2.1s-.1-.3-.2-.9c-.1-.3-.2-.8-.2-1.2 0-.2-.1-.4-.1-.7l-.2-.9v-.1l-.2-1v-.1c-.3-.5-.5-1.4-.7-2.3v-.1c-.2-.9-.5-1.9-.7-2.7 0-.1 0-.1-.1-.2-.2-.8-.5-1.5-.7-2.1v-.1h-41.1z"/><g fill="#D32A2A"><path d="M18 7.5c-.2.5-.5 1-.8 1.4-.1.1-.3.3-.5.4-.3.2-.7.4-1 .5-.4.2-.8.2-1.2.2-.2 0-.3 0-.5-.1-.2 0-.3-.1-.5-.2-.5-.2-.8-.5-1.2-.9-.2-.3-.5-.6-.6-.9l-.3-.6-.3-.9c-.5-1.6-2.2-2.7-2.9-4.4-.1-.5-.4-1.2-.5-2h1.5c.3 1.4 1.2 3.1 1.8 3.5 1.3 1.1 1 .6 1.5 2.3.2.7.5 1.5 1.1 2 .3.3.7.5 1.1.6h.30000000000000004c.2 0 .4 0 .6-.1.3-.1.6-.3.8-.5.1-.2.3-.3.3-.5.3-.6-.1-1.6.2-2.1 2.7.2.6-4-.1-4.8-.1-.1-.2-.2-.4-.3h1.2c.4.5.8 1.1 1.1 1.7.2.4.4.8.5 1.2l.2.8c.1 1.6-1 2.2-1.4 3.7z"/><path fill-rule="evenodd" clip-rule="evenodd" d="M15 .5c-.3-.1-.6-.3-.8-.5h-3.2c-.2.2-.3.4-.2.8.3 1.3 1.3 1.5 2.3 1.6.8.1.3 3.3 1.3 4 1.8 1.3.9-3.1.8-3.6 2.4 1.3 1.7-1.8-.2-2.3z"/></g><g fill="#D32A2A"><path d="M23.7 9.9c-.1.5-.3.9-.7 1.1-.2.1-.4.2-.7.2-.1 0-.3 0-.4-.1-.8-.1-.9-1.4-.9-2.4v-1c-.8-1.1-1.2-2.5-1.7-3.8v-.2c-.1-.4-.4-1.2-.6-2-.2-.6-.3-1.3-.2-1.7h1.4c.2.5.5 1 .6 1.1-1.8-.7 1.3 5.9 1.3 5.9 0 .4-.2 1.8.2 2.5 0 .3.2.5.4.5.3.1.5 0 .6-.2.2-.2.3-.4.4-.7.1-.5.1-1.1.1-1.4.2.1.2-.7.1-1.7v-.6l-.1-.3c-.2-1-.4-2-.6-2.2-.4-.6-.8-1.9-1.5-2.9h.3c.4.6.8 1.4 1.1 2.1 0 .1 0 .1.1.2.3.8.5 1.7.7 2.5v.30000000000000004c.2 1.1.5 3.4.1 4.8z"/><path fill-rule="evenodd" clip-rule="evenodd" d="M22.4 7.6c-.1.4 0 .8.3 1.1.6.3.4-2.6.4-2.7 1.1.7.1-1.7-.3-2.1-.2-.7-.4-1.5-.7-2.2.1.3-1.2-2-1.2-1.4.1.9.8 2 1.1 2.9-1.3-1-.9.6-.5 1.4l1 .9-.1 2.1c0 .3.1-.6 0 0z"/></g><g fill="#D32A2A"><path d="M-16.1 2.5l-.1.6c-.1.2-.1.5-.2.8-.3 1.2-.8 2.5-1.4 3.6-.6 1 0 2.3-.5 3.3 0 .1-.1.2-.1.2l-.3.3c-.2.1-.3.2-.5.2h-.1c-.2 0-.3-.1-.5-.2-.1-.1-.2-.2-.2-.3-.4-.5-.7-1.3-.7-1.7-.2-.1-.3-.2-.3-.4-.2-.4-.2-1-.1-1.7.2-1.7.9-3.8 1.4-5 .1-.2.2-.4.2-.5.2-.6.6-1.1 1-1.7h.2c-.5.8-1 1.8-1.2 2.5-.1.2-.2.4-.2.6-.9 1.1-1 2.9-.9 4.3 0 .4.1.8.2 1.1 0 .2.3 1.4.7 1.7.2.1.4.1.6-.2.5-.7.3-2 .3-2.8 0 0 .2-.5.5-1.1.8-1.9 2.1-5.4.8-4.8.1-.1.4-.8.7-1.4h1c-.2.9-.2 1.8-.3 2.6z"/><path fill-rule="evenodd" clip-rule="evenodd" d="M-20.1 8.3c-.1.4.1.6.4.7.5-.3.2-1.9.2-2.2.1-2.4.1-.3.6-1.4.8-.5 1.3-3.1-.1-1.9.3-.9 1-2 1.1-2.9 0-.6-1.3 1.7-1.2 1.4-.3.7-.5 1.4-.7 2.2-.1.4-.5.4-.6.9.1-.2-.3 1.8 0 1.5l.3-.3c-.1.7-.1 1.3 0 2 0 .2-.1-.6 0 0z"/></g><g fill="#D32A2A"><path d="M-5.2 1.5c-.2.5-.3 1-.5 1.3-.4.9-1 1.8-1.8 2.5-.7.7-.6 1.3-1 2.2-.2.5-.5 1-.9 1.5-.1.2-.3.3-.4.4-.3.2-.6.4-1 .6-.2.1-.4.1-.6.1h-.3c-.4 0-.8-.1-1.2-.2-.2-.1-.4-.2-.5-.2-1-.5-1.6-1.5-1.7-2.7-1.2-.6-1.4-1.9-1.2-3.1.1-.5.2-.9.3-1.3v-.1c.3-.8.9-1.7 1.5-2.5h1.2c-1 .9-3.3 4.1-1.3 5.2 1.1.6.4.2.7 1.6.1.8.6 1.5 1.4 1.7l.3.1h.7c2.5-.4 1.5-3.6 3-4.5.5-.4 1.8-2.5 2.1-4.1h1.6c-.1.5-.2 1-.4 1.5z"/><path fill-rule="evenodd" clip-rule="evenodd" d="M-8.5 0c-.3-.1-.5-.1-.9 0-.1 0-.2.1-.4.1 0 0 0-.1.1-.1h-1.5c-.2.3-.4.5-.5.6-2 .5-3 3.7-.6 2.5-.3.9-.7 2.2-.4 3.1.2.8 1.1.7 1.5.1.9-1.3-.3-4.1 2-3.9 1.3-.2 1.6-2 .7-2.4z"/></g><g fill="#D32A2A"><path d="M-5.2 1.3zM8.4 10c-2.9-.2-5.7-.2-8.5-.2l-4.2.1c-1.7.2-1.3-1.1-1.3-2.5-.1-2 .1-4 .4-6 0 .9.2 1.8.7 2.5.6.9 1.3.9 1.5 2 .2.9.7 1.7 1.4 2.4-.9-.8.8.8 0 0 1.4 1.3 3.7 1.5 5.4.5 1.7-1 1.4-3 2.7-3.9 1.1-.9 1.6-1.9 1.6-3l.1.8c.4 2.3.5 4.8.2 7.3z"/><path fill-rule="evenodd" clip-rule="evenodd" d="M4.9 3.4c-1.2.5-.4 2-1.3 3.2v.1s0 .1-.1.1-.2.1-.3.2c-.3.3-.6.4-1 .5-.2.1-.4.1-.7.1-.5 0-.9-.1-1.3-.4-.5-.2-1-.7-1.2-1.2-.4-.7-.4-1.5-.3-2.2 0-.3-.9-.4-1.2-.7-.9-.8-1.1-2-.9-3.1h1.5c-.2.6-.1 1.2.5 1.5.5.2 1.3 0 1.8 0 0 1-.4 2.8.2 3.7v.1l.1.1c1.9 2.2 1.8-3.2 1.8-3.8.6 0 1.7.2 2.1-.3.3-.5.4-.9.2-1.3h1.5c.4 1.3 0 2.8-1.4 3.4z"/></g><path fill-rule="evenodd" clip-rule="evenodd" fill="#E5E500" stroke="#D32A2A" stroke-width="1.5" stroke-miterlimit="10" d="M34.8 9.2c-.5.9-1.1 1.7-1.9 2.3-.3.2-.6.4-1 .6-.5.3-1.1.5-1.7.5h-.6c-.4 0-.8 0-1.2-.1l-1-.3c-.4-.2-.7-.4-1-.6-.5-.4-.9-.8-1.2-1.4l-.3-.6-.3-.8v-.1c-.1-.3-.2-.7-.2-1-.4-2.5.4-5.2 1.5-7.3h10.1c.9 2.7 0 6.3-1.2 8.8z"/><path fill-rule="evenodd" clip-rule="evenodd" fill="#E5E500" d="M27 .1l-.1.3c-1 1.9-1 3.8 0 5.5-.7.4-1.3 1.1-1.5 1.8-.3 1.1 0 2.3.8 3.2.2.2.3.4.5.5l.2.2c.2.2.5.3.8.5l.3.1c.1 0 .1 0 .2.1.3.1.6.1.8.1h.3c.3 0 .6 0 .8-.1 1.3-.3 2.4-1.2 2.9-2.4.3-.9.2-1.8-.3-2.6.1-.2.3-.3.5-.5.9-.8 1.5-1.9 1.9-3.1v-.30000000000000004c.3-1.1 0-1.9-.3-3l-.1-.3h-7.7z"/><path fill="#D32A2A" d="M29.3 11.8c.2 0 .4 0 .7-.1 2.1-.4 3.6-2.6 1.9-4.6.4-.2.7-.4 1-.7.8-.8 1.4-1.8 1.7-2.9v-.1c.2-1 0-1.7-.3-2.8h-7c-1 1.9-.9 3.7.3 5.5-2.2.8-2.2 3.1-1 4.5.1.2.3.3.5.5l.2.1c.2.2.5.3.7.4l.2.1c.1 0 .1 0 .2.1l.6.1c.2-.1.2-.1.3-.1m.1 1h-.4l-.8-.1s-.1 0-.2-.1l-.3-.1c-.4-.1-.7-.3-1-.5-.1 0-.1-.1-.2-.2l-.6-.6c-.9-1.1-1.2-2.5-.9-3.7.2-.8.6-1.4 1.3-1.9-.8-1.8-.8-3.7.2-5.5l.3-.5h8.2l.2.7c.4 1.1.6 2 .4 3.2v.2l-.1.1c-.4 1.3-1.1 2.5-2 3.3-.1.1-.2.2-.3.2.4.9.5 1.8.2 2.7-.5 1.3-1.7 2.4-3.2 2.7-.3.1-.6.1-.8.1z"/><g fill-rule="evenodd" clip-rule="evenodd" fill="#D32A2A"><path d="M30.9 8c-1.3-1.7-5-.5-3.4 1.6 1.3 1.6 5 .5 3.4-1.6zM33.3 0h-4.5c-1.3 2-1.3 5.3 1.1 5.9 2.8.7 4.5-3.6 3.4-5.9z"/></g><path fill-rule="evenodd" clip-rule="evenodd" fill="#E5E500" stroke="#D32A2A" stroke-width="1.5" stroke-miterlimit="10" d="M-18.2 7.1c0-.3-.1-.6-.2-.9-.1-.3-.2-.6-.2-1-.2-.8-.5-1.5-.8-2.3l-.2-.4c0-.1-.1-.2-.2-.3 0-.1-.1-.2-.2-.3-.4-.7-.7-1-1.3-1.6h-7.7c-.5.5-.9.9-1.1 1.6-.2.7-.3 1.4-.3 2.1v.6c0 .1 0 .3.1.4l.2 1.2c.6 2.6 2.1 5.5 4.2 6.6h.1c.6.3 1.2.5 1.7.6h.5c.4 0 .8 0 1.2-.1.4-.1.8-.2 1.1-.4.4-.2.7-.4 1-.6.1-.1.2-.1.2-.2.2-.2.5-.5.7-.8l.2-.3.3-.6c.6-.9.9-2.1.7-3.3z"/><path fill-rule="evenodd" clip-rule="evenodd" fill="#E5E500" d="M-25.4.1h-2.6l-.2.2c-.1 0-.3.1-.5.4-.1.2-.2.3-.3.4l-.1.1-.1.1-.1.1v.2c-.1.1-.1.3-.1.4-.1.5-.1 1 0 1.6v.30000000000000004l.5.1-.5.1c.1.4.1.7.2 1 .1.3.2.7.4 1 .2.3.3.6.5.8.5.8 1.2 1.4 1.9 1.8-.4.8-.4 1.5-.2 2.3.4 1 1.3 1.8 2.4 2.1.1 0 .2 0 .2.1.1 0 .2.1.4.1h.5c.3 0 .5 0 .8-.1h.1s.1 0 .2-.1h.1l.5-.2.1-.1.5-.3c.2-.2.4-.3.5-.5.2-.2.3-.4.4-.6.1-.2.3-.5.3-.8.1-.5.2-1 .1-1.5s-.3-.9-.6-1.3c-.2-.2-.4-.4-.7-.6l-.1-.1-.3-.2c.5-1.2.5-2.7 0-4.1 0-.1 0-.1-.1-.2l-.1-.3c-.4-.8-.8-1.1-1.4-1.6l-.4-.3-.1-.1h-2.2l.1-.2z"/><path fill="#D32A2A" d="M-23 12.8c.2 0 .5 0 .8-.1h.30000000000000004c.2-.1.4-.2.5-.3l.4-.3c.2-.1.3-.3.4-.4.2-.2.3-.4.4-.5l.3-.7c.1-.4.2-.9.1-1.3s-.2-.7-.5-1.1c-.1-.2-.3-.4-.6-.5-.1-.1-.3-.2-.5-.2h-.1l-.3-.1c.7-1.3.7-2.9.2-4.3 0 0 0-.1-.1-.2l-.1-.3c-.4-.8-.9-1.1-1.7-1.7h-4.5s-.1-.1-.3.2c-.1.2-.2.4-.4.5l-.1.2v.2c-.1.1-.1.2-.1.3-.1.5-.1 1 0 1.5v.5c0 .3.1.6.2.9.1.3.2.6.4.9l.4.8c.6.8 1.3 1.5 2.2 1.8-1.3 1.9 0 3.6 1.7 4.1h.2l.3.1h.5m0 1h-.5c-.2 0-.3 0-.5-.1-.1 0-.2 0-.3-.1-1.3-.4-2.3-1.3-2.7-2.4-.3-.7-.3-1.5 0-2.2-.7-.4-1.2-1-1.7-1.7l-.5-.9c-.2-.4-.3-.7-.4-1.1-.1-.3-.2-.6-.3-1v-.8c-.1-.4-.1-1 0-1.5l.1-.5v-.3l.1-.1.3-.3c.1-.1.2-.2.2-.3.2-.4.5-.5.6-.6l.3-.3h5.2l.3.2c.2.1.3.2.4.3.6.4 1.1.8 1.6 1.7l.1.3v.1l.1.2c.4 1.4.5 2.8.1 4l.2.1c.3.2.6.5.8.8.3.4.6.9.7 1.5.1.6.1 1.2-.1 1.7-.1.3-.2.6-.4.9-.1.2-.3.5-.5.7l-.6.6-.5.4-.2.1-.4.2c-.1 0-.1 0-.2.1h-.30000000000000004c-.3.2-.6.3-1 .3z"/><g fill-rule="evenodd" clip-rule="evenodd" fill="#D32A2A"><path d="M-21.9 8.3c-1.9-.6-4.2 2.3-1.9 3.1 1.9.6 4.2-2.3 1.9-3.1-.5-.2.4.1 0 0zM-26.3.5c-3.3 1.2-.9 7.9 2.5 6.7 3.3-1.3.8-7.9-2.5-6.7z"/></g><path fill-rule="evenodd" clip-rule="evenodd" fill="#EFE4CA" stroke="#000" stroke-width=".5" stroke-miterlimit="10" d="M4.7 39.1c.7-.7 2.1-.8 2.5-1.8.4-1-.1-2.4.2-3.5.6-2.3 2.9-3.3 4.9-4.1 3-1.1 6-2.2 9-3.5 2.1-.9 6.2-2.8 7.4-4.8.4-.7-.3-1.3-.4-2-.3-1.6-2-2.8-3.3-3.6-2.9-1.7-6.1-2.8-9.4-3.4-5.7-1-11.9-1-17.6-.7-6.7.4-12.5 1.6-18.4 4.8-1.5.8-.8 5.8.1 7 1.5 2 4 2.7 6.4 3.3 2.9.8 6.4 2.2 8.4 4.5 2 2.4 1.9 5.7 1.6 8.6-.1.6-.9 2.1-.6 2.6.5.7 3.4.3 4.1.3 2.8-.2 3.2-2 5.1-3.7.2-.2-.2.1 0 0z"/><path fill-rule="evenodd" clip-rule="evenodd" fill="#E2DC00" stroke="#000" stroke-width=".3" stroke-miterlimit="10" d="M2.5 28.4c.3-.6-.6-.8-.8-.1-1-.1-5-.9-4.9.8.2.3 1.5-.5 2.1-.4.5-.1 3.4.5 3.6-.3zM3.4 28.4c.2.9 2.7.3 3.4.3.3 0 2.8.8 2.4.1 0-1-3.1-.7-3.7-.6-.6 0-2.4-.5-2.1.2.1 0 0-.1 0 0zM.9 25.3c0 .6.1 1.1.4 1.5-2.1.2.3 2.7.6.6.6.4 1.4.4 2 0 .3 2.1 2.7-.4.6-.6.6-.9.6-2.2 0-3.1 2.2-.2-.3-2.7-.5-.6-.6-.4-1.4-.4-2 0-.3-2.1-2.7.4-.6.6-.3.5-.5 1-.5 1.6z"/><path fill-rule="evenodd" clip-rule="evenodd" fill="#E24D00" stroke="#000" stroke-width=".4" stroke-miterlimit="10" d="M4.2 25.5c0-2-2.5-2-2.5 0s2.5 2 2.5 0z"/><path fill-rule="evenodd" clip-rule="evenodd" fill="#fff" stroke="#000" stroke-width=".5" stroke-miterlimit="10" d="M-3.7 50c.9-.3.8-2.4.9-3.3.5-2 .3-3.5.2-5.5 0-3-.4-6.7.3-9.6.1-.8-.1-1.2-.7-1.7-.7-.5-.3-1.1-.4-1.8-.2-1.2-.1-2.9-1.5-3.3-3.8-1.1-8.3 0-12 1.1 1.3 1 2.7 2.2 4.2 2.9 1.8.8 2.1.6 2 2.5.1 2.2.7 4 1.2 6.1.7 2.3 1.3 4.7 1.8 7 .3 1.2.7 2.4.5 3.7 0 1.5 2.3 1.7 3.5 1.9.2-.1-.8-.1 0 0z"/><path fill="#1A171B" d="M-13 26.5l-.3.2c.6 1.2 2.2 2.1 2.9 3.3.9 1.5 1.8 3 2.2 4.7.4 1.6.8 6.2 1.8 7.3.7-1.3-1.1-6-1.5-7.4-.5-1.7-1.4-3.3-2.3-4.8l-2.8-3.3zM-3.7 36.1c-.4.2-.4 4.7.2 5.1.5-1 0-4.2-.2-5.1z"/><path fill-rule="evenodd" clip-rule="evenodd" fill="#fff" stroke="#000" stroke-width=".5" stroke-miterlimit="10" d="M8.4 50.3c1-.1 2.7-.2 3.2-1.3.2-.5-.1-1.1 0-1.6.1-.9.4-1.9.6-2.8.7-3.1 1.4-6.3 2.9-9 1.2-2.2.4-4.7 2.4-6.4.4-.4 3.6-3.2 4.1-3.1-3.2-1-6.3-1.2-9.6-1.5-1.3-.1-2-.2-2.2 1.4-.1.5-.1 1-.4 1.5l-.2 2.4c-2.3 3.6-1.8 7.6-1.9 11.6 0 2-.2 3.5.2 5.5.1.9 0 3 .9 3.3.7-.1-.2-.1 0 0z"/><path fill="#1A171B" d="M12.6 34.2c-1.2 2.7-.3 6-1.1 8.6.8-.1 1.4-8.3 1.1-8.6zM10.7 32.5c-.4 1.3-.5 8.3.6 8.8.3-1.1-.3-3.4-.3-4.6 0-1 .2-3.8-.3-4.2z"/><g clip-rule="evenodd" stroke="#000" stroke-width=".5" stroke-miterlimit="10"><path fill-rule="evenodd" fill="#563722" d="M16.4 43.8c-2.4-5.7-11.3-3.8-8.6 2.6 2.4 5.8 11.3 3.8 8.6-2.6-.5-1.3.6 1.3 0 0z"/><path stroke-linecap="round" d="M11.3 44.4c.4 0 1-.4 1.2.5.2.9-.9 2.4-2.3 1.3-1.4-1.2-1-3.6.2-3.8 1.2-.2 3.7.2 4.1 2.5s-1.5 5-3.7 3.8c-2.2-1.2-3.4-5.1-2-6.6s4.9-1.6 5.8-.5c.9 1.1 2.1 3.5 1.2 6.1-1 2.6-4.4 2.1-4.8 1.9" fill="none"/></g><path fill-rule="evenodd" clip-rule="evenodd" fill="#563722" d="M12.3 55.8c.8-2.1.5-4 .3-6.2-.1-1.8 1.4-1.9-.3-3.3-1.3-1.1 1.1-2.3-.3-3.4-2.1-1.7-2.4.8-2.5 2.4-.2 3.7-.1 7.5-1.4 11-.2.6-1.4 3-.1 3.2 2 .2 3.7-2 4.3-3.7.6-1.7-.8 2 0 0z"/><path d="M9.4 50.1v.1c0 .3 0 .6-.1.9l-.2-.1c0-.3 0-.6.1-.8v-.4l.2.1c.1.1 0 .1 0 .2zm0 0v.1c0 .3 0 .6-.1.9l-.2-.1c0-.3 0-.6.1-.8v-.4l.2.1c.1.1 0 .1 0 .2zm0 0v.1c0 .3 0 .6-.1.9l-.2-.1c0-.3 0-.6.1-.8v-.4l.2.1c.1.1 0 .1 0 .2zm0 0v.1c0 .3 0 .6-.1.9l-.2-.1c0-.3 0-.6.1-.8v-.4l.2.1c.1.1 0 .1 0 .2zm0 0v.1c0 .3 0 .6-.1.9l-.2-.1c0-.3 0-.6.1-.8v-.4l.2.1c.1.1 0 .1 0 .2zm0 0v.1c0 .3 0 .6-.1.9l-.2-.1c0-.3 0-.6.1-.8v-.4l.2.1c.1.1 0 .1 0 .2zm0 0v.1c0 .3 0 .6-.1.9l-.2-.1c0-.3 0-.6.1-.8v-.4l.2.1c.1.1 0 .1 0 .2zm0 0v.1c0 .3 0 .6-.1.9l-.2-.1c0-.3 0-.6.1-.8v-.4l.2.1c.1.1 0 .1 0 .2zm0 0v.1c0 .3 0 .6-.1.9l-.2-.1c0-.3 0-.6.1-.8v-.4l.2.1c.1.1 0 .1 0 .2zm0 0v.1c0 .3 0 .6-.1.9l-.2-.1c0-.3 0-.6.1-.8v-.4l.2.1c.1.1 0 .1 0 .2zm0 0v.1c0 .3 0 .6-.1.9l-.2-.1c0-.3 0-.6.1-.8v-.4l.2.1c.1.1 0 .1 0 .2zm0 0v.1c0 .3 0 .6-.1.9l-.2-.1c0-.3 0-.6.1-.8v-.4l.2.1c.1.1 0 .1 0 .2zm0 0v.1c0 .3 0 .6-.1.9l-.2-.1c0-.3 0-.6.1-.8v-.4l.2.1c.1.1 0 .1 0 .2zm0 0v.1c0 .3 0 .6-.1.9l-.2-.1c0-.3 0-.6.1-.8v-.4l.2.1c.1.1 0 .1 0 .2zm0 0v.1c0 .3 0 .6-.1.9l-.2-.1c0-.3 0-.6.1-.8v-.4l.2.1c.1.1 0 .1 0 .2zm0 0v.1c0 .3 0 .6-.1.9l-.2-.1c0-.3 0-.6.1-.8v-.4l.2.1c.1.1 0 .1 0 .2zm0 0v.1c0 .3 0 .6-.1.9l-.2-.1c0-.3 0-.6.1-.8v-.4l.2.1c.1.1 0 .1 0 .2zm0 0v.1c0 .3 0 .6-.1.9l-.2-.1c0-.3 0-.6.1-.8v-.4l.2.1c.1.1 0 .1 0 .2zm0 0v.1c0 .3 0 .6-.1.9l-.2-.1c0-.3 0-.6.1-.8v-.4l.2.1c.1.1 0 .1 0 .2zm0 0v.1c0 .3 0 .6-.1.9l-.2-.1c0-.3 0-.6.1-.8v-.4l.2.1c.1.1 0 .1 0 .2zm0 0v.1c0 .3 0 .6-.1.9l-.2-.1c0-.3 0-.6.1-.8v-.4l.2.1c.1.1 0 .1 0 .2zm0 0v.1c0 .3 0 .6-.1.9l-.2-.1c0-.3 0-.6.1-.8v-.4l.2.1c.1.1 0 .1 0 .2zm0 0v.1c0 .3 0 .6-.1.9l-.2-.1c0-.3 0-.6.1-.8v-.4l.2.1c.1.1 0 .1 0 .2zm2.9-4.1c.3.5 1.2.7 1.2 1.5 0 .5-.3.8-.6 1.1-.1.2-.2.3-.2.5v.7999999999999999l.1 2c.2.5.2 1.1.2 1.7v.4c0 .3-.1.7-.2 1l-.6 1.6-.3.6c-.6 1-1.3 1.8-2.4 2.2-.1.1-.3.1-.4.1-.4.1-.7.2-.9.1-.1 0-.2 0-.3-.1-.1 0-.1-.1-.2-.2l-.1-.1v-.30000000000000004c0-.1 0-.3-.1-.4-.1-1.8 1.4-5.2 1.4-6.2v-4.199999999999999c0-.5 0-.9.1-1.4.1-1.1.2-2.1.4-2.9v-.2c.1-.2.1-.4.2-.5v-.1c.2-.6.6-1 1-1h.5c.2 0 .3.1.5.2l.2.1.1.1.6.6c.2.3.3.6.3.9 0 .3-.2.5-.3.8-.3.4-.6.8-.2 1.3zm-4.2 13.2h.4l.5-.1c.4-.1.9-.4 1.2-.7.5-.4.8-.8 1.2-1.3l.3-.5c.2-.3.3-.6.4-.9l.3-1 .1-.7v-1.5c0-.9-.2-1.7-.2-2.7v-.9c.2-1.5 1.2-1.1-.3-2.5l-.1-.1-.2-.3v-.1c-.1-.2-.1-.4 0-.6 0-.2.1-.3.2-.5l.2-.5c.2-.4.2-.8-.2-1.2l-.4-.3s-.1 0-.1-.1c-.1-.1-.2-.1-.3-.1h-.3c-.9 0-1 1.7-1.1 2.8v.3l-.1 2.1v1.1c0 .4 0 .7-.1 1.1v.4c0 .3 0 .6-.1.9v.6000000000000001c-.2 1-1.3 4.8-1.4 6.5v.8h.1zm1.3-9.1v.1c0 .3 0 .6-.1.9l-.2-.1c0-.3 0-.6.1-.8v-.4l.2.1c.1.1 0 .1 0 .2zm0 0v.1c0 .3 0 .6-.1.9l-.2-.1c0-.3 0-.6.1-.8v-.4l.2.1c.1.1 0 .1 0 .2zm0 0v.1c0 .3 0 .6-.1.9l-.2-.1c0-.3 0-.6.1-.8v-.4l.2.1c.1.1 0 .1 0 .2zm0 0v.1c0 .3 0 .6-.1.9l-.2-.1c0-.3 0-.6.1-.8v-.4l.2.1c.1.1 0 .1 0 .2zm0 0v.1c0 .3 0 .6-.1.9l-.2-.1c0-.3 0-.6.1-.8v-.4l.2.1c.1.1 0 .1 0 .2zm0 0v.1c0 .3 0 .6-.1.9l-.2-.1c0-.3 0-.6.1-.8v-.4l.2.1c.1.1 0 .1 0 .2zm0 0v.1c0 .3 0 .6-.1.9l-.2-.1c0-.3 0-.6.1-.8v-.4l.2.1c.1.1 0 .1 0 .2zm0 0v.1c0 .3 0 .6-.1.9l-.2-.1c0-.3 0-.6.1-.8v-.4l.2.1c.1.1 0 .1 0 .2zm0 0v.1c0 .3 0 .6-.1.9l-.2-.1c0-.3 0-.6.1-.8v-.4l.2.1c.1.1 0 .1 0 .2zm0 0v.1c0 .3 0 .6-.1.9l-.2-.1c0-.3 0-.6.1-.8v-.4l.2.1c.1.1 0 .1 0 .2zm0 0v.1c0 .3 0 .6-.1.9l-.2-.1c0-.3 0-.6.1-.8v-.4l.2.1c.1.1 0 .1 0 .2zm0 0v.1c0 .3 0 .6-.1.9l-.2-.1c0-.3 0-.6.1-.8v-.4l.2.1c.1.1 0 .1 0 .2zm0 0v.1c0 .3 0 .6-.1.9l-.2-.1c0-.3 0-.6.1-.8v-.4l.2.1c.1.1 0 .1 0 .2zm0 0v.1c0 .3 0 .6-.1.9l-.2-.1c0-.3 0-.6.1-.8v-.4l.2.1c.1.1 0 .1 0 .2zm0 0v.1c0 .3 0 .6-.1.9l-.2-.1c0-.3 0-.6.1-.8v-.4l.2.1c.1.1 0 .1 0 .2zm0 0v.1c0 .3 0 .6-.1.9l-.2-.1c0-.3 0-.6.1-.8v-.4l.2.1c.1.1 0 .1 0 .2zm0 0v.1c0 .3 0 .6-.1.9l-.2-.1c0-.3 0-.6.1-.8v-.4l.2.1c.1.1 0 .1 0 .2zm0 0v.1c0 .3 0 .6-.1.9l-.2-.1c0-.3 0-.6.1-.8v-.4l.2.1c.1.1 0 .1 0 .2zm0 0v.1c0 .3 0 .6-.1.9l-.2-.1c0-.3 0-.6.1-.8v-.4l.2.1c.1.1 0 .1 0 .2zm0 0v.1c0 .3 0 .6-.1.9l-.2-.1c0-.3 0-.6.1-.8v-.4l.2.1c.1.1 0 .1 0 .2zm0 0v.1c0 .3 0 .6-.1.9l-.2-.1c0-.3 0-.6.1-.8v-.4l.2.1c.1.1 0 .1 0 .2zm0 0v.1c0 .3 0 .6-.1.9l-.2-.1c0-.3 0-.6.1-.8v-.4l.2.1c.1.1 0 .1 0 .2zm0 0v.1c0 .3 0 .6-.1.9l-.2-.1c0-.3 0-.6.1-.8v-.4l.2.1c.1.1 0 .1 0 .2z"/><path fill-rule="evenodd" clip-rule="evenodd" fill="#EFE4CA" d="M7.4 59.7c3.6-1.1 3.6-5 4.3-7.9l-.1-4.1c.4-1.6.1-3-.4-4.6-.8-2.5-1.4-7-4.6-7.3-2.4-.2-7.9 1.2-8.4 4-.3 1.7-.4 4.4-2.5 5-2.3.5-3.8 5.2-2.1 7.2.9 1.2 2.5 1.5 3.4 2.6.9 1 1.2 2.4 1.8 3.6 1.8 3.3 5.6 2.3 8.6 1.5.1-.1-1.8.5 0 0z"/><path d="M6.1 35.5c-2.7 0-6.2 1.3-7.9 3.4.7.5 1.9-1.1 2.7-1.5 1.5-.7 3.3-1.4 4.9-1.4 3.6-.2 4 3.7 4.9 6.3 1 3 .2 5.5.8 8.4.4 2.3-.9 7.8-3.5 8.6-2.4.6-6.4 2.2-8.3-.2-1.8-2.3-1.7-4.4-4.5-6-2.2-1.3-2.3-4-1.5-6.2.6-1.7 1.7-1.3 2.7-2.2.5-.5 1.2-1.3 1.6-1.7 0-.9-2.1 1.6-2.2 1.6-2.5.3-2.4 2.7-2.7 4.6-.6 3.7 2.3 3.5 4 5.9 1.5 2.1 1.6 5.1 4.6 5.7 2.6.5 6.8-.3 8.3-2.5 1.5-2 2.5-5.6 2-8.1-.3-1.5.3-2.9.2-4.4-.1-1.4-.6-2.8-1-4.1-1.1-2.7-1.6-6.2-5.1-6.2z"/><path fill-rule="evenodd" clip-rule="evenodd" fill="#fff" stroke="#000" stroke-width=".4" stroke-miterlimit="10" d="M34.3 14.4c.1 0 0 .2 0 0 0 .5-.8 1.5-1.4 2.3-.3.4-.5.7-.6.9v.1c-.2.3-.4.7-.5 1-.1.2-.2.3-.2.4l-.6 1.2-.1.3c-.1.2-.2.3-.2.5-.2.3-.3.6-.5.7-.5.4-1.2.5-1.9.4-.2 0-.3 0-.5-.1-.7-.2-1.4-.4-2-.7-.7-.3-1.7 0-2.3-.6-.2-.2-.4-.3-.5-.5-.4-.3-.7-.4-1.4-.4-1.7.1-3.1-1.3-4.7-1.6h-.30000000000000004c-1.5-.1-3.2.1-4.7-.2-.5-.2-.9-.3-1.3-.4-.9-.3-1.8-.4-2.7-.4h-2.1c-.6-.1-1.9-.6-2.4 0-.1 0-.1.1-.1.1-.5-.2-1.2-.5-1.8-.4h-.2c-1 .4-2.2 0-3 .5-.3.2-.5.4-.7.5h-.1l-.3.1c-.2 0-.4 0-.7-.1-1.6 0-1.6.7-2.6 1h-.2c-.8.2-1.6-.3-2.4 0-.6.3-1 .5-1.4.5h-1.3c-.9-.1-.9.4-1.4.6-.1 0-.1 0-.2.1h-.3c-.4 0-.8.2-1.2.4-.1 0-.2.1-.2.2l-.2.1c-.6.4-1.2.9-1.8 1-.6.1-1.3.7-2 1.2-.4.3-.8.5-1.2.6h-.3c-.9 0-2.1-.7-3.1-1.5-.6-.4-1.1-.8-1.5-1.2-1.2-1-2-2.3-2.5-3.7l-.4-1c-.1-.2-.1-.4-.2-.5v-.2l-.1-.5c-.1-.4-.1-.7-.1-.9v-.1c0-.4.2-.6.4-.7.4-.2 1 0 1.7.7.1-.7.2-1.1.3-1.4.3-.5.8-.2 1.7.6 0-.4.1-.7.2-.9l.1-.4c.3-.6.7-.4 1.6.4l.1.1.1.1v-.2c.2-1.6.5-1.8 1.5-1l.5.4c0-.3.1-.5.1-.7.2-.9.5-1.1 1.1-.8l.4.3c.1.1.3.2.5.4.2-2 .6-2.1 2.1-.8.5-2 1-2.1 2.2-.5 0-.1.1-.2.1-.2.3-.8.5-1.2.8-1.2l.3.1c.2.1.6.5 1 1 .6-1.7 1-1.9 2-.6l.2.3c.6-1.8 1-1.9 2.2-.3.5-1.4.8-1.8 1.4-1.2.2.2.5.5.8.9.6-1.9 1-1.9 2.2-.3.1-.3.3-.6.4-.8.6-1 1.1-.8 1.9.7 0-.3.2-.6.4-.9.5-.6.8-.5 1.3.4.1.2.2.3.3.6.2-.3.3-.5.4-.7.4-.6.7-.8 1-.5.3.1.5.5.8 1.2.5-.9.9-1.4 1.2-1.3.3.1.6.5 1 1.3.8-1.5 1.3-1.7 1.9-.6.1.2.2.4.4.6v-.1c.1-.1.1-.1.1-.2.8-1.4 1.2-1.3 2 .4.3-.4.5-.7.7-.9.7-.6 1.1-.2 1.5 1.2.2-.3.4-.5.6-.7.6-.6 1-.5 1.4.6.2.1.2.2.3.4l.5-.6c.3-.4.6-.6.8-.5.3 0 .5.4.8 1.2l.1.3c1.2-1.5 1.6-1.5 2.2.4.8-1 1.2-1.3 1.6-.9.2.2.4.6.6 1.3l.3-.4c.6-.8 1-.9 1.4-.4l.4.8c0 .1.1.3.2.5.3-.3.6-.5.8-.7l.1-.1c.7-.4 1 0 1.2 1.5.2-.2.5-.4.6-.6.9-.6 1.2-.3 1.4 1v.3l.2-.2c1-1 1.5-1 1.7.1 0 .2.1.5.2.8.9-.9 1.4-1.1 1.7-.5.1.3.2.7.3 1.3.1-.1.4-.3.7-.4.4-.2.9-.5.9-.5-.2.1 1 1.3.5 1.8z"/><path fill-rule="evenodd" clip-rule="evenodd" fill="#1A171B" d="M33.7 14.3c.2 0-.2-1.2-.3-1.1 0-.1-1 .6-.9.7-.1-.1.2 1.1.3 1.1 0 0 1.1-.7.9-.7zM30.8 14.2c0 .1 1-.6.9-.7.2.1-.2-1.1-.3-1.1 0-.1-1 .6-.9.7-.2 0 .2 1.2.3 1.1zM29.5 12.8c.1.1-.2-1.1-.3-1.1 0-.1-1 .6-.9.7-.1 0 .2 1.2.3 1.1 0 0 1.1-.7.9-.7zM27.5 12.1c.1.1-.2-1.2-.3-1.1 0-.1-1 .6-.9.7-.1-.1.2 1.2.3 1.1l.9-.7zM25.1 10.3c0-.1-1 .6-.9.7-.1-.1.2 1.2.3 1.1 0 .1 1-.6.9-.7.1 0-.3-1.2-.3-1.1zM23.3 10.6c.2 0-.4-1.1-.4-1 0-.1-.9.8-.7.8-.1 0 .4 1.1.4 1-.1.2.8-.7.7-.8zM21.1 10.3c.2 0-.4-1.1-.4-1 0-.1-.9.8-.7.8-.1 0 .4 1.1.4 1-.1.1.8-.8.7-.8zM18.9 9.9c.2 0-.4-1.1-.4-1 0-.1-.9.8-.7.8-.1 0 .4 1.1.4 1-.1.1.9-.8.7-.8zM16.7 9.6c.2 0-.4-1.1-.4-1 0-.1-.9.8-.7.8-.1 0 .4 1.1.4 1 0 .1.9-.8.7-.8zM12.4 8.8c.2 0-.4-1.1-.4-1 0-.1-.9.8-.7.8-.1 0 .4 1.1.4 1-.1.1.8-.7.7-.8zM10.2 8.6c.2 0-.6-1-.6-.9 0-.1-.8.9-.6.9-.1 0 .6 1 .6.9 0 .1.7-.9.6-.9zM8 8.6c.2 0-.6-1-.6-.9 0-.1-.8.9-.6.9-.2 0 .6 1 .6.9-.1.1.7-.9.6-.9zM5.7 8.6c.2 0-.6-1-.6-.9 0-.1-.8.9-.6.9-.2 0 .6 1 .6.9 0 .1.8-.9.6-.9zM3.5 8.6c.2 0-.6-1-.6-.9 0-.1-.8.9-.6.9-.2 0 .6 1 .6.9 0 .1.8-.9.6-.9zM1.3 8.6c.2 0-.6-1-.6-.9 0-.1-.8.9-.6.9-.2 0 .6 1 .6.9 0 .1.8-.9.6-.9zM-.9 8.5c.2 0-.6-1-.6-.9 0-.1-.8.9-.6.9-.2 0 .6 1 .6.9 0 .2.8-.9.6-.9zM-3.1 8.7c.1 0-.8-.9-.7-.8 0-.1-.6 1-.5 1-.1 0 .8.9.7.8.1.1.7-1 .5-1zM-6 8.2c0-.1-.6 1-.5 1-.1 0 .7.9.7.8 0 .1.6-1 .5-1 .2 0-.7-.9-.7-.8zM-7.5 9.4c.2 0-.7-.9-.7-.8 0-.1-.6 1-.5 1-.1 0 .8.9.7.8.1.1.7-1 .5-1zM-9.6 9.7c.1 0-.8-.9-.7-.8 0-.1-.6 1-.5 1-.1 0 .8.9.7.8 0 .1.6-1 .5-1zM-11.8 10.1c.2 0-.8-.9-.7-.8 0-.1-.6 1-.5 1-.1 0 .8.9.7.8 0 .1.6-1.1.5-1zM-14 10.4c.2 0-.8-.9-.7-.8 0-.1-.6 1-.4 1-.1 0 .7.9.7.8 0 .1.5-1 .4-1zM-16.4 12.1c0 .1.4-1.1.2-1.1.1 0-.9-.8-.9-.7 0-.1-.4 1.1-.2 1.1-.1.1 1 .7.9.7z"/><g fill-rule="evenodd" clip-rule="evenodd" fill="#1A171B"><path d="M-20.5 13.6c0 .1.4-1.1.3-1.1.2-.1-.9-.7-.9-.7 0-.1-.4 1.1-.2 1.1-.2.1.8.8.8.7zM-20.5 13.6c0 .1.4-1.1.3-1.1.2-.1-.9-.7-.9-.7 0-.1-.4 1.1-.2 1.1-.2.1.8.8.8.7z"/></g><path fill="#1A171B" d="M-25.4 17c-1 1.5 4.7 5.5 5.9 6.1l.1-.2c-2.4-1.4-4.9-3.3-6-5.9zM31.2 17.4c-.5.7-3.5 3.8-3.3 4.8.9-.7 3.4-4 3.3-4.8zM28.2 17.1c-.4 1.7-1.1 3.2-1.6 4.9.1 0 .2 0 .2.1.5-1.3 1.9-4 1.4-5zM25.9 18.1c0 1.1-.3 2.3-.8 3.3l.2.1c.5-.8 1.2-2.8.6-3.4zM24.8 15.1c-.7 1.6-1 3.9-2.1 5.3l.2.2c.8-1 2.2-4.7 1.9-5.5zM21.6 13.1c-.4.2-1.5 5-1.2 5.7.8-.9 1.2-4.3 1.2-5.7zM22.7 16.4c-.2.8-.6 1.6-.6 2.4h.2c0-.7.8-2 .4-2.4zM17.4 13.9c-.2.3-1.3 4.1-1.1 4.8 1.1-.5 1.1-3.9 1.1-4.8zM13.3 12.5c-1.1.5.5 4.7-.7 5.7l.2.2c1-.9.5-4.5.5-5.9zM2 12.8c0 .8-.2 4.8 1.1 4.9-.7-1.2-.4-4.1-1.1-4.9zM-3.6 10.5c-.4.7.1 2.5.3 3.5.2 1.6.4 3.2.1 4.7h.2c.5-2.7-.2-5.5-.6-8.2zM-6.8 13.2c-.6.5.2 5.5.6 6 .3-1.7-.4-4.2-.6-6zM-9.5 11c-.7.4.6 3 .9 3.7.5 1.4.5 2.7.5 4.1h.2c.1-2.9-1.4-5.1-1.6-7.8zM-16.6 12.8c0 .8 1.3 2.2 1.9 3.1.8 1.4 1.6 2.9 1.7 4.5h.2c-.2-2.8-2.2-5.4-3.8-7.6zM-11.8 13.1c-.5 1.2 1.7 4.9 1.5 6.6h.2c.2-2.3-.9-4.5-1.7-6.6zM5.7 9.5c-.2 1.8.4 4-.1 5.7.1 0 .2 0 .2.1.4-1.1.4-5.3-.1-5.8zM-18.1 14.8c-.1 1.1 2.6 5.4 3.4 6.7l.2-.1c-1.4-2.1-2.4-4.6-3.6-6.6z"/><g fill-rule="evenodd" clip-rule="evenodd" fill="#415AB7" stroke="#000" stroke-width=".5" stroke-miterlimit="10"><path d="M10.8 14.7c.6-1.7-.3-3.6-1.1-5.2-.2-.3-1.3-2.6-2-1.8s-.8 2-1.6 2.7c-1.4 1.4-3.1 1.4-4.5.4-.9-.7-3-3.3-3.5-2.2-.6 2-1.7 3.4-1.1 5.6.5 1.5 2.1 3.7 3.9 2.5 1.1-.7 2.2-2.2 3.6-1.3 1.5.6 5.8 1.1 6.3-.7zM10.7 14.7c-.3-1.8-.7-2.8-1.7-4.3-.3-.4-3.8 1.1-4.2 1.5-1.7 1.3-3.6-.5-5.5-1.2-2.7-1-2.9.7-3 2.9 0 .7.4 5.7 1.7 5.5.8-.2 1.6-.7 2.3-1.1.9-.5 1.7-1.6 2.6-2 2-.8 4.2 1.2 5.7 2.3 1.9 1.3 2.3-2.2 2.1-3.6z"/><path stroke-linecap="round" stroke-linejoin="round" d="M3.5 16.2c.7 1 1.3-.9 1.3-1.3l-.3-3.3c-.1-.8-2.1-.6-2.4 0-.6 1.5-1.1 5.1 1.2 4.8.1-1.4.1-1.9 0-3.3.1.7-.1 2.8.2 3.1z"/></g><g fill-rule="evenodd" clip-rule="evenodd" fill="#415AB7" stroke="#000" stroke-width=".5" stroke-miterlimit="10"><path d="M-22.1 18c-.3.1-.7.1-1 .1.2.3.8.1 1-.1-.2.1-.8.4-1 .1.5.1 1.5 0 1.8-.6.2-.4-2.1-.1-2.4.6-.6 1.2 1.1 3 2 3.8 2.1 2.2 2.6-3.2 4.5-3.5 1-.2 2.7.7 3.5-.1 1-.9-.6-3-1-3.9-.6-1.1-2.1-1.4-3-.4-.5.6-.4 1.4.6 1 .4-.2 1.2-1.2 1.2-1.2.2.8-2.8 1.8-3.3 2.4-.4.5-1.2.6-1.7.8-.5.3-.4.9-1.2 1-.3.1.1 0 0 0zM-16.4 22.4c.7-.6 1.9-1.3 2.1-2.3.1-.8-2.4-2.3-3.1-2.4-2.2-.1.9-6.6-3.5-4.4-.8.4-2.4 1.5-2.7 2.3-.4 1.1 2.6 2 3.2 2.5 1.4 1.2 1.2 2.3 1.1 3.9-.2 2.1 2 1.2 2.9.4zM-18.7 19.8c.8-.4 2.1-1.1 2-2.2-.1-1.1-1.2-2.4-2.4-1.8-.9.6-3 1.2-2.2 2.5.7 1 1.2 2.2 2.6 1.5.3-.2-.4.2 0 0z"/></g><g fill-rule="evenodd" clip-rule="evenodd" fill="#415AB7" stroke="#000" stroke-width=".5" stroke-miterlimit="10"><path stroke-linecap="round" stroke-linejoin="round" d="M32.2 20.3c-.1.3-.8 1.4-1.6 2.3-.7.8-1.4 1.3-1.7 1-.3-.4-.6-.8-.8-1.3l-.6-1s0-.1-.1-.1c0 0-.1-.1-.1-.2l-.2-.3c-.3-.4-.6-.8-1-1-.1 0-.2-.1-.2-.1-.2-.1-.3-.2-.5-.2-.2-.1-.4-.1-.6-.1-.3 0-.6 0-.9.1h-.2c-.1 0-.2 0-.3.1-2.8.5-1.3-3.2-.1-4.5 0 0 .1-.1.2-.1.9-.8 2.6-.6 3 .7.2.8-.7.5-1.4.1l-.2-.1c-.7-.2-.9-.4-.9-.6 0 .2 0 .3.1.4l.4.4c.1.1.2.1.2.1.3.2.7.4 1 .5.2.1.3.2.5.2.5.2.9.4 1 .6l.7.4c.1 0 .2.1.2.1.5.2 1 .3 1 .5s0 .3.2.4l.1.1c.1.1.1.1.2.1.1.1.2.1.3.1.1 0 .1 0 .2.1.2.1.8.4 1 .1-.5 0-.4.1-1-.1-.1 0-.1 0-.1-.1.1.1 0 .1-.1 0l-.2-.1-.1-.1h1.3c.3 0 .6 0 .8.1.3.1.5.3.6.6v.1c0 .2 0 .5-.1.8z"/><path d="M24 23.2c.7.5 2.5 2.1 3.3 1 .8-1-.4-2.6.3-3.7 1.1-1.7 2.7-1.7 4.1-2.8 1.1-.9-1-2.2-1.6-2.7-3.4-2.6-3.3.5-4 3.1-.2 1-1.6 1.4-2.5 1.8-2.1 1-1 2.2.4 3.3zM25.4 20.4c1.6 2.4 4.7-.4 4-2.5-.2-.6-2-1.7-2.7-1.4-.8.3-1.9 3.1-1.3 3.9.2.3-.3-.4 0 0z"/></g><path fill="#1A171B" d="M8.2 44.2l-.3.4c1.3 1-.1 2.6-.2 4.2-.1 2.5 1.9 3.9 4.2 3.1-.4-1-3 .3-3.6-1.9-.5-2.2 1.9-4.4-.1-5.8zM6.5 43.9c-.4.2-2 .7-1.2 1.7.3-.9.8-.4 1.4-.8 1.3.3.6-.6-.2-.9z"/><path fill-rule="evenodd" clip-rule="evenodd" fill="#4453C1" stroke="#000" stroke-width=".5" stroke-miterlimit="10" d="M3.5 49.4c0-1-1.7-1-1.7 0s1.7 1.1 1.7 0zM10.3 49.3c0-1-1.7-1-1.7 0 0 1.1 1.7 1.1 1.7 0z"/><path fill="#1A171B" d="M4.9 48.8c-1.3 2-2.3.9-4.2.3-.9 2.2 6.2 1.6 4.2-.3zM8.2 49c-.9 1.6 2.5 1.5 3.3.8-.3-.7-.4-.1-1.1.1-1.1.3-1.4-.4-2.2-.9z"/><path fill-rule="evenodd" clip-rule="evenodd" fill="#A0303B" d="M8.1 40.1c-2-1-2.4 1.3-4 1.3v.2c.8-.2 2.9 1.6 3.4.3.3 1.1 1.3 0 1.8-.2-.1-.5-.7-1.3-1.2-1.6-.5-.2.3.2 0 0z"/><path fill="#1A171B" d="M.4 50.7l-.3.2c.8 1.4 4.8 1.9 4.8.3-1.6.4-3.5 1.3-4.5-.5z"/><path fill-rule="evenodd" clip-rule="evenodd" fill="#1A171B" d="M2.1 51.8c.4.7 4 .1 3-1.1-.5.8-2.1 1.1-3 1.1.2.3.5 0 0 0z"/><path fill-rule="evenodd" clip-rule="evenodd" fill="#563722" stroke="#000" stroke-width=".5" stroke-miterlimit="10" d="M5.8 58.6c-1.2-.8-2.5-.4-3.6-1.1-1.3-.8-1.2-2.1-1.3-3.5-.2-2.2-2.2-2.5-2.8-4.3-.8-1.9-2.8-4.4-5-3.1-1.6.9-1.3 3-1.2 4.5.2 2.5 3.4 2.7 3.8 4.9.4 2 1.8 4 3.9 4.5 2.6.6 4.7 1.4 7.3.2 1-.4 1.8-.9 2.7-1.5.4-.2 1.2-2 1.5-2-1.7-.1-4.1 2.1-5.3 1.4-.5-.3.1 0 0 0zM-2 46.4c1.8-6.3-7.8-7.8-9.5-2-1.8 6.2 7.8 7.7 9.5 2z"/><path stroke="#000" stroke-width=".5" stroke-linecap="round" stroke-miterlimit="10" d="M-6.2 44.3s-2.2 1.3-1.1-.4c.5-.8 1.9-.1 1.7.6-1.2 4-5.6-1.7-.9-1.9.7 0 3.7.8 2 3.6-3 4.8-7-1.4-5.6-3.2 1.4-1.9 5-1.3 5.9-.5 1.3 1.1 3.4 4.2-.9 6.2-4.9 2.3-5.9-3.3-5.9-3.3" fill="none"/><path fill="#00911B" d="M-20.5 24.2c-4.5 0-9.2 4.8-12.5 7.5.7 1.7 3.9-2 4.9-2.7 1.5-1.1 3.1-2.1 4.7-3 1.2-.6 4.2-.3 4.2-1.6-.4-.1-.9-.2-1.3-.2z"/><path fill-rule="evenodd" clip-rule="evenodd" fill="#00911B" stroke="#005E0D" stroke-width=".5" stroke-linecap="round" stroke-linejoin="round" stroke-miterlimit="10" d="M-30.6 31.2c2.2 1.4 4.6 2.5 7.2 2.8 1 .1 2.4.3 3.2-.4.7-.6 1.1-1.5 2-1.8-1 .4-2.1-.3-3.1.2-1.1.5-1.8 1.1-3 .9-1.8-2.3-5.8-1.7-8-3.1.7.2 1.1.9 1.7 1.4 1.3.8-.2-.2 0 0z"/><path fill-rule="evenodd" clip-rule="evenodd" fill="#EFE059" stroke="#8E8429" stroke-width=".5" stroke-miterlimit="10" d="M-37.7 33.1l.6-.4c.1.6.4 1.1.7 1.6-.4-.1-1.9-.5-1.3-1.2zm.5-.8c-.3-.2-.8-.5-1-.8-.9-1 .4-.9 1-.6v1.4zm1.7 3.9c-1 .2-1-1-.6-1.6.3.5.8.9 1.3 1.3-.3.1-.5.2-.7.3zm4.7-2.4c.1.2 2.9 3.5.1 1.7 0 .4 1.2 1.8.9 2.1-.2.4-1.5-.8-1.6-1l-.2.1c.2.4.7 2.5-.3 1.4-.5-.3-.7-1-1.1-1.4.1.7-.2 1.2-.8 1.1-.4-.4-.6-1.1-.6-1.7.2.1.4.2.7.3.8.2 1.5.1 2.2 0h.1c-.1-.3 0-.9.4-.9.1 0 .2 0 .3.1-.3-1.4-.2-2.5-1.1-3.5l-.6-.6c-.7-.5-.8-1.2-1.9-1.5h-.4c-.6 0-1.5.2-1.9.9-.2-.2-1.3-1.5-.9-1.8.2-.4 1.5.8 1.7 1 0 0 .1-.1.2-.1-1.5-3.2.9-.5 1.5 0-.1-1.9 1.1-.9 1.4.2.2.9.4.4.9.2.2-.1.4-.1.7.1l.1.1c.2.2.2.5.1.8l-.1.6c0 .2 0 .3.1.4.7-.4 1.7 1.2.1 1.4z"/><path fill-rule="evenodd" clip-rule="evenodd" fill="#BCBC33" stroke="#8E8429" stroke-miterlimit="10" d="M-33.4 36.6c4.1.9 1.3-6.1-1.6-6.8-4.1-.9-1.2 6.2 1.6 6.8.9.2-.8-.2 0 0z"/><path fill-rule="evenodd" clip-rule="evenodd" fill="#BCBC33" stroke="#000" stroke-width=".5" stroke-linecap="round" stroke-linejoin="round" stroke-miterlimit="10" d="M-23.2 28c1.4.3 1.7 1.1.2 1.5-.4.1-.9 0-1.4 0h-.2c0 .1.1.2 0 .2 0 .1-.1.2-.2.2-.3.2-.7.4-.9.4-.5.1-1 .6-1.6.8h-.5l-.9-.3c-.2-.1-.4-.2-.6-.2-.2-.1-.3-.1-.5-.1 0 0 0 .1.1.2 0 0 0 .1.1.1.3.4 1 .7 1.3 1 0 0 .1 0 .1.1h.1c.3.3.7.8.9 1.2.2.4.2.9-.3 1.2-.9-1.1-2.5-1.8-3.7-2.7-.1 0-.1-.1-.2-.2l-.2-.1-.5-.5c-.2-.2-.3-.3-.4-.5-.7-1-.8-2.1-.8-3.7 0-2.2.9-3.5 2.1-5.1.4-.6.7-1.2 1.1-1.9.4-.7.7-1.4 1.2-2-.5-.2-1-.7-.4-1.1 0 0 .1 0 .1-.1.3 0 .6-.1.9-.2h.5-.2-.2c-.4 0-.7.2-1 .3-.8-.1-.4-1.1-.1-1.4h.2s.1 0 .1-.1c.2-.1.4-.2.6-.4.1-.1.3-.2.4-.2h.1-.1l-.4.1c-.3.1-.5.2-.7.4-.1.1-.2.1-.2.2-.6.1-.7-.5-.7-1.1 0-.4.1-.9.1-1.1-.2-1.3-.8-2.5-1.4-3.6-.2-.5-.4-1-.5-1.4-.2-1.1-.1-2.1.6-2.8l.2-.2c.1-.1.3-.2.5-.3.4-.2.9-.4 1.5-.5h.1c.3-.1.7-.1 1-.1h.1c.9-.1 1.8-.1 2.7 0h.2c.1 0 .2 0 .3.1.2.1.3.2.4.3.2 0 .2.3.2.6 0 .4-.1.9-.1 1.4v2.6c0 .5 0 1.1.1 1.7 0 .1.1.3.1.7l.2 1c0 .2 0 .3.1.4v.9c0 .1-.1.2-.2.2.2.6.3.8.3 1.5v.7c-.1.3-.4.3-.5.7.3.3.5.8.7 1.2.1.2.2.5.2.7l.2.8.1.9v.3c0 .6-.1 1.1-.2 1.7 0 .1 0 .1-.1.2l-.5 1.5-.3 1.2c-.1.5-.2 1-.2 1.4-.3.7 0 1.3.9 1.3z"/><path fill="#231F20" d="M-30.7 25.8c-.7.3-.4 1.1-.4 1.8.1.9-.4 1.9.5 2.5.5.3 1.2 1 1.5.3-1.3-.9-1.3-.7-1.5-2.2 0-.6.1-1.9-.1-2.4zM-28.9 25.5c-.7.4-.3 2.1-.1 3 .2.8 2.6 2.5 3 1.6-.6-.4-2-.7-2.4-1.3-.6-1 0-2.3-.5-3.3zM-26.5 25.2c-.9 0-.5 1.6-.4 2.3.2.9 1.6 1.9 2.4 2.2.3-.7-.9-1.1-1.5-1.5-.8-.7-.5-2.1-.5-3z"/><path fill-rule="evenodd" clip-rule="evenodd" fill="#EFE4CA" stroke="#CEB47C" stroke-width=".5" stroke-miterlimit="10" d="M-24.6 5v-1.1c-.1-.6-.2-1.4-.3-2.1-.1-.5-.3-1-.5-1.4l-.1-.3h-8.9c.2.7.6 1.5.8 2 .3.6.5 1.1.8 1.5.3.5.7.9 1.1 1.1.2.1.3.2.5.2h.1c.2.1.5.1.8.1.5 0 1 0 1.6-.1h1.1c1-.1 3-.1 3 .1z"/><path fill-rule="evenodd" clip-rule="evenodd" fill="#fff" stroke="#000" stroke-width=".5" stroke-miterlimit="10" d="M-24.5 1.9c-.7-.4-1.3.4-1.9-.2-.6-.5-2.5-.8-2.3.5-.3-.2-3.4-.8-2.5.3-1-.4-.6.8-.4 1.2-1.4-.3-1.7-.1-2.3 1.2-.5 1.2 2.1.6 1.5 1.8 0-.1-.1-.2-.1-.4.2 1.3-.9 2.1.8 2.7l-.2-1.4c1 .4 1.2-1.2 1.9-1.4.6-.2 2.1-.4 2.7-.3.3.1.6 0 .8-.2.4-.5 1.1.4 1.5.4.3.1-1-1.5.6 0 .5.5.6 1.3 1.2 1.6.1-.7-.2-1.4-.3-2-.1-.8.2-.5.7-1 .7-1-.7-2.3-1.7-2.8-.3-.1.1.1 0 0z"/><path fill="#1A171B" d="M-27.2 3.5c-2 0-5.2.6-5.6 3 .8 0 .5-.5 1.1-1.1.7-.7 1.8-1.1 2.8-1.3 1.1-.2 2.3-.2 3.5.1.8.2 1.1 1.1 1.7.8-.5-1.4-2.3-1.5-3.5-1.5z"/><path fill-rule="evenodd" clip-rule="evenodd" fill="#1A171B" d="M14.5 9.3c.2 0-.4-1.1-.4-1 0-.1-.9.8-.7.8-.1 0 .4 1.1.4 1-.1.1.9-.8.7-.8zM-18.5 12.9c0 .1.4-1.1.2-1.1.1 0-.9-.8-.9-.7 0-.1-.4 1.1-.2 1.1-.1.1.9.8.9.7zM-22.7 14.3c0 .1.4-1.1.2-1.1.1 0-.9-.8-.9-.7 0-.1-.4 1.1-.2 1.1-.1.1 1 .8.9.7z"/></symbol><symbol viewBox="-7 -7.5 14.1 14.9"><path fill-rule="evenodd" clip-rule="evenodd" fill="#008C00" d="M5.9-2.9c-.8-.7-1.7-1-2.8-1-.9 0-1.7.3-2.4.9h-.1c.1-1.9.5-3.2 1.2-4.1.1-.1.1-.1 0-.2 0-.1-.1-.1-.2-.1-.6.1-1.1.1-1.6.1s-1-.1-1.7-.2c-.1 0-.2 0-.2.1-.1.1-.1.1 0 .2.7.8 1.1 2.2 1.3 4.1h-.1c-.7-.6-1.5-.9-2.4-.9-1.1 0-2 .4-2.8 1.1-.7.7-1.1 1.5-1.1 2.5 0 1.3.8 2.6 2.5 4.1.9.8 2.4 2 4.3 3.6 0 .1.1.2.2.2s.2 0 .3-.1c.8-.8 2.2-2 4.3-3.6 1.6-1.5 2.4-2.9 2.4-4.2 0-1-.4-1.8-1.1-2.5z"/></symbol><symbol viewBox="-6.9 -6.4 13.9 12.9"><path fill-rule="evenodd" clip-rule="evenodd" fill="#D52222" d="M0 4.1c.2.7.5 1.2 1.1 1.7.6.5 1.3.7 2.1.7 1 0 1.9-.3 2.7-1 .7-.7 1.1-1.6 1.1-2.6 0-1.6-.8-3.2-2.4-5-.1-.2-1.6-1.6-4.4-4.2 0-.1-.1-.1-.2-.1s-.2 0-.2.1c-2.8 2.6-4.3 4-4.3 4.1-1.6 1.8-2.4 3.5-2.4 5 0 1 .4 1.8 1.1 2.6.7.7 1.6 1 2.7 1 .8 0 1.4-.2 2-.7.6-.4.9-1 1.1-1.6z"/></symbol><symbol id="b" viewBox="-50 -75 100 150"><path fill="#F0F7E6" d="M-43.9-75c-3.1 0-6.1 3-6.1 6.1v137.8c0 3.1 3 5.1 6.1 5.1h87.8c3.1 0 5.1-2 5.1-5.1v-137.8c0-3.1-2-6.1-5.1-6.1h-87.8z"/><path d="M43.9 74c2.8 0 5.1-2.3 5.1-5.1v-137.8c0-2.8-2.3-5.1-5.1-5.1h-87.8c-2.8 0-5.1 2.3-5.1 5.1v137.8c0 2.8 2.3 5.1 5.1 5.1h87.8m0 1h-87.8c-3.4 0-6.1-2.7-6.1-6.1v-137.8c0-3.4 2.7-6.1 6.1-6.1h87.8c3.4 0 6.1 2.7 6.1 6.1v137.8c0 3.4-2.7 6.1-6.1 6.1z"/></symbol><symbol id="d" viewBox="-2.8 -6 5.6 12"><path fill-rule="evenodd" clip-rule="evenodd" d="M-.3 4.4h-.7v-8.8h.8c.5 0 .8.1 1.1.4.1.2.2.6.2 1.1v5.8c0 .5-.1.9-.3 1.1-.2.3-.6.4-1.1.4zm2.3.8c.5-.6.8-1.3.8-2.3v-5.7c0-1.1-.3-1.9-.8-2.5-.6-.4-1.4-.7-2.4-.7h-2.4v12h2.6c1 0 1.7-.3 2.2-.8z"/></symbol><symbol id="f" viewBox="-41 -66 82 132"><g fill-rule="evenodd" clip-rule="evenodd" fill="#1A171B"><path d="M-40-41h-1v82h1zM41-41h-1v82h1zM34 66h-68v-1h68zM34-65h-68v-1h68z"/></g><path stroke="#1A171B" stroke-miterlimit="10" fill="none" d="M-40.5 0h81"/></symbol><symbol viewBox="-7.6 -7.6 15.2 15.2"><path fill-rule="evenodd" clip-rule="evenodd" fill="#FFA001" d="M7.4-.3c-1.4-.9-2.7-2-3.9-3.2-1.2-1.2-2.3-2.5-3.2-3.9 0-.1-.2-.2-.3-.2-.1 0-.2.1-.3.2-.9 1.4-2 2.7-3.2 3.9-1.2 1.2-2.5 2.3-3.9 3.2-.1.1-.2.2-.2.3 0 .1.1.3.2.3 1.4.9 2.7 2 3.9 3.2 1.2 1.2 2.3 2.5 3.2 3.9.1.1.2.2.3.2.1 0 .3-.1.3-.2.9-1.4 2-2.7 3.2-3.9 1.2-1.2 2.5-2.3 3.9-3.2.1 0 .2-.2.2-.3 0-.1-.1-.2-.2-.3z"/></symbol><use xlink:href="#b" width="100" height="150" x="-50" y="-75" transform="matrix(1 0 0 -1 50 75)" overflow="visible"/><g><g><use xlink:href="#c" width="9.5" height="9.5" x="-4.8" y="-4.8" transform="matrix(-1 0 0 1 89.5 122.5)" overflow="visible"/><use xlink:href="#c" width="9.5" height="9.5" x="-4.8" y="-4.8" transform="matrix(-1 0 0 1 10.5 122.5)" overflow="visible"/><use xlink:href="#c" width="9.5" height="9.5" x="-4.8" y="-4.8" transform="matrix(1 0 0 -1 89.5 27.5)" overflow="visible"/><use xlink:href="#c" width="9.5" height="9.5" x="-4.8" y="-4.8" transform="matrix(1 0 0 -1 10.5 27.5)" overflow="visible"/><use xlink:href="#d" width="5.6" height="12" x="-2.8" y="-6" transform="matrix(-1 0 0 1 90 136)" overflow="visible"/><use xlink:href="#d" width="5.6" height="12" x="-2.8" y="-6" transform="matrix(-1 0 0 1 10 136)" overflow="visible"/><use xlink:href="#d" width="5.6" height="12" x="-2.8" y="-6" transform="matrix(1 0 0 -1 90 14)" overflow="visible"/><use xlink:href="#d" width="5.6" height="12" x="-2.8" y="-6" transform="matrix(1 0 0 -1 10 14)" overflow="visible"/><use xlink:href="#e" width="81" height="66.3" x="-40.5" y="-.5" transform="matrix(-1 0 0 1 50 75)" overflow="visible"/><use xlink:href="#e" width="81" height="66.3" x="-40.5" y="-.5" transform="matrix(1 0 0 -1 50 75)" overflow="visible"/><use xlink:href="#f" width="82" height="132" x="-41" y="-66" transform="matrix(1 0 0 -1 50 75)" overflow="visible"/><use xlink:href="#a" width="14.6" height="14.6" x="-7.3" y="-7.3" transform="matrix(-1 0 0 1 77 128.5)" overflow="visible"/><use xlink:href="#a" width="14.6" height="14.6" x="-7.3" y="-7.3" transform="matrix(1 0 0 -1 23 21.5)" overflow="visible"/></g></g></svg>