<svg xmlns="http://www.w3.org/2000/svg" xmlns:xlink="http://www.w3.org/1999/xlink" viewBox="0 0 100 150" enable-background="new 0 0 100 150"><symbol viewBox="-7.3 -7.3 14.6 14.6"><path fill-rule="evenodd" clip-rule="evenodd" d="M1.7 2.6c-.7-.8-1-1.4-1.1-2 .6.1 1.3.4 2 1.1.7.6 1.4.9 2.1.9.7 0 1.3-.3 1.9-.8.5-.5.7-1.1.7-1.8s-.3-1.3-.8-1.9c-.5-.4-1.1-.7-1.8-.7s-1.4.3-2.1 1c-.8.7-1.4 1-2 1.1 0-1.4 0-2.5.1-3.3.2-1.5.6-2.5 1.1-3.2.1-.1.1-.1 0-.2 0-.1-.1-.1-.2-.1-.6.1-1.1.2-1.6.2s-1-.1-1.7-.2c-.1 0-.1 0-.2.1s-.1.1 0 .2c.6.7.9 1.7 1.1 3.1.1.9.2 2 .2 3.3-.5 0-1.2-.4-2-1-.7-.7-1.4-1-2.1-1-.7 0-1.3.3-1.9.8-.5.5-.7 1.1-.7 1.8s.3 1.3.8 1.8c.5.6 1.1.8 1.8.8s1.4-.3 2.1-.9c.8-.7 1.4-1 2-1.1-.1.6-.4 1.3-1.1 2-.6.8-.9 1.4-.9 2.1 0 .7.3 1.3.8 1.9.5.5 1.1.7 1.8.7s1.3-.3 1.9-.8c.4-.5.7-1.1.7-1.8s-.3-1.3-.9-2.1z"/></symbol><symbol id="a" viewBox="-7 -7.5 14.1 14.9"><path fill-rule="evenodd" clip-rule="evenodd" fill="#008C00" d="M5.9-2.9c-.8-.7-1.7-1-2.8-1-.9 0-1.7.3-2.4.9h-.1c.1-1.9.5-3.2 1.2-4.1.1-.1.1-.1 0-.2 0-.1-.1-.1-.2-.1-.6.1-1.1.1-1.6.1s-1-.1-1.7-.2c-.1 0-.2 0-.2.1-.1.1-.1.1 0 .2.7.8 1.1 2.2 1.3 4.1h-.1c-.7-.6-1.5-.9-2.4-.9-1.1 0-2 .4-2.8 1.1-.7.7-1.1 1.5-1.1 2.5 0 1.3.8 2.6 2.5 4.1.9.8 2.4 2 4.3 3.6 0 .1.1.2.2.2s.2 0 .3-.1c.8-.8 2.2-2 4.3-3.6 1.6-1.5 2.4-2.9 2.4-4.2 0-1-.4-1.8-1.1-2.5z"/></symbol><symbol id="c" viewBox="-4.6 -4.8 9.1 9.7"><use xlink:href="#a" width="14.1" height="14.9" x="-7" y="-7.5" transform="scale(.65)" overflow="visible"/></symbol><symbol id="e" viewBox="-40.2 -0.7 80.6 66"><g><path fill-rule="evenodd" clip-rule="evenodd" fill="#E4E7EA" stroke="#9191A3" stroke-width=".75" stroke-miterlimit="10" d="M40 8.7v-8.7h-22.7c-.2.1-.4.1-.4.2-.1.2-.2.4-.2.6-.4 1-.8 2-1.2 3.1-3 7.9-6 15.8-8.9 23.8-.9 2.3-1.8 4.7-2.6 7-.4 1.1-.7 1.4-.3 2.5l6.6 14.7c1.5-4.5 2.5-9 4.5-13.3 3-6.2 7.1-12 11.7-17.2 2-2.3 4.2-4.5 6.5-6.6.2-.2.3-.3.5-.4l.1-.1c2-2 4.1-4.1 6.4-5.6z"/><path fill="#9191A3" d="M40 6.5v-.4c-2.4 2.3-4.6 4.8-6.6 7.5-.1.1-.2.2-.3.4l-.4.6c.1.1.2.1.3.1.2 0 .3-.2.5-.4.2-.3.3-.6.5-.8l1.5-2c1-1.3 2.1-2.6 3.2-3.8l1.3-1.2zM40 4v-.6c-.3.4-.6.7-1 1.1-2.5 2.8-4.7 6-6.2 9.4.1.1.2.1.3 0 .1-.1.2-.2.3-.4l.3-.7 1.3-2.4c1.1-1.7 2.3-3.4 3.6-4.9l1.4-1.5zM16 32.5c-.4-.1-.3.1-.4.4-.1.5-.7.8-1 1.2-.4.6.1 1.3-.4 1.8-.8.4-1.4.7-1.3 1.7 0 .2.5.5.1.7-.3.2-.7.2-.9.6-.2.7.6.9 0 1.7-.6.8-.2 1.7-.5 2.6-.5 1.5-2 2.6-1.7 4.3.4 0 .5-1.5.8-2 .3-.6.6-1.1 1-1.7.5-.8.2-1.6.5-2.4.2-.7 1-1 .6-1.8-.5-1 .3-.3.7-1.1.4-.6-.6-1.2.1-1.7s1.5-.6 1.4-1.6c-.3-1.2 1.2-1.5 1-2.7zM12 33.3c-1.4 1.4-1.7 3.5-2.3 5.3-.1.4-.3.8-.4 1.3-.1.6-.9 2.2-.5 2.4.8-.9.8-2.5 1.2-3.6.3-1 .5-2 .9-3 .2-.6.5-1.1.8-1.6.3-.3.8-.6.3-.8zM14.2 31.8c-.2 2.7-2.2 4.7-3.3 7-.3.5-.3 1.2-.5 1.7-.1.5-.2 1.1-.5 1.6-.2.4-.7.6-.3 1 1.3-1.1 1.1-3.3 1.9-4.8 1.1-2.1 2.8-4 3-6.5h-.3z"/><path fill-rule="evenodd" clip-rule="evenodd" fill="#0D8F54" stroke="#0A5E38" stroke-width=".5" stroke-miterlimit="10" d="M24.5 0h-64.5v3.7l.7.7c1.1 1.2 1.9 2.8 2.8 4.1 2.2 3.2 5.1 5.9 8.4 7.9 2 1.2 4.1 2.1 6.3 2.8 2 .6 4.2 1.6 6.4 1 .1 0 .2 0 .3-.1.1-.7.6-1.2.8-1.9.3-1.1.1-2-.3-3.1-.6-1.5-1-2.6 0-4 1.8-2.4 4.6-4.2 7-5.9 1.6-1 3.1-2.2 5-2.5 1.4-.2 2.8.3 4.1.7 3.2.9 6.5 1.2 9.7 2 2.8.6 5.3 2.4 7.8 3.9 3.8 2.3 4.2-2.4 4.7-5 .3-1.3.8-2.9.8-4.3z"/><path fill="#095B34" d="M-33.9-.7l-1.1.5c1.1 2.6 2.1 5.2 3.4 7.6 1.3 2.4 2.8 5.1 5.2 6.6.2-.3.4-.6.6-1 0 0-1.4-1.2-1.5-1.4-1-1.1-1.8-2.4-2.5-3.7-1.7-2.7-2.9-5.6-4.1-8.6z"/><path fill-rule="evenodd" clip-rule="evenodd" fill="#F8E8C1" d="M7.2 33c1.9-.2 3.8-.8 5.6-1.5 1.4-.5 2.4-1.6 3.8-2 1.4-.4 3.3-.7 4.3-1.9s1.3-3 1-4.5c-.3-1.5-.3-3.1-.9-4.5-.7-1.5-1.8-2.7-3.1-3.6-2.8-2-6.3-3-9.6-3.8-4.1-1.1-8.2-1.2-12.3.3-3.1 1.2-6.4 3.3-6.9 6.8-.5 3.7 1.5 7.6 4.2 10 2.8 2.5 6.2 4.8 10 4.8 1.4.1 2.7 0 3.9-.1 1-.1-.5 0 0 0z"/><path fill-rule="evenodd" clip-rule="evenodd" fill="#BB1920" stroke="#871A20" stroke-width=".5" stroke-miterlimit="10" d="M36.9 0h-14.8c-.8 1.7-1.3 3.7-1.9 5.1-.6 1.4-1.6 2.8-3.1 3.5-1.6.7-3.3-.6-4.6-1.5-2.7-1.7-4.8-4.6-7.8-5.8-1.5-.6-3.2-.2-4.2 1.2-.3.5-.4 1.2-.7 1.9-.2.8-.7 1.6-1.1 2.3-1.6 3.1 2.1 6.1 4.6 7.3 1.6.8 3.3 1.3 4.8 2.3 1.6 1 2.4 2.6 3.5 4.1 2.1 3.1 5.8 4.4 9.4 5 1.4.2 2.9.5 4.3.1 1.5-.4 2.4-2 3.6-2.9 1.5-1.1 1.6-2.4 2.5-3.9.8-1.5 1.7-2.3 1.7-4.1 0-1.5-.1-2.7.7-4 .8-1.5 1.2-2.5 1.2-4.3 0-1.2.6-2.7 1.1-3.8.5-1 1-1.8.8-2.5z"/><path fill="#871A20" d="M36.6-.4c-1.5 1.6-3 3.2-4.8 4.5-1.8 1.2-3.8 1.8-6 2.4-2.1.5-4.1 1-5.8 2.4-.7.5-1.3 1.1-1.9 1.7 0 .1 1 1 .7 1 .9-.2 2.1.4 2.9.6 1.3.3 2.8-.3 4-.6 3.1-.6 6.9-.7 8.7-3.7-.3-.2-.6-.3-.8-.5-.4-.2-.8.7-1.2.9-1.3 1-3 1.5-4.5 1.7-1.5.3-3 .5-4.6.8-1.3.2-2.2-.1-3.4-.3 2.6-2.4 5.7-2.6 8.9-3.6 3.5-1.1 6.1-3.8 8.5-6.4-.1-.3-.4-.6-.7-.9z"/><path fill-rule="evenodd" clip-rule="evenodd" fill="#E4E7EA" stroke="#4B4B56" stroke-width=".5" stroke-miterlimit="10" d="M38.6 16.7c-.2-.2-1.1-1.2-1.1-1.2-.6-.2-1.3-.1-1.9-.1-.8 0 .1-1-.8-.9-.8.1-1.1-.3-1.5-.9-.3-.4-.9-1-1.1-.1-.2.8-1.2.2-1.5-.1-.3-.4 0-1.2-.5-1.4-.7-.5-3.9 1-3.2-1 .2-.5.7-.9-.3-1.1-.7-.2-1.6.2-2.2.4-.4.1-1.4.5-1.3-.3 0-.6 1-1 .3-1.6-.4-.3-1.1-.3-1.4 0-.4.4.1.5-.7.5-.4 0-.7-.1-1-.2-.7-.4-.2-1.2.3-1.5.3-.3-1.6-1-1.7-1-.8-.2-.6.5-1.2.6-.5.1-1.8.2-1.9-.5-.2-.6.9-1 1-1.5.2-.7-1.4-.7-1.7-.6-.6.1-.5.9-1.1.8-.5 0-1.8-.6-1.5-1.2.2-.5 1.1-.8 1.1-1.3.1-.5-1.1-.9-1.5-.9-.5 0-.9.5-1.4.7-.9.2-1.5-.6-.8-1.2.5-.4.6-.8.5-1.1h-7.4v1.7c0 .7-.1 1.1.4 1.5l4.1 3.9c4.8 4.4 9.8 8.9 15.2 12.6 1.5 1 3 2 4.6 2.6.5.2 1 .3 1.5.3.5-.1 1.1-1.1 1.5-1.5 1.1-1.1 1.7-1.5 3.1-2.1 1.7-.7 3.3-1.8 5-2.3h.1zM13.4 20c-.2-.7.9-.9 1-1.4.2-.6-.6-1.1-1.1-.7-.4.5-.8 1.4-1.6.5-.6-.7.9-1 .6-1.6-.8-1.3-1.9 1.1-2.7.4-.6-.7-.2-1.2.3-1.6.7-.7-.5-1.2-1-1.2s-.4.9-.8 1c-.5.1-1.5-.2-1.4-.9.1-.7 1.1-1 .9-1.8-1-.4-1.5.8-2.4.8-.9 0-.5-1-.1-1.4.4-.5.1-1.3-.7-1.2-.7.1-.8 1.2-1.7.8-1.6-.7 0-1.7-.4-2.2-.5-.7-1-.1-1.5.1-.9.3-1.3-.5-1.9.5-.6.9-1.1 1.9-1.8 2.8-.4.5 5.5 5.4 6.2 6 3.1 2.7 6.2 5.3 9.5 7.8 1.3 1 2.6 2.2 4.1 2.9 1.6.8 3.5 0 5-.6 1.4-.5 2.6-1.4 4-2.2 1.1-.7 3.4-1.1 1-2.1-.6-.3-1.2-.5-1.8-.1-.5.3-1.2 1.1-1.9.7-.8-.4.8-1.2.6-1.6-.2-.5-1.4-1.2-1.9-1-.9.2-1.5 3.2-2.4.8-.2-.7 0-1.3-.1-1.9-.2-1.2-1.2.3-1.5.5-.4.4-1.3.3-1.4-.4-.1-.6.7-1.6-.1-2-1.1-.6-.9.5-1.2 1-.3.4-1.7-.2-1.8-.7-.1-.3 0 .2 0 0z"/><path fill-rule="evenodd" clip-rule="evenodd" fill="#E4E7EA" stroke="#4B4B56" stroke-width=".75" stroke-miterlimit="10" d="M14.4 32.3c1 .2 3.1 1.9 3.5.3.3-1.3.2-3.7-1.7-3.7 0-.9-.8-1.1-1.5-1.3-.9-.2-1.3-.3-1.8-1-.3-.3-.5-.6-.9-.8-.6-.3-.6-.1-.8-.7-.2-.4-.6-.9-1.1-1-.5-.2-1.2-.2-1.4-.8-.2-.7-.9-1.1-1.6-1.3-.4-.1-.7-.1-.8-.5-.1-.3-.3-.5-.5-.6-.4-.2-1.6-.2-1.6-.9.1-.6-.6-1-1.1-1.2-.3-.1-.7-.1-.9-.3-.2-.1-.1-.5-.3-.8-.4-.6-1.4-.4-1.6-1-.3-.7-.5-1.5-1.5-1.6.2 0-.2-.6-.2-.6-.4-.6-1-1-1.7-1.1-1.3-.3-2 1.5-1.5 2.5.5 1.1 1.4 1.1 2.3 1.7.9.5 1.1 1.9 2.5 1.9v-.2c.4.5.2 1.1.6 1.5.5.5 1.4 1.2 2 1.6v-.7c.4.1.8 1.2 1.1 1.5.7.6 1.5 1 2.2 1.5v-.7c.5.3 1.2.8 1.6 1.2.3.3 1.1 2.1 1.4 2.1 0-.2.1-.3.2-.5.6.3 1.1.9 1.6 1.4.2.3.5.6.7.8.5.6.6 0 1.2.3.4.2 1.6.8 1.7 1.3.1.5-1 1.3-1.3 1.7.2-.3 1.1-.1 1.2 0 .7.1-.6-.1 0 0z"/><path fill="#4B4B56" d="M15.8 20.9c-.6 0-1.2.8-1.7 1.1l-1.9 1.1c-.4.2-2 1.1-1.5 1.7.7-.5 1.2-1.2 2-1.6.7-.4 1.5-.7 2.1-1.2.1 0 1.3-1.1 1-1.1zM18.2 22.2c-.3 0-.9.6-1.1.8-.6.4-1.2.8-1.7 1.2-.5.4-1 .7-1.6 1-.4.2-1.6.6-1.2 1.1 1.3-.6 2.4-1.4 3.6-2.2l1.7-1.2c.1-.1.6-.7.3-.7zM20.7 24.3c-1 .8-2.4 1.2-3.6 1.7-.6.2-2.9.9-2.9 1.4.8.2 2.6-.8 3.3-1.2 1.1-.5 2.5-.8 3.4-1.7l-.2-.2zM24.9 25.6c-1.4.3-2.6 1.1-3.9 1.5-1.5.6-3.1.8-4.6 1.3.1.6.8.1 1.2 0l3.1-.8c.7-.2 1.3-.5 2-.8.6-.2 2.5-.6 2.2-1.2zM12.7 19c-.8.5-1.5 1.3-2.2 2-.4.4-.8.9-1.3 1.2-.2.2-1.1.3-.8.8 1.1-.2 2-1.3 2.7-2.1.4-.4 2-1.5 1.6-1.9zM10.7 17.8c-.7.7-1.4 1.2-2 1.9-.4.5-.9 1-1.4 1.3-.3.2-.9.3-.5.7 1.6-.7 3-2.5 4.3-3.7-.2 0-.3-.1-.4-.2zM8 15.8c-.9 1.6-2.6 2.6-3.6 4.2.5.4 1.3-1.1 1.7-1.5.8-.8 1.6-1.5 2.2-2.5-.1-.1-.2-.2-.3-.2zM4 12.9c-.7.2-.9 1.4-1.1 1.9-.2.6-.5 1.1-.7 1.6-.2.4-.8.9-.2 1.1.6-.8 1-1.8 1.4-2.7.1-.5.8-1.4.6-1.9zM1.1 11c-.1.7-.3 1.4-.5 2.2-.1.5-.9 2.1-.2 2.1.4-1.4.8-2.8 1.1-4.2-.1-.1-.3-.1-.4-.1zM6.8 13.1c-.9.4-1.4 1.5-1.9 2.3l-1.9 2.9c.4.4.7-.3.9-.7l1.3-2c.3-.5 1.9-2.1 1.6-2.5zM16.7 28.3c-.7.1-.5 1.9-.4 2.3.6-.1.3-.9.3-1.4.1-.4.2-.5.1-.9zM14.3 27.3c-.1 0-.2 0-.4.1.1.5.8 2 1.3 1.9-.1-.8-.7-1.3-.9-2zM12.3 26c-.1.4.1 1 .3 1.4.1.5-.4 1.2 0 1.4.5-.5.6-2.8-.3-2.8zM11.2 25.1c-.4.3 0 1.1.1 1.6.7 0 .1-1.3-.1-1.6zM8.9 23.1c-.1 0-.2.1-.4.1l.2.6c.1.5.3 2.2.8 2 0-1-.4-1.9-.6-2.7zM6 21.2c-.2.4-.3 2.5.4 2.3 0-.5.1-2.2-.4-2.3zM4.2 19.8c-.1.6-.4 2.3.2 2.4.1-.5.4-2.3-.2-2.4zM2 17.8c-.4.3-.1 2.3.4 2.3.1-.5 0-1.9-.4-2.3zM0 16c-.4.7 0 1.8.2 2.6.6 0 .2-.9.1-1.3s.2-1.2-.3-1.3zM-.8 15.1h-.4c0 .5-.1 2.2.5 2 0-.6-.1-1.3-.1-2zM31.7 13.7c-.7.2-1.1 1-1.5 1.5-.7.7-1.6 1.1-2.4 1.6l-2.2 1.8c-.9.5-1.9.9-2.9 1.3.4 1.2 4.7-2.4 5.3-2.8.8-.5 1.8-.9 2.5-1.7.4-.4 1.5-1.3 1.2-1.7zM37.7 16.3c-2.1.6-3.8 1.4-5.8 2.3-1.1.5-2.1 1.1-3.2 1.4-1.3.3-2.6.5-3.7 1.1.1.6 1-.1 1.4-.2l1.9-.5c1.4-.3 2.5-.9 3.8-1.5l2.7-1.4c.5-.2 1.1-.4 1.6-.5.3-.1 1.6-.1 1.3-.7zM35.2 15.6c-1 .1-1.8.6-2.7.9-1.1.4-2.1.8-3.1 1.4l-2.8 1.5c-.9.4-1.9.6-2.6 1.3.3.5.6 0 .9-.2.5-.3 1.1-.5 1.7-.7 1-.5 2-1 3.1-1.6 1-.5 2-1 3-1.3l1.7-.7c.3-.1.9 0 .8-.6zM30.2 21.1c-1.3 0-2.7.1-3.9.5 0 .6 1.1.1 1.5.1.5-.2 2.6 0 2.4-.6zM28.9 12.8c-.9 1.3-2.3 2.2-3.5 3.3l-1.8 1.6c-.4.3-1.8.9-1.4 1.3 1.3-.6 2.4-1.6 3.4-2.6 1.2-1.1 2.6-2.1 3.5-3.4 0-.1-.1-.1-.2-.2zM22.7 10c-.5 1.1-1.6 2.1-2.2 3.2-.6 1-1.2 1.9-1.7 2.9.6.6 1.7-2.1 2-2.6.6-1.2 1.8-2.2 2.3-3.4-.2 0-.3-.1-.4-.1zM26.2 11.4c-1.2 1-2 2.4-3.1 3.5-.5.4-3.4 2.1-2.8 2.7.6-.4 1-1 1.5-1.4.6-.4 1.3-.8 1.8-1.4.5-.5.9-1.1 1.3-1.6.4-.4 1.8-1.5 1.3-1.8zM19.9 8.2c-.6 0-.3.5-.4.9-.1.7-.5 1.4-.9 2.1-.6 1-1.8 1.9-2.3 3 .4.4.6-.3.9-.6l1.2-1.4c.8-1.2 1.6-2.6 1.5-4zM16 6.3c-.5 0-.9 1.7-1 2.3l-.5 1.7c-.2.5-.7.8-.9 1.4.9.5 2.5-4.5 2.4-5.4zM12.2 4.2c-.2.5-.1 1-.1 1.4 0 .6-.3 1.2-.4 1.8-.2.6-.8 2.6-.1 2.7l.6-3.1c.1-.4.7-2.7 0-2.8zM14.8 4.9c-.6 0-.3.5-.5 1-.2.7-.6 1.3-1 1.9-.6.9-1.5 1.8-1.7 2.9.5.2.4-.2.6-.5.3-.6.7-1.2 1.1-1.7.6-1.1 1.6-2.3 1.5-3.6zM18.2 6.5c-.4 1.3-.7 2.7-1.4 3.9-.3.6-2 1.8-1.7 2.4.8-.2 1.7-1.5 2-2.2.7-1.2 1-2.6 1.4-3.9l-.3-.2zM9.6 1.7c-.5.1-.2.5-.1.8.1.7.1 1.5-.1 2.3-.1 1-.5 2.1-.4 3.2.9.1 1-5.4.6-6.3zM6.5 0l.1.3c.2.7.5 1.2.5 1.9 0 .6 0 4.1.4 4.3.7-.8 0-3 0-4 0-.5-.2-1.6-.4-2.5h-.6z"/><path fill-rule="evenodd" clip-rule="evenodd" fill="#F1DD05" stroke="#000" stroke-width=".25" stroke-miterlimit="10" d="M30.4 20.9c0 .5-.1 1-.6 1.3l.2.1c-.3.4-.5.8-.8.2-.5-.1-1 0-1.4-.5-.4-.5-1-.3-1.4-.9-.4-.5-1.2-.5-1.6-1.3.1.3-.3 0 0 0-.4 0-.8-.2-1.1-.6-.4-.5-.6-.3-1.1-.7-.2-.2-.4-.4-.5-.7-.3 0-.6-.1-.8-.3-.5-.4-.4-.6-.9-.8-.4-.2-.7-.5-.9-.9-.8-.1-1.1-.8-1.7-1.1-.4-.2-.7-.5-.9-.9-.4 0-.8-.3-1.1-.7-.4-.6-1.2-.6-1.4-1.4-.8-.1-1-.9-1.7-1.2-.4-.2-.7-.5-.8-.9-.3 0-.6-.2-.8-.4-.5-.4-.3-.6-.9-.8-.4-.1-.7-.4-.8-.8-.8-.1-1-.9-1.6-1.2-.4-.2-.7-.6-.8-1-.5-.1-.9-.4-1.1-.7-.4-.6-1.2-.7-1.4-1.6-.4-.1-.8-.3-1-.7-.3-.5-.3-.3-.8-.7-.4-.3-.7-1-.5-1.6v-.1h.9c-.2.2-.3.6-.1 1l.3.3c.1-.5.5-.9 1-1 0-.1-.1-.2-.2-.2h.9c.2.3.5.2.8.6l.9.8c.4.2.7.6.8 1 .3 0 .5.1.7.3.5.4.3.6.8.8.4.2.7.5.8 1 .8.1 1 .9 1.6 1.2.4.2.7.5.8 1 .4.1.8.3 1 .7.5.5 1.3.5 1.6 1.4.8.1 1 .9 1.7 1.2.4.2.7.5.8.9.3 0 .5.1.8.3.5.4.3.6.9.8.4.2.7.5.8.9.8.1 1 .8 1.7 1.1.4.2.7.5.9.9.4 0 .8.3 1.1.6.4.5 1.1.6 1.4 1.3.4 0 .9.2 1.1.5.4.5.6.3 1 .6.5.3.4.5.9.7.3.1.5.2.7.4.4.4.8.3 1.3.7.4.4 1 .2 1.5.7-.6.7-.3.4-1 .4zm-25.3-20c-.1.5-.5.9-1 1.1.1.2.2.3.4.4.1-.5.5-.9 1-1 0-.2-.2-.4-.4-.5zm1.2 1.2c-.2.5-.6.8-1.1 1 .1.2.2.3.4.4.1-.5.5-.9 1-1 0-.2-.1-.3-.3-.4zm1.2 1.1c-.2.5-.5.9-1 1 .1.2.2.3.5.4.1-.5.5-.9 1-1.1l-.5-.3zm1.2 1c-.1.5-.5.9-1 1.1.1.2.3.4.5.4l.3-.6.1-.1c.2-.2.4-.3.6-.4l-.5-.4zm1.2 1.1c-.1.5-.5.9-1 1.1.1.2.3.4.5.4.1-.5.5-.9 1-1.1-.2-.2-.3-.3-.5-.4zm1.2 1.1c-.1.5-.5.9-1 1.1.1.2.2.3.5.4.1-.5.5-.9 1-1.1-.1-.2-.3-.3-.5-.4zm1.2 1.1c-.1.5-.5.9-1 1.1.1.2.2.3.5.4 0-.2.1-.4.3-.6v-.1c.1-.2.3-.3.6-.4 0-.2-.2-.3-.4-.4zm1.2 1c-.1.5-.4.9-.9 1.1.1.2.2.3.5.4.1-.5.4-.9.9-1-.1-.2-.2-.4-.5-.5zm1.3 1.1c-.1.5-.4.9-.9 1.1.1.2.2.3.5.4.1-.5.4-.9.9-1.1-.1-.2-.3-.3-.5-.4zm1.2 1.1c-.1.5-.5.9-.9 1.1.1.2.2.3.5.4.1-.5.5-.9.9-1.1-.1-.2-.3-.4-.5-.4zm1.3 1c-.2.5-.5.9-1 1.1.1.2.3.3.5.4.1-.5.4-.9.9-1.1-.1-.2-.2-.3-.4-.4zm1.2 1c-.1.5-.4.9-.9 1.1.1.2.2.3.4.3h.1c.1-.5.4-.9.9-1.1-.1-.1-.3-.2-.5-.3zm1.7 1.3c-.1-.2-.2-.3-.4-.3-.1.5-.4.9-.9 1.1.1.2.3.3.5.4.1-.5.4-.9.8-1.2zm.9.7c-.1.5-.4.9-.9 1.1.1.2.3.3.5.4.1-.5.4-.9.9-1.1-.1-.2-.3-.3-.5-.4zm1.3 1c-.1.5-.4.9-.9 1.1.1.2.3.3.5.4.1-.5.4-.9.9-1.1-.2-.2-.3-.3-.5-.4zm1.3 1c-.1.5-.4.9-.9 1.1.1.2.3.3.5.4 0-.5.4-1 .8-1.2l-.4-.3zm1.3.9c0 .5-.4 1-.8 1.2.1.2.3.3.5.4 0-.5.3-1 .8-1.2-.2-.2-.3-.3-.5-.4zm1.3.9c0 .5-.4 1-.8 1.2.1.2.3.3.5.3 0-.5.4-.9.8-1.2-.1-.1-.3-.2-.5-.3zm1.4 1c0 .5-.4 1-.8 1.2.1.2.3.3.5.3 0-.5.3-1 .8-1.2-.2-.2-.3-.3-.5-.3zm1.3.8c0 .5-.3 1-.7 1.2.2.3.5.4.6.2 0-.5.2-.9.6-1.2-.2-.1-.3-.2-.5-.2z"/><path fill-rule="evenodd" clip-rule="evenodd" fill="#BB1920" stroke="#871A20" stroke-width=".5" stroke-miterlimit="10" d="M5.7 0h-6.8c-1 .9-1.8 2-2.7 2.8-1.4 1.3-3.3 1.6-4.8 2.6-1.7 1.2-3.2 3.1-4.7 4.6-1.3 1.2-3 2.8-3 4.8 0 1.2.5 2.4.9 3.5.3 1 .6 2 1 3 .8 1.9 2.4 3.1 3.9 4.3.8.6 1.5 1.1 2.6 1.1.3 0 2.3-.3 2.5.1v-.1c-1.3-4.4.1-9.2 2-13.2 2.3-4.9 5.5-9.5 9.1-13.5z"/><path fill-rule="evenodd" clip-rule="evenodd" fill="#E4E7EA" stroke="#4B4B56" stroke-width=".4" stroke-miterlimit="10" d="M-1.9 31.8l2.2 1.4-1.9-1.4c-.7-.6-1.3-1.4-1.9-2.1-1.5-1.7-2.2-3.8-2.2-6.1.1-2.9.9-5.8 1.7-8.6-.7.6-1.6 1.8-2.7 1.6-.5-.1-1.1-.4-1.5.2-.4.8-.4.8-1.3.9-.9 0-.5 0-.8.7-.2.5-1.2.5-1.6.8-1.2.9.7 2.5 1.3 3.2 2.9 3.2 5.1 7 8.7 9.4.8.5-.5-.3 0 0z"/><path fill="#4B4B56" d="M-10 18.1h-.4c.2 1.9 1.4 3.6 2.3 5.2.5.8 1 1.5 1.5 2.2.3.4.5 1.9 1 1.8.1-1.7-1.7-3.3-2.5-4.7-.7-1.3-1.7-2.8-1.9-4.5zM-8.4 19l-.3.1c.5 1.4 1.2 2.7 1.8 4 .3.8 1 1.6 1.1 2.4.1.5-.1 2 .5 1.9-.1-3.1-2.1-5.6-3.1-8.4zM-6 17.6c-.8 1.1-.5 3-.4 4.2 0 .6.1 1.1.2 1.7.1.5-.1 1.4.5 1.3l-.4-3.6v-2c0-.5.6-1.5.1-1.6zM-11.6 20.7l-.3.1c.4.9 1.2 1.4 2 1.9.7.5 1.2 1.3 1.7 2s1 1.4 1.6 2c.4.4 1.7 2.2 2.1 1.8-.9-1.4-2.3-2.6-3.4-4-.5-.6-.9-1.3-1.5-1.8-.8-.6-1.8-1-2.2-2z"/><path fill-rule="evenodd" clip-rule="evenodd" fill="#E4E7EA" stroke="#4B4B56" stroke-width=".4" stroke-miterlimit="10" d="M3.8 0h-12.8v.1c-.5.6-1.5.1-1.9.8-.4.9-.1 1.3-1.2 1.5-.7.2-.9.6-.8 1.2.2 1 0 1.2-1 1.3-.7.1-.9.6-.8 1.2.1 1-.7.8-1.3 1.2-.4.2-.5.9-.7 1.2-.3.5-.7.8-1.2 1-.3.2-.6.4-.5.8.1.7-.1.9-.6 1.3-2.1 1.5 2.3 5.8 3.3 6.7 4.2-3.8 8-7.9 12.1-11.7 2.4-2.2 4.8-4.5 7.4-6.6z"/><path fill="#4B4B56" d="M-16.7 7.4c-.4.5.6 2.1.8 2.6.3.5 1.2 2.8 1.8 2.3-.6-1.1-1.3-2.1-1.7-3.2-.3-.5-.4-1.4-.9-1.7zM-14.5 5.2c-1.1.5.3 1.9.6 2.4s.8 2.1 1.2 1.9c-.1-1-.8-1.9-1.3-2.7-.2-.3-.5-.6-.5-.9-.1-.4.2-.3 0-.7zM-13 2.6c-1.2 1.2 2.6 4.9 3.5 5.7.5-.3-.3-.8-.6-1.1-.5-.6-1-1.1-1.4-1.7-.4-.6-.9-1.2-1.2-1.9-.2-.5.1-.6-.3-1zM-10.8 1.4h-.4c0 .9.7 1.8 1.1 2.5l1 1.7c.2.4.3 1.3.8 1-.4-1.1-1.1-2.2-1.7-3.2-.3-.5-.8-1.2-.8-2zM-6 4.5c-.9-1.3-2.2-2.8-2.6-4.5h-.4c.2.8.6 1.7 1.1 2.4.3.5 1.5 2.6 1.9 2.1zM-3.5 3.2c-.2-1.2-.8-2.2-1.5-3.2h-.5c.1.2.3.5.5.7.4.5.7 1 .9 1.5.1.3 0 1.2.6 1zM-2.9 0l.4.4c.1-.1.1-.2.1-.4h-.5z"/><path fill-rule="evenodd" clip-rule="evenodd" fill="#F1DD05" stroke="#000" stroke-width=".25" stroke-miterlimit="10" d="M2.4 0l-.2.2c-.4.4-.6.2-.9.7-.1.2-.3.4-.6.5-.5.3-.3.4-.8.8-.4.4-.6.2-.9.7-.2.4-.6.6-1 .6 0 .3-.1.5-.3.7-.5.4-.6.2-.9.8-.2.4-.6.6-1 .7-.1.8-.9.8-1.2 1.4-.2.4-.5.6-.9.7-.1.3-.3.7-.7.9-.6.3-.6 1.1-1.4 1.2 0 .4-.3.8-.7 1-.5.3-.3.4-.7.8-.4.4-.5.2-.8.8-.1.2-.3.5-.6.6-.5.3-.3.4-.7.9-.4.4-.6.2-.8.8-.2.4-.5.6-.9.8 0 .2-.1.4-.3.6v.1c-.4.4-.5.2-.7.8-.2.4-.5.7-.9.8-.1.7-.7 1.3-1.4 1.3-1.5 0-2.2-2.1-.9-2.8.5-.3.3-.5.6-.9.4-.5.5-.3.8-.9.2-.4.5-.7.9-.8 0-.3.1-.5.3-.8.4-.5.6-.2.8-.8.2-.4.5-.7.9-.8.1-.8.9-.9 1.1-1.5.2-.4.5-.7 1-.7.1-.4.3-.8.7-1 .6-.3.6-1.1 1.4-1.2 0-.5.3-.8.6-1 .5-.3.3-.4.8-.9.4-.4.6-.2.9-.7.1-.2.3-.4.6-.6.5-.3.3-.4.7-.8.4-.4.6-.2.9-.7.2-.4.6-.6 1-.7.1-.3.2-.5.4-.7.4-.4.6-.2.9-.7 0-.1.1-.2.1-.2h2.2c.2.2.4.5.5.8.2-.1.4-.2.4-.4-.2-.1-.4-.2-.5-.4h2.2zm-19.9 17c-1.3.6.7 2.3 1.1.9-.5-.1-.9-.5-1.1-.9zm1-1.3c-.2.1-.3.2-.4.5.5.1.9.5 1.1.9.2-.1.3-.2.3-.4v-.1c-.4-.1-.8-.4-1-.9zm1-1.2c-.2.1-.4.2-.4.5.5.1.9.5 1.2.9.1-.1.3-.2.3-.4-.5-.2-.9-.6-1.1-1zm1.4-.6c-.2-.2-.3-.4-.4-.6-.2.1-.3.2-.4.5.5.1.9.5 1.1 1 .2-.1.3-.2.4-.4-.3-.2-.5-.3-.7-.5zm.6-1.8c-.2.1-.3.2-.4.4v.1c.5.1.9.5 1.1 1 .2-.1.3-.2.4-.4-.4-.2-.9-.6-1.1-1.1zm1.1-1.1c-.2.1-.3.2-.4.4.5.2.9.5 1.1 1 .2-.1.3-.2.4-.4-.2-.1-.5-.2-.7-.4-.2-.1-.3-.4-.4-.6zm1-1.1c-.2.1-.3.2-.4.4.5.2.9.5 1.1 1 .2-.1.3-.2.4-.3v-.1c-.5-.1-.9-.5-1.1-1zm1.1-1.1c-.2.1-.3.2-.4.4.5.2.9.6 1.1 1.1.2-.1.3-.2.4-.4-.5-.2-.9-.6-1.1-1.1zm1.1-1.1c-.2.1-.3.2-.4.4.5.2.9.5 1.1 1.1.2-.1.3-.2.4-.4-.5-.2-.9-.6-1.1-1.1zm1-1.1c-.2.1-.3.2-.4.4.5.2.9.5 1.1 1 .2 0 .4-.1.4-.3-.5-.2-.9-.6-1.1-1.1zm1.1-1.1c-.2.1-.4.2-.4.4.5.2.9.6 1.1 1.1.2-.1.3-.2.4-.4-.5-.2-.9-.6-1.1-1.1zm1.1-1.1c-.2.1-.3.2-.4.4.5.2.9.6 1.1 1.1.2 0 .3-.2.4-.4-.5-.2-.9-.5-1.1-1.1zm1.1-1c-.2.1-.3.2-.4.4.5.2.9.6 1.1 1.1.2-.1.3-.2.4-.4-.5-.2-.9-.6-1.1-1.1zm1.1-1.1c-.2.1-.3.2-.4.4.5.2.9.6 1.1 1.1.2-.1.3-.2.4-.4-.5-.2-.9-.6-1.1-1.1zm1.2-1c-.2 0-.4.2-.5.4.5.2.9.6 1 1.1.2 0 .3-.2.4-.3-.4-.3-.8-.7-.9-1.2zm1.6-.3l-.1-.1c-.2-.2-.3-.4-.3-.6-.2 0-.3.2-.4.4.5.2.9.6 1 1.1.2-.1.3-.2.4-.4-.3-.1-.5-.2-.6-.4z"/><g fill-rule="evenodd" clip-rule="evenodd"><path fill="#E0C13F" stroke="#231F20" stroke-width=".75" stroke-miterlimit="10" d="M-5.6 27c-.5-.7-1.4-.6-2.1-.9-.8-.3-.7-.9-.8-1.6-.1-.7-.6-1.2-1.1-1.6-.7-.6-1-1.2-1.4-2-.8-1.5-1.4-3.1-2.1-4.7-.8-1.8-1.9-3.6-2.2-5.6-.3-1.5-.7-3.3-.7-4.8 0-1.6.7-3.1.8-4.7l.1-1.1h-8.4c.1.6-.2 1.3-.3 1.9-.1.7.2 1.5.3 2.2l.1 2.3c.1 1 .4 1.9.7 2.9.3 1 0 1.9.5 2.8.5 1 .5 2.4.7 3.5.2.8.3 1.5.6 2.4.4 1.1.2 2.1.8 3.1 0 0 0 .1.1.1 0 .1.1.1.1.1l.1.1v.1c.7 1.2 1.2 2.5 2.1 3.6 1.2 1.5 2.9 2.5 4.7 3 .8.3 9.2 1.6 7.4-1.1z"/><path fill="#231F20" d="M-17 21.7c.2.2.6.2.8 0 .4-.4-.2-.7-.4-.9-.6-.6-.4-1.3-.9-1.8-.5-.7-1.2 0-1.1.6.3.9.9 1.6 1.6 2.1.2.1-1-.7 0 0zM-14.7 19.6c-.8-.2.1.6.3.7.6.2.7.7 1.1 1.1.5.4 1 .3.5-.3-.4-.7-1.1-1.1-1.9-1.5-.1 0 1 .4 0 0zM-22.2 1.9c-.1.5.1 1.1.4 1.5.2.3 1.7 1.1 1.2.4-.2-.1-.3-.3-.5-.5-.2-.3 0-.7-.1-1 0-.2-.9-.8-1-.4 0 .4.1-.2 0 0zM-12.4 25.7c.1.5 1.2 1.1.9.1-.3-.9-.7-1.7-1.4-2.3-.7-.6-1.7-.4-.6.1.7.3 1 1.6 1.1 2.1zM-16.7 11.7c0-.2-.9.4-.9.8 0 .1-.5 1.9-.4 1.9.8.1 1.2-2.1 1.3-2.7 0-.1-.1.3 0 0zM-19.6 8c-.4.6-.7 1.3-.7 2.1 0 .3.5 1.5.8.8.3-.6.2-1.4.6-2 .3-.5-.4-1.6-.7-.9-.5.9.2-.3 0 0zM-19.4 5c-.2.5.6.8 1 .6.5-.3.4-1.4.3-1.9-.1-.3-1-1.2-1.2-.5 0 .2.1.4.2.6-.1.5-.2.9-.3 1.2zM-19.3 17.6c.3.5.8-.3.8-.6l-.4-1.9c0-.7-.8.1-.8.6.1.6.2 1.3.4 1.9.2.3-.2-.6 0 0z"/></g><path fill-rule="evenodd" clip-rule="evenodd" fill="#E4E7EA" stroke="#4B4B56" stroke-width=".75" stroke-miterlimit="10" d="M-1.8 33c1.2.5 2.5 1 3.9 1.1-2.4-1.3-5.1-3-6.5-5.5-1.5-2.8-1.1-6.2-.7-9.2-.3 1.7-.7 3.4-1.5 5-.7 1.4-1.8 2.1-3.2 2.9 2.2 2.4 4.9 4.4 8 5.7 1.5.6-3.1-1.3 0 0z"/><path fill-rule="evenodd" clip-rule="evenodd" fill="#F8E8C1" stroke="#000" stroke-width=".5" stroke-miterlimit="10" d="M-1.2 31.3c.5 1.1 0 3.8-1.5 3.6-1.7-.2-3.5-.8-5.2-.4-1.5.3-.7 2.5-1.1 3.4-.2.4-.5.5-.7.8-.2.3-.1.7-.1 1-.1.8-.7.9-1.4.9-1.7 0 .3 3.4.5 4.2.6 1.8-.4 3.1-.5 4.9-.1 1.7-.2 3.5.4 5.1.6 1.9 2.4 2.9 4.1 3.6 3.3 1.3 7 .4 10-1.3 1.4-.8 1.7-1.8 2.3-3.2.6-1.6 1.1-3.2 1.9-4.8.7-1.6.3-3 .2-4.7-.1-1.8.3-3.8.9-5.5 1.1-3.2 3-6.5 5.9-8.3"/><path d="M-10 40.7c-.2 0-1.2.2-1.2.4-.1.4.6.5.8.4.5-.1 1-.6 1.3 0 .2.4-.4.4.1.8.6-.4.6-1.2-.1-1.5l-.9-.1z"/><path fill-rule="evenodd" clip-rule="evenodd" fill="#231F20" d="M-10.1 47.8c.5 2.3 4.3 2 5.3.4-1.1.3-2.4.7-3.5.5-.5-.1-.8-.2-1-.7-.2-.5-.3-.4-.8-.6v.4z"/><path fill-rule="evenodd" clip-rule="evenodd" fill="#03c" stroke="#000" stroke-width=".25" stroke-miterlimit="10" d="M-8 47.1c.6.1.9-1.7.3-1.8-.7-.2-.9 1.5-.3 1.8z"/><path fill-rule="evenodd" clip-rule="evenodd" fill="#F8E8C1" stroke="#000" stroke-width=".5" stroke-miterlimit="10" d="M-8.6 46.6c-.2 0 .3 1 .8 1l2.2-.9c-1 0-2.8-.4-3.7.1.2 0 .5-.1.7-.2"/><path fill-rule="evenodd" clip-rule="evenodd" fill="#BF2026" stroke="#911922" stroke-width=".5" stroke-miterlimit="10" d="M-8.8 39.1c.4 0 1.4-.1 1.7-.3l-.5-.4c-.1-.2 0-.3-.2-.6-.3-.4-1-.6-1.4-.2-.1.2-.1.3-.1.5-.2 0-.5.2-.6.4-.3.7.8.6 1.1.6.1 0-.3.1 0 0z"/><path fill="#911922" d="M-9.4 38c.1 0-.1.4-.2.4.3.2.7 0 1 .1.5.1.9.4 1-.2-.6-.4-1.2-.2-1.8-.3z"/><path fill-rule="evenodd" clip-rule="evenodd" fill="#F4ED00" stroke="#000" stroke-width=".2" stroke-miterlimit="10" d="M-6.5 53c.3 0 .5-.4.3-.7-.1-.1-.8-.2-.9-.2l-.6-.1c-.2 0-.7-.2-.9 0-.1-.2-.4-.3-.7-.1-.2-.4-.5-.1-.8-.3-.3-.2-.4.1-.6-.1-.2-.1-.3-.1-.5.1-.1-.2-.2-.2-.4-.2-.3 0-.5.4-.3.7.1.1.8.2.9.2l.6.1c.2 0 .7.2.9 0 .1.2.4.3.7.1.2.4.5.1.8.3l.7.1c.2.1.3.1.5-.1 0 .1.2.2.3.2z"/><path fill="#756026" d="M-10 54.5c-.2.2-.1.8.3.7-.1-.2-.2-.4-.3-.7.1.2.1.1 0 0z"/><path fill-rule="evenodd" clip-rule="evenodd" fill="#AB8F37" stroke="#756026" stroke-width=".75" stroke-linejoin="round" stroke-miterlimit="10" d="M5.7 59.8c1.5-1 2.6-3.2 3.6-4.7.5-.8 1.2-1.7 1.1-2.7-.2-1 0-1.9.1-2.9.1-.8.1-1.6-.4-2.3-.4-.6-.2-.8-.3-1.5-.1-1.6.7-4.1-1.3-4.6.3-.2.9-.3 1.2-.1-.6-.4-1-.1-1.6-.2-.1-.8.9-1.1 1.5-.9-1.6-.7-2.2.8-2.3 2 0 .6.3 1.9.1 2.5-.6-.8-.9-1.7-1.8-2.2-.6-.4-2-1-2.6-.3-.7.7-.4 2.1-.5 2.9-.1 1.1-.6 2.1-1.3 3-.6.8-1.5 1.3-2.4 1.7-1.1.4-1.9 1.1-2.7 1.9-1.5 1.3-3.4 1.9-4.2 3.8-.5 1.2-1.2 1-2.1.4-.6-.4-1.5-.9-1.5.2s.6 2.1 1.4 2.8c1 .8 2.1.9 3.3 1.3 3.9 1.3 9 2.6 12.7-.1.4-.2-.3.3 0 0z"/><path fill-rule="evenodd" clip-rule="evenodd" fill="#AB8F37" stroke="#756026" stroke-width=".75" stroke-miterlimit="10" d="M.5 49.9c.8.7 3-.2 3-1.4l-.2-1.8.1-2.6c.1-1.4.4-2.8.3-4.2-.1-1.1.3-3.9-1.1-4.4-1.4-.5-2.3.9-2.2 2.1.2 1 .4 1.9.2 2.9-.3 1.6-.6 2.9-.4 4.5.1.9.1 1.8.1 2.7-.1.7-.4 1.8.2 2.2.3.3-.3-.2 0 0zM-1.9 49.9c.8.7 3-.2 3-1.4l-.2-1.8.1-2.5c.1-1.4.4-2.8.3-4.2-.1-1.1.3-3.9-1.1-4.4-1.4-.6-2.3.9-2.2 2.1.2 1 .4 1.9.2 2.9-.4 1.5-.6 2.8-.4 4.4.1.9.1 1.8.1 2.7-.1.7-.4 1.8.2 2.2.3.3-.3-.2 0 0zM-2 56.9c1.8-.5 3-2 3.8-3.6.6-1.3 1.8-3.3 1.4-4.7-.5-2-2.9-1.9-4.3-1.1-.8.4-1.5 1-2 1.6-.5.6-.7 1.5-1.2 2s-1.6.7-2.2 1c-.8.4-1.7.8-2.4 1.4-1.5 1.2-1.7 2.9-.6 4.5s2.9 1.5 4.4.6c.7-.4 1-.9 1.5-1.4.3-.4 1.1-.2 1.6-.3 1.1-.3-.1 0 0 0zM15.4 50.4s0-.1-.1-.2c-.5-1.3-1.8-2.5-3.1-2.8-1.7-.4-1.9.5-1.7 1.8.1.6-.5 1.5-.7 2-.4.8-.8 1.6-1.2 2.5-.8 1.5-1.8 2.9-3 4.1-1.5 1.3-5.9 4.2-3.7 6.6.2.2.5.4.8.6h5.3c.9-.5 1.6-1.4 1.5-2.3 0 .1 2.2-1.2 2.5-1.5.9-1 1.9-2.4 2-3.9 0-.8-.7-2.6 0-3.2 1-1 2-2.1 1.4-3.7z"/><path fill="#756026" d="M14.2 50.4c-.6 0-.7-.1-.7.5 0 .9-.4 1.5-1 2.1-1.1 1-1.7 2.3-2.6 3.5-.9 1.2-1.8 2.4-2.9 3.5-.6.6-1.3 1-2 1.4-.8.4-.9.3-.5 1 2.7-1.1 4.2-3.2 6-5.4.7-1 1.3-2.1 2.1-3 .9-1.2 1.7-2 1.6-3.6zM13.2 52.9c-.6.6-.4.4 0 1.2.3.7.1.7.9.7-.1-.7-.4-1.4-.9-1.9zM8.6 58.6l-.6.5c.5.5.9 1.1 1 1.8.1.6.1 1.1 0 1.7-.1.7 0 .5.6.7.5-1.7.3-3.4-1-4.7zM10.1 56.4c-.1.2-.2.4-.3.5-.1.1.9.7 1.1.9.7.7.5 1.2 1.4.7-.4-.9-1.3-1.6-2.2-2.1zM11.6 55.9l-.5.5c.4.4 1 .5 1.1 1.3.1.8-.2 1 .7 1 0-.5 0-1-.1-1.5-.3-.8-.8-.9-1.2-1.3zM7.1 59.9c-.6.9 0 .6.2 1.5.1.5 0 .9-.2 1.4-.3.6-.2.5.4.8.7-1.3.9-2.8-.4-3.7z"/><path fill-rule="evenodd" clip-rule="evenodd" fill="#F4ED00" stroke="#8E6016" stroke-width=".2" stroke-miterlimit="10" d="M13 32c.9 0 0-.9-.2-1.1-.1-.1-.8-.5-.9-.5 0-.2-.9-.9-1.1-1.1 0 0-.9-.5-.8-.5l-.6-.4c-.1-.1-.4-.4-.5-.4 0-.3-1-.7-1.2-.6 0-.2-1-.6-1.2-.5-.1-.4-1.1-.5-1.4-.7l-.6-.2-.6-.2c-.4-.3-1-.1-1.3-.3l-.9-.1c-.2 0-.8 0-1 .1-.2-.2-.5-.2-.7 0-.1-.1-.2-.2-.3-.2-.2.2-.4.2-.7 0-.6 0-.8.1-1.1.4-.1 0-.9.7-.9.8-.8.7-.4 1.3-.4 2.2l.1.6.1.6c0 .8 1.4 0 .6-.4.2-.2.1-.5-.1-.6.2-.2.1-.5-.1-.6.2-.2.1-.5-.1-.6.1-.1.3-.7.3-.8.1-.1.5-.4.5-.5.4 0 .2-.4.4-.5.4-.2.4 0 .7 0 .5 0 1.3-.2 1.8 0h.2c.2-.2.4-.2.7 0 .4 0 .8-.2 1.1 0l.6.2.6.2c.3.2.3 0 .6.3l.6.2c.3.2.3 0 .6.3l.6.2.6.2c.2.1.3.1.5 0 .1.2.2.3.4.3.6 0 1 .6 1.3 1 0 0 .9.5.8.5l.6.4c.4.3.7.6 1 .8 0 .5 1.2 1.5 1.4 1.5z"/><g fill-rule="evenodd" clip-rule="evenodd" fill="#F4ED00"><path d="M10.4 31.6l1.1.9c.2.2 0 .5.4.5s.5-.5.3-.7c0 0-.9-.6-.8-.6-.3-.3-.7-.6-1.1-.9-.2-.2-.6-.8-.9-.8l-1.2-.6-1.2-.6-1.2-.6-.6-.2c-.4 0-.3-.2-.6-.2-.4 0-.3-.2-.6-.2-.4 0-.3-.2-.6-.2-.4 0-.3-.2-.6-.2-.5-.1-.4-.2-.8-.2l-.3.2c-.1-.2-.2-.2-.3-.2l-.4.1c0-.1-.2-.1-.3-.1l-.3.2c-.2-.2-.4-.3-.6-.2-.3.1-.4-.2-.7 0-.4.2-.8.2-1.2.6-.1.1-.7.7-.6.9-.3 0-.4.4-.3.6.2.3-.1.4 0 .7.2.4-.2 1.1.1 1.4.7.7.7-.8.7-1v-.2c-.2-.1-.2-.3 0-.5 0-.1 0-.1-.1-.2-.2-.1-.2-.3 0-.5 0-.2.3-.5.4-.6 0 0 .8-.6.8-.7.3.3.4-.1.7.1h1c.6-.3 2.3.2 2.8.5l.6.2.6.2.6.2.6.3.6.3.6.3.6.3.6.3c.2.2.7.2 1 .4.3.2 1.1 1 1.2 1z"/><path stroke="#8E6016" stroke-width=".2" stroke-miterlimit="10" d="M11 32l-1.1-.9s-.8-.4-.9-.5c-.3-.2-.4-.1-.6-.3l-.6-.3-.6-.3-.6-.3-.6-.3-.6-.3-.6-.2-.6-.2-.6-.2-.6-.2-.6-.2c-.2-.2-.5 0-.7-.3-.3.4-.5 0-.8.1h-.2c-.2-.2-.4-.2-.7 0h-.2c-.1-.2-.3-.2-.5 0l-.6.1c-.1 0-.5.5-.5.5 0 .5-.6.4-.3 1l.1 1.4c.5 1-1.5.5-.6-.1-.4-.3 0-1.2-.2-1.5-.3-.5.9-1.5 1.2-1.7 0-.4 1.1-.7 1.4-.3.1-.2.5-.2.7 0 .2-.2.5-.2.7 0 .2-.3.5-.2.7 0 .2-.3.6-.2.7.1 0-.1.4 0 .4.3.2-.2.5-.1.6.2.2-.1.5-.1.6.2.2-.2.6-.1.6.2.4-.3 1.1.4 1.5.4l1.2.6 1.2.6c.4 0 .8.7 1.1.7-.1 0 .7.5.8.6.1.1.6.7.6.7l.5.5c.1.1.1-.2.4.1.2.2.1.7-.3.7l-.8-.9z"/></g><path fill-rule="evenodd" clip-rule="evenodd" fill="#F4ED00" stroke="#8E6016" stroke-width=".2" stroke-miterlimit="10" d="M9.8 32.6c0 .2.9.9 1.1.8.1.3.4.7.7.3.5-.5-.3-.5-.4-.7 0-.1 0-.2-.1-.3-.4-.5-.2 0-.4-.1 0-.1 0-.2-.1-.3-.4-.4-.2 0-.4-.1 0-.1 0-.2-.1-.3-.4-.5-.2 0-.4-.1 0-.1 0-.2-.1-.3-.4-.4-.2 0-.4-.1-.2-.2-.7-.9-1.1-.8 0-.2-.1-.4-.4-.4l-.6-.2-.6-.2c-.3 0-.5-.4-.8-.2-.1-.3-.4-.4-.6-.2-.1-.3-.6-.3-.8-.5-.3-.2-.3 0-.6-.3-.2-.1-.4-.1-.5 0-.1-.2-.2-.2-.4-.2l-.3.2c-.1-.1-.2-.2-.4-.2-.2.2-.3.2-.5 0-.2-.1-.4-.1-.5.1-.3-.4-1.1 0-1.5-.2-.3-.2-1.5 1.1-1.4 1.4-.2.1-.4.1-.4.4 0 .2 0 .9.3 1-.2.3 0 .7 0 .9 0 .2.1.3.3.4-.1.2-.1.4 0 .6.6.7.6-.9.5-1.2-.2-.2 0-.6-.3-.8.1-.1.1-.9 0-1 .1 0 .8-.8.8-.9.2-.1.3-.2.5 0 .1-.1.3-.1.4-.3.1.2.5.3.7 0 .2.4.5 0 .8.2.1 0 1 .1 1.1 0 .1.3.5.2.7.4.2.1.3.1.5 0 .1.3.4.4.6.3.1.3.7.3.8.5.2.1.3.1.5 0 .1.3.4.4.6.3.1.3.6.3.8.5l.5.4c.2.2.7.4.9.5 0 .1.9.7 1 .7z"/><g fill-rule="evenodd" clip-rule="evenodd" stroke="#231F20" stroke-width=".25" stroke-miterlimit="10"><path fill="#F4ED00" d="M.5 27c-.2-1-.9-2.2-2-2.4-1.5-.5-1.7 1.4-1.5 2.4.2 1 .9 2.2 2 2.5 1.5.3 1.7-1.5 1.5-2.5-.2-.7.1.6 0 0z"/><path fill="#CE0606" d="M-.2 27.1c-.4-1.8-2.9-2.5-2.4-.1.2.7.6 1.5 1.3 1.7 1 .4 1.2-.9 1.1-1.6-.2-.5.1.5 0 0z"/><path fill="#F4ED00" d="M-1.6 23.8c0-.8-1.3-.8-1.3 0s1.3.8 1.3 0z"/></g><g fill-rule="evenodd" clip-rule="evenodd" fill="#D5DD33" stroke="#1D1D1B" stroke-width=".5" stroke-miterlimit="10"><path d="M4.3 51.4c1.1.6 1.5-.4 1.1-1.4-.5-1-1.8-.9-2.7-.5-.8.3-1.4 1.8-.4 2.2.8.3 1.4-.9 2-.3zM4.5 48.5c.7.6 2.1.7 2.3-.5.1-.6-1.1-1.7-1.5-2.1-.6-.5-1.8.3-2 .9-.1.4 1.8-.1 1.2-.8.7.5-.9.9-1 1.1-.3.4.8 1.3 1 1.4.3.3-.2-.1 0 0zM4 49.6l1.2-.5c.1 0-1.2-1.5-1.4-1.7-.6-.4-.5-.6-1 .1-.3.4-.4 1.1-.5 1.6-.3 1 1.1.7 1.7.5.1 0-.5.2 0 0zM2 49.5c.5-.4 1.5-1.9.9-2.6-.3-.3-1.9-.7-2.1-.4-.5.6 0 1.4-.8 2-.9.9 1.3 1.6 2 1 .5-.4-.2.2 0 0z"/></g><path fill-rule="evenodd" clip-rule="evenodd" fill="#F8E8C1" stroke="#000" stroke-width=".5" stroke-miterlimit="10" d="M-21.2 2c-.1-.6-.1-1.3-.3-2h-7.6c.1.4.1.8.1 1.2.3 2.5.7 5 1.3 7.4.4 1.5.6 2.9.8 4.4 0 .2.2 3.8-.1 3.7-.9-.2-1.7 1.1-2.1 1.7-.6 1-1.2 2-1.9 3l-3.4 5s0 .1-.1.1c0 0 0 .1-.1.1-.3.3-1 1.3-.4 1.4.7.1 1.1-.6 1.4-1l1.6-1.8c-.8 1.2 1.6 1.5 1.8 1-.2.6.2 1.5.9 1.1-.4.2-1.3 2-.7 2.3.9.4 3.1-1.4 3.3-2.2-.1.8-1 2.9.6 3 .9 0 1.2-2.3 1.5-2.9.4-.6 1-1 1.3-1.6.3-.5.5-1.2.7-1.8.2-.7.4-1.4.5-2.2 0-.8-.3-1.5-.4-2.3-.1-1.4.2-2.8.4-4.1.1-1.4 0-2.7.2-4.1.5-3.3 1.1-6.3.7-9.4z"/><path fill="#0A5E38" d="M-31.2 15.5l-.7.2c.4 1.8 1.7 3.2 2.9 4.5 1.2 1.1 2.3 2.2 2.3 4l-.7 4.2c0 1.8 1.2 3.2 2.6 4.1.5-.7.3-.6-.4-1.2-.6-.5-1.1-1.1-1.3-1.8-.6-1.6.4-3.4.5-5 .3-4-4.4-5.4-5.2-9z"/><g fill-rule="evenodd" clip-rule="evenodd" fill="#F8E8C1" stroke="#000" stroke-width=".5" stroke-miterlimit="10"><path d="M-28.7 29c.7-.7 1.6-1.1 1.8-2.2.1-.5.6-2.9-.7-1.7-.4.4-.6 1-.9 1.4-.4.4-.8.8-1.1 1.3-1 1.2-.4 2.3.9 1.2.1-.2-.3.2 0 0zM-28.8 26.6c.5-.5 1.3-1.1 1.5-1.8.2-.5.7-3.1-.5-2.3-.5.3-.6.9-.9 1.4-.3.5-.8.9-1.1 1.5-.2.4-.7 1-.5 1.4.3.9 1.1.2 1.5-.2zM-31.9 26c1 .7 1.6-.1 2.2-1 .3-.4 1.7-3 .3-2.7-.4.1-3.1 3.3-2.5 3.7.4.2-.1-.1 0 0z"/></g><path d="M-26.2 22c-.2.7-.2 1.4 0 2.1.3.9.2 1.3-.2 2.1-.5 1.1-.9 3.1.1 4.1.6-.3 0-1-.1-1.5-.1-.8.1-1.6.4-2.4.5-1 .5-1.5.2-2.6-.1-.5.4-1.8-.4-1.8z"/><path fill-rule="evenodd" clip-rule="evenodd" fill="#BB1920" stroke="#871A20" stroke-width=".5" stroke-miterlimit="10" d="M-24.7 35.5c1.1 1.2 2.5 2.5 4.1 3 1.7.5 4.5.1 2.8-2.2-1-1.3-2.8-3.5-4.6-3.2-.7.1-2-.2-2.5.4-.6.5-.3 1.4.2 2zM-24.5 32.8c2 0 3.2.9 4.9 1.8.9.5 1.6 1.1 2.8 1.1.4 0 .8 0 1.1-.3.2-.1.6-.7.8-.7-1.9.3-3.9-1.6-5.7-2.2-1.3-.4-3.2-1.4-4.2 0-1.2 1.7 0 3.8 1.3 5 1.2 1 3.1 1.6 3.7 3.1-.4-1 .7-1.8-.4-2.7-.8-.4-1.5-.9-2.2-1.3-.8-.5-1.6-1.1-2.3-1.8-.6-.6-.8-2 .2-2z"/><path fill="#871A20" d="M-17.3 37.6c-.5.6.9 1.4 1.2.6-.4-.2-.8-.5-1.2-.6zM-17.8 37.9c-.2.6.7 1.1 1.2 1.4.6-.6-.7-1.4-1.2-1.4z"/><path fill-rule="evenodd" clip-rule="evenodd" fill="#0E975E" stroke="#0A5E38" stroke-width=".5" stroke-linejoin="round" stroke-miterlimit="10" d="M-27.9 35.8l.3.1c-2.6-.8-4.7-1.8-7.4-.6 1.6-.5 3.8.9 5.2 1.5 1.1.5 2.8 1.4 3.2-.2.2-.6 1.6-4.9 1-4.9-.5 0-1.2 1.5-1.4 1.8-.4.7-1.2 1.2-1.6 2 .1.1.4.2.7.3z"/><path fill-rule="evenodd" clip-rule="evenodd" fill="#F1DD05" stroke="#231F20" stroke-width=".5" stroke-miterlimit="10" d="M-26.7 14.6c.4-2.7 4-2 5-.1.7-.8.6-2.3-.2-3-.9-.8-2.2-1-3.4-.8-1.1.2-2.3.7-2.1 2 .1.7.4 1.3.7 1.9z"/></g></symbol><symbol viewBox="-6.9 -6.4 13.9 12.9"><path fill-rule="evenodd" clip-rule="evenodd" fill="#D52222" d="M0 4.1c.2.7.5 1.2 1.1 1.7.6.5 1.3.7 2.1.7 1 0 1.9-.3 2.7-1 .7-.7 1.1-1.6 1.1-2.6 0-1.6-.8-3.2-2.4-5-.1-.2-1.6-1.6-4.4-4.2 0-.1-.1-.1-.2-.1s-.2 0-.2.1c-2.8 2.6-4.3 4-4.3 4.1-1.6 1.8-2.4 3.5-2.4 5 0 1 .4 1.8 1.1 2.6.7.7 1.6 1 2.7 1 .8 0 1.4-.2 2-.7.6-.4.9-1 1.1-1.6z"/></symbol><symbol id="b" viewBox="-50 -75 100 150"><path fill="#F0F7E6" d="M-43.9-75c-3.1 0-6.1 3-6.1 6.1v137.8c0 3.1 3 5.1 6.1 5.1h87.8c3.1 0 5.1-2 5.1-5.1v-137.8c0-3.1-2-6.1-5.1-6.1h-87.8z"/><path d="M43.9 74c2.8 0 5.1-2.3 5.1-5.1v-137.8c0-2.8-2.3-5.1-5.1-5.1h-87.8c-2.8 0-5.1 2.3-5.1 5.1v137.8c0 2.8 2.3 5.1 5.1 5.1h87.8m0 1h-87.8c-3.4 0-6.1-2.7-6.1-6.1v-137.8c0-3.4 2.7-6.1 6.1-6.1h87.8c3.4 0 6.1 2.7 6.1 6.1v137.8c0 3.4-2.7 6.1-6.1 6.1z"/></symbol><symbol id="d" viewBox="-2.8 -6 5.6 12"><path fill-rule="evenodd" clip-rule="evenodd" fill="#008C00" d="M-.3 4.4h-.7v-8.8h.8c.5 0 .8.1 1.1.4.1.2.2.6.2 1.1v5.8c0 .5-.1.9-.3 1.1-.2.3-.6.4-1.1.4zm2.3.8c.5-.6.8-1.3.8-2.3v-5.7c0-1.1-.3-1.9-.8-2.5-.6-.4-1.4-.7-2.4-.7h-2.4v12h2.6c1 0 1.7-.3 2.2-.8z"/></symbol><symbol id="f" viewBox="-41 -66 82 132"><g fill-rule="evenodd" clip-rule="evenodd" fill="#1A171B"><path d="M-40-41h-1v82h1zM41-41h-1v82h1zM34 66h-68v-1h68zM34-65h-68v-1h68z"/></g><path stroke="#1A171B" stroke-miterlimit="10" fill="none" d="M-40.5 0h81"/></symbol><symbol viewBox="-7.6 -7.6 15.2 15.2"><path fill-rule="evenodd" clip-rule="evenodd" fill="#FFA001" d="M7.4-.3c-1.4-.9-2.7-2-3.9-3.2-1.2-1.2-2.3-2.5-3.2-3.9 0-.1-.2-.2-.3-.2-.1 0-.2.1-.3.2-.9 1.4-2 2.7-3.2 3.9-1.2 1.2-2.5 2.3-3.9 3.2-.1.1-.2.2-.2.3 0 .1.1.3.2.3 1.4.9 2.7 2 3.9 3.2 1.2 1.2 2.3 2.5 3.2 3.9.1.1.2.2.3.2.1 0 .3-.1.3-.2.9-1.4 2-2.7 3.2-3.9 1.2-1.2 2.5-2.3 3.9-3.2.1 0 .2-.2.2-.3 0-.1-.1-.2-.2-.3z"/></symbol><use xlink:href="#b" width="100" height="150" x="-50" y="-75" transform="matrix(1 0 0 -1 50 75)" overflow="visible"/><g><g><use xlink:href="#c" width="9.1" height="9.7" x="-4.6" y="-4.8" transform="matrix(-1 0 0 1 90 122)" overflow="visible"/><use xlink:href="#c" width="9.1" height="9.7" x="-4.6" y="-4.8" transform="matrix(-1 0 0 1 10 122)" overflow="visible"/><use xlink:href="#c" width="9.1" height="9.7" x="-4.6" y="-4.8" transform="matrix(1 0 0 -1 90 28)" overflow="visible"/><use xlink:href="#c" width="9.1" height="9.7" x="-4.6" y="-4.8" transform="matrix(1 0 0 -1 10 28)" overflow="visible"/><use xlink:href="#d" width="5.6" height="12" x="-2.8" y="-6" transform="matrix(-1 0 0 1 90 136)" overflow="visible"/><use xlink:href="#d" width="5.6" height="12" x="-2.8" y="-6" transform="matrix(-1 0 0 1 10 136)" overflow="visible"/><use xlink:href="#d" width="5.6" height="12" x="-2.8" y="-6" transform="matrix(1 0 0 -1 90 14)" overflow="visible"/><use xlink:href="#d" width="5.6" height="12" x="-2.8" y="-6" transform="matrix(1 0 0 -1 10 14)" overflow="visible"/><use xlink:href="#e" width="80.6" height="66" x="-40.2" y="-.7" transform="matrix(-1 0 0 1 50 75)" overflow="visible"/><use xlink:href="#e" width="80.6" height="66" x="-40.2" y="-.7" transform="matrix(1 0 0 -1 50 75)" overflow="visible"/><use xlink:href="#f" width="82" height="132" x="-41" y="-66" transform="matrix(1 0 0 -1 50 75)" overflow="visible"/><use xlink:href="#a" width="14.1" height="14.9" x="-7" y="-7.5" transform="matrix(-1 0 0 1 78.5 129)" overflow="visible"/><use xlink:href="#a" width="14.1" height="14.9" x="-7" y="-7.5" transform="matrix(1 0 0 -1 21.5 21)" overflow="visible"/></g></g></svg>