<svg xmlns="http://www.w3.org/2000/svg" xmlns:xlink="http://www.w3.org/1999/xlink" viewBox="0 0 100 150" enable-background="new 0 0 100 150"><symbol id="d" viewBox="-2.5 -6 5.1 12"><path fill-rule="evenodd" clip-rule="evenodd" d="M-2.5 6h5v-1.7l-2.8-10.3h-1.9l3.1 10.4h-2v-1.4h-1.4z"/></symbol><symbol id="a" viewBox="-7.3 -7.3 14.6 14.6"><path fill-rule="evenodd" clip-rule="evenodd" d="M1.7 2.6c-.7-.8-1-1.4-1.1-2 .6.1 1.3.4 2 1.1.7.6 1.4.9 2.1.9.7 0 1.3-.3 1.9-.8.5-.5.7-1.1.7-1.8s-.3-1.3-.8-1.9c-.5-.4-1.1-.7-1.8-.7s-1.4.3-2.1 1c-.8.7-1.4 1-2 1.1 0-1.4 0-2.5.1-3.3.2-1.5.6-2.5 1.1-3.2.1-.1.1-.1 0-.2 0-.1-.1-.1-.2-.1-.6.1-1.1.2-1.6.2s-1-.1-1.7-.2c-.1 0-.1 0-.2.1s-.1.1 0 .2c.6.7.9 1.7 1.1 3.1.1.9.2 2 .2 3.3-.5 0-1.2-.4-2-1-.7-.7-1.4-1-2.1-1-.7 0-1.3.3-1.9.8-.5.5-.7 1.1-.7 1.8s.3 1.3.8 1.8c.5.6 1.1.8 1.8.8s1.4-.3 2.1-.9c.8-.7 1.4-1 2-1.1-.1.6-.4 1.3-1.1 2-.6.8-.9 1.4-.9 2.1 0 .7.3 1.3.8 1.9.5.5 1.1.7 1.8.7s1.3-.3 1.9-.8c.4-.5.7-1.1.7-1.8s-.3-1.3-.9-2.1z"/></symbol><symbol id="c" viewBox="-4.8 -4.8 9.5 9.5"><use xlink:href="#a" width="14.6" height="14.6" x="-7.3" y="-7.3" transform="scale(.65)" overflow="visible"/></symbol><symbol viewBox="-7 -7.5 14.1 14.9"><path fill-rule="evenodd" clip-rule="evenodd" fill="#008C00" d="M5.9-2.9c-.8-.7-1.7-1-2.8-1-.9 0-1.7.3-2.4.9h-.1c.1-1.9.5-3.2 1.2-4.1.1-.1.1-.1 0-.2 0-.1-.1-.1-.2-.1-.6.1-1.1.1-1.6.1s-1-.1-1.7-.2c-.1 0-.2 0-.2.1-.1.1-.1.1 0 .2.7.8 1.1 2.2 1.3 4.1h-.1c-.7-.6-1.5-.9-2.4-.9-1.1 0-2 .4-2.8 1.1-.7.7-1.1 1.5-1.1 2.5 0 1.3.8 2.6 2.5 4.1.9.8 2.4 2 4.3 3.6 0 .1.1.2.2.2s.2 0 .3-.1c.8-.8 2.2-2 4.3-3.6 1.6-1.5 2.4-2.9 2.4-4.2 0-1-.4-1.8-1.1-2.5z"/></symbol><symbol viewBox="-6.9 -6.4 13.9 12.9"><path fill-rule="evenodd" clip-rule="evenodd" fill="#D52222" d="M0 4.1c.2.7.5 1.2 1.1 1.7.6.5 1.3.7 2.1.7 1 0 1.9-.3 2.7-1 .7-.7 1.1-1.6 1.1-2.6 0-1.6-.8-3.2-2.4-5-.1-.2-1.6-1.6-4.4-4.2 0-.1-.1-.1-.2-.1s-.2 0-.2.1c-2.8 2.6-4.3 4-4.3 4.1-1.6 1.8-2.4 3.5-2.4 5 0 1 .4 1.8 1.1 2.6.7.7 1.6 1 2.7 1 .8 0 1.4-.2 2-.7.6-.4.9-1 1.1-1.6z"/></symbol><symbol id="b" viewBox="-50 -75 100 150"><path fill="#F0F7E6" d="M-43.9-75c-3.1 0-6.1 3-6.1 6.1v137.8c0 3.1 3 5.1 6.1 5.1h87.8c3.1 0 5.1-2 5.1-5.1v-137.8c0-3.1-2-6.1-5.1-6.1h-87.8z"/><path d="M43.9 74c2.8 0 5.1-2.3 5.1-5.1v-137.8c0-2.8-2.3-5.1-5.1-5.1h-87.8c-2.8 0-5.1 2.3-5.1 5.1v137.8c0 2.8 2.3 5.1 5.1 5.1h87.8m0 1h-87.8c-3.4 0-6.1-2.7-6.1-6.1v-137.8c0-3.4 2.7-6.1 6.1-6.1h87.8c3.4 0 6.1 2.7 6.1 6.1v137.8c0 3.4-2.7 6.1-6.1 6.1z"/></symbol><symbol viewBox="-7.6 -7.6 15.2 15.2"><path fill-rule="evenodd" clip-rule="evenodd" fill="#FFA001" d="M7.4-.3c-1.4-.9-2.7-2-3.9-3.2-1.2-1.2-2.3-2.5-3.2-3.9 0-.1-.2-.2-.3-.2-.1 0-.2.1-.3.2-.9 1.4-2 2.7-3.2 3.9-1.2 1.2-2.5 2.3-3.9 3.2-.1.1-.2.2-.2.3 0 .1.1.3.2.3 1.4.9 2.7 2 3.9 3.2 1.2 1.2 2.3 2.5 3.2 3.9.1.1.2.2.3.2.1 0 .3-.1.3-.2.9-1.4 2-2.7 3.2-3.9 1.2-1.2 2.5-2.3 3.9-3.2.1 0 .2-.2.2-.3 0-.1-.1-.2-.2-.3z"/></symbol><use xlink:href="#b" width="100" height="150" x="-50" y="-75" transform="matrix(1 0 0 -1 50 75)" overflow="visible"/><g><g><use xlink:href="#c" width="9.5" height="9.5" x="-4.8" y="-4.8" transform="matrix(-1 0 0 1 89.5 122.5)" overflow="visible"/><use xlink:href="#c" width="9.5" height="9.5" x="-4.8" y="-4.8" transform="matrix(-1 0 0 1 10.5 122.5)" overflow="visible"/><use xlink:href="#c" width="9.5" height="9.5" x="-4.8" y="-4.8" transform="matrix(1 0 0 -1 89.5 27.5)" overflow="visible"/><use xlink:href="#c" width="9.5" height="9.5" x="-4.8" y="-4.8" transform="matrix(1 0 0 -1 10.5 27.5)" overflow="visible"/><use xlink:href="#d" width="5.1" height="12" x="-2.5" y="-6" transform="matrix(-1 0 0 1 90 136)" overflow="visible"/><use xlink:href="#d" width="5.1" height="12" x="-2.5" y="-6" transform="matrix(-1 0 0 1 10 136)" overflow="visible"/><use xlink:href="#d" width="5.1" height="12" x="-2.5" y="-6" transform="matrix(1 0 0 -1 90 14)" overflow="visible"/><use xlink:href="#d" width="5.1" height="12" x="-2.5" y="-6" transform="matrix(1 0 0 -1 10 14)" overflow="visible"/><use xlink:href="#a" width="14.6" height="14.6" x="-7.3" y="-7.3" transform="matrix(-1.35 0 0 1.35 70.5 123)" overflow="visible"/><use xlink:href="#a" width="14.6" height="14.6" x="-7.3" y="-7.3" transform="matrix(-1.35 0 0 1.35 29.5 123)" overflow="visible"/><use xlink:href="#a" width="14.6" height="14.6" x="-7.3" y="-7.3" transform="matrix(1.35 0 0 -1.35 70.5 75)" overflow="visible"/><use xlink:href="#a" width="14.6" height="14.6" x="-7.3" y="-7.3" transform="matrix(1.35 0 0 -1.35 29.5 75)" overflow="visible"/><use xlink:href="#a" width="14.6" height="14.6" x="-7.3" y="-7.3" transform="matrix(1.35 0 0 -1.35 50 51)" overflow="visible"/><use xlink:href="#a" width="14.6" height="14.6" x="-7.3" y="-7.3" transform="matrix(1.35 0 0 -1.35 70.5 27)" overflow="visible"/><use xlink:href="#a" width="14.6" height="14.6" x="-7.3" y="-7.3" transform="matrix(1.35 0 0 -1.35 29.5 27)" overflow="visible"/></g></g></svg>