<svg xmlns="http://www.w3.org/2000/svg" xmlns:xlink="http://www.w3.org/1999/xlink" viewBox="0 0 100 150" enable-background="new 0 0 100 150"><symbol id="a" viewBox="-7.3 -7.3 14.6 14.6"><path fill-rule="evenodd" clip-rule="evenodd" d="M1.7 2.6c-.7-.8-1-1.4-1.1-2 .6.1 1.3.4 2 1.1.7.6 1.4.9 2.1.9.7 0 1.3-.3 1.9-.8.5-.5.7-1.1.7-1.8s-.3-1.3-.8-1.9c-.5-.4-1.1-.7-1.8-.7s-1.4.3-2.1 1c-.8.7-1.4 1-2 1.1 0-1.4 0-2.5.1-3.3.2-1.5.6-2.5 1.1-3.2.1-.1.1-.1 0-.2 0-.1-.1-.1-.2-.1-.6.1-1.1.2-1.6.2s-1-.1-1.7-.2c-.1 0-.1 0-.2.1s-.1.1 0 .2c.6.7.9 1.7 1.1 3.1.1.9.2 2 .2 3.3-.5 0-1.2-.4-2-1-.7-.7-1.4-1-2.1-1-.7 0-1.3.3-1.9.8-.5.5-.7 1.1-.7 1.8s.3 1.3.8 1.8c.5.6 1.1.8 1.8.8s1.4-.3 2.1-.9c.8-.7 1.4-1 2-1.1-.1.6-.4 1.3-1.1 2-.6.8-.9 1.4-.9 2.1 0 .7.3 1.3.8 1.9.5.5 1.1.7 1.8.7s1.3-.3 1.9-.8c.4-.5.7-1.1.7-1.8s-.3-1.3-.9-2.1z"/></symbol><symbol id="c" viewBox="-4.8 -4.8 9.5 9.5"><use xlink:href="#a" width="14.6" height="14.6" x="-7.3" y="-7.3" transform="scale(.65)" overflow="visible"/></symbol><symbol id="e" viewBox="-40.5 -0.6 80.9 66.6"><path fill-rule="evenodd" clip-rule="evenodd" fill="#107C00" stroke="#15DF00" stroke-width=".724" d="M15.5 24.2c-.1-.3-.1-.5-.2-.7l-.5-1.8v-.1c-.5-2.1-.9-4.2-1.2-6.3l-.3-1.8-.2-1.6c-.3-2.8-.5-5.7-1-8.5-.1-1.2-.4-2.4-1-3.4h-34c-.2 1.9.4 4.4.5 5.4v.1l.1 1.8.2 2.3v.7c0 .3 0 .7.1 1v5c0 .5 0 1 .1 1.5v.5l.1 2.1.3 3.1c0 .3.1.6.2.8l.1.4c.3 1.2.7 2.3 1.4 3.2.1.1.1.2.2.2.1.2.3.4.5.5l1 .8c.2.1.5.3.8.4.1 0 .2.1.4.1l.7.2c1.8.4 3.5.1 5.3-.1.5-.1 1-.1 1.6-.2.9-.1 1.9-.1 2.8 0 1 0 2.1.1 3.1.2.5 0 .9.1 1.4.2.6.1 1.3.1 2 .2.8.1 1.5.2 2.2.3l.6.1c.3 0 .6.1 1 .2.1 0 .2 0 .3.1l1.5.4c.7.2 1.3.4 1.9.4 1.3.1 2.4-.2 3.4-.8.1 0 .2-.1.2-.1.6-.4 1.2-.8 1.7-1.4l.9-1.1c0-.1.1-.2.2-.2.5-.7.8-1.4 1-2.1.7-.8.8-1.5.6-2z"/><path fill-rule="evenodd" clip-rule="evenodd" fill="#D4D400" d="M4.4 5.5c.2 0 1.5.2 1.6 0 .1-.3-.7-1.4-1-1.4-.2-.1-1.6-.2-1.6-.1-.1.3.7 1.4 1 1.5zM2 5.3c.2 0 1.5.2 1.6 0 .1-.3-.7-1.4-1-1.4-.2 0-1.6-.1-1.6 0-.1.3.7 1.4 1 1.4zM1.2 5.2c.1-.2-.6-1.2-.8-1.3-.2-.2-1.6-.3-1.7-.2-.2 0 .5 1.3.7 1.4.2.2 1.8.3 1.8.1.1 0 0 .1 0 0zM8.2 13.3c-.3-.4-1.4-.3-1.9-.3-.4 0 .3 1.1.5 1.2.3.5 1.4.3 1.8.3.5.1-.3-1-.4-1.2zM5.8 13.2c-.3-.5-1.4-.3-1.8-.3-.4 0 .4 1.1.5 1.2.2.5 1.4.3 1.8.3.4.1-.4-1-.5-1.2zM3.4 13.1c-.3-.5-1.4-.3-1.8-.3-.4 0 .4 1.1.5 1.2.2.5 1.4.3 1.8.3.4 0-.4-1.1-.5-1.2zM-1 12.7c-.1.3.7 1.4 1 1.4.1.1 1.6.2 1.6 0 .1-.3-.7-1.4-1-1.4-.1-.1-1.5-.2-1.6 0zM-1.4 13c-.3-.4-1.4-.2-1.8-.2-.4 0 .5 1.1.6 1.2.3.4 1.4.2 1.8.2.4-.1-.5-1.1-.6-1.2zM-4.6 14.3c.2 0 1.6.1 1.6-.1.1-.3-.9-1.4-1.2-1.3-.2-.1-1.5-.1-1.6.1 0 .3.9 1.3 1.2 1.3zM7.2 9.9c-.2-.4-.5-1.2-1-1.2-.2-.1-1.8-.3-1.6.1 0 .3.8 1.2 1.1 1.2.2.1 1.7.3 1.5-.1zM4.8 9.8c-.2-.4-.5-1.3-1-1.3-.2 0-1.7-.2-1.5.1-.1.3.7 1.3 1 1.3.2 0 1.8.2 1.5-.1zM2.5 9.8c.1-.2-.6-1.2-.8-1.3-.2-.2-1.6-.3-1.7-.2-.2 0 .5 1.3.7 1.4.2.1 1.7.3 1.8.1zM.1 9.7c.1-.2-.6-1.2-.8-1.3-.2-.2-1.6-.4-1.7-.2-.2 0 .5 1.3.7 1.4.2.1 1.8.2 1.8.1zM9.2 19.4c-.2-.4-.4-1.2-.9-1.3-.2 0-1.7-.4-1.5 0-.1.3.6 1.3.9 1.4.1 0 1.6.3 1.5-.1zM6.2 18.1c-.3-.4-1.2-.3-1.7-.3-.7 0 .2.9.3 1.2.3.5 1.3.3 1.8.4.6-.1-.3-1.2-.4-1.3zM4.5 19c-.2-.3-.5-1.2-1-1.3-.1-.1-1.6-.2-1.6 0-.1.3.7 1.4 1 1.4.2.1 1.8.2 1.6-.1zM1.5 17.8c-.3-.4-1.2-.3-1.7-.3-.7 0 .2.9.3 1.2.4.5 1.3.3 1.9.3.4.1-.4-1-.5-1.2zM-.3 18.7c-.2-.3-.5-1.2-1-1.3-.1-.1-1.6-.2-1.6 0-.1.3.7 1.4 1 1.4.3.1 1.8.2 1.6-.1zM-4.5 18.7c.3.4 1.4.2 1.8.2.4 0-.5-1.1-.6-1.2-.3-.4-1.4-.2-1.8-.2-.5 0 .4 1.1.6 1.2zM-5 18.7c-.3-.4-.6-1.2-1.2-1.2-.2 0-1.8 0-1.5.3 0 .3.8 1.2 1.2 1.2.2 0 1.8 0 1.5-.3zM-7.4 19c.3 0-.6-1.2-.8-1.3-.2-.1-1.6-.1-1.7 0-.3 0 .6 1.2.8 1.3.4.3 1.2.1 1.7 0zM-9.7 18.8c-.3-.3-.8-1.1-1.3-1-.2 0-1.7.1-1.5.4 0 .3 1 1.1 1.3 1 .3 0 1.8-.1 1.5-.4zM-12.9 18.3c-.4-.4-1.4 0-1.8 0-.4.1.6 1 .7 1.1.4.4 1.4 0 1.8 0 .5-.1-.5-1-.7-1.1z"/><g clip-rule="evenodd" stroke="#871818"><path fill-rule="evenodd" fill="#C42A1F" stroke-width=".724" d="M-18.5 18.7l-.1-1-.1-1-.1-1v-.1c0-.1 0-.3-.1-.5 0-.2-.1-.4-.1-.5 0-.1-.1-.2-.1-.4l-.1-.3c0-.2-.1-.4-.2-.6v-.30000000000000004l-.2-.7-.1-.3-.1-.3-.7-2.3c-.1-.2-.1-.4-.2-.5-.4-1.3-.5-2.6-1.6-3.4-.1-.1-.3-.2-.4-.2-.3-.3-.5-.3-.7-.4-.2-.1-.4-.1-.6-.1h-.3c-.2 0-.5-.1-.8-.1-.2 0-.4-.1-.5-.1 0 0-.1 0-.1-.1-.1 0-.1 0-.2-.1-.1-.2-.2-.3-.3-.4-.1-.1-.2-.2-.2-.3 0 0 0-.1-.1-.1l-.3-.7-.5-1.1c0-.1-.1-.2-.2-.4l-.5-1.1-.1-.2h-11.9v6.2c.8.6 1.5 1.2 1.8 2.5.3.9.3 1.8.6 2.6.3.9 1 1.6 1.5 2.4 1.1 1.5 1 2.9 1.5 4.7.3 1.2 1 2.4 1.6 3.5.1.1.1.2.2.4l.1.2c.1.2.2.3.3.4l.3.4c.8 1 1.7 1.9 3 2.4 2.1.8 4.2.7 6.2-.1.6-.2 1.1-.5 1.6-.8.1 0 .2-.1.2-.1.7-.5 1.4-1 2-1.6 1.6-1.6.7-2.7.6-4.5zM40 5.7v-5.7h-30.7c-.1.3-.1.7-.1 1.1v.4l.1.8c.1.8.2 1.6.4 2.3 0 .1 0 .3.1.4.3 1.8.6 3.6 1.1 5.4.4 1.7 1.4 2.4 2.3 3.7.2.3.4.8.5 1.2l.8 2.2c.6 1.4.6 2.7.5 4.1v.1c0 .3 0 .6-.1.9-.1 1.5-.6 3-.6 4.6 0 .4 0 .8.1 1.2.4 0 .8 0 1.2-.1.6-.1 1.1-.3 1.7-.5.1 0 .2-.1.2-.1l.6-.3.8-.5.3-.2.6-.5.6-.4c.1-.1.2-.2.4-.3.1-.1.2-.2.3-.2l.1-.1c1.3-1.1 2.4-2.4 3.5-3.7l.5-.6c.4-.4.7-.9 1.1-1.4l.1-.1c.4-.6.9-1.1 1.4-1.6l.2-.2c.3-.3.7-.5 1-.7.4-.2.7-.4 1.1-.5l.6-.3c.5-.2 1-.4 1.4-.7 1.5-.8 2.5-1.9 3.5-3.2 1-1.3 2.2-2.7 2.8-4.2v-.2c.4-1 .6-1.5 1.1-1.8l.5-.3z"/><path stroke-width="1.931" d="M14.1 22l.8-.5 2.9-1c.6-.3 1.3-.6 2-.8.7-.3 1.5-.5 2.2-.7l.4-.1c.6-.2 1.1-.3 1.6-.6h.2c.7-.3 1.3-.7 1.9-1.1 0 0 .1 0 .1-.1.2-.1.4-.2.5-.4.4-.3.7-.6 1-.9.3-.2.5-.5.8-.8.5-.5.9-1.1 1.3-1.6.1-.1.1-.2.2-.2.3-.5.6-1 .9-1.6 1.2-2.5 1.8-5.2 3.4-7.6.7-1.1 1.5-2 2.5-2.8.5-.4.9-.9 1-1.4M29.8 0l-.4 2.5c-.3 1.1-.7 2.2-1.4 3.2l-.1.3c-.3.5-.7.9-1.1 1.3-.3.3-.6.6-.9.8-.1.1-.3.2-.5.4-.4.3-.8.5-1.2.7-.2.1-.4.2-.6.4-.8.4-1.7.8-2.6 1.1-.8.3-1.7.5-2.6.6-.5.1-1 .2-1.6.3h-.1c-.8.1-1.6.2-2.4.2h-2.2M-32.2 17.5c1.8 1.3 5.6.8 7.6.7h.1c.7 0 1.8-.1 2.9-.4l1.2-.3.3-.1.7-.3c.2-.1.5-.3.7-.5.3-.2.5-.5.6-.8.1-.1.1-.3.2-.5l.1-.5v-.2c0-.2 0-.4-.1-.5 0-.1-.1-.2-.1-.2 0-.1-.1-.2-.2-.3-.1-.1-.2-.2-.4-.3-.2-.1-.5-.1-.8-.2h-.7c-.1 0-.2 0-.3.1-.1 0-.2 0-.3.1-.4.1-.8.2-1.1.3-.1 0-.1 0-.2.1-1 .3-1.9.7-2.3.7-2.8.4-6.3-1.6-7.7-4l-2-4.1c-.9-1.4-2-2.7-3.3-3.8-.7-.5-1.7-1-2.7-1.7M-30.1 5.2c.1-2-.9-3.7-2.1-5.2" fill="none"/></g><g clip-rule="evenodd"><path fill-rule="evenodd" fill="#F2D8C0" d="M4.4 31.6c-1.1-2.5-3.2-3.1-5.8-2.9-1.5.1-3 .6-4.4 1-1 .3-2.1.6-2.9 1.3-.7.6-1.5 1.7-1.7 2.7-.2.9.3 1.9.5 2.9.1.6 1.1.1 1.5 0l8.9-1.8c1.2-.3 2.4-.5 3.7-.8l.8-.2c.2 0-.5-1.9-.6-2.2-.1-.3.3.5 0 0z"/><path stroke="#000" stroke-width=".483" d="M-9.9 36.9c-.3-1.6-.9-2.9 0-4.4 1.3-2 3-2.4 5.1-3.1 2-.6 4.7-1.2 6.8-.5 1.9.7 2.7 2.9 3 4.8" fill="none"/></g><path fill-rule="evenodd" clip-rule="evenodd" fill="#fff" stroke="#1A171B" stroke-width=".483" d="M2.8 31c-1-.8-2.2-1.3-3.4-1.5-.8-.2-1.2-.3-.9-1.2.1-.4.6-.7.9-1-.7-.4-1.5-.9-1-1.8.4-.8 1.4-.6 2-1.2-1.3-.8-.6-3.6 1.1-2.9-1-1.8 2.4-2.4 3.3-1 .2.5.2.2.8.1.6 0 1.3.1 1.8.4.8.4 1.3 1 .5 1.7 1.1-.1 2.6 1 2.1 2.2 1.4-.5 2.5 1.3 2.3 2.5 1.4.1 2.3 1.1 1.7 2.5-.5 1.2-2.1 1.7-3.1 2.3-1.2.9-2.6 2.2-4.3 1.9-1.6-.3-2.6-2-3.8-3-.5-.5.3.2 0 0zM-3.3 22.4c.2-.7.7-1.3.2-2-.4-.6-1.4-1-2.1-.5-.7-1-2.8-1.8-2.7.1-.6-.3-1.3-.7-2-.7-.8.1-1.8.9-1.1 1.7-.5-.3-1.4-.6-2-.3-.5.3-.7 1.7 0 1.9-1 0-1.5-.1-2.2.7-1 1-.1.8.4 1.7-1.4-1-3.5.7-2 2.1-.7 0-1.6-.2-2.3.2-.6.4-.7 1.4-.1 1.9-1 0-2 1-1 1.9.5.4 1.4.5 2 .7 1.5.4 3 1 4.4 1.7 1.3.6 2.6 2.1 4 1.1 1.8-1.4 3.8-3.3 5.9-4.1 1-.4 2.2-.7 3.2-.7.1-.8.7-2.8-.4-3.1 1.1-1.1.1-1.6-.7-2.1 1.5-.8-.5-2.2-1.5-2.2.1-.3.6 0 0 0z"/><g fill-rule="evenodd" clip-rule="evenodd" fill="#1A171B"><path d="M11.1 26.5c0-.6-.8-.6-.8 0s.8.6.8 0zM13 29.2c0-.4-.6-.4-.6 0s.6.4.6 0zM-18.8 30.3c0-.4-.7-.4-.7 0s.7.4.7 0zM-17.4 28.3c0-.5-.8-.5-.8 0s.8.5.8 0zM-15.5 26c0-.4-.7-.4-.7 0-.1.5.7.5.7 0zM-14.2 24c.3.3.8-.2.5-.5-.3-.3-.8.2-.5.5zM-11.5 21.8c0-.5-.8-.5-.8 0s.8.5.8 0zM-9.3 20.8c0-.5-.7-.5-.7 0 0 .4.7.4.7 0zM-6 20.3c0-.4-.6-.4-.6 0s.6.4.6 0zM-4.6 21.5c.3.3.9-.2.5-.5-.3-.3-.8.2-.5.5zM-2.5 23.8c0-.4-.7-.4-.7 0-.1.3.7.3.7 0zM-1.9 26.3c0-.4-.6-.4-.6 0s.6.4.6 0zM.4 25.9c0-.5-.9-.5-.9 0s.9.5.9 0zM1.3 22.8c0-.4-.6-.4-.6 0 0 .5.6.5.6 0zM3.5 21c0-.5-.8-.5-.8 0-.1.4.8.4.8 0zM6.7 22c0-.5-.9-.6-.9 0-.1.6.9.5.9 0zM8.7 24.3c0-.4-.7-.4-.7 0 .1.5.7.5.7 0z"/></g><path fill-rule="evenodd" clip-rule="evenodd" fill="#1A171B" d="M9.1 25.9c0-.5-.8-.5-.8 0s.8.5.8 0zM7.9 25.2c0-.5-.8-.5-.8 0s.8.5.8 0zM6.7 24.6c0-.5-.8-.5-.8 0s.8.5.8 0zM5.4 24.2c.4-.4-.2-.9-.5-.5-.4.3.2.8.5.5zM4.4 23.1c0-.5-.8-.5-.8 0s.8.5.8 0zM3.3 22.5c0-.5-.8-.5-.8 0 .1.5.8.5.8 0zM2.8 23.7c0-.5-.8-.5-.8 0s.8.5.8 0zM2.2 25c0-.5-.8-.5-.8 0 .1.5.8.5.8 0zM1.7 26.3c0-.5-.8-.5-.8 0 .1.5.8.5.8 0zM1.2 27.5c0-.5-.8-.5-.8 0s.8.5.8 0zM.7 28.8c0-.5-.8-.5-.8 0 .1.5.8.5.8 0zM-1.9 29.8c0-.5-.8-.5-.8 0 .1.5.8.5.8 0zM-2.5 28.6c0-.5-.8-.5-.8 0s.8.5.8 0zM-3.1 27.3c0-.5-.8-.5-.8 0s.8.5.8 0zM-3.6 26.1c0-.5-.8-.5-.8 0s.8.5.8 0zM-4.3 24.9c0-.5-.8-.5-.8 0 .1.5.8.5.8 0zM-4.9 23.7c0-.5-.8-.5-.8 0s.8.5.8 0zM-5.9 22.7c0-.5-.8-.5-.8 0 .1.5.8.5.8 0zM-6.8 21.8c.4-.4-.2-.9-.5-.5-.4.4.2.9.5.5zM-7.8 21.8c0-.5-.8-.5-.8 0 .1.5.8.5.8 0zM-8.7 22.8c0-.5-.8-.5-.8 0 .1.6.8.6.8 0zM-9.8 23.6c0-.5-.8-.5-.8 0 .1.5.8.5.8 0zM-10.9 24.4c0-.5-.8-.5-.8 0s.8.5.8 0zM-11.9 25.3c0-.5-.8-.5-.8 0s.8.5.8 0zM-12.9 26.3c0-.5-.8-.5-.8 0s.8.5.8 0zM-14.3 27.6c.5 0 .5-.8 0-.8s-.5.8 0 .8zM-14.9 28.1c0-.5-.8-.5-.8 0s.8.5.8 0zM-15.7 29.2c0-.5-.8-.5-.8 0s.8.5.8 0zM-16.6 30.3c0-.5-.8-.5-.8 0 .1.5.8.5.8 0zM-17.5 31.3c0-.5-.8-.5-.8 0 .1.5.8.5.8 0z"/><g fill-rule="evenodd" clip-rule="evenodd"><path fill="#fff" stroke="#1A171B" stroke-width=".724" d="M-27.5 28c-.2.1-.4.2-.6.4.4.4 1.2.4 1.7.5.6.1 1 .6 1.7.5-.1.3-.1.4.2.5.4.1.2.2.5.3.9.1 1.8-.2 2.6-.6 1.6-.7 3-2 4.2-3.3 1.4-1.5 3-3.1 3.6-5.1.2-.8.3-1.7.4-2.5.1-.9.3-1.1-.5-1.6-1.7-.9-3.6-1.3-5.5-1.9-2.1-.6-3.6.7-4.8 2.3-2.3 3.3-6.5 2.7-9.6 4.9l1.1.1-.6.4c.4.3 1 .2 1.4.2-.3.3-.8.5-1 .9l.9.3.6.8c.3.1.6.3.6.6 0 .6.5.4 1 .6-.1.2-.2.3-.3.4l1 .4c-.1.2-.2.3-.3.4.8.1 1.4.1 1.7.5zM21.1 25c-.3-.9.2-2.3-.1-3.3-.3-.7-.7-1.3-1.1-1.9l-.1-.1c-.4-.5-1-1.2-1-1.8.2.1.4.1.6.1 0-.6-.3-1.1-.4-1.6h.2c0-.8-.4-1.6-.6-2.4-.2-.7-.1-1.5-.1-2.2 0-.2 0-.4-.1-.5-.2-1.5-1.1-2.8-1.8-4.1-.8-1.5-1-2.9-1-4.6 0-.9-.1-1.8-.7-2.6 0 0 0-.1-.1-.1h-9.1c0 .4.1.7.2 1.1.3 2 .5 4 .5 6 0 .5.1 1.1.1 1.8l.1 1.3c0 .7 0 1.4-.2 2 0-.1 0-.1.1-.2.1.4.1.8.1 1.1 0 .3 0 .6.1.9v.1l.1-.3c.1.2.2.5.2.7.2.9.3 1.8.3 2.7v2c0 .5-.1 1.1-.1.7 0 .4.1.8.2 1.2.1.2.1.5.2.8 0-.2 0-.4.1-.7v-.1.1c.3.5.2 1.1.4 1.7-.1 0-.1.2.1.4.2-.1.3-.3.3-.5.1-.2.1-.3.1-.5l.2.6.6 2.2c.3 1 .8 1.9 1 2.9.1.5.2 1 .4 1.4.2.5.3 1 .6 1.5 0 .1.1.2.1.2.2.3.3.5.5.5.3.2.5 0 .7-.4.1-.2.2-.4.2-.6l.2.3s0 .1.1.1c.1.2.2.3.4.3.1-.3.2-.6.3-.8.2-.4.5-.6 1.2-.1-.6-.4.4-2.5 1.3-1.4.1-.6.3-1.1.7-1.5.1-.1.2-.1.2-.1.3 0 .5.6.6.9.3-.3.4-1.3.7-1.7.1-.1.2-.2.3-.2.2 0 .3.1.5.4 0-.3 0-.6.1-.9.1-.3.2-.5.6-.4.1 0 .2 0 .4.1-.1-.1 0-.2 0-.4.1-.2.2-.3.2-.3.2.2.3.3.4.2 0 .2.1.2.1.3 0 0-.1-.1-.1-.3z"/><g fill="#1A171B"><path d="M-15.5 24.6c.2-.7-.5-1.9-.5-2.7 0-.7-.4-1.6-.3-2.3 0 .1-.5 1.1-.4.8-.7 1.6-1.5 2.4-1.8 4.1.2-.6.7-.7 1-1.2l.7-1.4c-.4.6 1.1 2.6 1.1 3.2.1-.2.2-.3.2-.5.1-.2 0 .2 0 0zM-26.9 25.5c.6.1 1.1-3.5 1.9-4-1.4.9-2.5 1.6-3.9 2.7 0 0 1-.6.8-.4.5-.4 1.2-.7 1.8-.7-.6 0-1.7 2.7-.4 2.1 0 .2-.1.3-.2.3.2.1.1 0 0 0zM-18.6 19.2c.2-.4-.5-1.4-.7-1.8-.5-1-.4-1.6-.4-2.6l-2.1 3.4c1.2.4 1.1-.7 1.7-1.2-.4.4 1.3 2.6 1.5 2.2zM10.9 3.9c.4.2.8.5 1.1.9-.6-1.6-2-2.6-3-3.9.3.8.3 1.6.2 2.5 0 .3-.3 1.8 0 2 .4.2.7-2.3.7-2.4l1 .9c.6.3-.5-.4 0 0zM10.5 16.1c.3.3.7.6.9 1.1-.1-1.7-1.5-2.9-2.3-4.4.5 1-1.2 3.9-.7 4.5.3.3 1.2-2.1 1.2-2.3.2.5.5.8.9 1.1.5.5-.5-.4 0 0zM16 10.9c.3.3.7.6.9 1.1-.1-1.8-1.7-2.8-2.3-4.4.2.8-1.1 4.1-.6 4.5.3.3 1.1-2.1 1.1-2.3.2.4.6.8.9 1.1.5.4-.4-.4 0 0zM16.7 19.9l.1.2c.4-.5 0-2.4.3-2.6-.1.1 1.4 1.7 1.5 1.9l-1-2.2c-.3-.7-1.1-1-1.4-1.8.1.5.6 4.5.4 4.6.1 0 .1 0 .1-.1zM15.2 26.4c.3-.4.6-.8.6-1.2.2.6.5.7.8 1.2.1.1.8.9.8.9 0-.7-.5-1.3-1-1.7-.6-.6-.7-1.9-.6-2.7-.3 1.6-1.7 3-1.4 4.7.2-.4.5-.8.8-1.2.3-.4-.4.5 0 0zM-24.6 28.4c.6-.8 1.9-1 2.4-1.8-.3.7.1 1.3.1 2l-.1.5c0 .4.5 0 .6.1.3.8.1-1.3.1-1.6 0-.3.6-2.7.2-2.3.2-.2.1-.7.3-1l-.3.4c-.3.4-.3.2-.4.2-1.1.5-2.5 2.4-2.9 3.5.1-.2.1-.4 0 0zM9.7 23c-.4 0-.7 0-.7-.4 0 1.4 1.2 2.1 2.3 3-.3-.4-.1-.9-.3-1.3-.2-.3-1.1-1.3-1.3-1.3z"/></g></g><g clip-rule="evenodd" stroke="#ACA132" stroke-width=".483"><path fill-rule="evenodd" fill="#50370E" d="M5.3 49.5c.5 2.2 2.5.8 3.2-.6.7-1.7.5-3.5.5-5.3 0-1.6.5-3.3 1.8-4.4.8-.7 1.9-.8 2.3-1.8.6-1.2-.2-2.4-1.3-2.9 2.2-1.2 3.6-4.7.1-5.3-.4-.1-.9-.1-1.3.1s-.4.9-.9.5c-.3-.2-2.8-.7-2.2.3-.4-.6-1.1-.9-1.8-1.1-1.2-.3-1.4.5-2.3.9.8-.3 1.2.4 1 1.1-.2 1-1.5 1.3-1.6 2.4 0 .7.8 1.7 1.1 2.2.6.9.7 2 1.1 2.9.2.7.6 1.3.9 2 .3 1-.2 2-.5 3-.5 2-.6 4-.1 6 .2.9-.1-.5 0 0z"/><path d="M6.5 42.7c.1-1 .1-2.1.3-3.1.2-1.2 1.1-2 1.4-3.1.2-.6 0-1.3-.4-1.8-.3-.3-1.1-.6-.7-1.1.8-1.1 1.1-2.6.3-3.8M9 44.4c-.2-2.1-.9-4.6 1-6.1.7-.6 2.3-1.3 1.5-2.5-.5-.7-1.5-.9-2.2-1.3.8.4 2.2-1.2 2.3-1.8.2-1.4-1-2.7-2.2-3" fill="none"/></g><g clip-rule="evenodd"><path fill-rule="evenodd" fill="#F2D8C0" d="M-3.2 57.6c3.2.7 7.7.1 9.4-3.1.6-1.1 1.2-2.8 1.2-4 0-.8-.1-1.6-.4-2.4-.3-.9 0-1.6.1-2.5.3-3.4-1.3-6.5-1.9-9.8-.7-3.8-4.5-4.7-7.6-2.8-2.1 1.3-4.1 2-6.5 2.5-.5.1-1.9.1-1.8.6.2 1.6 1.1 2.9 1 4.5 0 .8-.2 1.7 0 2.5s.3 1.6.3 2.4c0 .7-.3 1.3-.2 2 .2.8.2 1.5.1 2.3-.2 1.6 0 3.2.5 4.8.7 2 2 2.5 3.9 2.8.6-.2 1.2 0 1.9.2.8.1-1.1-.3 0 0z"/><path stroke="#000" stroke-width=".483" d="M-6.5 34.9c1.2-.6 2.5-1.1 3.7-1.8 1.1-.7 2.8-1.3 4.1-1.2 3.6.3 3.9 4.7 4.8 7.3.4 1.2.7 2.5.9 3.8.1.7.2 1.4.1 2.2 0 .7-.4 1.7-.3 2.4.6 2.5.7 5.7-1.2 7.8-2.3 2.4-5.7 3-8.8 2.3-1.3-.3-2.9-.3-4.1-1-1.5-.8-2-2.7-2.2-4.3-.2-1.5.2-2.9 0-4.3 0-.6-.3-1-.1-1.6.1-.8.2-1.5 0-2.3-.3-1.6-.1-3-.2-4.6-.1-.7-.4-1.3-.7-2-.3-.6-.2-1.3-.3-1.9" fill="none"/></g><g stroke="#ACA132" stroke-width=".483"><path fill="#50370E" d="M-3.5 33.6h-.1m6.8-2.7c-.1-.4-.3-.7-.6-1-.5-.7-1.2-.9-1.9-1h-.8c-.2 0-.3 0-.5.1-.1 0-.2 0-.4.1h.4c.3.1.6.2.7.5.1.2.2.4.2.7v.2c-.1.6-.7.9-1.2 1.1s-.8.6-1.3.8c-.4.2-.7.5-.9.8-.1.1-.3.3-.5.4.6-.2 1-.1 1.6-.2.5-.1 1.1-.3 1.7-.1-.1.2-.3.5-.4.8.4 0 .9-.7 1.3-.5.3 0 .4.7.4 1.1v.2c0-.1.1-.2.2-.2.1-.1.2-.3.2-.4l.4.3c.2.1.4.2.5.4v.1c0-.2 0-.4.1-.6l.2-.4.3.3c.1.1.2.2.2.3v-.2c0-.1 0-.1.1-.2.1-.4.4-.9.7-1h.1c.1 0 .2 0 .3.1-.2-.3-.4-.7-.5-1-.1-.2-.2-.4-.2-.7l-.4-.8"/><path fill-rule="evenodd" clip-rule="evenodd" fill="#50370E" d="M5.7 38c-.7-.4-1.7-.6-2.5-.3-.8.5-1.2.3-2.2.1-.9-.2-2-.8-2.9-.5-1.2.3-2.3 1-2.5 2.4 1.3-1.8 3.3-.8 4.9 0 1 .3 2.1.3 3-.2.9-.5 2-1.3 2.8-.1.1-.6-.1-1.1-.6-1.4-.3-.2.5.3 0 0zM-6.5 57.8c.6 0 2.1-.2 2.2-1 .1-.6-.6-1.2-.9-1.6-.5-.8-1.2-1.5-1.4-2.5-.2-.8.3-1.6-.1-2.3-.2-.8.7-1.7 1-2.4.5-1.2-.4-2.1-1.3-2.8-.6-.5-1.4-1.1-1.6-1.9-.2-.8.8-1.9 1.5-1 0-.5.2-1.3-.2-1.7-.4-.3-1.4-.3-1.3-1 .1-.7.6-1.1.5-1.9-.1-.8-.8-1.3-1.5-1.7 1-1.2.7-3.8-.2-5.1-.6-.8-1.4-1.6-2.4-1.9-.5-.2-1.4.1-1.6-.5-.3-.9-.3-1.6-1.4-1.7-1-.1-2.1.3-2.8.9l-1.5 1.8c-.7.5-2.1.2-1.3-.8-1.5.4-2.4 2.4-1.4 3.6 1 1.3 3.1.1 4.2-.6.1.6-.4 1.1-.6 1.6-.2.7-.1 1.5 0 2.2.3 1.4 1.9 1.8 2.2 3.1.3 1.2-.3 2.8.7 3.7 1.2 1.2.8 2.4 1.1 3.9.2 1.2.8 2.5 1.3 3.6.3.7.7 1.2.8 1.9.1.7-.2 1.2-.2 1.9 0 .6.4 1.1.9 1.3.7.4.7.6 1.2 1.2.8 1.6 2.5 1.8 4.1 1.7.9 0-.7.1 0 0z"/><path clip-rule="evenodd" d="M-9.4 36.2c-1.7-1.1-3.9.6-5.5 1.2-1 .4-1.7 1.4-1.3 2.5.4 1 1.5 1.3 2.4 1.5-.7 1.8-.5 2.7.5 4.3.8 1.3 1.8 2.6 2 4.1.2 1.4.1 2.9.5 4.3.3 1.2 1.8 3.5 3.4 3.1.9-.2-1.4-7.7-1.7-8.6-.2-.7-.1-1.4-.4-2-.5-.9-1.2-1.6-1.5-2.6-.4-1.6 1-4.4 3-3.8M-21.3 28.9c-1.6 1.5 1.1 2.7 2.4 1.8.7-.5 2.3-3.2 3.1-1.6.4.7-.4 1.4-.7 2-.3.8-.5 1.7-.1 2.5.8 1.4 2.2 2.4 3.6 3.2" fill="none"/></g><g clip-rule="evenodd" stroke="#000" stroke-width=".483"><path d="M7.5 48.5c-.1.1-.2.1-.4.2h-.1c-.6.3-1.2.4-1.9.4-.2 0-.5 0-.7-.1-.6 0-1-1-1.3-1.6-.4-.9-.1-2.4 0-3.4.1-.6.1-1.4.4-2 .3-.5.7-1.6-.1-1.9-.4-.1-.7.1-1 .2l-1.3-.2c-1-.1-1.4.7-1.2 1.5m2.2-1c-.2.2-.9-.3-1.1-.2.1-.2.6-.1.8 0h.1c0-.1.3.1.2.2z" fill="none"/><path fill-rule="evenodd" fill="#154B66" d="M-1.1 46.6c0-1.1-1.6-1-1.5.1 0 1.1 1.5 1.1 1.5-.1zM5.3 46.8c.1-.9-1-1.4-1.1-.3-.1.9 1 1.3 1.1.3.1-.2 0 .2 0 0z"/><path d="M.6 48.8c-1.9 0-3.7 1.6-5.4-.2M3.5 46c.4.5.3 1.4 1.1 1.4s1.4-.8 2.1-.6M-4.5 46.6c1.2.1 2 1.2 3.2 1.1.4 0 1 .1 1.3-.3.3-.4.3-1 .5-1.4M.2 36.7c.7-.3 3-1.6 3.1.2" fill="none"/></g><g clip-rule="evenodd"><path stroke="#000" stroke-width="2.173" d="M-22.8.6h-5.1c0 6.5 3.2 12.8 9.7 15.1 9.8 3.3 17.4-6.7 17.4-15.7" fill="none"/><path fill-rule="evenodd" fill="#009BDB" d="M-1.1 3.7c-4 20-27 13.9-26.9-3.7 9.1-.1 18.2 0 27.3 0-.2 1.2-.3 2.5-.4 3.7-.1.1.2-1.2 0 0z"/><path stroke="#DEDE00" stroke-width=".966" d="M-22.9 0h-5.1c.6 22 26.1 21.3 27.3 0" fill="none"/></g><g fill-rule="evenodd" clip-rule="evenodd"><path fill="#f00" d="M-2.8 1.6c-.3.3-1.5 1-1.6 1.4-.1.4.9 1.6 1.1 2 .3-.3 1.6-1 1.6-1.4.1-.4-.9-1.6-1.1-2z"/><path fill="#DEDE00" d="M-1.2 3.7s0 .1-.1.2c-.3.4-1.3 1.1-1.8 1.4-.1.1-.2.1-.2.2 0 0 0-.1-.1-.1l-.1-.1s0-.1-.1-.1l-.1-.3c-.5-.7-1.2-1.5-1.1-1.9.1-.4 1.1-1.1 1.7-1.5.1-.2.2-.3.3-.3l.1-.1.1.2c0 .1.1.1.2.2l.3.4c.4.6.9 1.4.9 1.8zm-2.8-.6c.3.5.5.9.8 1.3.2-.1 1.2-.8 1.1-.9-.2-.4-.4-.7-.7-1.1l-.1-.2c-.3.3-.7.6-1.1.9z"/></g><g fill-rule="evenodd" clip-rule="evenodd"><path fill="#f00" d="M-4.7 8.2c.2-.1 1.9-.7 1.9-.8l-.6-2.3c-.2.1-1.9.7-1.9.8l.6 2.3z"/><path fill="#DEDE00" d="M-4.5 8.5l-.3.1c-.1 0-.1 0-.1.1v-.2l-.1-.4-.6-2.4c0-.1 1.2-.5 2-.8l.3-.1h.1c0 .1 0 .2.1.2 0 .1.1.2.1.4l.6 2.3c-.1.1-1.4.5-2.1.8zm.8-2.9c-.4.2-.8.4-1.3.6l.4 1.6h.1c.3-.1 1.2-.4 1.2-.5-.1-.5-.2-1-.4-1.4.1-.2.1-.2 0-.3z"/></g><g fill-rule="evenodd" clip-rule="evenodd"><path fill="#f00" d="M-4.8 10.9v-2.4s-1.8-.2-2 0c-.3.3 0 2 0 2.4h2z"/><path fill="#DEDE00" d="M-6.5 11.2h-.5c-.1 0-.2-.1-.2-.1v-.3c-.1-.8-.2-2.4 0-2.7.2-.1 1.3-.1 2 0h.6v3c-.2.1-1.2.2-1.9.1zm1.4-2.4c-.1-.1-1.4 0-1.4 0v1.6h.2c.4 0 1.2 0 1.2-.1s.1-1.3 0-1.5z"/></g><g fill-rule="evenodd" clip-rule="evenodd"><path fill="#f00" d="M-6.8 11.3c-.6-.3-1.2-.5-1.9-.8l-.6 2.3c0 .1 1.7.7 1.9.8.2-.8.4-1.6.6-2.3z"/><path fill="#DEDE00" d="M-6.5 11.2c-.2 1-.5 1.9-.7 2.8-.2-.1-1.4-.5-2-.8-.1 0-.2-.1-.2-.1h-.1c-.1 0-.1-.1-.1-.1v-.2c0-.1.1-.2.1-.4l.6-2.4 1.8.7.4.2.3.1c0 .1-.1.2-.1.2zm-2.4 1.4s.1.1.2.1c.3.2 1 .3 1.1.4.1-.3.5-1.4.4-1.6-.2-.2-1-.4-1.3-.5-.1.3-.5 1.3-.4 1.6z"/></g><g fill-rule="evenodd" clip-rule="evenodd"><path fill="#f00" d="M-9.5 12.9l-1.9-.7-.6 2.3c0 .1 1.7.7 1.9.8l.6-2.4z"/><path fill="#DEDE00" d="M-9.1 12.9c0 .2-.1.3-.1.4l-.6 2.3v.1h-.1c-.3-.1-.6-.2-.8-.3l-1.5-.6.1-.5.1-.5c.2-.7.4-1.4.5-2 .1 0 .5.2 1 .4.4.1.8.3 1 .4l.3.1c.1 0 .1.1.1.1v.1zm-2.1-.2c-.1.2-.4 1-.4 1.4v.2c.1.1.5.3.9.4.2 0 .3.1.4.1.1-.2.4-1 .4-1.4v-.2c-.1-.1-.4-.2-.8-.3-.1-.1-.3-.2-.5-.2z"/></g><g fill-rule="evenodd" clip-rule="evenodd"><path fill="#f00" d="M-12.3 14.1l-1.6-1.4c-.4.6-.8 1.3-1.1 1.9-.1.1 1.4 1.3 1.6 1.4l1.1-1.9z"/><path fill="#DEDE00" d="M-12 14.2l-.3.6c-.3.6-.7 1.2-1 1.7-.1-.1-.3-.3-.6-.5-.4-.3-.9-.8-1.2-1-.1-.1-.1-.1-.1-.2l-.1-.1.1-.2v-.2l.3-.4.5-.8v-.1l.5-.9 1.5 1.3.4.3c.1.1.2.1.2.2l-.2.3zm-.7-.2c-.2-.3-.9-.7-1.1-.9-.1.2-.8 1.1-.8 1.3 0 .2.7.7 1 .9l.1.1c.1-.2.6-.8.8-1.1v-.3z"/></g><g fill-rule="evenodd" clip-rule="evenodd"><path fill="#f00" d="M-15.2 14.4l-1.2-1.9c-.3.3-1.6 1-1.6 1.4-.1.4.9 1.6 1.2 2 .5-.6 1-1.1 1.6-1.5z"/><path fill="#DEDE00" d="M-14.8 14.5c0 .1 0 .1-.1.2l-.2.3c-.1.1-.2.2-.4.3-.2.2-.5.4-.8.6-.2.2-.4.3-.5.4-.1-.2-.2-.4-.4-.6l-.5-.9v-.1l-.3-.5-.2-.3-.1-.1s.1-.1.2-.1l.2-.2 1.2-1 .5-.4c0 .1.1.2.2.3l1.2 1.7s0 .1.1.1c0 .1.1.2.1.2-.2-.1-.2 0-.2.1zm-2.4-1c-.2.2-.4.4-.3.4 0 0 0 .1.1.1l.7 1.2c.1-.1.7-.6 1-.8.1-.1.1-.2.1-.2l-.8-1.3c-.1.1-.5.4-.8.6z"/></g><g fill-rule="evenodd" clip-rule="evenodd"><path fill="#f00" d="M-18.2 13.8l-.6-2.3c-.2.1-1.9.7-1.9.8l.6 2.3 1.9-.8z"/><path fill="#DEDE00" d="M-17.9 14.1l-.2.1c-.2.1-.6.2-1 .4-.4.1-.8.3-1 .3h-.1v-.2c-.1-.3-.2-.6-.2-.9l-.2-.6c0-.2-.1-.4-.1-.5l-.1-.5v-.2l.3-.1c.2-.1.5-.2.8-.3.6-.2 1.2-.4 1.3-.5l.1.3c.2.7.4 1.3.5 2 0 .1 0 .2.1.3l.1.3c-.2 0-.2 0-.3.1zm-1.1-1.9v-.2c-.1 0-.4.1-.7.2-.3.1-.6.2-.6.3v.2l.1.4.1.3.2.6c.1 0 .4-.1.6-.2.2-.1.5-.2.6-.2.1 0 .1-.1.1-.1 0-.1 0-.2-.1-.2-.1-.4-.1-.8-.3-1.1z"/></g><g fill-rule="evenodd" clip-rule="evenodd"><path fill="#f00" d="M-21 12.4v-2.4s-1.8-.2-2 0c-.3.3 0 1.9 0 2.4h2z"/><path fill="#DEDE00" d="M-20.9 12.8h-2.1c-.2 0-.3-.1-.3-.1v-.2c0-.5-.2-1.6-.1-2.3v-.4s0-.1.1-.1c0 0 .1 0 .1-.1h1c.7 0 1.4.1 1.4.2v3h-.1zm-1.8-2.3c0 .5-.1 1.3 0 1.5h1.2999999999999998c.1-.3 0-1.6 0-1.6-.1-.1-.4-.1-.7 0h-.6v.1z"/></g><g fill-rule="evenodd" clip-rule="evenodd"><path fill="#f00" d="M-23.1 7.4h-2c0 .4-.3 2.1 0 2.4.1.1 2-.1 2 0v-2.4z"/><path fill="#DEDE00" d="M-23 10.1h-.4l-1.7.1h-.3c-.1-.1-.1-.4-.1-.7 0-.8.1-2 .1-2.4h2.6v3.1c0-.1-.1-.1-.2-.1zm-1.6-2.4h-.2c-.1.1-.1 1.6 0 1.7.1.1.9 0 1.2 0h.1c0-.3.2-1.5 0-1.7h-1.1z"/></g><g fill-rule="evenodd" clip-rule="evenodd"><path fill="#f00" d="M-24.9 6.9l.6-2.3c0-.1-1.7-.7-1.9-.8l-.6 2.3c0 .1 1.7.7 1.9.8z"/><path fill="#DEDE00" d="M-24 4.8c-.2.8-.4 1.5-.6 2.2l-.1.3h-.1c-.1 0-.4-.1-.6-.2-.6-.2-1.3-.5-1.6-.6-.1-.1-.2-.1-.2-.1v-.2l.6-2.5c0-.1 0-.2.1-.2 0 0 .1.1.3.1h.1l.3.1c.7.3 1.8.7 1.8.7.1.1 0 .2 0 .4zm-1.1-.2c-.2-.1-.5-.1-.6-.2h-.30000000000000004c-.1.3-.5 1.3-.4 1.6.1.2.8.4 1.2.5h.1c.1-.3.5-1.3.4-1.6 0-.2-.2-.2-.4-.3z"/></g><g fill-rule="evenodd" clip-rule="evenodd"><path fill="#f00" d="M-26 3.5c.4-.6.8-1.3 1.1-1.9.1-.1-1.4-1.3-1.6-1.4-.4.6-.8 1.3-1.1 1.9-.1.1 1.4 1.2 1.6 1.4z"/><path fill="#DEDE00" d="M-25.7 3.6l-.2.3s0 .1-.1.1l-.2-.2-.3-.2-.1-.1c-.5-.4-1.1-1-1.4-1.2v-.1s0-.1.1-.1c.2-.2.3-.5.4-.7l.7-1.2v-.1c0-.1.1-.2.2-.3 0 0 0-.1.1-.1l.1.1c.1 0 .2.1.3.2.6.5 1.6 1.4 1.6 1.5l-1.2 2.1zm-.7-2.9s0 .1-.1.1c-.2.3-.8 1-.7 1.2 0 .2.6.6 1 .9.1 0 .1.1.1.1.2-.2.9-1.1.8-1.3 0-.3-.8-.8-1.1-1z"/></g><g fill-rule="evenodd" clip-rule="evenodd"><path fill="#f00" d="M-2.4 1.6s-.1 0-.1-.1l-.2-.1c-.1 0-.1-.1-.2-.2-.5-.4-1.1-1-1.1-1s.1-.1.1-.2h2.4c-.2.5-.5 1.1-.9 1.6z"/><path fill="#DEDE00" d="M-2.2 1.9c0 .1 0 .1-.1.2l-.4-.3h-.1l-.1-.1c0-.1-.1-.2-.2-.3-.6-.5-1.3-1.1-1.2-1.2 0-.1.1-.2.1-.2h.8s0 .1-.1.1l.9.8.2.2c.1-.2.5-.7.7-1.1h.7l-1.2 1.9z"/></g><path fill-rule="evenodd" clip-rule="evenodd" fill="#009BDB" d="M-4.5 0h-19.8c0 1.6.3 3.3.9 4.9.3.8.7 1.6 1.1 2.3.5.7 1 1.4 1.6 2 .7.7 1.4 1.3 2.3 1.7.5.3 1.1.5 1.7.7.2.1.4.1.7.2.5.1 1 .1 1.6.1h.3c.7 0 1.4-.1 2.1-.3.6-.2 1.1-.4 1.6-.7 3.7-1.9 5.8-6.6 5.9-10.9z"/><path clip-rule="evenodd" stroke="#DEDE00" stroke-width=".966" fill="none" d="M-11.2 0h-6.4M-10.1 0h5.6c0 4.3-2.2 9-5.9 11-.5.3-1.1.5-1.6.7-.7.2-1.3.3-2.1.3h-.3c-.6 0-1.1-.1-1.6-.1-.2 0-.5-.1-.7-.2-.6-.2-1.2-.4-1.7-.7-.8-.4-1.6-1-2.3-1.7-.6-.6-1.1-1.3-1.6-2s-.8-1.5-1.1-2.3c-.6-1.7-.9-3.4-.9-5h1.4"/><path fill-rule="evenodd" clip-rule="evenodd" fill="#DEDE00" d="M-6.9 0h-15.1c.1.7 1.6 1.5 1.8 2.2.2.8-.3 2.3-.4 3.1 0 .2 2.3.4 2.6.6.5.4.8 1.6 1.1 2.4 0 .2.1.3.2.4.2-.1.3-.2.4-.3l1-.6.7-.5h.1l.5.3c.6.3 1.2.7 1.8 1.1l.2-.5 1-2.3c.2-.5 2.2-.1 2.6-.6.4-.3-.2-2.6-.3-3.1 0-.7 1.6-1.5 1.8-2.2z"/><path clip-rule="evenodd" stroke="#871818" stroke-width=".483" d="M-6.9 0h-15.1c.1.7 1.6 1.5 1.8 2.2.2.8-.3 2.3-.4 3.1 0 .2 2.3.4 2.6.6.5.4.8 1.6 1.1 2.4 0 .2.1.3.2.4.2-.1.3-.2.4-.3l1-.6.7-.5h.1l.5.3c.6.3 1.2.7 1.8 1.1l.2-.5 1-2.3c.2-.5 2.2-.1 2.6-.6.4-.3-.2-2.6-.3-3.1 0-.7 1.6-1.5 1.8-2.2z" fill="none"/><path fill-rule="evenodd" clip-rule="evenodd" fill="#009BDB" d="M-10.1 0h-8.7c0 2.7 1.5 5.2 4.4 5.2 2.8 0 4.3-2.5 4.3-5.2z"/><path clip-rule="evenodd" stroke="#FC0000" stroke-width=".966" d="M-10.1 0h-8.7c0 2.7 1.5 5.2 4.4 5.2 2.8 0 4.3-2.5 4.3-5.2z" fill="none"/><path fill-rule="evenodd" clip-rule="evenodd" fill="#DEDE00" d="M-11.2.2v-.2h-6.4v.7c0 .6-.2.8.5.8.9 0 .1-.3.5-.7.3-.2 1.2 0 1.5 0 0 .2.1 1.9-.1 1.9-.3.4-.5-.4-.5.5 0 .4-.2.7.3.7.4 0 2.1.2 2.4 0 .1-.1 0-.9 0-1.1 0-.2-.6.1-.6-.4 0-.7-.4-1.6.4-1.6.2 0 .9-.1 1.1 0 .3.3-.2.7.3.7.9 0 .6-.4.6-1.3z"/><g clip-rule="evenodd"><path fill-rule="evenodd" fill="#F2D8C0" d="M-10.5 10.1c-.2-.6-.8-.6-1.4-.7.1-.6 0-2.1-.8-2.3-.3-.1-.6-.1-.8.3-.3.6-.8-.2-1.3 0-.9.3-.8 2.2-.9 2.9-.1 1-.4 2.2-1.3 2.8.1-1.4.8-2.7.8-4.1 0-.9-.6-1-1.2-.5s-.7 1.2-.9 2c-.3 1.4-1.5 3-2.8 3.7-.5.2-1.3.7-1.4 1.2 0 .9 1.1 1.5 1.9 1.5.3 0 .5-.3.7 0 .2.3.3.6.6.8l1.7.3c.8.6 1 .7 2 .7.9 0 1.1.6 2-.2 1-.8 2.5-2.3 2.7-3.6l.1-2.2c.2-.8.5-1.9.3-2.6 0-.3.1.2 0 0z"/><path stroke="#000" stroke-width=".483" d="M-10.5 10.1c-.2-.6-.8-.6-1.4-.7.1-.6 0-2.1-.8-2.3-.3-.1-.6-.1-.8.3-.3.6-.8-.2-1.3 0-.9.3-.8 2.2-.9 2.9-.1 1-.4 2.2-1.3 2.8.1-1.4.8-2.7.8-4.1 0-.9-.6-1-1.2-.5s-.7 1.2-.9 2c-.3 1.4-1.5 3-2.8 3.7-.5.2-1.3.7-1.4 1.2 0 .9 1.1 1.5 1.9 1.5.3 0 .5-.3.7 0 .2.3.3.6.6.8l1.7.3c.8.6 1 .7 2 .7.9 0 1.1.6 2-.2 1-.8 2.5-2.3 2.7-3.6l.1-2.2c.2-.8.5-1.9.3-2.6 0-.3.1.2 0 0zM-16.8 12.1c-.3 1.3-1.1 3.5-2.7 3.8M-11.8 9.4c-.1 1.3-.2 2.8-.6 4-.4 1.1-1.3 2.1-1.8 3.1M-13.7 7.7c-.3 1.2-.2 2.5-.3 3.8-.2 1.6-1.1 2.9-1.8 4.3" fill="none"/></g><g clip-rule="evenodd"><path fill-rule="evenodd" fill="#C42A1F" stroke="#871818" stroke-width=".966" d="M8.8 59.9l-.3-.8c-.1-.2-.2-.4-.3-.5-.1-.1-.2-.2-.2-.4l-.1-.1c-.1-.1-.2-.2-.3-.4l-.3-.3c-.4-.4-.8-.8-1.3-1.1l-.9-.5c-.3-.1-.6-.3-1-.4-.7-.2-1.4-.4-2.2-.5-.1 0-.3 0-.5-.1l-.5-.1h-.4l-2.7-.3h-7.7c-.3 0-.6 0-.9.1-.3 0-.5.1-.8.2l-.7.3c-.6.4-1.2.8-1.6 1.4-.1.2-.2.3-.4.5v.1l-.3.6-.3.6c-.1.4-.1.8-.1 1.2v.1c.1.4.2.7.5 1.1.2.3.4.7.7.9.4.4.8.8 1.3 1.1.5.4 1 .6 1.5.8l.2.1c.2.1.5.2.7.2.4.1.8.2 1.3.3.2 0 .3 0 .5.1.4.1.7.1 1.1.1h.9c.3 0 .6-.1.8-.2h.1c.5-.2 1-.7 1.6-.7.7 0 1.2.3 1.7.7.2.2.5.4.7.5l.5.3c.1.1.3.1.4.1.1 0 .1 0 .2.1.3.1.6.2.9.2.5.1.9.1 1.4.1h.1c.2 0 .5 0 .8.1.5 0 1.2.1 1.8 0 .5 0 .9-.1 1.3-.2.3 0 .6-.1.8-.2l.3-.1c.2-.1.4-.2.6-.4.3-.2.5-.5.7-.9v-.1l.1-.3c.7-1 .7-2.2.3-3.3z"/><g fill-rule="evenodd" fill="#DEDE00" stroke="#000" stroke-width=".483"><path d="M-12.3 62.6c-.5-2.1-.4-4.5.5-6.4l.1-.3c-.4.1-.7.2-1.1.4l-.4.1-1 .3c-.1 0-.2.1-.4.1l-.3.1c-.2.1-.4.3-.5.6l-.1.3c-.1.3-.2.6-.2.9 0 .1 0 .2-.1.3 0 .3-.1.6-.1.8-.2 1.3 0 2.6.3 3.9.1.4.2.8.4 1.1h1c.1.1.2.2.3.2.3.1.6 0 .8-.2h1.8c-.5-.5-.8-1.3-1-2.2zM-13.6 61.5c-.1-.9-.1-1.9.1-2.8 0-.2 0-.3.1-.4l.3-1.1c0-.1.1-.2.1-.4v-.1c.1-.2.1-.3.2-.4l-.4.1c-.2.1-.5.2-.7.2-.1 0-.3.2-.3.3-.1.1-.2.2-.2.4-.1.2-.2.5-.2.7v.4c-.1.3-.1.6-.2.8v.2l-.1.8v1.7000000000000002l.1.9c0 .2.1.4.2.7 0 .1 0 .2.1.3l.3.8.2.5c0 .1.1.2.1.2.3.1.6 0 .8-.2h.5c-.6-1.2-.9-2.4-1-3.6z"/></g><path fill-rule="evenodd" fill="#D62A0D" d="M-13 64.7c0-.7-1-.8-1.2-.2v.1c0 .1 0 .2.1.3.1.1.2.2.3.2.3.1.6 0 .8-.2-.1 0 0-.1 0-.2z"/><path stroke="#9B1C0B" stroke-width=".483" d="M-13 64.7c0-.7-1-.8-1.2-.2v.1c0 .1 0 .2.1.3.1.1.2.2.3.2.3.1.6 0 .8-.2-.1 0 0-.1 0-.2z" fill="none"/><path fill-rule="evenodd" fill="#D62A0D" d="M-13.7 63.2c0-.8-1.2-.8-1.2 0s1.2.8 1.2 0z"/><path stroke="#9B1C0B" stroke-width=".483" d="M-13.7 63.2c0-.8-1.2-.8-1.2 0s1.2.8 1.2 0z" fill="none"/><path fill-rule="evenodd" fill="#D62A0D" d="M-13.8 61.6c0-.8-1.2-.8-1.2 0 0 .7 1.2.8 1.2 0z"/><path stroke="#9B1C0B" stroke-width=".483" d="M-13.8 61.6c0-.8-1.2-.8-1.2 0 0 .7 1.2.8 1.2 0z" fill="none"/><path fill-rule="evenodd" fill="#D62A0D" d="M-14.1 60.4c.6-.5-.2-1.4-.8-.9-.5.6.3 1.4.8.9z"/><path stroke="#9B1C0B" stroke-width=".483" d="M-14.1 60.4c.6-.5-.2-1.4-.8-.9-.5.6.3 1.4.8.9z" fill="none"/><path fill-rule="evenodd" fill="#D62A0D" d="M-13.4 58.4c0-.8-1.2-.9-1.2-.1-.1.8 1.1.9 1.2.1z"/><path stroke="#9B1C0B" stroke-width=".483" d="M-13.4 58.4c0-.8-1.2-.9-1.2-.1-.1.8 1.1.9 1.2.1z" fill="none"/><path fill-rule="evenodd" fill="#D62A0D" d="M-13 56.9c0-.8-1.2-.8-1.2 0 0 .7 1.2.7 1.2 0z"/><path stroke="#9B1C0B" stroke-width=".483" d="M-13 56.9c0-.8-1.2-.8-1.2 0 0 .7 1.2.7 1.2 0z" fill="none"/><g fill-rule="evenodd" fill="#DEDE00" stroke="#000" stroke-width=".483"><path d="M9.4 60.1c0-.1 0-.2-.1-.3 0-.1 0-.2-.1-.4l-.1-.3-.1-.4-.1-.3c-.1-.3-.2-.6-.4-.6h-.1c-.3-.1-.6-.2-.8-.3-.1 0-.2 0-.2-.1l-1-.3c-.2-.1-.4-.2-.5-.3l-.4-.1.2.5c1 2.5.9 5.5-.4 7.8-.1.2-.2.4-.3.5.5 0 .9-.1 1.3-.2.3 0 .6-.1.8-.2.2.1.5.1.7-.1l.1-.1h1.1c.6-1.5.7-3.2.4-4.8zM8.5 61c0-.2 0-.5-.1-.7 0-.3-.1-.7-.2-1v-.1c0-.1-.1-.3-.1-.5s-.1-.4-.2-.5v-.1c-.1-.1-.1-.2-.2-.4s-.2-.3-.4-.4c-.3-.1-.6-.2-1-.3 0 .1.1.2.2.3 1 2.4 1 5.3-.1 7.6 0 .1-.1.2-.2.4.3 0 .6-.1.8-.2.2.1.5.1.7-.1v-.1c0-.1.1-.2.1-.4v-.1l.1-.3c.1-.2.1-.4.1-.6l.2-.9.1-.8c.2-.2.2-.5.2-.8z"/></g><path fill-rule="evenodd" fill="#D62A0D" d="M8.3 58.3c0-.8-1.2-.8-1.2 0 0 .7 1.2.8 1.2 0z"/><path stroke="#9B1C0B" stroke-width=".483" d="M8.3 58.3c0-.8-1.2-.8-1.2 0 0 .7 1.2.8 1.2 0z" fill="none"/><path fill-rule="evenodd" fill="#D62A0D" d="M8.7 59.9c0-.8-1.2-.8-1.2 0 0 .7 1.2.8 1.2 0z"/><path stroke="#9B1C0B" stroke-width=".483" d="M8.7 59.9c0-.8-1.2-.8-1.2 0 0 .7 1.2.8 1.2 0z" fill="none"/><path fill-rule="evenodd" fill="#D62A0D" d="M8.7 61.5c0-.8-1.2-.8-1.2 0 0 .7 1.2.8 1.2 0z"/><path stroke="#9B1C0B" stroke-width=".483" d="M8.7 61.5c0-.8-1.2-.8-1.2 0 0 .7 1.2.8 1.2 0z" fill="none"/><path fill-rule="evenodd" fill="#D62A0D" d="M8.6 63.1c0-.8-1.2-.8-1.2 0-.1.8 1.1.8 1.2 0z"/><path stroke="#9B1C0B" stroke-width=".483" d="M8.6 63.1c0-.8-1.2-.8-1.2 0-.1.8 1.1.8 1.2 0z" fill="none"/><path fill-rule="evenodd" fill="#D62A0D" d="M8 64.7v-.1c-.1-.7-1.1-.7-1.2.1 0 .2 0 .3.1.4l.1.1c.2.1.5.1.7-.1l.1-.1c.2-.1.2-.2.2-.3z"/><path stroke="#9B1C0B" stroke-width=".483" d="M8 64.7v-.1c-.1-.7-1.1-.7-1.2.1 0 .2 0 .3.1.4l.1.1c.2.1.5.1.7-.1l.1-.1c.2-.1.2-.2.2-.3z" fill="none"/><g fill-rule="evenodd" fill="#DEDE00" stroke="#000" stroke-width=".483"><path d="M-4.8 55h-.8l-1.6.1h-2.3000000000000003c-.2 0-.3.1-.5.3-.2.3-.3.7-.4 1.1-.1.3-.1.6-.2.8v.2c-.1.3-.2.7-.2 1-.2.7-.2 1.1-.2 1.5-.1 1.1 0 2.3.2 3.4.1.5.2 1.1.4 1.6h2.1c0 .8 1.2.8 1.2.1v-.1h2.1c-.1-.3-.2-.6-.3-1-.3-1-.4-1.9-.5-2.9v-2.5l.1-.9.1-.6v-.1c.1-.6.3-1.2.5-1.7.2-.1.3-.2.3-.3zM-5.6 55l-1.6.1h-1.5000000000000002c-.3 0-.5.5-.7 1-.1.4-.2.7-.2 1 0 .1 0 .1-.1.2l-.2.9v2.8000000000000003c0 .4.1 1.4.3 2.6l.3 1.3h1.3c0 .8 1.2.8 1.2.1v-.1h1.2l-.3-.8c-.3-1-.5-2-.5-3v-.5c0-.9.1-1.9.2-2.8 0-.3.1-.6.2-.8v-.1c.1-.6.3-1.1.6-1.6-.3-.1-.3-.2-.2-.3z"/></g><path fill-rule="evenodd" fill="#D62A0D" d="M-7.2 55.6c0-.8-1.2-.8-1.2 0-.1.7 1.1.7 1.2 0z"/><path stroke="#9B1C0B" stroke-width=".483" d="M-7.2 55.6c0-.8-1.2-.8-1.2 0-.1.7 1.1.7 1.2 0z" fill="none"/><path fill-rule="evenodd" fill="#D62A0D" d="M-7.8 57.6c.6-.5-.3-1.4-.8-.9-.6.5.2 1.4.8.9.1-.1-.2.1 0 0z"/><path stroke="#9B1C0B" stroke-width=".483" d="M-7.8 57.6c.6-.5-.3-1.4-.8-.9-.6.5.2 1.4.8.9.1-.1-.2.1 0 0z" fill="none"/><path fill-rule="evenodd" fill="#D62A0D" d="M-8.1 58.7c0-.8-1.2-.8-1.2 0s1.2.8 1.2 0z"/><path stroke="#9B1C0B" stroke-width=".483" d="M-8.1 58.7c0-.8-1.2-.8-1.2 0s1.2.8 1.2 0z" fill="none"/><path fill-rule="evenodd" fill="#D62A0D" d="M-8 60.3c.1-.8-1.1-.8-1.2 0-.1.8 1.1.8 1.2 0 0-.1-.1.2 0 0z"/><path stroke="#9B1C0B" stroke-width=".483" d="M-8 60.3c.1-.8-1.1-.8-1.2 0-.1.8 1.1.8 1.2 0 0-.1-.1.2 0 0z" fill="none"/><path fill-rule="evenodd" fill="#D62A0D" d="M-8 62c0-.8-1.2-.8-1.2 0 0 .7 1.2.7 1.2 0z"/><path stroke="#9B1C0B" stroke-width=".483" d="M-8 62c0-.8-1.2-.8-1.2 0 0 .7 1.2.7 1.2 0z" fill="none"/><path fill-rule="evenodd" fill="#D62A0D" d="M-7.7 63.6c0-.8-1.2-.8-1.2 0 0 .7 1.2.7 1.2 0z"/><path stroke="#9B1C0B" stroke-width=".483" d="M-7.7 63.6c0-.8-1.2-.8-1.2 0 0 .7 1.2.7 1.2 0z" fill="none"/><path fill-rule="evenodd" fill="#D62A0D" d="M-7.2 65.1v-.1c-.1-.7-1.1-.7-1.2 0 0 .8 1.2.9 1.2.1z"/><path stroke="#9B1C0B" stroke-width=".483" d="M-7.2 65.1v-.1c-.1-.7-1.1-.7-1.2 0 0 .8 1.2.9 1.2.1z" fill="none"/><g fill-rule="evenodd" fill="#DEDE00" stroke="#000" stroke-width=".483"><path d="M4 60.6v-1.5000000000000002c-.1-.7-.2-1.4-.4-2.1-.2-1-.3-.9-1.3-1-.2 0-.3 0-.4-.1l-1-.1-.6-.1-1.2-.2-.8-.1.1.3c.2.8.4 1.5.5 2.3l.1 1v2.3c-.1 1-.4 1.9-.7 2.9-.1.3-.2.6-.4 1h2c.1 0 .1 0 .2.1.3.1.6.2.9.2.5.1.9.1 1.4.1h.1c.2 0 .5 0 .8.1l.2-.5c.3-.8.5-1.7.6-2.5-.1-.7-.1-1.3-.1-1.8v-.3zM3 58.3c0-.2-.1-.7-.1-1.1-.1-.6-.3-1.2-.6-1.3-.1 0-.3 0-.4-.1-.3 0-.6-.1-1-.2-.2 0-.3 0-.5-.1l-1.2-.2c0 .1 0 .1.1.2.2.8.4 1.5.5 2.3l.1.8v2.9000000000000004c-.1 1-.4 2-.8 3 0 .2-.1.3-.2.4h1.1c.1 0 .1 0 .2.1.3.1.6.2.9.2.5.1.9.1 1.4.1l.1-.4c.1-1 .4-2.1.4-2.6.2-1.3.2-2.6 0-4z"/></g><path fill-rule="evenodd" fill="#D62A0D" d="M1.9 56.1c0-.8-1.2-.8-1.2 0-.1.7 1.1.7 1.2 0z"/><path stroke="#9B1C0B" stroke-width=".483" d="M1.9 56.1c0-.8-1.2-.8-1.2 0-.1.7 1.1.7 1.2 0z" fill="none"/><path fill-rule="evenodd" fill="#D62A0D" d="M2.1 57.7c0-.8-1.2-.8-1.2 0 0 .7 1.2.7 1.2 0z"/><path stroke="#9B1C0B" stroke-width=".483" d="M2.1 57.7c0-.8-1.2-.8-1.2 0 0 .7 1.2.7 1.2 0z" fill="none"/><path fill-rule="evenodd" fill="#D62A0D" d="M2.4 59.3c0-.8-1.2-.8-1.2 0 0 .7 1.2.7 1.2 0z"/><path stroke="#9B1C0B" stroke-width=".483" d="M2.4 59.3c0-.8-1.2-.8-1.2 0 0 .7 1.2.7 1.2 0z" fill="none"/><path fill-rule="evenodd" fill="#D62A0D" d="M2.2 60.9c.1-.8-1.2-.8-1.2 0 0 .7 1.2.8 1.2 0 .1-.2 0 .2 0 0z"/><path stroke="#9B1C0B" stroke-width=".483" d="M2.2 60.9c.1-.8-1.2-.8-1.2 0 0 .7 1.2.8 1.2 0 .1-.2 0 .2 0 0z" fill="none"/><path fill-rule="evenodd" fill="#D62A0D" d="M2 62.5c0-.8-1.2-.8-1.2 0 0 .7 1.2.8 1.2 0z"/><path stroke="#9B1C0B" stroke-width=".483" d="M2 62.5c0-.8-1.2-.8-1.2 0 0 .7 1.2.8 1.2 0z" fill="none"/><path fill-rule="evenodd" fill="#D62A0D" d="M1.6 64.1c0-.8-1.2-.8-1.2 0 0 .7 1.2.7 1.2 0z"/><path stroke="#9B1C0B" stroke-width=".483" d="M1.6 64.1c0-.8-1.2-.8-1.2 0 0 .7 1.2.7 1.2 0z" fill="none"/><path fill-rule="evenodd" fill="#D62A0D" d="M.9 65.3c0-.1-.1-.2-.2-.3-.2-.1-.4-.1-.6 0 0 0-.1 0-.1.1.2.1.6.1.9.2z"/><path stroke="#9B1C0B" stroke-width=".483" d="M.9 65.3c0-.1-.1-.2-.2-.3-.2-.1-.4-.1-.6 0 0 0-.1 0-.1.1.2.1.6.1.9.2z" fill="none"/><g fill-rule="evenodd" fill="#DEDE00" stroke="#000" stroke-width=".724"><path d="M7.2 57.7c-.5-.2-1-.5-1.4-.9-.5.9-1.3 1.4-1.8 2.2-.8-.8-1.8-1.2-2.5-2-.6.8-1.5 1.3-2.2 2.1-.7-.7-1.7-1.2-2.3-2.1-.7.8-1.7 1.2-2.4 1.9-.6-.8-1.4-1.4-2-2.3l-2.7 1.8c-.5-.8-1.2-1.5-1.7-2.4-.9.7-2 .9-3 1.6l1.5-5.1c.1-.3.2-.5.2-.8 0-.1 2.4.4 2.7.4 2.5.4 5 .7 7.5.8 2.3.1 4.7.1 7-.1 1.1-.1 2.2-.2 3.2-.3.1.1.1.5.1.7l1.2 5.4c-.4-.4-.9-.6-1.4-.9-.6-.3.7.4 0 0zM7.2 52c-4.9.6-9.8.7-14.7.1-1.1-.1-2.2-.3-3.2-.5-.5-.1-2.1-.7-2.2-.2l-.8 2.7c7.1 1.5 14.4 1.8 21.6.9-.2-1-.4-2-.7-3z"/></g><g fill-rule="evenodd"><path fill="#FCFBF5" d="M4.2 59.5c-.8 0-.8 1.1 0 1.2.6 0 .7-1.2 0-1.2z"/><path fill="#C42A1F" d="M4.1 60.9h-.1c-1-.1-1-1.6-.1-1.8h.2c1.2.1 1.1 1.8 0 1.8zm-.1-1.1c-.1 0-.1.1-.1.2s.1.2.2.2.3 0 .3-.2-.2-.2-.4-.2z"/><path fill="#FCFBF5" d="M5.1 54.2c.6.6 1.4-.2.9-.7-.5-.6-1.4.2-.9.7z"/><path fill="#C42A1F" d="M6.4 54.2l-.1.2c0 .1-.1.1-.2.2-.3.3-.8.4-1.2 0-.8-.9.6-2.1 1.3-1.2.2.2.2.4.2.6.1 0 .1.1 0 .2zm-1-.5c-.2.3.1.6.3.4.3-.3 0-.6-.3-.4z"/><path fill="#FCFBF5" d="M-11.3 52.6c-.8-.1-.8 1.1 0 1.1.7 0 .7-1.1 0-1.1-.2-.1.2 0 0 0z"/><path fill="#C42A1F" d="M-10.8 53.8c-.3.3-.8.3-1.2 0 0 0-.1 0-.1-.1-.6-.8.3-1.7 1-1.4.1 0 .2.1.3.2.6.5.4 1 0 1.3zm-.7-.5c.2.2.6-.1.4-.3-.3-.3-.7.1-.4.3z"/><path fill="#FCFBF5" d="M-7.3 53.3c-.8 0-.8 1.1 0 1.2.7-.1.7-1.2 0-1.2-.2-.1.1 0 0 0z"/><path fill="#C42A1F" d="M-6.5 54.2c0 .1-.1.2-.2.3-.2.1-.4.2-.6.2-.3 0-.6-.2-.7-.5-.2-.3-.2-.7.1-1.1.1-.1.1-.1.2-.1.7-.4 1.5.5 1.2 1.2zm-.7-.5c-.1-.1-.4 0-.4.1s0 .2.1.2c.2.2.6-.1.3-.3z"/><path fill="#FCFBF5" d="M-3 53.4c-.7 0-.8 1.1 0 1.1.7.1.8-1 0-1.1z"/><path fill="#C42A1F" d="M-2.2 54.3c-.1.3-.4.6-.8.6h-.1c-.4 0-.7-.4-.8-.7-.1-.5.2-1.1.9-1.1s1 .7.8 1.2zm-.6-.5c-.2-.2-.6.1-.4.3.1.1.2.1.3 0 .1.1.2-.1.1-.3z"/><path fill="#FCFBF5" d="M1.4 53.6c-.7 0-.8 1.1 0 1.2.7 0 .7-1.2 0-1.2z"/><path fill="#C42A1F" d="M2 54.8c-.1.2-.4.3-.6.3h-.1c-.3 0-.6-.2-.7-.5-.3-.6 0-1.4.8-1.3.8 0 1 1 .6 1.5zm-.9-.4c.2.3.6-.1.4-.3-.2-.3-.6 0-.4.3z"/><path fill="#FCFBF5" d="M-10.3 58.9c-.8 0-.8 1.1 0 1.2.7 0 .7-1.2 0-1.2-.2-.1.1 0 0 0z"/><path fill="#C42A1F" d="M-10.2 60.3c-.3 0-.6 0-.9-.3-.1-.2-.2-.3-.2-.6s.2-.5.4-.7c.2-.2.6-.2.9-.1.3.1.6.4.5.9 0 .5-.3.7-.7.8zm.1-.9s0-.1-.1-.1c-.2-.2-.6.1-.4.4.1.2.3.1.4-.1.1-.1.1-.2.1-.2z"/><path fill="#FCFBF5" d="M-16 57.7c-.7-.1-.8 1.1 0 1.1.7.1.8-1 0-1.1-.1 0 .2.1 0 0z"/><path fill="#C42A1F" d="M-15.8 59.2c-.2.1-.5 0-.8-.2-.6-.8.5-1.9 1.3-1.2 0 0 .1 0 .1.1.4.4 0 1.1-.6 1.3zm0-1.1c-.2-.2-.6.1-.4.3.2.3.6 0 .4-.3z"/><path fill="#FCFBF5" d="M-5.4 59.2c-.8 0-.8 1.1 0 1.2.7 0 .7-1.2 0-1.2z"/><path fill="#C42A1F" d="M-5.9 60.6c-.1 0-.2-.1-.2-.2-.5-.5-.2-1.2.3-1.4l.3-.1h.2c.2 0 .4.1.5.2 0 0 0 .1.1.1.6.8-.4 1.8-1.2 1.4zm.3-.7c.2.2.6-.1.4-.3-.3-.2-.6.1-.4.3z"/><path fill="#FCFBF5" d="M9.4 58.6c-.8 0-.8 1.1 0 1.2.7 0 .8-1.2 0-1.2z"/><path fill="#C42A1F" d="M9.4 60.1c-.2 0-.4-.1-.6-.2-.1 0-.1-.1-.1-.1-.1-.1-.1-.2-.1-.3v-.4c.1-.3.2-.5.5-.6.5-.3 1.4 0 1.3.8-.1.5-.6.8-1 .8zm-.2-1c-.1.1-.1.2 0 .3h.1c.2.2.5-.2.3-.4-.1-.1-.3-.1-.4.1z"/><path fill="#FCFBF5" d="M-.7 59.4c-.6 0-.8.8-.3 1.1.9.4 1.2-1 .3-1.1z"/><path fill="#C42A1F" d="M-.3 60.8c-.1.1-.3.1-.4.1-.2 0-.3 0-.4-.1-.6-.3-.5-1.3.1-1.6.1 0 .2-.1.2-.1h.2c.2 0 .3 0 .4.1.5.3.5 1.3-.1 1.6zm-.7-.8c0 .3.5.3.5 0 .1-.3-.5-.3-.5 0z"/></g></g><path fill-rule="evenodd" clip-rule="evenodd" fill="#F2D8C0" stroke="#000" stroke-width=".483" d="M26.8 15.2c-.8.4-2.7 0-3.2.7-.4.6.4 2.4.6 3.1.1.6.2 2.9-1.1 2.5-1-.3-.8-2-1.3-2.6-.7-1-.9-1.6-.9-2.9 0-.7-.1-1.5-.3-2.2-.1-.6-.3-1.4-.1-2 .5-1.4.8-2.6.7-4.1-.2-2.1-1.7-4.8.7-6.2 1-.5 2.2-1 3.3-.4 1.1.7 1.2 2.2 1.5 3.3.8 2.2 3.4 2.6 3.5 5.2.3 2.6-1.3 4.6-3.4 5.6-.3.1 1-.5 0 0z"/><g clip-rule="evenodd"><path fill-rule="evenodd" fill="#E8E853" d="M23.1 3.7c.1.8.8 1.5 1.6 1.5-.2-1-.4-2.1-.7-3.1-.6.3-.9 1-.9 1.6.1.4 0-.3 0 0z"/><path stroke="#000" stroke-width=".483" d="M23.1 3.7c-.1-.7.3-1.3.9-1.6.3 1 .5 2 .7 3.1-.8 0-1.5-.6-1.6-1.5 0-.3.1.4 0 0z" fill="none"/><path fill-rule="evenodd" fill="#E8E853" d="M25.1 24.1c.2.2 1.6.9 1.5.2l-.2-2.1-.3-2.7c-.4-5.1-.5-10.3-1.6-15.2-.7.1-1.3.7-1.5 1.4 0 .3 0 .7.1 1 .1.3.2.5.4.7-.2.2-.3.5-.3.8 0 .4 0 .9.2 1.2.3.6-.1.9 0 1.6 0 .4.2.8.5 1.1-.3.5-.4 1.1-.2 1.6.2.6.5.5.2 1.1-.1.4-.2.8 0 1.2.2.6.5.5.2 1.1-.2.5-.1 1.1.2 1.6.5.8-.4 1.8.5 2.7-.6 1-.4 2.1.3 2.7.4.4-.4-.3 0 0z"/><path stroke="#000" stroke-width=".483" d="M25.1 24.1c-.6-.5-.9-1.4-.6-2.2.3-.8-.7-1.6 0-2.7-.8-.9 0-1.9-.5-2.7-.2-.4-.3-.8-.2-1.2 0-.3.1-.5.3-.8-.2-.2-.3-.5-.4-.7-.1-.4-.1-.9 0-1.3.2-.6 0-.5-.2-1.1-.1-.4-.1-.8 0-1.2.2-.6-.3-.8-.3-1.5 0-.4.1-.8.3-1.2-.3-.4-.5-1-.5-1.5.1-.8.7-1.5 1.5-1.7 1.1 4.9 1.2 10 1.6 15l.3 2.7.2 2.2c.2.8-1.1.2-1.5-.1-.4-.3.4.4 0 0z" fill="none"/><path fill-rule="evenodd" fill="#E8E853" d="M27.6 51.5l1.8-.2-1.5-14.5c-.2-2.1-.4-4.2-.6-6.4l-.4-4c-.1-1.4-1.2.4-1.5.9-1.1 1.7-.5 4.2-.1 6l1.6 6.7c.5 2.4.8 4.8.8 7.2 0 .9-.1 1.6-.8 2.2-.5.4-.2.4.2.8.5.4.5.8.5 1.3z"/><path stroke="#000" stroke-width=".483" d="M27.6 51.5c0-1-.6-.9-.9-1.7.7-.7 1.1-1.1 1.1-2.2.1-2.4-.3-4.9-.8-7.3-.4-2.1-1-4.1-1.5-6.1s-1.3-4.7-.3-6.7c.3-.6.8-1.6 1.4-1.6.3 0 .4 3.1.5 3.6.2 2.3.4 4.7.7 7l1.5 14.9c-.5 0-1.1 0-1.7.1z" fill="none"/><path fill-rule="evenodd" fill="#E8E853" d="M24.5 24.8c-1.1 1.2.1 3.7-1.8 4.3.9-.1 1.7.4 2.3-.5.4-.6 0-1.8.8-2.2.8-.4.5 1.4.6 1.7 0 .9.6.8.9 1.4-.2-1.9-.4-3.8-.5-5.7-.9.3-1.8.5-2.3 1-.1.2.4-.4 0 0z"/><path stroke="#000" stroke-width=".483" d="M24.5 24.8c.5-.6 1.4-.8 2.1-.9.2 1.9.4 3.8.5 5.7-.3-.6-.8-.6-.9-1.4 0-.3.2-2.1-.6-1.7-.6.3-.2 1.5-.6 2.1-.6.9-1.4.4-2.3.5 2-.5.7-3.1 1.8-4.3.4-.4-.1.2 0 0z" fill="none"/><path fill-rule="evenodd" fill="#C1BC00" d="M24.6 2c-1 .1-.2 1.5-.1 2.2.2.8 0 1.3.9.9 1.6-.9 1-3.3-.8-3.1-.2 0 .5-.1 0 0z"/><path stroke="#000" stroke-width=".483" d="M24.6 2c1.8-.2 2.4 2.2.9 3-.9.5-.8-.1-.9-.9-.2-.7-1-2 0-2.1.5-.1-.2 0 0 0z" fill="none"/><path fill-rule="evenodd" fill="#C1BC00" d="M26.7 24.5c.9-.1 1.6-.9 1.6-1.7.1-.6-.1-1.1-.5-1.5.3-.5.4-1.1.2-1.6-.2-.6-.5-.5-.2-1.1.2-.5.1-1.1-.1-1.6-.3-.6.1-.8 0-1.6-.1-.7-.5-.9-.3-1.5.1-.4.2-.8 0-1.2-.1-.3-.2-.5-.4-.7.2-.2.3-.5.3-.8.1-.6-.1-1.1-.5-1.6.3-.5.4-1.1.2-1.6-.2-.6-.5-.5-.2-1.1.2-.6.2-1.2-.1-1.6-.4-.8-1.3-1.2-2.1-1 1.4 6.6 1.4 13.5 2.1 20.2z"/><path stroke="#000" stroke-width=".483" d="M26.7 24.5c-.7-6.7-.7-13.6-2.1-20.3.7-.2 1.5.1 1.9.7.3.4.5 1 .4 1.5 0 .3-.1.6-.3.8.2.2.4.5.4.7.1.4.1.9 0 1.3-.2.6.3.8.3 1.5.1.7-.4 1 0 1.6.3.5.3 1.1.1 1.6-.3.9.7 1.7 0 2.7.4.4.6 1 .5 1.6 0 .3-.1.5-.3.8.2.2.3.5.4.7.1.4.1.9 0 1.3-.2.6.3.8.3 1.5.1 1-.6 1.9-1.6 2z" fill="none"/><path fill-rule="evenodd" fill="#C1BC00" d="M29.4 51.3l1.2-.1c-.1-1 .4-1 .6-1.8 0 0-.9-.5-.8-.5-.4-.4-.5-.9-.6-1.4-.2-1.2-.4-2.5-.4-3.7-.1-2.2 0-4.3.1-6.5.2-2.5.5-5 .3-7.4-.2-1.5-1.2-4.1-2.9-3.9.7 8.4 1.5 16.9 2.5 25.3z"/><path stroke="#000" stroke-width=".483" d="M29.4 51.3c-1-8.5-1.8-17-2.6-25.5 1.7-.1 2.7 2.4 2.9 3.9.3 2.5-.1 5-.3 7.4-.1 2.2-.3 4.3-.1 6.5.1 1.1.2 2.3.4 3.4.1.5.2 1 .5 1.5.1.1 1 .8 1 .8-.2.8-.7.8-.6 1.8-.4.2-.8.2-1.2.2z" fill="none"/><path fill-rule="evenodd" fill="#C1BC00" d="M30.4 28.7c.4.1.8 0 1.1-.2-2.4-1-1.6-4.9-4.9-4.6.2 2 .3 3.9.6 5.9l.6-1.4c0-.6-.6-1.4 0-1.8.7-.5 1 .4 1.2.8.2.7.8 1.2 1.4 1.3.4.1-.2 0 0 0z"/><path stroke="#000" stroke-width=".483" d="M30.4 28.7c-.5-.1-1.2-.5-1.3-1-.2-.5-.3-1.3-1-1.2-.8.1-.4 1-.3 1.5.2.8-.7 1.1-.6 1.8-.3-1.9-.4-3.9-.6-5.9 3.3-.3 2.5 3.5 4.9 4.6-.3.2-.7.3-1.1.2-.2 0 .4.1 0 0z" fill="none"/><path fill-rule="evenodd" fill="#E8E853" d="M28.7 57.5c-.1.2-.5.1-.7.1.1.8-.2 1.2.7 1.1.9-.1 1.7-.2 2.6-.2 0-.5.1-1.2-.4-1.2-.7.1-.5-.8-.6-1.3-.1-.9.2-.6 1-.7.6-.1 1-.1.9.7l1.2-.1-.3-3.2c0-.2-.9 0-1.1 0-.2 0 .2.8-.3.8l-1.6.1c-.1 0-.2-1.2-.2-1.3-.1-.6.1-.6.6-.7.2 0 0-1 0-1.2l-3.2.3c0 .5-.1 1.2.4 1.2.7-.1.5.8.6 1.3.1.8-.2.6-1 .7-.6.1-1 .1-.9-.7-1.2.1-1.2 0-1.1 1.2l.1 1.8c0 .6.2.4.7.4.9-.1 0-.2.4-.6-.1-.3 1.2-.3 1.3-.3.5 0 .6-.2.6.3.2.3.5 1.2.3 1.5z"/><path stroke="#000" stroke-width=".483" d="M28.7 57.5c.2-.3 0-1-.1-1.3 0-.5.1-.6-.4-.6-.3 0-1.1-.1-1.3.1-.6.1.1.8-.4.8-.2 0-.9.2-.9 0l-.2-1.8-.1-1.3c0-.1 1-.1 1.2-.1-.1.6.1.8.7.7.6 0 1.3.2 1.3-.5 0-.3.1-1.6-.4-1.6-.8.1-.5-.4-.6-1.1l3.2-.3c0 .2.2 1.2 0 1.2-.6 0-.7.1-.6.7 0 .2.1 1.4.2 1.3l1.6-.1c.5 0 .1-.8.3-.8.2 0 1.1-.2 1.1 0l.3 3.2-1.2.1c.1-1.2-2-.9-2-.3 0 .3-.1 1.6.4 1.6.8-.1.5.4.6 1.1l-2.4.2c-1.1.1-.8-.1-.9-1.1 0 .1.4.1.6-.1z" fill="none"/><path fill-rule="evenodd" fill="#A21E24" d="M28.5 54.8c.1 1.1 1.8 1 1.8-.2-.1-1.1-1.8-.9-1.8.2.1.2 0-.2 0 0zM24.5 54.9c.1 1.1 1.9 1 1.8-.2-.1-1.1-1.9-.9-1.8.2zM32.3 54.5c.1 1.1 1.8 1 1.8-.1-.1-1.2-1.8-1.1-1.8.1.1.2 0-.3 0 0zM29 58.8c.1 1.1 1.9 1 1.8-.2-.1-1.1-1.9-1-1.8.2z"/></g><g clip-rule="evenodd"><path fill-rule="evenodd" fill="#F2D8C0" d="M30.7 13.6c.5.5 1.2.6.8 1.5-.1.1-.4.5-.7.8-.2.2-.5.4-.6.3v-.1.1l.3.8c.2.7-.2 1.9-1.1 1.7-.5-.1-.9-.5-1.3-.9-.1-.1-.2-.1-.2-.2l-.6-.7c-.1-.1-.3-.2-.5-.2l-.6-.3s-.1 0-.1-.1c-.4-.2-.8-.5-1.1-.8l-.1-.1c-.3-.4-.4-1.2.3-1.2l-1.3-.5c-.3-.1-.6-.3-.9-.5-.6-.6-.3-1 .2-1.3.1 0 .2-.1.4-.1-.8-.1-.5-1.2 0-1.5l.7-.3h.2c.3-.1.6-.1.8-.1-.3 0-.8-.3-1.1-.6-.4-.4-.5-.8.3-1 .2 0 .5-.1.8-.1h.5c.5 0 .9.1 1.3.1h.3c.9.1 2.1.3 2.8 1l.1.1c.4.4.5 1.2 0 1.4l-.3.1.2.2.6.6c.7.7 1.1 1.6-.1 1.9z"/><path stroke="#000" stroke-width=".483" d="M30.7 13.6c.5.5 1.2.6.8 1.5-.1.1-.4.5-.7.8-.2.2-.5.4-.6.3v-.1.1l.3.8c.2.7-.2 1.9-1.1 1.7-.5-.1-.9-.5-1.3-.9-.1-.1-.2-.1-.2-.2l-.6-.7c-.1-.1-.3-.2-.5-.2l-.6-.3s-.1 0-.1-.1c-.4-.2-.8-.5-1.1-.8l-.1-.1c-.3-.4-.4-1.2.3-1.2l-1.3-.5c-.3-.1-.6-.3-.9-.5-.6-.6-.3-1 .2-1.3.1 0 .2-.1.4-.1-.8-.1-.5-1.2 0-1.5l.7-.3h.2c.3-.1.6-.1.8-.1-.3 0-.8-.3-1.1-.6-.4-.4-.5-.8.3-1 .2 0 .5-.1.8-.1h.5c.5 0 .9.1 1.3.1h.3c.9.1 2.1.3 2.8 1l.1.1c.4.4.5 1.2 0 1.4l-.3.1.2.2.6.6c.7.7 1.1 1.6-.1 1.9zm-.6 2.5M25 14.2c1.9-.1 4 .9 5.3 2.2M22.8 11.9c1.4 0 3.3-.2 4.6.4 1.1.5 2.2 1.3 3.4 1.6M24.2 10c2.3-.1 4.4.4 6.2 1.4" fill="none"/></g><path fill-rule="evenodd" clip-rule="evenodd" fill="#107C00" stroke="#000" stroke-width=".724" d="M27.1 0h-8.8c.1.2.1.5.2.6.1 1 .6 1.7.8 2.6.2.8 0 1.7 1.2 1.6l-.2-.7v-.1c-.4-1.8 1.4-3 2.9-3.3.7-.2 1.6-.3 2.3.1.3.2 1 1.2 1.1 1.2.4 0 .5-1.6.5-2z"/></symbol><symbol viewBox="-7 -7.5 14.1 14.9"><path fill-rule="evenodd" clip-rule="evenodd" fill="#008C00" d="M5.9-2.9c-.8-.7-1.7-1-2.8-1-.9 0-1.7.3-2.4.9h-.1c.1-1.9.5-3.2 1.2-4.1.1-.1.1-.1 0-.2 0-.1-.1-.1-.2-.1-.6.1-1.1.1-1.6.1s-1-.1-1.7-.2c-.1 0-.2 0-.2.1-.1.1-.1.1 0 .2.7.8 1.1 2.2 1.3 4.1h-.1c-.7-.6-1.5-.9-2.4-.9-1.1 0-2 .4-2.8 1.1-.7.7-1.1 1.5-1.1 2.5 0 1.3.8 2.6 2.5 4.1.9.8 2.4 2 4.3 3.6 0 .1.1.2.2.2s.2 0 .3-.1c.8-.8 2.2-2 4.3-3.6 1.6-1.5 2.4-2.9 2.4-4.2 0-1-.4-1.8-1.1-2.5z"/></symbol><symbol viewBox="-6.9 -6.4 13.9 12.9"><path fill-rule="evenodd" clip-rule="evenodd" fill="#D52222" d="M0 4.1c.2.7.5 1.2 1.1 1.7.6.5 1.3.7 2.1.7 1 0 1.9-.3 2.7-1 .7-.7 1.1-1.6 1.1-2.6 0-1.6-.8-3.2-2.4-5-.1-.2-1.6-1.6-4.4-4.2 0-.1-.1-.1-.2-.1s-.2 0-.2.1c-2.8 2.6-4.3 4-4.3 4.1-1.6 1.8-2.4 3.5-2.4 5 0 1 .4 1.8 1.1 2.6.7.7 1.6 1 2.7 1 .8 0 1.4-.2 2-.7.6-.4.9-1 1.1-1.6z"/></symbol><symbol id="d" viewBox="-3.2 -6 6.5 12.1"><path fill-rule="evenodd" clip-rule="evenodd" d="M2.8 6l-2.4-4.8 2.8-7.2h-1.8l-2 5.4-.9-1.7v-3.7h-1.7v12h1.7v-5.5l2.6 5.5h1.7z"/></symbol><symbol id="b" viewBox="-50 -75 100 150"><path fill="#F0F7E6" d="M-43.9-75c-3.1 0-6.1 3-6.1 6.1v137.8c0 3.1 3 5.1 6.1 5.1h87.8c3.1 0 5.1-2 5.1-5.1v-137.8c0-3.1-2-6.1-5.1-6.1h-87.8z"/><path d="M43.9 74c2.8 0 5.1-2.3 5.1-5.1v-137.8c0-2.8-2.3-5.1-5.1-5.1h-87.8c-2.8 0-5.1 2.3-5.1 5.1v137.8c0 2.8 2.3 5.1 5.1 5.1h87.8m0 1h-87.8c-3.4 0-6.1-2.7-6.1-6.1v-137.8c0-3.4 2.7-6.1 6.1-6.1h87.8c3.4 0 6.1 2.7 6.1 6.1v137.8c0 3.4-2.7 6.1-6.1 6.1z"/></symbol><symbol id="f" viewBox="-41 -66 82 132"><g fill-rule="evenodd" clip-rule="evenodd" fill="#1A171B"><path d="M-40-41h-1v82h1zM41-41h-1v82h1zM34 66h-68v-1h68zM34-65h-68v-1h68z"/></g><path stroke="#1A171B" stroke-miterlimit="10" fill="none" d="M-40.5 0h81"/></symbol><symbol viewBox="-7.6 -7.6 15.2 15.2"><path fill-rule="evenodd" clip-rule="evenodd" fill="#FFA001" d="M7.4-.3c-1.4-.9-2.7-2-3.9-3.2-1.2-1.2-2.3-2.5-3.2-3.9 0-.1-.2-.2-.3-.2-.1 0-.2.1-.3.2-.9 1.4-2 2.7-3.2 3.9-1.2 1.2-2.5 2.3-3.9 3.2-.1.1-.2.2-.2.3 0 .1.1.3.2.3 1.4.9 2.7 2 3.9 3.2 1.2 1.2 2.3 2.5 3.2 3.9.1.1.2.2.3.2.1 0 .3-.1.3-.2.9-1.4 2-2.7 3.2-3.9 1.2-1.2 2.5-2.3 3.9-3.2.1 0 .2-.2.2-.3 0-.1-.1-.2-.2-.3z"/></symbol><use xlink:href="#b" width="100" height="150" x="-50" y="-75" transform="matrix(1 0 0 -1 50 75)" overflow="visible"/><g><g><use xlink:href="#c" width="9.5" height="9.5" x="-4.8" y="-4.8" transform="matrix(-1 0 0 1 89.5 122.5)" overflow="visible"/><use xlink:href="#c" width="9.5" height="9.5" x="-4.8" y="-4.8" transform="matrix(-1 0 0 1 10.5 122.5)" overflow="visible"/><use xlink:href="#c" width="9.5" height="9.5" x="-4.8" y="-4.8" transform="matrix(1 0 0 -1 89.5 27.5)" overflow="visible"/><use xlink:href="#c" width="9.5" height="9.5" x="-4.8" y="-4.8" transform="matrix(1 0 0 -1 10.5 27.5)" overflow="visible"/><use xlink:href="#d" width="6.5" height="12.1" x="-3.2" y="-6" transform="matrix(-1 0 0 1 90 136)" overflow="visible"/><use xlink:href="#d" width="6.5" height="12.1" x="-3.2" y="-6" transform="matrix(-1 0 0 1 10 136)" overflow="visible"/><use xlink:href="#d" width="6.5" height="12.1" x="-3.2" y="-6" transform="matrix(1 0 0 -1 90 14)" overflow="visible"/><use xlink:href="#d" width="6.5" height="12.1" x="-3.2" y="-6" transform="matrix(1 0 0 -1 10 14)" overflow="visible"/><use xlink:href="#e" width="80.9" height="66.6" x="-40.5" y="-.6" transform="matrix(-1 0 0 1 50 75)" overflow="visible"/><use xlink:href="#e" width="80.9" height="66.6" x="-40.5" y="-.6" transform="matrix(1 0 0 -1 50 75)" overflow="visible"/><use xlink:href="#f" width="82" height="132" x="-41" y="-66" transform="matrix(1 0 0 -1 50 75)" overflow="visible"/><use xlink:href="#a" width="14.6" height="14.6" x="-7.3" y="-7.3" transform="matrix(-1 0 0 1 77 128.5)" overflow="visible"/><use xlink:href="#a" width="14.6" height="14.6" x="-7.3" y="-7.3" transform="matrix(1 0 0 -1 23 21.5)" overflow="visible"/></g></g></svg>