<svg xmlns="http://www.w3.org/2000/svg" xmlns:xlink="http://www.w3.org/1999/xlink" viewBox="0 0 100 150" enable-background="new 0 0 100 150"><symbol id="f" viewBox="-7 -13.7 13.9 27.3"><g clip-rule="evenodd"><path fill-rule="evenodd" fill="#009C22" d="M1.9-12.4l.1.9-1.5 1-2.9-1.5-.4.5-2-1.1-.6.5-.8-.5-.6.3.3 2.8 1.2.4.7.9 1.6-.4.7.7 1.2-.3 1.4-1.4 1.5-.7-.3 1.6-1.2 1.5-3 .5.9.5 2.1-.2 1.9-1.9 1.2-3.5z"/><path stroke="#000" stroke-width=".35" stroke-linecap="round" stroke-linejoin="round" fill="none" d="M1.9-12.4l.1.9-1.5 1-2.9-1.5-.4.5-2-1.1-.6.5-.8-.5-.6.3.3 2.8 1.2.4.7.9 1.6-.4.7.7 1.2-.3 1.4-1.4 1.5-.7-.3 1.6-1.2 1.5-3 .5.9.5 2.1-.2 1.9-1.9 1.2-3.5z"/><path fill-rule="evenodd" fill="#F40D1D" d="M5.2-7l-.2-.9-2.3-1.5-.4.8v2.4l1.1 1.4.6-.4.8 1h.8l1.1-1 .1-1.3z"/><path stroke="#000" stroke-width=".35" stroke-linecap="round" stroke-linejoin="round" fill="none" d="M5.2-7l1.6.5-.1 1.3-1.1 1h-.8l-.8-1-.6.4-1.1-1.4v-2.4l.4-.8 2.3 1.5z"/><path fill-rule="evenodd" fill="#fe0" d="M3.4-11.8l1.5-1.7-3 1.1z"/><path stroke="#000" stroke-width=".35" stroke-linecap="square" stroke-linejoin="round" fill="none" d="M3.4-11.8l1.5-1.7-3 1.1z"/></g><use xlink:href="#a" width="9.8" height="20.2" x="-4.9" y="-10.1" transform="translate(.27 3.573)" overflow="visible"/></symbol><symbol id="a" viewBox="-4.9 -10.1 9.8 20.2"><path fill-rule="evenodd" clip-rule="evenodd" fill="#009C22" d="M0-1.3c3.1 0 4.7-1.6 4.7-3 0-2.6-2.6-3.9-3.5-4.2-1.1-.4-1.2-1.4-1.2-1.4s-.1 1-1.3 1.5c-.9.3-3.5 1.6-3.5 4.2.1 1.3 1.7 2.9 4.8 2.9z"/><path fill-rule="evenodd" clip-rule="evenodd" fill="#006F20" d="M0-1.3v-8.6s-.1 1-1.3 1.5c-.9.3-3.5 1.6-3.5 4.2.1 1.3 1.7 2.9 4.8 2.9z"/><path fill-rule="evenodd" clip-rule="evenodd" fill="#F40D1D" d="M3.5-2.2h-7v8.7l3.5 3.4 3.5-3.4z"/><path fill-rule="evenodd" clip-rule="evenodd" fill="#AC0019" d="M0-2.2h-3.5v8.7l3.5 3.4z"/><path stroke="#000" stroke-width=".35" stroke-linecap="round" stroke-linejoin="round" stroke-miterlimit="10" fill="none" d="M0-9.9v6.9M0 9.9v-11.8"/><path fill-rule="evenodd" clip-rule="evenodd" fill="#fe0" d="M3.5-1.2v-1.1c-.8-.4-2.1-.7-3.5-.7s-2.7.3-3.5.7v1.1c.8-.4 2-.7 3.5-.7s2.7.3 3.5.7z"/><path clip-rule="evenodd" stroke="#000" stroke-width=".35" stroke-linecap="round" stroke-linejoin="round" stroke-miterlimit="10" d="M-3.5-2.2v8.7l3.5 3.4 3.5-3.5v-8.7c.8-.6 1.3-1.3 1.3-2 0-2.6-2.6-3.9-3.5-4.2-1.2-.4-1.3-1.4-1.3-1.4s-.1 1-1.3 1.5c-.9.3-3.5 1.6-3.5 4.2.1.6.5 1.4 1.3 2z" fill="none"/><path clip-rule="evenodd" stroke="#000" stroke-width=".25" stroke-linecap="round" stroke-miterlimit="10" d="M3.5-2.3c-.8-.4-2.1-.7-3.5-.7s-2.7.3-3.5.7" fill="none"/></symbol><symbol id="d" viewBox="-37.7 0 75.5 62.7"><path fill-rule="evenodd" clip-rule="evenodd" fill="#9EA0A2" d="M-.1 36.6h.2c3.7 0 6.9-.4 9.5-1.1 4.9-1.4 7.7-2.1 8.3-2.2-.9-5.9-2.2-11.3-4-16-1.1-3-2.3-5.5-3.5-7.5-1.1-1.8-4.6-4-10.4-6.5v-.2.1h-.1v.1c-5.8 2.5-9.3 4.7-10.4 6.5-1.2 1.9-2.4 4.4-3.5 7.5-1.7 4.7-3 10.1-3.9 16l8.3 2.2c2.7.7 5.8 1.1 9.5 1.1z"/><path fill-rule="evenodd" clip-rule="evenodd" fill="#fe0" d="M.1 36.6c3.7 0 6.9-.4 9.5-1.1 4.9-1.4 7.7-2.1 8.3-2.2-.9-5.9-2.2-11.3-4-16-1.1-3-2.3-5.5-3.5-7.5-1.1-1.8-4.6-4-10.4-6.5v-.2.1h-.1v.1c-5.8 2.5-9.3 4.7-10.4 6.5-1.2 1.9-2.4 4.4-3.5 7.5-1.7 4.7-3 10.1-3.9 16l8.3 2.2c2.6.7 5.8 1.1 9.5 1.1h.2zm-.2-1.9c-2.6 0-4.8-.2-6.6-.5-1-.2-2.5-.6-4.5-1.2-1.9-.6-3.4-1-4.7-1.3 1-5.5 2.2-10.3 3.9-14.6 1-2.6 2-4.8 3-6.5 1-1.3 3.9-3.1 9-5.4 5.1 2.3 8.1 4.1 9 5.5 1 1.8 2.1 3.9 3.1 6.5 1.6 4.3 2.9 9.2 3.8 14.6-1.3.3-2.8.7-4.7 1.3-1.9.6-3.4 1-4.5 1.2-1.8.3-4 .5-6.6.5h-.2z"/><path clip-rule="evenodd" stroke="#222123" stroke-width=".425" d="M.1 36.6c3.7 0 6.9-.4 9.5-1.1 4.9-1.4 7.7-2.1 8.3-2.2-.9-5.9-2.2-11.3-4-16-1.1-3-2.3-5.5-3.5-7.5-1.1-1.8-4.6-4-10.4-6.5v-.2.1h-.1v.1c-5.8 2.5-9.3 4.7-10.4 6.5-1.2 1.9-2.4 4.4-3.5 7.5-1.7 4.7-3 10.1-3.9 16l8.3 2.2c2.6.7 5.8 1.1 9.5 1.1h.2zm-.2-1.9c-2.6 0-4.8-.2-6.6-.5-1-.2-2.5-.6-4.5-1.2-1.9-.6-3.4-1-4.7-1.3 1-5.5 2.2-10.3 3.9-14.6 1-2.6 2-4.8 3-6.5 1-1.3 3.9-3.1 9-5.4 5.1 2.3 8.1 4.1 9 5.5 1 1.8 2.1 3.9 3.1 6.5 1.6 4.3 2.9 9.2 3.8 14.6-1.3.3-2.8.7-4.7 1.3-1.9.6-3.4 1-4.5 1.2-1.8.3-4 .5-6.6.5h-.2z" fill="none"/><g clip-rule="evenodd"><path fill-rule="evenodd" fill="#fe0" d="M-4.6 61.6l-.8-10.2-2-.7-.3 8.5z"/><path stroke="#222123" stroke-width=".425" fill="none" d="M-4.6 61.6l-.8-10.2-2-.7-.3 8.5z"/><path fill-rule="evenodd" fill="#009C22" d="M-9.9 59.2l1.8-10-1.5-1.2-2.4 8.2z"/><path stroke="#222123" stroke-width=".425" fill="none" d="M-9.9 59.2l1.8-10-1.5-1.2-2.4 8.2z"/><path fill-rule="evenodd" fill="#fe0" d="M-13.4 55.1l3.9-9.5-1-1.2-4 5.9z"/><path stroke="#222123" stroke-width=".425" fill="none" d="M-13.4 55.1l3.9-9.5-1-1.2-4 5.9z"/><path fill-rule="evenodd" fill="#009C22" d="M-15.3 48.4l6-5-.2-1.5-5 2.5z"/><path stroke="#222123" stroke-width=".425" fill="none" d="M-15.3 48.4l6-5-.2-1.5-5 2.5z"/><path fill-rule="evenodd" fill="#fe0" d="M-15.4 43.5l5.2-2.5-.1-1.4-4 .8z"/><path stroke="#222123" stroke-width=".425" fill="none" d="M-15.4 43.5l5.2-2.5-.1-1.4-4 .8z"/></g><path fill-rule="evenodd" clip-rule="evenodd" fill="#007AC0" d="M-7.1 52.3l3.3.6-1.3-5.8-1.4 1.5-1.5-.8-.1-2.8 1.6-1.2-.4-1.8-1.8-.3-1-2.2-1.6-.1-.9 4.5 1 3.7 2 3.1z"/><path clip-rule="evenodd" stroke="#222123" stroke-width=".425" fill="none" d="M-7.1 52.3l-2.1-1.6-2-3.1-1-3.7.9-4.5 1.6.1 1 2.2 1.8.3.4 1.8-1.6 1.2.1 2.8 1.5.8 1.4-1.5 1.3 5.8z"/><g clip-rule="evenodd"><path fill-rule="evenodd" fill="#fe0" d="M4.2 61.6l3.2-2.4-.4-8.5-2 .7z"/><path stroke="#222123" stroke-width=".425" fill="none" d="M4.2 61.6l.8-10.2 2-.7.4 8.5z"/><path fill-rule="evenodd" fill="#009C22" d="M9.5 59.2l2.2-3-2.5-8.2-1.5 1.2z"/><path stroke="#222123" stroke-width=".425" fill="none" d="M9.5 59.2l-1.8-10 1.5-1.2 2.5 8.2z"/><path fill-rule="evenodd" fill="#fe0" d="M13.1 55.1l1-4.8-3.9-5.9-1 1.2z"/><path stroke="#222123" stroke-width=".425" fill="none" d="M13.1 55.1l-3.9-9.5 1-1.2 3.9 5.9z"/><path fill-rule="evenodd" fill="#009C22" d="M15 48.4l-.8-4-5-2.5-.2 1.5z"/><path stroke="#222123" stroke-width=".425" fill="none" d="M15 48.4l-6-5 .2-1.5 5 2.5z"/><path fill-rule="evenodd" fill="#fe0" d="M15.1 43.5l-1.1-3.1-4-.8-.1 1.4z"/><path stroke="#222123" stroke-width=".425" fill="none" d="M15.1 43.5l-5.2-2.5.1-1.4 4 .8z"/></g><path fill-rule="evenodd" clip-rule="evenodd" fill="#007AC0" d="M6.7 52.3l2.1-1.6 2.1-3.1.9-3.7-.8-4.5-1.7.1-1 2.2-1.7.3-.4 1.8 1.5 1.2-.1 2.8-1.5.8-1.3-1.5-1.4 5.8z"/><path clip-rule="evenodd" stroke="#222123" stroke-width=".425" fill="none" d="M6.7 52.3l2.1-1.6 2.1-3.1.9-3.7-.8-4.5-1.7.1-1 2.2-1.7.3-.4 1.8 1.5 1.2-.1 2.8-1.5.8-1.3-1.5-1.4 5.8z"/><path fill-rule="evenodd" clip-rule="evenodd" fill="#009C22" d="M2.1 55.3l-2.1-6.9-2 6.9.4 1-1.2 3 1.1.7-.2 1.7 1.9.7 2-.7-.2-1.7 1.1-.7-1.2-3z"/><path clip-rule="evenodd" stroke="#222123" stroke-width=".425" fill="none" d="M2.1 55.3l-2.1-6.9-2 6.9.4 1-1.2 3 1.1.7-.2 1.7 1.9.7 2-.7-.2-1.7 1.1-.7-1.2-3z"/><path fill-rule="evenodd" clip-rule="evenodd" fill="#fe0" d="M-1.6 51.7l.9.7.5 3.2.2 4.7.2-4.7.5-3.2.6-.8.6-1.2-.8-1.9-1.1-.1-1.4.2-.6 1.9z"/><path clip-rule="evenodd" stroke="#222123" stroke-width=".425" fill="none" d="M-1.6 51.7l-.4-1.2.6-1.9 1.4-.2 1.1.1.8 1.9-.6 1.2-.6.8-.5 3.2-.2 4.7-.2-4.7-.5-3.2z"/><path fill-rule="evenodd" clip-rule="evenodd" fill="#fe0" d="M2.9 47.7c2.1-1.3 3.3-2.8 3.7-4.7.7-3 1.3-4.8 1.7-5.3-2.3-.6-4.8-1-7.6-1.1h-1.7c-1.7.1-3.5.3-5.3.6l-2.2.5c.5.5 1 2.3 1.7 5.3.4 1.9 1.7 3.4 3.7 4.7 1 .6 2.1 1.1 3 1.3l3-1.3z"/><path clip-rule="evenodd" stroke="#222123" stroke-width=".425" d="M2.9 47.7l-3 1.3c-1-.3-2-.7-3-1.3-2.1-1.3-3.3-2.9-3.7-4.7-.7-3-1.2-4.8-1.7-5.3l2.2-.5c1.8-.3 3.6-.5 5.3-.6h1.7c2.8.1 5.3.5 7.6 1.1-.4.5-1 2.3-1.7 5.3-.4 1.9-1.6 3.4-3.7 4.7z" fill="none"/><path fill-rule="evenodd" clip-rule="evenodd" fill="#222123" d="M-4.7 41.3l2.6.1-.1-1.4-.9-3.1h-.6l.9 3.2-2 .5zM4.4 41.3l.1-.7-2-.5.9-3.2h-.6l-.9 3.1-.1 1.4z"/><path fill-rule="evenodd" clip-rule="evenodd" fill="#fe0" d="M-1.2 45.1l1.2 4 .9-4h1.8l.7 3.1 1-3.1h.8l1.4 2.7v-5.2h-13.5v5.2l1.4-2.7h.8l1 3.1.7-3.1z"/><path clip-rule="evenodd" stroke="#222123" stroke-width=".425" fill="none" d="M-1.2 45.1h-1.8l-.7 3.1-1-3.1h-.8l-1.4 2.7v-5.2h13.5v5.2l-1.4-2.7h-.8l-1 3.1-.7-3.1h-1.8l-.9 4z"/><path fill-rule="evenodd" clip-rule="evenodd" fill="#B3001D" d="M0 34.5v-16l-5.9.2 1 10.3 1.2 1.6 2.5.9c.1 0 .5 1 1.2 3z"/><path clip-rule="evenodd" stroke="#222123" stroke-width=".425" d="M0 34.5c-.7-2-1.1-3-1.2-3l-2.5-.9-1.2-1.6-1-10.3 5.9-.3v16.1z" fill="none"/><path fill-rule="evenodd" clip-rule="evenodd" fill="#009C22" d="M-7.3 14.9l.3 2.9 1.1.8 5.9-.2v-10.8l-2.8-.9 1.5 2v.8l.5 2.4z"/><path clip-rule="evenodd" stroke="#222123" stroke-width=".425" fill="none" d="M-7.3 14.9l6.5-3-.5-2.4v-.8l-1.5-2 2.8.9v10.8l-5.9.2-1.1-.8z"/><path fill-rule="evenodd" clip-rule="evenodd" fill="#F40D1D" d="M-2.5 9.2l-.7-.8-1.5.7.6.7-1.9.7-.8 2.9 2.3-1.9 1.6-.4 1.6-1.6v-.8z"/><path clip-rule="evenodd" stroke="#222123" stroke-width=".425" fill="none" d="M-2.5 9.2l1.2-.5v.8l-1.6 1.6-1.6.4-2.3 1.9.8-2.9 1.9-.7-.6-.7 1.5-.7z"/><path fill-rule="evenodd" clip-rule="evenodd" fill="#F40D1D" d="M0 34.5c.7-2 1.1-3 1.3-3l2.5-.9 1.2-1.6 1-10.3-6-.3v16.1z"/><path clip-rule="evenodd" stroke="#222123" stroke-width=".425" d="M0 34.5c.7-2 1.1-3 1.3-3l2.5-.9 1.2-1.6 1-10.3-6-.3v16.1z" fill="none"/><path fill-rule="evenodd" clip-rule="evenodd" fill="#006626" d="M5.9 18.6l1.1-.8.3-2.9-6.5-3 .5-2.4v-.8l1.5-2-2.8.9v10.8z"/><path clip-rule="evenodd" stroke="#222123" stroke-width=".425" fill="none" d="M5.9 18.6l1.1-.8.3-2.9-6.5-3 .5-2.4v-.8l1.5-2-2.8.9v10.8z"/><path fill-rule="evenodd" clip-rule="evenodd" fill="#F40D1D" d="M1.3 9.5l1.6 1.6 1.6.4 2.3 1.9-.8-2.9-1.9-.7.6-.7-1.5-.7-.7.8-1.2-.5z"/><path clip-rule="evenodd" stroke="#222123" stroke-width=".425" fill="none" d="M1.3 9.5l1.6 1.6 1.6.4 2.3 1.9-.8-2.9-1.9-.7.6-.7-1.5-.7-.7.8-1.2-.5z"/><path fill-rule="evenodd" clip-rule="evenodd" fill="#007AC0" d="M-6.8 36.1l.7.5h6.1l-6.8-.5zm-17.6-10.7l3.4-5.1 2.3 6.1-.7 7.6 4.1.5 4 2.7 4.4-1.1-5-1.8-.6-11.9-1.9-4.2 3.5-8 2.2-2.5 8.7-4.4v-3.1h-14.9l-2.9 2.9-5.7 2.5-3-.7-1.8 2.6-6.4-1.3-.8 3.6-1.8 2.1 3-.6-.7 6.5 5.2 4.5 5.4 3.1zM34.6 6.2l-6.3 1.3-1.8-2.6-3 .7-5.7-2.5-2.9-2.9h-14.9v3.1l8.7 4.4 2.2 2.5 3.5 8-1.9 4.2-.6 11.9-5.1 1.8-6.8.5h6.1l.7-.5 4.4 1.1 4-2.7 4.2-.5-.7-7.6 2.3-6.1 3.4 5.1 5.3-3 5.2-4.5-.7-6.5 3 .6-1.7-2.1z"/><path fill-rule="evenodd" clip-rule="evenodd" fill="#164560" d="M-21.6 18.6l-.4-.9-3.1-.8-3.1 2.3 3.5 4zM-30.9 18.2l1.4-2.4 3.4-2.6 1.2-2.9-5.2.8-4.4 6.8 4.2 3.6.9-2.7zM-15.9 19.9l-3.5-5.7-2.6 3.5 5.1 4.1zM-18 28.1v5.2l2.8.2.1-3.4-2.2-6.7zM-25.4 7.5h-2.8l-6.4-1.3.9 2.4 10.1 1.3zM21.6 18.6l3.2 4.6 3.4-4-3.1-2.3-3.2.8zM31 18.2l-1.6.6.9 2.7 4.3-3.6-4.5-6.8-5.3-.8 1.3 2.9 3.4 2.6zM15.9 19.9l1 1.9 5-4.1-2.4-3.5zM18.1 28.1l-.8-4.7-2.2 6.7.1 3.4 2.9-.2zM-14.9.2l-4.4 7.6 5 10.6 3.4-8.2 2.3-2.5 8.6-4.4 8.7 4.4 2.4 2.5 3.3 8 4.8-10.4-4.3-7.6zM25.4 7.5l-1.8 2.4 10.1-1.3.9-2.4-6.3 1.3z"/><path clip-rule="evenodd" stroke="#222123" stroke-width=".425" fill="none" d="M-13.3 32.6l-2.7-10.1-6-4.8-7.5-1.9-1.4 2.4 2.7 1 3.5 4 .3 2.2M-15.2 34.5l.2-8.5M-12.1 29.5l-2.1-6.9-6.6-10.6-1.2-3.2 2.7-1.2 6.8 14.8M-28.2 7.5h2.8M-26.5 4.9l3.1 6.1-6.1 4.8M-34.2 11.4l.5-2.8-.9-2.4M-15.4 16l2.1-6.6 8.1-4.4 3.9-2.7M-21 20.3l-1-2.6M-18.7 26.4l-.3-6.3M13.3 32.6l2.7-10.1 5.9-4.8 7.6-1.9 1.5 2.4-2.8 1-3.4 4-.4 2.2M15.2 34.5l-.2-8.5M12.1 29.5l2.1-6.9 6.6-10.6 1.1-3.2-2.6-1.2-6.8 14.8M28.3 7.5h-2.9M26.5 4.9l-3 6.1 6 4.8M34.2 11.4l-.5-2.8.9-2.4M15.4 16l-2.1-6.6-8.1-4.4-3.9-2.7M21 20.3l.9-2.6M18.7 26.4l.3-6.3"/><path clip-rule="evenodd" stroke="#222123" stroke-width=".425" d="M-24.4 25.4l-5.3-3-5.2-4.5.7-6.5-3 .6 1.8-2.1.8-3.6 6.4 1.3 1.8-2.6 3 .7 5.7-2.5 2.9-2.9h14.8v3.1l-8.6 4.4-2.2 2.5-3.5 8 1.9 4.2.6 11.9 5 1.8-4.4 1.1-4-2.7-4.1-.5.7-7.6-2.3-6.1-3.5 5zm17.6 10.7l6.8.5h-6.1l-.7-.5zM21 20.3l3.4 5.1 5.3-3 5.2-4.5-.7-6.5 3 .6-1.8-2.1-.8-3.6-6.4 1.3-1.8-2.6-2.9.6-5.7-2.5-2.9-2.9h-14.9v3.1l8.6 4.4 2.3 2.5 3.5 8-1.9 4.2-.7 11.9-5 1.8-6.8.5h6.1l.7-.5 4.4 1.1 4-2.7 4.1-.5-.6-7.6" fill="none"/><path clip-rule="evenodd" stroke="#201F21" stroke-width=".425" fill="none" d="M18.7 26.4l2.3-6.1"/><path clip-rule="evenodd" stroke="#222123" stroke-width=".425" fill="none" d="M0 42.6v-6"/><path fill-rule="evenodd" clip-rule="evenodd" fill="#fe0" d="M0 18.4l-5.9.2.1 1.1 5.8-.1z"/><path clip-rule="evenodd" stroke="#222123" stroke-width=".425" fill="none" d="M0 18.4l-5.9.2.1 1.1 5.8-.1z"/><path fill-rule="evenodd" clip-rule="evenodd" fill="#fe0" d="M0 18.4v1.2l5.8.1.1-1.1z"/><path clip-rule="evenodd" stroke="#222123" stroke-width=".425" fill="none" d="M0 18.4l5.9.2-.1 1.1-5.8-.1z"/></symbol><symbol viewBox="-6.7 -8.5 13.4 17"><path fill-rule="evenodd" clip-rule="evenodd" fill="#009915" d="M0 8.3c1.5-1.4 2.4-2.2 2.5-2.5.4-.8.5-1.8.3-3l1.2 1.7.8-1.1c.5-.8.8-1.4.9-1.8.2-.9-.1-2-.9-3.3l1.6.9c.1-2.4-.1-4-.4-4.7-.3-.6-1.1-1-2.3-1.2l1.8-.6c-.8-.7-1.8-1-2.8-1-.1 0-.4.3-1 .8-.4.4-.8.3-1.2-.3h-1c-.4.6-.8.6-1.2.2-.6-.6-.9-.8-1-.8-1 0-2 .4-2.9 1.1l1.8.6c-1.2.2-2 .6-2.3 1.3-.2.5-.4 1.4-.4 2.8v2l1.6-.9c-.8 1.3-1 2.4-.9 3.3.1.4.4 1 .9 1.8.3.4.6.7.8 1.1l1.2-1.7c-.1 1 0 2 .4 2.8.1.3 1 1.1 2.5 2.5z"/><path fill-rule="evenodd" clip-rule="evenodd" fill-opacity=".298" d="M-4.9 3.5c.3.4.6.7.8 1.1l1.2-1.7c-.1 1.1 0 2.1.4 2.9.2.3 1 1.2 2.6 2.5v-16h-.5c-.4.5-.8.6-1.2.2-.6-.5-.9-.8-1-.8-1 0-2 .4-2.9 1.1l1.8.6c-1.2.2-2 .6-2.3 1.3-.3.4-.5 1.3-.5 2.7v2l1.6-.9c-.8 1.3-1 2.4-.9 3.3.1.3.4.9.9 1.7z"/><path clip-rule="evenodd" stroke="#000" stroke-width=".031" stroke-linecap="round" stroke-linejoin="round" stroke-miterlimit="3" d="M-4.9 3.5c-.5-.8-.8-1.4-.9-1.8-.2-.9.1-2 .9-3.3l-1.6.9v-2c0-1.3.2-2.2.4-2.7.4-.7 1.1-1.2 2.3-1.3l-1.8-.6c.9-.7 1.9-1 2.9-1 .1 0 .4.3 1 .8.4.4.8.3 1.2-.2h.5v16c-1.5-1.4-2.4-2.2-2.6-2.5-.3-.8-.4-1.8-.3-3l-1.2 1.7c-.2-.3-.5-.7-.8-1z" fill="none"/><path clip-rule="evenodd" stroke="#151215" stroke-width=".35" d="M0 8.3c-1.5-1.4-2.4-2.2-2.6-2.5-.3-.8-.4-1.8-.3-3l-1.2 1.7c-.2-.3-.5-.7-.8-1.1-.5-.8-.8-1.4-.9-1.8-.2-.9.1-2 .9-3.3l-1.6.9v-2c0-1.2.2-2.1.4-2.6.4-.7 1.1-1.2 2.3-1.3l-1.8-.6c.9-.7 1.9-1 2.9-1 .1 0 .4.3 1 .8.4.4.8.3 1.2-.2h1c.4.6.8.6 1.2.2.6-.6.9-.8 1-.8 1 0 2 .4 2.9 1.1l-1.9.5c1.2.2 2 .6 2.3 1.3.4.7.5 2.3.4 4.7l-1.5-.9c.8 1.3 1 2.4.9 3.3-.1.4-.4 1-.9 1.8l-.8 1-1.3-1.7c.2 1.2.1 2.2-.3 3-.1.3-1 1.1-2.5 2.5z" fill="none"/></symbol><symbol viewBox="-8.2 -7.9 16.3 15.8"><path fill-rule="evenodd" clip-rule="evenodd" fill="#E61616" d="M6.5 6.8c1.1-.8 1.6-2 1.5-3.6-.1-1.6-.7-3-2-4.4-1.2-1.4-3.2-3.5-6-6.4-2.8 2.9-4.8 5.1-6 6.4-1.2 1.4-1.9 2.9-2 4.4-.1 1.6.4 2.8 1.5 3.6 1 .8 2.1 1.1 3.3.8 1.2-.1 2.3-.8 3.2-1.8 1 1 2 1.7 3.2 1.8 1.2.3 2.3 0 3.3-.8z"/><path fill-rule="evenodd" clip-rule="evenodd" fill-opacity=".298" d="M0-7.6v13.4c1 1 2 1.6 3.2 1.8 1.2.2 2.3-.1 3.3-.8 1.1-.8 1.6-2 1.5-3.6-.1-1.6-.7-3-2-4.4-1.2-1.4-3.2-3.5-6-6.4z"/><path clip-rule="evenodd" stroke="#151215" stroke-width=".1" stroke-linecap="round" stroke-linejoin="round" stroke-miterlimit="3" d="M0-7.6c2.8 2.9 4.8 5.1 6 6.4 1.2 1.4 1.9 2.9 2 4.4.1 1.6-.4 2.8-1.5 3.6-1 .8-2.1 1.1-3.3.8-1.2-.2-2.2-.8-3.2-1.8v-13.4z" fill="none"/><path clip-rule="evenodd" stroke="#151215" stroke-width=".35" d="M6.5 6.8c-1 .8-2.1 1.1-3.3.8-1.2-.1-2.2-.8-3.2-1.8-.9 1.1-2 1.7-3.2 1.9-1.2.2-2.3-.1-3.3-.8-1.1-.9-1.6-2.1-1.5-3.7.1-1.6.8-3 2-4.4 1.2-1.4 3.2-3.5 6-6.4 2.8 2.9 4.8 5.1 6 6.4 1.2 1.4 1.9 2.9 2 4.4.1 1.6-.4 2.8-1.5 3.6z" fill="none"/></symbol><symbol id="c" viewBox="-49 -74 98 148"><path fill="#F0F7E6" d="M48-68.5c0-3-2.5-5.5-5.5-5.5h-86c-3 0-5.5 2.5-5.5 5.5v136c0 3 2.5 5.5 5.5 5.5h86c3 0 5.5-2.5 5.5-5.5v-136z"/><path fill="#000" d="M43 73c2.8 0 5-2.2 5-5v-136c0-2.8-2.2-5-5-5h-86c-2.8 0-5 2.2-5 5v136c0 2.8 2.2 5 5 5h86m0 1h-86c-3.3 0-6-2.7-6-6v-136c0-3.3 2.7-6 6-6h86c3.3 0 6 2.7 6 6v136c0 3.3-2.7 6-6 6z"/></symbol><symbol id="e" viewBox="-41 -66 82 132"><path fill-rule="evenodd" clip-rule="evenodd" d="M31 66h-62v-1h62zM31-65h-62v-1h62zM-41 50h1v-100h-1zM41-50h-1v100h1zM40-.5h-80v1h80z"/></symbol><symbol viewBox="-7.7 -10.4 15.4 20.8"><g clip-rule="evenodd"><path fill-rule="evenodd" fill="#fe0" d="M0-5.9l-.4.2-.6-2.1 1-.9 1 .8-.6 2.1-.4-.1zm3-.3l-1.5.2.9-2.1-1.5-1-.9-1-.9 1-1.5 1 .9 2.1-1.5-.2 3 2.2 3-2.2z"/><path stroke="#222123" stroke-width=".35" d="M3-6.2l-3 2.2-3-2.2 1.5.2-.9-2.1 1.5-1 .9-1 .9 1 1.5 1-.9 2.1 1.5-.2zm-3 .3l.4.2.6-2.2-1-.8-1.1.8.6 2.1.5-.1z" fill="none"/></g><use xlink:href="#b" width="15.4" height="15.4" x="-7.7" y="-7.7" transform="translate(0 2.703)" overflow="visible"/></symbol><symbol id="b" viewBox="-7.7 -7.7 15.4 15.4"><path fill-rule="evenodd" clip-rule="evenodd" fill="#F40D1D" d="M6.8 3.3c.5-1 .7-2.1.7-3.3 0-1.2-.2-2.3-.7-3.3-.4-.8-.9-1.5-1.5-2-1.5-1.5-3.2-2.2-5.3-2.2-2 0-3.8.7-5.3 2.1-.7.8-1.2 1.5-1.5 2.1-.5 1-.8 2.1-.8 3.3 0 1.2.3 2.2.8 3.3.4.8.9 1.5 1.5 2.1 1.5 1.4 3.3 2.1 5.3 2.1s3.8-.7 5.3-2.1c.5-.5 1-1.2 1.5-2.1z"/><g clip-rule="evenodd"><path fill-rule="evenodd" fill="#00AFE7" d="M6.8 3.3c-2.4-.5-4.6-.7-6.8-.7s-4.4.2-6.8.7c.4.8.9 1.5 1.5 2.1 1.9-.7 3.7-1.1 5.3-1.1 1.7 0 3.4.4 5.3 1.1.5-.6 1-1.3 1.5-2.1z"/><path stroke="#222123" stroke-width=".35" d="M6.8 3.3c-.5.8-1 1.5-1.5 2.1-1.9-.7-3.6-1.1-5.3-1.1-1.7 0-3.4.4-5.3 1.1-.6-.6-1.1-1.3-1.5-2.1 2.4-.5 4.7-.7 6.8-.7 2.2 0 4.4.2 6.8.7z" fill="none"/><path fill-rule="evenodd" fill="#00AFE7" d="M6.8-3.3c-.4-.8-.9-1.5-1.5-2-1.9.7-3.6 1-5.2 1-1.8 0-3.5-.4-5.3-1.1-.8.8-1.3 1.5-1.6 2.1 2.4.5 4.6.7 6.8.7s4.4-.2 6.8-.7z"/><path stroke="#222123" stroke-width=".35" d="M6.8-3.3c-2.4.5-4.6.7-6.7.7-2.2 0-4.5-.2-6.8-.7.2-.6.7-1.3 1.4-2.1 1.8.8 3.6 1.1 5.3 1.1 1.6 0 3.4-.4 5.2-1.1.7.6 1.2 1.3 1.6 2.1z" fill="none"/></g><g fill-rule="evenodd" clip-rule="evenodd" fill="#fe0"><path d="M7.2 0l-1 1.3-2-.5 1.1.5-.6 1.3-.8-.5.2-.5-1.9-.4-.5-.7-1.7 1.8-1.9-1.8-.5.6-2 .4.4.6-.8.5-.6-1.2 1.2-.5-2 .5-1-1.3 1-1.2 2 .5-1.2-.5.6-1.3.8.4-.3.5 2 .4.5.6 1.8-1.8 1.8 1.8.5-.6 1.9-.4-.3-.5.8-.5.6 1.3-1.2.4 2-.5 1.1 1.3zM1.6-6.8v1.1l-1.6 1.1-1.6-1 .1-1.1-1.4 1.1-1.5-.5c1.4-1 2.8-1.4 4.4-1.4 1.6 0 3 .5 4.4 1.4l-1.5.5-1.3-1.2zM-1.5 6.6l-.1-1.1 1.6-1 1.6 1v1.1l1.4-1.1 1.5.5c-1.3 1-2.8 1.5-4.5 1.5-1.6 0-3.1-.5-4.5-1.5l1.6-.6 1.4 1.2z"/></g><path clip-rule="evenodd" stroke="#1A1A1A" stroke-width=".35" fill="none" d="M0-7.5v15"/><path fill-rule="evenodd" clip-rule="evenodd" fill-opacity=".149" d="M0 7.5v-15h.1c2 0 3.8.7 5.3 2.1.6.8 1.1 1.5 1.4 2.1.5 1 .8 2.1.8 3.3 0 1.2-.3 2.2-.8 3.3-.4.8-.9 1.5-1.5 2.1-1.5 1.4-3.2 2.1-5.3 2.1z"/><path clip-rule="evenodd" stroke="#222123" stroke-width=".35" d="M6.8 3.3c-.5.8-1 1.5-1.5 2.1-1.5 1.4-3.2 2.1-5.3 2.1-2 0-3.8-.7-5.3-2.1-.6-.6-1.1-1.3-1.5-2.1-.5-1-.8-2.1-.8-3.3 0-1.2.3-2.3.8-3.3.3-.6.8-1.3 1.5-2.1 1.5-1.4 3.3-2.1 5.3-2.1 2.1 0 3.8.7 5.3 2.2.6.6 1.1 1.3 1.5 2 .5 1.1.7 2.2.7 3.3 0 1.1-.2 2.2-.7 3.3z" fill="none"/></symbol><use xlink:href="#c" width="98" height="148" x="-49" y="-74" transform="matrix(1 0 0 -1 50 75)" overflow="visible"/><g><g><use xlink:href="#d" width="75.5" height="62.7" x="-37.7" transform="matrix(-1 0 0 1 50 75)" overflow="visible"/><use xlink:href="#d" width="75.5" height="62.7" x="-37.7" transform="matrix(1 0 0 -1 50 75)" overflow="visible"/><use xlink:href="#e" width="82" height="132" x="-41" y="-66" transform="matrix(1 0 0 -1 50 75)" overflow="visible"/><g clip-rule="evenodd"><path fill-rule="evenodd" fill="#007AC0" d="M35.4 78.8l22.8-9.4 5.6-3.9 2.1 2.6-40 17.4c1.2-.9 3.1-2.3 5.8-4.2l3.7-2.5z"/><path stroke="#222123" stroke-width=".425" d="M35.4 78.8l22.8-9.4 5.6-3.9 2.1 2.6-40 17.4c1.2-.9 3.1-2.3 5.8-4.2l3.7-2.5z" fill="none"/><path fill-rule="evenodd" fill="#A8DFF7" d="M37.3 83.1c-5.2 1.2-9 2-11.4 2.4l40-17.5.5 3.3-6.7 1.4-22.4 10.4z"/><path stroke="#222123" stroke-width=".425" d="M37.3 83.1l22.4-10.4 6.7-1.4-.5-3.3-40 17.5c2.4-.4 6.2-1.2 11.4-2.4z" fill="none"/><path fill-rule="evenodd" fill="#fe0" d="M78.3 60.1l.8.6 1.1-.2.5 1-.6.7v.9l-1 .6h-.9v.7l-.6.7-.5-.4-6.8 2.5.4.6-.9.6-.6-.5-1.2.5 2.1 3.2 1-1.2.6 1.2-1.4 1.7-3.6-3.3-1.4-3.3-.7-5.6 2.4-.5.5 1.3-1.4.4.7 3.6 1.1-.3v-.6l1.1-.5.2.7 6.4-3.2-.3-.9.5-.6 1.1.5.5-.6z"/><path stroke="#222123" stroke-width=".425" fill="none" d="M78.3 60.1l.8.6 1.1-.2.5 1-.6.7v.9l-1 .6h-.9v.7l-.6.7-.5-.4-6.8 2.5.4.6-.9.6-.6-.5-1.2.5 2.1 3.2 1-1.2.6 1.2-1.4 1.7-3.6-3.3-1.4-3.3-.7-5.6 2.4-.5.5 1.3-1.4.4.7 3.6 1.1-.3v-.6l1.1-.5.2.7 6.4-3.2-.3-.9.5-.6 1.1.5.5-.6z"/><path fill-rule="evenodd" fill="#007AC0" d="M34.1 68l2.1-2.6 5.6 3.9 22.8 9.4 3.7 2.5c2.7 1.9 4.6 3.3 5.8 4.2l-40-17.4z"/><path stroke="#222123" stroke-width=".425" d="M34.1 68l39.9 17.5c-1.2-.9-3.1-2.3-5.8-4.2l-3.7-2.5-22.8-9.4-5.6-3.9-2 2.5z" fill="none"/><path fill-rule="evenodd" fill="#A8DFF7" d="M34.1 68l39.9 17.5c-1.5-.2-3.8-.7-7-1.4l-4.3-1-22.4-10.4-6.7-1.4.5-3.3z"/><path stroke="#222123" stroke-width=".425" d="M34.1 68l39.9 17.5c-1.5-.2-3.8-.7-7-1.4l-4.3-1-22.4-10.4-6.7-1.4.5-3.3z" fill="none"/><path fill-rule="evenodd" fill="#fe0" d="M32.1 65.6l1.1.3.7-3.6-1.4-.4.4-1.3 2.5.5-.7 5.6-1.4 3.3-3.6 3.3-1.4-1.7.6-1.2 1 1.2 2.1-3.2-1.2-.5-.6.5-.9-.6.4-.6-6.8-2.5-.5.4-.6-.7v-.7h-.9l-1-.6v-.9l-.6-.7.5-1 1.1.2.8-.6.9.3.5.6 1.1-.5.5.6-.3.9 6.3 3.2.3-.7 1.1.5z"/><path stroke="#222123" stroke-width=".425" fill="none" d="M32.1 65.6v-.6l-1.1-.5-.3.7-6.3-3.2.3-.9-.5-.6-1.1.5-.5-.6-.9-.3-.8.6-1.1-.2-.5 1 .6.7v.9l1 .6h.9v.7l.6.7.5-.4 6.8 2.5-.4.6.9.6.6-.5 1.2.5-2.1 3.2-1-1.2-.6 1.2 1.4 1.7 3.6-3.3 1.4-3.3.7-5.6-2.5-.5-.4 1.3 1.4.4-.7 3.6z"/><path fill-rule="evenodd" fill="#009C22" d="M15.7 70.6l4.8 1.7 1.8-.7 4 3.1-4 3.1-1.8-.6-4.8 1.6-1.3-1.6-2.8.4-1.1-2.9 1.1-2.9 2.8.3z"/><path stroke="#222123" stroke-width=".425" fill="none" d="M15.7 70.6l4.8 1.7 1.8-.7 4 3.1-4 3.1-1.8-.6-4.8 1.6-1.3-1.6-2.8.4-1.1-2.9 1.1-2.9 2.8.3z"/><path fill-rule="evenodd" fill="#F40D1D" d="M27.7 70.2l-1.3 1.9 2.6 1.1-1 1.6 1 1.5-2.6 1.2 1.3 1.8-2.7-1-.4-1.6 2.6-.9-5.4-.7-7.8-.3 7.8-.4 5.4-.7-2.6-.9.4-1.6z"/><path stroke="#222123" stroke-width=".425" fill="none" d="M27.7 70.2l-2.7 1-.4 1.6 2.6.9-5.4.7-7.8.4 7.8.3 5.4.7-2.6.9.4 1.6 2.7 1-1.3-1.8 2.6-1.2-1-1.5 1-1.6-2.6-1.1z"/><path fill-rule="evenodd" fill="#009C22" d="M88.4 77.7l-2.8-.3-1.3 1.5-4.8-1.6-1.8.6-4-3.1 4-3.1 1.8.6 4.8-1.6 1.3 1.6 2.8-.4 1.1 2.9z"/><path stroke="#222123" stroke-width=".425" fill="none" d="M88.4 77.7l-2.8-.3-1.3 1.5-4.8-1.6-1.8.6-4-3.1 4-3.1 1.8.6 4.8-1.6 1.3 1.6 2.8-.4 1.1 2.9z"/><path fill-rule="evenodd" fill="#F40D1D" d="M72.3 70.2l2.7 1 .4 1.6-2.6.9 5.4.7 7.8.4-7.8.3-5.4.7 2.6.9-.4 1.6-2.7 1 1.3-1.8-2.6-1.2 1-1.5-1-1.6 2.6-1.1z"/><path stroke="#222123" stroke-width=".425" fill="none" d="M72.3 70.2l1.3 1.9-2.6 1.1 1 1.6-1 1.5 2.6 1.2-1.3 1.8 2.7-1 .4-1.6-2.6-.9 5.4-.7 7.8-.3-7.8-.4-5.4-.7 2.6-.9-.4-1.6z"/></g><use xlink:href="#f" width="13.9" height="27.3" x="-7" y="-13.7" transform="matrix(-.866 .5 .5 .866 83.5 129.5)" overflow="visible"/><use xlink:href="#f" width="13.9" height="27.3" x="-7" y="-13.7" transform="matrix(.866 .5 -.5 .866 16.5 129.5)" overflow="visible"/><use xlink:href="#f" width="13.9" height="27.3" x="-7" y="-13.7" transform="matrix(-.866 -.5 .5 -.866 83.5 20.5)" overflow="visible"/><use xlink:href="#f" width="13.9" height="27.3" x="-7" y="-13.7" transform="matrix(.866 -.5 -.5 -.866 16.5 20.5)" overflow="visible"/></g></g></svg>
