<svg xmlns="http://www.w3.org/2000/svg" xmlns:xlink="http://www.w3.org/1999/xlink" viewBox="0 0 100 150" enable-background="new 0 0 100 150"><symbol id="h" viewBox="-7 -13.7 13.9 27.3"><g clip-rule="evenodd"><path fill-rule="evenodd" fill="#009C22" d="M1.9-12.4l.1.9-1.5 1-2.9-1.5-.4.5-2-1.1-.6.5-.8-.5-.6.3.3 2.8 1.2.4.7.9 1.6-.4.7.7 1.2-.3 1.4-1.4 1.5-.7-.3 1.6-1.2 1.5-3 .5.9.5 2.1-.2 1.9-1.9 1.2-3.5z"/><path stroke="#000" stroke-width=".35" stroke-linecap="round" stroke-linejoin="round" fill="none" d="M1.9-12.4l.1.9-1.5 1-2.9-1.5-.4.5-2-1.1-.6.5-.8-.5-.6.3.3 2.8 1.2.4.7.9 1.6-.4.7.7 1.2-.3 1.4-1.4 1.5-.7-.3 1.6-1.2 1.5-3 .5.9.5 2.1-.2 1.9-1.9 1.2-3.5z"/><path fill-rule="evenodd" fill="#F40D1D" d="M5.2-7l-.2-.9-2.3-1.5-.4.8v2.4l1.1 1.4.6-.4.8 1h.8l1.1-1 .1-1.3z"/><path stroke="#000" stroke-width=".35" stroke-linecap="round" stroke-linejoin="round" fill="none" d="M5.2-7l1.6.5-.1 1.3-1.1 1h-.8l-.8-1-.6.4-1.1-1.4v-2.4l.4-.8 2.3 1.5z"/><path fill-rule="evenodd" fill="#fe0" d="M3.4-11.8l1.5-1.7-3 1.1z"/><path stroke="#000" stroke-width=".35" stroke-linecap="square" stroke-linejoin="round" fill="none" d="M3.4-11.8l1.5-1.7-3 1.1z"/></g><use xlink:href="#a" width="9.8" height="20.2" x="-4.9" y="-10.1" transform="translate(.27 3.573)" overflow="visible"/></symbol><symbol id="a" viewBox="-4.9 -10.1 9.8 20.2"><path fill-rule="evenodd" clip-rule="evenodd" fill="#009C22" d="M0-1.3c3.1 0 4.7-1.6 4.7-3 0-2.6-2.6-3.9-3.5-4.2-1.1-.4-1.2-1.4-1.2-1.4s-.1 1-1.3 1.5c-.9.3-3.5 1.6-3.5 4.2.1 1.3 1.7 2.9 4.8 2.9z"/><path fill-rule="evenodd" clip-rule="evenodd" fill="#006F20" d="M0-1.3v-8.6s-.1 1-1.3 1.5c-.9.3-3.5 1.6-3.5 4.2.1 1.3 1.7 2.9 4.8 2.9z"/><path fill-rule="evenodd" clip-rule="evenodd" fill="#F40D1D" d="M3.5-2.2h-7v8.7l3.5 3.4 3.5-3.4z"/><path fill-rule="evenodd" clip-rule="evenodd" fill="#AC0019" d="M0-2.2h-3.5v8.7l3.5 3.4z"/><path stroke="#000" stroke-width=".35" stroke-linecap="round" stroke-linejoin="round" stroke-miterlimit="10" fill="none" d="M0-9.9v6.9M0 9.9v-11.8"/><path fill-rule="evenodd" clip-rule="evenodd" fill="#fe0" d="M3.5-1.2v-1.1c-.8-.4-2.1-.7-3.5-.7s-2.7.3-3.5.7v1.1c.8-.4 2-.7 3.5-.7s2.7.3 3.5.7z"/><path clip-rule="evenodd" stroke="#000" stroke-width=".35" stroke-linecap="round" stroke-linejoin="round" stroke-miterlimit="10" d="M-3.5-2.2v8.7l3.5 3.4 3.5-3.5v-8.7c.8-.6 1.3-1.3 1.3-2 0-2.6-2.6-3.9-3.5-4.2-1.2-.4-1.3-1.4-1.3-1.4s-.1 1-1.3 1.5c-.9.3-3.5 1.6-3.5 4.2.1.6.5 1.4 1.3 2z" fill="none"/><path clip-rule="evenodd" stroke="#000" stroke-width=".25" stroke-linecap="round" stroke-miterlimit="10" d="M3.5-2.3c-.8-.4-2.1-.7-3.5-.7s-2.7.3-3.5.7" fill="none"/></symbol><symbol id="d" viewBox="-3.2 -6.6 6.5 13.1"><path fill-rule="evenodd" clip-rule="evenodd" fill="#F40D1D" d="M-2.2-3h4.4v7.2l-2.2 2.2-2.2-2.2z"/><path fill-rule="evenodd" clip-rule="evenodd" fill="#009C22" d="M0-.8c-2 0-3.1-1-3.1-1.9 0-1.7 1.7-2.5 2.2-2.7.7-.3.8-1 .8-1s.1.7.8 1c.6.2 2.2 1 2.2 2.7.2.8-.9 1.9-2.9 1.9z"/><path fill-rule="evenodd" clip-rule="evenodd" fill="#fe0" d="M-2.2 0v-1.4c.6-.3 1.3-.5 2.2-.5s1.6.2 2.2.4v1.5c-.6-.3-1.3-.5-2.2-.5s-1.6.2-2.2.5z"/><path clip-rule="evenodd" stroke="#000" stroke-width=".35" stroke-linecap="round" stroke-linejoin="round" stroke-miterlimit="10" d="M2.2-1.4v5.6l-2.2 2.2-2.2-2.2v-5.6c-.5-.4-.8-.9-.8-1.3 0-1.7 1.7-2.5 2.2-2.7.7-.3.8-1 .8-1s.1.7.8 1c.6.2 2.2 1 2.2 2.7.1.4-.2.9-.8 1.3z" fill="none"/></symbol><symbol id="f" viewBox="-36.9 0 75.7 63.7"><path fill-rule="evenodd" clip-rule="evenodd" fill="#F3000B" d="M-8.7 11.6l21.1-11.4h-29.9z"/><path clip-rule="evenodd" stroke="#151215" stroke-width=".425" fill="none" d="M-8.7 11.6l21.1-11.4h-29.9z"/><path fill-rule="evenodd" clip-rule="evenodd" fill="#DAD0CB" d="M6.7 54.5l3.5-9.9v-2l-1.6-.1-2.5-1.8-.3 7.1z"/><path clip-rule="evenodd" stroke="#151215" stroke-width=".425" fill="none" d="M6.7 54.5l-.9-6.7.3-7.1 2.5 1.8 1.6.1v2z"/><g clip-rule="evenodd"><path fill-rule="evenodd" fill="#F3000B" d="M3.6 23.9l-15.4 3.6-7.4 5.9 5.7 2.2 9.3-2.1 5.9.3 9.8 1.9v-3.4z"/><path stroke="#151215" stroke-width=".425" fill="none" d="M3.6 23.9l-15.4 3.6-7.4 5.9 5.7 2.2 9.3-2.1 5.9.3 9.8 1.9v-3.4z"/><g fill-rule="evenodd"><g fill="#fff"><path d="M-13.9 31.5l6.7-2.3 6.4-.2.7-2.9h-1.1l-.2 2.1h-5.6l-3.7 1.3zM3.6 29.3l5.2.9-.9-.9-3.4-1 .6-2.6-1.3-.1zM3.8 32.9l-7.8-.6-9.4 2.4.8.6 8.7-2.1 6.2.4 8.2 1.8.1-.9z"/></g><path fill="#FFED00" d="M-12.1 32.5l-1.3-.7-.8 1.2 1.3.8z"/><path fill="#00ADE5" d="M-7.3 30.6l-2.1.1.1 2.1 2-.2z"/><path fill="#FFED00" d="M-3.3 30.7l-1.3-1.1-1 1.2 1.2 1zM3.2 26.6l-1.2-1-.9 1.1 1.1 1z"/><path fill="#00ADE5" d="M2.2 29.7h-2l-.1 2h2z"/><path fill="#FFED00" d="M6.6 31.4l-.9-1-1.1.9 1 1z"/><path fill="#00ADE5" d="M10.2 31.8l-2-.3-.4 2 2 .3z"/></g></g><g clip-rule="evenodd"><path fill-rule="evenodd" fill="#DDC67B" d="M6.9 53l.2-1.1-.2-1 .4-1.7-.6-1.8v-2.2l.1-.7-.4-2.9-1.3-4.8 5.8-1.6-8.2-1.6-6.6-.2-8.6 1.9 3.9 1.3 1.4 2 1.2 4.6v12.5l13.1.5z"/><path stroke="#151215" stroke-width=".425" fill="none" d="M6.9 53l.2-1.1-.2-1 .4-1.7-.6-1.8v-2.2l.1-.7-.4-2.9-1.3-4.8 5.8-1.6-8.2-1.6-6.6-.2-8.6 1.9 3.9 1.3 1.4 2 1.2 4.6v12.5l13.1.5z"/><g fill-rule="evenodd"><path d="M2.9 52.9l.2-.9-1.6-2.2-1.2.3 1.4 1.5h-.2l-.4-.4-.8.1-.2.7-1.3-.4-.3.6.7.8h-1.3l-.1.1 1.6.9 3-.9.7.9zM6.9 53l-1 .1 1-.7-.4-2.2-.5.2-.1.8h-.4l-.2.6-.7-.1.3-.6.3-2.7.3-.6-1.4-.5-1.7.3 1.8.4h.6v.4l-.1.5-.2 1.8-.4.9.1 2.3.2-.5 1.4.4 1.1-.4z"/></g></g><path fill-rule="evenodd" clip-rule="evenodd" fill="#0075BD" d="M36.8 14.4l-.2-4.4 2-3.8-3.8-6h-27.7l-19.7 9-17.8-8.7h-4.7l.5 3.9-2 3.4v1.6l2.3 3.2 4.5 8.6-1.5 1.7-.3 2.3 1.9 2.5 1.7.4 7 5.8.3.9 1.8.3 5.4 2.8.7-1.2 5.3 1.5-1.1-1.6-3.9-1.3-2.2-1.4-2.8-.5 10-5.5 4.3-1.5 7.4-.8 5.6 5.6.7 1.7.4 2.1-5.7 1.7.2 1.3 9-3.2 2.1-.1v-.7l4.4-.6 4-5.1 3.5-7.1 1.7-.2.5-3.1 1.1-2.2z"/><path clip-rule="evenodd" stroke="#151215" stroke-width=".425" fill="none" d="M36.8 14.4l-5.1 1.3-1.1 2.2-.5 3.1-1.7.2-3.5 7.1-4 5.1-4.4.6v.7l-2.1.1-9 3.2-.2-1.3 5.7-1.7-.4-2.1-.7-1.7-5.6-5.6-7.4.8-4.3 1.5-10 5.5 2.8.5 2.2 1.4 3.9 1.3 1.1 1.6-5.3-1.5-.7 1.2-5.4-2.8-1.8-.3-.3-.9-7-5.8-1.7-.4-1.9-2.5.3-2.3 1.5-1.7-4.5-8.6-2.3-3.2v-1.6l2-3.4-.5-3.9h4.7l17.8 8.7 19.7-9h27.7l3.8 6-2 3.8z"/><g clip-rule="evenodd"><path fill-rule="evenodd" fill="#DAD0CB" d="M2.9 41.7l.6 2.3h.8l.7-1.6.5 2.3v.5l-1.3.5-2.5-.5-.3-.6.5-2.2 1-.7zm1.9 5.8l.5-.4 1.1-2.2-.1-2.2.6-.5.5-.7v-3.6l-1.7-2.1-4.7-.7-3.8.5-2.1 1.6-1 2-.3 1.8-5.2 2.1-.5 1.5 1.1 2.8 1.9 3.6.5 2.7 1.7 1 2.7.4-.5-3.4.5-2.7-.3-.8 1.3-4.2 3.2-2.4.4 3.2.9 1.7 1 .9 1.4-.1.9.2z"/><path stroke="#151215" stroke-width=".425" d="M4.8 47.5l-1-.2-1.4.1-1-.9-.9-1.7-.4-3.2-3.1 2.4-1.1 4.2.3.8-.5 2.7.5 3.4-2.7-.4-1.7-1-.6-2.7-1.9-3.6-1.1-2.8.5-1.5 5.2-2.1.2-1.8 1-2 2.1-1.6 3.8-.5 4.7.6 1.7 2.1v3.6l-.5.7-.6.5.1 2.2-1.1 2.2-.5.5zm-1.9-5.8l-.9.6-.5 2.2.3.6 2.5.5 1.3-.5v-.5l-.6-2.2-.8 1.6h-.7l-.6-2.3z" fill="none"/><path fill-rule="evenodd" fill="#FFED00" d="M-7.5 59.3l-.9.4.2 1.5 1.4-.8-.7-1.1zm10.1 3.4l1 .7.7-1.2-.7-.8-1 1.3zm4.5-2.3l.9-.6 1.5.9-2.2-5.8-1.6.9h-7.5l-4-1.2-2.7-1.7-2.4 2.1.2 1.4-1.2 1.5 1.4-.4.9.4.9-.6 1.1 2.2 2.3-.6v1.1l1 .9 1-.1.1 1.1.8-.7 1.4.2 1.2-.6.8-.9.5.7 2.1.9 1.2-.7 1-1.4.7 1h.6z"/><path stroke="#151215" stroke-width=".425" d="M7.1 60.4l-.6-.1-.7-1-1 1.4-1.2.7-2.1-.9-.5-.6-.6.9-1.2.6-1.4-.2-.8.7-.1-1.1-1 .1-1-.9v-1.3l-2.3.6-1.1-2.2-.9.6-.9-.4-1.4.4 1.2-1.5-.2-1.4 2.4-2.1 2.7 1.7 4 1.2h7.5l1.6-.9 2.2 5.8-1.7-.7-.9.6zm-4.5 2.3l1-1.3.7.8-.7 1.2-1-.7zm-10.1-3.4l.7 1.1-1.4.8-.2-1.5.9-.4z" fill="none"/><path fill-rule="evenodd" fill="#00ADE5" d="M-5.7 57.3l-.6-1.7-1.3.8.6 1.7z"/><path stroke="#151215" stroke-width=".425" fill="none" d="M-5.7 57.3l-.6-1.7-1.3.8.6 1.7z"/><path fill-rule="evenodd" fill="#00ADE5" d="M4.7 59l-1.4-1.3-1.3 1.3 1.3 1.3z"/><path stroke="#151215" stroke-width=".425" fill="none" d="M4.7 59l-1.4-1.3-1.3 1.3 1.3 1.3z"/><path fill-rule="evenodd" fill="#FFED00" d="M-.9 57.6l-1.9-.2-.2 1.8 1.8.2z"/><path stroke="#151215" stroke-width=".425" fill="none" d="M-.9 57.6l-1.9-.2-.2 1.8 1.8.2z"/><path fill-rule="evenodd" fill="#FFED00" d="M7.9 56.6l-1.4.7.4 1.7 1.7-.6z"/><path stroke="#151215" stroke-width=".425" fill="none" d="M7.9 56.6l-1.4.7.4 1.7 1.7-.6z"/><path fill-rule="evenodd" fill="#FFED00" d="M-8.2 55.1l-1.2-1.4-1.3 1.2 1.4 1.1z"/><path stroke="#151215" stroke-width=".425" fill="none" d="M-8.2 55.1l-1.2-1.4-1.3 1.2 1.4 1.1z"/></g><g fill-rule="evenodd" clip-rule="evenodd" opacity=".5" enable-background="new"><path d="M24.2.3l-41.7-.1 5.7 11.5-3.9 8.4 7.4-7.3 16.8-11.2 5.1.3 9.5 5.8zM-27.4 25.6c-1.1-2.4-1.8-3.7-2.1-3.9-.3-.1-.9.3-1.8 1.2l-.1 2.5 4 .2zM-32.9 9.7l-2.2-4.4-1.6 2.6.5 1.8zM-14.7 29.3l7.2-5.4-.8-.8-3.2.3 6.4-5.5-7 2.7-4.3 7.6zM1 14.8l5.6-1.1 16.5 4.2-15.7-6.8-6.9 2.5zM22.6 17.1l3.9 1.4 3.5-.7 1.5-1.8-4.5 1.5-5.5-3.4 5.8-1.9-11-6.9-7-.6 5.6 2.8-10.3.6zM5.4 22.2l-7 1.7-1.7 1.4 1.9-.9 6 .7 2.5 1zM.5 33.8l-4.1-.1.9 2.2 3.2-.8c.1-.8.1-1.2 0-1.3z"/></g><g clip-rule="evenodd"><path fill-rule="evenodd" fill="#FFED00" d="M11.5 36.4v-.7l-.9-.4-4.2-7.5.1-1.1-.3-.3.1-.7-.8-.5.3-.9h-.8l-2.8-5.1.1-1.2-3.9-7.7-1-.4-2-4-.5-.6-.9-.3-.4-.8.1-.5-.5-.6h-1.2l-.3.9 1.4 1.3v1.3l2.3 3.6-.2 1 4.5 8.3.5.4 2.9 4.8v1h.5l.5 1.3.7.4v.7h.5l3.7 7.1.2 1.7.7.3v1.1l.3 1.5.7-.4 1.5.8-.5.5 1.5 1 .3-1-.9-.7.1-1.8.8-.3-1.3-1.2z"/><path stroke="#151215" stroke-width=".425" fill="none" d="M11.5 36.4v-.7l-.9-.4-4.2-7.5.1-1.1-.3-.3.1-.7-.8-.5.3-.9h-.8l-2.8-5.1.1-1.2-3.9-7.7-1-.4-2-4-.5-.6-.9-.3-.4-.8.1-.5-.5-.6h-1.2l-.3.9 1.4 1.3v1.3l2.3 3.6-.2 1 4.5 8.3.5.4 2.9 4.8v1h.5l.5 1.3.7.4v.7h.5l3.7 7.1.2 1.7.7.3v1.1l.3 1.5.7-.4 1.5.8-.5.5 1.5 1 .3-1-.9-.7.1-1.8.8-.3-1.3-1.2z"/><path fill-rule="evenodd" fill="#DDC67B" d="M-6.6 9l-1.7-1.7h-1.6l-1.5 1.4.8 3.4 2.5.7 2.6 5.4 4.7 1.3 2.3-1.8 1.2.5.9-.8-.3-.7-.8-.6-.1-.7h-.8l.4-1.3-1-1.3-.4-1.2h-.4l-.5-.8-.7.4-1.6.4h-1.3l-.9-.4.2-1-.2-.4z"/><path stroke="#151215" stroke-width=".425" fill="none" d="M-6.6 9l-1.7-1.7h-1.6l-1.5 1.4.8 3.4 2.5.7 2.6 5.4 4.7 1.3 2.3-1.8 1.2.5.9-.8-.3-.7-.8-.6-.1-.7h-.8l.4-1.3-1-1.3-.4-1.2h-.4l-.5-.8-.7.4-1.6.4h-1.3l-.9-.4.2-1-.2-.4z"/><path fill-rule="evenodd" fill="#E6BF00" d="M-20.1 29.8l.9-1.4.2-4.5 1.9-10.9 1.1-1-1-1.9 4.9 1.5.8.8 1.6.3-.9-2v-2.1l1.7-1.5 1.4.4-.9-1.6-1.3-.6-6-5.1-17.1.4v4.1l.5.6v2.3h.7l6.1 18.4z"/><path stroke="#151215" stroke-width=".425" fill="none" d="M-20.1 29.8l-5.4-3.8-6.1-18.4h-.7v-2.3l-.5-.6v-4.1l17.1-.4 6 5.1 1.3.6.9 1.6-1.4-.4-1.7 1.5v2.1l.9 2-1.6-.3-.8-.8-4.9-1.5 1 1.9-1.1 1-1.9 10.9-.2 4.5z"/><path fill-rule="evenodd" fill="#F3000B" d="M-12.1 11.6l-.4-1.2v-2l1.2-1.4 2-1.5-.4-.2-5.6-4.7-2.2 1.6-1.4 2.4v3.8l.5 1.2z"/><path stroke="#151215" stroke-width=".425" fill="none" d="M-12.1 11.6l-.4-1.2v-2l1.2-1.4 2-1.5-.4-.2-5.6-4.7-2.2 1.6-1.4 2.4v3.8l.5 1.2z"/><path fill-rule="evenodd" fill="#fff" d="M-17.9 9.8v.1l.8.1v-4.2l1.4-2.2 2-1.7-.9-.7-2.3 1.9-1.2 2v3.5z"/><path fill-rule="evenodd" fill="#FFED00" d="M-11.3 4.8l-.3-1.2-1.2.3.3 1.2zM-14.2 9.4l-.8-1-1 .8.8.9z"/><path fill-rule="evenodd" fill="#00ADE5" d="M-14.8 5.5l-.7 1.9 1.9.8.6-1.9z"/><path fill-rule="evenodd" fill="#F3000B" d="M-22 20l3.8-1 1.1-6 1.1-1-1-1.9-1.4-.5-3.9 1.7-3.2.3-3.8-.5-1.3-.3 2.8 8.6 2.6.6z"/><path stroke="#151215" stroke-width=".425" fill="none" d="M-22 20l3.8-1 1.1-6 1.1-1-1-1.9-1.4-.5-3.9 1.7-3.2.3-3.8-.5-1.3-.3 2.8 8.6 2.6.6z"/><path fill-rule="evenodd" fill="#fff" d="M-28 18.6l2.3.7 4.3-.4 3.4-.8.1-1.1-3.6 1.1-4.3.3-2.5-.7zM-29.9 12.1l.2 1.2 4.5.7 3.8-.3 5-2.5-.5-.9-5.3 2.4-3.3.3z"/><path fill-rule="evenodd" fill="#FFED00" d="M-25.9 15.9l-1.1-1-1 1.2 1.1.9zM-18.9 15.3l-.9-.8-.9 1 1 .7z"/><path fill-rule="evenodd" fill="#00ADE5" d="M-22.7 14.9l-2 .1.1 2.1 2-.2z"/><path fill-rule="evenodd" fill="#FFED00" d="M14.8 28.5l.4-2.2 1.9.7.4-2.2-2 .1.5-2 1-.1.1-.9 2-.8 2.1-1.3 1.1-1.6.2-1.1v-4.7l-7.3-2.3-3.7 2.6-1.3 1.9v2.9l.7.6 1.4 2.2 1.1.9-.2.8.5.4v2.2l-2.2-.7-.6 2.5 2-.2-.4 1.8z"/><path stroke="#151215" stroke-width=".425" fill="none" d="M14.8 28.5l-2.3-.5.4-1.8-2 .2.6-2.5 2.2.7v-2.2l-.5-.4.2-.8-1.1-.9-1.4-2.2-.7-.6v-2.9l1.3-1.9 3.7-2.6 7.3 2.3v4.7l-.2 1.1-1.1 1.6-2.1 1.3-2 .8-.1.9-1 .1-.5 2 2-.1-.4 2.2-1.9-.7z"/><g fill-rule="evenodd"><path fill="#00ADE5" d="M14.2 15.8l-1.1.5.5 1.2 1.1-.6zM18.8 16.8l-.7 1 .9.7.8-.9z"/><path fill="#F3000B" d="M15.4 18.1l2 .3.3-2-2-.2zM10 15.6l1.6 1.2 1.3-1.7-1.8-1.1zM20.1 18.5l2 .3.4-2-2-.3z"/></g><path fill-rule="evenodd" fill="#DDC67B" d="M15.9 10.9h.9-.9l-2.2 2.8-.8 2 .8.4.4-.3.7-.8 2.1-1.6.5-.4 2.4-.4 1.8.8-.3 1.6-1.5 1.2v1.4l.4.8 1.6-.8 1.5-1.6 1-2.6.4-2.2 2.2-.3 1.4-1.7-2.4-3.4h-3.2l-.3 1.8-2.8.1-2.3-.4-1.3 1-1.8.6-2.2 1.4-1.1 2.3.3.4.3.4 1.4-.4.4-.8 1.8-1.3z"/><path stroke="#151215" stroke-width=".425" fill="none" d="M15.9 10.9h-.8l-1.8 1.3-.4.8-1.4.4-.3-.4-.3-.4 1.1-2.3 2.2-1.4 1.8-.6 1.3-1 2.3.4 2.8-.1.3-1.8h3.2l2.4 3.4-1.4 1.7-2.2.3-.4 2.2-1 2.6-1.5 1.6-1.6.8-.4-.8v-1.4l1.5-1.2.3-1.6-1.8-.8-2.4.4-.5.4-2.1 1.6-.7.8-.4.3-.8-.4.8-2 2.2-2.8h.9"/><path fill-rule="evenodd" fill="#E6BF00" d="M36.8 8.1v-5.7l-1-2.2-13.4.2.5 3.4-1.1 2.1.5 1.3.2-.5 1.2-.8 1.7.8.8.7.4 2.8-.6 1 1.1.4.4-.8 6.7-.5z"/><path stroke="#151215" stroke-width=".425" fill="none" d="M36.8 8.1l-2.6 2.2-6.7.5-.4.8-1.1-.4.6-1-.4-2.8-.8-.7-1.7-.8-1.2.8-.2.5-.5-1.3 1.1-2.1-.5-3.4 13.4-.2 1 2.2z"/><path fill-rule="evenodd" fill="#F3000B" d="M34.5 10.1v-7.9l-2.1-.7-6.5-1.1h-3.5l.5 3.4-1.1 2.1.1.2 2.1-1.6 2.8 1.9 1 2.5.1 1.9z"/><path stroke="#151215" stroke-width=".425" fill="none" d="M34.5 10.1v-7.9l-2.1-.7-6.5-1.1h-3.5l.5 3.4-1.1 2.1.1.2 2.1-1.6 2.8 1.9 1 2.5.1 1.9z"/><path fill-rule="evenodd" fill="#fff" d="M33.2 10.3l.5-3.7-.5-3.8-4.9-1.6-5.9-.8.2.8 5.4.8 3.6 1.6 1.3 2.2-.7 4.5z"/><path fill-rule="evenodd" fill="#FFED00" d="M29.7 8.5h1.3v-1.2h-1.2zM24.8 4.1l1.2-.5-.4-1.1-1.2.5z"/><path fill-rule="evenodd" fill="#00ADE5" d="M29.7 4.9l-1.6-1.3-1.3 1.6 1.5 1.2z"/><path fill-rule="evenodd" fill="#FFED00" d="M20.2.2h-5.8l-1.5 2.9-1.4 1.4-.6.4v.6l1.2 2.5 2.1-.7.7-.3v-1l1.5-4.6 1-.6 1.4 1 .9 1.1.3 1.1 2.6-.6-1-1.9z"/><path stroke="#151215" stroke-width=".425" fill="none" d="M20.2.2h-5.8l-1.5 2.9-1.4 1.4-.6.4v.6l1.2 2.5 2.1-.7.7-.3v-1l1.5-4.6 1-.6 1.4 1 .9 1.1.3 1.1 2.6-.6-1-1.9z"/></g><path fill-rule="evenodd" clip-rule="evenodd" fill="#FFED00" d="M-22.6 30.7l.7 1.6.8-.5v.8l2.2 1.3.2-.9 1.5.8 1.2-.8.8-.7-.8-1 .3-.6 1.6-.9-1-.4-.4.4.4-.8-1.3-.9-.5.7.2-.9-1.2-.5-.5 1.8-.8-.8-1.5.1-.2 1.1-.7.2.4.9z"/><path clip-rule="evenodd" stroke="#151215" stroke-width=".425" fill="none" d="M-22.6 30.7l.7 1.6.8-.5v.8l2.2 1.3.2-.9 1.5.8 1.2-.8.8-.7-.8-1 .3-.6 1.6-.9-1-.4-.4.4.4-.8-1.3-.9-.5.7.2-.9-1.2-.5-.5 1.8-.8-.8-1.5.1-.2 1.1-.7.2.4.9zM-6.2 41l3.8-.9-.6 3.9M5.1 42.1l.5-2.2-1.5-2.9-.9 1.9M-14.2 29.8l7.4-5 8.1-3.1M13.1 31.7l-.3-1.9-5.4-8.3-3-1.8M-25.5 26l-1.5-.3-4.2-.1M-29.9 21.5l1.9-1.7-3.4-1.7M-34.3 12.6l2-2.3-.2-.7-4.1-.2M-29.8 18.9l-2.5-8.6M35.7 11.6l-.3 1.8-3.5.6-5.6-2.7"/><g clip-rule="evenodd"><path fill-rule="evenodd" fill="#0075BD" d="M6.2 4.4l-7.8 5.9 14-7.8z"/><path stroke="#151215" stroke-width=".425" fill="none" d="M12.4 2.5l-6.2 1.9-7.8 5.9"/></g><path clip-rule="evenodd" stroke="#151215" stroke-width=".425" fill="none" d="M-7.5 14.1l-6.7 6.2-3.3 7.1 1.1-6.4 4.6-8.9M-15.9 28.1l6.5-7.2 3.7-3.1M2.7 15.9h1.7l5.8 2.5 1.9 1.6M23.5 28.5l-6.2-5.2 3.6 6.5M28.3 21.5l-2.7-.3 1.2 2.3-2.2 3.9M4 7.9l1.8.3 5.9 2.6M30 18.1l-2.6.3-4.3-1.3M7.4 4.1l3.9 1M14.9 6.4l2.9 1M-18.4 9.6l-8.8-1.2-2.3-1.6-1.1-2.2M5.8 35.8l.8-1.2M16.1 34.6l1.7-3.1M-10.7 42.8l.5 2.6 1.2 2.7M-6.8 51.5l.1-3.2-.8-2.8.4-4.1M-5.1 46.1l1-5.6"/><path fill-rule="evenodd" clip-rule="evenodd" d="M-27.6 8.1l-.7-2.7.6-2.3 9.1.9.5-1.1 1.2-1.1-2.9-1.6-10.8.3-.8 1.4.6 5.6 2.9 1.9h-2.4l2.8.9h-2.3l5.4 15.4 2.3 1.7-4.9-16 2.6-.6-2.4-.8 2.4-.5z" opacity=".5" enable-background="new"/></symbol><symbol viewBox="-6.7 -8.5 13.4 17"><path fill-rule="evenodd" clip-rule="evenodd" fill="#009915" d="M0 8.3c1.5-1.4 2.4-2.2 2.5-2.5.4-.8.5-1.8.3-3l1.2 1.7.8-1.1c.5-.8.8-1.4.9-1.8.2-.9-.1-2-.9-3.3l1.6.9c.1-2.4-.1-4-.4-4.7-.3-.6-1.1-1-2.3-1.2l1.8-.6c-.8-.7-1.8-1-2.8-1-.1 0-.4.3-1 .8-.4.4-.8.3-1.2-.3h-1c-.4.6-.8.6-1.2.2-.6-.6-.9-.8-1-.8-1 0-2 .4-2.9 1.1l1.8.6c-1.2.2-2 .6-2.3 1.3-.2.5-.4 1.4-.4 2.8v2l1.6-.9c-.8 1.3-1 2.4-.9 3.3.1.4.4 1 .9 1.8.3.4.6.7.8 1.1l1.2-1.7c-.1 1 0 2 .4 2.8.1.3 1 1.1 2.5 2.5z"/><path fill-rule="evenodd" clip-rule="evenodd" fill-opacity=".298" d="M-4.9 3.5c.3.4.6.7.8 1.1l1.2-1.7c-.1 1.1 0 2.1.4 2.9.2.3 1 1.2 2.6 2.5v-16h-.5c-.4.5-.8.6-1.2.2-.6-.5-.9-.8-1-.8-1 0-2 .4-2.9 1.1l1.8.6c-1.2.2-2 .6-2.3 1.3-.3.4-.5 1.3-.5 2.7v2l1.6-.9c-.8 1.3-1 2.4-.9 3.3.1.3.4.9.9 1.7z"/><path clip-rule="evenodd" stroke="#000" stroke-width=".031" stroke-linecap="round" stroke-linejoin="round" stroke-miterlimit="3" d="M-4.9 3.5c-.5-.8-.8-1.4-.9-1.8-.2-.9.1-2 .9-3.3l-1.6.9v-2c0-1.3.2-2.2.4-2.7.4-.7 1.1-1.2 2.3-1.3l-1.8-.6c.9-.7 1.9-1 2.9-1 .1 0 .4.3 1 .8.4.4.8.3 1.2-.2h.5v16c-1.5-1.4-2.4-2.2-2.6-2.5-.3-.8-.4-1.8-.3-3l-1.2 1.7c-.2-.3-.5-.7-.8-1z" fill="none"/><path clip-rule="evenodd" stroke="#151215" stroke-width=".35" d="M0 8.3c-1.5-1.4-2.4-2.2-2.6-2.5-.3-.8-.4-1.8-.3-3l-1.2 1.7c-.2-.3-.5-.7-.8-1.1-.5-.8-.8-1.4-.9-1.8-.2-.9.1-2 .9-3.3l-1.6.9v-2c0-1.2.2-2.1.4-2.6.4-.7 1.1-1.2 2.3-1.3l-1.8-.6c.9-.7 1.9-1 2.9-1 .1 0 .4.3 1 .8.4.4.8.3 1.2-.2h1c.4.6.8.6 1.2.2.6-.6.9-.8 1-.8 1 0 2 .4 2.9 1.1l-1.9.5c1.2.2 2 .6 2.3 1.3.4.7.5 2.3.4 4.7l-1.5-.9c.8 1.3 1 2.4.9 3.3-.1.4-.4 1-.9 1.8l-.8 1-1.3-1.7c.2 1.2.1 2.2-.3 3-.1.3-1 1.1-2.5 2.5z" fill="none"/></symbol><symbol viewBox="-8.2 -7.9 16.3 15.8"><path fill-rule="evenodd" clip-rule="evenodd" fill="#E61616" d="M6.5 6.8c1.1-.8 1.6-2 1.5-3.6-.1-1.6-.7-3-2-4.4-1.2-1.4-3.2-3.5-6-6.4-2.8 2.9-4.8 5.1-6 6.4-1.2 1.4-1.9 2.9-2 4.4-.1 1.6.4 2.8 1.5 3.6 1 .8 2.1 1.1 3.3.8 1.2-.1 2.3-.8 3.2-1.8 1 1 2 1.7 3.2 1.8 1.2.3 2.3 0 3.3-.8z"/><path fill-rule="evenodd" clip-rule="evenodd" fill-opacity=".298" d="M0-7.6v13.4c1 1 2 1.6 3.2 1.8 1.2.2 2.3-.1 3.3-.8 1.1-.8 1.6-2 1.5-3.6-.1-1.6-.7-3-2-4.4-1.2-1.4-3.2-3.5-6-6.4z"/><path clip-rule="evenodd" stroke="#151215" stroke-width=".1" stroke-linecap="round" stroke-linejoin="round" stroke-miterlimit="3" d="M0-7.6c2.8 2.9 4.8 5.1 6 6.4 1.2 1.4 1.9 2.9 2 4.4.1 1.6-.4 2.8-1.5 3.6-1 .8-2.1 1.1-3.3.8-1.2-.2-2.2-.8-3.2-1.8v-13.4z" fill="none"/><path clip-rule="evenodd" stroke="#151215" stroke-width=".35" d="M6.5 6.8c-1 .8-2.1 1.1-3.3.8-1.2-.1-2.2-.8-3.2-1.8-.9 1.1-2 1.7-3.2 1.9-1.2.2-2.3-.1-3.3-.8-1.1-.9-1.6-2.1-1.5-3.7.1-1.6.8-3 2-4.4 1.2-1.4 3.2-3.5 6-6.4 2.8 2.9 4.8 5.1 6 6.4 1.2 1.4 1.9 2.9 2 4.4.1 1.6-.4 2.8-1.5 3.6z" fill="none"/></symbol><symbol id="e" viewBox="-3.2 -6 6.5 12.1"><path fill-rule="evenodd" clip-rule="evenodd" d="M2.8 6l-2.4-4.8 2.8-7.2h-1.8l-2 5.4-.9-1.7v-3.7h-1.7v12h1.7v-5.5l2.6 5.5h1.7z"/></symbol><symbol id="c" viewBox="-49 -74 98 148"><path fill="#F0F7E6" d="M48-68.5c0-3-2.5-5.5-5.5-5.5h-86c-3 0-5.5 2.5-5.5 5.5v136c0 3 2.5 5.5 5.5 5.5h86c3 0 5.5-2.5 5.5-5.5v-136z"/><path fill="#000" d="M43 73c2.8 0 5-2.2 5-5v-136c0-2.8-2.2-5-5-5h-86c-2.8 0-5 2.2-5 5v136c0 2.8 2.2 5 5 5h86m0 1h-86c-3.3 0-6-2.7-6-6v-136c0-3.3 2.7-6 6-6h86c3.3 0 6 2.7 6 6v136c0 3.3-2.7 6-6 6z"/></symbol><symbol id="g" viewBox="-41 -66 82 132"><g><g fill-rule="evenodd" clip-rule="evenodd"><path d="M33 66h-66v-1h66zM33-65h-66v-1h66zM-41 37h1v-88h-1zM41-37h-1v88h1zM40-.5h-80v1h80z"/></g></g></symbol><symbol viewBox="-7.7 -10.4 15.4 20.8"><g clip-rule="evenodd"><path fill-rule="evenodd" fill="#fe0" d="M0-5.9l-.4.2-.6-2.1 1-.9 1 .8-.6 2.1-.4-.1zm3-.3l-1.5.2.9-2.1-1.5-1-.9-1-.9 1-1.5 1 .9 2.1-1.5-.2 3 2.2 3-2.2z"/><path stroke="#222123" stroke-width=".35" d="M3-6.2l-3 2.2-3-2.2 1.5.2-.9-2.1 1.5-1 .9-1 .9 1 1.5 1-.9 2.1 1.5-.2zm-3 .3l.4.2.6-2.2-1-.8-1.1.8.6 2.1.5-.1z" fill="none"/></g><use xlink:href="#b" width="15.4" height="15.4" x="-7.7" y="-7.7" transform="translate(0 2.703)" overflow="visible"/></symbol><symbol id="b" viewBox="-7.7 -7.7 15.4 15.4"><path fill-rule="evenodd" clip-rule="evenodd" fill="#F40D1D" d="M6.8 3.3c.5-1 .7-2.1.7-3.3 0-1.2-.2-2.3-.7-3.3-.4-.8-.9-1.5-1.5-2-1.5-1.5-3.2-2.2-5.3-2.2-2 0-3.8.7-5.3 2.1-.7.8-1.2 1.5-1.5 2.1-.5 1-.8 2.1-.8 3.3 0 1.2.3 2.2.8 3.3.4.8.9 1.5 1.5 2.1 1.5 1.4 3.3 2.1 5.3 2.1s3.8-.7 5.3-2.1c.5-.5 1-1.2 1.5-2.1z"/><g clip-rule="evenodd"><path fill-rule="evenodd" fill="#00AFE7" d="M6.8 3.3c-2.4-.5-4.6-.7-6.8-.7s-4.4.2-6.8.7c.4.8.9 1.5 1.5 2.1 1.9-.7 3.7-1.1 5.3-1.1 1.7 0 3.4.4 5.3 1.1.5-.6 1-1.3 1.5-2.1z"/><path stroke="#222123" stroke-width=".35" d="M6.8 3.3c-.5.8-1 1.5-1.5 2.1-1.9-.7-3.6-1.1-5.3-1.1-1.7 0-3.4.4-5.3 1.1-.6-.6-1.1-1.3-1.5-2.1 2.4-.5 4.7-.7 6.8-.7 2.2 0 4.4.2 6.8.7z" fill="none"/><path fill-rule="evenodd" fill="#00AFE7" d="M6.8-3.3c-.4-.8-.9-1.5-1.5-2-1.9.7-3.6 1-5.2 1-1.8 0-3.5-.4-5.3-1.1-.8.8-1.3 1.5-1.6 2.1 2.4.5 4.6.7 6.8.7s4.4-.2 6.8-.7z"/><path stroke="#222123" stroke-width=".35" d="M6.8-3.3c-2.4.5-4.6.7-6.7.7-2.2 0-4.5-.2-6.8-.7.2-.6.7-1.3 1.4-2.1 1.8.8 3.6 1.1 5.3 1.1 1.6 0 3.4-.4 5.2-1.1.7.6 1.2 1.3 1.6 2.1z" fill="none"/></g><g fill-rule="evenodd" clip-rule="evenodd" fill="#fe0"><path d="M7.2 0l-1 1.3-2-.5 1.1.5-.6 1.3-.8-.5.2-.5-1.9-.4-.5-.7-1.7 1.8-1.9-1.8-.5.6-2 .4.4.6-.8.5-.6-1.2 1.2-.5-2 .5-1-1.3 1-1.2 2 .5-1.2-.5.6-1.3.8.4-.3.5 2 .4.5.6 1.8-1.8 1.8 1.8.5-.6 1.9-.4-.3-.5.8-.5.6 1.3-1.2.4 2-.5 1.1 1.3zM1.6-6.8v1.1l-1.6 1.1-1.6-1 .1-1.1-1.4 1.1-1.5-.5c1.4-1 2.8-1.4 4.4-1.4 1.6 0 3 .5 4.4 1.4l-1.5.5-1.3-1.2zM-1.5 6.6l-.1-1.1 1.6-1 1.6 1v1.1l1.4-1.1 1.5.5c-1.3 1-2.8 1.5-4.5 1.5-1.6 0-3.1-.5-4.5-1.5l1.6-.6 1.4 1.2z"/></g><path clip-rule="evenodd" stroke="#1A1A1A" stroke-width=".35" fill="none" d="M0-7.5v15"/><path fill-rule="evenodd" clip-rule="evenodd" fill-opacity=".149" d="M0 7.5v-15h.1c2 0 3.8.7 5.3 2.1.6.8 1.1 1.5 1.4 2.1.5 1 .8 2.1.8 3.3 0 1.2-.3 2.2-.8 3.3-.4.8-.9 1.5-1.5 2.1-1.5 1.4-3.2 2.1-5.3 2.1z"/><path clip-rule="evenodd" stroke="#222123" stroke-width=".35" d="M6.8 3.3c-.5.8-1 1.5-1.5 2.1-1.5 1.4-3.2 2.1-5.3 2.1-2 0-3.8-.7-5.3-2.1-.6-.6-1.1-1.3-1.5-2.1-.5-1-.8-2.1-.8-3.3 0-1.2.3-2.3.8-3.3.3-.6.8-1.3 1.5-2.1 1.5-1.4 3.3-2.1 5.3-2.1 2.1 0 3.8.7 5.3 2.2.6.6 1.1 1.3 1.5 2 .5 1.1.7 2.2.7 3.3 0 1.1-.2 2.2-.7 3.3z" fill="none"/></symbol><use xlink:href="#c" width="98" height="148" x="-49" y="-74" transform="matrix(1 0 0 -1 50 75)" overflow="visible"/><g><g><use xlink:href="#d" width="6.5" height="13.1" x="-3.2" y="-6.6" transform="matrix(-1 0 0 1 90 121.5)" overflow="visible"/><use xlink:href="#d" width="6.5" height="13.1" x="-3.2" y="-6.6" transform="matrix(1 0 0 -1 10 28.5)" overflow="visible"/><use xlink:href="#e" width="6.5" height="12.1" x="-3.2" y="-6" transform="matrix(-1 0 0 1 90 136)" overflow="visible"/><use xlink:href="#e" width="6.5" height="12.1" x="-3.2" y="-6" transform="matrix(-1 0 0 1 10 136)" overflow="visible"/><use xlink:href="#e" width="6.5" height="12.1" x="-3.2" y="-6" transform="matrix(1 0 0 -1 90 14)" overflow="visible"/><use xlink:href="#e" width="6.5" height="12.1" x="-3.2" y="-6" transform="matrix(1 0 0 -1 10 14)" overflow="visible"/><use xlink:href="#f" width="75.7" height="63.7" x="-36.9" transform="matrix(-1 0 0 1 50 75)" overflow="visible"/><use xlink:href="#f" width="75.7" height="63.7" x="-36.9" transform="matrix(1 0 0 -1 50 75)" overflow="visible"/><use xlink:href="#g" width="82" height="132" x="-41" y="-66" transform="matrix(1 0 0 -1 50 75)" overflow="visible"/><use xlink:href="#h" width="13.9" height="27.3" x="-7" y="-13.7" transform="matrix(-1 0 0 1 74.5 124.5)" overflow="visible"/><use xlink:href="#h" width="13.9" height="27.3" x="-7" y="-13.7" transform="matrix(-1 0 0 1 25.5 124.5)" overflow="visible"/><use xlink:href="#h" width="13.9" height="27.3" x="-7" y="-13.7" transform="matrix(1 0 0 -1 74.5 25.5)" overflow="visible"/><use xlink:href="#h" width="13.9" height="27.3" x="-7" y="-13.7" transform="matrix(1 0 0 -1 25.5 25.5)" overflow="visible"/></g></g></svg>
