<svg xmlns="http://www.w3.org/2000/svg" xmlns:xlink="http://www.w3.org/1999/xlink" viewBox="0 0 100 150" enable-background="new 0 0 100 150"><symbol viewBox="-4.9 -10.1 9.8 20.2"><path fill-rule="evenodd" clip-rule="evenodd" fill="#009C22" d="M0-1.3c3.1 0 4.7-1.6 4.7-3 0-2.6-2.6-3.9-3.5-4.2-1.1-.4-1.2-1.4-1.2-1.4s-.1 1-1.3 1.5c-.9.3-3.5 1.6-3.5 4.2.1 1.3 1.7 2.9 4.8 2.9z"/><path fill-rule="evenodd" clip-rule="evenodd" fill="#006F20" d="M0-1.3v-8.6s-.1 1-1.3 1.5c-.9.3-3.5 1.6-3.5 4.2.1 1.3 1.7 2.9 4.8 2.9z"/><path fill-rule="evenodd" clip-rule="evenodd" fill="#F40D1D" d="M3.5-2.2h-7v8.7l3.5 3.4 3.5-3.4z"/><path fill-rule="evenodd" clip-rule="evenodd" fill="#AC0019" d="M0-2.2h-3.5v8.7l3.5 3.4z"/><path stroke="#000" stroke-width=".35" stroke-linecap="round" stroke-linejoin="round" stroke-miterlimit="10" fill="none" d="M0-9.9v6.9M0 9.9v-11.8"/><path fill-rule="evenodd" clip-rule="evenodd" fill="#fe0" d="M3.5-1.2v-1.1c-.8-.4-2.1-.7-3.5-.7s-2.7.3-3.5.7v1.1c.8-.4 2-.7 3.5-.7s2.7.3 3.5.7z"/><path clip-rule="evenodd" stroke="#000" stroke-width=".35" stroke-linecap="round" stroke-linejoin="round" stroke-miterlimit="10" d="M-3.5-2.2v8.7l3.5 3.4 3.5-3.5v-8.7c.8-.6 1.3-1.3 1.3-2 0-2.6-2.6-3.9-3.5-4.2-1.2-.4-1.3-1.4-1.3-1.4s-.1 1-1.3 1.5c-.9.3-3.5 1.6-3.5 4.2.1.6.5 1.4 1.3 2z" fill="none"/><path clip-rule="evenodd" stroke="#000" stroke-width=".25" stroke-linecap="round" stroke-miterlimit="10" d="M3.5-2.3c-.8-.4-2.1-.7-3.5-.7s-2.7.3-3.5.7" fill="none"/></symbol><symbol id="f" viewBox="-8.3 -12.6 16.6 25.2"><path fill-rule="evenodd" clip-rule="evenodd" fill="#009915" d="M-1.4-9.8l-.8-.3-1.1 1.5h1.1l.8.4.4.8-1.1.6-1.4-1.1-2 .1.9 1-1.3-.3-.6.3-1.4 2.7 2.3-1.1 3.2-.5 1.6-.8v3.9l.8-.6.3-2-.1-3.2z"/><path clip-rule="evenodd" stroke="#151215" stroke-width=".35" fill="none" d="M-1.4-9.8l-.8-.3-1.1 1.5h1.1l.8.4.4.8-1.1.6-1.4-1.1-2 .1.9 1-1.3-.3-.6.3-1.4 2.7 2.3-1.1 3.2-.5 1.6-.8v3.9l.8-.6.3-2-.1-3.2z"/><path fill-rule="evenodd" clip-rule="evenodd" fill="#F3000B" d="M7.8-6l-2.4-1.4-1.2.4-.4-.3 1.2-.8-2.3-.3-1.6.8-.8-.6.1.9 1.7 2.3 1.4.4-.2-.9 1 .5h.9l1.3-.8z"/><path clip-rule="evenodd" stroke="#151215" stroke-width=".35" fill="none" d="M7.8-6l-1.3.2-1.3.8h-.9l-1-.5.2.9-1.4-.4-1.7-2.3-.1-.9.8.6 1.6-.8 2.3.3-1.2.8.4.3 1.2-.4z"/><path fill-rule="evenodd" clip-rule="evenodd" fill="#FFED00" d="M-2.2-10.1l-2.8-2.3 1.7 3.8z"/><path clip-rule="evenodd" stroke="#151215" stroke-width=".35" fill="none" d="M-2.2-10.1l-2.8-2.3 1.7 3.8z"/><use xlink:href="#a" width="13.4" height="17" x="-6.7" y="-8.5" transform="translate(-.342 4.058)" overflow="visible"/></symbol><symbol id="a" viewBox="-6.7 -8.5 13.4 17"><path fill-rule="evenodd" clip-rule="evenodd" fill="#009915" d="M0 8.3c1.5-1.4 2.4-2.2 2.5-2.5.4-.8.5-1.8.3-3l1.2 1.7.8-1.1c.5-.8.8-1.4.9-1.8.2-.9-.1-2-.9-3.3l1.6.9c.1-2.4-.1-4-.4-4.7-.3-.6-1.1-1-2.3-1.2l1.8-.6c-.8-.7-1.8-1-2.8-1-.1 0-.4.3-1 .8-.4.4-.8.3-1.2-.3h-1c-.4.6-.8.6-1.2.2-.6-.6-.9-.8-1-.8-1 0-2 .4-2.9 1.1l1.8.6c-1.2.2-2 .6-2.3 1.3-.2.5-.4 1.4-.4 2.8v2l1.6-.9c-.8 1.3-1 2.4-.9 3.3.1.4.4 1 .9 1.8.3.4.6.7.8 1.1l1.2-1.7c-.1 1 0 2 .4 2.8.1.3 1 1.1 2.5 2.5z"/><path fill-rule="evenodd" clip-rule="evenodd" fill-opacity=".298" d="M-4.9 3.5c.3.4.6.7.8 1.1l1.2-1.7c-.1 1.1 0 2.1.4 2.9.2.3 1 1.2 2.6 2.5v-16h-.5c-.4.5-.8.6-1.2.2-.6-.5-.9-.8-1-.8-1 0-2 .4-2.9 1.1l1.8.6c-1.2.2-2 .6-2.3 1.3-.3.4-.5 1.3-.5 2.7v2l1.6-.9c-.8 1.3-1 2.4-.9 3.3.1.3.4.9.9 1.7z"/><path clip-rule="evenodd" stroke="#000" stroke-width=".031" stroke-linecap="round" stroke-linejoin="round" stroke-miterlimit="3" d="M-4.9 3.5c-.5-.8-.8-1.4-.9-1.8-.2-.9.1-2 .9-3.3l-1.6.9v-2c0-1.3.2-2.2.4-2.7.4-.7 1.1-1.2 2.3-1.3l-1.8-.6c.9-.7 1.9-1 2.9-1 .1 0 .4.3 1 .8.4.4.8.3 1.2-.2h.5v16c-1.5-1.4-2.4-2.2-2.6-2.5-.3-.8-.4-1.8-.3-3l-1.2 1.7c-.2-.3-.5-.7-.8-1z" fill="none"/><path clip-rule="evenodd" stroke="#151215" stroke-width=".35" d="M0 8.3c-1.5-1.4-2.4-2.2-2.6-2.5-.3-.8-.4-1.8-.3-3l-1.2 1.7c-.2-.3-.5-.7-.8-1.1-.5-.8-.8-1.4-.9-1.8-.2-.9.1-2 .9-3.3l-1.6.9v-2c0-1.2.2-2.1.4-2.6.4-.7 1.1-1.2 2.3-1.3l-1.8-.6c.9-.7 1.9-1 2.9-1 .1 0 .4.3 1 .8.4.4.8.3 1.2-.2h1c.4.6.8.6 1.2.2.6-.6.9-.8 1-.8 1 0 2 .4 2.9 1.1l-1.9.5c1.2.2 2 .6 2.3 1.3.4.7.5 2.3.4 4.7l-1.5-.9c.8 1.3 1 2.4.9 3.3-.1.4-.4 1-.9 1.8l-.8 1-1.3-1.7c.2 1.2.1 2.2-.3 3-.1.3-1 1.1-2.5 2.5z" fill="none"/></symbol><symbol id="e" viewBox="-39.2 -14.1 78.5 78.5"><g clip-rule="evenodd"><path fill-rule="evenodd" fill="#F3000B" d="M-24.2 23.5l3.2-1.9 1 2.4 3.2 1.2 1.2-.2 3.2-2.5 3 12 4.8 2.6h4.6v-26.9l-8.5-8c-4.1 3.1-8.2 5.7-12.5 7.9-4.6 2.4-8.1 3.6-10.5 3.6-1.1 0-1.8-.2-2.3-.7-.9-.8-1.5-1.7-1.8-2.7-.2-.6-.2-1.5-.1-2.7.1-.8.1-1.5 0-1.9-.1-.9-.2-1.6-.4-2.3l-2.5 1.5v.9l.7 2.3.9 5.9-.1 1.3-1.5 2.3 6.9-3.6 5.3 2.8 1.6 6.5.6.2z"/><g fill-rule="evenodd" fill="#B1000C"><path d="M-13.1 20.4l-.3-1.4-1.5-.6-3.9 3.2-1.4-2.7.3-.5-2.4.8 2.3 4.8 3.2 1.2 1-.2-1-2.3zM-8.9 33.9l1.1.2 1-5.5-2.2-6.2zM-6.1 28.1l3.7-3.7 1.9-6.4.5-8.2-8.5-7.6c-1.4 1.1-3.1 2.2-5 3.5-3.9 2.6-7.1 4.4-9.6 5.5-2.5 1.1-4.7 1.8-6.6 2.3l-2 .3v.2l10.7-1.2 3.3 3.5-1.8 1.7 2.7-.2 5.1.9 4.4 2.5 1.2 6.9zM-33.9 12.8l-.8-.7-1-2.1v-3.3l-2.4.9 1.1 7zM-35.8 5.6l-.3-2.2-2.2 1.3z"/></g><g stroke="#151215" stroke-width=".425" fill="none"><path d="M-8.9 34.3l-.3-12.5M-6.8 28.6l-2.4-6.7-2.2-2.3-5.4-1.8-2.7.2-.7.9 1.4 2.8 1.8.8 1.1 2.4M-23.6 23l.1-1.7.3-1.4.9-.6 2.4-.9M-22.3 19.3l1.3 2.3M-19.5 18l2-1.9 4.5-3.1 6.6-2 .2-.5-1.2-1.2-9.1-1.7M-5.1 9.8l-3.4-7.6M-38.2 4.7l2.3.9M-5.6 26.6l-1.1-6.9"/><path d="M-24.2 23.5l-.6-.2-1.6-6.5-5.3-2.8-6.9 3.6 1.5-2.3.1-1.3-.9-5.9-.7-2.3v-.9l2.5-1.5c.2.7.3 1.4.4 2.3v1.9c-.1 1.2 0 2.1.1 2.7.2 1 .8 1.9 1.8 2.7.5.5 1.3.7 2.3.7 2.4 0 5.9-1.2 10.5-3.6 4.3-2.2 8.4-4.8 12.5-7.9l8.5 8v26.8h-4.7l-4.8-2.6-3-12-3.2 2.5-1.2.2-3.1-1.1-1-2.4-3.2 1.9zM-12.5 22.4l-.8-3.4"/></g><path fill-rule="evenodd" fill="#F3000B" d="M37 14l.9-5.9.7-2.3v-.9l-2.5-1.5c-.2.9-.4 1.6-.4 2.3v1.9c.1 1.2 0 2.1-.1 2.7-.2 1-.8 1.9-1.7 2.7-.5.5-1.3.7-2.3.7-2.4 0-5.9-1.2-10.5-3.6-4.4-2.1-8.5-4.8-12.6-7.9l-8.5 8v26.8h4.6l4.8-2.6 3-12 3.2 2.5 1.2.2 3.2-1.1 1.1-2.4 3.2 1.9.6-.2 1.6-6.5 5.3-2.8 6.9 3.6-1.5-2.3-.2-1.3z"/><g fill-rule="evenodd" fill="#B1000C"><path d="M13.1 20.4l3.7 2.3-1 2.3 1 .2 3.2-1.2 2.2-4.8-2.3-.8.3.5-1.4 2.7-3.8-3.2-1.6.6zM8.9 33.9l.1-11.5-2.2 6.2 1 5.5zM6 28.1l1.3-6.9 4.5-2.5 5.1-.9 2.7.2-1.9-1.7 3.4-3.5 10.6 1.2v-.3c-.4 0-1.1-.1-2-.3-1.9-.4-4.1-1.2-6.6-2.3-2.5-1.1-5.7-2.9-9.6-5.5-1.9-1.3-3.6-2.4-5-3.5l-8.5 7.7.4 8.2 1.9 6.4 3.7 3.7zM37 14.6l1.1-7-2.4-.9v3.3l-1 2.1-.8.7zM35.7 5.6l2.5-.9-2.1-1.3z"/></g><g stroke="#151215" stroke-width=".425" fill="none"><path d="M8.9 34.3l.3-12.5M6.8 28.6l2.4-6.7 2.2-2.3 5.4-1.8 2.7.2.7.9-1.4 2.8-1.9.8-1.1 2.4M23.6 23l-.1-1.7-.4-1.4-.9-.6-2.3-.9M22.2 19.3l-1.2 2.3M19.5 18l-2-1.9-4.5-3.1-6.6-2-.2-.5 1.2-1.2 9-1.7M5 9.8l3.5-7.6M38.1 4.7l-2.2.9M5.6 26.6l1-6.9"/><path d="M37 14l.9-5.9.7-2.3v-.9l-2.5-1.5c-.2.9-.4 1.6-.4 2.3v1.9c.1 1.2 0 2.1-.1 2.7-.2 1-.8 1.9-1.7 2.7-.5.5-1.3.7-2.3.7-2.4 0-5.9-1.2-10.5-3.6-4.4-2.1-8.5-4.8-12.6-7.9l-8.5 8v26.8h4.6l4.8-2.6 3-12 3.2 2.5 1.2.2 3.2-1.1 1.1-2.4 3.2 1.9.6-.2 1.6-6.5 5.3-2.8 6.9 3.6-1.5-2.3-.2-1.3zM12.5 22.4l.8-3.4"/></g></g><path clip-rule="evenodd" stroke="#151215" stroke-width=".425" d="M-6.3-.6c-4.1-3.4-8.6-6.4-13.5-9-5.2-2.8-9.2-4.2-11.8-4.2-1 0-1.8.2-2.3.7-.9.8-1.5 1.7-1.8 2.7-.2.6-.2 1.5-.1 2.7.1.6.1 1.3 0 1.9-.2 1.8-.8 3.6-1.9 5.4l-.2.3.2.4c1.1 1.8 1.7 3.6 1.9 5.5.1.6.1 1.3 0 1.9-.1 1.2 0 2.1.1 2.7.2 1 .8 1.9 1.8 2.7.5.5 1.3.7 2.3.7 2.6 0 6.6-1.4 11.8-4.2 4.9-2.6 9.4-5.7 13.5-9l.6-.5-.6-.7z" fill="none"/><path fill-rule="evenodd" clip-rule="evenodd" fill="#A4D42A" d="M-36.4-.1c1.1 1.8 1.7 3.7 1.9 5.7v2.1c-.1 1 0 1.8.1 2.3.2.7.6 1.4 1.3 2 .3.2.8.4 1.4.4 2.3 0 5.8-1.2 10.5-3.7s9.2-5.4 13.3-8.8c-4.1-3.3-8.6-6.2-13.3-8.7-4.7-2.5-8.2-3.7-10.5-3.7-.6 0-1.1.1-1.4.4-.7.6-1.1 1.3-1.3 2-.1.5-.2 1.2-.1 2.3v2.1c-.2 2-.8 3.9-1.9 5.6z"/><path clip-rule="evenodd" stroke="#151215" stroke-width=".425" d="M-36.4-.1c1.1-1.7 1.7-3.6 1.9-5.6v-2.1c-.1-1 0-1.8.1-2.3.2-.7.6-1.4 1.3-2 .3-.2.8-.4 1.4-.4 2.3 0 5.8 1.2 10.5 3.7s9.2 5.4 13.3 8.7c-4.1 3.4-8.6 6.3-13.3 8.8-4.7 2.5-8.2 3.7-10.5 3.7-.6 0-1.1-.1-1.4-.4-.7-.6-1.1-1.3-1.3-2-.1-.5-.2-1.2-.1-2.3v-2.1c-.2-2-.8-3.9-1.9-5.7z" fill="none"/><g clip-rule="evenodd"><path fill-rule="evenodd" fill="#FFA400" d="M6.6 54.5l4.9-4.4.3-1.3-.3-1.4-1.3-.6-.9 1.3-3.6-5.9-2.7-2.1-3.3 2.2-2-2.2-3.8 2.2-.5 1.8-.1.1-.9 1.6-1.4 1.4-1.1-.6-1.3.8.2 2.1.4.7 3 2.8 2 3 1.1 1h1.4l3.4-.7 4.5.9 1.2-1z"/><path stroke="#151215" stroke-width=".425" fill="none" d="M6.6 54.5l4.9-4.4.3-1.3-.3-1.4-1.3-.6-.9 1.3-3.6-5.9-2.7-2.1-3.3 2.2-2-2.2-3.8 2.2-.5 1.8-.1.1-.9 1.6-1.4 1.4-1.1-.6-1.3.8.2 2.1.4.7 3 2.8 2 3 1.1 1h1.4l3.4-.7 4.5.9 1.2-1z"/><path fill-rule="evenodd" fill="#F74600" d="M6 53l4-4.3.4-1.2-.4-.4-.7 1-3.6-5.9-2.7-2.1-3.3 2.2-2-2.2-3.8 2.2-.5 1.8-.1.1-.9 1.6-1.4 1.4-1.1-.6-.1.1.5 1.4 3 4.3 6.7 2.2z"/><path stroke="#151215" stroke-width=".425" fill="none" d="M6 53l-6 1.6-6.7-2.2-3-4.3-.5-1.4.1-.1 1.1.6 1.4-1.4.9-1.6.1-.1.5-1.8 3.8-2.2 2 2.2 3.3-2.2 2.7 2.1 3.6 5.9.7-1 .4.4-.4 1.2z"/></g><g clip-rule="evenodd"><path fill-rule="evenodd" fill="#00A128" d="M2.9 60.8l.9-1.6-.4-2.8.4-.2c.1 0-.2-.6-.9-1.6l.5-.6-1.4-2.4.5-.4c.1 0-.3-.9-1.2-2.5l-.3-7.2-1.9.7-.1 6.6c0 .1-.4.7-1.3 1.6l.6.9-1.2 1.8.4.4-1.3 1.8.5.7-.6 1.6.5 2.7.9 1.3-.2-1.1 1.7 1.5.8 1.8.5-1.7 1.2-.9 1.1-1.6.3 1.2z"/><path stroke="#151215" stroke-width=".425" d="M2.9 60.8l-.1-1.1-1.1 1.6-1.2.9-.5 1.7-.9-1.9-1.7-1.5.2 1.1-.9-1.3-.5-2.7.6-1.6-.5-.7 1.3-1.8-.4-.4 1.2-1.8-.6-.9c.9-1 1.3-1.5 1.3-1.6l.1-6.6 1.8-.7.2 7.2c.9 1.6 1.3 2.5 1.2 2.5l-.4.4 1.4 2.4-.5.6c.7 1.1 1 1.6.9 1.6l-.4.2.4 2.8-.9 1.6z" fill="none"/><path fill-rule="evenodd" fill="#00ADE5" d="M0 58.3l1 .8 1.1-.2.4-.8-.2-1.5-2.3-3.6-2.7 4.2.2 1 .9.7h.8z"/><path stroke="#151215" stroke-width=".425" fill="none" d="M0 58.3l-.8.6h-.8l-.9-.7-.2-1 2.7-4.2 2.3 3.6.2 1.5-.4.8-1.1.2z"/><path fill-rule="evenodd" fill="#00A128" d="M-10.5 59.1l1.8-.8-.5 1.1 1.6-.9 1-2.6h.4c.1 0 .1-.6 0-1.9l.8-.3-.1-2.8.6-.1.1-2.8 3.4-6.9-1.9-.3-3.3 6.2c-.1.1-.7.3-2 .8l.1 1.1-1.9 1 .2.5-1.9.9v.9l-1.4 1.1-.8 2.6.2 1.6.4-1.1.8 2.2v2l1.1-1.3 1.3-.2z"/><path stroke="#151215" stroke-width=".425" d="M-10.5 59.1l-1.4.2-1.1 1.3v-2l-.8-2.2-.4 1.1-.2-1.6.8-2.6 1.4-1.1v-.9l1.9-.9-.2-.5 1.9-1-.1-1.1c1.3-.4 1.9-.7 2-.8l3.4-6.1 1.9.3-3.4 6.9-.1 2.8-.6.1.1 2.8-.8.3c.1 1.3 0 1.9 0 1.9h-.4l-1 2.6-1.6.9.5-1.1-1.8.7z" fill="none"/><path fill-rule="evenodd" fill="#00ADE5" d="M-10.5 55.7l.6 1.1 1 .4.8-.4.5-1.5-.3-4.3-4.3 2.4-.3 1 .4 1 .7.4z"/><path stroke="#151215" stroke-width=".425" fill="none" d="M-10.5 55.7l-.9.1-.7-.4-.4-1 .3-1 4.3-2.4.3 4.3-.5 1.5-.8.4-1-.4z"/><path fill-rule="evenodd" fill="#00A128" d="M13.9 56.3l.4 1.1.2-1.6-.8-2.6-1.4-1.1.1-.9-2-.9.2-.5c0-.1-.6-.4-1.9-1l.1-1.1-1.9-.8-3.2-6.1-1.9.3 3.1 6.8.1 2.8.6.1-.1 2.8.8.3v.9c0 .6 0 .9.1.9h.4l1 2.6 1.6.9-.5-1.1 1.8.8 1.4.2 1.1 1.3v-2l.7-2.1z"/><path stroke="#151215" stroke-width=".425" d="M13.9 56.3l.4 1.1.2-1.6-.8-2.6-1.4-1.1.1-.9-2-.9.2-.5c0-.1-.6-.4-1.9-1l.1-1.1-1.9-.8-3.2-6.1-1.9.3 3.1 6.8.1 2.8.6.1-.1 2.8.8.3v.9c0 .6 0 .9.1.9h.4l1 2.6 1.6.9-.5-1.1 1.8.8 1.4.2 1.1 1.3v-2l.7-2.1z" fill="none"/><path fill-rule="evenodd" fill="#00ADE5" d="M10.6 55.7l1 .1.7-.4.3-1-.2-1-4.4-2.4-.3 4.3.5 1.5.8.4 1.1-.4z"/><path stroke="#151215" stroke-width=".425" fill="none" d="M10.6 55.7l1 .1.7-.4.3-1-.2-1-4.4-2.4-.3 4.3.5 1.5.8.4 1.1-.4z"/></g><g clip-rule="evenodd"><path fill-rule="evenodd" fill="#C6C5DC" d="M7 34.1h2l-.2-.9-.6-.1-.4-2.9h.4l-.4-1-.6-.2v-.5l-1.3-2.7-1.5-1.8.6-2c.8-1.3 1.3-1.9 1.4-1.9l2.6-1.7 2.1-.9.7.8 2-.6 1-.8.2-.9-1-.4h-2.7l-1.6-1.8-1.2-.8-1.3.6.2-1.3-.9-1.8-1-.7-1.7.5.1-1.2c-.4-.6-.7-.9-.7-.9l-2-1-1.2-.8-1.1.9-2.1 1-.7.8.1 1.2-1.8-.5-1 .7-.9 1.8.2 1.3-1.2-.6-1.1.9-1.6 1.8h-2.8l-1 .4.2.9 1 .8 2 .6.7-.8 2.1.9 2.6 1.7c.1 0 .5.6 1.4 1.9l.6 2-1.5 1.9-1.3 2.7v.3l-.5.1-.4 1h.4l-.4 2.9-.6.1-.3 1h2l1.4 2.6 1.6 1.9 4 .4 4.1-.4 1.6-1.9 1.3-2.6z"/><path fill-rule="evenodd" fill="#009E64" d="M0 37.8l3.3-.1 1.5-3.3v-5.7l-2.5-4.6.5-3.3 3.3-6.1.3-2.2-.6-1.5-.5-.3-2.6.8.3-2.3-.4-.4-2.1-.9-.5-.7z"/><path stroke="#151215" stroke-width=".425" fill="none" d="M7 34.1l-1.4 2.6-1.5 1.9-4.1.4-4.1-.4-1.5-1.9-1.4-2.6M-7.2 29l1.3-3.2 1.5-1.9-.6-1.9c-.8-1.3-1.3-1.9-1.4-1.9l-2.6-1.7-2.1-.9-.7.8-2-.6-1-.8-.2-.9 1-.4h2.7l1.6-1.8 1.1-.9 1.4.6-.2-1.3.9-1.8 1-.7 1.8.5-.1-1.2.7-.8 2.1-1 1-.8 1.1.9 2 1c.1 0 .3.3.7.8l-.1 1.2 1.7-.5 1 .7.9 1.8-.2 1.3 1.4-.6 1.2.9 1.6 1.8h2.7l1 .4-.2.9-1 .8-2 .6-.8-.9-2.1.9-2.6 1.7c-.1 0-.5.6-1.4 1.9l-.6 2 1.4 1.9 1.5 3.1M4.6 34.9l-1.3 2.8M6.1 14.7l-3.3 6.1-.5 3.3 2.5 4.6"/><g stroke="#151215" stroke-width=".425" fill="none"><path d="M-4.8 28.7l2.5-4.6-.5-3.3M-3.3 37.7l-1.4-2.9M-4.4 24l.9-1.6"/></g><path stroke="#151215" stroke-width=".425" fill="none" d="M4.4 24l-.9-1.6"/><path stroke="#151215" stroke-width=".425" fill="none" d="M9 34.1h-2.4l-3.2 1.2-3.4 2.1-3.5-2.1-3.1-1.2h-2.4l.2-.9.7-.1.3-2.9-.3-.1.3-1 3.3-.5 2.6-.9 1.9-1.1 1.9 1.1 2.6.9 3.2.5.4 1-.4.1.4 2.9.7.1z"/><g fill-rule="evenodd" fill="#151215"><path d="M-6 32.3l.4-.6-.4-.6-.4.6zM-4.9 32.7l1.1.3-.4-1.3.4-1.3-1.1.2.3 1.1zM-3.3 31.6l.5.9.7-1-.6-.8zM-1.7 33.2l.9.7-.2-2.2.1-2.2-.8.8.4 1.4zM6 32.3l.4-.6-.4-.6-.4.6zM4.9 32.7l-.3-1 .3-1.1-1.1-.2.4 1.3-.4 1.3zM3.3 31.6l-.6-.9-.6.8.6 1zM1.7 33.2l-.4-1.5.4-1.4-.8-.8.1 2.2-.2 2.2z"/></g><g stroke="#151215" stroke-width=".425" fill="none"><path d="M-11.2 15.6l-.9 1.7-1.1-.2-.9-.6M-11 17.5l.3-1.4 1.3-1.5 1-.7 2.3.8-.3-2.2.6-1.5.5-.3 2.6.8-.3-2.3.4-.4 2.1-.9.5-.7M11.2 15.6l.9 1.7 1-.2 1-.6M11 17.5l-.3-1.4-1.3-1.5-1-.7-2.3.8.3-2.2-.6-1.5-.5-.3-2.6.8.3-2.3-.4-.4-2.1-.9-.5-.7"/></g><path stroke="#151215" stroke-width=".425" fill="none" d="M-7.8 30.2l3.3-.5 2.6-.8 1.9-1.1 1.9 1.1 2.6.8 3.2.5M8.1 33.1h-2.1l-2.9 1.1-3.1 1.8-3.1-1.8-3-1.1h-2M0 37.8v-31.5"/><path fill-rule="evenodd" fill="#FFED00" d="M-.9 40.2l.9-.6.9.6-.9 1.2-.9-1.2zm-.5 2.3l-.1.9-1 1v1.4l1.2-.8.1 1.4 1 .7 1-.7.1-1.4 1.2.8.1-1.4-1-1v-.9l.5-.7 1.3.1-.5 1 .7.9.9-.5-.3-1-.4-.6.4-.5 1 .9-.7 1.7.5.9.9-.6v-1l.6 1.4h2l-2.6-4-.3-2.3.4-.5-.1-.5c-1.8.4-3.6.5-5.5.5s-3.7-.2-5.5-.5l-.1.5.4.5-.3 2.3c-1.2 1.8-2.1 3.2-2.6 4h2l.6-1.4v1l.9.6.5-.9-.7-1.7 1-.9.3.5-.4.6-.3 1 .9.5.7-.9-.5-1 1.1-.1.6.7z"/><path stroke="#151215" stroke-width=".425" d="M-1.4 42.5l-.5-.7-1.1.1.5 1-.7.9-.9-.5.3-1 .4-.6-.3-.5-1 .9.7 1.7-.5.9-.9-.6v-1l-.6 1.4h-2c.5-.8 1.4-2.2 2.6-4l.3-2.3-.4-.5.1-.5c1.8.4 3.6.5 5.5.5s3.7-.2 5.5-.5l.1.5-.4.5.3 2.3 2.6 4h-2l-.6-1.4v1l-.9.6-.5-.9.7-1.7-1-.9-.4.5.4.6.3 1-.9.5-.7-.9.5-1-1.1-.1-.5.7v.9l1 1-.1 1.4-1.2-.8-.2 1.4-1 .7-1-.7-.1-1.4-1.2.8v-1.4l1-1-.1-.9zm.5-2.3l.9 1.2.9-1.3-.9-.5-.9.6z" fill="none"/><path fill-rule="evenodd" fill="#FFED00" d="M-5.2 38.4c3.5.6 7 .6 10.5 0h-10.5z"/><path stroke="#151215" stroke-width=".425" d="M-5.2 38.4c3.5.6 7 .6 10.5 0" fill="none"/><path fill-rule="evenodd" fill="#FFED00" d="M-6.8 42.3l.6-.3 1.5-1.5-.1-.7-3.1-.4-.5.8.8.9-1.4.2-.5-.8.9-2.3-1.4.4.7-1.8-.9-2.6-1.9 1.4v1.6l-.7-.6-.5 1.2.5 2.2-.9-1-.4-1.3.6-2-.6-1.5h-.5l-.8 2.7-.4-1.7.8-3.4 1-1.6.1 1.8.7.8.3-1.2 1.1 1.9 2.2-.1-1.4-.4-2.5-3.6-2-.1-.6 1.5-.4-1.2-.9.9-.1 1.4.1 1.5-.8.2-1-3.2-1-1-3.3-.7h-1.3l-.7 1v.8l-1.7 1-.5 1 .7 1.9.9-1.2 1.9 1.2.7 1.8.9-2.3-1-1.7 1.5.3-.5-1.3-.7-.6-.7-1.1.5-.3.9.3 2.8 5.3 1.6 2.4 1 .7 1.3 1.7 3.6 2.3 2.3.4.8.4z"/><path stroke="#151215" stroke-width=".425" fill="none" d="M-6.8 42.3l.6-.3 1.5-1.5-.1-.7-3.1-.4-.5.8.8.9-1.4.2-.5-.8.9-2.3-1.4.4.7-1.8-.9-2.6-1.9 1.4v1.6l-.7-.6-.5 1.2.5 2.2-.9-1-.4-1.3.6-2-.6-1.5h-.5l-.8 2.7-.4-1.7.8-3.4 1-1.6.1 1.8.7.8.3-1.2 1.1 1.9 2.2-.1-1.4-.4-2.5-3.6-2-.1-.6 1.5-.4-1.2-.9.9-.1 1.4.1 1.5-.8.2-1-3.2-1-1-3.3-.7h-1.3l-.7 1v.8l-1.7 1-.5 1 .7 1.9.9-1.2 1.9 1.2.7 1.8.9-2.3-1-1.7 1.5.3-.5-1.3-.7-.6-.7-1.1.5-.3.9.3 2.8 5.3 1.6 2.4 1 .7 1.3 1.7 3.6 2.3 2.3.4.8.4zM-25.5 30.5v1.5l1.3 1.1M-17.2 37.9v-2.2M-10 42.3l-1.1-1.4M-7.6 41.1l1.2-.2"/><path fill-rule="evenodd" fill="#FFED00" d="M6.7 42.3l2.5.4.8-.4 2.2-.4 3.6-2.3 1.4-1.7.9-.7 1.7-2.4 2.8-5.3.9-.3.5.3-.7 1.1-.7.6-.5 1.3 1.5-.3-1 1.7.9 2.3.7-1.8 1.9-1.2.8 1.2.8-1.9-.6-1-1.6-1v-.8l-.8-1h-1.2l-3.3.7-1 1-1 3.2-.8-.2.1-1.5-.1-1.4-.9-.9-.5 1.2-.5-1.5-2 .1-2.5 3.6-1.4.4 2.2.1 1.1-1.9.3 1.2.6-.8.2-1.8 1 1.6.8 3.4-.4 1.7-.9-2.7h-.4l-.6 1.5.6 2-.4 1.3-.9 1 .5-2.2-.5-1.2-.7.6v-1.6l-2-1.4-.7 2.6.5 1.8-1.3-.4.9 2.3-.5.8-1.4-.2.7-.9-.3-.8-3.2.4-.2.7 1.6 1.5z"/><path stroke="#151215" stroke-width=".425" fill="none" d="M6.7 42.3l-.5-.3-1.6-1.5.2-.7 3.2-.4.3.8-.7.9 1.4.2.5-.8-.9-2.3 1.3.4-.5-1.8.7-2.6 2 1.4v1.6l.7-.6.5 1.2-.5 2.2.9-1 .4-1.3-.6-2 .6-1.5h.4l.9 2.7.4-1.7-.8-3.4-1-1.6-.2 1.8-.6.8-.3-1.2-1.1 1.9-2.2-.1 1.4-.4 2.5-3.6 2-.1.5 1.5.5-1.2.9.9.1 1.4-.1 1.5.8.2 1-3.2 1-1 3.3-.7h1.2l.8 1v.8l1.6 1 .6 1-.8 1.9-.8-1.2-1.9 1.2-.7 1.8-.9-2.3 1-1.7-1.5.3.5-1.3.7-.6.7-1.1-.5-.3-.9.3-2.8 5.3-1.7 2.4-.9.7-1.4 1.7-3.6 2.3-2.2.4-.8.4zM25.5 30.5v1.5l-1.3 1.1M17.1 37.9v-2.2M10 42.3l1-1.4M7.6 41.1l-1.2-.2"/></g><g clip-rule="evenodd"><path fill-rule="evenodd" fill="#FFED00" d="M-4.1 5c.2.1.4 0 .7-.1l1-.9-.2 1.3c0 .2.1.5.2.6.2.2.4.3.6.3h3.3c.2 0 .5-.1.6-.3.2-.2.3-.4.3-.6l-.1-1.3 1 .9c.3.1.5.2.8.1.2-.1.4-.2.5-.5l1.6-2.8c.2-.2.2-.4.1-.7 0-.2-.2-.4-.4-.5l-1.2-.5 1.2-.5c.2-.1.4-.3.4-.5.1-.2 0-.5-.1-.7l-1.6-2.9c-.1-.2-.3-.3-.5-.4-.3-.1-.5 0-.7.1l-1.1.9.2-1.4c0-.2-.1-.4-.3-.6-.1-.2-.3-.3-.6-.3h-3.3c-.2 0-.5.1-.6.3-.2.2-.2.3-.2.6l.2 1.4-1-.9c-.3-.1-.5-.2-.8-.1-.2.1-.4.2-.5.4l-1.7 2.9c-.1.2-.1.4-.1.7.1.2.2.4.5.5l1.2.5-1.2.5c-.2.1-.4.3-.5.5-.1.2 0 .5.1.7l1.7 2.8c.1.3.3.4.5.5z"/><path stroke="#151215" stroke-width=".425" d="M-4.1 5c-.2-.1-.4-.2-.5-.5l-1.7-2.8c-.1-.2-.1-.4-.1-.7.1-.2.2-.4.5-.5l1.2-.5-1.2-.5c-.2-.1-.4-.3-.5-.5-.1-.2 0-.5.1-.7l1.7-2.9c.1-.2.3-.3.5-.4.2-.1.5 0 .7.1l1 .9-.2-1.4c0-.2.1-.4.2-.6.2-.2.4-.3.6-.3h3.3c.2 0 .5.1.6.3.2.2.3.3.3.6l-.1 1.4 1-.9c.3-.1.5-.2.8-.1.2.1.4.2.5.4l1.6 2.9c.2.2.2.4.1.7 0 .2-.2.4-.4.5l-1.2.5 1.2.5c.2.1.4.3.4.5.1.2 0 .5-.1.7l-1.6 2.8c-.1.3-.3.4-.5.5-.3.1-.5 0-.7-.1l-1.1-.9.2 1.3c0 .2-.1.5-.3.6-.1.3-.3.4-.6.4h-3.3c-.2 0-.5-.1-.6-.3-.2-.2-.2-.4-.2-.6l.2-1.4-1 .9c-.3.1-.6.2-.8.1z" fill="none"/><g stroke="#151215" stroke-width=".425" fill="none"><path d="M1.8 5.5l-1.8-.6-1.9.6M0 4.9v-.9M-1.9-5.5l1.9.6 1.8-.6M0-4.9v.9M-3.9 4.3l-.4-1.9-1.4-1.3M-4.3 2.4l.8-.5M3.8-4.4l.4 1.8 1.5 1.4M4.2-2.6l-.8.5M-5.7-1.2l1.4-1.4.4-1.8M-4.3-2.6l.8.5M5.7 1.1l-1.5 1.3-.4 1.9M4.2 2.4l-.8-.5"/></g><path stroke="#151215" stroke-width=".425" fill="none" d="M-3.5 2l3.5 2 3.4-2v-4l-3.4-2-3.5 2z"/><path fill-rule="evenodd" fill="#009915" d="M2.8 0c0-.8-.3-1.4-.8-1.9-.6-.6-1.2-.9-2-.9s-1.4.3-2 .8c-.5.6-.8 1.2-.8 2s.3 1.4.8 2c.6.5 1.2.8 2 .8s1.4-.3 1.9-.8c.6-.6.9-1.2.9-2z"/><path stroke="#151215" stroke-width=".425" d="M2.8 0c0-.8-.3-1.4-.8-1.9-.6-.6-1.2-.9-2-.9s-1.4.3-2 .8c-.5.6-.8 1.2-.8 2s.3 1.4.8 2c.6.5 1.2.8 2 .8s1.4-.3 1.9-.8c.6-.6.9-1.2.9-2zM1.6 0c0-.4-.2-.8-.5-1.1-.3-.3-.7-.5-1.1-.5-.5 0-.8.2-1.1.5-.3.3-.5.7-.5 1.1 0 .5.2.8.5 1.1.3.3.6.5 1.1.5.4 0 .8-.2 1.1-.5.3-.3.5-.7.5-1.1z" fill="none"/></g><g clip-rule="evenodd"><path fill-rule="evenodd" fill="#009B32" d="M29.3 19.4l1.1-1.6-18.9-12-6.5-1.8z"/><path stroke="#151215" stroke-width=".425" fill="none" d="M29.3 19.4l-24.3-15.4 6.5 1.8 18.9 12z"/><path fill-rule="evenodd" fill="#C6C5DC" d="M29.3 19.4l-24.3-15.4 4.4 5.1 18.9 12z"/><path stroke="#151215" stroke-width=".425" fill="none" d="M29.3 19.4l-1 1.7-18.9-12-4.4-5.1z"/></g><g clip-rule="evenodd"><path fill-rule="evenodd" fill="#FFED00" d="M22.3 15.9v-.9l.8-.4.6-.9-1.7 2.6.3-.4zm.6 2.1l2.4-3.7-2-1.3-.8 1.2-.8.4v.9l-.8 1.2 2 1.3z"/><path stroke="#151215" stroke-width=".425" d="M23.2 14.6l-.9.4v.9m.6 2.1l2.4-3.7-2-1.3-.8 1.2-.8.4v.9l-.8 1.2 2 1.3z" fill="none"/></g><path fill-rule="evenodd" clip-rule="evenodd" fill="#FFED00" d="M11.2 5.6l-.7-.2-1.9 3 .6.4z"/><path clip-rule="evenodd" stroke="#151215" stroke-width=".425" fill="none" d="M11.2 5.6l-.7-.2-1.9 3 .6.4"/><path fill-rule="evenodd" clip-rule="evenodd" fill="#FFED00" d="M9.2 8.8l.5.5 2.1-3.3-.6-.4z"/><path clip-rule="evenodd" stroke="#151215" stroke-width=".425" d="M11.8 6l-.6-.3m-2 3.1l.5.5" fill="none"/><path fill-rule="evenodd" clip-rule="evenodd" fill="#FFED00" d="M10.4 8.2l-.7 1.1.5.5.8-1.2.7-.4v-.8l.8-1.2-.7-.2-.7 1v.9z"/><path clip-rule="evenodd" stroke="#151215" stroke-width=".425" d="M10.4 8.2l.7-.4v-.8m.7-1l.6.3-.7 1.2v.8l-.7.3-.8 1.1-.5-.4" fill="none"/><g clip-rule="evenodd"><path fill-rule="evenodd" fill="#FFED00" d="M25.7 19.5l1.3.2.5-.9-.3-.7.8-.2.5-.8-.6-1-1.5-.2-2.2.3.6 2.1z"/><path stroke="#151215" stroke-width=".425" fill="none" d="M25.7 19.5l-.9-1.2-.6-2.1 2.2-.3 1.5.2.6 1-.5.8-.8.2.3.7-.5.9zM27.2 18.1l-.4-.3-.4.3-.3.8.2.2M27.2 18.1l-.4-.3.1-.5.5-.5h.3M26.2 18.6l-.7-.9-.2-.9h.9l1.1.2"/></g><path fill-rule="evenodd" clip-rule="evenodd" fill="#FFED00" d="M37.4 25.5l.9-1.4-.1-.7-.8.4.4-.5-.1-.9-.8-.2-.6.2-3.8-2 .1-.8h-.9l-.5-.3-.1-.5.5-1.3.2.4.8-.6-.3-1.2-1.1.1-.9 1.2-.2.8-.6.8-1-.1.5.9-.5.9-.6.6-.7 1.3.4.9 1.2-.3.2-.9h-.5l1-1 .5-.1.5.3.4.8.7-.4 3.3 2.6.2.7.4.5.9-.2.3-.6v.9z"/><path clip-rule="evenodd" stroke="#151215" stroke-width=".425" fill="none" d="M37.4 25.5l.9-1.4-.1-.7-.8.4.4-.5-.1-.9-.8-.2-.6.2-3.8-2 .1-.8h-.9l-.5-.3-.1-.5.5-1.3.2.4.8-.6-.3-1.2-1.1.1-.9 1.2-.2.8-.6.8-1-.1.5.9-.5.9-.6.6-.7 1.3.4.9 1.2-.3.2-.9h-.5l1-1 .5-.1.5.3.4.8.7-.4 3.3 2.6.2.7.4.5.9-.2.3-.6v.9z"/><g clip-rule="evenodd"><path fill-rule="evenodd" fill="#FFED00" d="M34.9 24.5l.5-.6h1l-.5-.7.4-.8z"/><path stroke="#151215" stroke-width=".425" fill="none" d="M34.9 24.5l.5-.6h1l-.5-.7.4-.8"/></g><g clip-rule="evenodd"><path fill-rule="evenodd" fill="#FFED00" d="M35.4 23.9l.5-.7-1-.2z"/><path stroke="#151215" stroke-width=".425" fill="none" d="M35.4 23.9l-.5-.9 1 .2"/></g><path clip-rule="evenodd" stroke="#151215" stroke-width=".425" fill="none" d="M31.6 21.9l1-1.5M30.5 21.5l1.2-1.9"/><g clip-rule="evenodd"><path fill-rule="evenodd" fill="#009B32" d="M-29.8 19.4l24.3-15.4-6.4 1.8-18.9 12z"/><path stroke="#151215" stroke-width=".425" fill="none" d="M-29.8 19.4l24.3-15.4-6.4 1.8-18.9 12z"/><path fill-rule="evenodd" fill="#C6C5DC" d="M-29.8 19.4l1.1 1.7 18.9-12 4.3-5.1z"/><path stroke="#151215" stroke-width=".425" fill="none" d="M-29.8 19.4l1.1 1.7 18.9-12 4.3-5.1z"/></g><g clip-rule="evenodd"><path fill-rule="evenodd" fill="#FFED00" d="M-24.5 13.4l.9 1.2.8.4v.9l.4.6-2.1-3.1-1.3.8 2.4 3.8 2-1.3-.7-1.2v-.9l-.9-.4-.8-1.2z"/><path stroke="#151215" stroke-width=".425" d="M-24.5 13.4l.7-.4.8 1.2.9.4v.9l.8 1.2-2 1.3-2.4-3.7 1.2-.9zm1.7 2.5v-.9l-.8-.4" fill="none"/></g><path fill-rule="evenodd" clip-rule="evenodd" fill="#FFED00" d="M-9.6 8.8l.5-.4-1.9-3-.7.2z"/><path clip-rule="evenodd" stroke="#151215" stroke-width=".425" fill="none" d="M-11.7 5.6l.7-.2 1.9 3-.5.4"/><path fill-rule="evenodd" clip-rule="evenodd" fill="#FFED00" d="M-10.1 9.3l.5-.5-2.1-3.2-.6.4z"/><path clip-rule="evenodd" stroke="#151215" stroke-width=".425" d="M-12.3 6l.6-.3m2.1 3.1l-.5.5" fill="none"/><path fill-rule="evenodd" clip-rule="evenodd" fill="#FFED00" d="M-12.3 6l-.6.2.7 1.2v.8l.8.4.7 1.2.6-.5-.8-1.1-.7-.3v-.9z"/><path clip-rule="evenodd" stroke="#151215" stroke-width=".425" d="M-10.9 8.2l-.7-.4v-.8m-.7-1l-.6.3.7 1.2v.8l.7.4.8 1.1.5-.5" fill="none"/><g clip-rule="evenodd"><path fill-rule="evenodd" fill="#FFED00" d="M-28.3 16.1l-.7 1 .6.8.7.2-.2.7.5.9 1.2-.2.9-1.2.6-2.1-2.1-.3z"/><path stroke="#151215" stroke-width=".425" fill="none" d="M-28.3 16.1l-.7 1 .6.8.7.2-.2.7.5.9 1.2-.2.9-1.2.6-2.1-2.1-.3zM-27.7 18.1l.5-.3.4.3.3.8-.3.2M-27.7 18.1l.5-.3-.2-.5-.5-.5h-.3M-26.6 18.6l.6-.9.3-.9h-1l-1.1.2"/></g><path fill-rule="evenodd" clip-rule="evenodd" fill="#FFED00" d="M-37.8 25.5l.7.3v-.9l.2.6.9.2.5-.5.1-.7 3.4-2.6.7.4.4-.8.5-.3.5.1.9 1h-.4l.2.9 1.2.3.4-.9-.7-1.3-.7-.6-.4-.9.4-.9-1 .1-.6-.8-.2-.8-.9-1.2-1-.1-.3 1.2.7.6.3-.4.5 1.3-.1.5-.5.3h-1l.1.8-3.7 2-.7-.2-.7.2-.2.9.5.5-.8-.4-.1.7z"/><path clip-rule="evenodd" stroke="#151215" stroke-width=".425" fill="none" d="M-37.8 25.5l-.9-1.4.1-.7.8.4-.5-.5.2-.9.7-.2.7.2 3.7-2-.1-.8h1l.5-.3.1-.5-.5-1.3-.3.4-.7-.6.3-1.2 1 .1.9 1.2.2.8.6.8 1-.1-.4.9.4.9.7.6.7 1.3-.4.9-1.2-.3-.2-.9h.4l-.9-1-.5-.1-.5.3-.4.8-.7-.4-3.4 2.6-.1.7-.5.5-.9-.2-.2-.6v.9z"/><g clip-rule="evenodd"><path fill-rule="evenodd" fill="#FFED00" d="M-35.4 24.5l-1.3-2.1.3.8-.4.7h1z"/><path stroke="#151215" stroke-width=".425" fill="none" d="M-35.4 24.5l-.4-.6h-1l.4-.7-.3-.8"/></g><g clip-rule="evenodd"><path fill-rule="evenodd" fill="#FFED00" d="M-35.8 23.9l.5-.9-1.1.2z"/><path stroke="#151215" stroke-width=".425" fill="none" d="M-35.8 23.9l.5-.9-1.1.2"/></g><path clip-rule="evenodd" stroke="#151215" stroke-width=".425" fill="none" d="M-32 21.9l-1.1-1.5M-30.9 21.5l-1.2-1.9"/><path fill-rule="evenodd" clip-rule="evenodd" fill="#009B32" d="M-17.4 4.3l2.1-.9-.8-1.2 1.8.6 1.6-.9-.9-1.1 1.2.5 2.4-1.3-2.4-1.3-1.2.5.9-1.1-1.6-.9-1.8.7.8-1.3-2.1-.9-1.5.3.5-1.2-1.8-.8-2 .5.5-1.2-2.9-.9-1.6.5-.5 1.4-1.2-1-.5 2 .3 1.6 1.9 1.2.5 1.3-3.6-.1-1-.2-1.9-.6-1.4-1.2.6 2.7-.6 2.7 1.4-1.2 1.9-.6v.8l-.5 1h-.8l-1.1.7-.2 2 1.3-.2-1.1 1.9 1.5 2.2 3.3 1.3-2.2-2.7v-2.5l1.1-2.4-.3-2.2 3.6-.1-.5 1.2-1.9 1.2-.3 1.6.5 2 1.2-1 .5 1.4 1.6.5 2.9-.9-.5-1.2 2 .5 1.8-.8-.5-1.2z"/><path clip-rule="evenodd" stroke="#151215" stroke-width=".425" fill="none" d="M-17.4 4.3l2.1-.9-.8-1.2 1.8.6 1.6-.9-.9-1.1 1.2.5 2.4-1.3-2.4-1.3-1.2.5.9-1.1-1.6-.9-1.8.7.8-1.3-2.1-.9-1.5.3.5-1.2-1.8-.8-2 .5.5-1.2-2.9-.9-1.6.5-.5 1.4-1.2-1-.5 2 .3 1.6 1.9 1.2.5 1.3-3.6-.1-1-.2-1.9-.6-1.4-1.2.6 2.7-.6 2.7 1.4-1.2 1.9-.6v.8l-.5 1h-.8l-1.1.7-.2 2 1.3-.2-1.1 1.9 1.5 2.2 3.3 1.3-2.2-2.7v-2.5l1.1-2.4-.3-2.2 3.6-.1-.5 1.2-1.9 1.2-.3 1.6.5 2 1.2-1 .5 1.4 1.6.5 2.9-.9-.5-1.2 2 .5 1.8-.8-.5-1.2z"/><path fill-rule="evenodd" clip-rule="evenodd" fill="#F3000B" d="M-29.3-.7l.3-2.3-1.1-2.4v-2.5l2.2-2.7-3.3 1.3-1.5 2.2 1.1 1.9-1.3-.2.2 2 1.1.7h.8l.5 1v.8z"/><path clip-rule="evenodd" stroke="#151215" stroke-width=".425" fill="none" d="M-29.3-.7l.3-2.3-1.1-2.4v-2.5l2.2-2.7-3.3 1.3-1.5 2.2 1.1 1.9-1.3-.2.2 2 1.1.7h.8l.5 1v.8z"/><path fill-rule="evenodd" clip-rule="evenodd" d="M-10 .1h-23l-.6 2.6 1.3-1.2 2-.5v.8l-.6.9h-.7l-1.1.8-.2 1.9 1.3-.2-1.1 2 1.5 2.2 3.3 1.3-2.2-2.8v-2.5l1.1-2.4-.3-2.2 3.5-.1-.4 1.3-2 1.2-.2 1.6.5 1.9 1.2-1 .5 1.5 1.6.4 2.9-.9-.5-1.1 1.9.5 1.9-.9-.5-1.2 1.5.3 2.1-.8-.8-1.3 1.8.6 1.5-.8-.8-1.1 1.2.4z" opacity=".34" enable-background="new"/><g clip-rule="evenodd"><path fill-rule="evenodd" fill="#FFED00" d="M5.3 16.2l-1.2 2.2h.9l.7 1.2 1.1.1 2.1-1.3-1.5-.2-1-2.1z"/><path stroke="#151215" stroke-width=".425" fill="none" d="M5.3 16.2l1.1-.1 1 2.1 1.5.2-2.1 1.3-1.1-.1-.7-1.2h-.9z"/><path fill-rule="evenodd" fill="#FFED00" d="M0 10.2v3.7l.8 1.7 3 1.4.3 1.4 1.2-2.2-.3-1.5-3.9-2.5z"/><path stroke="#151215" stroke-width=".425" fill="none" d="M0 10.2l1.1 2 3.9 2.5.3 1.5-1.2 2.2-.3-1.4-3-1.4-.8-1.7z"/></g><g clip-rule="evenodd"><path fill-rule="evenodd" fill="#FFED00" d="M-5.4 16.2l-1-.1-1 2.1-1.5.2 2.1 1.3 1.1-.1.6-1.1h1z"/><path stroke="#151215" stroke-width=".425" fill="none" d="M-5.4 16.2l-1-.1-1 2.1-1.5.2 2.1 1.3 1.1-.1.6-1.1h1z"/><path fill-rule="evenodd" fill="#FFED00" d="M-3.9 17l3.1-1.4.8-1.7v-3.7l-1.1 2-4 2.5-.3 1.5 1.3 2.3z"/><path stroke="#151215" stroke-width=".425" fill="none" d="M-3.9 17l3.1-1.4.8-1.7v-3.7l-1.1 2-4 2.5-.3 1.5 1.3 2.3z"/></g></symbol><symbol viewBox="-8.2 -7.9 16.3 15.8"><path fill-rule="evenodd" clip-rule="evenodd" fill="#E61616" d="M6.5 6.8c1.1-.8 1.6-2 1.5-3.6-.1-1.6-.7-3-2-4.4-1.2-1.4-3.2-3.5-6-6.4-2.8 2.9-4.8 5.1-6 6.4-1.2 1.4-1.9 2.9-2 4.4-.1 1.6.4 2.8 1.5 3.6 1 .8 2.1 1.1 3.3.8 1.2-.1 2.3-.8 3.2-1.8 1 1 2 1.7 3.2 1.8 1.2.3 2.3 0 3.3-.8z"/><path fill-rule="evenodd" clip-rule="evenodd" fill-opacity=".298" d="M0-7.6v13.4c1 1 2 1.6 3.2 1.8 1.2.2 2.3-.1 3.3-.8 1.1-.8 1.6-2 1.5-3.6-.1-1.6-.7-3-2-4.4-1.2-1.4-3.2-3.5-6-6.4z"/><path clip-rule="evenodd" stroke="#151215" stroke-width=".1" stroke-linecap="round" stroke-linejoin="round" stroke-miterlimit="3" d="M0-7.6c2.8 2.9 4.8 5.1 6 6.4 1.2 1.4 1.9 2.9 2 4.4.1 1.6-.4 2.8-1.5 3.6-1 .8-2.1 1.1-3.3.8-1.2-.2-2.2-.8-3.2-1.8v-13.4z" fill="none"/><path clip-rule="evenodd" stroke="#151215" stroke-width=".35" d="M6.5 6.8c-1 .8-2.1 1.1-3.3.8-1.2-.1-2.2-.8-3.2-1.8-.9 1.1-2 1.7-3.2 1.9-1.2.2-2.3-.1-3.3-.8-1.1-.9-1.6-2.1-1.5-3.7.1-1.6.8-3 2-4.4 1.2-1.4 3.2-3.5 6-6.4 2.8 2.9 4.8 5.1 6 6.4 1.2 1.4 1.9 2.9 2 4.4.1 1.6-.4 2.8-1.5 3.6z" fill="none"/></symbol><symbol id="c" viewBox="-49 -74 98 148"><path fill="#F0F7E6" d="M48-68.5c0-3-2.5-5.5-5.5-5.5h-86c-3 0-5.5 2.5-5.5 5.5v136c0 3 2.5 5.5 5.5 5.5h86c3 0 5.5-2.5 5.5-5.5v-136z"/><path fill="#000" d="M43 73c2.8 0 5-2.2 5-5v-136c0-2.8-2.2-5-5-5h-86c-2.8 0-5 2.2-5 5v136c0 2.8 2.2 5 5 5h86m0 1h-86c-3.3 0-6-2.7-6-6v-136c0-3.3 2.7-6 6-6h86c3.3 0 6 2.7 6 6v136c0 3.3-2.7 6-6 6z"/></symbol><symbol id="d" viewBox="-41 -66 82 132"><path fill-rule="evenodd" clip-rule="evenodd" d="M31 66h-62v-1h62zM31-65h-62v-1h62zM-41 50h1v-100h-1zM41-50h-1v100h1zM40-.5h-80v1h80z"/></symbol><symbol viewBox="-7.7 -10.4 15.4 20.8"><g clip-rule="evenodd"><path fill-rule="evenodd" fill="#fe0" d="M0-5.9l-.4.2-.6-2.1 1-.9 1 .8-.6 2.1-.4-.1zm3-.3l-1.5.2.9-2.1-1.5-1-.9-1-.9 1-1.5 1 .9 2.1-1.5-.2 3 2.2 3-2.2z"/><path stroke="#222123" stroke-width=".35" d="M3-6.2l-3 2.2-3-2.2 1.5.2-.9-2.1 1.5-1 .9-1 .9 1 1.5 1-.9 2.1 1.5-.2zm-3 .3l.4.2.6-2.2-1-.8-1.1.8.6 2.1.5-.1z" fill="none"/></g><use xlink:href="#b" width="15.4" height="15.4" x="-7.7" y="-7.7" transform="translate(0 2.703)" overflow="visible"/></symbol><symbol id="b" viewBox="-7.7 -7.7 15.4 15.4"><path fill-rule="evenodd" clip-rule="evenodd" fill="#F40D1D" d="M6.8 3.3c.5-1 .7-2.1.7-3.3 0-1.2-.2-2.3-.7-3.3-.4-.8-.9-1.5-1.5-2-1.5-1.5-3.2-2.2-5.3-2.2-2 0-3.8.7-5.3 2.1-.7.8-1.2 1.5-1.5 2.1-.5 1-.8 2.1-.8 3.3 0 1.2.3 2.2.8 3.3.4.8.9 1.5 1.5 2.1 1.5 1.4 3.3 2.1 5.3 2.1s3.8-.7 5.3-2.1c.5-.5 1-1.2 1.5-2.1z"/><g clip-rule="evenodd"><path fill-rule="evenodd" fill="#00AFE7" d="M6.8 3.3c-2.4-.5-4.6-.7-6.8-.7s-4.4.2-6.8.7c.4.8.9 1.5 1.5 2.1 1.9-.7 3.7-1.1 5.3-1.1 1.7 0 3.4.4 5.3 1.1.5-.6 1-1.3 1.5-2.1z"/><path stroke="#222123" stroke-width=".35" d="M6.8 3.3c-.5.8-1 1.5-1.5 2.1-1.9-.7-3.6-1.1-5.3-1.1-1.7 0-3.4.4-5.3 1.1-.6-.6-1.1-1.3-1.5-2.1 2.4-.5 4.7-.7 6.8-.7 2.2 0 4.4.2 6.8.7z" fill="none"/><path fill-rule="evenodd" fill="#00AFE7" d="M6.8-3.3c-.4-.8-.9-1.5-1.5-2-1.9.7-3.6 1-5.2 1-1.8 0-3.5-.4-5.3-1.1-.8.8-1.3 1.5-1.6 2.1 2.4.5 4.6.7 6.8.7s4.4-.2 6.8-.7z"/><path stroke="#222123" stroke-width=".35" d="M6.8-3.3c-2.4.5-4.6.7-6.7.7-2.2 0-4.5-.2-6.8-.7.2-.6.7-1.3 1.4-2.1 1.8.8 3.6 1.1 5.3 1.1 1.6 0 3.4-.4 5.2-1.1.7.6 1.2 1.3 1.6 2.1z" fill="none"/></g><g fill-rule="evenodd" clip-rule="evenodd" fill="#fe0"><path d="M7.2 0l-1 1.3-2-.5 1.1.5-.6 1.3-.8-.5.2-.5-1.9-.4-.5-.7-1.7 1.8-1.9-1.8-.5.6-2 .4.4.6-.8.5-.6-1.2 1.2-.5-2 .5-1-1.3 1-1.2 2 .5-1.2-.5.6-1.3.8.4-.3.5 2 .4.5.6 1.8-1.8 1.8 1.8.5-.6 1.9-.4-.3-.5.8-.5.6 1.3-1.2.4 2-.5 1.1 1.3zM1.6-6.8v1.1l-1.6 1.1-1.6-1 .1-1.1-1.4 1.1-1.5-.5c1.4-1 2.8-1.4 4.4-1.4 1.6 0 3 .5 4.4 1.4l-1.5.5-1.3-1.2zM-1.5 6.6l-.1-1.1 1.6-1 1.6 1v1.1l1.4-1.1 1.5.5c-1.3 1-2.8 1.5-4.5 1.5-1.6 0-3.1-.5-4.5-1.5l1.6-.6 1.4 1.2z"/></g><path clip-rule="evenodd" stroke="#1A1A1A" stroke-width=".35" fill="none" d="M0-7.5v15"/><path fill-rule="evenodd" clip-rule="evenodd" fill-opacity=".149" d="M0 7.5v-15h.1c2 0 3.8.7 5.3 2.1.6.8 1.1 1.5 1.4 2.1.5 1 .8 2.1.8 3.3 0 1.2-.3 2.2-.8 3.3-.4.8-.9 1.5-1.5 2.1-1.5 1.4-3.2 2.1-5.3 2.1z"/><path clip-rule="evenodd" stroke="#222123" stroke-width=".35" d="M6.8 3.3c-.5.8-1 1.5-1.5 2.1-1.5 1.4-3.2 2.1-5.3 2.1-2 0-3.8-.7-5.3-2.1-.6-.6-1.1-1.3-1.5-2.1-.5-1-.8-2.1-.8-3.3 0-1.2.3-2.3.8-3.3.3-.6.8-1.3 1.5-2.1 1.5-1.4 3.3-2.1 5.3-2.1 2.1 0 3.8.7 5.3 2.2.6.6 1.1 1.3 1.5 2 .5 1.1.7 2.2.7 3.3 0 1.1-.2 2.2-.7 3.3z" fill="none"/></symbol><use xlink:href="#c" width="98" height="148" x="-49" y="-74" transform="matrix(1 0 0 -1 50 75)" overflow="visible"/><g><g><use xlink:href="#d" width="82" height="132" x="-41" y="-66" transform="matrix(1 0 0 -1 50 75)" overflow="visible"/><use xlink:href="#e" width="78.5" height="78.5" x="-39.2" y="-14.1" transform="matrix(-1 0 0 1 50 75)" overflow="visible"/><use xlink:href="#e" width="78.5" height="78.5" x="-39.2" y="-14.1" transform="matrix(1 0 0 -1 50 75)" overflow="visible"/><use xlink:href="#f" width="16.6" height="25.2" x="-8.3" y="-12.6" transform="matrix(-.866 .5 .5 .866 82.5 130)" overflow="visible"/><use xlink:href="#f" width="16.6" height="25.2" x="-8.3" y="-12.6" transform="matrix(.866 .5 -.5 .866 17.5 130)" overflow="visible"/><use xlink:href="#f" width="16.6" height="25.2" x="-8.3" y="-12.6" transform="matrix(-.866 -.5 .5 -.866 82.5 20)" overflow="visible"/><use xlink:href="#f" width="16.6" height="25.2" x="-8.3" y="-12.6" transform="matrix(.866 -.5 -.5 -.866 17.5 20)" overflow="visible"/></g></g></svg>
