<svg xmlns="http://www.w3.org/2000/svg" xmlns:xlink="http://www.w3.org/1999/xlink" viewBox="0 0 100 150" enable-background="new 0 0 100 150"><symbol viewBox="-4.9 -10.1 9.8 20.2"><path fill-rule="evenodd" clip-rule="evenodd" fill="#009C22" d="M0-1.3c3.1 0 4.7-1.6 4.7-3 0-2.6-2.6-3.9-3.5-4.2-1.1-.4-1.2-1.4-1.2-1.4s-.1 1-1.3 1.5c-.9.3-3.5 1.6-3.5 4.2.1 1.3 1.7 2.9 4.8 2.9z"/><path fill-rule="evenodd" clip-rule="evenodd" fill="#006F20" d="M0-1.3v-8.6s-.1 1-1.3 1.5c-.9.3-3.5 1.6-3.5 4.2.1 1.3 1.7 2.9 4.8 2.9z"/><path fill-rule="evenodd" clip-rule="evenodd" fill="#F40D1D" d="M3.5-2.2h-7v8.7l3.5 3.4 3.5-3.4z"/><path fill-rule="evenodd" clip-rule="evenodd" fill="#AC0019" d="M0-2.2h-3.5v8.7l3.5 3.4z"/><path stroke="#000" stroke-width=".35" stroke-linecap="round" stroke-linejoin="round" stroke-miterlimit="10" fill="none" d="M0-9.9v6.9M0 9.9v-11.8"/><path fill-rule="evenodd" clip-rule="evenodd" fill="#fe0" d="M3.5-1.2v-1.1c-.8-.4-2.1-.7-3.5-.7s-2.7.3-3.5.7v1.1c.8-.4 2-.7 3.5-.7s2.7.3 3.5.7z"/><path clip-rule="evenodd" stroke="#000" stroke-width=".35" stroke-linecap="round" stroke-linejoin="round" stroke-miterlimit="10" d="M-3.5-2.2v8.7l3.5 3.4 3.5-3.5v-8.7c.8-.6 1.3-1.3 1.3-2 0-2.6-2.6-3.9-3.5-4.2-1.2-.4-1.3-1.4-1.3-1.4s-.1 1-1.3 1.5c-.9.3-3.5 1.6-3.5 4.2.1.6.5 1.4 1.3 2z" fill="none"/><path clip-rule="evenodd" stroke="#000" stroke-width=".25" stroke-linecap="round" stroke-miterlimit="10" d="M3.5-2.3c-.8-.4-2.1-.7-3.5-.7s-2.7.3-3.5.7" fill="none"/></symbol><symbol viewBox="-6.7 -8.5 13.4 17"><path fill-rule="evenodd" clip-rule="evenodd" fill="#009915" d="M0 8.3c1.5-1.4 2.4-2.2 2.5-2.5.4-.8.5-1.8.3-3l1.2 1.7.8-1.1c.5-.8.8-1.4.9-1.8.2-.9-.1-2-.9-3.3l1.6.9c.1-2.4-.1-4-.4-4.7-.3-.6-1.1-1-2.3-1.2l1.8-.6c-.8-.7-1.8-1-2.8-1-.1 0-.4.3-1 .8-.4.4-.8.3-1.2-.3h-1c-.4.6-.8.6-1.2.2-.6-.6-.9-.8-1-.8-1 0-2 .4-2.9 1.1l1.8.6c-1.2.2-2 .6-2.3 1.3-.2.5-.4 1.4-.4 2.8v2l1.6-.9c-.8 1.3-1 2.4-.9 3.3.1.4.4 1 .9 1.8.3.4.6.7.8 1.1l1.2-1.7c-.1 1 0 2 .4 2.8.1.3 1 1.1 2.5 2.5z"/><path fill-rule="evenodd" clip-rule="evenodd" fill-opacity=".298" d="M-4.9 3.5c.3.4.6.7.8 1.1l1.2-1.7c-.1 1.1 0 2.1.4 2.9.2.3 1 1.2 2.6 2.5v-16h-.5c-.4.5-.8.6-1.2.2-.6-.5-.9-.8-1-.8-1 0-2 .4-2.9 1.1l1.8.6c-1.2.2-2 .6-2.3 1.3-.3.4-.5 1.3-.5 2.7v2l1.6-.9c-.8 1.3-1 2.4-.9 3.3.1.3.4.9.9 1.7z"/><path clip-rule="evenodd" stroke="#000" stroke-width=".031" stroke-linecap="round" stroke-linejoin="round" stroke-miterlimit="3" d="M-4.9 3.5c-.5-.8-.8-1.4-.9-1.8-.2-.9.1-2 .9-3.3l-1.6.9v-2c0-1.3.2-2.2.4-2.7.4-.7 1.1-1.2 2.3-1.3l-1.8-.6c.9-.7 1.9-1 2.9-1 .1 0 .4.3 1 .8.4.4.8.3 1.2-.2h.5v16c-1.5-1.4-2.4-2.2-2.6-2.5-.3-.8-.4-1.8-.3-3l-1.2 1.7c-.2-.3-.5-.7-.8-1z" fill="none"/><path clip-rule="evenodd" stroke="#151215" stroke-width=".35" d="M0 8.3c-1.5-1.4-2.4-2.2-2.6-2.5-.3-.8-.4-1.8-.3-3l-1.2 1.7c-.2-.3-.5-.7-.8-1.1-.5-.8-.8-1.4-.9-1.8-.2-.9.1-2 .9-3.3l-1.6.9v-2c0-1.2.2-2.1.4-2.6.4-.7 1.1-1.2 2.3-1.3l-1.8-.6c.9-.7 1.9-1 2.9-1 .1 0 .4.3 1 .8.4.4.8.3 1.2-.2h1c.4.6.8.6 1.2.2.6-.6.9-.8 1-.8 1 0 2 .4 2.9 1.1l-1.9.5c1.2.2 2 .6 2.3 1.3.4.7.5 2.3.4 4.7l-1.5-.9c.8 1.3 1 2.4.9 3.3-.1.4-.4 1-.9 1.8l-.8 1-1.3-1.7c.2 1.2.1 2.2-.3 3-.1.3-1 1.1-2.5 2.5z" fill="none"/></symbol><symbol id="e" viewBox="-8.2 -7.9 16.3 15.8"><path fill-rule="evenodd" clip-rule="evenodd" fill="#E61616" d="M6.5 6.8c1.1-.8 1.6-2 1.5-3.6-.1-1.6-.7-3-2-4.4-1.2-1.4-3.2-3.5-6-6.4-2.8 2.9-4.8 5.1-6 6.4-1.2 1.4-1.9 2.9-2 4.4-.1 1.6.4 2.8 1.5 3.6 1 .8 2.1 1.1 3.3.8 1.2-.1 2.3-.8 3.2-1.8 1 1 2 1.7 3.2 1.8 1.2.3 2.3 0 3.3-.8z"/><path fill-rule="evenodd" clip-rule="evenodd" fill-opacity=".298" d="M0-7.6v13.4c1 1 2 1.6 3.2 1.8 1.2.2 2.3-.1 3.3-.8 1.1-.8 1.6-2 1.5-3.6-.1-1.6-.7-3-2-4.4-1.2-1.4-3.2-3.5-6-6.4z"/><path clip-rule="evenodd" stroke="#151215" stroke-width=".1" stroke-linecap="round" stroke-linejoin="round" stroke-miterlimit="3" d="M0-7.6c2.8 2.9 4.8 5.1 6 6.4 1.2 1.4 1.9 2.9 2 4.4.1 1.6-.4 2.8-1.5 3.6-1 .8-2.1 1.1-3.3.8-1.2-.2-2.2-.8-3.2-1.8v-13.4z" fill="none"/><path clip-rule="evenodd" stroke="#151215" stroke-width=".35" d="M6.5 6.8c-1 .8-2.1 1.1-3.3.8-1.2-.1-2.2-.8-3.2-1.8-.9 1.1-2 1.7-3.2 1.9-1.2.2-2.3-.1-3.3-.8-1.1-.9-1.6-2.1-1.5-3.7.1-1.6.8-3 2-4.4 1.2-1.4 3.2-3.5 6-6.4 2.8 2.9 4.8 5.1 6 6.4 1.2 1.4 1.9 2.9 2 4.4.1 1.6-.4 2.8-1.5 3.6z" fill="none"/></symbol><symbol id="d" viewBox="-37.5 1.6 77 62.4"><path fill-rule="evenodd" clip-rule="evenodd" fill="#FFED00" d="M12 43.8l-1-.5.5-1.5-1.5-.3v-.9l2.6.1-.6 3.1zm-2.5-1.6l-.2.3-.5-.2-.1-.8.4-.3.3.3.1.7zm1.4 2.5l-.3.6-.6-.4-.2-.4.7-.3.4.5zm-3.5-2.7l.4 1.4h-.4l-.1.9-1.3 1.1-.3-.5-.6.6.3.3-8.8 7-.9-1.3-.6.6-.6-.5.6-1.2-1.4-1.7-1.5 1 .6.9.7-.4.2.3-.6.9 1 1.1-.8.6-.9-1.3-.9.6v-.4l.6-.9-.6-.5-1.3 1.3 1.5 2.1.7-.7.4.5-.7.7 1.3 1.3-.5.6.5 1.3 1 .5 13.9-12.1.6-.2.1-.4.8 1 1 .1 1.1-.3.9.9.2-1-.6-.4.4-.7.5-2.9 1 .4-.3-1-.7-.1.4-.7.9.4.2-.6-.8-.4h.3l.6-1.4-1 .4-.4.5.1-.7-.8-.1.3.6-1.2.5-1.4-1-.9.2-.1-1.1-.8-.1-.2 1.2-.9 1-.2 1.8z"/><path clip-rule="evenodd" stroke="#151215" stroke-width=".425" d="M7.4 42l.3-1.8.9-1 .1-1.2.8.1.1 1.1.9-.2 1.3.8 1.2-.5-.3-.6.8.1-.1.7.4-.5 1-.4-.6 1.4h-.3l.7.5-.2.6-.9-.4-.4.7.7.1.4.9-1-.4-.4 3-.4.7.6.4-.2 1-.9-.9-1.1.3-1-.1-.8-1-.1.4-.6.2-13.8 12.3-1-.5-.5-1.3.5-.6-1.3-1.3.7-.7-.4-.5-.8.6-1.5-2.1 1.3-1.3.6.5-.6.9.2.5.9-.6.9 1.3.8-.6-1-1.1.6-.9-.2-.3-.7.4-.6-.9 1.5-1 1.4 1.7-.6 1.2.6.5.6-.6.9 1.3 8.8-7-.3-.3.6-.6.1.4 1.3-1.1.1-.9h.4l-.4-1.4zm3.5 2.7l-.5-.6-.7.3.2.4.7.4.3-.5zm-1.4-2.5l-.1-.6-.3-.3-.4.3.1.8.5.2.2-.4zm2.5 1.6l.6-3.1-2.6-.1.1.9 1.5.3-.6 1.4 1 .6z" fill="none"/><path fill-rule="evenodd" clip-rule="evenodd" fill="#FFED00" d="M10 57.6l.9-.7.4-1.2-2-.9 1.6-1.4-1-.6.5-.6 1 .6 1.7-2.3-1.8-1.2-.8.7.9.9-.2.5-1.2-.6-1 1.4-1.1-.5 1.1-1.2-.9-.8.3-.3.9.3.7-.9-2.1-.9-1.6 1.8 1 1.1-.7.5-.9-.5-.9 1.3-2.2-1.1c-.2.8-.6 1.6-1.2 2.2l8.6 4.4z"/><path clip-rule="evenodd" stroke="#151215" stroke-width=".425" d="M10 57.6l-8.6-4.3c.6-.6 1-1.3 1.2-2.2l2.2 1.1.9-1.3.9.5.7-.5-1-1.1 1.6-1.8 2.1.9-.7.9-.9-.3-.3.3.9.7-1.1 1.2 1.1.5.9-1.3 1.2.5.2-.5-.8-.9.7-.6 1.8 1.2-1.7 2.3-1-.6-.5.6 1 .6-1.6 1.4 2 .9-.4 1.2-.8.6z" fill="none"/><path fill-rule="evenodd" clip-rule="evenodd" fill="#FF9300" d="M7.4 46.2l-4.7-6.4-2.7 2-3 1.3-3.5 1-1.4-.1 2 8.4 1.8 3.6 4 3 3.6.6h2l2.4-2.5 1.4-3.9z"/><path clip-rule="evenodd" stroke="#151215" stroke-width=".425" fill="none" d="M7.4 46.2l-4.7-6.4-2.7 2-3 1.3-3.5 1-1.4-.1 2 8.4 1.8 3.6 4 3 3.6.6h2l2.4-2.5 1.4-3.9z"/><path fill-rule="evenodd" clip-rule="evenodd" fill="#FFED00" d="M9.2 54v-1.1l-.9 1.2-.4 1.2-.7-.9-.9.7.1 1.5-.8-1-1.2.8.2 1.3-1.1-1.1-1.4.7.3.9-1-.6-1.8.3.7.8-2.3-.6 1.7.9 4.5.9.3.9h.8v.8h.7c.2.4.3.5.2.5-.1 0-.3.1-.8.4l.8.9.4-.6c.6.7.9 1.1.8 1.2l.8-1-.5-.8.5-.2-.4-.8-.6.2-.3-.4.7-.4-.7-.7-.4.1.3-.7v-.9l1.1-1.8 1.3-2.6z"/><path clip-rule="evenodd" stroke="#151215" stroke-width=".425" d="M9.2 54v-1.1l-.9 1.2-.4 1.2-.7-.9-.9.7.1 1.5-.8-1-1.2.8.2 1.3-1.1-1.1-1.4.7.3.9-1-.6-1.8.3.7.8-2.3-.6 1.7.9 4.5.9.3.9h.8v.8h.7c.2.4.3.5.2.5-.1 0-.3.1-.8.4l.8.9.4-.6c.6.7.9 1.1.8 1.2l.8-1-.5-.8.5-.2-.4-.8-.6.2-.3-.4.7-.4-.7-.7-.4.1.3-.7v-.9l1.1-1.8 1.3-2.6z" fill="none"/><path fill-rule="evenodd" clip-rule="evenodd" fill="#FFED00" d="M3.5 49.6l-1.7.9.2 1.5-1.4-1-2.1.7v1.3l-.9-1.1-2.3.5.3 1.3-1.3-1.4-.6.1 1.2 2.6 1.1 1.6 2.7-.2 6.4-2.4 2.3-1.8 1.8-1.9v-.4l-1.5-3.2-1 .8.1 1.3-.7-.7-1.7 1.1.2 1z"/><path clip-rule="evenodd" stroke="#151215" stroke-width=".425" fill="none" d="M3.5 49.6l-1.7.9.2 1.5-1.4-1-2.1.7v1.3l-.9-1.1-2.3.5.3 1.3-1.3-1.4-.6.1 1.2 2.6 1.1 1.6 2.7-.2 6.4-2.4 2.3-1.8 1.8-1.9v-.4l-1.5-3.2-1 .8.1 1.3-.7-.7-1.7 1.1.2 1z"/><path fill-rule="evenodd" clip-rule="evenodd" fill="#FFED00" d="M-.9 45.8l-1.1-1.3-1.7.6-.1 1.6-1.1-1.2-1 .2-.2 1.7-1.4-.9-.4.7.6.4.6 3.2h1.4l3.1-.5 5.7-2.3 2.7-2.3.4-.6-1.9-2.9-.2-1h-.5l-.5.3.4 1.9-1.2-1.4-1 .7.5 1.9-1.4-1.4-1.7.8z"/><path clip-rule="evenodd" stroke="#151215" stroke-width=".425" fill="none" d="M-.9 45.8l-1.1-1.3-1.7.6-.1 1.6-1.1-1.2-1 .2-.2 1.7-1.4-.9-.4.7.6.4.6 3.2h1.4l3.1-.5 5.7-2.3 2.7-2.3.4-.6-1.9-2.9-.2-1h-.5l-.5.3.4 1.9-1.2-1.4-1 .7.5 1.9-1.4-1.4-1.7.8z"/><g clip-rule="evenodd" stroke="#151215" stroke-width=".425" fill="none"><path d="M-5.1 49.7l.9-2M-5.7 48.2l2.1 1"/></g><g clip-rule="evenodd" stroke="#151215" stroke-width=".425" fill="none"><path d="M-3.1 55.9l1-2M-3.6 54.5l2 .9"/></g><g clip-rule="evenodd" stroke="#151215" stroke-width=".425" fill="none"><path d="M2.1 54.5l.9-2M1.5 53l2 .9"/></g><g clip-rule="evenodd" stroke="#151215" stroke-width=".425" fill="none"><path d="M5.9 51.8l.9-2M5.3 50.3l2.1 1"/></g><g clip-rule="evenodd" stroke="#151215" stroke-width=".425" fill="none"><path d="M3.1 46.5l.9-2M2.5 45l2.1.9"/></g><g clip-rule="evenodd" stroke="#151215" stroke-width=".425" fill="none"><path d="M-.6 48.7l1-2M-1.1 47.2l2 1"/></g><path fill-rule="evenodd" clip-rule="evenodd" fill="#FFED00" d="M35.8 13.3l-1.6-4.5-1.6-1.2-7.6-2.7-4.3-.4-5.2 1.7 8.2 1.7 6.1 2.8 3.1 2.7.8 4.3-3.5 2.1 5-.1 2-1.8v-.9l.4-.6h-.7l.7-.4z"/><path clip-rule="evenodd" stroke="#151215" stroke-width=".425" fill="none" d="M35.8 13.3l-1.6-4.5-1.6-1.2-7.6-2.7-4.3-.4-5.2 1.7 8.2 1.7 6.1 2.8 3.1 2.7.8 4.3-3.5 2.1 5-.1 2-1.8v-.9l.4-.6h-.7l.7-.4z"/><path fill-rule="evenodd" clip-rule="evenodd" fill="#A59138" d="M-18.1 26.1l-6.3 2-.7.8.7.9 6.3-1.6z"/><path clip-rule="evenodd" stroke="#151215" stroke-width=".425" fill="none" d="M-18.1 26.1l-6.3 2-.7.8.7.9 6.3-1.6z"/><path fill-rule="evenodd" clip-rule="evenodd" fill="#A59138" d="M17 30.9l6.7 3.3.6-.6c.2-.5.2-.8 0-.8s-2.3-1-6.5-3.1l-.8 1.2z"/><path clip-rule="evenodd" stroke="#151215" stroke-width=".425" d="M17 30.9l6.7 3.3.6-.6c.2-.5.2-.8 0-.8s-2.3-1-6.5-3.1l-.8 1.2z" fill="none"/><path fill-rule="evenodd" clip-rule="evenodd" fill="#A59138" d="M21 28.7l-3.2-1.4-.8 2.5 3.3 1.2.7-.6z"/><path clip-rule="evenodd" stroke="#151215" stroke-width=".425" fill="none" d="M21 28.7l-3.2-1.4-.8 2.5 3.3 1.2.7-.6z"/><g clip-rule="evenodd"><path fill-rule="evenodd" fill="#006A9D" d="M-12.2 23l-1.2 3.1v13.7l13.2-.1v-30.9l-9.4 10.2z"/><path stroke="#151215" stroke-width=".425" fill="none" d="M-12.2 23l2.6-4 9.4-10.2v30.9l-13.2.1v-13.7z"/><path fill-rule="evenodd" fill="#E5C749" d="M12.9 39.8v-13.7l-1.2-3.1-2.5-4-9.4-10.2v30.9z"/><path stroke="#151215" stroke-width=".425" fill="none" d="M12.9 39.8v-13.7l-1.2-3.1-2.5-4-9.4-10.2v30.9z"/></g><path fill-rule="evenodd" clip-rule="evenodd" fill="#F3000B" d="M8.2 33.1l.8-1.6v-1.9l-1-3.1-2.8-4.1-5.3-6.2-5.3 6.2-2.8 4.1-1.1 3.1v1.9l.9 1.6.8 1.1 1.6.8 2 .3 2.1-.7 1.8-1.5 1.8 1.5 2.1.7 1.9-.3 1.7-.8z"/><path clip-rule="evenodd" stroke="#151215" stroke-width=".425" fill="none" d="M8.2 33.1l-.8 1.1-1.7.8-1.9.3-2.1-.7-1.8-1.5-1.8 1.5-2.1.7-2-.3-1.6-.8-.8-1.1-.9-1.6v-1.9l1.1-3.1 2.8-4.1 5.3-6.2 5.3 6.2 2.8 4.1 1 3.1v1.9z"/><path fill-rule="evenodd" clip-rule="evenodd" d="M9 31.5v-1.9l-1-3.1-2.8-4.1-5.3-6.2v16.9l1.7 1.5 2.1.7 2-.3 1.7-.8.8-1.1z" opacity=".301" enable-background="new"/><path fill-rule="evenodd" clip-rule="evenodd" fill="#FFED00" d="M16.2 40.9l1.4-1.7.9.9 1.4 2.3 1.4-2.2-.9-1 2.1-2.6h-6.3z"/><path clip-rule="evenodd" stroke="#151215" stroke-width=".425" fill="none" d="M16.2 40.9l1.4-1.7.9.9 1.4 2.3 1.4-2.2-.9-1 2.1-2.6h-6.3z"/><path fill-rule="evenodd" clip-rule="evenodd" fill="#B1000C" d="M9.4 35.6l-3.6.8-.7 1.6-8.7 1.8h-9.6l-.2-11.8 1.1-4.6 3.7-5.4 7.8-8.3-6.5-1.2-4.8-1.8-7.5-.8-4.3 1.4-3.2-.4-4.4 5.8-3.2 3-1.7.5 11.8 2.4 1.6 2.4 3.2 9 2.5 11 21.2.4 1.5.4 1.2-1.7 5.7.8.8.9 3.1-.2v-3.9l1.6-5.2 4-10.9 8.9-1.7 3-2.2-.5-3.8-4.4-4.4-3.3-1.5-2.7-1.8h-3l-6.7 1.2-4.6 1.3-7.6.7 5.9 6.9 4.6 6.8 1.2 3.2.4 13.5-2.4-3.1z"/><path clip-rule="evenodd" stroke="#151215" stroke-width=".425" fill="none" d="M9.4 35.6l-3.6.8-.7 1.6-8.7 1.8h-9.6l-.2-11.8 1.1-4.6 3.7-5.4 7.8-8.3-6.5-1.2-4.8-1.8-7.5-.8-4.3 1.4-3.2-.4-4.4 5.8-3.2 3-1.7.5 11.8 2.4 1.6 2.4 3.2 9 2.5 11 21.2.4 1.5.4 1.2-1.7 5.7.8.8.9 3.1-.2v-3.9l1.6-5.2 4-10.9 8.9-1.7 3-2.2-.5-3.8-4.4-4.4-3.3-1.5-2.7-1.8h-3l-6.7 1.2-4.6 1.3-7.6.7 5.9 6.9 4.6 6.8 1.2 3.2.4 13.5-2.4-3.1z"/><path fill-rule="evenodd" clip-rule="evenodd" fill="#F3000B" d="M9.4 35.6l-3.6.8-.7 1.6-8.7 1.8h-9.6l-.2-11.8.9-3.3 3.9-6.7-3.7 5.4-.2 1.3-.7 1-.4 2.6-5.7-9.6-8.4-6.9.6-4.9-4.4 5.8-3.2 3-1.7.5 11.8 2.4 1.6 2.4 3.2 9 2.5 11 14.7.2.7.7.1.5 2.4-1.2 3.3.2 1.5.4 1.2-1.7 5.7.8.8.9 3.1-.2v-3.9l1.6-5.2 4-10.9 8.9-1.7 3-2.2-.5-3.8-4.4-4.4-3.3-1.5-2.7-1.8h-3l-13 2.5 2.6 2.7 2.4 6.4-.4 5.3 1.2 3.2.4 13.5-2.4-3.1z"/><path clip-rule="evenodd" stroke="#151215" stroke-width=".425" fill="none" d="M9.4 35.6l-3.6.8-.7 1.6-8.7 1.8h-9.6l-.2-11.8.9-3.3 3.9-6.7-3.7 5.4-.2 1.3-.7 1-.4 2.6-5.7-9.6-8.4-6.9.6-4.9-4.4 5.8-3.2 3-1.7.5 11.8 2.4 1.6 2.4 3.2 9 2.5 11 14.7.2.7.7.1.5 2.4-1.2 3.3.2 1.5.4 1.2-1.7 5.7.8.8.9 3.1-.2v-3.9l1.6-5.2 4-10.9 8.9-1.7 3-2.2-.5-3.8-4.4-4.4-3.3-1.5-2.7-1.8h-3l-13 2.5 2.6 2.7 2.4 6.4-.4 5.3 1.2 3.2.4 13.5-2.4-3.1z"/><path fill-rule="evenodd" clip-rule="evenodd" fill="#FFED00" d="M-14.1 32.7l.9 7.8h1.3l.5-5.8-.8.5v-5.7l.4-1.8-.4-.4-.3-1.2h-.1l-.4-.4-.4-.8-.4-.2v-.2l-2.1-.8 1.3-1.3-1.7-1.9h-.3l-1-1.6-.6-.9h-.6l-.4-.8-2.7-.9-.7-.8h-1.7l-1.2.4-1.7.3 6.4 1.4.6 2.5 4.8 7.5z"/><path clip-rule="evenodd" stroke="#151215" stroke-width=".425" fill="none" d="M-14.1 32.7l-1.3-5.1-4.8-7.5-.6-2.5-6.4-1.4 1.7-.3 1.2-.4h1.7l.7.8 2.7.9.4.8h.6l.6.9 1 1.6h.3l1.7 1.9-1.3 1.3 2.1.8v.2l.4.2.4.8.4.4h.1l.3 1.2.4.4-.4 1.8v5.7l.8-.5-.5 5.8h-1.3z"/><path fill-rule="evenodd" clip-rule="evenodd" fill="#FFED00" d="M12.8 31l.3 10.8.9-8-1.3-15.7-.9-5.2-2.7-3.5-.4.3h-.8l-.5.2-.4.5-.6-.4-.5.1-1.1-.4-1.2.5.5.2h-1.6l-.2.5 4.1.5 2.9 2-1 .2.3 1-.2.3 1.2 1.6h-.7l1 1-.1.6 1.6 4.2-.9-.3z"/><path clip-rule="evenodd" stroke="#151215" stroke-width=".425" fill="none" d="M12.8 31l-2.3-9 .9.3-1.6-4.2.1-.6-1-1h.7l-1.2-1.6.2-.3-.3-1 1-.2-2.9-2-4.1-.5.2-.5h1.6l-.5-.2 1.2-.5 1.1.4.5-.1.6.4.4-.5.5-.2h.8l.4-.3 2.7 3.5.9 5.2 1.3 15.7-.9 8z"/><g clip-rule="evenodd"><path fill-rule="evenodd" fill="#A59138" d="M-8 17.5l1.4-1.4-6.9-3.4-1.1 1z"/><path stroke="#151215" stroke-width=".425" fill="none" d="M-8 17.5l-6.6-3.8 1.1-1 6.9 3.4z"/><path fill-rule="evenodd" fill="#A59138" d="M-8.8 18.1l-7.3-2.6-6.9-3.7-3.9-2.6-3.5-.9-2.8 1.5-.9 2 1.1 2.4 2.9 1.8 7.2.9 12.3 3.8z"/><path stroke="#151215" stroke-width=".425" fill="none" d="M-8.8 18.1l-1.8 2.6-12.3-3.8-7.2-.9-2.9-1.8-1.1-2.4.9-2 2.8-1.5 3.5.9 3.9 2.6 6.9 3.7z"/><path fill-rule="evenodd" fill="#A59138" d="M21.2 22.8l7-1.5c-1.6-1-2.5-1.5-2.6-1.5-.1 0-1.2.3-3.3.9l-1.1 2.1z"/><path stroke="#151215" stroke-width=".425" d="M21.2 22.8l7-1.5c-1.6-1-2.5-1.5-2.6-1.5-.1 0-1.2.3-3.3.9l-1.1 2.1z" fill="none"/><path fill-rule="evenodd" fill="#A59138" d="M39.3 13.3l-.4-.8-1-.7h-.9l-13.1 4.7-1.1 2.6 15.3-4.7.6-.5z"/><path stroke="#151215" stroke-width=".425" fill="none" d="M39.3 13.3l-.6.6-.6.5-15.3 4.7 1.1-2.6 13.1-4.7h.9l1 .7z"/></g><g clip-rule="evenodd"><path fill-rule="evenodd" fill="#006A9D" d="M-27.4 14.1l-1.2.6 3.1 5z"/><path stroke="#151215" stroke-width=".425" fill="none" d="M-27.4 14.1l1.9 5.6-3.1-5"/><path fill-rule="evenodd" fill="#006A9D" d="M-28 16.3h-1.1l1.1 2.7z"/><path stroke="#151215" stroke-width=".425" fill="none" d="M-28 16.3v2.7l-1.1-2.7"/><path fill-rule="evenodd" fill="#006A9D" d="M-29.5 16.3l-1.4-.7-1.5 5.5z"/><path stroke="#151215" stroke-width=".425" fill="none" d="M-29.5 16.3l-2.9 4.8 1.5-5.5"/><path fill-rule="evenodd" fill="#006A9D" d="M-31.7 15.1l-1.3-.9-2.2 3.5z"/><path stroke="#151215" stroke-width=".425" fill="none" d="M-31.7 15.1l-3.5 2.6 2.2-3.5"/><path fill-rule="evenodd" fill="#006A9D" d="M-33.4 13.5l-.5-1.4-3.5 2.4z"/><path stroke="#151215" stroke-width=".425" fill="none" d="M-33.4 13.5l-4 1 3.5-2.4"/><path fill-rule="evenodd" fill="#006A9D" d="M-33.9 11.4l.5-1.2-4-.4z"/><path stroke="#151215" stroke-width=".425" fill="none" d="M-33.9 11.4l-3.5-1.6 4 .4"/><path fill-rule="evenodd" fill="#006A9D" d="M-32.4 11.4l1.5-.8-3.2-3.1z"/><path stroke="#151215" stroke-width=".425" fill="none" d="M-32.4 11.4l-1.7-3.9 3.2 3.1"/><path fill-rule="evenodd" fill="#006A9D" d="M-31.1 8.6l1.3-.2-1.3-2.8z"/><path stroke="#151215" stroke-width=".425" fill="none" d="M-31.1 8.6v-3l1.3 2.8"/><path fill-rule="evenodd" fill="#006A9D" d="M-29.1 9.8l2 .8.8-7.6z"/><path stroke="#151215" stroke-width=".425" fill="none" d="M-29.1 9.8l2.8-6.8-.8 7.6"/><path fill-rule="evenodd" fill="#006A9D" d="M-25.5 11.4l.7 1.5 3.7-3.1z"/><path stroke="#151215" stroke-width=".425" fill="none" d="M-25.5 11.4l4.4-1.6-3.7 3.1"/><path fill-rule="evenodd" fill="#006A9D" d="M-10.9 14.9l-2.7-1.4 2.7-1.3-14.7-6.9-1.7-.5h-3.3l4 1.4 15.4 10.1z"/><path stroke="#151215" stroke-width=".425" fill="none" d="M-10.9 14.9l-2.7-1.4 2.7-1.3-14.7-6.9-1.7-.5h-3.3l4 1.4 15.4 10.1z"/><path fill-rule="evenodd" fill="#006A9D" d="M36 19.7l-4.3-.3.9-.4v-1.8l-9.6-5.8-3.8-2-6.2-1.1 6 2.8 6 4.3 2.7 3-2.9.6-.2 1.6 1.3 1.9 5.1-1 4.4-.4 4 .3z"/><path stroke="#151215" stroke-width=".425" fill="none" d="M36 19.7l-4.3-.3.9-.4v-1.8l-9.6-5.8-3.8-2-6.2-1.1 6 2.8 6 4.3 2.7 3-2.9.6-.2 1.6 1.3 1.9 5.1-1 4.4-.4 4 .3z"/><path fill-rule="evenodd" fill="#006A9D" d="M38.4 14.9l.1-.6-1.1.3-.6-.5-.4-1.2.2-1 .7-.3-.5-.3-.6.1-.5-.8.7-.8-1.8-2.3-.8.8h-1v-.3l-2 .3-.6-.8-2.2-.6-2.2 1-.8 1.9 1.2 2.1 2.4 1 2.5-1.3.2-1-.1-1.2h2.4l1.1 1.2.1 1.4-2 .9.5 1.6 1.5 1.8 1.1-.7z"/><path stroke="#151215" stroke-width=".425" fill="none" d="M38.4 14.9l.1-.6-1.1.3-.6-.5-.4-1.2.2-1 .7-.3-.5-.3-.6.1-.5-.8.7-.8-1.8-2.3-.8.8h-1v-.3l-2 .3-.6-.8-2.2-.6-2.2 1-.8 1.9 1.2 2.1 2.4 1 2.5-1.3.2-1-.1-1.2h2.4l1.1 1.2.1 1.4-2 .9.5 1.6 1.5 1.8 1.1-.7z"/><path fill-rule="evenodd" fill="#006A9D" d="M28.1 8.3l-1.9-4.2 1 4.7z"/><path stroke="#151215" stroke-width=".425" fill="none" d="M28.1 8.3l-1.9-4.2 1 4.7"/><path fill-rule="evenodd" fill="#006A9D" d="M26.6 7.5l-2.7-1.1 1.7 1.9z"/><path stroke="#151215" stroke-width=".425" fill="none" d="M26.6 7.5l-2.7-1.1 1.7 1.9"/><path fill-rule="evenodd" fill="#006A9D" d="M25.3 9.4l-3.1 1.1 3.1.1z"/><path stroke="#151215" stroke-width=".425" fill="none" d="M25.3 9.4l-3.1 1.1 3.1.1"/><path fill-rule="evenodd" fill="#006A9D" d="M26.4 10.7l-1.7 2.7 2.9-1.8z"/><path stroke="#151215" stroke-width=".425" fill="none" d="M26.4 10.7l-1.7 2.7 2.9-1.8"/><path fill-rule="evenodd" fill="#006A9D" d="M28.1 12.7l1.1 2.5v-2.9z"/><path stroke="#151215" stroke-width=".425" fill="none" d="M28.1 12.7l1.1 2.5v-2.9"/><path fill-rule="evenodd" fill="#006A9D" d="M30.2 11.4l2.4 1.3-2-2.1z"/><path stroke="#151215" stroke-width=".425" fill="none" d="M30.2 11.4l2.4 1.3-2-2.1"/><path fill-rule="evenodd" fill="#006A9D" d="M30.2 8.7l1.6-2.6-2.6 1.9z"/><path stroke="#151215" stroke-width=".425" fill="none" d="M30.2 8.7l1.6-2.6-2.6 1.9"/></g><path fill-rule="evenodd" clip-rule="evenodd" fill="#EFEF5F" d="M-1.6 10.3l6.3-.5 1 .5 4.9-1.2h.8l2.6.3.4-.7-2-.6 4.3-.8h3.1l2.1.7.4.2.6 1.4 1.9-.9-.3-1.4-.8-.5-1.6-.9h-2.2l3.1-1.2.2-2.8-10.1 4.4-.4-.9-4 1.8 1.5-1.4-1.2-.4-.6-.9-2.7 2.8-2 .7-3.1.6-3.1-.3-1.9-.7-1.3-.9-.9-2.1-2 .8 1.1 1.7-2-.8-2.1-1.4-.4.9-4.7-1.3-5.9-2.6-.5 2.1 3.3 1.1-2.4.3-2.9 1.4.8 2.1 2.2.5-.5-1.4 2.9-1.2 5.3.5-.8 1.1.8.7.6-.6 4.6.5v1l1.3.7v-1.2z"/><path clip-rule="evenodd" stroke="#151215" stroke-width=".425" fill="none" d="M-1.6 10.3l6.3-.5 1 .5 4.9-1.2h.8l2.6.3.4-.7-2-.6 4.3-.8h3.1l2.1.7.4.2.6 1.4 1.9-.9-.3-1.4-.8-.5-1.6-.9h-2.2l3.1-1.2.2-2.8-10.1 4.4-.4-.9-4 1.8 1.5-1.4-1.2-.4-.6-.9-2.7 2.8-2 .7-3.1.6-3.1-.3-1.9-.7-1.3-.9-.9-2.1-2 .8 1.1 1.7-2-.8-2.1-1.4-.4.9-4.7-1.3-5.9-2.6-.5 2.1 3.3 1.1-2.4.3-2.9 1.4.8 2.1 2.2.5-.5-1.4 2.9-1.2 5.3.5-.8 1.1.8.7.6-.6 4.6.5v1l1.3.7v-1.2z"/><path fill-rule="evenodd" clip-rule="evenodd" fill="#EFEF5F" d="M11.4 22.3l-1-2.4-.8-1.3-4.9-5.4.1-.9-1-.3-.7-.5-.5-.5-.3-.1.1-.2-2.7-2.9-3.5 3.9-1 .4v.7l-5.4 5.9-2.6 4.1-.8 2 .2.1.4.8.4.4 1-2.7 2.5-3.9 5.3-5.7-.1 1.2.9-.4.1-.9.5-1.5 2.1-2.4 2.9 3.1.1 1.7.8.7.1-1.1 5 5.3 2.3 3.6-.4-1.1z"/><path clip-rule="evenodd" stroke="#151215" stroke-width=".425" fill="none" d="M11.4 22.3l-.9-.3.4 1.1-2.3-3.6-5-5.3-.1 1.1-.8-.7-.1-1.7-2.9-3.1-2.1 2.4-.5 1.5-.1.9-.9.4.1-1.2-5.3 5.7-2.5 3.9-1 2.7-.4-.4-.4-.8-.2-.1.8-2 2.6-4.1 5.4-5.9v-.7l1-.4 3.5-3.9 2.7 2.9-.1.2.3.1.5.5.7.5 1 .3-.1.9 4.9 5.4.8 1.3z"/><path fill-rule="evenodd" clip-rule="evenodd" fill="#FF9300" d="M-11.5 47l-.7 1.6-1.9.7-2.8.3 3.5 2.2 1.2.6 4.1-2.8.5-.7z"/><path clip-rule="evenodd" stroke="#151215" stroke-width=".425" fill="none" d="M-11.5 47l-.7 1.6-1.9.7-2.8.3 3.5 2.2 1.2.6 4.1-2.8.5-.7"/><path fill-rule="evenodd" clip-rule="evenodd" fill="#FF9300" d="M-7.5 46.5l-.4-2.5h1.6l-2-8.5-1.5 2.1-1.9 1.5 1.4 2.4.8 2.9-.3.6z"/><path clip-rule="evenodd" stroke="#151215" stroke-width=".425" fill="none" d="M-7.5 46.5l-.4-2.5h1.6l-2-8.5-1.5 2.1-1.9 1.5 1.4 2.4.8 2.9-.3.6"/><path fill-rule="evenodd" clip-rule="evenodd" fill="#FFED00" d="M-1.9 42.4l-.1-.4-.8-.8-.4-1.5-1.1-1.2-4-3-1.5 2.1-1.9 1.5 1.5-.1 1.1.7 2.3 2.3.7 1.7z"/><path clip-rule="evenodd" stroke="#151215" stroke-width=".425" fill="none" d="M-1.9 42.4l-.1-.4-.8-.8-.4-1.5-1.1-1.2-4-3-1.5 2.1-1.9 1.5 1.5-.1 1.1.7 2.3 2.3.7 1.7"/><path fill-rule="evenodd" clip-rule="evenodd" fill="#FFED00" d="M-12.9 43.5l-.3-.3.1-.6.4-.4.5.3v.8l-.7.2zm-.3 2l-.1.4-.9.5-.5-.5.6-.6.9.2zm-2.6-2.5l.9 1.4-.9.9-1.4-3.2 3.4-.4v.9l-2 .4zm1.7 4.8l1.3-.3.9-1.1.2.4.7.2 4 2-.2-1.4-.6-.3.2-.7.2-.2-2.6-1.2-.3-.9h-.4l.4-1.5-.7-1.7-1.3-.9-.4-1.2-1 .2v1.1h-1.1l-1.6.7v-.5l-.4-.1-.3.8h-.8l.2-.9-.8.1-.2.7-.5-.4-1.4-.2.9 1 .6.3-.7.6.3.5.9-.5.4.7-.9.3v.7l1.2-.5.6 1.6.6 1.2.4.4-.9.8.8 1 1-1 1.3.2z"/><path clip-rule="evenodd" stroke="#151215" stroke-width=".425" d="M-14.1 47.8l-1.5-.2-1 1-.8-1 .9-.8-.4-.4-.6-1.2-.6-1.6-1.2.5v-.7l.9-.3-.4-.7-.9.5-.3-.5.7-.6-.6-.3-.9-1 1.4.2.5.4.2-.7.8-.1-.2.9h.8l.3-.8.4.1v.5l1.6-.7h1.1v-1.1l1-.2.4 1.2 1.3.9.7 1.7-.4 1.5h.4l.3.9 2.6 1.2-.2.2-.2.7.6.3.2 1.4-4-2-.7-.1-.2-.4-.9 1.1-1.1.2zm-1.7-4.8l1.8-.4v-.9l-3.4.4 1.4 3.2.9-.9-.7-1.4zm2.6 2.5l-.9-.3-.6.6.5.5.9-.5.1-.3zm.3-2l.7-.2v-.8l-.5-.3-.4.4-.1.6.3.3zM-20.2 20.1l4.5 20.6M3.9 41.4l1.2-3.4M6.6 40.1l2.8-4.5M17.6 39.2l1.7-2.5M22.2 20.7l2.3-5.8M19.7 11.8l-.5.2.5 1.7-2.3 12.7-.4 1.9m6.7-13.9l-6.4 12M14.9 37.3l.6-19.8-1.9-5.2-4.3-2.5M19.2 12l-2.2 1.8M-15.9 23.7l.7 2.4M9.3 13.4l1.6 2.6" fill="none"/></symbol><symbol id="b" viewBox="-49 -74 98 148"><path fill="#F0F7E6" d="M48-68.5c0-3-2.5-5.5-5.5-5.5h-86c-3 0-5.5 2.5-5.5 5.5v136c0 3 2.5 5.5 5.5 5.5h86c3 0 5.5-2.5 5.5-5.5v-136z"/><path fill="#000" d="M43 73c2.8 0 5-2.2 5-5v-136c0-2.8-2.2-5-5-5h-86c-2.8 0-5 2.2-5 5v136c0 2.8 2.2 5 5 5h86m0 1h-86c-3.3 0-6-2.7-6-6v-136c0-3.3 2.7-6 6-6h86c3.3 0 6 2.7 6 6v136c0 3.3-2.7 6-6 6z"/></symbol><symbol id="c" viewBox="-41 -66 82 132"><path fill-rule="evenodd" clip-rule="evenodd" d="M23 66h-46v-1h46zM23-65h-46v-1h46zM-41 50h1v-100h-1zM41-50h-1v100h1zM40-.5h-80v1h80z"/></symbol><symbol viewBox="-7.7 -10.4 15.4 20.8"><g clip-rule="evenodd"><path fill-rule="evenodd" fill="#fe0" d="M0-5.9l-.4.2-.6-2.1 1-.9 1 .8-.6 2.1-.4-.1zm3-.3l-1.5.2.9-2.1-1.5-1-.9-1-.9 1-1.5 1 .9 2.1-1.5-.2 3 2.2 3-2.2z"/><path stroke="#222123" stroke-width=".35" d="M3-6.2l-3 2.2-3-2.2 1.5.2-.9-2.1 1.5-1 .9-1 .9 1 1.5 1-.9 2.1 1.5-.2zm-3 .3l.4.2.6-2.2-1-.8-1.1.8.6 2.1.5-.1z" fill="none"/></g><use xlink:href="#a" width="15.4" height="15.4" x="-7.7" y="-7.7" transform="translate(0 2.703)" overflow="visible"/></symbol><symbol id="a" viewBox="-7.7 -7.7 15.4 15.4"><path fill-rule="evenodd" clip-rule="evenodd" fill="#F40D1D" d="M6.8 3.3c.5-1 .7-2.1.7-3.3 0-1.2-.2-2.3-.7-3.3-.4-.8-.9-1.5-1.5-2-1.5-1.5-3.2-2.2-5.3-2.2-2 0-3.8.7-5.3 2.1-.7.8-1.2 1.5-1.5 2.1-.5 1-.8 2.1-.8 3.3 0 1.2.3 2.2.8 3.3.4.8.9 1.5 1.5 2.1 1.5 1.4 3.3 2.1 5.3 2.1s3.8-.7 5.3-2.1c.5-.5 1-1.2 1.5-2.1z"/><g clip-rule="evenodd"><path fill-rule="evenodd" fill="#00AFE7" d="M6.8 3.3c-2.4-.5-4.6-.7-6.8-.7s-4.4.2-6.8.7c.4.8.9 1.5 1.5 2.1 1.9-.7 3.7-1.1 5.3-1.1 1.7 0 3.4.4 5.3 1.1.5-.6 1-1.3 1.5-2.1z"/><path stroke="#222123" stroke-width=".35" d="M6.8 3.3c-.5.8-1 1.5-1.5 2.1-1.9-.7-3.6-1.1-5.3-1.1-1.7 0-3.4.4-5.3 1.1-.6-.6-1.1-1.3-1.5-2.1 2.4-.5 4.7-.7 6.8-.7 2.2 0 4.4.2 6.8.7z" fill="none"/><path fill-rule="evenodd" fill="#00AFE7" d="M6.8-3.3c-.4-.8-.9-1.5-1.5-2-1.9.7-3.6 1-5.2 1-1.8 0-3.5-.4-5.3-1.1-.8.8-1.3 1.5-1.6 2.1 2.4.5 4.6.7 6.8.7s4.4-.2 6.8-.7z"/><path stroke="#222123" stroke-width=".35" d="M6.8-3.3c-2.4.5-4.6.7-6.7.7-2.2 0-4.5-.2-6.8-.7.2-.6.7-1.3 1.4-2.1 1.8.8 3.6 1.1 5.3 1.1 1.6 0 3.4-.4 5.2-1.1.7.6 1.2 1.3 1.6 2.1z" fill="none"/></g><g fill-rule="evenodd" clip-rule="evenodd" fill="#fe0"><path d="M7.2 0l-1 1.3-2-.5 1.1.5-.6 1.3-.8-.5.2-.5-1.9-.4-.5-.7-1.7 1.8-1.9-1.8-.5.6-2 .4.4.6-.8.5-.6-1.2 1.2-.5-2 .5-1-1.3 1-1.2 2 .5-1.2-.5.6-1.3.8.4-.3.5 2 .4.5.6 1.8-1.8 1.8 1.8.5-.6 1.9-.4-.3-.5.8-.5.6 1.3-1.2.4 2-.5 1.1 1.3zM1.6-6.8v1.1l-1.6 1.1-1.6-1 .1-1.1-1.4 1.1-1.5-.5c1.4-1 2.8-1.4 4.4-1.4 1.6 0 3 .5 4.4 1.4l-1.5.5-1.3-1.2zM-1.5 6.6l-.1-1.1 1.6-1 1.6 1v1.1l1.4-1.1 1.5.5c-1.3 1-2.8 1.5-4.5 1.5-1.6 0-3.1-.5-4.5-1.5l1.6-.6 1.4 1.2z"/></g><path clip-rule="evenodd" stroke="#1A1A1A" stroke-width=".35" fill="none" d="M0-7.5v15"/><path fill-rule="evenodd" clip-rule="evenodd" fill-opacity=".149" d="M0 7.5v-15h.1c2 0 3.8.7 5.3 2.1.6.8 1.1 1.5 1.4 2.1.5 1 .8 2.1.8 3.3 0 1.2-.3 2.2-.8 3.3-.4.8-.9 1.5-1.5 2.1-1.5 1.4-3.2 2.1-5.3 2.1z"/><path clip-rule="evenodd" stroke="#222123" stroke-width=".35" d="M6.8 3.3c-.5.8-1 1.5-1.5 2.1-1.5 1.4-3.2 2.1-5.3 2.1-2 0-3.8-.7-5.3-2.1-.6-.6-1.1-1.3-1.5-2.1-.5-1-.8-2.1-.8-3.3 0-1.2.3-2.3.8-3.3.3-.6.8-1.3 1.5-2.1 1.5-1.4 3.3-2.1 5.3-2.1 2.1 0 3.8.7 5.3 2.2.6.6 1.1 1.3 1.5 2 .5 1.1.7 2.2.7 3.3 0 1.1-.2 2.2-.7 3.3z" fill="none"/></symbol><use xlink:href="#b" width="98" height="148" x="-49" y="-74" transform="matrix(1 0 0 -1 50 75)" overflow="visible"/><g><g><use xlink:href="#c" width="82" height="132" x="-41" y="-66" transform="matrix(1 0 0 -1 50 75)" overflow="visible"/><path opacity=".992" fill-rule="evenodd" clip-rule="evenodd" fill="#E5C749" d="M29.4 64.5h40.7v23.8h-40.7z"/><path fill="#050505" d="M69.9 64.7v23.3h-40.2v-23.3h40.2m.5-.5h-41.2v24.3h41.2v-24.3z"/><path fill-rule="evenodd" clip-rule="evenodd" d="M33.3 73.2v.2l.6-.5c.2 0 .4.1.7.2l.6.3.7-.5c.3 0 .5.1.8.2.3.1.5.2.6.3v3.2l.8.1-.3.3c-.3 0-.6-.1-.8-.1l-.6-.2.3-.1v-3.1c-.3-.1-.6-.2-.8-.2l-.6.3v3l.8.1-.2.3-.9-.1-.6-.2.3-.1v-3.1c-.3-.1-.6-.2-.9-.2l-.6.3v3l.7.1-.2.3c-.3 0-.6-.1-.8-.1l-.6-.2.3-.1v-3.3h-.6l.2-.4c.1 0 .3.1.5.1.3.1.5.2.6.2zm14.9-.1c.3.1.5.2.7.4l-.2 1.5.2 1.6-1.4.6c-.2-.1-.5-.1-.8-.3-.3-.1-.5-.2-.7-.3l.2-1.6-.2-1.5 1.3-.6c.4 0 .6.1.9.2zm-.3.3l-.6-.2-.7.3.2 1.5-.2 1.5c.1.1.3.1.5.2s.4.1.6.1l.7-.3-.2-1.5.2-1.4c-.1-.1-.3-.1-.5-.2zm2.3.5l.6.3-.7 1.9-.3-.1.4-2.1zm2.6-.6l-.7.3.2 1.5-.2 1.5c.1.1.3.1.5.2s.4.1.6.1l1.2-.6-.1.4-1.3.6c-.2-.1-.5-.1-.8-.3-.3-.1-.5-.2-.7-.3l.2-1.6-.2-1.5 1.3-.6c.2.1.5.1.7.3l.1-.7.3.2v2.6c-.3-.1-.4-.1-.6-.2l.2-1.5c-.2-.3-.5-.4-.7-.4zm-11.1-1.6c.5 0 .8.1 1.1.2v4.8l.7.1-.2.3c-.3 0-.6-.1-.8-.1-.3-.1-.5-.1-.6-.2l.3-.1v-4.6h-.7l.2-.4zm-2.2 1.2c.5.1 1 .3 1.3.6v3.2c.3.1.5.1.8.1l-.2.3c-.5 0-.8-.1-1.1-.3v-.3l-.8.6c-.2-.1-.5-.1-.7-.3-.3-.1-.5-.2-.6-.3l.3-1.4.5-.2-.6-1.4 1.1-.6zm-.6.6l.4 1.2 1-.4v-.8c-.3-.1-.5-.2-.8-.2l-.6.2zm1.4 1.1l-1.3.7-.2 1.3c.2.1.5.2.8.2l.7-.5v-1.7zm4.3-1v3.1c.3 0 .7.1 1.1.1l-.2.3-1-.1c-.3 0-.5-.1-.6-.1l.2-.2v-3.1h-.6l.2-.3h.5l-.1-1 .6-.3v1.3h1.1l-.3.5-.9-.2zm21.4-.3l-.6.2.1 1 1.7 1.2v1l-1.2.5c-.2 0-.4-.1-.7-.2l-.6-.3.1-1.2c.2 0 .4.1.6.2l-.2.8.4.2c.2.1.3.1.4.1l.7-.2v-.6l-1.7-1.3-.2-1.3 1.1-.6c.3.1.5.1.7.3l.1-.7.3.2v2.1c-.3-.1-.4-.2-.6-.2l.1-.9c0-.2-.3-.3-.5-.3zm-7.8.1l.2-.4c.1 0 .3.1.5.1.2.1.3.1.4.2v.9l.6-1.3c.1 0 .3 0 .4.1.2.1.3.1.3.1l-.3.7-.3-.3-.6 1.2v2c.3 0 .7.1 1.1.1l-.2.4c-.4 0-.7-.1-1-.1-.3-.1-.6-.1-.7-.2l.3-.1v-3.2l-.7-.2zm-2.1-.5c.5.1 1 .3 1.3.6v3.2c.3.1.5.1.8.1l-.2.3c-.5 0-.8-.1-1.1-.3v-.3l-.9.7c-.2-.1-.5-.1-.7-.3-.3-.1-.5-.2-.6-.3l.3-1.4.5-.2-.6-1.4 1.2-.7zm-.1.4l-.6.2.4 1.2 1-.4v-.8c-.2 0-.5-.1-.8-.2zm-.5 2l-.2 1.3c.2.1.5.2.8.2l.7-.5v-1.7l-1.3.7zm7.7-2.1v-1.1h-.7l.2-.3c.4 0 .8.1 1 .2v4.7c.2.1.5.1.8.1l-.2.3c-.5 0-.8-.1-1.1-.3v-.3l-.8.6-.7-.3c-.3-.1-.5-.2-.6-.3l.2-1.4-.2-1.6 1.4-.6.7.3zm-1.6.4l.2 1.5-.2 1.4.8.3.8-.5v-2.6l-.9-.3-.7.2z"/><use xlink:href="#d" width="77" height="62.4" x="-37.5" y="1.6" transform="matrix(-1 0 0 1 50 75)" overflow="visible"/><use xlink:href="#d" width="77" height="62.4" x="-37.5" y="1.6" transform="matrix(1 0 0 -1 50 75)" overflow="visible"/><use xlink:href="#e" width="16.3" height="15.8" x="-8.2" y="-7.9" transform="matrix(.866 -.5 .5 .866 82.999 133.5)" overflow="visible"/><use xlink:href="#e" width="16.3" height="15.8" x="-8.2" y="-7.9" transform="matrix(-.866 -.5 -.5 .866 17 133.5)" overflow="visible"/><use xlink:href="#e" width="16.3" height="15.8" x="-8.2" y="-7.9" transform="matrix(.866 .5 .5 -.866 82.999 16.5)" overflow="visible"/><use xlink:href="#e" width="16.3" height="15.8" x="-8.2" y="-7.9" transform="matrix(-.866 .5 -.5 -.866 17 16.5)" overflow="visible"/></g></g></svg>
