<svg xmlns="http://www.w3.org/2000/svg" xmlns:xlink="http://www.w3.org/1999/xlink" viewBox="0 0 100 150" enable-background="new 0 0 100 150"><symbol viewBox="-4.9 -10.1 9.8 20.2"><path fill-rule="evenodd" clip-rule="evenodd" fill="#009C22" d="M0-1.3c3.1 0 4.7-1.6 4.7-3 0-2.6-2.6-3.9-3.5-4.2-1.1-.4-1.2-1.4-1.2-1.4s-.1 1-1.3 1.5c-.9.3-3.5 1.6-3.5 4.2.1 1.3 1.7 2.9 4.8 2.9z"/><path fill-rule="evenodd" clip-rule="evenodd" fill="#006F20" d="M0-1.3v-8.6s-.1 1-1.3 1.5c-.9.3-3.5 1.6-3.5 4.2.1 1.3 1.7 2.9 4.8 2.9z"/><path fill-rule="evenodd" clip-rule="evenodd" fill="#F40D1D" d="M3.5-2.2h-7v8.7l3.5 3.4 3.5-3.4z"/><path fill-rule="evenodd" clip-rule="evenodd" fill="#AC0019" d="M0-2.2h-3.5v8.7l3.5 3.4z"/><path stroke="#000" stroke-width=".35" stroke-linecap="round" stroke-linejoin="round" stroke-miterlimit="10" fill="none" d="M0-9.9v6.9M0 9.9v-11.8"/><path fill-rule="evenodd" clip-rule="evenodd" fill="#fe0" d="M3.5-1.2v-1.1c-.8-.4-2.1-.7-3.5-.7s-2.7.3-3.5.7v1.1c.8-.4 2-.7 3.5-.7s2.7.3 3.5.7z"/><path clip-rule="evenodd" stroke="#000" stroke-width=".35" stroke-linecap="round" stroke-linejoin="round" stroke-miterlimit="10" d="M-3.5-2.2v8.7l3.5 3.4 3.5-3.5v-8.7c.8-.6 1.3-1.3 1.3-2 0-2.6-2.6-3.9-3.5-4.2-1.2-.4-1.3-1.4-1.3-1.4s-.1 1-1.3 1.5c-.9.3-3.5 1.6-3.5 4.2.1.6.5 1.4 1.3 2z" fill="none"/><path clip-rule="evenodd" stroke="#000" stroke-width=".25" stroke-linecap="round" stroke-miterlimit="10" d="M3.5-2.3c-.8-.4-2.1-.7-3.5-.7s-2.7.3-3.5.7" fill="none"/></symbol><symbol viewBox="-6.7 -8.5 13.4 17"><path fill-rule="evenodd" clip-rule="evenodd" fill="#009915" d="M0 8.3c1.5-1.4 2.4-2.2 2.5-2.5.4-.8.5-1.8.3-3l1.2 1.7.8-1.1c.5-.8.8-1.4.9-1.8.2-.9-.1-2-.9-3.3l1.6.9c.1-2.4-.1-4-.4-4.7-.3-.6-1.1-1-2.3-1.2l1.8-.6c-.8-.7-1.8-1-2.8-1-.1 0-.4.3-1 .8-.4.4-.8.3-1.2-.3h-1c-.4.6-.8.6-1.2.2-.6-.6-.9-.8-1-.8-1 0-2 .4-2.9 1.1l1.8.6c-1.2.2-2 .6-2.3 1.3-.2.5-.4 1.4-.4 2.8v2l1.6-.9c-.8 1.3-1 2.4-.9 3.3.1.4.4 1 .9 1.8.3.4.6.7.8 1.1l1.2-1.7c-.1 1 0 2 .4 2.8.1.3 1 1.1 2.5 2.5z"/><path fill-rule="evenodd" clip-rule="evenodd" fill-opacity=".298" d="M-4.9 3.5c.3.4.6.7.8 1.1l1.2-1.7c-.1 1.1 0 2.1.4 2.9.2.3 1 1.2 2.6 2.5v-16h-.5c-.4.5-.8.6-1.2.2-.6-.5-.9-.8-1-.8-1 0-2 .4-2.9 1.1l1.8.6c-1.2.2-2 .6-2.3 1.3-.3.4-.5 1.3-.5 2.7v2l1.6-.9c-.8 1.3-1 2.4-.9 3.3.1.3.4.9.9 1.7z"/><path clip-rule="evenodd" stroke="#000" stroke-width=".031" stroke-linecap="round" stroke-linejoin="round" stroke-miterlimit="3" d="M-4.9 3.5c-.5-.8-.8-1.4-.9-1.8-.2-.9.1-2 .9-3.3l-1.6.9v-2c0-1.3.2-2.2.4-2.7.4-.7 1.1-1.2 2.3-1.3l-1.8-.6c.9-.7 1.9-1 2.9-1 .1 0 .4.3 1 .8.4.4.8.3 1.2-.2h.5v16c-1.5-1.4-2.4-2.2-2.6-2.5-.3-.8-.4-1.8-.3-3l-1.2 1.7c-.2-.3-.5-.7-.8-1z" fill="none"/><path clip-rule="evenodd" stroke="#151215" stroke-width=".35" d="M0 8.3c-1.5-1.4-2.4-2.2-2.6-2.5-.3-.8-.4-1.8-.3-3l-1.2 1.7c-.2-.3-.5-.7-.8-1.1-.5-.8-.8-1.4-.9-1.8-.2-.9.1-2 .9-3.3l-1.6.9v-2c0-1.2.2-2.1.4-2.6.4-.7 1.1-1.2 2.3-1.3l-1.8-.6c.9-.7 1.9-1 2.9-1 .1 0 .4.3 1 .8.4.4.8.3 1.2-.2h1c.4.6.8.6 1.2.2.6-.6.9-.8 1-.8 1 0 2 .4 2.9 1.1l-1.9.5c1.2.2 2 .6 2.3 1.3.4.7.5 2.3.4 4.7l-1.5-.9c.8 1.3 1 2.4.9 3.3-.1.4-.4 1-.9 1.8l-.8 1-1.3-1.7c.2 1.2.1 2.2-.3 3-.1.3-1 1.1-2.5 2.5z" fill="none"/></symbol><symbol id="g" viewBox="-8.2 -7.9 16.3 15.8"><path fill-rule="evenodd" clip-rule="evenodd" fill="#E61616" d="M6.5 6.8c1.1-.8 1.6-2 1.5-3.6-.1-1.6-.7-3-2-4.4-1.2-1.4-3.2-3.5-6-6.4-2.8 2.9-4.8 5.1-6 6.4-1.2 1.4-1.9 2.9-2 4.4-.1 1.6.4 2.8 1.5 3.6 1 .8 2.1 1.1 3.3.8 1.2-.1 2.3-.8 3.2-1.8 1 1 2 1.7 3.2 1.8 1.2.3 2.3 0 3.3-.8z"/><path fill-rule="evenodd" clip-rule="evenodd" fill-opacity=".298" d="M0-7.6v13.4c1 1 2 1.6 3.2 1.8 1.2.2 2.3-.1 3.3-.8 1.1-.8 1.6-2 1.5-3.6-.1-1.6-.7-3-2-4.4-1.2-1.4-3.2-3.5-6-6.4z"/><path clip-rule="evenodd" stroke="#151215" stroke-width=".1" stroke-linecap="round" stroke-linejoin="round" stroke-miterlimit="3" d="M0-7.6c2.8 2.9 4.8 5.1 6 6.4 1.2 1.4 1.9 2.9 2 4.4.1 1.6-.4 2.8-1.5 3.6-1 .8-2.1 1.1-3.3.8-1.2-.2-2.2-.8-3.2-1.8v-13.4z" fill="none"/><path clip-rule="evenodd" stroke="#151215" stroke-width=".35" d="M6.5 6.8c-1 .8-2.1 1.1-3.3.8-1.2-.1-2.2-.8-3.2-1.8-.9 1.1-2 1.7-3.2 1.9-1.2.2-2.3-.1-3.3-.8-1.1-.9-1.6-2.1-1.5-3.7.1-1.6.8-3 2-4.4 1.2-1.4 3.2-3.5 6-6.4 2.8 2.9 4.8 5.1 6 6.4 1.2 1.4 1.9 2.9 2 4.4.1 1.6-.4 2.8-1.5 3.6z" fill="none"/></symbol><symbol id="c" viewBox="-5.4 -5.2 10.7 10.4"><path fill-rule="evenodd" clip-rule="evenodd" fill="#E61616" d="M4.2 4.4c.7-.5 1-1.3 1-2.3-.1-1-.5-2-1.3-2.9-.8-.9-2.1-2.2-3.9-4.1-1.8 1.9-3.1 3.2-3.9 4.1-.8.9-1.2 1.9-1.3 2.9-.1 1 .3 1.8 1 2.3.7.5 1.4.7 2.2.6.7-.2 1.4-.6 2-1.3.6.7 1.3 1.1 2.1 1.3.7.1 1.4-.1 2.1-.6z"/><path fill-rule="evenodd" clip-rule="evenodd" fill-opacity=".298" d="M0-4.9v8.7c.6.6 1.3 1 2.1 1.2.8.1 1.5 0 2.1-.5.7-.5 1-1.3 1-2.3-.1-1-.5-2-1.3-2.9-.8-1-2.1-2.3-3.9-4.2z"/><path clip-rule="evenodd" stroke="#151215" stroke-width=".1" stroke-linecap="round" stroke-linejoin="round" stroke-miterlimit="3" d="M0-4.9c1.8 1.9 3.1 3.2 3.9 4.1.8.9 1.2 1.9 1.3 2.9.1 1-.3 1.8-1 2.3-.7.5-1.4.7-2.1.6-.8-.2-1.5-.6-2.1-1.2v-8.7z" fill="none"/><path clip-rule="evenodd" stroke="#151215" stroke-width=".35" d="M4.2 4.4c-.7.5-1.4.7-2.1.6-.8-.2-1.5-.6-2.1-1.3-.6.7-1.3 1.1-2 1.3-.8.1-1.5 0-2.2-.5-.7-.5-1-1.3-1-2.3.1-1 .5-2 1.3-2.9.8-1 2.1-2.3 3.9-4.2 1.8 1.9 3.1 3.2 3.9 4.1.8.9 1.2 1.9 1.3 2.9 0 1-.3 1.8-1 2.3z" fill="none"/></symbol><symbol id="e" viewBox="-36.3 0 74.6 63.5"><g clip-rule="evenodd"><path fill-rule="evenodd" fill="#F3000B" d="M4.7 29.6l9.6 6.1 12.9-6.7-12.2-7.3-4.1-21.3-46.1-.1-.9.7v2.9l2.2 4.5 9.7 6.4 6.6 16.3 12.3 6.8-2.3-18.7z"/><path stroke="#151215" stroke-width=".425" fill="none" d="M4.7 29.6l-12.3-10.4 2.3 18.7-12.3-6.8-6.6-16.3-9.7-6.4-2.2-4.5v-2.9l.9-.7 46.1.1 4.1 21.3 12.2 7.3-12.9 6.7z"/><path fill-rule="evenodd" fill="#fff" d="M9 33.3l-8.7-12.5-4.2-8.9-3.5-11.7-4.7.2-.1 16.9 4.4 15.8 2.6 4.3-.2 1.5 3.4-.9 6.2.8z"/><path stroke="#151215" stroke-width=".425" fill="none" d="M9 33.3l-8.7-12.5-4.2-8.9-3.5-11.7-4.7.2-.1 16.9 4.4 15.8 2.6 4.3-.2 1.5 3.4-.9 6.2.8z"/><path fill-rule="evenodd" fill="#2F4C00" d="M9.7 36.7l2.9-.6-3.5-7.8-6.9-8.8-6.2-11.3-2.2-7.8h-2.1l2.3 9.9 6.1 12.7 7.3 9.2z"/><path stroke="#151215" stroke-width=".425" fill="none" d="M9.7 36.7l-2.3-4.5-7.3-9.2-6.1-12.7-2.3-9.9h2.1l2.2 7.8 6.2 11.3 6.9 8.8 3.5 7.8z"/><path fill-rule="evenodd" fill="#2F4C00" d="M-5.3 37.9l-.3-3.1-4.3-9.4-1.6-10.7.6-14.2h-2.1l-.8 11.9.2 11.3 2.1 6.2 3.1 4.5z"/><path stroke="#151215" stroke-width=".425" fill="none" d="M-5.3 37.9l-3.1-3.5-3.1-4.5-2.1-6.2-.2-11.3.8-11.9h2.1l-.6 14.2 1.6 10.7 4.3 9.4z"/><path fill-rule="evenodd" fill="#F3000B" d="M35.6.4h-11.4l-.5 2 8.1.7 4-1.3z"/><path stroke="#151215" stroke-width=".425" fill="none" d="M35.6.4l.2 1.4-4 1.3-8.1-.7.5-2z"/></g><path fill-rule="evenodd" clip-rule="evenodd" fill="#3E7300" d="M-17.2 31.3c-1.6-2.9-2.4-4.4-2.4-4.7 0-.2-.7-2.5-2.1-6.9-.7-2.3-1.5-4.5-2.2-6.7l.3 12.3 2.4 5.2 3.3 1.2.7-.4z"/><path clip-rule="evenodd" stroke="#151215" stroke-width=".425" d="M-17.2 31.3l-.7.5-3.3-1.2-2.4-5.2-.3-12.3c.7 2.2 1.5 4.4 2.2 6.7 1.4 4.5 2.1 6.8 2.1 6.9.1.2.9 1.7 2.4 4.6z" fill="none"/><g clip-rule="evenodd"><path fill-rule="evenodd" fill="#0075BD" d="M34.8 11.4l3.3-7.7-2.4-2.5-.3.8-3.7-.1-.1.6-7.5-.5-5 1 2 6.9 2.2 2.7 5.7.7z"/><path stroke="#151215" stroke-width=".425" fill="none" d="M34.8 11.4l3.3-7.7-2.4-2.5-.3.8-3.7-.1-.1.6-7.5-.5-5 1 2 6.9 2.2 2.7 5.7.7z"/><path fill-rule="evenodd" fill="#00C6E6" d="M25.2 27.1l6.7-8.6 1.9-5.7-10.5-.2 1 14.5z"/><path stroke="#151215" stroke-width=".425" fill="none" d="M25.2 27.1l6.7-8.6 1.9-5.7-10.5-.2 1 14.5z"/><g fill-rule="evenodd" fill="#F3000B"><path d="M24.6 25.5l.4.4 1.9-4.4.2.5.5.7.7-.6-.5-.6-.3-1.1.1-.8.4.7.8.9.7-.6-.8-.9-.8-1.4.1-.6 1.3 1 1.9-.4.4-1-2.1.4-1.1-.8.6-1.4 1.6 1 2.5-1.9.4-1.1-3 1.9-1.1-.8.2-.4-.1-.1-.5.3-.6-.1-2 .8-2.7-1.5-.1 1.2 2.7 1.3 1.6-.5-.4 1.1-2.1.7-1.1-.6-.4.8 1.5.8 1.7-.6-.1.2v-.1l-2 1.5-.8-.1.1 1h1l1.4-1.1-.1.5-1.6 1.9-.8.2.1.9 1.2-.2.6-1.1v.3zM31.9 11.9l1.8-.2 3.1-8.1-1.2-1.8-1.2.3c-.1 0 0 .2.2.6l.4.7.3 1.9-3.4 6.6zM29 11.8l.7.1 3.3-7.7-.7-1.9h-.7l-.2 1.8zM25.7 12.1l1.8-6.1.3-3.6-2 4.5zM22.7 10.2l.5-1.7.4-3.9.5-1.8-1.9 1.8-.3 4.3z"/></g><path fill-rule="evenodd" fill="#B4A800" d="M32.5 19.4l1.3-6.2-3.4 6.7-5.7 6.4-1-14.5-2.1-3.6c-1.4-3.2-2.2-4.9-2.3-4.9-.1 0-3.3.1-9.6.4l7.2 21 10 3.5 3.1-2.4 2.5-6.4z"/><path stroke="#151215" stroke-width=".425" d="M32.5 19.4l1.3-6.2-3.4 6.7-5.7 6.4-1-14.5-2.1-3.6c-1.4-3.2-2.2-4.9-2.3-4.9-.1 0-3.3.1-9.6.4l7.2 21 10 3.5 3.1-2.4 2.5-6.4z" fill="none"/><path fill-rule="evenodd" fill="#FFED00" d="M33.3 13.4l.4.9.8-.1.8-.9.6-1.2-.4-.9v-.9l-.6-.1-.7 1.4-3.2 1-.5-.8-2.1.1-.7.7-4.1-.7.3-1.1-1.1.1-.2.7-.2-.2-.9 1.4.7 1.2.7-.1.1.9.5-.1.6-.8h2.9l.9.8 2.3-.1.9-.7z"/><path stroke="#151215" stroke-width=".425" fill="none" d="M33.3 13.4l-2.2.5-.9.7-2.3.1-.9-.8h-2.9l-.6.8-.5.1-.1-.9-.7.1-.7-1.2.9-1.4.2.2.2-.7 1.1-.1-.3 1.1 4.1.7.7-.7 2.1-.1.5.8 3.2-1 .7-1.4.6.1v.9l.4.9-.6 1.2-.8.9-.8.1z"/></g><path fill-rule="evenodd" clip-rule="evenodd" fill="#3E7300" d="M12.9 24l4.2 4.7 6.4 1.4 4.1-.5 2.9-1.5 2.3-3.8.1-1-.4-3.9-2.5 5.6-3.1 1.3-5-1.1-3.7-3.2-1.6-3.2-1.1-4.7-.8-1.8-1.6-9-3.8 4.3 1.4 10z"/><path clip-rule="evenodd" stroke="#151215" stroke-width=".425" fill="none" d="M12.9 24l-2.2-6.4-1.4-10 3.8-4.3 1.6 9 .8 1.8 1.1 4.7 1.6 3.2 3.7 3.2 5 1.1 3.1-1.3 2.5-5.6.4 3.9-.1 1-2.3 3.8-2.9 1.5-4.1.5-6.4-1.4z"/><path fill-rule="evenodd" clip-rule="evenodd" d="M-17.2 21.9c-.1-7-.2-10.6-.3-10.6l-.8-.1c-.5-.1-.7-.1-.7-.2l3.3-10.6h-6.8v2.5l-.9 3 .7.1-.3 2.9-1 14 .6.8 6.2-1.8z" opacity=".5" enable-background="new"/><g clip-rule="evenodd"><path fill-rule="evenodd" fill="#0075BD" d="M-1.6 11.9l-3 2.1 1.4 1.6 9.7-8.5 3.4-2.3 1.7-1.4-3.6-2.5-2.2 3z"/><path stroke="#151215" stroke-width=".425" fill="none" d="M11.6 3.4l-1.7 1.4-3.4 2.3-9.7 8.5-1.4-1.6 3-2.1 7.4-8 2.2-3"/><path fill-rule="evenodd" fill="#FFED00" d="M9.6 2.7l2 .7v-3h-3.3l-.3.5z"/><path stroke="#151215" stroke-width=".425" fill="none" d="M9.6 2.7l-1.6-1.8.3-.5h3.3v3z"/><path fill-rule="evenodd" fill="#FFED00" d="M-30.8 34.1v-.2l13-7.8 12.2-8.4 1.3.2v-.6l1.1-1.6-1.4-1.7-1.3.9c-.5.2-.8.4-.8.5l-.1 1-11.5 8.3-9.1 5.4-4.3 2.1-2.3.2-.5 1.1 1.1 1.6h1.1l1.5-1z"/><path stroke="#151215" stroke-width=".425" d="M-3.2 15.6l-1.1 1.6v.6l-1.3-.2-12.2 8.4-13 7.8v.2l-1.4 1.1h-1.1l-1.1-1.6.5-1.1 2.3-.2 4.3-2.1 9.1-5.4 11.5-8.3.1-1c.1-.1.3-.3.8-.5l1.3-.9" fill="none"/><path fill-rule="evenodd" fill="#AA953A" d="M-30 26.6l.2-.2 2.7.9-2.9-.7zm-1.2 1.6l.5-.8 4.7 1-4.4.9-1.1.9.3-2zm-1.3 2.9l-.2.2.4-2.1.1-.1-.3 2zm-1.6 2.5l1.5-1.2.9.1.1-1 1.6-1.4 6.6-1.3v-.4l.3.1.1-.3.5-.2 2.4-7-.9-.3-1 3.3 1.9-8.2-.9-.2-.8 3.7v-.5l-.9-.1-1.3 8.5-6.2-2-.7 1.1h-.3l-1.9 2.4-1 4.9z"/><path stroke="#151215" stroke-width=".425" d="M-34.1 33.6l1-4.8 1.9-2.4h.3l.7-1.1 6.2 2 1.3-8.5.9.1v.5l.8-3.7.9.2-1.9 8.1 1.1-3.3.9.3-2.4 7-.5.2-.1.3-.3-.1v.4l-6.6 1.3-1.6 1.4-.1 1-.9-.1-1.6 1.2zm1.6-2.5l.3-2.1-.1.1-.4 2.1.2-.1zm1.3-2.9l-.3 2 1.1-.9 4.4-.9-4.7-1-.5.8zm1.2-1.6l2.9.6-2.7-.9-.2.3z" fill="none"/><path fill-rule="evenodd" fill="#64C0C5" d="M-20.8 21.9l.4.3.9-.7-.4-1 1.6-2.3-1.3-.3-.8 2.5-1 .8z"/><path stroke="#151215" stroke-width=".425" fill="none" d="M-20.8 21.9l-.6-.7 1-.8.8-2.5 1.3.3-1.6 2.3.4 1-.9.7z"/><path fill-rule="evenodd" fill="#64C0C5" d="M-21.2 15.9l.9-.1.8-.9-.7-1.1.2-2.3h-1.2l.3 2.3-.9 1z"/><path stroke="#151215" stroke-width=".425" fill="none" d="M-21.2 15.9l.9-.1.8-.9-.7-1.1.2-2.3h-1.2l.3 2.3-.9 1z"/><path fill-rule="evenodd" fill="#64C0C5" d="M-21.9 19l.7-.9-.5-.9.3-2.2h-1l.2 2.1-.6.7.2 1.1z"/><path stroke="#151215" stroke-width=".425" fill="none" d="M-21.9 19l.7-.9-.5-.9.3-2.2h-1l.2 2.1-.6.7.2 1.1z"/></g><g clip-rule="evenodd"><path fill-rule="evenodd" fill="#00C6E6" d="M-.5 11.2l-1.7-1.2-.9.3-.2.4 1.7 2.3 2.5 1.8 4.6-.5 8.1-7.1 8.8-3.1 1.2-3.7-10.7-.1-1.2.6-.4 2.8-1.6 1.4-3.2 2-1.8-.6-.1-1.5-1.2-.4-3 2.2-.3.1-.8.9z"/><path stroke="#151215" stroke-width=".425" fill="none" d="M-.5 11.2l-1.7-1.2-.9.3-.2.4 1.7 2.3 2.5 1.8 4.6-.5 8.1-7.1 8.8-3.1 1.2-3.7-10.7-.1-1.2.6-.4 2.8-1.6 1.4-3.2 2-1.8-.6-.1-1.5-1.2-.4-3 2.2-.3.1-.8.9z"/><path fill-rule="evenodd" fill="#AA953A" d="M21.6 4.2h1.7l1.5-3.9-2.3.1z"/><path stroke="#151215" stroke-width=".425" fill="none" d="M21.6 4.2h1.7l1.5-3.9-2.3.1z"/></g><path fill-rule="evenodd" clip-rule="evenodd" fill="#F3000B" d="M-5.5 36.9l1.9-.9h3.7l.2-1.9-4.8.2-1 .5z"/><path clip-rule="evenodd" stroke="#151215" stroke-width=".425" fill="none" d="M-5.5 36.9l1.9-.9h3.7l.2-1.9-4.8.2-1 .5z"/><g clip-rule="evenodd"><path fill-rule="evenodd" fill="#DDC67B" d="M1.1 55l.1-15.1-3.4-2.4-3.2 1.4-3.4.3-.4 4.4.3.7-.3 1.8-1 .1 1.7 4.5-.1.9-.8.3 1.1 2.3z"/><path stroke="#151215" stroke-width=".425" fill="none" d="M1.1 55l-9.4-.8-1.1-2.3.8-.3.1-.9-1.7-4.5 1-.1.3-1.8-.3-.7.4-4.4 3.4-.3 3.2-1.4 3.4 2.4z"/><path fill-rule="evenodd" fill="#482700" d="M7.4 48.4l-1.6-11.6-6.2 1.6-1 2.1-3.1-.9-1.3-1.2-3.2.4-.5 1.9.8 1.1.5-1.3 1.4.4.2 1.4-.8 3.1 1.1-1.6 1.5-2.6 3.2 1.9 1.5 4.6z"/><path stroke="#151215" stroke-width=".425" fill="none" d="M7.4 48.4l-7.5-.7-1.5-4.6-3.2-1.9-1.5 2.6-1.1 1.6.8-3.1-.2-1.4-1.4-.4-.5 1.3-.8-1.1.5-1.9 3.2-.4 1.3 1.2 3.1.9 1-2.1 6.2-1.6z"/><path fill-rule="evenodd" fill="#006CF6" d="M-4.2 61.8l-4.7-5-2.1-1.6-2.5.5-1.6 3.4 1.9 2.5 2.8 1.1 3-.1z"/><path stroke="#151215" stroke-width=".425" fill="none" d="M-4.2 61.8l-3.2.8-3 .1-2.8-1.1-1.9-2.5 1.6-3.4 2.5-.5 2.1 1.6z"/><path fill-rule="evenodd" fill="#F3000B" d="M.9 61.8l1.9-.4 1.9-.6 2.4-.5 1.1-.5 3.3-3 4.8-6.7 1.1-.1.8-3.1-5.9 1.3-3-4.1-5.7 1.6-3.1-6.1-1.9-.3-1.3.7 1.9.7 2.3 5-4.1.2 1 3.4.2 3.8-6.9 1.1.1 1.1-2.2 3.1 6 2.9.3.1-.3.7.7 1.2 4.3-1z"/><path stroke="#151215" stroke-width=".425" fill="none" d="M.9 61.8l-.3.5-4.3 1-.7-1.2.3-.7-.3-.1-6-2.9 2.2-3.1-.1-1.1 6.9-1.1-.2-3.8-1-3.4 4.1-.2-2.3-5-1.9-.7 1.3-.7 1.9.3 3.1 6.1 5.7-1.6 3 4.1 5.9-1.3-.8 3.1-1.1.1-4.8 6.7-3.3 3-1.1.5-2.4.5-1.9.6z"/><g fill-rule="evenodd"><g fill="#FFED00"><path d="M7.8 50.2l10.2-2.8v-.4l-10.4 2.6-3.7 1.4-4.4 5.8-2.5 5.4-.2.1.5-1.1-6.7-3.6-.5.8 6.1 2.8v1.7l1.3-.2 2.6-5.6 4.2-5.5zM1 62.4c.4-2.5.6-3.9.8-4.4.2-.2 1.3-1.6 3.2-4.2l4.2-2.1 4.8-1.6 3.2-.3-.1-.7-3.1.4-5 1.6-4.5 2.3-3.2 4.1c-.2.2-.6 1.7-1 4.8l.7.1zM-6.3 58.1l4.2 1.9.3-.6-4.2-1.9-2-1.8-.4.5z"/></g><g fill="#3E7300"><path d="M4.9 46.9l-.1-.9-1.8.1-3.1-6.4-1.1-.1-1 .4 1.4.5 2.8 5.6-4.2.3 1 2.9.4 3.1.8-.1-.3-3.2-.7-1.9zM17.9 47.5l-13.5 4.2-4.5 5.6-2.1 5.4 2.2-.6.8-4.4 4-4.6 5.6-2.3 5.2-1.7 1.8-.1zM2.5 51.8l-1.5.7-5.6 1.5-3.2.2v.9l3.5-.2 6.4-1.8.7-.8z"/></g></g><path fill-rule="evenodd" fill="#2F4C00" d="M13.8 52.6l1.1-1.6-.8-4.1-1.6-1.7-3.1-.8-2.3.4-1.5 1.6-.5-.4-.4 2.9.2 1.7 2.3-.9.1 2.1 1.5 1.8 2.2.5z"/><path stroke="#151215" stroke-width=".425" fill="none" d="M13.8 52.6l1.1-1.6-.8-4.1-1.6-1.7-3.1-.8-2.3.4-1.5 1.6-.5-.4-.4 2.9.2 1.7 2.3-.9.1 2.1 1.5 1.8 2.2.5z"/><path fill-rule="evenodd" fill="#FFED00" d="M13.5 45l1.1-3.2.3-2.2 2.1-.5.6.6 1.5.3 1.1-2.2-.9-3.1-2-1.8-3.1-.9-1.7 1.1-1.5 3.3-.8.7.6 3-.2 4.5 2.4 1.2z"/><path stroke="#151215" stroke-width=".425" fill="none" d="M13.5 45l1.1-3.2.3-2.2 2.1-.5.6.6 1.5.3 1.1-2.2-.9-3.1-2-1.8-3.1-.9-1.7 1.1-1.5 3.3-.8.7.6 3-.2 4.5 2.4 1.2z"/><path fill-rule="evenodd" fill="#F3000B" d="M5.5 46.3l1.3-1.5 1.3-.4 1.8-.1.7-3.6-1.6-5.9-2.9-2.4-3.3-.6-2.7 1.1-.9 1.9 1.3 2.7 1.2.7 1.7.3.1 2.1.7 4.1z"/><path stroke="#151215" stroke-width=".425" fill="none" d="M5.5 46.3l-1.3-1.6-.7-4.1-.1-2.1-1.7-.3-1.2-.7-1.3-2.7.9-1.9 2.7-1.1 3.3.6 2.9 2.4 1.6 5.9-.7 3.6-1.8.1-1.3.4z"/></g><g clip-rule="evenodd"><path fill-rule="evenodd" fill="#F3000B" d="M-3.1 28.5c.5 0 3.2.3 8.3.6l-8.1.2-6.3.6-.1-.2 6.2-1.2zm0-.9c-.5.1-2.5.4-6 1.1l3.3-1.6 1.4-.1 8.1 1.2-6.8-.6zm10.3 3.1l-.6-1.6h-.3l-.3-1.6-10.3-1.5-1.7.1-4.3 2.1.3.5-.5.1.7 2 .6-.1v.7l16.4-.7zm-12.9-.2l7.5-.4-7.5.4z"/><path stroke="#151215" stroke-width=".425" d="M7.2 30.7l-16.4.8v-.7l-.6.1-.7-2 .5-.1-.3-.5 4.3-2.1 1.7-.2 10.3 1.5.3 1.6h.3l.6 1.6zm-10.3-3.1l6.8.5-8.1-1.2-1.3.1-3.3 1.6c3.5-.6 5.4-1 5.9-1zm0 .9l-6.3 1.2.1.2 6.3-.6 8.1-.2c-5-.4-7.7-.6-8.2-.6zm-2.6 2l7.5-.4" fill="none"/><path fill-rule="evenodd" fill="#FFED00" d="M-8 31.7l-.2-.3-.5-.1-1.1-2.3.3-1-.7-.7-.8.6.3.6h-.3l.4 2 .9 1.4.5-.1.3.8.7-.2z"/><path stroke="#151215" stroke-width=".425" fill="none" d="M-8 31.7l-.2.7-.7.2-.3-.8-.5.1-.9-1.4-.4-2h.3l-.3-.6.8-.6.7.7-.3 1 1.1 2.3.5.1z"/><path fill-rule="evenodd" fill="#FFED00" d="M6.4 30.9l.3.6 1.1.2.2-.6-.2-.5.5-.5-.6-1.5-1.2-1.4h-.6l-.2-.5-.6-.2-.6.1-.1.8 1.3.7 1.4 2.2-.2.4z"/><path stroke="#151215" stroke-width=".425" fill="none" d="M6.4 30.9l.3.6 1.1.2.2-.6-.2-.5.5-.5-.6-1.5-1.2-1.4h-.6l-.2-.5-.6-.2-.6.1-.1.8 1.3.7 1.4 2.2-.2.4z"/><path fill-rule="evenodd" fill="#FFED00" d="M-5.7 27.5l1.2.1.5-.6h-.6l-.2-1.1.6.1-.1-.5-.6-.4h.4l.6-2.5-.4-1.7-1.1-1.3-1.7-.5-.8.6-.5 1.6.3 2 .7 1.2.9.8.6.2-.2.3.2 1.4z"/><path stroke="#151215" stroke-width=".425" fill="none" d="M-5.7 27.5l-.2-.3-.2-1.4.2-.3-.6-.2-.9-.8-.7-1.2-.3-2 .5-1.6.8-.6 1.7.5 1.1 1.3.4 1.7-.6 2.5h-.4l.6.4.1.5-.6-.1.2 1.1h.6l-.5.6z"/><path fill-rule="evenodd" fill="#F3000B" d="M-5.7 24.5l.4-1.1-.3-1.7-.7-1.1h-.9l-.2.6.1 1.5.2.8.6.8z"/><path stroke="#151215" stroke-width=".425" fill="none" d="M-5.7 24.5l.4-1.1-.3-1.7-.7-1.1h-.9l-.2.6.1 1.5.2.8.6.8z"/></g><g clip-rule="evenodd"><path fill-rule="evenodd" fill="#00C6E6" d="M-21.5 33.3v-.5l-.7-1.1 1.2-.9-.3-2.2-.9.3-.6-.5v-.8l-.7-.3v-3.9l-.5-.5 1-14.9h-1.5l-.4 4.8-1.1.1-.3-4-.9-2.9-5.1.8-2.2 4.3 3.4 5 1.3 3.9.3 1.2.5 1.1-.3 3.4-1.2 4.4 1.3 4.3 3.1.1 1.1-.8 1 .1 1-.5z"/><path stroke="#151215" stroke-width=".425" fill="none" d="M-21.5 33.3h-1.5l-1 .5-1-.1-1.1.8-3.1-.1-1.3-4.3 1.2-4.4.3-3.4-.5-1.1-.3-1.2-1.3-3.9-3.4-5 2.2-4.3 5.1-.8.9 2.9.3 4 1.1-.1.4-4.8h1.5l-1 14.9.5.5v3.9l.7.3v.8l.6.5.9-.3.3 2.2-1.2.9.7 1.1z"/><path fill-rule="evenodd" fill="#AA953A" d="M-23.1 8.7l.7-2.8-1.5.1-.6.8-2-1.1-3.7-.6-3.2 2.1-.9.3-.9 2.4.9 1.3 1.7-2.6 4-1.5 1.5.2.5 6.4 2.3-.2.1-5z"/><path stroke="#151215" stroke-width=".425" fill="none" d="M-23.1 8.7l.7-2.8-1.5.1-.6.8-2-1.1-3.7-.6-3.2 2.1-.9.3-.9 2.4.9 1.3 1.7-2.6 4-1.5 1.5.2.5 6.4 2.3-.2.1-5z"/></g><g clip-rule="evenodd"><path fill-rule="evenodd" fill="#FFED00" d="M-29.9 20.8l.9-.7.3-1.4.7.5 2.7-.2.4-.8.4.6 1 .2.6-.9-.1-1.3-1.2-.5-.3.8-1.1-1.2-2.8.7-.4 1.5-1.4-.6-.8.7v1.5z"/><path stroke="#151215" stroke-width=".425" fill="none" d="M-29.9 20.8l-1.1-1.1v-1.5l.8-.7 1.4.6.4-1.5 2.8-.7 1.1 1.2.3-.8 1.2.5.1 1.3-.6.9-1-.2-.4-.6-.4.8-2.7.2-.7-.5-.3 1.4z"/><path fill-rule="evenodd" fill="#FFED00" d="M14.4 7.6l1.5.1 1.3-1-.1-.7-.9-.5 1-.8-.3-2.4-1.4-.3.7-1-.7-.7h-2.5l-.5.7 1 1.3 1.2.1-.7.9.2 1.8 1.2.5-1.2.8z"/><path stroke="#151215" stroke-width=".425" fill="none" d="M14.4 7.6l-.2-1.2 1.2-.8-1.2-.5-.2-1.8.7-.9-1.2-.1-1-1.3.5-.7h2.5l.7.7-.7 1 1.4.3.3 2.4-1 .8.9.5.1.7-1.3 1z"/><g fill-rule="evenodd"><path fill="#F3000B" d="M14.8 7.5l1.1.2.9-.8-1.1-.7-.9.7zM15.8 5.1l.8-.7-.3-1.4-1.1-.1-.5.6.3 1.1zM13.4.4l-.1.4.6.8.9-.1.3-.8-.2-.2zM-30.3 20.4l.9-.7v-.9l-.6-.6-1 .7v.8zM-28 18.1l.4.3 1.6-.2.5-.8-.5-.5-1.7.4zM-24 18.4l.8.2.4-.5-.1-.6-.9-.1c-.1 0-.2.2-.3.5l.1.5z"/><path fill="#0075BD" d="M28.2 14.1h1.7l.3-1.5h-1.6z"/></g><path fill-rule="evenodd" fill="#FFED00" d="M-11.5 5.4l.5-.5 1.7.8 1.6-1.1.9.5 4.6-1.3 1.7.7.9-1.3-.5-1.7-1.5-.6-1.2 1.1-4.6-.4-.5.6-2.2-.8-.9 1.1-.7-.7-3.1 1.1-1.6-.7-1 1.1-.2 1.9 1.2 1.1 1.1-.8z"/><path stroke="#151215" stroke-width=".425" fill="none" d="M-11.5 5.4l-3.8.1-1.1.8-1.2-1.1.2-1.9 1-1.1 1.6.7 3.1-1.1.7.7.9-1.1 2.2.8.5-.6 4.6.4 1.2-1.1 1.5.6.5 1.7-.9 1.3-1.7-.7-4.6 1.3-.9-.5-1.6 1.1-1.7-.8z"/><path fill-rule="evenodd" fill="#F3000B" d="M-10.4 4.4l1 .3.9-.4-.1-1.6-1.2-.3-.9.7z"/><path fill-rule="evenodd" fill="#0075BD" d="M-1.8 3.4l1 .4.4-.7-.4-1.1-.8-.2-.5.7zM-16.8 4.9l.5.3.8-.5.1-1.3-.8-.3-.5.5z"/></g><g fill-rule="evenodd" clip-rule="evenodd"><path d="M-6.6 52.9l1.9-.2.7-.8 1.1-.4h-1.3l-.8.7-1.6-.2 2-1.5-1.3.2-.1-.8-.7-.2-.2 1.2-.6-1.4-.1 1.8-1.1.9zM-8.3 46.1l-.6.3 1 .6.7-.7zM-8.8 44.3v.2h1.4l.3-.5-.6.2z"/></g><g clip-rule="evenodd" stroke="#151215" stroke-width=".425" fill="none"><path d="M-23.1 5.9l.5-2.9v-2.7M3.4 38.5l1.4-1.2.3-1.6 2.1-.3M8.6 44.2l.2-3.8-.9-3.6M14.9 39.6l-1.4-2.1 1.2-3.3M12 45.2l1.3-4.6M7.4 50.1l1.9-2.6.3-1.9M-13 59.7l.4 1.4 2.3 1.7"/></g><g fill-rule="evenodd" clip-rule="evenodd" opacity=".5" enable-background="new"><path d="M5 50.7l-.3-1.8.4-2.9-.9-1.3-.7-4.1-.1-1.7-1.7 1.6 1.5 5.6-1.7 5.8-2.4 4.3-.9 3.2 5.9-8.3zM20.8 31.1l-6.5-.2-7.8 1.9 2.7 2.1.8 2.2 1-.7 1.4-3.2 1.8-1.3 2.8.8zM22.4 11.4l-8.4-3.2.6 3.5zM15.8 16.6l5.7-3.8-5.9 1.7zM-5.8 37.6l.3-2.8-1.6-3.4-6.7-8-1.7 1.2.1 6.9zM-30.5 30l4.4-2.3-.3-8.5.3-13 1.5-5.9h-7.9l4.8 20.8-1.4 2.2zM-.8 8.1l.7-1.1.5-.2 1.8-1.5 1.4-.6 1.1.3 1.1-1 2.5-3.5h-7.3l1 2.7-1.1.2-3 4.1zM31.3 2.9l1.3 1.4 3.7-1.4 1.8.8-2.3-2.3-.2-1.1-10.9.2-1.4 3.7h-1.7l-1.2.8 3.6.1 3.2-1.4 2.4 1.3zM4.7 6.8l1.4 1 5.5-3.5 8.8-4.1-7.3-.2-1.4.8-.8 2.8-1.1.3-3.3 3.1z"/></g></symbol><symbol id="b" viewBox="-49 -74 98 148"><path fill="#F0F7E6" d="M48-68.5c0-3-2.5-5.5-5.5-5.5h-86c-3 0-5.5 2.5-5.5 5.5v136c0 3 2.5 5.5 5.5 5.5h86c3 0 5.5-2.5 5.5-5.5v-136z"/><path fill="#000" d="M43 73c2.8 0 5-2.2 5-5v-136c0-2.8-2.2-5-5-5h-86c-2.8 0-5 2.2-5 5v136c0 2.8 2.2 5 5 5h86m0 1h-86c-3.3 0-6-2.7-6-6v-136c0-3.3 2.7-6 6-6h86c3.3 0 6 2.7 6 6v136c0 3.3-2.7 6-6 6z"/></symbol><symbol id="d" viewBox="-3.1 -6.1 6.1 12.2"><path fill-rule="evenodd" clip-rule="evenodd" d="M2.9 3.8c-.1.7-.4 1.2-.9 1.6-.5.5-1.2.7-2.1.7-.9 0-1.5-.2-2-.7-.5-.4-.7-.9-.8-1.6-.1-.7-.2-1.9-.2-3.8s0-3.2.1-3.8c.2-.7.4-1.2.9-1.6.5-.5 1.2-.7 2-.7.9 0 1.6.2 2.1.7.5.4.8.9.9 1.6.1.7.2 1.9.2 3.8s-.1 3.1-.2 3.8zm-1.7-3.7v-2.1c-.1-.9-.3-1.5-.5-1.8-.1-.3-.4-.4-.8-.4-.3 0-.5.1-.7.4-.2.3-.3.9-.3 1.9v4.300000000000001c0 .9.2 1.5.4 1.8.2.3.4.4.7.4.4 0 .6-.1.8-.4.2-.3.4-.9.5-1.8-.1-.3-.1-1-.1-2.3z"/></symbol><symbol id="f" viewBox="-41 -66 82 132"><g><g fill-rule="evenodd" clip-rule="evenodd"><path d="M33 66h-66v-1h66zM33-65h-66v-1h66zM-41 37h1v-88h-1zM41-37h-1v88h1zM40-.5h-80v1h80z"/></g></g></symbol><symbol viewBox="-7.7 -10.4 15.4 20.8"><g clip-rule="evenodd"><path fill-rule="evenodd" fill="#fe0" d="M0-5.9l-.4.2-.6-2.1 1-.9 1 .8-.6 2.1-.4-.1zm3-.3l-1.5.2.9-2.1-1.5-1-.9-1-.9 1-1.5 1 .9 2.1-1.5-.2 3 2.2 3-2.2z"/><path stroke="#222123" stroke-width=".35" d="M3-6.2l-3 2.2-3-2.2 1.5.2-.9-2.1 1.5-1 .9-1 .9 1 1.5 1-.9 2.1 1.5-.2zm-3 .3l.4.2.6-2.2-1-.8-1.1.8.6 2.1.5-.1z" fill="none"/></g><use xlink:href="#a" width="15.4" height="15.4" x="-7.7" y="-7.7" transform="translate(0 2.703)" overflow="visible"/></symbol><symbol id="a" viewBox="-7.7 -7.7 15.4 15.4"><path fill-rule="evenodd" clip-rule="evenodd" fill="#F40D1D" d="M6.8 3.3c.5-1 .7-2.1.7-3.3 0-1.2-.2-2.3-.7-3.3-.4-.8-.9-1.5-1.5-2-1.5-1.5-3.2-2.2-5.3-2.2-2 0-3.8.7-5.3 2.1-.7.8-1.2 1.5-1.5 2.1-.5 1-.8 2.1-.8 3.3 0 1.2.3 2.2.8 3.3.4.8.9 1.5 1.5 2.1 1.5 1.4 3.3 2.1 5.3 2.1s3.8-.7 5.3-2.1c.5-.5 1-1.2 1.5-2.1z"/><g clip-rule="evenodd"><path fill-rule="evenodd" fill="#00AFE7" d="M6.8 3.3c-2.4-.5-4.6-.7-6.8-.7s-4.4.2-6.8.7c.4.8.9 1.5 1.5 2.1 1.9-.7 3.7-1.1 5.3-1.1 1.7 0 3.4.4 5.3 1.1.5-.6 1-1.3 1.5-2.1z"/><path stroke="#222123" stroke-width=".35" d="M6.8 3.3c-.5.8-1 1.5-1.5 2.1-1.9-.7-3.6-1.1-5.3-1.1-1.7 0-3.4.4-5.3 1.1-.6-.6-1.1-1.3-1.5-2.1 2.4-.5 4.7-.7 6.8-.7 2.2 0 4.4.2 6.8.7z" fill="none"/><path fill-rule="evenodd" fill="#00AFE7" d="M6.8-3.3c-.4-.8-.9-1.5-1.5-2-1.9.7-3.6 1-5.2 1-1.8 0-3.5-.4-5.3-1.1-.8.8-1.3 1.5-1.6 2.1 2.4.5 4.6.7 6.8.7s4.4-.2 6.8-.7z"/><path stroke="#222123" stroke-width=".35" d="M6.8-3.3c-2.4.5-4.6.7-6.7.7-2.2 0-4.5-.2-6.8-.7.2-.6.7-1.3 1.4-2.1 1.8.8 3.6 1.1 5.3 1.1 1.6 0 3.4-.4 5.2-1.1.7.6 1.2 1.3 1.6 2.1z" fill="none"/></g><g fill-rule="evenodd" clip-rule="evenodd" fill="#fe0"><path d="M7.2 0l-1 1.3-2-.5 1.1.5-.6 1.3-.8-.5.2-.5-1.9-.4-.5-.7-1.7 1.8-1.9-1.8-.5.6-2 .4.4.6-.8.5-.6-1.2 1.2-.5-2 .5-1-1.3 1-1.2 2 .5-1.2-.5.6-1.3.8.4-.3.5 2 .4.5.6 1.8-1.8 1.8 1.8.5-.6 1.9-.4-.3-.5.8-.5.6 1.3-1.2.4 2-.5 1.1 1.3zM1.6-6.8v1.1l-1.6 1.1-1.6-1 .1-1.1-1.4 1.1-1.5-.5c1.4-1 2.8-1.4 4.4-1.4 1.6 0 3 .5 4.4 1.4l-1.5.5-1.3-1.2zM-1.5 6.6l-.1-1.1 1.6-1 1.6 1v1.1l1.4-1.1 1.5.5c-1.3 1-2.8 1.5-4.5 1.5-1.6 0-3.1-.5-4.5-1.5l1.6-.6 1.4 1.2z"/></g><path clip-rule="evenodd" stroke="#1A1A1A" stroke-width=".35" fill="none" d="M0-7.5v15"/><path fill-rule="evenodd" clip-rule="evenodd" fill-opacity=".149" d="M0 7.5v-15h.1c2 0 3.8.7 5.3 2.1.6.8 1.1 1.5 1.4 2.1.5 1 .8 2.1.8 3.3 0 1.2-.3 2.2-.8 3.3-.4.8-.9 1.5-1.5 2.1-1.5 1.4-3.2 2.1-5.3 2.1z"/><path clip-rule="evenodd" stroke="#222123" stroke-width=".35" d="M6.8 3.3c-.5.8-1 1.5-1.5 2.1-1.5 1.4-3.2 2.1-5.3 2.1-2 0-3.8-.7-5.3-2.1-.6-.6-1.1-1.3-1.5-2.1-.5-1-.8-2.1-.8-3.3 0-1.2.3-2.3.8-3.3.3-.6.8-1.3 1.5-2.1 1.5-1.4 3.3-2.1 5.3-2.1 2.1 0 3.8.7 5.3 2.2.6.6 1.1 1.3 1.5 2 .5 1.1.7 2.2.7 3.3 0 1.1-.2 2.2-.7 3.3z" fill="none"/></symbol><use xlink:href="#b" width="98" height="148" x="-49" y="-74" transform="matrix(1 0 0 -1 50 75)" overflow="visible"/><g><g><use xlink:href="#c" width="10.7" height="10.4" x="-5.4" y="-5.2" transform="matrix(-1 0 0 1 90 122)" overflow="visible"/><use xlink:href="#c" width="10.7" height="10.4" x="-5.4" y="-5.2" transform="matrix(1 0 0 -1 10 28)" overflow="visible"/><use xlink:href="#d" width="6.1" height="12.2" x="-3.1" y="-6.1" transform="matrix(-1 0 0 1 90 136)" overflow="visible"/><use xlink:href="#d" width="6.1" height="12.2" x="-3.1" y="-6.1" transform="matrix(-1 0 0 1 10 136)" overflow="visible"/><use xlink:href="#d" width="6.1" height="12.2" x="-3.1" y="-6.1" transform="matrix(1 0 0 -1 90 14)" overflow="visible"/><use xlink:href="#d" width="6.1" height="12.2" x="-3.1" y="-6.1" transform="matrix(1 0 0 -1 10 14)" overflow="visible"/><use xlink:href="#e" width="74.6" height="63.5" x="-36.3" transform="matrix(-1 0 0 1 50 75)" overflow="visible"/><use xlink:href="#e" width="74.6" height="63.5" x="-36.3" transform="matrix(1 0 0 -1 50 75)" overflow="visible"/><use xlink:href="#f" width="82" height="132" x="-41" y="-66" transform="matrix(1 0 0 -1 50 75)" overflow="visible"/><use xlink:href="#g" width="16.3" height="15.8" x="-8.2" y="-7.9" transform="matrix(-1 0 0 1 75 128.5)" overflow="visible"/><use xlink:href="#g" width="16.3" height="15.8" x="-8.2" y="-7.9" transform="matrix(1 0 0 -1 25 21.5)" overflow="visible"/></g></g></svg>
