<svg xmlns="http://www.w3.org/2000/svg" xmlns:xlink="http://www.w3.org/1999/xlink" viewBox="0 0 100 150" enable-background="new 0 0 100 150"><symbol id="e" viewBox="-2.5 -6 5.1 12"><path fill-rule="evenodd" clip-rule="evenodd" d="M-2.5 6h5v-1.7l-2.8-10.3h-1.9l3.1 10.4h-2v-1.4h-1.4z"/></symbol><symbol viewBox="-4.9 -10.1 9.8 20.2"><path fill-rule="evenodd" clip-rule="evenodd" fill="#009C22" d="M0-1.3c3.1 0 4.7-1.6 4.7-3 0-2.6-2.6-3.9-3.5-4.2-1.1-.4-1.2-1.4-1.2-1.4s-.1 1-1.3 1.5c-.9.3-3.5 1.6-3.5 4.2.1 1.3 1.7 2.9 4.8 2.9z"/><path fill-rule="evenodd" clip-rule="evenodd" fill="#006F20" d="M0-1.3v-8.6s-.1 1-1.3 1.5c-.9.3-3.5 1.6-3.5 4.2.1 1.3 1.7 2.9 4.8 2.9z"/><path fill-rule="evenodd" clip-rule="evenodd" fill="#F40D1D" d="M3.5-2.2h-7v8.7l3.5 3.4 3.5-3.4z"/><path fill-rule="evenodd" clip-rule="evenodd" fill="#AC0019" d="M0-2.2h-3.5v8.7l3.5 3.4z"/><path stroke="#000" stroke-width=".35" stroke-linecap="round" stroke-linejoin="round" stroke-miterlimit="10" fill="none" d="M0-9.9v6.9M0 9.9v-11.8"/><path fill-rule="evenodd" clip-rule="evenodd" fill="#fe0" d="M3.5-1.2v-1.1c-.8-.4-2.1-.7-3.5-.7s-2.7.3-3.5.7v1.1c.8-.4 2-.7 3.5-.7s2.7.3 3.5.7z"/><path clip-rule="evenodd" stroke="#000" stroke-width=".35" stroke-linecap="round" stroke-linejoin="round" stroke-miterlimit="10" d="M-3.5-2.2v8.7l3.5 3.4 3.5-3.5v-8.7c.8-.6 1.3-1.3 1.3-2 0-2.6-2.6-3.9-3.5-4.2-1.2-.4-1.3-1.4-1.3-1.4s-.1 1-1.3 1.5c-.9.3-3.5 1.6-3.5 4.2.1.6.5 1.4 1.3 2z" fill="none"/><path clip-rule="evenodd" stroke="#000" stroke-width=".25" stroke-linecap="round" stroke-miterlimit="10" d="M3.5-2.3c-.8-.4-2.1-.7-3.5-.7s-2.7.3-3.5.7" fill="none"/></symbol><symbol viewBox="-6.7 -8.5 13.4 17"><path fill-rule="evenodd" clip-rule="evenodd" fill="#009915" d="M0 8.3c1.5-1.4 2.4-2.2 2.5-2.5.4-.8.5-1.8.3-3l1.2 1.7.8-1.1c.5-.8.8-1.4.9-1.8.2-.9-.1-2-.9-3.3l1.6.9c.1-2.4-.1-4-.4-4.7-.3-.6-1.1-1-2.3-1.2l1.8-.6c-.8-.7-1.8-1-2.8-1-.1 0-.4.3-1 .8-.4.4-.8.3-1.2-.3h-1c-.4.6-.8.6-1.2.2-.6-.6-.9-.8-1-.8-1 0-2 .4-2.9 1.1l1.8.6c-1.2.2-2 .6-2.3 1.3-.2.5-.4 1.4-.4 2.8v2l1.6-.9c-.8 1.3-1 2.4-.9 3.3.1.4.4 1 .9 1.8.3.4.6.7.8 1.1l1.2-1.7c-.1 1 0 2 .4 2.8.1.3 1 1.1 2.5 2.5z"/><path fill-rule="evenodd" clip-rule="evenodd" fill-opacity=".298" d="M-4.9 3.5c.3.4.6.7.8 1.1l1.2-1.7c-.1 1.1 0 2.1.4 2.9.2.3 1 1.2 2.6 2.5v-16h-.5c-.4.5-.8.6-1.2.2-.6-.5-.9-.8-1-.8-1 0-2 .4-2.9 1.1l1.8.6c-1.2.2-2 .6-2.3 1.3-.3.4-.5 1.3-.5 2.7v2l1.6-.9c-.8 1.3-1 2.4-.9 3.3.1.3.4.9.9 1.7z"/><path clip-rule="evenodd" stroke="#000" stroke-width=".031" stroke-linecap="round" stroke-linejoin="round" stroke-miterlimit="3" d="M-4.9 3.5c-.5-.8-.8-1.4-.9-1.8-.2-.9.1-2 .9-3.3l-1.6.9v-2c0-1.3.2-2.2.4-2.7.4-.7 1.1-1.2 2.3-1.3l-1.8-.6c.9-.7 1.9-1 2.9-1 .1 0 .4.3 1 .8.4.4.8.3 1.2-.2h.5v16c-1.5-1.4-2.4-2.2-2.6-2.5-.3-.8-.4-1.8-.3-3l-1.2 1.7c-.2-.3-.5-.7-.8-1z" fill="none"/><path clip-rule="evenodd" stroke="#151215" stroke-width=".35" d="M0 8.3c-1.5-1.4-2.4-2.2-2.6-2.5-.3-.8-.4-1.8-.3-3l-1.2 1.7c-.2-.3-.5-.7-.8-1.1-.5-.8-.8-1.4-.9-1.8-.2-.9.1-2 .9-3.3l-1.6.9v-2c0-1.2.2-2.1.4-2.6.4-.7 1.1-1.2 2.3-1.3l-1.8-.6c.9-.7 1.9-1 2.9-1 .1 0 .4.3 1 .8.4.4.8.3 1.2-.2h1c.4.6.8.6 1.2.2.6-.6.9-.8 1-.8 1 0 2 .4 2.9 1.1l-1.9.5c1.2.2 2 .6 2.3 1.3.4.7.5 2.3.4 4.7l-1.5-.9c.8 1.3 1 2.4.9 3.3-.1.4-.4 1-.9 1.8l-.8 1-1.3-1.7c.2 1.2.1 2.2-.3 3-.1.3-1 1.1-2.5 2.5z" fill="none"/></symbol><symbol viewBox="-8.2 -7.9 16.3 15.8"><path fill-rule="evenodd" clip-rule="evenodd" fill="#E61616" d="M6.5 6.8c1.1-.8 1.6-2 1.5-3.6-.1-1.6-.7-3-2-4.4-1.2-1.4-3.2-3.5-6-6.4-2.8 2.9-4.8 5.1-6 6.4-1.2 1.4-1.9 2.9-2 4.4-.1 1.6.4 2.8 1.5 3.6 1 .8 2.1 1.1 3.3.8 1.2-.1 2.3-.8 3.2-1.8 1 1 2 1.7 3.2 1.8 1.2.3 2.3 0 3.3-.8z"/><path fill-rule="evenodd" clip-rule="evenodd" fill-opacity=".298" d="M0-7.6v13.4c1 1 2 1.6 3.2 1.8 1.2.2 2.3-.1 3.3-.8 1.1-.8 1.6-2 1.5-3.6-.1-1.6-.7-3-2-4.4-1.2-1.4-3.2-3.5-6-6.4z"/><path clip-rule="evenodd" stroke="#151215" stroke-width=".1" stroke-linecap="round" stroke-linejoin="round" stroke-miterlimit="3" d="M0-7.6c2.8 2.9 4.8 5.1 6 6.4 1.2 1.4 1.9 2.9 2 4.4.1 1.6-.4 2.8-1.5 3.6-1 .8-2.1 1.1-3.3.8-1.2-.2-2.2-.8-3.2-1.8v-13.4z" fill="none"/><path clip-rule="evenodd" stroke="#151215" stroke-width=".35" d="M6.5 6.8c-1 .8-2.1 1.1-3.3.8-1.2-.1-2.2-.8-3.2-1.8-.9 1.1-2 1.7-3.2 1.9-1.2.2-2.3-.1-3.3-.8-1.1-.9-1.6-2.1-1.5-3.7.1-1.6.8-3 2-4.4 1.2-1.4 3.2-3.5 6-6.4 2.8 2.9 4.8 5.1 6 6.4 1.2 1.4 1.9 2.9 2 4.4.1 1.6-.4 2.8-1.5 3.6z" fill="none"/></symbol><symbol id="c" viewBox="-49 -74 98 148"><path fill="#F0F7E6" d="M48-68.5c0-3-2.5-5.5-5.5-5.5h-86c-3 0-5.5 2.5-5.5 5.5v136c0 3 2.5 5.5 5.5 5.5h86c3 0 5.5-2.5 5.5-5.5v-136z"/><path fill="#000" d="M43 73c2.8 0 5-2.2 5-5v-136c0-2.8-2.2-5-5-5h-86c-2.8 0-5 2.2-5 5v136c0 2.8 2.2 5 5 5h86m0 1h-86c-3.3 0-6-2.7-6-6v-136c0-3.3 2.7-6 6-6h86c3.3 0 6 2.7 6 6v136c0 3.3-2.7 6-6 6z"/></symbol><symbol id="g" viewBox="-41 -66 82 132"><g><g fill-rule="evenodd" clip-rule="evenodd"><path d="M33 66h-66v-1h66zM33-65h-66v-1h66zM-41 37h1v-88h-1zM41-37h-1v88h1zM40-.5h-80v1h80z"/></g></g></symbol><symbol id="b" viewBox="-7.7 -10.4 15.4 20.8"><g clip-rule="evenodd"><path fill-rule="evenodd" fill="#fe0" d="M0-5.9l-.4.2-.6-2.1 1-.9 1 .8-.6 2.1-.4-.1zm3-.3l-1.5.2.9-2.1-1.5-1-.9-1-.9 1-1.5 1 .9 2.1-1.5-.2 3 2.2 3-2.2z"/><path stroke="#222123" stroke-width=".35" d="M3-6.2l-3 2.2-3-2.2 1.5.2-.9-2.1 1.5-1 .9-1 .9 1 1.5 1-.9 2.1 1.5-.2zm-3 .3l.4.2.6-2.2-1-.8-1.1.8.6 2.1.5-.1z" fill="none"/></g><use xlink:href="#a" width="15.4" height="15.4" x="-7.7" y="-7.7" transform="translate(0 2.703)" overflow="visible"/></symbol><symbol id="a" viewBox="-7.7 -7.7 15.4 15.4"><path fill-rule="evenodd" clip-rule="evenodd" fill="#F40D1D" d="M6.8 3.3c.5-1 .7-2.1.7-3.3 0-1.2-.2-2.3-.7-3.3-.4-.8-.9-1.5-1.5-2-1.5-1.5-3.2-2.2-5.3-2.2-2 0-3.8.7-5.3 2.1-.7.8-1.2 1.5-1.5 2.1-.5 1-.8 2.1-.8 3.3 0 1.2.3 2.2.8 3.3.4.8.9 1.5 1.5 2.1 1.5 1.4 3.3 2.1 5.3 2.1s3.8-.7 5.3-2.1c.5-.5 1-1.2 1.5-2.1z"/><g clip-rule="evenodd"><path fill-rule="evenodd" fill="#00AFE7" d="M6.8 3.3c-2.4-.5-4.6-.7-6.8-.7s-4.4.2-6.8.7c.4.8.9 1.5 1.5 2.1 1.9-.7 3.7-1.1 5.3-1.1 1.7 0 3.4.4 5.3 1.1.5-.6 1-1.3 1.5-2.1z"/><path stroke="#222123" stroke-width=".35" d="M6.8 3.3c-.5.8-1 1.5-1.5 2.1-1.9-.7-3.6-1.1-5.3-1.1-1.7 0-3.4.4-5.3 1.1-.6-.6-1.1-1.3-1.5-2.1 2.4-.5 4.7-.7 6.8-.7 2.2 0 4.4.2 6.8.7z" fill="none"/><path fill-rule="evenodd" fill="#00AFE7" d="M6.8-3.3c-.4-.8-.9-1.5-1.5-2-1.9.7-3.6 1-5.2 1-1.8 0-3.5-.4-5.3-1.1-.8.8-1.3 1.5-1.6 2.1 2.4.5 4.6.7 6.8.7s4.4-.2 6.8-.7z"/><path stroke="#222123" stroke-width=".35" d="M6.8-3.3c-2.4.5-4.6.7-6.7.7-2.2 0-4.5-.2-6.8-.7.2-.6.7-1.3 1.4-2.1 1.8.8 3.6 1.1 5.3 1.1 1.6 0 3.4-.4 5.2-1.1.7.6 1.2 1.3 1.6 2.1z" fill="none"/></g><g fill-rule="evenodd" clip-rule="evenodd" fill="#fe0"><path d="M7.2 0l-1 1.3-2-.5 1.1.5-.6 1.3-.8-.5.2-.5-1.9-.4-.5-.7-1.7 1.8-1.9-1.8-.5.6-2 .4.4.6-.8.5-.6-1.2 1.2-.5-2 .5-1-1.3 1-1.2 2 .5-1.2-.5.6-1.3.8.4-.3.5 2 .4.5.6 1.8-1.8 1.8 1.8.5-.6 1.9-.4-.3-.5.8-.5.6 1.3-1.2.4 2-.5 1.1 1.3zM1.6-6.8v1.1l-1.6 1.1-1.6-1 .1-1.1-1.4 1.1-1.5-.5c1.4-1 2.8-1.4 4.4-1.4 1.6 0 3 .5 4.4 1.4l-1.5.5-1.3-1.2zM-1.5 6.6l-.1-1.1 1.6-1 1.6 1v1.1l1.4-1.1 1.5.5c-1.3 1-2.8 1.5-4.5 1.5-1.6 0-3.1-.5-4.5-1.5l1.6-.6 1.4 1.2z"/></g><path clip-rule="evenodd" stroke="#1A1A1A" stroke-width=".35" fill="none" d="M0-7.5v15"/><path fill-rule="evenodd" clip-rule="evenodd" fill-opacity=".149" d="M0 7.5v-15h.1c2 0 3.8.7 5.3 2.1.6.8 1.1 1.5 1.4 2.1.5 1 .8 2.1.8 3.3 0 1.2-.3 2.2-.8 3.3-.4.8-.9 1.5-1.5 2.1-1.5 1.4-3.2 2.1-5.3 2.1z"/><path clip-rule="evenodd" stroke="#222123" stroke-width=".35" d="M6.8 3.3c-.5.8-1 1.5-1.5 2.1-1.5 1.4-3.2 2.1-5.3 2.1-2 0-3.8-.7-5.3-2.1-.6-.6-1.1-1.3-1.5-2.1-.5-1-.8-2.1-.8-3.3 0-1.2.3-2.3.8-3.3.3-.6.8-1.3 1.5-2.1 1.5-1.4 3.3-2.1 5.3-2.1 2.1 0 3.8.7 5.3 2.2.6.6 1.1 1.3 1.5 2 .5 1.1.7 2.2.7 3.3 0 1.1-.2 2.2-.7 3.3z" fill="none"/></symbol><symbol id="d" viewBox="-5.1 -5.1 10.3 10.3"><path fill-rule="evenodd" clip-rule="evenodd" fill="#F40D1D" d="M-4.5-2.2c-.3.7-.5 1.4-.5 2.2 0 .8.2 1.5.5 2.2.3.5.6 1 1 1.3 1 1 2.1 1.4 3.5 1.4 1.3 0 2.5-.5 3.5-1.4.5-.5.8-1 1-1.4.3-.6.5-1.3.5-2.1s-.2-1.5-.5-2.2c-.3-.5-.6-1-1-1.4-1-.9-2.2-1.4-3.5-1.4-1.3 0-2.5.5-3.5 1.4-.3.4-.7.9-1 1.4z"/><g fill-rule="evenodd" clip-rule="evenodd" fill="#00AFE7"><path d="M-4.5-2.2c1.6.3 3 .5 4.5.5 1.4 0 2.9-.2 4.5-.5-.3-.5-.6-1-1-1.4-1.3.5-2.4.8-3.5.8s-2.3-.2-3.5-.7c-.3.3-.7.8-1 1.3zM-4.5 2.2c.3.5.6 1 1 1.3 1.2-.5 2.4-.7 3.5-.7 1.2 0 2.3.2 3.5.7.5-.5.8-1 1-1.4-1.6-.2-3.1-.4-4.5-.4s-2.9.2-4.5.5z"/></g><g fill-rule="evenodd" clip-rule="evenodd" fill="#fe0"><path d="M-4.7 0l.7-.8 1.3.3-.7-.4.4-.8.5.4-.2.3 1.3.2.3.4 1.1-1.1 1.2 1.2.3-.4 1.3-.3-.2-.4.5-.4.4.8-.7.4 1.3-.3.7.9-.7.8-1.3-.3.8.4-.4.8-.6-.4.2-.3-1.3-.3-.3-.4-1.2 1.2-1.2-1.2-.3.4-1.2.3.1.3-.5.4-.4-.8.7-.4-1.3.3-.6-.8zM-1 4.4v-.7l1-.7 1.1.7-.1.7.9-.7 1 .3c-.9.6-1.9 1-2.9 1s-2-.3-2.9-.9l1-.3.9.6zM1-4.3l.1.7-1.1.7-1-.7v-.7l-.9.7-1.1-.4c.9-.6 1.9-1 3-1s2.1.3 3 1l-1 .4-1-.7z"/></g><path clip-rule="evenodd" stroke="#222123" stroke-width=".35" d="M-4.5-2.2c.3-.6.6-1 1-1.4 1-.9 2.1-1.4 3.5-1.4 1.3 0 2.5.5 3.5 1.4.4.4.7.8 1 1.4.3.7.5 1.4.5 2.2 0 .8-.2 1.5-.5 2.2-.3.4-.6.8-1 1.3-1 1-2.2 1.5-3.5 1.5-1.4 0-2.5-.5-3.5-1.4-.4-.4-.7-.8-1-1.3-.3-.8-.5-1.6-.5-2.3 0-.8.2-1.5.5-2.2z" fill="none"/><path fill-rule="evenodd" clip-rule="evenodd" fill="#1D1D1B" fill-opacity=".149" d="M.1-5l-.1 9.9h.1c1.3 0 2.5-.5 3.5-1.4.5-.5.8-1 1-1.4.3-.6.4-1.3.4-2.1s-.2-1.5-.5-2.2c-.3-.5-.6-1-1-1.4-.9-.9-2.1-1.4-3.4-1.4z"/><path opacity=".5" fill-rule="evenodd" clip-rule="evenodd" fill="#1D1D1B" fill-opacity=".149" d="M.1-5l-.1 9.9h.1c1.3 0 2.5-.5 3.5-1.4.5-.5.8-1 1-1.4.3-.6.4-1.3.4-2.1s-.2-1.5-.5-2.2c-.3-.5-.6-1-1-1.4-.9-.9-2.1-1.4-3.4-1.4z"/></symbol><symbol id="f" viewBox="-27.7 0 55.4 63.8"><use xlink:href="#a" width="15.4" height="15.4" x="-7.7" y="-7.7" transform="translate(-20 52.904)" overflow="visible"/><use xlink:href="#a" width="15.4" height="15.4" x="-7.7" y="-7.7" transform="translate(-20 32.904)" overflow="visible"/><use xlink:href="#a" width="15.4" height="15.4" x="-7.7" y="-7.7" transform="translate(20 52.904)" overflow="visible"/><use xlink:href="#a" width="15.4" height="15.4" x="-7.7" y="-7.7" transform="translate(20 32.904)" overflow="visible"/><use xlink:href="#b" width="15.4" height="20.8" x="-7.7" y="-10.4" transform="translate(-20 10.404)" overflow="visible"/><use xlink:href="#b" width="15.4" height="20.8" x="-7.7" y="-10.4" transform="translate(20 10.404)" overflow="visible"/><use xlink:href="#b" width="15.4" height="20.8" x="-7.7" y="-10.4" transform="translate(0 53.404)" overflow="visible"/></symbol><use xlink:href="#c" width="98" height="148" x="-49" y="-74" transform="matrix(1 0 0 -1 50 75)" overflow="visible"/><g><g><use xlink:href="#d" width="10.3" height="10.3" x="-5.1" y="-5.1" transform="matrix(-1 0 0 1 90 122)" overflow="visible"/><use xlink:href="#d" width="10.3" height="10.3" x="-5.1" y="-5.1" transform="matrix(1 0 0 -1 10 28)" overflow="visible"/><use xlink:href="#e" width="5.1" height="12" x="-2.5" y="-6" transform="matrix(-1 0 0 1 90 136)" overflow="visible"/><use xlink:href="#e" width="5.1" height="12" x="-2.5" y="-6" transform="matrix(-1 0 0 1 10 136)" overflow="visible"/><use xlink:href="#e" width="5.1" height="12" x="-2.5" y="-6" transform="matrix(1 0 0 -1 90 14)" overflow="visible"/><use xlink:href="#e" width="5.1" height="12" x="-2.5" y="-6" transform="matrix(1 0 0 -1 10 14)" overflow="visible"/><use xlink:href="#f" width="55.4" height="63.8" x="-27.7" transform="matrix(-1 0 0 1 50 75)" overflow="visible"/><use xlink:href="#f" width="55.4" height="63.8" x="-27.7" transform="matrix(1 0 0 -1 50 75)" overflow="visible"/><use xlink:href="#g" width="82" height="132" x="-41" y="-66" transform="matrix(1 0 0 -1 50 75)" overflow="visible"/></g></g></svg>
