<svg xmlns="http://www.w3.org/2000/svg" xmlns:xlink="http://www.w3.org/1999/xlink" viewBox="0 0 100 150" enable-background="new 0 0 100 150"><symbol viewBox="-4.9 -10.1 9.8 20.2"><path fill-rule="evenodd" clip-rule="evenodd" fill="#009C22" d="M0-1.3c3.1 0 4.7-1.6 4.7-3 0-2.6-2.6-3.9-3.5-4.2-1.1-.4-1.2-1.4-1.2-1.4s-.1 1-1.3 1.5c-.9.3-3.5 1.6-3.5 4.2.1 1.3 1.7 2.9 4.8 2.9z"/><path fill-rule="evenodd" clip-rule="evenodd" fill="#006F20" d="M0-1.3v-8.6s-.1 1-1.3 1.5c-.9.3-3.5 1.6-3.5 4.2.1 1.3 1.7 2.9 4.8 2.9z"/><path fill-rule="evenodd" clip-rule="evenodd" fill="#F40D1D" d="M3.5-2.2h-7v8.7l3.5 3.4 3.5-3.4z"/><path fill-rule="evenodd" clip-rule="evenodd" fill="#AC0019" d="M0-2.2h-3.5v8.7l3.5 3.4z"/><path stroke="#000" stroke-width=".35" stroke-linecap="round" stroke-linejoin="round" stroke-miterlimit="10" fill="none" d="M0-9.9v6.9M0 9.9v-11.8"/><path fill-rule="evenodd" clip-rule="evenodd" fill="#fe0" d="M3.5-1.2v-1.1c-.8-.4-2.1-.7-3.5-.7s-2.7.3-3.5.7v1.1c.8-.4 2-.7 3.5-.7s2.7.3 3.5.7z"/><path clip-rule="evenodd" stroke="#000" stroke-width=".35" stroke-linecap="round" stroke-linejoin="round" stroke-miterlimit="10" d="M-3.5-2.2v8.7l3.5 3.4 3.5-3.5v-8.7c.8-.6 1.3-1.3 1.3-2 0-2.6-2.6-3.9-3.5-4.2-1.2-.4-1.3-1.4-1.3-1.4s-.1 1-1.3 1.5c-.9.3-3.5 1.6-3.5 4.2.1.6.5 1.4 1.3 2z" fill="none"/><path clip-rule="evenodd" stroke="#000" stroke-width=".25" stroke-linecap="round" stroke-miterlimit="10" d="M3.5-2.3c-.8-.4-2.1-.7-3.5-.7s-2.7.3-3.5.7" fill="none"/></symbol><symbol viewBox="-6.7 -8.5 13.4 17"><path fill-rule="evenodd" clip-rule="evenodd" fill="#009915" d="M0 8.3c1.5-1.4 2.4-2.2 2.5-2.5.4-.8.5-1.8.3-3l1.2 1.7.8-1.1c.5-.8.8-1.4.9-1.8.2-.9-.1-2-.9-3.3l1.6.9c.1-2.4-.1-4-.4-4.7-.3-.6-1.1-1-2.3-1.2l1.8-.6c-.8-.7-1.8-1-2.8-1-.1 0-.4.3-1 .8-.4.4-.8.3-1.2-.3h-1c-.4.6-.8.6-1.2.2-.6-.6-.9-.8-1-.8-1 0-2 .4-2.9 1.1l1.8.6c-1.2.2-2 .6-2.3 1.3-.2.5-.4 1.4-.4 2.8v2l1.6-.9c-.8 1.3-1 2.4-.9 3.3.1.4.4 1 .9 1.8.3.4.6.7.8 1.1l1.2-1.7c-.1 1 0 2 .4 2.8.1.3 1 1.1 2.5 2.5z"/><path fill-rule="evenodd" clip-rule="evenodd" fill-opacity=".298" d="M-4.9 3.5c.3.4.6.7.8 1.1l1.2-1.7c-.1 1.1 0 2.1.4 2.9.2.3 1 1.2 2.6 2.5v-16h-.5c-.4.5-.8.6-1.2.2-.6-.5-.9-.8-1-.8-1 0-2 .4-2.9 1.1l1.8.6c-1.2.2-2 .6-2.3 1.3-.3.4-.5 1.3-.5 2.7v2l1.6-.9c-.8 1.3-1 2.4-.9 3.3.1.3.4.9.9 1.7z"/><path clip-rule="evenodd" stroke="#000" stroke-width=".031" stroke-linecap="round" stroke-linejoin="round" stroke-miterlimit="3" d="M-4.9 3.5c-.5-.8-.8-1.4-.9-1.8-.2-.9.1-2 .9-3.3l-1.6.9v-2c0-1.3.2-2.2.4-2.7.4-.7 1.1-1.2 2.3-1.3l-1.8-.6c.9-.7 1.9-1 2.9-1 .1 0 .4.3 1 .8.4.4.8.3 1.2-.2h.5v16c-1.5-1.4-2.4-2.2-2.6-2.5-.3-.8-.4-1.8-.3-3l-1.2 1.7c-.2-.3-.5-.7-.8-1z" fill="none"/><path clip-rule="evenodd" stroke="#151215" stroke-width=".35" d="M0 8.3c-1.5-1.4-2.4-2.2-2.6-2.5-.3-.8-.4-1.8-.3-3l-1.2 1.7c-.2-.3-.5-.7-.8-1.1-.5-.8-.8-1.4-.9-1.8-.2-.9.1-2 .9-3.3l-1.6.9v-2c0-1.2.2-2.1.4-2.6.4-.7 1.1-1.2 2.3-1.3l-1.8-.6c.9-.7 1.9-1 2.9-1 .1 0 .4.3 1 .8.4.4.8.3 1.2-.2h1c.4.6.8.6 1.2.2.6-.6.9-.8 1-.8 1 0 2 .4 2.9 1.1l-1.9.5c1.2.2 2 .6 2.3 1.3.4.7.5 2.3.4 4.7l-1.5-.9c.8 1.3 1 2.4.9 3.3-.1.4-.4 1-.9 1.8l-.8 1-1.3-1.7c.2 1.2.1 2.2-.3 3-.1.3-1 1.1-2.5 2.5z" fill="none"/></symbol><symbol viewBox="-8.2 -7.9 16.3 15.8"><path fill-rule="evenodd" clip-rule="evenodd" fill="#E61616" d="M6.5 6.8c1.1-.8 1.6-2 1.5-3.6-.1-1.6-.7-3-2-4.4-1.2-1.4-3.2-3.5-6-6.4-2.8 2.9-4.8 5.1-6 6.4-1.2 1.4-1.9 2.9-2 4.4-.1 1.6.4 2.8 1.5 3.6 1 .8 2.1 1.1 3.3.8 1.2-.1 2.3-.8 3.2-1.8 1 1 2 1.7 3.2 1.8 1.2.3 2.3 0 3.3-.8z"/><path fill-rule="evenodd" clip-rule="evenodd" fill-opacity=".298" d="M0-7.6v13.4c1 1 2 1.6 3.2 1.8 1.2.2 2.3-.1 3.3-.8 1.1-.8 1.6-2 1.5-3.6-.1-1.6-.7-3-2-4.4-1.2-1.4-3.2-3.5-6-6.4z"/><path clip-rule="evenodd" stroke="#151215" stroke-width=".1" stroke-linecap="round" stroke-linejoin="round" stroke-miterlimit="3" d="M0-7.6c2.8 2.9 4.8 5.1 6 6.4 1.2 1.4 1.9 2.9 2 4.4.1 1.6-.4 2.8-1.5 3.6-1 .8-2.1 1.1-3.3.8-1.2-.2-2.2-.8-3.2-1.8v-13.4z" fill="none"/><path clip-rule="evenodd" stroke="#151215" stroke-width=".35" d="M6.5 6.8c-1 .8-2.1 1.1-3.3.8-1.2-.1-2.2-.8-3.2-1.8-.9 1.1-2 1.7-3.2 1.9-1.2.2-2.3-.1-3.3-.8-1.1-.9-1.6-2.1-1.5-3.7.1-1.6.8-3 2-4.4 1.2-1.4 3.2-3.5 6-6.4 2.8 2.9 4.8 5.1 6 6.4 1.2 1.4 1.9 2.9 2 4.4.1 1.6-.4 2.8-1.5 3.6z" fill="none"/></symbol><symbol id="d" viewBox="-3.2 -6 6.5 12.1"><path fill-rule="evenodd" clip-rule="evenodd" d="M2.8 6l-2.4-4.8 2.8-7.2h-1.8l-2 5.4-.9-1.7v-3.7h-1.7v12h1.7v-5.5l2.6 5.5h1.7z"/></symbol><symbol id="b" viewBox="-49 -74 98 148"><path fill="#F0F7E6" d="M48-68.5c0-3-2.5-5.5-5.5-5.5h-86c-3 0-5.5 2.5-5.5 5.5v136c0 3 2.5 5.5 5.5 5.5h86c3 0 5.5-2.5 5.5-5.5v-136z"/><path fill="#000" d="M43 73c2.8 0 5-2.2 5-5v-136c0-2.8-2.2-5-5-5h-86c-2.8 0-5 2.2-5 5v136c0 2.8 2.2 5 5 5h86m0 1h-86c-3.3 0-6-2.7-6-6v-136c0-3.3 2.7-6 6-6h86c3.3 0 6 2.7 6 6v136c0 3.3-2.7 6-6 6z"/></symbol><symbol id="f" viewBox="-41 -66 82 132"><g><g fill-rule="evenodd" clip-rule="evenodd"><path d="M33 66h-66v-1h66zM33-65h-66v-1h66zM-41 37h1v-88h-1zM41-37h-1v88h1zM40-.5h-80v1h80z"/></g></g></symbol><symbol id="g" viewBox="-7.7 -10.4 15.4 20.8"><g clip-rule="evenodd"><path fill-rule="evenodd" fill="#fe0" d="M0-5.9l-.4.2-.6-2.1 1-.9 1 .8-.6 2.1-.4-.1zm3-.3l-1.5.2.9-2.1-1.5-1-.9-1-.9 1-1.5 1 .9 2.1-1.5-.2 3 2.2 3-2.2z"/><path stroke="#222123" stroke-width=".35" d="M3-6.2l-3 2.2-3-2.2 1.5.2-.9-2.1 1.5-1 .9-1 .9 1 1.5 1-.9 2.1 1.5-.2zm-3 .3l.4.2.6-2.2-1-.8-1.1.8.6 2.1.5-.1z" fill="none"/></g><use xlink:href="#a" width="15.4" height="15.4" x="-7.7" y="-7.7" transform="translate(0 2.703)" overflow="visible"/></symbol><symbol id="a" viewBox="-7.7 -7.7 15.4 15.4"><path fill-rule="evenodd" clip-rule="evenodd" fill="#F40D1D" d="M6.8 3.3c.5-1 .7-2.1.7-3.3 0-1.2-.2-2.3-.7-3.3-.4-.8-.9-1.5-1.5-2-1.5-1.5-3.2-2.2-5.3-2.2-2 0-3.8.7-5.3 2.1-.7.8-1.2 1.5-1.5 2.1-.5 1-.8 2.1-.8 3.3 0 1.2.3 2.2.8 3.3.4.8.9 1.5 1.5 2.1 1.5 1.4 3.3 2.1 5.3 2.1s3.8-.7 5.3-2.1c.5-.5 1-1.2 1.5-2.1z"/><g clip-rule="evenodd"><path fill-rule="evenodd" fill="#00AFE7" d="M6.8 3.3c-2.4-.5-4.6-.7-6.8-.7s-4.4.2-6.8.7c.4.8.9 1.5 1.5 2.1 1.9-.7 3.7-1.1 5.3-1.1 1.7 0 3.4.4 5.3 1.1.5-.6 1-1.3 1.5-2.1z"/><path stroke="#222123" stroke-width=".35" d="M6.8 3.3c-.5.8-1 1.5-1.5 2.1-1.9-.7-3.6-1.1-5.3-1.1-1.7 0-3.4.4-5.3 1.1-.6-.6-1.1-1.3-1.5-2.1 2.4-.5 4.7-.7 6.8-.7 2.2 0 4.4.2 6.8.7z" fill="none"/><path fill-rule="evenodd" fill="#00AFE7" d="M6.8-3.3c-.4-.8-.9-1.5-1.5-2-1.9.7-3.6 1-5.2 1-1.8 0-3.5-.4-5.3-1.1-.8.8-1.3 1.5-1.6 2.1 2.4.5 4.6.7 6.8.7s4.4-.2 6.8-.7z"/><path stroke="#222123" stroke-width=".35" d="M6.8-3.3c-2.4.5-4.6.7-6.7.7-2.2 0-4.5-.2-6.8-.7.2-.6.7-1.3 1.4-2.1 1.8.8 3.6 1.1 5.3 1.1 1.6 0 3.4-.4 5.2-1.1.7.6 1.2 1.3 1.6 2.1z" fill="none"/></g><g fill-rule="evenodd" clip-rule="evenodd" fill="#fe0"><path d="M7.2 0l-1 1.3-2-.5 1.1.5-.6 1.3-.8-.5.2-.5-1.9-.4-.5-.7-1.7 1.8-1.9-1.8-.5.6-2 .4.4.6-.8.5-.6-1.2 1.2-.5-2 .5-1-1.3 1-1.2 2 .5-1.2-.5.6-1.3.8.4-.3.5 2 .4.5.6 1.8-1.8 1.8 1.8.5-.6 1.9-.4-.3-.5.8-.5.6 1.3-1.2.4 2-.5 1.1 1.3zM1.6-6.8v1.1l-1.6 1.1-1.6-1 .1-1.1-1.4 1.1-1.5-.5c1.4-1 2.8-1.4 4.4-1.4 1.6 0 3 .5 4.4 1.4l-1.5.5-1.3-1.2zM-1.5 6.6l-.1-1.1 1.6-1 1.6 1v1.1l1.4-1.1 1.5.5c-1.3 1-2.8 1.5-4.5 1.5-1.6 0-3.1-.5-4.5-1.5l1.6-.6 1.4 1.2z"/></g><path clip-rule="evenodd" stroke="#1A1A1A" stroke-width=".35" fill="none" d="M0-7.5v15"/><path fill-rule="evenodd" clip-rule="evenodd" fill-opacity=".149" d="M0 7.5v-15h.1c2 0 3.8.7 5.3 2.1.6.8 1.1 1.5 1.4 2.1.5 1 .8 2.1.8 3.3 0 1.2-.3 2.2-.8 3.3-.4.8-.9 1.5-1.5 2.1-1.5 1.4-3.2 2.1-5.3 2.1z"/><path clip-rule="evenodd" stroke="#222123" stroke-width=".35" d="M6.8 3.3c-.5.8-1 1.5-1.5 2.1-1.5 1.4-3.2 2.1-5.3 2.1-2 0-3.8-.7-5.3-2.1-.6-.6-1.1-1.3-1.5-2.1-.5-1-.8-2.1-.8-3.3 0-1.2.3-2.3.8-3.3.3-.6.8-1.3 1.5-2.1 1.5-1.4 3.3-2.1 5.3-2.1 2.1 0 3.8.7 5.3 2.2.6.6 1.1 1.3 1.5 2 .5 1.1.7 2.2.7 3.3 0 1.1-.2 2.2-.7 3.3z" fill="none"/></symbol><symbol id="c" viewBox="-5.1 -5.1 10.3 10.3"><path fill-rule="evenodd" clip-rule="evenodd" fill="#F40D1D" d="M-4.5-2.2c-.3.7-.5 1.4-.5 2.2 0 .8.2 1.5.5 2.2.3.5.6 1 1 1.3 1 1 2.1 1.4 3.5 1.4 1.3 0 2.5-.5 3.5-1.4.5-.5.8-1 1-1.4.3-.6.5-1.3.5-2.1s-.2-1.5-.5-2.2c-.3-.5-.6-1-1-1.4-1-.9-2.2-1.4-3.5-1.4-1.3 0-2.5.5-3.5 1.4-.3.4-.7.9-1 1.4z"/><g fill-rule="evenodd" clip-rule="evenodd" fill="#00AFE7"><path d="M-4.5-2.2c1.6.3 3 .5 4.5.5 1.4 0 2.9-.2 4.5-.5-.3-.5-.6-1-1-1.4-1.3.5-2.4.8-3.5.8s-2.3-.2-3.5-.7c-.3.3-.7.8-1 1.3zM-4.5 2.2c.3.5.6 1 1 1.3 1.2-.5 2.4-.7 3.5-.7 1.2 0 2.3.2 3.5.7.5-.5.8-1 1-1.4-1.6-.2-3.1-.4-4.5-.4s-2.9.2-4.5.5z"/></g><g fill-rule="evenodd" clip-rule="evenodd" fill="#fe0"><path d="M-4.7 0l.7-.8 1.3.3-.7-.4.4-.8.5.4-.2.3 1.3.2.3.4 1.1-1.1 1.2 1.2.3-.4 1.3-.3-.2-.4.5-.4.4.8-.7.4 1.3-.3.7.9-.7.8-1.3-.3.8.4-.4.8-.6-.4.2-.3-1.3-.3-.3-.4-1.2 1.2-1.2-1.2-.3.4-1.2.3.1.3-.5.4-.4-.8.7-.4-1.3.3-.6-.8zM-1 4.4v-.7l1-.7 1.1.7-.1.7.9-.7 1 .3c-.9.6-1.9 1-2.9 1s-2-.3-2.9-.9l1-.3.9.6zM1-4.3l.1.7-1.1.7-1-.7v-.7l-.9.7-1.1-.4c.9-.6 1.9-1 3-1s2.1.3 3 1l-1 .4-1-.7z"/></g><path clip-rule="evenodd" stroke="#222123" stroke-width=".35" d="M-4.5-2.2c.3-.6.6-1 1-1.4 1-.9 2.1-1.4 3.5-1.4 1.3 0 2.5.5 3.5 1.4.4.4.7.8 1 1.4.3.7.5 1.4.5 2.2 0 .8-.2 1.5-.5 2.2-.3.4-.6.8-1 1.3-1 1-2.2 1.5-3.5 1.5-1.4 0-2.5-.5-3.5-1.4-.4-.4-.7-.8-1-1.3-.3-.8-.5-1.6-.5-2.3 0-.8.2-1.5.5-2.2z" fill="none"/><path fill-rule="evenodd" clip-rule="evenodd" fill="#1D1D1B" fill-opacity=".149" d="M.1-5l-.1 9.9h.1c1.3 0 2.5-.5 3.5-1.4.5-.5.8-1 1-1.4.3-.6.4-1.3.4-2.1s-.2-1.5-.5-2.2c-.3-.5-.6-1-1-1.4-.9-.9-2.1-1.4-3.4-1.4z"/><path opacity=".5" fill-rule="evenodd" clip-rule="evenodd" fill="#1D1D1B" fill-opacity=".149" d="M.1-5l-.1 9.9h.1c1.3 0 2.5-.5 3.5-1.4.5-.5.8-1 1-1.4.3-.6.4-1.3.4-2.1s-.2-1.5-.5-2.2c-.3-.5-.6-1-1-1.4-.9-.9-2.1-1.4-3.4-1.4z"/></symbol><symbol id="e" viewBox="-37 -0.5 74 64.7"><g clip-rule="evenodd"><path fill-rule="evenodd" fill="#FAE900" d="M27.4 23.8l4.3-7.3 3.6-9 1.4-7.8-73.5.7v5l1.8 7.7h1.7l1.8 4.1 54 12.9z"/><path stroke="#151215" stroke-width=".425" fill="none" d="M27.4 23.8l4.3-7.3 3.6-9 1.4-7.8-73.5.7v5l1.8 7.7h1.7l1.8 4.1 54 12.9z"/><g fill-rule="evenodd" fill="#F3000B"><path d="M4.5 28l-.3-2.3-.5-.1zM8.8 28l.4-1.1-.2-.1zM14.9 28.8l3 .2-2.6-.7zM-36.8.4v.2l.4-.2zM-14.3 21.3l.1-.2-.4.1zM-35.2 12.1v-.3l-.1-.1zM-28.9 17.8h.1l-3-1.2.3.6zM-28.7 1.4l-2.7-1h-5l-.4.2v4.1l1.3 3.8-.7-6.4 1.9-.7-.8 1.6 1.5 6.3 2.3-6.6-1-1.2 2.1.4-1 6.6zM-25.1 9.3l3.2.1-1.3-1.3 2-.1 2.5-1.6-2-6.1h-.3l.6 5.3-1.9.7.8-1.6-1-4.4h-1.2l-1.6 4.7 1 1.2-2.1-.4.8-5.5h-.2l-2.1 6 4.1 1.6zM-11.3.2h-4.8l-1.6 1 2.4 7.1-.7-6.3 1.9-.7-.8 1.5 1.5 6.4 2.3-6.6-1-1.2 2.2.4-1 6.5 2.4-7zM-4.9 9.1l3.2.2-1.2-1.4h1.9l2.5-1.7-2-6.1h-.2l.5 5.4-1.9.6.9-1.5-1.1-4.5h-1.1l-1.7 4.8 1 1.2-2.1-.4.9-5.6h-.3l-2.1 6 4.1 1.7zM8.4 0l-4.5.1-1.6 1 2.3 7.1-.7-6.3 1.9-.7-.8 1.5 1.5 6.4 2.3-6.6-1-1.2 2.2.3-1 6.6 2.4-7zM18.9 7.7l2.5-1.6-2.1-6.2h-.1l.5 5.5-1.9.7.9-1.6-1.1-4.6h-1.1l-1.7 4.8 1 1.3-2.1-.4.8-5.6h-.2l-2.1 6.1 4.1 1.5-1.3 1.5 3.2.1-1.2-1.4zM27-.2l-2.9.1-2.3 1.4 2.4 7.2-.7-6.4 1.9-.7-.9 1.6 1.6 6.3 2.2-6.6-1-1.2 2.2.4-1 6.6 2.5-7.1zM36.2-.2l-1.8 5.2 1 1.2-2.2-.4 1-6h-.2l-2.2 6.5 3.4 1.3 1.5-7.9zM-34.3 13.1l.6-1.8-1.9-.7.3 1.1.1.1v.3l.2 1zM-26.2 17.9l2.5-1.7-2.4-7.1.7 6.4-1.9.6.8-1.5-1.5-6.3-2.3 6.6 1 1.2-2.1-.4 1-6.6-2.1 5.9.7 1.6 3 1.2h-.1l.8.2-.1-.1zM-14.9 11.6l-1 6.6 2.4-7-4-1.6 1.3-1.4-3.2-.1 1.2 1.3-1.9.1-2.6 1.6 2.4 7.1-.7-6.3 1.9-.7-.8 1.5 1.5 6.4 2.3-6.6-1-1.2zM-7.9 17.8l1.9-.1 2.5-1.6-2.3-7.1.6 6.4-1.9.7.9-1.6-1.5-6.4-2.4 6.6 1 1.3-2.1-.4 1-6.6-2.5 7.1 4.1 1.5-1.3 1.5 3.2.1zM-.2 9.4l-2.5 1.6 2.3 7.1-.7-6.3 1.9-.7-.8 1.5 1.5 6.4 2.3-6.6-1-1.3 2.2.5-1 6.5 2.4-7-4.1-1.6 1.4-1.4-3.3-.2 1.3 1.4zM13.9 17.6l2.5-1.6-2.4-7.1.7 6.3-1.9.7.9-1.5-1.6-6.3-2.3 6.5 1 1.3-2.1-.4 1-6.6-2.5 7 4.1 1.7-1.3 1.3 3.2.2-1.2-1.4zM20 8.1l1.2 1.5h-1.9l-2.5 1.6 2.4 7.1-.7-6.3 1.9-.7-.9 1.5 1.6 6.4 2.2-6.6-1-1.2 2.2.4-1 6.5 2.5-7-4.1-1.6 1.3-1.4zM30.4 16.1l-2.2-.4 1-6.6-2.4 7 4 1.7-1.3 1.3.6.1 1.6-2.7 1.2-3-1.2-5.2-2.3 6.6zM33.6 9.1l.2 2.1.3-.6zM-21.1 19.7h.2l-.3-.7zM-22.8 19.3l-.3-1.2-.3 1zM-14.6 21.2l.4-.1-.1.2 2.8.7-.7-.9 2.2.5-.2.7 1.1.3.5-1.5-4.1-1.6 1.4-1.4-3.3-.2 1.3 1.4-1.9.1-2 1.2zM-1 18.9l.7 5.7 1.4.4zM-6.8 23.1l.8.2.7-4.4zM-4.8 23.6l3.5.8-1.6-6.3zM5.7 26.1l1.5.3 1.5-4.1-1-1.2 2.1.3-.8 5.4.2.1 2.1-5.9-4.1-1.6 1.3-1.4-3.2-.2 1.3 1.4-1.9.1-2.6 1.6 1.6 4.7.5.1-.4-4.1 1.9-.6-.8 1.5zM12.1 25.8l4.1 1.6-.9.9 2.6.7h.2l-1.3-1.4 2-.1 2.5-1.6-2.4-7.1.7 6.3-1.9.7.8-1.5-1.5-6.4-2.3 6.6 1 1.2-2.1-.3 1-6.6zM24.2 19.5l-2.5 1.6 2.3 7-.7-6.2 1.9-.7-.8 1.5.9 3.8 2.1-2.7.8-1.4-1-1.1 1.5.2.6-.9-2.5-1 1.3-1.4-3.2-.1 1.2 1.3z"/></g><path fill-rule="evenodd" fill="#00ADE5" d="M5.2 34.4l7.9-6.6-15.8-27.5-9-.1-.5 6-7 7.9-2.1 4.5-.4 10.4 10.6 8.2 6.9-5.8z"/><path stroke="#151215" stroke-width=".425" fill="none" d="M5.2 34.4l-9.4-3-6.9 5.8-10.6-8.2.4-10.4 2.1-4.5 7-7.9.5-6 9 .1 15.8 27.5z"/><path fill-rule="evenodd" fill="#F3000B" d="M-11 34.2l2.2-.5-1.7-6.5-1.3-10.1 1.2-14.2-1.1-.5-2.3 10.5v13.4z"/><path stroke="#151215" stroke-width=".425" fill="none" d="M-11 34.2l-3-7.9v-13.4l2.3-10.5 1.1.5-1.2 14.2 1.3 10.1 1.7 6.5z"/><path fill-rule="evenodd" fill="#F3000B" d="M4.8 31.3l4.4-1.6-5.5-10.8-8.7-18.5h-1.2l3.2 10.2z"/><path stroke="#151215" stroke-width=".425" fill="none" d="M4.8 31.3l-7.8-20.7-3.2-10.2h1.2l8.7 18.5 5.5 10.8z"/><path fill-rule="evenodd" fill="#fff" d="M1 33l-6.9.4-1.2.6.9 2 1-1.8 3.1-.5 1.9.6 2.9 2 .9-2.4z"/><path stroke="#151215" stroke-width=".425" fill="none" d="M1 33l-6.9.4-1.2.6.9 2 1-1.8 3.1-.5 1.9.6 2.9 2 .9-2.4z"/><path fill-rule="evenodd" fill="#fff" d="M1.5 22.9l-2.8-2.1.5-2.2-.7-1.4v-1.9l-3-6.1-6.8-2.9-.9 5.2.1 5.2-.3 1.1.9 1.7-.5 1.7 2.6 2.6-1.2.7-.2 5.6 1.1.6 1.8 2.4 1.1.5.4.5h5.5l.3-.4.8.1.8-.9.9-.5.3-1.9 1.7-.2-.5-1.6-2.6-3.1 1.3-.7z"/><path stroke="#151215" stroke-width=".425" fill="none" d="M1.5 22.9l-2.8-2.1.5-2.2-.7-1.4v-1.9l-3-6.1-6.8-2.9-.9 5.2.1 5.2-.3 1.1.9 1.7-.5 1.7 2.6 2.6-1.2.7-.2 5.6 1.1.6 1.8 2.4 1.1.5.4.5h5.5l.3-.4.8.1.8-.9.9-.5.3-1.9 1.7-.2-.5-1.6-2.6-3.1 1.3-.7z"/><path fill-rule="evenodd" fill="#FBF8C7" d="M13.3 36.9l8.5-4.2 1.9-.5v-1.1l2.8-2.2v-3.6l-3 3.7-5.5-8.3-2.9-2.7-4.8-3.1-1.8-2.8-3.7-8.9-7.8-3.1 1.6 12.2 3.8 9.1z"/><path stroke="#151215" stroke-width=".425" fill="none" d="M13.3 36.9l8.5-4.2 1.9-.5v-1.1l2.8-2.2v-3.6l-3 3.7-5.5-8.3-2.9-2.7-4.8-3.1-1.8-2.8-3.7-8.9-7.8-3.1 1.6 12.2 3.8 9.1z"/><path fill-rule="evenodd" fill="#FBF8C7" d="M-28.7 26.2l4.1 3.9.9 1 2.4 1.6 2.3 2.2.2 1 5.8.7v-1.7l-5.5-8-1-5.8 1.5-4-.6-3.5 5.6-3 3.3-.9 2.2-5.3v-2.5l-.4-1.7h-8.5l.8 1.9.1 6-3 3.6-.5 1.3h-3.9l-7.4 1.9-2.3 2.7-.7 1.4 1.5 1.2 2.7 4.6z"/><path stroke="#151215" stroke-width=".425" fill="none" d="M-28.7 26.2l-.4-1.4-2.7-4.6-1.5-1.2.7-1.4 2.3-2.7 7.4-1.9h3.9l.5-1.3 3-3.6-.1-6-.8-1.9h8.5l.4 1.7v2.5l-2.2 5.3-3.3.9-5.6 3 .6 3.5-1.5 4 1 5.8 5.5 8v1.7l-5.8-.7-.2-1-2.3-2.2-2.4-1.6-.9-1z"/><path fill-rule="evenodd" fill="#fff" d="M-9.4 45.8l2.3 4.9.5-14.9-.7-2-1.6-.2.2-.6-.8-1.9-1.5-.6-.7 1.8-1.6-.2-1.4-2.3-1.6-.8-1 .1-2.2-2.4-1.8 1.6 1 1 1.2 3.3-.3 2 .2 1.2 2.5.1 3.1 2 .4.8.9 1.6h.4l1.6 1.5z"/><path stroke="#151215" stroke-width=".425" fill="none" d="M-9.4 45.8l-.9-4-1.6-1.5h-.4l-.9-1.6-.4-.8-3.1-2-2.5-.1-.2-1.2.3-2-1.2-3.3-1-1 1.8-1.6 2.2 2.4 1-.1 1.6.8 1.4 2.3 1.6.2.7-1.8 1.5.6.8 1.9-.2.6 1.6.2.7 2-.5 14.9z"/><path fill-rule="evenodd" fill="#E1E18C" d="M5.7 38.5l-5.7-4.2-2.2-.6-2.9.4-1.7 3.3-.7.9-.8 2.9.1 6.4 2 4.7h10.1z"/><path stroke="#151215" stroke-width=".425" fill="none" d="M5.7 38.5l-1.8 13.8h-10.1l-2-4.7-.1-6.4.8-2.9.7-.9 1.7-3.3 2.9-.4 2.2.6z"/><path fill-rule="evenodd" fill="#fff" d="M3.4 44.4l-.5 5.5 2.8 1.3 4.3-5.6-.3-1 1.5-2 .1-1.1 2-2.2.1-1 5-2.1.5-1.6 1-.1.8-1.3-.7-1.4-2 1 2-5.4-1.3-.5-1.2.5-.2 1.7-2.7 3.2-1.1-2.9-1.1-1.4-1.8 1.4-.3-1.1.7-.8.6-1.9-1.6-1.6-.6.2-.6 1.8-1.5 2.7h-1.2l-.5 1.2-2.1 2.1v2l-.7 2.3v3z"/><path stroke="#151215" stroke-width=".425" fill="none" d="M3.4 44.4l-.6-5.1v-3l.7-2.3v-2l2.1-2.1.5-1.2h1.2l1.5-2.7.6-1.8.6-.2 1.6 1.6-.6 1.9-.7.8.3 1.1 1.8-1.4 1.1 1.4 1.1 2.9 2.7-3.2.2-1.7 1.2-.5 1.3.5-2 5.4 2-1 .7 1.4-.8 1.3-1 .1-.5 1.6-5 2.1-.1 1-2 2.2-.1 1.1-1.5 2 .3 1-4.3 5.6-2.8-1.3z"/><path fill-rule="evenodd" fill="#FAE900" d="M9.8 55.8l1-1.3-.5-3-.7-.5-1.4-2.2.1-1.1-4.2 1.8-4.2.7-4.4.1-3.4-.7-.2.8.4.4-.2 2.7-.8 1 1.2 3.4 1 .6.7.9 2.5-.2.9-.4.8 1.1h1.7l.5.7.9.3.8.4.5 1.1-1.1-.2.2 1.2 1-.3-.1.9h1.6l-.3-.8 1-.1-.5-1.1h-.7l-.1-1 .2-.3.1-1 .7-.9 2.5-.8.2-1.3z"/><path stroke="#151215" stroke-width=".425" fill="none" d="M9.8 55.8l-2.3.9-.2 1.3-2.5.8-.7.9-.1 1-.2.3.1 1h.7l.5 1.1-1 .1.3.8h-1.6l.1-.9-1 .3-.2-1.2 1.1.2-.5-1.1-.8-.4-.9-.3-.5-.7h-1.7l-.8-1.1-.9.4-2.5.2-.7-.9-1-.6-1.2-3.4.8-1 .2-2.7-.4-.4.2-.8 3.4.7 4.4-.1 4.2-.7 4.2-1.8-.1 1.1 1.4 2.2.7.5.5 3z"/><path fill-rule="evenodd" fill="#00ADE5" d="M-5.8 55.6l.9 1.8 1.1.8 1.2-.3-.5-1.6 1-.5-.4-1.4-1.4-.4 1 1.2-1.1 1.3-1.4-1.1.5-1.6-1.7.9z"/><path stroke="#151215" stroke-width=".425" fill="none" d="M-5.8 55.6l-.8-.9 1.7-.9-.5 1.6 1.4 1.1 1.1-1.3-1-1.2 1.4.4.4 1.4-1 .5.5 1.6-1.2.3-1.1-.8z"/><path fill-rule="evenodd" fill="#00ADE5" d="M3.7 57.4l-.3-1.4.5-.9-.7-1.4-.6.2.8.8-1.4 2-1.1-1.8.3-.8-1.8.3.1 1.2.8.4 1 2z"/><path stroke="#151215" stroke-width=".425" fill="none" d="M3.7 57.4l-2.4.6-1-2-.8-.4-.1-1.2 1.8-.3-.3.8 1.1 1.8 1.4-2-.8-.8.6-.2.7 1.4-.5.9z"/><path fill-rule="evenodd" fill="#00ADE5" d="M7.2 56l1.7-.9-.2-.9.2-1.2-.2-1.3-1.3.4.9.4-.1 2.1-1.7-.8v-1.3l-.8 1.3 1.2 1z"/><path stroke="#151215" stroke-width=".425" fill="none" d="M7.2 56l1.7-.9-.2-.9.2-1.2-.2-1.3-1.3.4.9.4-.1 2.1-1.7-.8v-1.3l-.8 1.3 1.2 1z"/><g fill-rule="evenodd" fill="#F3000B"><path d="M-1.7 51.6l-1.1 1.5 1.2 1.4 1.1-1.7zM1 60.6l.8.5 2.1-.4.2-.9zM-7.5 51.1l-.4 1.3.5 1.5 1.2-1.7zM-7.6 54.7l-.9 1.1.5 1.4 1.2-1.5zM3.8 50.5l-.7 1.7 1.3.8.6-1.2zM8.3 48.8l-.6 1.3 1.3.8.4-1.5zM9.9 51.7l-.6 1.3 1.3.8.1-1.3zM-.9 58l.9-1.3-1.2-1.2-1.1 1.5zM4.7 53.5l-.9 2.4 1.3.9 1.1-1.7z"/></g><g fill-rule="evenodd"><path d="M-7.3 49.4l1.5-.4.6-1.6-.4-1.3-.1-2.6 1.5.1 1-.9-2.5.1-.5.4.3 2.4-.8-.1.7.5.3.6h-.5v-.3h-.9v-.6l-.6 1.3.5 1.1.5.1-.1-.9h1.2l-.6 1.5-.8.1-.7-.5zM1.2 48l-.4-.1-2.3.8-1.1-.4-.3-1h1.3l1.5-.4-.6 1.1 1.3-1.4-.8-.8v.6l-1.4.3-.1-.3h-1l-.3-.6-.7 1.2.5 1-.6.2.6.7.8.4 1.4-.1zM-2.9 41l.5-.4-.1-.9-.2.6-1.2.6-.7-.2-.4.3-.7-.4-.4-.6v1l1 .5h1zM2.8 36.4l-5.3-1.6 3.4 1.8-2.6-.3-2.1-.6-1.1.3-1 1-.7.2-.2.4.9-.2-.1.9.7-1.3 1.3-.8 1.3.4 1.3.9v-.6l2.1.4 2 1.9z"/></g></g><g clip-rule="evenodd"><path fill-rule="evenodd" fill="#E1E18C" d="M-.4 10.4l-1.7-6.7-3 .5-.8-.1-3.3.6-1.9 1.1.1.3 1.9-.1.1.6-1 .6-.2.5-.9.1-.2 1 .9.7-.8.6h.2l4.2 1.5 3.4-.5z"/><path stroke="#151215" stroke-width=".425" fill="none" d="M-.4 10.4l-1.7-6.7-3 .5-.8-.1-3.3.6-1.9 1.1.1.3 1.9-.1.1.6-1 .6-.2.5-.9.1-.2 1 .9.7-.8.6h.2l4.2 1.5 3.4-.5z"/><path fill-rule="evenodd" fill="#fff" d="M-4.5.4l1 3.4.2 2.2.4.1v2.5l.4.2-.8 3.8 3.3-1.3 2.3-.6-.4 1.1 4.1-1.4.6-10.3z"/><path stroke="#151215" stroke-width=".425" fill="none" d="M-4.5.4l11.1-.3-.6 10.3-4.1 1.4.4-1.1-2.3.6-3.3 1.3.8-3.8-.4-.2v-2.5l-.4-.1-.2-2.2z"/><path fill-rule="evenodd" fill="#FBF8C7" d="M14.2 8.1l1.3-2.7.1-2.5.4-1.6.1-1.4-10.8.1.5 2.1-.9 8.7-2 .8.9 1 4.1-.2.5-.5 3.3-.6 1.7-.5 1.1-2.6z"/><path stroke="#151215" stroke-width=".425" fill="none" d="M14.2 8.1l1.3-2.7.1-2.5.4-1.6.1-1.4-10.8.1.5 2.1-.9 8.7-2 .8.9 1 4.1-.2.5-.5 3.3-.6 1.7-.5 1.1-2.6z"/></g><g clip-rule="evenodd"><path fill-rule="evenodd" fill="#FBF8C7" d="M-23.7 13.3l1.5-.5-1.1-.9-4.3-11.6-4.6-.1.1 4.3.6.4-.1 3 1.6 3.2 3.7 2z"/><path stroke="#151215" stroke-width=".425" fill="none" d="M-23.7 13.3l-2.6-.2-3.7-2-1.6-3.2.1-3-.6-.4-.1-4.3 4.6.1 4.3 11.6 1.1.9z"/><path fill-rule="evenodd" fill="#fff" d="M-17.2 2.8l-1.8-2.5h-9.3l-.7 1.4-.2-.7-.2 2.3 2.5 1.4v1l.2.4.6 3.8 1.6 1.8 1.8 1 .5.1-.3-.7v-2.4l.7-1.5-.4-.8.4-.9-.5-1.4.2-2.2-1.1-.7 1.3-.8 1.1.1v1.8l3.2 6.9.9-1.5-.5-3-.9-.6-.5-1.1z"/><path stroke="#151215" stroke-width=".425" fill="none" d="M-17.2 2.8l-1.8-2.5h-9.3l-.7 1.4-.2-.7-.2 2.3 2.5 1.4v1l.2.4.6 3.8 1.6 1.8 1.8 1 .5.1-.3-.7v-2.4l.7-1.5-.4-.8.4-.9-.5-1.4.2-2.2-1.1-.7 1.3-.8 1.1.1v1.8l3.2 6.9.9-1.5-.5-3-.9-.6-.5-1.1z"/><path fill-rule="evenodd" fill="#FAE900" d="M-11.3 25.6l-.4.9.5 1.1h.8l1.2 1.6.6-.3-.3-2 .2-1.5-.9-.4-1.1-.8-.1-1.4.4-.9-1-.2-8.6-17.5.3-1.1-1.8-.6-.5 1.8.7.3 8.1 17.9-.4 1.2h1l.9.8z"/><path stroke="#151215" stroke-width=".425" fill="none" d="M-11.3 25.6l-.4-1.1-.9-.8h-1l.4-1.2-8.1-17.9-.7-.3.5-1.8 1.8.6-.3 1.1 8.6 17.5 1 .2-.4.9.1 1.4 1.1.8.9.4-.2 1.5.3 2-.6.3-1.2-1.6h-.8l-.5-1.1z"/><path fill-rule="evenodd" fill="#00ADE5" d="M-9.5 30.3l1.2.3.6-.3.1-1.2-1.5-.3z"/><path stroke="#151215" stroke-width=".425" fill="none" d="M-9.5 30.3l1.2.3.6-.3.1-1.2-1.5-.3z"/><path fill-rule="evenodd" fill="#E1E18C" d="M-14.7 13.7l-.5-.3.1-.5-.5-.3-3.2.5-.8-.3 3.6-.8.3-.4-.4-.4-2.7-.3-2.5-6.3-.7-.2-.2.6.5 1.6-.4.6.3 1-.7 1.5.2 2.2.6 1.6.5.5v.8l2.2 1.8.7 1.1 2.5-.5 1.1-1.1.6.5.9-.5-1.2-1.6z"/><path stroke="#151215" stroke-width=".425" fill="none" d="M-14.7 13.7l-.5-.3.1-.5-.5-.3-3.2.5-.8-.3 3.6-.8.3-.4-.4-.4-2.7-.3-2.5-6.3-.7-.2-.2.6.5 1.6-.4.6.3 1-.7 1.5.2 2.2.6 1.6.5.5v.8l2.2 1.8.7 1.1 2.5-.5 1.1-1.1.6.5.9-.5-1.2-1.6z"/><path fill-rule="evenodd" fill="#E1E18C" d="M-21.9 3.1l.5-.6.7.2-.1-1.2-1.1-.1-1.3.8z"/><path stroke="#151215" stroke-width=".425" fill="none" d="M-21.9 3.1l-1.3-.9 1.3-.8 1.1.1.1 1.2-.7-.2z"/></g><g clip-rule="evenodd"><path fill-rule="evenodd" fill="#FAE900" d="M-1.6 31.1l-.1-1.1.8-.9-1.4-1.1-.1-1-1.1.5-1.7-.9-1 .9-1.3.1.6 1-.6 1.2.9.2-.2.9 1-.3 1.5 1.1 1.4-.9z"/><path stroke="#151215" stroke-width=".425" fill="none" d="M-1.6 31.1l-.1-1.1.8-.9-1.4-1.1-.1-1-1.1.5-1.7-.9-1 .9-1.3.1.6 1-.6 1.2.9.2-.2.9 1-.3 1.5 1.1 1.4-.9z"/><path fill-rule="evenodd" fill="#F3000B" d="M-5.9 29v.7l.7.5h1.3l1-.7-.2-.7-.7-.6-1.9.2z"/><path stroke="#151215" stroke-width=".425" fill="none" d="M-5.9 29v.7l.7.5h1.3l1-.7-.2-.7-.7-.6-1.9.2z"/></g><g clip-rule="evenodd"><path fill-rule="evenodd" fill="#FAE900" d="M3.5 6.4l1-1.3-.7-.9v-1.1l-1.1.4-1.1-.5-.2.6-.9-.2.3.8-1.2 1.1.7 1.3-.4 1h1.1l.8.7 1.1-1h.9z"/><path stroke="#151215" stroke-width=".425" fill="none" d="M3.5 6.4l1-1.3-.7-.9v-1.1l-1.1.4-1.1-.5-.2.6-.9-.2.3.8-1.2 1.1.7 1.3-.4 1h1.1l.8.7 1.1-1h.9z"/><path fill-rule="evenodd" fill="#F3000B" d="M2.3 4.5l-.6-.1-.6.5-.1 1.1.6.8h.7l.6-.6-.1-1.6z"/><path stroke="#151215" stroke-width=".425" fill="none" d="M2.3 4.5l-.6-.1-.6.5-.1 1.1.6.8h.7l.6-.6-.1-1.6z"/></g><g clip-rule="evenodd"><path fill-rule="evenodd" fill="#FAE900" d="M-23.9 9.9l-.5-.7.4-1.3-.9-.8-.1-1.1-.7.4-.8-.4-.1 1.1 1.2 3.3.9.2-.1-.7z"/><path stroke="#151215" stroke-width=".425" fill="none" d="M-23.9 9.9h-.7l.1.7-.9-.2-1.2-3.3.1-1.1.8.4.7-.4.1 1.1.9.8-.4 1.3z"/><path fill-rule="evenodd" fill="#F3000B" d="M-25.5 9.5l.5-.2v-.5l-.3-1-.5-.6-.4.3v.9l.3 1.1z"/><path stroke="#151215" stroke-width=".425" fill="none" d="M-25.5 9.5l.5-.2v-.5l-.3-1-.5-.6-.4.3v.9l.3 1.1z"/></g><g fill-rule="evenodd" clip-rule="evenodd" fill="#151215"><path d="M6.8 24l.6-2 1.2 1.2-1.8-3.8-.1.5zM14.7 24.1l.6-2 1.2 2.6-.9-3.5-1-1.7zM15.1 30.9l.6-2 .9 1.4-1.3-3.5-.3-.5zM10.1 17.3l.9.5-1.7-2.6-.4-.2 1.2 4.7zM8 11.1l2.5-2.2-.4 1.3 1.3-1.4.1-1.9zM-27.7 11l-.3-1.7 1.8 2.6-2.1-5-.3 2.3zM-30 19.1l.4-1.7.5 3.1.3-5.4-1.3 2zM-24.7 25.4l-.5-1.7 2 2.5-2.5-4.9-.1 2.4zM-23.4 31.2l-.7-1.6 2.4 2.2-3.3-4.4.3 2.4zM-24.2 18.1l1.4-2.8-.5-2-1.2 3.1.9-.9zM-13.5 8l2.1.6.2-.8-.6-1.4-1.7-.8-.9-3.7-.4 4.2-.6 2zM-31.3 3.1l.4-1.6.4 3.1.2-4.5-1.1 1.1zM8.6 6l.8-4.4-1.2-1.5v3.7l.5-1.5zM13.9 4l1-4.1h-1.7l.2 1.9.6-1.4zM2.3 14.9l.7-1 1.3 3.3-.8-3.4-1-1.8z"/></g><path clip-rule="evenodd" stroke="#151215" stroke-width=".425" fill="none" d="M-10.2 42l.2-2.9.6-1.2.6-4.2M-11.9 40.3l.3-6.8-1.7-1.3M-13.3 38l-.4-2.1-3-2.2-.5-4.6M4.9 45.8l.2-3.2-.6-2.1 2-6.4-.8-4.2M7.4 47.6l.4-2.8 1.1-2.7-1.2-4.1.7-4.7 1.9-4.8M13.3 38.2l-1.3-3.8-.1-2.3 1.7-2.2M17.8 33l-5.1 3.4M10.4 41.1l.9-2.6-1.6-2.4M-1.4 21l-.8 1.9-2.9.2-.3-1.2-2.1.1-.6 1.3h-1.5l.3.7M-2 18.7l-3.8-3.1.8-1-4.2-3-1.7 3.1.8.7-2 2M13.7 10.1l6.8-1 3.2 1 7.3-1.8.9-1.1M-5.1 23.1l-.4-5.8M-7.7 22.4l-2-5.8"/><g fill-rule="evenodd" clip-rule="evenodd" opacity=".5" enable-background="new"><path d="M2.5 46.9l.4-2.5-1.4-1.9.8-1.8-1.7-3.2.7 3.2-.6 1.4 1.1 2.9-.6 3-1.3.5.7 1.5-.5.3.4 3.6 2.8-.3.7 1.5 2.7-.2-.9-1.2.7-1.4-.7-3.6-1.5.7-2.3.3-.1-.2-.3-1.5zM21 25.2l.1.3 1.9 2.2 4.3-6.5 3.6-11.6 3.1-1.9.8-4.8 1.4-3.2-19.7.2 14.6 2.5 1.4 1.8.9-.2.6 2.1-3 2.2-6.4 1.6 3.8.7-3.2 9.3zM-15.4 8.1l4 .5-1-4.6-1.5-3.4-2.5-.4.8 1.9zM15 17.8l3.1 2.9-2.2-4.4-2-2.4-.6-3.1-4.8 1.3 1.9 2.8z"/></g></symbol><use xlink:href="#b" width="98" height="148" x="-49" y="-74" transform="matrix(1 0 0 -1 50 75)" overflow="visible"/><g><g><use xlink:href="#c" width="10.3" height="10.3" x="-5.1" y="-5.1" transform="matrix(-1 0 0 1 90 122)" overflow="visible"/><use xlink:href="#c" width="10.3" height="10.3" x="-5.1" y="-5.1" transform="matrix(1 0 0 -1 10 28)" overflow="visible"/><use xlink:href="#d" width="6.5" height="12.1" x="-3.2" y="-6" transform="matrix(-1 0 0 1 90 136)" overflow="visible"/><use xlink:href="#d" width="6.5" height="12.1" x="-3.2" y="-6" transform="matrix(-1 0 0 1 10 136)" overflow="visible"/><use xlink:href="#d" width="6.5" height="12.1" x="-3.2" y="-6" transform="matrix(1 0 0 -1 90 14)" overflow="visible"/><use xlink:href="#d" width="6.5" height="12.1" x="-3.2" y="-6" transform="matrix(1 0 0 -1 10 13.999)" overflow="visible"/><use xlink:href="#e" width="74" height="64.7" x="-37" y="-.5" transform="matrix(1 0 0 -1 50 75)" overflow="visible"/><use xlink:href="#e" width="74" height="64.7" x="-37" y="-.5" transform="matrix(-1 0 0 1 50 75)" overflow="visible"/><use xlink:href="#f" width="82" height="132" x="-41" y="-66" transform="matrix(1 0 0 -1 50 75)" overflow="visible"/><use xlink:href="#g" width="15.4" height="20.8" x="-7.7" y="-10.4" transform="matrix(-1 0 0 1 73 126)" overflow="visible"/><use xlink:href="#g" width="15.4" height="20.8" x="-7.7" y="-10.4" transform="matrix(-1 0 0 1 27 126)" overflow="visible"/><use xlink:href="#g" width="15.4" height="20.8" x="-7.7" y="-10.4" transform="matrix(1 0 0 -1 73 24)" overflow="visible"/><use xlink:href="#g" width="15.4" height="20.8" x="-7.7" y="-10.4" transform="matrix(1 0 0 -1 27 24)" overflow="visible"/></g></g></svg>
